G04 (Genere par PCBNEW (2007-05-25)) le 7/11/2007-12:50:10*
G01*
G70*
G90*
%MOIN*%
G04 Gerber Fmt 3.4, Leading zero omitted, Abs format*
%FSLAX34Y34*%
G04 APERTURE LIST*
%ADD10C,0.015000*%
%ADD11R,0.070000X0.070000*%
%ADD12C,0.070000*%
%ADD13C,0.169300*%
%ADD14C,0.059100*%
%ADD15C,0.045000*%
%ADD16C,0.030000*%
%ADD17C,0.017000*%
%ADD18C,0.005000*%
%ADD19C,0.006000*%
%ADD20R,0.025000X0.045000*%
%ADD21R,0.045000X0.025000*%
%ADD22R,0.100000X0.050000*%
%ADD23R,0.050000X0.100000*%
%ADD24R,0.020000X0.050000*%
%ADD25R,0.036000X0.036000*%
%ADD26R,0.080000X0.060000*%
%ADD27R,0.060000X0.080000*%
%ADD28C,0.015000*%
%ADD29C,0.012000*%
%ADD30C,0.008000*%
%ADD31R,0.090000X0.090000*%
%ADD32C,0.090000*%
%ADD33C,0.189300*%
%ADD34C,0.079100*%
%ADD35R,0.045000X0.065000*%
%ADD36R,0.065000X0.045000*%
%ADD37R,0.120000X0.070000*%
%ADD38R,0.070000X0.120000*%
%ADD39R,0.040000X0.070000*%
%ADD40R,0.056000X0.056000*%
%ADD41R,0.100000X0.080000*%
%ADD42R,0.080000X0.100000*%
G04 APERTURE END LIST*
G54D10*
X16750Y-32500D02*
X16750Y-21750D01*
X34500Y-32500D02*
X16750Y-32500D01*
X34500Y-21750D02*
X34500Y-32500D01*
X16750Y-21750D02*
X34500Y-21750D01*
G54D31*
X31850Y-29550D03*
G54D32*
X31850Y-28550D03*
X31850Y-27550D03*
X31850Y-26550D03*
X31850Y-25550D03*
G54D31*
X24750Y-31450D03*
G54D32*
X25750Y-31450D03*
X26750Y-31450D03*
X27750Y-31450D03*
X28750Y-31450D03*
X24000Y-25500D03*
X26000Y-25500D03*
G54D35*
X23800Y-31000D03*
X23200Y-31000D03*
X28700Y-30000D03*
X29300Y-30000D03*
X28250Y-30600D03*
X28850Y-30600D03*
X29000Y-27250D03*
X28400Y-27250D03*
X30150Y-27800D03*
X29550Y-27800D03*
X31600Y-22550D03*
X31000Y-22550D03*
X20550Y-23500D03*
X19950Y-23500D03*
X19300Y-23500D03*
X18700Y-23500D03*
X25550Y-23250D03*
X24950Y-23250D03*
X25450Y-24750D03*
X26050Y-24750D03*
X25100Y-24200D03*
X25700Y-24200D03*
X28700Y-29400D03*
X29300Y-29400D03*
G54D36*
X26250Y-23650D03*
X26250Y-24250D03*
X32750Y-26850D03*
X32750Y-26250D03*
G54D35*
X19600Y-26400D03*
X19000Y-26400D03*
G54D37*
X21500Y-23400D03*
X21500Y-24600D03*
X29000Y-24400D03*
X29000Y-25600D03*
X27750Y-24400D03*
X27750Y-25600D03*
G54D38*
X30750Y-24500D03*
X31950Y-24500D03*
G54D37*
X22750Y-23400D03*
X22750Y-24600D03*
X24000Y-23400D03*
X24000Y-24600D03*
G54D39*
X27750Y-26700D03*
X27250Y-26700D03*
X26750Y-26700D03*
X26250Y-26700D03*
X25750Y-26700D03*
X25250Y-26700D03*
X24750Y-26700D03*
X24250Y-26700D03*
X23750Y-26700D03*
X23250Y-26700D03*
X22750Y-26700D03*
X22250Y-26700D03*
X21750Y-26700D03*
X21250Y-26700D03*
X21250Y-30300D03*
X21750Y-30300D03*
X22250Y-30300D03*
X22750Y-30300D03*
X23250Y-30300D03*
X23750Y-30300D03*
X24250Y-30300D03*
X24750Y-30300D03*
X25250Y-30300D03*
X25750Y-30300D03*
X26250Y-30300D03*
X26750Y-30300D03*
X27250Y-30300D03*
X27750Y-30300D03*
G54D40*
X29800Y-29200D03*
X30500Y-29200D03*
X30150Y-30000D03*
X29800Y-31350D03*
X29800Y-30650D03*
X30600Y-31000D03*
G54D33*
X17898Y-30114D03*
X17898Y-25382D03*
G54D34*
X19750Y-27258D03*
X18960Y-27258D03*
X18960Y-28242D03*
X19750Y-28242D03*
G54D35*
X20550Y-26000D03*
X21150Y-26000D03*
G54D41*
X32850Y-29000D03*
X32850Y-27700D03*
G54D40*
X28400Y-28850D03*
X28400Y-28150D03*
X29200Y-28500D03*
G54D42*
X29250Y-23450D03*
X30550Y-23450D03*
X27250Y-23650D03*
X28550Y-23650D03*
X26500Y-22500D03*
X27800Y-22500D03*
X31250Y-23250D03*
X32550Y-23250D03*
G54D41*
X32850Y-24350D03*
X32850Y-25650D03*
M02*
