G04 (Genere par PCBNEW (2007-05-25)) le 7/11/2007-12:50:09*
G01*
G70*
G90*
%MOIN*%
G04 Gerber Fmt 3.4, Leading zero omitted, Abs format*
%FSLAX34Y34*%
G04 APERTURE LIST*
%ADD10C,0.015000*%
%ADD11R,0.070000X0.070000*%
%ADD12C,0.070000*%
%ADD13C,0.169300*%
%ADD14C,0.059100*%
%ADD15C,0.045000*%
%ADD16C,0.030000*%
%ADD17C,0.017000*%
%ADD18C,0.005000*%
%ADD19C,0.006000*%
%ADD20R,0.025000X0.045000*%
%ADD21R,0.045000X0.025000*%
%ADD22R,0.100000X0.050000*%
%ADD23R,0.050000X0.100000*%
%ADD24R,0.020000X0.050000*%
%ADD25R,0.036000X0.036000*%
%ADD26R,0.080000X0.060000*%
%ADD27R,0.060000X0.080000*%
G04 APERTURE END LIST*
G54D10*
X16750Y-32500D02*
X16750Y-21750D01*
X34500Y-32500D02*
X16750Y-32500D01*
X34500Y-21750D02*
X34500Y-32500D01*
X16750Y-21750D02*
X34500Y-21750D01*
G54D19*
X16941Y-31900D02*
X16941Y-32256D01*
X16941Y-32256D02*
X16966Y-32300D01*
X16966Y-32300D02*
X17091Y-32300D01*
X17091Y-32300D02*
X17116Y-32256D01*
X17116Y-32256D02*
X17116Y-31900D01*
X17223Y-32256D02*
X17248Y-32300D01*
X17248Y-32300D02*
X17373Y-32300D01*
X17373Y-32300D02*
X17398Y-32256D01*
X17398Y-32256D02*
X17398Y-32212D01*
X17398Y-32212D02*
X17373Y-32167D01*
X17373Y-32167D02*
X17248Y-32167D01*
X17248Y-32167D02*
X17223Y-32123D01*
X17223Y-32123D02*
X17223Y-32078D01*
X17223Y-32078D02*
X17248Y-32034D01*
X17248Y-32034D02*
X17373Y-32034D01*
X17373Y-32034D02*
X17398Y-32078D01*
X17505Y-31900D02*
X17505Y-32300D01*
X17505Y-32300D02*
X17680Y-32300D01*
X17680Y-32300D02*
X17680Y-32123D01*
X17680Y-32123D02*
X17655Y-32078D01*
X17655Y-32078D02*
X17505Y-32078D01*
X17787Y-32433D02*
X17787Y-32034D01*
X17787Y-32078D02*
X17812Y-32034D01*
X17812Y-32034D02*
X17937Y-32034D01*
X17937Y-32034D02*
X17962Y-32078D01*
X17962Y-32078D02*
X17962Y-32256D01*
X17962Y-32256D02*
X17937Y-32300D01*
X17937Y-32300D02*
X17812Y-32300D01*
X17812Y-32300D02*
X17787Y-32256D01*
X18144Y-31900D02*
X18144Y-31945D01*
X18144Y-32078D02*
X18144Y-32256D01*
X18144Y-32256D02*
X18169Y-32300D01*
X18169Y-32300D02*
X18194Y-32300D01*
X18526Y-32256D02*
X18501Y-32300D01*
X18501Y-32300D02*
X18376Y-32300D01*
X18376Y-32300D02*
X18351Y-32256D01*
X18351Y-32256D02*
X18351Y-32078D01*
X18351Y-32078D02*
X18376Y-32034D01*
X18376Y-32034D02*
X18501Y-32034D01*
X18501Y-32034D02*
X18526Y-32078D01*
X18633Y-32433D02*
X18633Y-32034D01*
X18633Y-32078D02*
X18658Y-32034D01*
X18658Y-32034D02*
X18783Y-32034D01*
X18783Y-32034D02*
X18808Y-32078D01*
X18808Y-32078D02*
X18808Y-32256D01*
X18808Y-32256D02*
X18783Y-32300D01*
X18783Y-32300D02*
X18658Y-32300D01*
X18658Y-32300D02*
X18633Y-32256D01*
X18915Y-32300D02*
X18915Y-32034D01*
X18915Y-32123D02*
X18965Y-32034D01*
X18965Y-32034D02*
X19040Y-32034D01*
X19040Y-32034D02*
X19090Y-32123D01*
X19222Y-32300D02*
X19197Y-32256D01*
X19197Y-32256D02*
X19197Y-32078D01*
X19197Y-32078D02*
X19222Y-32034D01*
X19222Y-32034D02*
X19347Y-32034D01*
X19347Y-32034D02*
X19372Y-32078D01*
X19372Y-32078D02*
X19372Y-32256D01*
X19372Y-32256D02*
X19347Y-32300D01*
X19347Y-32300D02*
X19222Y-32300D01*
X19479Y-32388D02*
X19504Y-32433D01*
X19504Y-32433D02*
X19629Y-32433D01*
X19629Y-32433D02*
X19654Y-32388D01*
X19654Y-32388D02*
X19654Y-32078D01*
X19654Y-32078D02*
X19629Y-32034D01*
X19629Y-32034D02*
X19504Y-32034D01*
X19504Y-32034D02*
X19479Y-32078D01*
X19479Y-32078D02*
X19479Y-32256D01*
X19479Y-32256D02*
X19504Y-32300D01*
X19504Y-32300D02*
X19629Y-32300D01*
X19629Y-32300D02*
X19654Y-32256D01*
X20043Y-32034D02*
X20043Y-32167D01*
X20043Y-32167D02*
X20118Y-32300D01*
X20118Y-32300D02*
X20193Y-32167D01*
X20193Y-32167D02*
X20193Y-32034D01*
X20325Y-32300D02*
X20500Y-31900D01*
X20325Y-32256D02*
X20325Y-31945D01*
X20325Y-31945D02*
X20350Y-31900D01*
X20350Y-31900D02*
X20475Y-31900D01*
X20475Y-31900D02*
X20500Y-31945D01*
X20500Y-31945D02*
X20500Y-32256D01*
X20500Y-32256D02*
X20475Y-32300D01*
X20475Y-32300D02*
X20350Y-32300D01*
X20350Y-32300D02*
X20325Y-32256D01*
X20682Y-32300D02*
X20682Y-32256D01*
X21064Y-32300D02*
X20889Y-32300D01*
X20889Y-32300D02*
X20889Y-32167D01*
X20889Y-32167D02*
X20914Y-32123D01*
X20914Y-32123D02*
X21039Y-32123D01*
X21039Y-32123D02*
X21064Y-32078D01*
X21064Y-32078D02*
X21064Y-31945D01*
X21064Y-31945D02*
X21039Y-31900D01*
X21039Y-31900D02*
X20914Y-31900D01*
X20914Y-31900D02*
X20889Y-31945D01*
G54D11*
X31850Y-29550D03*
G54D12*
X31850Y-28550D03*
X31850Y-27550D03*
X31850Y-26550D03*
X31850Y-25550D03*
G54D11*
X24750Y-31450D03*
G54D12*
X25750Y-31450D03*
X26750Y-31450D03*
X27750Y-31450D03*
X28750Y-31450D03*
X24000Y-25500D03*
X26000Y-25500D03*
G54D20*
X23800Y-31000D03*
X23200Y-31000D03*
X28700Y-30000D03*
X29300Y-30000D03*
X28250Y-30600D03*
X28850Y-30600D03*
X29000Y-27250D03*
X28400Y-27250D03*
X30150Y-27800D03*
X29550Y-27800D03*
X31600Y-22550D03*
X31000Y-22550D03*
X20550Y-23500D03*
X19950Y-23500D03*
X19300Y-23500D03*
X18700Y-23500D03*
X25550Y-23250D03*
X24950Y-23250D03*
X25450Y-24750D03*
X26050Y-24750D03*
X25100Y-24200D03*
X25700Y-24200D03*
X28700Y-29400D03*
X29300Y-29400D03*
G54D21*
X26250Y-23650D03*
X26250Y-24250D03*
X32750Y-26850D03*
X32750Y-26250D03*
G54D20*
X19600Y-26400D03*
X19000Y-26400D03*
G54D22*
X21500Y-23400D03*
X21500Y-24600D03*
X29000Y-24400D03*
X29000Y-25600D03*
X27750Y-24400D03*
X27750Y-25600D03*
G54D23*
X30750Y-24500D03*
X31950Y-24500D03*
G54D22*
X22750Y-23400D03*
X22750Y-24600D03*
X24000Y-23400D03*
X24000Y-24600D03*
G54D24*
X27750Y-26700D03*
X27250Y-26700D03*
X26750Y-26700D03*
X26250Y-26700D03*
X25750Y-26700D03*
X25250Y-26700D03*
X24750Y-26700D03*
X24250Y-26700D03*
X23750Y-26700D03*
X23250Y-26700D03*
X22750Y-26700D03*
X22250Y-26700D03*
X21750Y-26700D03*
X21250Y-26700D03*
X21250Y-30300D03*
X21750Y-30300D03*
X22250Y-30300D03*
X22750Y-30300D03*
X23250Y-30300D03*
X23750Y-30300D03*
X24250Y-30300D03*
X24750Y-30300D03*
X25250Y-30300D03*
X25750Y-30300D03*
X26250Y-30300D03*
X26750Y-30300D03*
X27250Y-30300D03*
X27750Y-30300D03*
G54D25*
X29800Y-29200D03*
X30500Y-29200D03*
X30150Y-30000D03*
X29800Y-31350D03*
X29800Y-30650D03*
X30600Y-31000D03*
G54D13*
X17898Y-30114D03*
X17898Y-25382D03*
G54D14*
X19750Y-27258D03*
X18960Y-27258D03*
X18960Y-28242D03*
X19750Y-28242D03*
G54D20*
X20550Y-26000D03*
X21150Y-26000D03*
G54D26*
X32850Y-29000D03*
X32850Y-27700D03*
G54D25*
X28400Y-28850D03*
X28400Y-28150D03*
X29200Y-28500D03*
G54D27*
X29250Y-23450D03*
X30550Y-23450D03*
X27250Y-23650D03*
X28550Y-23650D03*
X26500Y-22500D03*
X27800Y-22500D03*
X31250Y-23250D03*
X32550Y-23250D03*
G54D26*
X32850Y-24350D03*
X32850Y-25650D03*
G54D15*
X20050Y-31150D03*
X22250Y-31150D03*
X31150Y-29750D03*
X31150Y-31700D03*
X28900Y-22450D03*
X17900Y-22450D03*
X20500Y-22450D03*
X22950Y-22450D03*
X25500Y-22450D03*
X33750Y-30900D03*
X21850Y-29450D03*
X24850Y-27550D03*
X23750Y-29550D03*
X22800Y-28950D03*
X26750Y-28950D03*
G54D16*
X17898Y-29000D02*
X17898Y-29200D01*
X20000Y-31100D02*
X19018Y-30118D01*
X20050Y-31150D02*
X20000Y-31100D01*
X19018Y-30118D02*
X17898Y-30118D01*
X17898Y-29200D02*
X17898Y-30118D01*
G54D17*
X23250Y-30300D02*
X23250Y-30950D01*
X24250Y-26700D02*
X24250Y-27250D01*
G54D16*
X24250Y-28500D02*
X24250Y-27600D01*
X23250Y-29500D02*
X24250Y-28500D01*
X24250Y-27600D02*
X24250Y-27580D01*
X24250Y-27580D02*
X24250Y-27250D01*
X23250Y-29500D02*
X23250Y-29500D01*
X23250Y-29750D02*
X23250Y-29500D01*
G54D17*
X23250Y-29750D02*
X23250Y-30300D01*
X26050Y-24750D02*
X26750Y-24750D01*
X24250Y-26700D02*
X24250Y-26500D01*
X26750Y-25750D02*
X26750Y-24750D01*
X26500Y-26000D02*
X26750Y-25750D01*
X26250Y-26250D02*
X26500Y-26000D01*
X26000Y-26250D02*
X26250Y-26250D01*
X25750Y-26000D02*
X26000Y-26250D01*
X24750Y-26000D02*
X25750Y-26000D01*
X24250Y-26500D02*
X24750Y-26000D01*
G54D16*
X17898Y-28700D02*
X17898Y-30114D01*
X17898Y-28250D02*
X17898Y-28700D01*
X24200Y-31600D02*
X23900Y-31600D01*
X23900Y-31600D02*
X23600Y-31600D01*
X23600Y-31600D02*
X23450Y-31600D01*
X17898Y-28700D02*
X17898Y-28650D01*
X17898Y-29198D02*
X17900Y-29200D01*
X17900Y-29200D02*
X17898Y-29200D01*
G54D17*
X25700Y-24200D02*
X25800Y-24200D01*
X26050Y-24450D02*
X26050Y-24750D01*
X25800Y-24200D02*
X26000Y-24400D01*
X26000Y-24400D02*
X26050Y-24450D01*
G54D16*
X23200Y-31000D02*
X23200Y-31350D01*
X23200Y-31350D02*
X23450Y-31600D01*
X23200Y-31350D02*
X22450Y-31350D01*
G54D17*
X23250Y-30950D02*
X23200Y-31000D01*
G54D16*
X24600Y-31600D02*
X24750Y-31450D01*
X17900Y-26400D02*
X17898Y-26400D01*
X19000Y-26400D02*
X17900Y-26400D01*
X17898Y-25382D02*
X17898Y-26398D01*
X17898Y-26398D02*
X17900Y-26400D01*
X17898Y-28100D02*
X17898Y-29198D01*
X24200Y-31600D02*
X24600Y-31600D01*
X17898Y-28250D02*
X17898Y-28250D01*
X17898Y-28150D02*
X17898Y-28250D01*
X17898Y-28100D02*
X17898Y-28150D01*
X17898Y-27250D02*
X17898Y-28100D01*
X17898Y-27300D02*
X17898Y-27250D01*
X17898Y-26400D02*
X17898Y-27300D01*
G54D17*
X18960Y-26440D02*
X19000Y-26400D01*
G54D16*
X18960Y-27258D02*
X18960Y-26440D01*
X18960Y-26440D02*
X19000Y-26400D01*
X17898Y-28650D02*
X17898Y-28950D01*
X20550Y-26000D02*
X20550Y-27250D01*
X24300Y-27600D02*
X24250Y-27600D01*
X24250Y-27550D02*
X24300Y-27600D01*
X20850Y-27550D02*
X24250Y-27550D01*
X20550Y-27250D02*
X20850Y-27550D01*
G54D17*
X31950Y-24500D02*
X32700Y-24500D01*
X32700Y-24500D02*
X32850Y-24350D01*
G54D16*
X17898Y-28950D02*
X17898Y-29000D01*
G54D17*
X29800Y-28800D02*
X29950Y-28650D01*
X29950Y-28650D02*
X30650Y-28650D01*
X30650Y-28650D02*
X31400Y-29400D01*
X31400Y-29400D02*
X31550Y-29550D01*
X31550Y-29550D02*
X31850Y-29550D01*
X29300Y-29400D02*
X29600Y-29400D01*
X29600Y-29400D02*
X29800Y-29200D01*
X32750Y-26250D02*
X32400Y-26250D01*
X32400Y-26250D02*
X32200Y-26050D01*
X32200Y-26050D02*
X31500Y-26050D01*
X31500Y-26050D02*
X31300Y-25850D01*
X32750Y-26250D02*
X33000Y-26250D01*
X32150Y-29850D02*
X31850Y-29550D01*
X33200Y-29850D02*
X32150Y-29850D01*
X33550Y-29500D02*
X33200Y-29850D01*
X33550Y-26800D02*
X33550Y-29500D01*
X33000Y-26250D02*
X33550Y-26800D01*
X31950Y-24500D02*
X31950Y-24650D01*
X31300Y-25300D02*
X31300Y-25850D01*
X31950Y-24650D02*
X31300Y-25300D01*
X26250Y-24250D02*
X26100Y-24250D01*
X26000Y-24350D02*
X26000Y-24400D01*
X26100Y-24250D02*
X26000Y-24350D01*
X31850Y-29550D02*
X31350Y-29550D01*
X31350Y-29550D02*
X31150Y-29750D01*
X30200Y-31750D02*
X29800Y-31350D01*
X31100Y-31750D02*
X30200Y-31750D01*
X31150Y-31700D02*
X31100Y-31750D01*
X29800Y-31350D02*
X29850Y-31350D01*
X29850Y-31350D02*
X30250Y-31750D01*
X30250Y-31750D02*
X31000Y-31750D01*
G54D16*
X17898Y-25382D02*
X17898Y-22452D01*
X28900Y-22450D02*
X28950Y-22500D01*
X17898Y-22452D02*
X17900Y-22450D01*
X20500Y-22450D02*
X22950Y-22450D01*
X31150Y-31700D02*
X32950Y-31700D01*
X32950Y-31700D02*
X33750Y-30900D01*
G54D17*
X29800Y-29200D02*
X29800Y-28800D01*
G54D16*
X22450Y-31350D02*
X22250Y-31150D01*
X24250Y-27550D02*
X24850Y-27550D01*
X23250Y-29550D02*
X23250Y-29500D01*
X21950Y-29550D02*
X23250Y-29550D01*
X21850Y-29450D02*
X21950Y-29550D01*
X23250Y-29550D02*
X23750Y-29550D01*
G54D17*
X30150Y-27800D02*
X30800Y-27800D01*
X31550Y-28550D02*
X31850Y-28550D01*
X30800Y-27800D02*
X31550Y-28550D01*
X31550Y-27550D02*
X31050Y-27050D01*
X31850Y-27550D02*
X31550Y-27550D01*
X29200Y-27050D02*
X29000Y-27250D01*
X31050Y-27050D02*
X29200Y-27050D01*
X32100Y-26550D02*
X32400Y-26850D01*
X31850Y-26550D02*
X32100Y-26550D01*
X32400Y-26850D02*
X32750Y-26850D01*
X32750Y-26850D02*
X32750Y-27600D01*
X32750Y-27600D02*
X32850Y-27700D01*
X32900Y-23450D02*
X32950Y-23450D01*
X32950Y-23450D02*
X33300Y-23450D01*
X33350Y-25650D02*
X32850Y-25650D01*
X33500Y-25500D02*
X33350Y-25650D01*
X33500Y-23650D02*
X33500Y-25500D01*
X33300Y-23450D02*
X33500Y-23650D01*
X31850Y-25550D02*
X32750Y-25550D01*
X32750Y-25550D02*
X32850Y-25650D01*
X30600Y-31000D02*
X32800Y-31000D01*
X31400Y-24850D02*
X31400Y-24100D01*
X31400Y-24100D02*
X31400Y-24100D01*
X30250Y-25200D02*
X31050Y-25200D01*
X31050Y-25200D02*
X31400Y-24850D01*
X30750Y-22150D02*
X30450Y-22450D01*
X33550Y-22150D02*
X30750Y-22150D01*
X34050Y-22650D02*
X33550Y-22150D01*
X34050Y-29750D02*
X34050Y-22650D01*
X32800Y-31000D02*
X34050Y-29750D01*
X30450Y-22450D02*
X30000Y-22900D01*
X30000Y-24950D02*
X30250Y-25200D01*
X30000Y-22900D02*
X30000Y-24950D01*
X31400Y-24100D02*
X31400Y-24050D01*
X31400Y-24050D02*
X31750Y-23700D01*
X31750Y-23700D02*
X32100Y-23700D01*
X32100Y-23700D02*
X32550Y-23250D01*
X32950Y-23450D02*
X32750Y-23450D01*
X32750Y-23450D02*
X32550Y-23250D01*
X27050Y-30850D02*
X26350Y-30850D01*
X27250Y-30650D02*
X27050Y-30850D01*
X26350Y-30850D02*
X25750Y-31450D01*
X27250Y-30300D02*
X27250Y-30650D01*
X27750Y-30300D02*
X27750Y-30700D01*
X27000Y-31450D02*
X26750Y-31450D01*
X27750Y-30700D02*
X27000Y-31450D01*
X19800Y-24000D02*
X19900Y-24100D01*
X18700Y-23500D02*
X18700Y-23800D01*
G54D16*
X20000Y-24200D02*
X20000Y-24200D01*
X20000Y-24200D02*
X19900Y-24100D01*
G54D17*
X20000Y-24000D02*
X19900Y-24100D01*
X19950Y-24050D02*
X19950Y-23500D01*
X19950Y-24050D02*
X20000Y-24000D01*
X18900Y-24000D02*
X19700Y-24000D01*
G54D16*
X20000Y-24200D02*
X20000Y-24250D01*
X27750Y-31450D02*
X27750Y-31800D01*
X27450Y-32100D02*
X25250Y-32100D01*
X27750Y-31800D02*
X27450Y-32100D01*
G54D17*
X25250Y-31000D02*
X25250Y-32100D01*
X25050Y-30800D02*
X25250Y-31000D01*
X25050Y-30800D02*
X25050Y-30800D01*
X23800Y-31000D02*
X24050Y-31000D01*
X24250Y-30800D02*
X25050Y-30800D01*
X24050Y-31000D02*
X24250Y-30800D01*
X19750Y-27258D02*
X19750Y-27350D01*
X19350Y-27750D02*
X18550Y-27750D01*
X19750Y-27350D02*
X19350Y-27750D01*
G54D16*
X18550Y-27750D02*
X18500Y-27750D01*
X18500Y-27750D02*
X18350Y-27900D01*
X18350Y-27900D02*
X18350Y-28800D01*
X18350Y-28800D02*
X21650Y-32100D01*
X21650Y-32100D02*
X25250Y-32100D01*
G54D17*
X20000Y-24000D02*
X20000Y-24200D01*
G54D16*
X19750Y-26550D02*
X19600Y-26400D01*
X19750Y-27258D02*
X19750Y-26550D01*
X19750Y-25850D02*
X20000Y-25600D01*
X19750Y-27258D02*
X19750Y-25850D01*
X20000Y-25600D02*
X20000Y-24250D01*
G54D17*
X23750Y-30950D02*
X23800Y-31000D01*
X23750Y-30300D02*
X23750Y-30950D01*
X19700Y-24000D02*
X20000Y-24000D01*
X18700Y-23800D02*
X18900Y-24000D01*
G54D16*
X20000Y-24250D02*
X20000Y-24200D01*
G54D17*
X19700Y-24000D02*
X19800Y-24000D01*
X28400Y-28850D02*
X28400Y-29100D01*
X28400Y-29100D02*
X28700Y-29400D01*
G54D16*
X28400Y-28850D02*
X26900Y-28850D01*
X20008Y-27258D02*
X19750Y-27258D01*
X20700Y-27950D02*
X20008Y-27258D01*
X21350Y-27950D02*
X20700Y-27950D01*
X21800Y-27950D02*
X21350Y-27950D01*
X22800Y-28950D02*
X21800Y-27950D01*
X26900Y-28850D02*
X26800Y-28950D01*
X26800Y-28950D02*
X26750Y-28950D01*
X20000Y-24200D02*
X20550Y-24200D01*
X24900Y-23700D02*
X25550Y-23700D01*
X25550Y-23700D02*
X25800Y-23700D01*
G54D17*
X25950Y-23700D02*
X25800Y-23700D01*
X26000Y-23650D02*
X25950Y-23700D01*
X26000Y-23650D02*
X26250Y-23650D01*
G54D16*
X24600Y-24000D02*
X24900Y-23700D01*
X20750Y-24000D02*
X24600Y-24000D01*
X20550Y-24200D02*
X20750Y-24000D01*
G54D17*
X25550Y-23250D02*
X25550Y-23700D01*
G54D16*
X26500Y-22500D02*
X26500Y-22950D01*
X26250Y-23200D02*
X26250Y-23650D01*
X26500Y-22950D02*
X26250Y-23200D01*
G54D17*
X27750Y-26700D02*
X29100Y-26700D01*
X29100Y-26700D02*
X29700Y-26100D01*
X29500Y-32200D02*
X28750Y-31450D01*
X34250Y-31200D02*
X34300Y-31150D01*
X34300Y-31150D02*
X34300Y-22550D01*
X34300Y-22550D02*
X33650Y-21900D01*
X33650Y-21900D02*
X30550Y-21900D01*
X30550Y-21900D02*
X30200Y-22250D01*
X33950Y-31500D02*
X34250Y-31200D01*
X33950Y-31500D02*
X33250Y-32200D01*
X33250Y-32200D02*
X29500Y-32200D01*
X29750Y-26050D02*
X29700Y-26100D01*
X29750Y-24300D02*
X29750Y-26050D01*
X29750Y-24300D02*
X29750Y-22700D01*
X29750Y-22700D02*
X30200Y-22250D01*
X23250Y-26700D02*
X23250Y-26250D01*
X24300Y-25500D02*
X24000Y-25500D01*
X25100Y-24200D02*
X25100Y-24700D01*
X25100Y-24700D02*
X24300Y-25500D01*
X23250Y-26250D02*
X24000Y-25500D01*
X25500Y-25500D02*
X26000Y-25500D01*
X23750Y-26500D02*
X24750Y-25500D01*
X23750Y-26700D02*
X23750Y-26500D01*
X25450Y-24750D02*
X25450Y-25450D01*
X25450Y-25450D02*
X25500Y-25500D01*
X24750Y-25500D02*
X25500Y-25500D01*
X28050Y-29550D02*
X26200Y-29550D01*
X28500Y-30000D02*
X28050Y-29550D01*
X28700Y-30000D02*
X28500Y-30000D01*
X25750Y-30000D02*
X25750Y-30300D01*
X26200Y-29550D02*
X25750Y-30000D01*
X29300Y-30000D02*
X29450Y-30000D01*
X30100Y-29600D02*
X30500Y-29200D01*
X29850Y-29600D02*
X30100Y-29600D01*
X29450Y-30000D02*
X29850Y-29600D01*
X28250Y-30600D02*
X28250Y-30300D01*
X26750Y-30050D02*
X26750Y-30300D01*
X27000Y-29800D02*
X26750Y-30050D01*
X27950Y-29800D02*
X27000Y-29800D01*
X28100Y-29950D02*
X27950Y-29800D01*
X28100Y-30150D02*
X28100Y-29950D01*
X28250Y-30300D02*
X28100Y-30150D01*
X29750Y-30600D02*
X29800Y-30650D01*
X28850Y-30600D02*
X29750Y-30600D01*
X24250Y-30300D02*
X24250Y-29000D01*
X26000Y-27250D02*
X28400Y-27250D01*
X24250Y-29000D02*
X26000Y-27250D01*
X27650Y-27500D02*
X26200Y-27500D01*
X27850Y-27700D02*
X27650Y-27500D01*
X29000Y-27700D02*
X27850Y-27700D01*
X29100Y-27800D02*
X29000Y-27700D01*
X29550Y-27800D02*
X29100Y-27800D01*
X24750Y-28950D02*
X24750Y-30300D01*
X24800Y-28900D02*
X24750Y-28950D01*
X26200Y-27500D02*
X24800Y-28900D01*
X31850Y-22600D02*
X33650Y-22600D01*
X30650Y-30000D02*
X30700Y-30050D01*
X30150Y-30000D02*
X30650Y-30000D01*
X32950Y-30500D02*
X31150Y-30500D01*
X33800Y-29650D02*
X32950Y-30500D01*
X33800Y-22750D02*
X33800Y-29650D01*
X33650Y-22600D02*
X33800Y-22750D01*
X30700Y-30050D02*
X31150Y-30500D01*
X31600Y-22550D02*
X31600Y-22900D01*
X31250Y-23250D02*
X31600Y-22900D01*
X31600Y-22550D02*
X31800Y-22550D01*
X31800Y-22550D02*
X31850Y-22600D01*
X30550Y-22850D02*
X30550Y-23450D01*
X30850Y-22550D02*
X30550Y-22850D01*
X30550Y-23450D02*
X30550Y-24300D01*
X30550Y-24300D02*
X30750Y-24500D01*
X31000Y-22550D02*
X30850Y-22550D01*
X20550Y-23500D02*
X21400Y-23500D01*
X21400Y-23500D02*
X21500Y-23400D01*
X22650Y-23400D02*
X22250Y-23000D01*
X22750Y-23400D02*
X22650Y-23400D01*
X19800Y-23000D02*
X19300Y-23500D01*
X22250Y-23000D02*
X19800Y-23000D01*
X24800Y-23400D02*
X24950Y-23250D01*
X24000Y-23400D02*
X24800Y-23400D01*
X21750Y-26700D02*
X21750Y-25750D01*
X21500Y-25500D02*
X21500Y-24600D01*
X21750Y-25750D02*
X21500Y-25500D01*
X29000Y-24400D02*
X29000Y-23700D01*
X29000Y-23700D02*
X29250Y-23450D01*
X28550Y-23650D02*
X29050Y-23650D01*
X29050Y-23650D02*
X29250Y-23450D01*
X28800Y-26150D02*
X29000Y-25950D01*
X27450Y-26150D02*
X28800Y-26150D01*
X27250Y-26350D02*
X27450Y-26150D01*
X27250Y-26700D02*
X27250Y-26350D01*
X29000Y-25950D02*
X29000Y-25600D01*
X27750Y-24400D02*
X27750Y-24150D01*
X27750Y-24150D02*
X27250Y-23650D01*
X27800Y-22500D02*
X27800Y-23100D01*
X27800Y-23100D02*
X27250Y-23650D01*
X27350Y-25600D02*
X27750Y-25600D01*
X26750Y-26200D02*
X27350Y-25600D01*
X26750Y-26700D02*
X26750Y-26200D01*
X22750Y-25500D02*
X22750Y-24600D01*
X22250Y-26000D02*
X22750Y-25500D01*
X22250Y-26700D02*
X22250Y-26000D01*
X23900Y-24600D02*
X24000Y-24600D01*
X23250Y-25250D02*
X23900Y-24600D01*
X23250Y-25500D02*
X23250Y-25250D01*
X22750Y-26000D02*
X23250Y-25500D01*
X22750Y-26700D02*
X22750Y-26000D01*
X21250Y-26700D02*
X21250Y-26100D01*
X21250Y-26100D02*
X21150Y-26000D01*
X20400Y-28242D02*
X20492Y-28242D01*
X20492Y-28242D02*
X21250Y-29000D01*
X20400Y-28242D02*
X19750Y-28242D01*
X21250Y-30300D02*
X21250Y-29000D01*
X21650Y-30800D02*
X20950Y-30800D01*
X21750Y-30300D02*
X21750Y-30700D01*
X21750Y-30700D02*
X21650Y-30800D01*
X18960Y-28810D02*
X18960Y-28242D01*
X20950Y-30800D02*
X18960Y-28810D01*
X26650Y-28150D02*
X28400Y-28150D01*
X25250Y-29550D02*
X26650Y-28150D01*
X25250Y-30300D02*
X25250Y-29550D01*
X32200Y-29050D02*
X31550Y-29050D01*
X32250Y-29000D02*
X32200Y-29050D01*
X32850Y-29000D02*
X32300Y-29000D01*
X33100Y-29000D02*
X32300Y-29000D01*
X32300Y-29000D02*
X32250Y-29000D01*
X29350Y-28350D02*
X29200Y-28500D01*
X30850Y-28350D02*
X29350Y-28350D01*
X31550Y-29050D02*
X30850Y-28350D01*
G54D18*
X33950Y-30300D02*
X33950Y-31050D01*
X33900Y-30350D02*
X33900Y-31100D01*
X33850Y-30400D02*
X33850Y-31150D01*
X33800Y-30450D02*
X33800Y-31200D01*
X33750Y-30500D02*
X33750Y-31250D01*
X33700Y-30550D02*
X33700Y-31300D01*
X33650Y-30600D02*
X33650Y-31350D01*
X33600Y-30650D02*
X33600Y-31400D01*
X33550Y-30700D02*
X33550Y-31450D01*
X33500Y-30750D02*
X33500Y-31500D01*
X33450Y-30800D02*
X33450Y-31550D01*
X33450Y-26200D02*
X33450Y-27150D01*
X33400Y-30850D02*
X33400Y-31600D01*
X33400Y-29550D02*
X33400Y-29600D01*
X33400Y-26200D02*
X33400Y-27150D01*
X33350Y-30900D02*
X33350Y-31650D01*
X33350Y-29550D02*
X33350Y-29650D01*
X33350Y-26200D02*
X33350Y-27150D01*
X33300Y-30950D02*
X33300Y-31700D01*
X33300Y-29550D02*
X33300Y-29700D01*
X33300Y-26200D02*
X33300Y-27150D01*
X33250Y-31000D02*
X33250Y-31750D01*
X33250Y-29550D02*
X33250Y-29750D01*
X33250Y-26200D02*
X33250Y-27150D01*
X33200Y-31050D02*
X33200Y-31800D01*
X33200Y-29550D02*
X33200Y-29800D01*
X33200Y-26200D02*
X33200Y-26450D01*
X33150Y-31100D02*
X33150Y-31850D01*
X33150Y-29550D02*
X33150Y-29850D01*
X33150Y-26200D02*
X33150Y-26450D01*
X33150Y-23800D02*
X33150Y-25100D01*
X33100Y-31150D02*
X33100Y-31850D01*
X33100Y-29550D02*
X33100Y-29900D01*
X33100Y-26200D02*
X33100Y-26450D01*
X33100Y-23800D02*
X33100Y-25100D01*
X33050Y-31200D02*
X33050Y-31850D01*
X33050Y-29550D02*
X33050Y-29950D01*
X33050Y-26200D02*
X33050Y-26450D01*
X33050Y-23900D02*
X33050Y-25100D01*
X33000Y-31250D02*
X33000Y-31850D01*
X33000Y-29550D02*
X33000Y-30000D01*
X33000Y-26200D02*
X33000Y-26450D01*
X33000Y-23900D02*
X33000Y-25100D01*
X32950Y-31300D02*
X32950Y-31850D01*
X32950Y-29550D02*
X32950Y-30050D01*
X32950Y-26200D02*
X32950Y-26450D01*
X32950Y-23900D02*
X32950Y-25100D01*
X32900Y-31300D02*
X32900Y-31850D01*
X32900Y-29550D02*
X32900Y-30100D01*
X32900Y-26200D02*
X32900Y-26450D01*
X32900Y-23900D02*
X32900Y-25100D01*
X32850Y-31350D02*
X32850Y-31850D01*
X32850Y-29550D02*
X32850Y-30150D01*
X32850Y-26200D02*
X32850Y-26450D01*
X32850Y-23900D02*
X32850Y-25100D01*
X32800Y-31350D02*
X32800Y-31850D01*
X32800Y-29550D02*
X32800Y-30150D01*
X32800Y-26200D02*
X32800Y-26450D01*
X32800Y-23900D02*
X32800Y-25100D01*
X32750Y-31350D02*
X32750Y-31850D01*
X32750Y-29550D02*
X32750Y-30150D01*
X32750Y-26200D02*
X32750Y-26450D01*
X32750Y-23900D02*
X32750Y-25100D01*
X32700Y-31350D02*
X32700Y-31850D01*
X32700Y-29550D02*
X32700Y-30150D01*
X32700Y-26200D02*
X32700Y-26450D01*
X32700Y-23900D02*
X32700Y-25100D01*
X32650Y-31350D02*
X32650Y-31850D01*
X32650Y-29550D02*
X32650Y-30150D01*
X32650Y-26200D02*
X32650Y-26450D01*
X32650Y-23900D02*
X32650Y-25100D01*
X32600Y-31350D02*
X32600Y-31850D01*
X32600Y-29550D02*
X32600Y-30150D01*
X32600Y-26200D02*
X32600Y-26450D01*
X32600Y-23900D02*
X32600Y-25100D01*
X32550Y-31350D02*
X32550Y-31850D01*
X32550Y-29550D02*
X32550Y-30150D01*
X32550Y-26200D02*
X32550Y-26450D01*
X32550Y-23900D02*
X32550Y-25100D01*
X32500Y-31350D02*
X32500Y-31850D01*
X32500Y-29550D02*
X32500Y-30150D01*
X32500Y-26200D02*
X32500Y-26450D01*
X32500Y-23900D02*
X32500Y-25100D01*
X32450Y-31350D02*
X32450Y-31850D01*
X32450Y-29550D02*
X32450Y-30150D01*
X32450Y-26200D02*
X32450Y-26450D01*
X32450Y-23900D02*
X32450Y-25100D01*
X32400Y-31350D02*
X32400Y-31850D01*
X32400Y-29550D02*
X32400Y-30150D01*
X32400Y-26200D02*
X32400Y-26350D01*
X32400Y-23900D02*
X32400Y-25100D01*
X32350Y-31350D02*
X32350Y-31850D01*
X32350Y-29550D02*
X32350Y-30150D01*
X32350Y-26200D02*
X32350Y-26250D01*
X32350Y-23900D02*
X32350Y-25100D01*
X32300Y-31350D02*
X32300Y-31850D01*
X32300Y-29550D02*
X32300Y-30150D01*
X32300Y-23950D02*
X32300Y-25100D01*
X32250Y-31350D02*
X32250Y-31850D01*
X32250Y-29550D02*
X32250Y-30150D01*
X32250Y-24000D02*
X32250Y-25100D01*
X32200Y-31350D02*
X32200Y-31850D01*
X32200Y-29400D02*
X32200Y-30150D01*
X32200Y-24000D02*
X32200Y-25050D01*
X32150Y-31350D02*
X32150Y-31850D01*
X32150Y-29400D02*
X32150Y-30150D01*
X32150Y-24050D02*
X32150Y-25050D01*
X32100Y-31350D02*
X32100Y-31850D01*
X32100Y-29400D02*
X32100Y-30150D01*
X32100Y-24050D02*
X32100Y-25000D01*
X32050Y-31350D02*
X32050Y-31850D01*
X32050Y-29400D02*
X32050Y-30150D01*
X32050Y-24050D02*
X32050Y-25000D01*
X32000Y-31350D02*
X32000Y-31850D01*
X32000Y-29400D02*
X32000Y-30150D01*
X32000Y-24050D02*
X32000Y-24950D01*
X31950Y-31350D02*
X31950Y-31850D01*
X31950Y-29400D02*
X31950Y-30150D01*
X31950Y-24050D02*
X31950Y-24950D01*
X31900Y-31350D02*
X31900Y-31850D01*
X31900Y-29400D02*
X31900Y-30150D01*
X31900Y-24050D02*
X31900Y-24950D01*
X31850Y-31350D02*
X31850Y-31850D01*
X31850Y-29400D02*
X31850Y-30150D01*
X31850Y-24050D02*
X31850Y-24950D01*
X31800Y-31350D02*
X31800Y-31850D01*
X31800Y-29400D02*
X31800Y-30150D01*
X31800Y-24100D02*
X31800Y-24950D01*
X31750Y-31350D02*
X31750Y-31850D01*
X31750Y-29400D02*
X31750Y-30150D01*
X31750Y-24150D02*
X31750Y-24950D01*
X31700Y-31350D02*
X31700Y-31850D01*
X31700Y-29400D02*
X31700Y-30150D01*
X31650Y-31350D02*
X31650Y-31850D01*
X31650Y-29400D02*
X31650Y-30150D01*
X31600Y-31350D02*
X31600Y-31850D01*
X31600Y-29400D02*
X31600Y-30150D01*
X31550Y-31350D02*
X31550Y-31850D01*
X31550Y-29400D02*
X31550Y-30150D01*
X31500Y-31350D02*
X31500Y-31850D01*
X31500Y-29400D02*
X31500Y-30150D01*
X31450Y-31350D02*
X31450Y-31850D01*
X31450Y-29350D02*
X31450Y-30150D01*
X31450Y-26000D02*
X31450Y-26100D01*
X31400Y-31350D02*
X31400Y-31850D01*
X31400Y-29350D02*
X31400Y-30150D01*
X31400Y-25950D02*
X31400Y-26150D01*
X31350Y-31350D02*
X31350Y-31850D01*
X31350Y-29300D02*
X31350Y-30150D01*
X31350Y-26850D02*
X31350Y-26900D01*
X31350Y-25850D02*
X31350Y-26250D01*
X31300Y-31350D02*
X31300Y-31850D01*
X31300Y-29250D02*
X31300Y-30150D01*
X31300Y-26750D02*
X31300Y-26850D01*
X31300Y-25750D02*
X31300Y-26350D01*
X31250Y-31350D02*
X31250Y-31850D01*
X31250Y-29200D02*
X31250Y-30150D01*
X31250Y-25450D02*
X31250Y-26800D01*
X31200Y-31350D02*
X31200Y-31850D01*
X31200Y-29150D02*
X31200Y-30100D01*
X31200Y-25500D02*
X31200Y-26750D01*
X31150Y-31350D02*
X31150Y-31850D01*
X31150Y-29100D02*
X31150Y-30050D01*
X31150Y-25500D02*
X31150Y-26750D01*
X31100Y-31350D02*
X31100Y-31850D01*
X31100Y-29050D02*
X31100Y-30000D01*
X31100Y-25550D02*
X31100Y-26700D01*
X31050Y-31350D02*
X31050Y-31850D01*
X31050Y-29000D02*
X31050Y-29950D01*
X31050Y-25550D02*
X31050Y-26700D01*
X31000Y-31450D02*
X31000Y-31850D01*
X31000Y-28950D02*
X31000Y-29900D01*
X31000Y-25550D02*
X31000Y-26700D01*
X30950Y-31450D02*
X30950Y-31850D01*
X30950Y-28900D02*
X30950Y-29850D01*
X30950Y-25550D02*
X30950Y-26700D01*
X30900Y-31450D02*
X30900Y-31850D01*
X30900Y-29650D02*
X30900Y-29800D01*
X30900Y-25550D02*
X30900Y-26700D01*
X30850Y-31450D02*
X30850Y-31850D01*
X30850Y-29650D02*
X30850Y-29750D01*
X30850Y-25550D02*
X30850Y-26700D01*
X30800Y-31450D02*
X30800Y-31850D01*
X30800Y-29650D02*
X30800Y-29700D01*
X30800Y-25550D02*
X30800Y-26700D01*
X30750Y-31450D02*
X30750Y-31850D01*
X30750Y-29650D02*
X30750Y-29700D01*
X30750Y-28700D02*
X30750Y-28750D01*
X30750Y-25550D02*
X30750Y-26700D01*
X30700Y-31450D02*
X30700Y-31850D01*
X30700Y-28700D02*
X30700Y-28750D01*
X30700Y-25550D02*
X30700Y-26700D01*
X30650Y-31450D02*
X30650Y-31850D01*
X30650Y-28700D02*
X30650Y-28750D01*
X30650Y-25550D02*
X30650Y-26700D01*
X30600Y-31450D02*
X30600Y-31850D01*
X30600Y-28700D02*
X30600Y-28750D01*
X30600Y-25550D02*
X30600Y-26700D01*
X30550Y-31450D02*
X30550Y-31850D01*
X30550Y-28700D02*
X30550Y-28750D01*
X30550Y-25550D02*
X30550Y-26700D01*
X30500Y-31450D02*
X30500Y-31850D01*
X30500Y-28700D02*
X30500Y-28750D01*
X30500Y-25550D02*
X30500Y-26700D01*
X30450Y-31450D02*
X30450Y-31850D01*
X30450Y-28700D02*
X30450Y-28750D01*
X30450Y-25550D02*
X30450Y-26700D01*
X30400Y-31450D02*
X30400Y-31850D01*
X30400Y-28700D02*
X30400Y-28750D01*
X30400Y-25550D02*
X30400Y-26700D01*
X30350Y-31450D02*
X30350Y-31850D01*
X30350Y-28700D02*
X30350Y-28750D01*
X30350Y-25550D02*
X30350Y-26700D01*
X30300Y-31450D02*
X30300Y-31850D01*
X30300Y-28700D02*
X30300Y-28750D01*
X30300Y-25550D02*
X30300Y-26700D01*
X30250Y-31450D02*
X30250Y-31850D01*
X30250Y-28700D02*
X30250Y-28750D01*
X30250Y-25550D02*
X30250Y-26700D01*
X30200Y-31450D02*
X30200Y-31850D01*
X30200Y-28700D02*
X30200Y-28750D01*
X30200Y-25550D02*
X30200Y-26700D01*
X30150Y-31100D02*
X30150Y-31850D01*
X30150Y-28700D02*
X30150Y-28750D01*
X30150Y-25500D02*
X30150Y-26700D01*
X30150Y-21800D02*
X30150Y-21850D01*
X30100Y-31100D02*
X30100Y-31850D01*
X30100Y-28700D02*
X30100Y-28750D01*
X30100Y-25500D02*
X30100Y-26700D01*
X30100Y-21800D02*
X30100Y-21900D01*
X30050Y-31100D02*
X30050Y-31850D01*
X30050Y-28700D02*
X30050Y-29200D01*
X30050Y-26150D02*
X30050Y-26700D01*
X30050Y-21800D02*
X30050Y-21950D01*
X30000Y-31100D02*
X30000Y-31850D01*
X30000Y-28700D02*
X30000Y-29250D01*
X30000Y-26250D02*
X30000Y-26700D01*
X30000Y-21800D02*
X30000Y-22000D01*
X29950Y-31100D02*
X29950Y-31850D01*
X29950Y-28700D02*
X29950Y-29250D01*
X29950Y-26300D02*
X29950Y-26700D01*
X29950Y-21800D02*
X29950Y-22050D01*
X29900Y-31100D02*
X29900Y-31850D01*
X29900Y-28700D02*
X29900Y-29250D01*
X29900Y-26350D02*
X29900Y-26700D01*
X29900Y-21800D02*
X29900Y-22100D01*
X29850Y-31100D02*
X29850Y-31850D01*
X29850Y-28700D02*
X29850Y-29250D01*
X29850Y-26400D02*
X29850Y-26700D01*
X29850Y-21800D02*
X29850Y-22150D01*
X29800Y-31100D02*
X29800Y-31850D01*
X29800Y-28700D02*
X29800Y-29250D01*
X29800Y-26450D02*
X29800Y-26700D01*
X29800Y-21800D02*
X29800Y-22200D01*
X29750Y-31100D02*
X29750Y-31850D01*
X29750Y-28700D02*
X29750Y-29300D01*
X29750Y-26500D02*
X29750Y-26700D01*
X29750Y-21800D02*
X29750Y-22250D01*
X29700Y-31100D02*
X29700Y-31850D01*
X29700Y-28700D02*
X29700Y-29300D01*
X29700Y-26550D02*
X29700Y-26700D01*
X29700Y-21800D02*
X29700Y-22300D01*
X29650Y-31100D02*
X29650Y-31850D01*
X29650Y-28700D02*
X29650Y-29350D01*
X29650Y-26600D02*
X29650Y-26700D01*
X29650Y-21800D02*
X29650Y-22350D01*
X29600Y-31100D02*
X29600Y-31850D01*
X29600Y-28950D02*
X29600Y-29400D01*
X29600Y-26650D02*
X29600Y-26700D01*
X29600Y-21800D02*
X29600Y-22400D01*
X29550Y-31100D02*
X29550Y-31800D01*
X29550Y-28950D02*
X29550Y-29450D01*
X29550Y-21800D02*
X29550Y-22450D01*
X29500Y-31100D02*
X29500Y-31750D01*
X29500Y-28950D02*
X29500Y-29500D01*
X29500Y-21800D02*
X29500Y-22500D01*
X29450Y-31100D02*
X29450Y-31700D01*
X29450Y-28950D02*
X29450Y-29500D01*
X29450Y-21800D02*
X29450Y-22600D01*
X29400Y-31100D02*
X29400Y-31650D01*
X29400Y-28950D02*
X29400Y-29500D01*
X29400Y-24900D02*
X29400Y-25100D01*
X29400Y-21800D02*
X29400Y-22800D01*
X29350Y-30950D02*
X29350Y-31600D01*
X29350Y-28950D02*
X29350Y-29500D01*
X29350Y-24900D02*
X29350Y-25100D01*
X29350Y-21800D02*
X29350Y-22800D01*
X29300Y-30950D02*
X29300Y-31250D01*
X29300Y-28950D02*
X29300Y-29500D01*
X29300Y-24900D02*
X29300Y-25100D01*
X29300Y-21800D02*
X29300Y-22800D01*
X29250Y-30950D02*
X29250Y-31150D01*
X29250Y-28950D02*
X29250Y-29500D01*
X29250Y-24900D02*
X29250Y-25100D01*
X29250Y-21800D02*
X29250Y-22800D01*
X29200Y-28950D02*
X29200Y-29500D01*
X29200Y-24900D02*
X29200Y-25100D01*
X29200Y-21800D02*
X29200Y-22800D01*
X29150Y-28950D02*
X29150Y-29500D01*
X29150Y-24900D02*
X29150Y-25100D01*
X29150Y-21800D02*
X29150Y-22800D01*
X29100Y-28950D02*
X29100Y-29500D01*
X29100Y-24900D02*
X29100Y-25100D01*
X29100Y-21800D02*
X29100Y-22800D01*
X29050Y-24900D02*
X29050Y-25100D01*
X29050Y-21800D02*
X29050Y-22800D01*
X29000Y-24900D02*
X29000Y-25100D01*
X29000Y-21800D02*
X29000Y-22800D01*
X28950Y-24900D02*
X28950Y-25100D01*
X28950Y-21800D02*
X28950Y-22800D01*
X28900Y-24900D02*
X28900Y-25100D01*
X28900Y-21800D02*
X28900Y-22800D01*
X28850Y-24900D02*
X28850Y-25100D01*
X28850Y-21800D02*
X28850Y-22800D01*
X28800Y-24900D02*
X28800Y-25100D01*
X28800Y-21800D02*
X28800Y-22800D01*
X28750Y-24900D02*
X28750Y-25100D01*
X28750Y-21800D02*
X28750Y-22800D01*
X28700Y-24900D02*
X28700Y-25100D01*
X28700Y-21800D02*
X28700Y-23000D01*
X28650Y-24900D02*
X28650Y-25100D01*
X28650Y-21800D02*
X28650Y-23000D01*
X28600Y-24900D02*
X28600Y-25100D01*
X28600Y-21800D02*
X28600Y-23000D01*
X28550Y-24900D02*
X28550Y-25100D01*
X28550Y-21800D02*
X28550Y-23000D01*
X28500Y-24900D02*
X28500Y-25100D01*
X28500Y-21800D02*
X28500Y-23000D01*
X28450Y-24900D02*
X28450Y-25100D01*
X28450Y-21800D02*
X28450Y-23000D01*
X28400Y-24900D02*
X28400Y-25100D01*
X28400Y-21800D02*
X28400Y-23000D01*
X28350Y-24900D02*
X28350Y-25100D01*
X28350Y-21800D02*
X28350Y-23000D01*
X28300Y-24900D02*
X28300Y-25100D01*
X28300Y-21800D02*
X28300Y-21850D01*
X28250Y-24900D02*
X28250Y-25100D01*
X28250Y-21800D02*
X28250Y-21850D01*
X28200Y-24900D02*
X28200Y-25100D01*
X28200Y-21800D02*
X28200Y-21850D01*
X28150Y-24900D02*
X28150Y-25100D01*
X28150Y-21800D02*
X28150Y-21850D01*
X28100Y-24900D02*
X28100Y-25100D01*
X28100Y-21800D02*
X28100Y-21850D01*
X28050Y-24900D02*
X28050Y-25100D01*
X28050Y-21800D02*
X28050Y-21850D01*
X28000Y-24900D02*
X28000Y-25100D01*
X28000Y-21800D02*
X28000Y-21850D01*
X27950Y-24900D02*
X27950Y-25100D01*
X27950Y-21800D02*
X27950Y-21850D01*
X27900Y-24900D02*
X27900Y-25100D01*
X27900Y-21800D02*
X27900Y-21850D01*
X27850Y-24900D02*
X27850Y-25100D01*
X27850Y-21800D02*
X27850Y-21850D01*
X27800Y-24900D02*
X27800Y-25100D01*
X27800Y-21800D02*
X27800Y-21850D01*
X27750Y-24900D02*
X27750Y-25100D01*
X27750Y-21800D02*
X27750Y-21850D01*
X27700Y-24900D02*
X27700Y-25100D01*
X27700Y-21800D02*
X27700Y-21850D01*
X27650Y-24900D02*
X27650Y-25100D01*
X27650Y-21800D02*
X27650Y-21850D01*
X27600Y-24900D02*
X27600Y-25100D01*
X27600Y-21800D02*
X27600Y-21850D01*
X27550Y-24900D02*
X27550Y-25100D01*
X27550Y-21800D02*
X27550Y-21850D01*
X27500Y-24900D02*
X27500Y-25100D01*
X27500Y-21800D02*
X27500Y-21850D01*
X27450Y-24900D02*
X27450Y-25100D01*
X27450Y-21800D02*
X27450Y-21850D01*
X27400Y-24900D02*
X27400Y-25100D01*
X27400Y-21800D02*
X27400Y-21850D01*
X27350Y-24900D02*
X27350Y-25100D01*
X27350Y-21800D02*
X27350Y-21850D01*
X27300Y-24900D02*
X27300Y-25100D01*
X27300Y-21800D02*
X27300Y-21850D01*
X27250Y-24900D02*
X27250Y-25100D01*
X27250Y-21800D02*
X27250Y-23000D01*
X27200Y-24900D02*
X27200Y-25100D01*
X27200Y-21800D02*
X27200Y-23000D01*
X27150Y-24900D02*
X27150Y-25100D01*
X27150Y-21800D02*
X27150Y-23000D01*
X27100Y-24900D02*
X27100Y-25100D01*
X27100Y-21800D02*
X27100Y-23000D01*
X27050Y-24900D02*
X27050Y-25100D01*
X27050Y-21800D02*
X27050Y-23000D01*
X27000Y-24300D02*
X27000Y-25500D01*
X27000Y-21800D02*
X27000Y-21850D01*
X26950Y-24300D02*
X26950Y-25550D01*
X26950Y-21800D02*
X26950Y-21850D01*
X26900Y-24300D02*
X26900Y-25600D01*
X26900Y-21800D02*
X26900Y-21850D01*
X26850Y-24300D02*
X26850Y-25650D01*
X26850Y-21800D02*
X26850Y-21850D01*
X26800Y-24300D02*
X26800Y-25700D01*
X26800Y-21800D02*
X26800Y-21850D01*
X26750Y-24300D02*
X26750Y-25750D01*
X26750Y-21800D02*
X26750Y-21850D01*
X26700Y-24050D02*
X26700Y-25800D01*
X26700Y-21800D02*
X26700Y-21850D01*
X26650Y-24050D02*
X26650Y-25850D01*
X26650Y-21800D02*
X26650Y-21850D01*
X26600Y-24050D02*
X26600Y-25900D01*
X26600Y-21800D02*
X26600Y-21850D01*
X26550Y-25700D02*
X26550Y-25950D01*
X26550Y-24050D02*
X26550Y-25300D01*
X26550Y-21800D02*
X26550Y-21850D01*
X26500Y-25800D02*
X26500Y-26000D01*
X26500Y-24050D02*
X26500Y-25200D01*
X26500Y-21800D02*
X26500Y-21850D01*
X26450Y-25900D02*
X26450Y-26100D01*
X26450Y-24050D02*
X26450Y-25100D01*
X26450Y-21800D02*
X26450Y-21850D01*
X26400Y-25950D02*
X26400Y-26200D01*
X26400Y-24050D02*
X26400Y-25050D01*
X26400Y-21800D02*
X26400Y-21850D01*
X26350Y-26000D02*
X26350Y-26200D01*
X26350Y-24050D02*
X26350Y-25000D01*
X26350Y-21800D02*
X26350Y-21850D01*
X26300Y-26000D02*
X26300Y-26200D01*
X26300Y-24050D02*
X26300Y-25000D01*
X26300Y-21800D02*
X26300Y-21850D01*
X26250Y-26050D02*
X26250Y-26200D01*
X26250Y-24050D02*
X26250Y-24950D01*
X26250Y-21800D02*
X26250Y-21850D01*
X26200Y-26050D02*
X26200Y-26200D01*
X26200Y-24050D02*
X26200Y-24950D01*
X26200Y-21800D02*
X26200Y-21850D01*
X26150Y-26100D02*
X26150Y-26200D01*
X26150Y-24050D02*
X26150Y-24900D01*
X26150Y-21800D02*
X26150Y-21850D01*
X26100Y-26100D02*
X26100Y-26200D01*
X26100Y-24050D02*
X26100Y-24900D01*
X26100Y-21800D02*
X26100Y-21850D01*
X26050Y-26100D02*
X26050Y-26200D01*
X26050Y-24050D02*
X26050Y-24900D01*
X26050Y-21800D02*
X26050Y-21850D01*
X26000Y-26100D02*
X26000Y-26200D01*
X26000Y-24050D02*
X26000Y-24900D01*
X26000Y-21800D02*
X26000Y-21850D01*
X25950Y-26100D02*
X25950Y-26200D01*
X25950Y-24050D02*
X25950Y-24900D01*
X25950Y-21800D02*
X25950Y-22950D01*
X25900Y-26100D02*
X25900Y-26200D01*
X25900Y-24100D02*
X25900Y-24900D01*
X25900Y-21800D02*
X25900Y-22750D01*
X25850Y-26100D02*
X25850Y-26200D01*
X25850Y-24100D02*
X25850Y-24900D01*
X25850Y-21800D02*
X25850Y-22750D01*
X25800Y-26050D02*
X25800Y-26200D01*
X25800Y-24100D02*
X25800Y-24250D01*
X25800Y-21800D02*
X25800Y-22750D01*
X25750Y-26050D02*
X25750Y-26200D01*
X25750Y-24100D02*
X25750Y-24250D01*
X25750Y-21800D02*
X25750Y-22750D01*
X25700Y-26000D02*
X25700Y-26200D01*
X25700Y-24100D02*
X25700Y-24250D01*
X25700Y-21800D02*
X25700Y-22750D01*
X25650Y-26000D02*
X25650Y-26200D01*
X25650Y-24100D02*
X25650Y-24250D01*
X25650Y-21800D02*
X25650Y-22750D01*
X25600Y-25950D02*
X25600Y-26200D01*
X25600Y-24100D02*
X25600Y-24250D01*
X25600Y-21800D02*
X25600Y-22750D01*
X25550Y-27200D02*
X25550Y-27250D01*
X25550Y-25900D02*
X25550Y-26200D01*
X25550Y-24100D02*
X25550Y-24250D01*
X25550Y-21800D02*
X25550Y-22750D01*
X25500Y-27200D02*
X25500Y-27300D01*
X25500Y-25850D02*
X25500Y-26200D01*
X25500Y-24100D02*
X25500Y-24250D01*
X25500Y-21800D02*
X25500Y-22750D01*
X25450Y-27200D02*
X25450Y-27350D01*
X25450Y-25850D02*
X25450Y-26200D01*
X25450Y-21800D02*
X25450Y-22750D01*
X25400Y-27200D02*
X25400Y-27400D01*
X25400Y-25850D02*
X25400Y-26200D01*
X25400Y-21800D02*
X25400Y-22750D01*
X25350Y-27200D02*
X25350Y-27450D01*
X25350Y-25850D02*
X25350Y-26200D01*
X25350Y-21800D02*
X25350Y-22750D01*
X25300Y-27200D02*
X25300Y-27500D01*
X25300Y-25850D02*
X25300Y-26200D01*
X25300Y-21800D02*
X25300Y-22750D01*
X25250Y-27200D02*
X25250Y-27550D01*
X25250Y-25850D02*
X25250Y-26200D01*
X25250Y-21800D02*
X25250Y-22750D01*
X25200Y-27200D02*
X25200Y-27600D01*
X25200Y-25850D02*
X25200Y-26200D01*
X25200Y-21800D02*
X25200Y-22750D01*
X25150Y-27200D02*
X25150Y-27650D01*
X25150Y-25850D02*
X25150Y-26200D01*
X25150Y-21800D02*
X25150Y-22750D01*
X25100Y-27200D02*
X25100Y-27700D01*
X25100Y-25850D02*
X25100Y-26200D01*
X25100Y-21800D02*
X25100Y-22750D01*
X25050Y-27200D02*
X25050Y-27750D01*
X25050Y-25850D02*
X25050Y-26200D01*
X25050Y-21800D02*
X25050Y-22750D01*
X25000Y-27200D02*
X25000Y-27800D01*
X25000Y-25850D02*
X25000Y-26200D01*
X25000Y-21800D02*
X25000Y-22750D01*
X24950Y-27200D02*
X24950Y-27850D01*
X24950Y-25850D02*
X24950Y-26200D01*
X24950Y-21800D02*
X24950Y-22750D01*
X24900Y-31150D02*
X24900Y-31700D01*
X24900Y-27200D02*
X24900Y-27900D01*
X24900Y-25850D02*
X24900Y-26200D01*
X24900Y-21800D02*
X24900Y-22750D01*
X24850Y-31150D02*
X24850Y-31700D01*
X24850Y-27200D02*
X24850Y-27950D01*
X24850Y-25850D02*
X24850Y-26200D01*
X24850Y-21800D02*
X24850Y-22750D01*
X24800Y-31150D02*
X24800Y-31700D01*
X24800Y-27200D02*
X24800Y-28000D01*
X24800Y-25900D02*
X24800Y-26200D01*
X24800Y-21800D02*
X24800Y-22750D01*
X24750Y-31150D02*
X24750Y-31700D01*
X24750Y-27200D02*
X24750Y-28050D01*
X24750Y-25950D02*
X24750Y-26200D01*
X24750Y-21800D02*
X24750Y-22750D01*
X24700Y-31150D02*
X24700Y-31700D01*
X24700Y-27200D02*
X24700Y-28100D01*
X24700Y-26000D02*
X24700Y-26200D01*
X24700Y-21800D02*
X24700Y-22750D01*
X24650Y-31150D02*
X24650Y-31700D01*
X24650Y-27200D02*
X24650Y-28150D01*
X24650Y-26050D02*
X24650Y-26200D01*
X24650Y-21800D02*
X24650Y-22750D01*
X24600Y-31150D02*
X24600Y-31700D01*
X24600Y-27200D02*
X24600Y-28200D01*
X24600Y-26100D02*
X24600Y-26200D01*
X24600Y-21800D02*
X24600Y-22750D01*
X24550Y-31150D02*
X24550Y-31700D01*
X24550Y-27200D02*
X24550Y-28250D01*
X24550Y-26150D02*
X24550Y-26200D01*
X24550Y-21800D02*
X24550Y-22900D01*
X24500Y-31150D02*
X24500Y-31700D01*
X24500Y-27200D02*
X24500Y-28300D01*
X24500Y-21800D02*
X24500Y-22900D01*
X24450Y-31150D02*
X24450Y-31700D01*
X24450Y-27200D02*
X24450Y-28350D01*
X24450Y-21800D02*
X24450Y-22900D01*
X24400Y-31150D02*
X24400Y-31700D01*
X24400Y-26300D02*
X24400Y-28400D01*
X24400Y-21800D02*
X24400Y-22900D01*
X24350Y-31150D02*
X24350Y-31700D01*
X24350Y-26350D02*
X24350Y-28450D01*
X24350Y-21800D02*
X24350Y-22900D01*
X24300Y-31200D02*
X24300Y-31700D01*
X24300Y-26400D02*
X24300Y-28500D01*
X24300Y-21800D02*
X24300Y-22900D01*
X24250Y-31250D02*
X24250Y-31700D01*
X24250Y-26450D02*
X24250Y-28550D01*
X24250Y-21800D02*
X24250Y-22900D01*
X24200Y-31300D02*
X24200Y-31700D01*
X24200Y-26500D02*
X24200Y-28600D01*
X24200Y-21800D02*
X24200Y-22900D01*
X24150Y-31500D02*
X24150Y-31700D01*
X24150Y-26550D02*
X24150Y-28650D01*
X24150Y-21800D02*
X24150Y-22900D01*
X24100Y-31500D02*
X24100Y-31700D01*
X24100Y-26600D02*
X24100Y-28700D01*
X24100Y-21800D02*
X24100Y-22900D01*
X24050Y-31500D02*
X24050Y-31700D01*
X24050Y-27200D02*
X24050Y-28750D01*
X24050Y-21800D02*
X24050Y-22900D01*
X24000Y-31500D02*
X24000Y-31700D01*
X24000Y-27200D02*
X24000Y-28800D01*
X24000Y-21800D02*
X24000Y-22900D01*
X23950Y-31500D02*
X23950Y-31700D01*
X23950Y-27200D02*
X23950Y-28900D01*
X23950Y-21800D02*
X23950Y-22900D01*
X23900Y-31500D02*
X23900Y-31700D01*
X23900Y-27200D02*
X23900Y-29800D01*
X23900Y-21800D02*
X23900Y-22900D01*
X23850Y-31500D02*
X23850Y-31700D01*
X23850Y-27200D02*
X23850Y-29800D01*
X23850Y-21800D02*
X23850Y-22900D01*
X23800Y-31500D02*
X23800Y-31700D01*
X23800Y-27200D02*
X23800Y-29800D01*
X23800Y-21800D02*
X23800Y-22900D01*
X23750Y-31500D02*
X23750Y-31700D01*
X23750Y-27200D02*
X23750Y-29800D01*
X23750Y-21800D02*
X23750Y-22900D01*
X23700Y-31500D02*
X23700Y-31700D01*
X23700Y-27200D02*
X23700Y-29800D01*
X23700Y-21800D02*
X23700Y-22900D01*
X23650Y-31500D02*
X23650Y-31700D01*
X23650Y-27200D02*
X23650Y-29800D01*
X23650Y-21800D02*
X23650Y-22900D01*
X23600Y-31500D02*
X23600Y-31700D01*
X23600Y-27200D02*
X23600Y-29800D01*
X23600Y-21800D02*
X23600Y-22900D01*
X23550Y-31500D02*
X23550Y-31700D01*
X23550Y-27200D02*
X23550Y-29800D01*
X23550Y-21800D02*
X23550Y-22900D01*
X23500Y-31500D02*
X23500Y-31700D01*
X23500Y-27200D02*
X23500Y-29800D01*
X23500Y-21800D02*
X23500Y-22900D01*
X23450Y-31500D02*
X23450Y-31700D01*
X23450Y-27200D02*
X23450Y-29800D01*
X23450Y-21800D02*
X23450Y-22900D01*
X23400Y-27200D02*
X23400Y-31700D01*
X23400Y-21800D02*
X23400Y-22900D01*
X23350Y-27200D02*
X23350Y-31700D01*
X23350Y-21800D02*
X23350Y-22900D01*
X23300Y-27200D02*
X23300Y-31700D01*
X23300Y-21800D02*
X23300Y-22900D01*
X23250Y-27200D02*
X23250Y-31700D01*
X23250Y-21800D02*
X23250Y-22900D01*
X23200Y-29200D02*
X23200Y-31700D01*
X23200Y-27200D02*
X23200Y-28700D01*
X23200Y-21800D02*
X23200Y-22900D01*
X23150Y-29250D02*
X23150Y-31700D01*
X23150Y-27200D02*
X23150Y-28650D01*
X23150Y-21800D02*
X23150Y-22900D01*
X23100Y-29300D02*
X23100Y-31700D01*
X23100Y-27200D02*
X23100Y-28600D01*
X23100Y-21800D02*
X23100Y-22900D01*
X23050Y-30800D02*
X23050Y-31700D01*
X23050Y-29350D02*
X23050Y-29800D01*
X23050Y-27200D02*
X23050Y-28550D01*
X23050Y-21800D02*
X23050Y-22900D01*
X23000Y-30800D02*
X23000Y-31700D01*
X23000Y-29400D02*
X23000Y-29800D01*
X23000Y-27200D02*
X23000Y-28500D01*
X23000Y-21800D02*
X23000Y-22900D01*
X22950Y-30800D02*
X22950Y-31700D01*
X22950Y-29400D02*
X22950Y-29800D01*
X22950Y-27200D02*
X22950Y-28500D01*
X22950Y-21800D02*
X22950Y-22900D01*
X22900Y-30800D02*
X22900Y-31700D01*
X22900Y-29400D02*
X22900Y-29800D01*
X22900Y-27200D02*
X22900Y-28500D01*
X22900Y-21800D02*
X22900Y-22900D01*
X22850Y-30800D02*
X22850Y-31700D01*
X22850Y-29400D02*
X22850Y-29800D01*
X22850Y-27200D02*
X22850Y-28450D01*
X22850Y-21800D02*
X22850Y-22900D01*
X22800Y-30800D02*
X22800Y-31700D01*
X22800Y-29400D02*
X22800Y-29800D01*
X22800Y-27200D02*
X22800Y-28400D01*
X22800Y-21800D02*
X22800Y-22900D01*
X22750Y-30800D02*
X22750Y-31700D01*
X22750Y-29400D02*
X22750Y-29800D01*
X22750Y-27200D02*
X22750Y-28350D01*
X22750Y-21800D02*
X22750Y-22900D01*
X22700Y-30800D02*
X22700Y-31700D01*
X22700Y-29400D02*
X22700Y-29800D01*
X22700Y-27200D02*
X22700Y-28300D01*
X22700Y-21800D02*
X22700Y-22900D01*
X22650Y-30800D02*
X22650Y-31700D01*
X22650Y-29400D02*
X22650Y-29800D01*
X22650Y-27200D02*
X22650Y-28250D01*
X22650Y-21800D02*
X22650Y-22900D01*
X22600Y-30800D02*
X22600Y-31700D01*
X22600Y-29400D02*
X22600Y-29800D01*
X22600Y-27200D02*
X22600Y-28200D01*
X22600Y-21800D02*
X22600Y-22900D01*
X22550Y-30800D02*
X22550Y-31700D01*
X22550Y-29350D02*
X22550Y-29800D01*
X22550Y-27200D02*
X22550Y-28150D01*
X22550Y-21800D02*
X22550Y-22850D01*
X22500Y-30800D02*
X22500Y-31700D01*
X22500Y-29300D02*
X22500Y-29800D01*
X22500Y-27200D02*
X22500Y-28100D01*
X22500Y-21800D02*
X22500Y-22800D01*
X22450Y-30800D02*
X22450Y-31700D01*
X22450Y-29250D02*
X22450Y-29800D01*
X22450Y-27200D02*
X22450Y-28050D01*
X22450Y-21800D02*
X22450Y-22750D01*
X22400Y-30800D02*
X22400Y-31700D01*
X22400Y-29200D02*
X22400Y-29800D01*
X22400Y-27200D02*
X22400Y-28000D01*
X22400Y-21800D02*
X22400Y-22700D01*
X22350Y-30800D02*
X22350Y-31700D01*
X22350Y-29050D02*
X22350Y-29800D01*
X22350Y-27200D02*
X22350Y-27950D01*
X22350Y-21800D02*
X22350Y-22700D01*
X22300Y-30800D02*
X22300Y-31700D01*
X22300Y-29000D02*
X22300Y-29800D01*
X22300Y-27200D02*
X22300Y-27900D01*
X22300Y-21800D02*
X22300Y-22650D01*
X22250Y-30800D02*
X22250Y-31700D01*
X22250Y-28950D02*
X22250Y-29800D01*
X22250Y-27200D02*
X22250Y-27850D01*
X22250Y-21800D02*
X22250Y-22650D01*
X22200Y-30800D02*
X22200Y-31700D01*
X22200Y-28900D02*
X22200Y-29800D01*
X22200Y-27200D02*
X22200Y-27800D01*
X22200Y-21800D02*
X22200Y-22650D01*
X22150Y-30800D02*
X22150Y-31700D01*
X22150Y-28850D02*
X22150Y-29800D01*
X22150Y-27200D02*
X22150Y-27750D01*
X22150Y-21800D02*
X22150Y-22650D01*
X22100Y-30800D02*
X22100Y-31700D01*
X22100Y-28800D02*
X22100Y-29800D01*
X22100Y-27200D02*
X22100Y-27700D01*
X22100Y-21800D02*
X22100Y-22650D01*
X22050Y-30800D02*
X22050Y-31700D01*
X22050Y-28750D02*
X22050Y-29800D01*
X22050Y-27200D02*
X22050Y-27650D01*
X22050Y-21800D02*
X22050Y-22650D01*
X22000Y-30900D02*
X22000Y-31700D01*
X22000Y-28700D02*
X22000Y-29800D01*
X22000Y-27200D02*
X22000Y-27600D01*
X22000Y-21800D02*
X22000Y-22650D01*
X21950Y-30950D02*
X21950Y-31700D01*
X21950Y-28650D02*
X21950Y-29800D01*
X21950Y-27200D02*
X21950Y-27600D01*
X21950Y-21800D02*
X21950Y-22650D01*
X21900Y-31000D02*
X21900Y-31700D01*
X21900Y-28600D02*
X21900Y-29800D01*
X21900Y-27200D02*
X21900Y-27550D01*
X21900Y-21800D02*
X21900Y-22650D01*
X21850Y-31050D02*
X21850Y-31700D01*
X21850Y-28550D02*
X21850Y-29800D01*
X21850Y-27200D02*
X21850Y-27550D01*
X21850Y-21800D02*
X21850Y-22650D01*
X21800Y-31100D02*
X21800Y-31700D01*
X21800Y-28500D02*
X21800Y-29800D01*
X21800Y-27200D02*
X21800Y-27550D01*
X21800Y-21800D02*
X21800Y-22650D01*
X21750Y-31100D02*
X21750Y-31650D01*
X21750Y-28450D02*
X21750Y-29800D01*
X21750Y-27200D02*
X21750Y-27550D01*
X21750Y-21800D02*
X21750Y-22650D01*
X21700Y-31150D02*
X21700Y-31600D01*
X21700Y-28400D02*
X21700Y-29800D01*
X21700Y-27200D02*
X21700Y-27550D01*
X21700Y-21800D02*
X21700Y-22650D01*
X21650Y-31150D02*
X21650Y-31550D01*
X21650Y-28350D02*
X21650Y-29800D01*
X21650Y-27200D02*
X21650Y-27550D01*
X21650Y-21800D02*
X21650Y-22650D01*
X21600Y-31150D02*
X21600Y-31500D01*
X21600Y-28350D02*
X21600Y-29800D01*
X21600Y-27200D02*
X21600Y-27550D01*
X21600Y-21800D02*
X21600Y-22650D01*
X21550Y-31150D02*
X21550Y-31450D01*
X21550Y-28350D02*
X21550Y-28900D01*
X21550Y-27200D02*
X21550Y-27550D01*
X21550Y-21800D02*
X21550Y-22650D01*
X21500Y-31150D02*
X21500Y-31400D01*
X21500Y-28350D02*
X21500Y-28800D01*
X21500Y-27200D02*
X21500Y-27550D01*
X21500Y-21800D02*
X21500Y-22650D01*
X21450Y-31150D02*
X21450Y-31350D01*
X21450Y-28350D02*
X21450Y-28750D01*
X21450Y-27200D02*
X21450Y-27550D01*
X21450Y-21800D02*
X21450Y-22650D01*
X21400Y-31150D02*
X21400Y-31300D01*
X21400Y-28350D02*
X21400Y-28700D01*
X21400Y-27200D02*
X21400Y-27550D01*
X21400Y-21800D02*
X21400Y-22650D01*
X21350Y-31150D02*
X21350Y-31250D01*
X21350Y-28350D02*
X21350Y-28650D01*
X21350Y-27200D02*
X21350Y-27550D01*
X21350Y-21800D02*
X21350Y-22650D01*
X21300Y-31150D02*
X21300Y-31200D01*
X21300Y-28350D02*
X21300Y-28600D01*
X21300Y-27200D02*
X21300Y-27550D01*
X21300Y-21800D02*
X21300Y-22650D01*
X21250Y-28350D02*
X21250Y-28550D01*
X21250Y-27200D02*
X21250Y-27550D01*
X21250Y-21800D02*
X21250Y-22650D01*
X21200Y-28350D02*
X21200Y-28500D01*
X21200Y-27200D02*
X21200Y-27550D01*
X21200Y-21800D02*
X21200Y-22650D01*
X21150Y-28350D02*
X21150Y-28450D01*
X21150Y-27200D02*
X21150Y-27550D01*
X21150Y-25100D02*
X21150Y-25500D01*
X21150Y-21800D02*
X21150Y-22650D01*
X21100Y-28350D02*
X21100Y-28400D01*
X21100Y-27200D02*
X21100Y-27550D01*
X21100Y-25100D02*
X21100Y-25500D01*
X21100Y-21800D02*
X21100Y-22650D01*
X21050Y-27200D02*
X21050Y-27550D01*
X21050Y-25100D02*
X21050Y-25500D01*
X21050Y-21800D02*
X21050Y-22650D01*
X21000Y-27200D02*
X21000Y-27550D01*
X21000Y-25100D02*
X21000Y-25500D01*
X21000Y-21800D02*
X21000Y-22650D01*
X20950Y-27200D02*
X20950Y-27550D01*
X20950Y-25100D02*
X20950Y-25500D01*
X20950Y-21800D02*
X20950Y-22650D01*
X20900Y-26500D02*
X20900Y-27550D01*
X20900Y-25100D02*
X20900Y-25500D01*
X20900Y-21800D02*
X20900Y-22650D01*
X20850Y-26500D02*
X20850Y-27550D01*
X20850Y-25100D02*
X20850Y-25500D01*
X20850Y-21800D02*
X20850Y-22650D01*
X20800Y-26500D02*
X20800Y-27500D01*
X20800Y-25100D02*
X20800Y-25500D01*
X20800Y-21800D02*
X20800Y-22650D01*
X20750Y-24550D02*
X20750Y-27450D01*
X20750Y-21800D02*
X20750Y-22650D01*
X20700Y-24550D02*
X20700Y-27400D01*
X20700Y-21800D02*
X20700Y-22650D01*
X20650Y-24600D02*
X20650Y-27350D01*
X20650Y-21800D02*
X20650Y-22650D01*
X20600Y-24600D02*
X20600Y-27300D01*
X20600Y-21800D02*
X20600Y-22650D01*
X20550Y-31550D02*
X20550Y-31600D01*
X20550Y-24600D02*
X20550Y-27250D01*
X20550Y-21800D02*
X20550Y-22650D01*
X20500Y-31500D02*
X20500Y-31600D01*
X20500Y-24600D02*
X20500Y-27200D01*
X20500Y-21800D02*
X20500Y-22650D01*
X20450Y-31450D02*
X20450Y-31600D01*
X20450Y-24600D02*
X20450Y-27150D01*
X20450Y-21800D02*
X20450Y-22650D01*
X20400Y-31400D02*
X20400Y-31600D01*
X20400Y-24600D02*
X20400Y-27100D01*
X20400Y-21800D02*
X20400Y-22650D01*
X20350Y-31350D02*
X20350Y-31600D01*
X20350Y-25750D02*
X20350Y-27050D01*
X20350Y-21800D02*
X20350Y-22650D01*
X20300Y-31300D02*
X20300Y-31600D01*
X20300Y-25850D02*
X20300Y-27000D01*
X20300Y-21800D02*
X20300Y-22650D01*
X20250Y-31250D02*
X20250Y-31600D01*
X20250Y-25900D02*
X20250Y-26950D01*
X20250Y-21800D02*
X20250Y-22650D01*
X20200Y-31200D02*
X20200Y-31600D01*
X20200Y-25950D02*
X20200Y-26900D01*
X20200Y-21800D02*
X20200Y-22650D01*
X20150Y-31150D02*
X20150Y-31600D01*
X20150Y-26000D02*
X20150Y-26900D01*
X20150Y-21800D02*
X20150Y-22650D01*
X20100Y-31100D02*
X20100Y-31600D01*
X20100Y-21800D02*
X20100Y-22650D01*
X20050Y-31050D02*
X20050Y-31600D01*
X20050Y-21800D02*
X20050Y-22650D01*
X20000Y-31000D02*
X20000Y-31600D01*
X20000Y-21800D02*
X20000Y-22650D01*
X19950Y-30950D02*
X19950Y-31600D01*
X19950Y-21800D02*
X19950Y-22650D01*
X19900Y-30900D02*
X19900Y-31600D01*
X19900Y-21800D02*
X19900Y-22650D01*
X19850Y-30850D02*
X19850Y-31600D01*
X19850Y-21800D02*
X19850Y-22650D01*
X19800Y-30800D02*
X19800Y-31600D01*
X19800Y-21800D02*
X19800Y-22650D01*
X19750Y-30750D02*
X19750Y-31600D01*
X19750Y-21800D02*
X19750Y-22650D01*
X19700Y-30700D02*
X19700Y-31600D01*
X19700Y-21800D02*
X19700Y-22700D01*
X19650Y-30650D02*
X19650Y-31600D01*
X19650Y-21800D02*
X19650Y-22700D01*
X19600Y-30600D02*
X19600Y-31600D01*
X19600Y-24350D02*
X19600Y-25450D01*
X19600Y-21800D02*
X19600Y-22750D01*
X19550Y-30550D02*
X19550Y-31600D01*
X19550Y-24350D02*
X19550Y-25500D01*
X19550Y-21800D02*
X19550Y-22800D01*
X19500Y-30500D02*
X19500Y-31600D01*
X19500Y-24350D02*
X19500Y-25550D01*
X19500Y-21800D02*
X19500Y-22850D01*
X19450Y-30450D02*
X19450Y-31600D01*
X19450Y-24350D02*
X19450Y-25600D01*
X19450Y-21800D02*
X19450Y-22900D01*
X19400Y-30400D02*
X19400Y-31600D01*
X19400Y-24350D02*
X19400Y-25700D01*
X19400Y-21800D02*
X19400Y-22950D01*
X19350Y-30350D02*
X19350Y-31600D01*
X19350Y-24350D02*
X19350Y-25900D01*
X19350Y-21800D02*
X19350Y-23000D01*
X19300Y-30300D02*
X19300Y-31600D01*
X19300Y-26900D02*
X19300Y-26950D01*
X19300Y-24350D02*
X19300Y-25900D01*
X19300Y-21800D02*
X19300Y-23000D01*
X19250Y-30250D02*
X19250Y-31600D01*
X19250Y-26900D02*
X19250Y-27100D01*
X19250Y-24350D02*
X19250Y-25900D01*
X19250Y-21800D02*
X19250Y-23000D01*
X19200Y-30200D02*
X19200Y-31600D01*
X19200Y-24350D02*
X19200Y-27400D01*
X19200Y-21800D02*
X19200Y-23000D01*
X19150Y-30150D02*
X19150Y-31600D01*
X19150Y-24350D02*
X19150Y-27400D01*
X19150Y-21800D02*
X19150Y-23000D01*
X19100Y-30100D02*
X19100Y-31600D01*
X19100Y-24350D02*
X19100Y-27400D01*
X19100Y-21800D02*
X19100Y-23000D01*
X19050Y-30050D02*
X19050Y-31600D01*
X19050Y-24350D02*
X19050Y-27400D01*
X19050Y-21800D02*
X19050Y-23000D01*
X19000Y-30000D02*
X19000Y-31600D01*
X19000Y-24350D02*
X19000Y-27400D01*
X19000Y-21800D02*
X19000Y-23000D01*
X18950Y-29950D02*
X18950Y-31600D01*
X18950Y-24350D02*
X18950Y-27400D01*
X18950Y-21800D02*
X18950Y-23000D01*
X18900Y-29900D02*
X18900Y-31600D01*
X18900Y-24350D02*
X18900Y-27400D01*
X18900Y-21800D02*
X18900Y-23000D01*
X18850Y-29850D02*
X18850Y-31600D01*
X18850Y-24350D02*
X18850Y-27400D01*
X18850Y-21800D02*
X18850Y-23000D01*
X18800Y-29800D02*
X18800Y-31600D01*
X18800Y-24300D02*
X18800Y-27400D01*
X18800Y-21800D02*
X18800Y-23000D01*
X18750Y-29750D02*
X18750Y-31600D01*
X18750Y-24300D02*
X18750Y-27400D01*
X18750Y-21800D02*
X18750Y-23000D01*
X18700Y-29700D02*
X18700Y-31600D01*
X18700Y-24250D02*
X18700Y-27400D01*
X18700Y-21800D02*
X18700Y-23000D01*
X18650Y-29650D02*
X18650Y-31600D01*
X18650Y-24200D02*
X18650Y-27350D01*
X18650Y-21800D02*
X18650Y-23000D01*
X18600Y-29600D02*
X18600Y-31600D01*
X18600Y-24150D02*
X18600Y-27350D01*
X18600Y-21800D02*
X18600Y-23000D01*
X18550Y-29550D02*
X18550Y-31600D01*
X18550Y-24100D02*
X18550Y-27350D01*
X18550Y-21800D02*
X18550Y-23000D01*
X18500Y-29500D02*
X18500Y-31600D01*
X18500Y-24050D02*
X18500Y-27350D01*
X18500Y-21800D02*
X18500Y-23000D01*
X18450Y-29450D02*
X18450Y-31600D01*
X18450Y-24000D02*
X18450Y-27350D01*
X18450Y-21800D02*
X18450Y-23000D01*
X18400Y-29400D02*
X18400Y-31600D01*
X18400Y-24000D02*
X18400Y-27350D01*
X18400Y-21800D02*
X18400Y-23000D01*
X18350Y-29350D02*
X18350Y-31600D01*
X18350Y-24000D02*
X18350Y-27400D01*
X18350Y-21800D02*
X18350Y-23000D01*
X18300Y-29300D02*
X18300Y-31600D01*
X18300Y-21800D02*
X18300Y-27400D01*
X18250Y-29250D02*
X18250Y-31600D01*
X18250Y-21800D02*
X18250Y-27450D01*
X18200Y-29200D02*
X18200Y-31600D01*
X18200Y-21800D02*
X18200Y-27500D01*
X18150Y-29150D02*
X18150Y-31600D01*
X18150Y-21800D02*
X18150Y-27550D01*
X18100Y-29100D02*
X18100Y-31600D01*
X18100Y-21800D02*
X18100Y-27600D01*
X18050Y-29050D02*
X18050Y-31600D01*
X18050Y-21800D02*
X18050Y-27650D01*
X18000Y-28950D02*
X18000Y-31600D01*
X18000Y-21800D02*
X18000Y-27750D01*
X17950Y-21800D02*
X17950Y-31600D01*
X17900Y-21800D02*
X17900Y-31600D01*
X17850Y-21800D02*
X17850Y-31600D01*
X17800Y-21800D02*
X17800Y-31600D01*
X17750Y-21800D02*
X17750Y-31600D01*
X17700Y-21800D02*
X17700Y-31600D01*
X17650Y-21800D02*
X17650Y-31600D01*
X17600Y-21800D02*
X17600Y-31600D01*
X17550Y-21800D02*
X17550Y-31600D01*
X17500Y-21800D02*
X17500Y-31600D01*
X17450Y-21800D02*
X17450Y-31600D01*
X17400Y-21800D02*
X17400Y-31600D01*
X17350Y-21800D02*
X17350Y-31600D01*
X17300Y-21800D02*
X17300Y-31600D01*
X17250Y-21800D02*
X17250Y-31600D01*
X17200Y-21800D02*
X17200Y-31600D01*
X17150Y-21800D02*
X17150Y-31600D01*
X17100Y-21800D02*
X17100Y-31600D01*
X17050Y-21800D02*
X17050Y-31600D01*
X17000Y-21800D02*
X17000Y-31600D01*
X16950Y-21800D02*
X16950Y-31600D01*
X16900Y-21800D02*
X16900Y-31600D01*
X16850Y-21800D02*
X16850Y-31600D01*
X16800Y-21800D02*
X16800Y-31600D01*
X29600Y-31850D02*
X33150Y-31850D01*
X29550Y-31800D02*
X33200Y-31800D01*
X29500Y-31750D02*
X33250Y-31750D01*
X29450Y-31700D02*
X33300Y-31700D01*
X21800Y-31700D02*
X24900Y-31700D01*
X29400Y-31650D02*
X33350Y-31650D01*
X21750Y-31650D02*
X24900Y-31650D01*
X29350Y-31600D02*
X33400Y-31600D01*
X21700Y-31600D02*
X24900Y-31600D01*
X16800Y-31600D02*
X20600Y-31600D01*
X29350Y-31550D02*
X33450Y-31550D01*
X21650Y-31550D02*
X24900Y-31550D01*
X16800Y-31550D02*
X20550Y-31550D01*
X29350Y-31500D02*
X33500Y-31500D01*
X21600Y-31500D02*
X24900Y-31500D01*
X16800Y-31500D02*
X20500Y-31500D01*
X29350Y-31450D02*
X33550Y-31450D01*
X24200Y-31450D02*
X24900Y-31450D01*
X21550Y-31450D02*
X23400Y-31450D01*
X16800Y-31450D02*
X20450Y-31450D01*
X31050Y-31400D02*
X33600Y-31400D01*
X29350Y-31400D02*
X30150Y-31400D01*
X24200Y-31400D02*
X24900Y-31400D01*
X21500Y-31400D02*
X23400Y-31400D01*
X16800Y-31400D02*
X20400Y-31400D01*
X31050Y-31350D02*
X33650Y-31350D01*
X29350Y-31350D02*
X30150Y-31350D01*
X24200Y-31350D02*
X24900Y-31350D01*
X21450Y-31350D02*
X23400Y-31350D01*
X16800Y-31350D02*
X20350Y-31350D01*
X32900Y-31300D02*
X33700Y-31300D01*
X29350Y-31300D02*
X30150Y-31300D01*
X24200Y-31300D02*
X24900Y-31300D01*
X21400Y-31300D02*
X23400Y-31300D01*
X16800Y-31300D02*
X20300Y-31300D01*
X33000Y-31250D02*
X33750Y-31250D01*
X29300Y-31250D02*
X30150Y-31250D01*
X24250Y-31250D02*
X24900Y-31250D01*
X21350Y-31250D02*
X23400Y-31250D01*
X16800Y-31250D02*
X20250Y-31250D01*
X33050Y-31200D02*
X33800Y-31200D01*
X29300Y-31200D02*
X30150Y-31200D01*
X24300Y-31200D02*
X24900Y-31200D01*
X21300Y-31200D02*
X23400Y-31200D01*
X16800Y-31200D02*
X20200Y-31200D01*
X33100Y-31150D02*
X33850Y-31150D01*
X29250Y-31150D02*
X30150Y-31150D01*
X24350Y-31150D02*
X24900Y-31150D01*
X21250Y-31150D02*
X23400Y-31150D01*
X16800Y-31150D02*
X20150Y-31150D01*
X33150Y-31100D02*
X33900Y-31100D01*
X29250Y-31100D02*
X30150Y-31100D01*
X21750Y-31100D02*
X23400Y-31100D01*
X16800Y-31100D02*
X20100Y-31100D01*
X33200Y-31050D02*
X33950Y-31050D01*
X29250Y-31050D02*
X29350Y-31050D01*
X21850Y-31050D02*
X23400Y-31050D01*
X16800Y-31050D02*
X20050Y-31050D01*
X33250Y-31000D02*
X33950Y-31000D01*
X29250Y-31000D02*
X29350Y-31000D01*
X21900Y-31000D02*
X23400Y-31000D01*
X16800Y-31000D02*
X20000Y-31000D01*
X33300Y-30950D02*
X33950Y-30950D01*
X29250Y-30950D02*
X29350Y-30950D01*
X21950Y-30950D02*
X23400Y-30950D01*
X16800Y-30950D02*
X19950Y-30950D01*
X33350Y-30900D02*
X33950Y-30900D01*
X22000Y-30900D02*
X23400Y-30900D01*
X16800Y-30900D02*
X19900Y-30900D01*
X33400Y-30850D02*
X33950Y-30850D01*
X22050Y-30850D02*
X23400Y-30850D01*
X16800Y-30850D02*
X19850Y-30850D01*
X33450Y-30800D02*
X33950Y-30800D01*
X22050Y-30800D02*
X23400Y-30800D01*
X16800Y-30800D02*
X19800Y-30800D01*
X33500Y-30750D02*
X33950Y-30750D01*
X23100Y-30750D02*
X23400Y-30750D01*
X16800Y-30750D02*
X19750Y-30750D01*
X33550Y-30700D02*
X33950Y-30700D01*
X23100Y-30700D02*
X23400Y-30700D01*
X16800Y-30700D02*
X19700Y-30700D01*
X33600Y-30650D02*
X33950Y-30650D01*
X23100Y-30650D02*
X23400Y-30650D01*
X16800Y-30650D02*
X19650Y-30650D01*
X33650Y-30600D02*
X33950Y-30600D01*
X23100Y-30600D02*
X23400Y-30600D01*
X16800Y-30600D02*
X19600Y-30600D01*
X33700Y-30550D02*
X33950Y-30550D01*
X23100Y-30550D02*
X23400Y-30550D01*
X16800Y-30550D02*
X19550Y-30550D01*
X33750Y-30500D02*
X33950Y-30500D01*
X23100Y-30500D02*
X23400Y-30500D01*
X16800Y-30500D02*
X19500Y-30500D01*
X33800Y-30450D02*
X33950Y-30450D01*
X23100Y-30450D02*
X23400Y-30450D01*
X16800Y-30450D02*
X19450Y-30450D01*
X33850Y-30400D02*
X33950Y-30400D01*
X23100Y-30400D02*
X23400Y-30400D01*
X16800Y-30400D02*
X19400Y-30400D01*
X33900Y-30350D02*
X33950Y-30350D01*
X23100Y-30350D02*
X23400Y-30350D01*
X16800Y-30350D02*
X19350Y-30350D01*
X23100Y-30300D02*
X23400Y-30300D01*
X16800Y-30300D02*
X19300Y-30300D01*
X23100Y-30250D02*
X23400Y-30250D01*
X16800Y-30250D02*
X19250Y-30250D01*
X23100Y-30200D02*
X23400Y-30200D01*
X16800Y-30200D02*
X19200Y-30200D01*
X31250Y-30150D02*
X32850Y-30150D01*
X23100Y-30150D02*
X23400Y-30150D01*
X16800Y-30150D02*
X19150Y-30150D01*
X31200Y-30100D02*
X32900Y-30100D01*
X23100Y-30100D02*
X23400Y-30100D01*
X16800Y-30100D02*
X19100Y-30100D01*
X31150Y-30050D02*
X32950Y-30050D01*
X23100Y-30050D02*
X23400Y-30050D01*
X16800Y-30050D02*
X19050Y-30050D01*
X31100Y-30000D02*
X33000Y-30000D01*
X23100Y-30000D02*
X23400Y-30000D01*
X16800Y-30000D02*
X19000Y-30000D01*
X31050Y-29950D02*
X33050Y-29950D01*
X23100Y-29950D02*
X23400Y-29950D01*
X16800Y-29950D02*
X18950Y-29950D01*
X31000Y-29900D02*
X33100Y-29900D01*
X23100Y-29900D02*
X23400Y-29900D01*
X16800Y-29900D02*
X18900Y-29900D01*
X30950Y-29850D02*
X33150Y-29850D01*
X23100Y-29850D02*
X23400Y-29850D01*
X16800Y-29850D02*
X18850Y-29850D01*
X30900Y-29800D02*
X33200Y-29800D01*
X21600Y-29800D02*
X23900Y-29800D01*
X16800Y-29800D02*
X18800Y-29800D01*
X30850Y-29750D02*
X33250Y-29750D01*
X21600Y-29750D02*
X23900Y-29750D01*
X16800Y-29750D02*
X18750Y-29750D01*
X30750Y-29700D02*
X33300Y-29700D01*
X21600Y-29700D02*
X23900Y-29700D01*
X16800Y-29700D02*
X18700Y-29700D01*
X30600Y-29650D02*
X33350Y-29650D01*
X21600Y-29650D02*
X23900Y-29650D01*
X16800Y-29650D02*
X18650Y-29650D01*
X30950Y-29600D02*
X33400Y-29600D01*
X21600Y-29600D02*
X23900Y-29600D01*
X16800Y-29600D02*
X18600Y-29600D01*
X30950Y-29550D02*
X33450Y-29550D01*
X21600Y-29550D02*
X23900Y-29550D01*
X16800Y-29550D02*
X18550Y-29550D01*
X30950Y-29500D02*
X32200Y-29500D01*
X29100Y-29500D02*
X29500Y-29500D01*
X21600Y-29500D02*
X23900Y-29500D01*
X16800Y-29500D02*
X18500Y-29500D01*
X30950Y-29450D02*
X32200Y-29450D01*
X29100Y-29450D02*
X29550Y-29450D01*
X21600Y-29450D02*
X23900Y-29450D01*
X16800Y-29450D02*
X18450Y-29450D01*
X30950Y-29400D02*
X32200Y-29400D01*
X29100Y-29400D02*
X29600Y-29400D01*
X21600Y-29400D02*
X23900Y-29400D01*
X16800Y-29400D02*
X18400Y-29400D01*
X30950Y-29350D02*
X31450Y-29350D01*
X29100Y-29350D02*
X29650Y-29350D01*
X23050Y-29350D02*
X23900Y-29350D01*
X21600Y-29350D02*
X22550Y-29350D01*
X16800Y-29350D02*
X18350Y-29350D01*
X30950Y-29300D02*
X31350Y-29300D01*
X29100Y-29300D02*
X29750Y-29300D01*
X23100Y-29300D02*
X23900Y-29300D01*
X21600Y-29300D02*
X22500Y-29300D01*
X16800Y-29300D02*
X18300Y-29300D01*
X30950Y-29250D02*
X31300Y-29250D01*
X29100Y-29250D02*
X30000Y-29250D01*
X23150Y-29250D02*
X23900Y-29250D01*
X21600Y-29250D02*
X22450Y-29250D01*
X16800Y-29250D02*
X18250Y-29250D01*
X30950Y-29200D02*
X31250Y-29200D01*
X29100Y-29200D02*
X30050Y-29200D01*
X23200Y-29200D02*
X23900Y-29200D01*
X21600Y-29200D02*
X22400Y-29200D01*
X16800Y-29200D02*
X18200Y-29200D01*
X30950Y-29150D02*
X31200Y-29150D01*
X29100Y-29150D02*
X30050Y-29150D01*
X23250Y-29150D02*
X23900Y-29150D01*
X21600Y-29150D02*
X22350Y-29150D01*
X16800Y-29150D02*
X18150Y-29150D01*
X30950Y-29100D02*
X31150Y-29100D01*
X29100Y-29100D02*
X30050Y-29100D01*
X23250Y-29100D02*
X23900Y-29100D01*
X21600Y-29100D02*
X22350Y-29100D01*
X16800Y-29100D02*
X18100Y-29100D01*
X30950Y-29050D02*
X31100Y-29050D01*
X29100Y-29050D02*
X30050Y-29050D01*
X23250Y-29050D02*
X23900Y-29050D01*
X21600Y-29050D02*
X22350Y-29050D01*
X16800Y-29050D02*
X18050Y-29050D01*
X30950Y-29000D02*
X31050Y-29000D01*
X29100Y-29000D02*
X30050Y-29000D01*
X23250Y-29000D02*
X23900Y-29000D01*
X21600Y-29000D02*
X22300Y-29000D01*
X16800Y-29000D02*
X18000Y-29000D01*
X30950Y-28950D02*
X31000Y-28950D01*
X29100Y-28950D02*
X30050Y-28950D01*
X23250Y-28950D02*
X23900Y-28950D01*
X21600Y-28950D02*
X22250Y-28950D01*
X16800Y-28950D02*
X18000Y-28950D01*
X29650Y-28900D02*
X30050Y-28900D01*
X23250Y-28900D02*
X23950Y-28900D01*
X21550Y-28900D02*
X22200Y-28900D01*
X16800Y-28900D02*
X17950Y-28900D01*
X29650Y-28850D02*
X30050Y-28850D01*
X23250Y-28850D02*
X23950Y-28850D01*
X21550Y-28850D02*
X22150Y-28850D01*
X16800Y-28850D02*
X17950Y-28850D01*
X29650Y-28800D02*
X30050Y-28800D01*
X23250Y-28800D02*
X24000Y-28800D01*
X21500Y-28800D02*
X22100Y-28800D01*
X16800Y-28800D02*
X17950Y-28800D01*
X29650Y-28750D02*
X30800Y-28750D01*
X23250Y-28750D02*
X24050Y-28750D01*
X21450Y-28750D02*
X22050Y-28750D01*
X16800Y-28750D02*
X17950Y-28750D01*
X29650Y-28700D02*
X30750Y-28700D01*
X23200Y-28700D02*
X24100Y-28700D01*
X21400Y-28700D02*
X22000Y-28700D01*
X16800Y-28700D02*
X17950Y-28700D01*
X23150Y-28650D02*
X24150Y-28650D01*
X21350Y-28650D02*
X21950Y-28650D01*
X16800Y-28650D02*
X17950Y-28650D01*
X23100Y-28600D02*
X24200Y-28600D01*
X21300Y-28600D02*
X21900Y-28600D01*
X16800Y-28600D02*
X17950Y-28600D01*
X23050Y-28550D02*
X24250Y-28550D01*
X21250Y-28550D02*
X21850Y-28550D01*
X16800Y-28550D02*
X17950Y-28550D01*
X22900Y-28500D02*
X24300Y-28500D01*
X21200Y-28500D02*
X21800Y-28500D01*
X16800Y-28500D02*
X17950Y-28500D01*
X22850Y-28450D02*
X24350Y-28450D01*
X21150Y-28450D02*
X21750Y-28450D01*
X16800Y-28450D02*
X17950Y-28450D01*
X22800Y-28400D02*
X24400Y-28400D01*
X21100Y-28400D02*
X21700Y-28400D01*
X16800Y-28400D02*
X17950Y-28400D01*
X22750Y-28350D02*
X24450Y-28350D01*
X21050Y-28350D02*
X21650Y-28350D01*
X16800Y-28350D02*
X17950Y-28350D01*
X22700Y-28300D02*
X24500Y-28300D01*
X16800Y-28300D02*
X17950Y-28300D01*
X22650Y-28250D02*
X24550Y-28250D01*
X16800Y-28250D02*
X17950Y-28250D01*
X22600Y-28200D02*
X24600Y-28200D01*
X16800Y-28200D02*
X17950Y-28200D01*
X22550Y-28150D02*
X24650Y-28150D01*
X16800Y-28150D02*
X17950Y-28150D01*
X22500Y-28100D02*
X24700Y-28100D01*
X16800Y-28100D02*
X17950Y-28100D01*
X22450Y-28050D02*
X24750Y-28050D01*
X16800Y-28050D02*
X17950Y-28050D01*
X22400Y-28000D02*
X24800Y-28000D01*
X16800Y-28000D02*
X17950Y-28000D01*
X22350Y-27950D02*
X24850Y-27950D01*
X16800Y-27950D02*
X17950Y-27950D01*
X22300Y-27900D02*
X24900Y-27900D01*
X16800Y-27900D02*
X17950Y-27900D01*
X22250Y-27850D02*
X24950Y-27850D01*
X16800Y-27850D02*
X17950Y-27850D01*
X22200Y-27800D02*
X25000Y-27800D01*
X16800Y-27800D02*
X17950Y-27800D01*
X22150Y-27750D02*
X25050Y-27750D01*
X16800Y-27750D02*
X18000Y-27750D01*
X22100Y-27700D02*
X25100Y-27700D01*
X16800Y-27700D02*
X18000Y-27700D01*
X22050Y-27650D02*
X25150Y-27650D01*
X16800Y-27650D02*
X18050Y-27650D01*
X21950Y-27600D02*
X25200Y-27600D01*
X16800Y-27600D02*
X18100Y-27600D01*
X20850Y-27550D02*
X25250Y-27550D01*
X16800Y-27550D02*
X18150Y-27550D01*
X20800Y-27500D02*
X25300Y-27500D01*
X16800Y-27500D02*
X18200Y-27500D01*
X20750Y-27450D02*
X25350Y-27450D01*
X16800Y-27450D02*
X18250Y-27450D01*
X20700Y-27400D02*
X25400Y-27400D01*
X18700Y-27400D02*
X19200Y-27400D01*
X16800Y-27400D02*
X18350Y-27400D01*
X20650Y-27350D02*
X25450Y-27350D01*
X16800Y-27350D02*
X19200Y-27350D01*
X20600Y-27300D02*
X25500Y-27300D01*
X16800Y-27300D02*
X19200Y-27300D01*
X20550Y-27250D02*
X25550Y-27250D01*
X16800Y-27250D02*
X19200Y-27250D01*
X20500Y-27200D02*
X25600Y-27200D01*
X16800Y-27200D02*
X19200Y-27200D01*
X33250Y-27150D02*
X33450Y-27150D01*
X24100Y-27150D02*
X24400Y-27150D01*
X20450Y-27150D02*
X20900Y-27150D01*
X16800Y-27150D02*
X19200Y-27150D01*
X33250Y-27100D02*
X33450Y-27100D01*
X24100Y-27100D02*
X24400Y-27100D01*
X20400Y-27100D02*
X20900Y-27100D01*
X16800Y-27100D02*
X19250Y-27100D01*
X33250Y-27050D02*
X33450Y-27050D01*
X24100Y-27050D02*
X24400Y-27050D01*
X20350Y-27050D02*
X20900Y-27050D01*
X16800Y-27050D02*
X19250Y-27050D01*
X33250Y-27000D02*
X33450Y-27000D01*
X24100Y-27000D02*
X24400Y-27000D01*
X20300Y-27000D02*
X20900Y-27000D01*
X16800Y-27000D02*
X19250Y-27000D01*
X33250Y-26950D02*
X33450Y-26950D01*
X24100Y-26950D02*
X24400Y-26950D01*
X20250Y-26950D02*
X20900Y-26950D01*
X16800Y-26950D02*
X19300Y-26950D01*
X33250Y-26900D02*
X33450Y-26900D01*
X24100Y-26900D02*
X24400Y-26900D01*
X20150Y-26900D02*
X20900Y-26900D01*
X16800Y-26900D02*
X19350Y-26900D01*
X33250Y-26850D02*
X33450Y-26850D01*
X31300Y-26850D02*
X31350Y-26850D01*
X24100Y-26850D02*
X24400Y-26850D01*
X20150Y-26850D02*
X20900Y-26850D01*
X16800Y-26850D02*
X19200Y-26850D01*
X33250Y-26800D02*
X33450Y-26800D01*
X31250Y-26800D02*
X31300Y-26800D01*
X24100Y-26800D02*
X24400Y-26800D01*
X20150Y-26800D02*
X20900Y-26800D01*
X16800Y-26800D02*
X19200Y-26800D01*
X33250Y-26750D02*
X33450Y-26750D01*
X31150Y-26750D02*
X31300Y-26750D01*
X24100Y-26750D02*
X24400Y-26750D01*
X20150Y-26750D02*
X20900Y-26750D01*
X16800Y-26750D02*
X19200Y-26750D01*
X33250Y-26700D02*
X33450Y-26700D01*
X29550Y-26700D02*
X31250Y-26700D01*
X24100Y-26700D02*
X24400Y-26700D01*
X20150Y-26700D02*
X20900Y-26700D01*
X16800Y-26700D02*
X19200Y-26700D01*
X33250Y-26650D02*
X33450Y-26650D01*
X29600Y-26650D02*
X31250Y-26650D01*
X24100Y-26650D02*
X24400Y-26650D01*
X20150Y-26650D02*
X20900Y-26650D01*
X16800Y-26650D02*
X19200Y-26650D01*
X33250Y-26600D02*
X33450Y-26600D01*
X29650Y-26600D02*
X31250Y-26600D01*
X24100Y-26600D02*
X24400Y-26600D01*
X20150Y-26600D02*
X20900Y-26600D01*
X16800Y-26600D02*
X19200Y-26600D01*
X33250Y-26550D02*
X33450Y-26550D01*
X29700Y-26550D02*
X31250Y-26550D01*
X24150Y-26550D02*
X24400Y-26550D01*
X20150Y-26550D02*
X20900Y-26550D01*
X16800Y-26550D02*
X19200Y-26550D01*
X33250Y-26500D02*
X33450Y-26500D01*
X29750Y-26500D02*
X31250Y-26500D01*
X24200Y-26500D02*
X24400Y-26500D01*
X20150Y-26500D02*
X20900Y-26500D01*
X16800Y-26500D02*
X19200Y-26500D01*
X32450Y-26450D02*
X33450Y-26450D01*
X29800Y-26450D02*
X31250Y-26450D01*
X24250Y-26450D02*
X24400Y-26450D01*
X20150Y-26450D02*
X20750Y-26450D01*
X16800Y-26450D02*
X19200Y-26450D01*
X32450Y-26400D02*
X33450Y-26400D01*
X29850Y-26400D02*
X31250Y-26400D01*
X24300Y-26400D02*
X24400Y-26400D01*
X20150Y-26400D02*
X20750Y-26400D01*
X16800Y-26400D02*
X19200Y-26400D01*
X32400Y-26350D02*
X33450Y-26350D01*
X29900Y-26350D02*
X31300Y-26350D01*
X24350Y-26350D02*
X24400Y-26350D01*
X20150Y-26350D02*
X20750Y-26350D01*
X16800Y-26350D02*
X19200Y-26350D01*
X32400Y-26300D02*
X33450Y-26300D01*
X29950Y-26300D02*
X31300Y-26300D01*
X20150Y-26300D02*
X20750Y-26300D01*
X16800Y-26300D02*
X19200Y-26300D01*
X32350Y-26250D02*
X33450Y-26250D01*
X30000Y-26250D02*
X31350Y-26250D01*
X20150Y-26250D02*
X20750Y-26250D01*
X16800Y-26250D02*
X19200Y-26250D01*
X32350Y-26200D02*
X33450Y-26200D01*
X30050Y-26200D02*
X31350Y-26200D01*
X24500Y-26200D02*
X26400Y-26200D01*
X20150Y-26200D02*
X20750Y-26200D01*
X16800Y-26200D02*
X19200Y-26200D01*
X30050Y-26150D02*
X31400Y-26150D01*
X24550Y-26150D02*
X26400Y-26150D01*
X20150Y-26150D02*
X20750Y-26150D01*
X16800Y-26150D02*
X19200Y-26150D01*
X30100Y-26100D02*
X31450Y-26100D01*
X24600Y-26100D02*
X26450Y-26100D01*
X20150Y-26100D02*
X20750Y-26100D01*
X16800Y-26100D02*
X19200Y-26100D01*
X32150Y-26050D02*
X32200Y-26050D01*
X30100Y-26050D02*
X31550Y-26050D01*
X26200Y-26050D02*
X26450Y-26050D01*
X24650Y-26050D02*
X25800Y-26050D01*
X20150Y-26050D02*
X20750Y-26050D01*
X16800Y-26050D02*
X19200Y-26050D01*
X30100Y-26000D02*
X31450Y-26000D01*
X26300Y-26000D02*
X26500Y-26000D01*
X24700Y-26000D02*
X25700Y-26000D01*
X20150Y-26000D02*
X20750Y-26000D01*
X16800Y-26000D02*
X19200Y-26000D01*
X30100Y-25950D02*
X31400Y-25950D01*
X26400Y-25950D02*
X26550Y-25950D01*
X24750Y-25950D02*
X25600Y-25950D01*
X20200Y-25950D02*
X20750Y-25950D01*
X16800Y-25950D02*
X19200Y-25950D01*
X30100Y-25900D02*
X31350Y-25900D01*
X26450Y-25900D02*
X26600Y-25900D01*
X24800Y-25900D02*
X25550Y-25900D01*
X20250Y-25900D02*
X20750Y-25900D01*
X16800Y-25900D02*
X19350Y-25900D01*
X30100Y-25850D02*
X31350Y-25850D01*
X26500Y-25850D02*
X26650Y-25850D01*
X24850Y-25850D02*
X25500Y-25850D01*
X20300Y-25850D02*
X20750Y-25850D01*
X16800Y-25850D02*
X19350Y-25850D01*
X30100Y-25800D02*
X31300Y-25800D01*
X26500Y-25800D02*
X26700Y-25800D01*
X20350Y-25800D02*
X20750Y-25800D01*
X16800Y-25800D02*
X19350Y-25800D01*
X30100Y-25750D02*
X31300Y-25750D01*
X26550Y-25750D02*
X26750Y-25750D01*
X20350Y-25750D02*
X20750Y-25750D01*
X16800Y-25750D02*
X19350Y-25750D01*
X30100Y-25700D02*
X31250Y-25700D01*
X26550Y-25700D02*
X26800Y-25700D01*
X20400Y-25700D02*
X20750Y-25700D01*
X16800Y-25700D02*
X19400Y-25700D01*
X30100Y-25650D02*
X31250Y-25650D01*
X26600Y-25650D02*
X26850Y-25650D01*
X20400Y-25650D02*
X20750Y-25650D01*
X16800Y-25650D02*
X19400Y-25650D01*
X30100Y-25600D02*
X31250Y-25600D01*
X26600Y-25600D02*
X26900Y-25600D01*
X20400Y-25600D02*
X20750Y-25600D01*
X16800Y-25600D02*
X19450Y-25600D01*
X30100Y-25550D02*
X31250Y-25550D01*
X26600Y-25550D02*
X26950Y-25550D01*
X20400Y-25550D02*
X20750Y-25550D01*
X16800Y-25550D02*
X19500Y-25550D01*
X31150Y-25500D02*
X31250Y-25500D01*
X30100Y-25500D02*
X30150Y-25500D01*
X26600Y-25500D02*
X27000Y-25500D01*
X20400Y-25500D02*
X21150Y-25500D01*
X16800Y-25500D02*
X19550Y-25500D01*
X26600Y-25450D02*
X27000Y-25450D01*
X20400Y-25450D02*
X21150Y-25450D01*
X16800Y-25450D02*
X19600Y-25450D01*
X26600Y-25400D02*
X27000Y-25400D01*
X20400Y-25400D02*
X21150Y-25400D01*
X16800Y-25400D02*
X19600Y-25400D01*
X26600Y-25350D02*
X27000Y-25350D01*
X20400Y-25350D02*
X21150Y-25350D01*
X16800Y-25350D02*
X19600Y-25350D01*
X26550Y-25300D02*
X27000Y-25300D01*
X20400Y-25300D02*
X21150Y-25300D01*
X16800Y-25300D02*
X19600Y-25300D01*
X26550Y-25250D02*
X27000Y-25250D01*
X20400Y-25250D02*
X21150Y-25250D01*
X16800Y-25250D02*
X19600Y-25250D01*
X26500Y-25200D02*
X27000Y-25200D01*
X20400Y-25200D02*
X21150Y-25200D01*
X16800Y-25200D02*
X19600Y-25200D01*
X26500Y-25150D02*
X27000Y-25150D01*
X20400Y-25150D02*
X21150Y-25150D01*
X16800Y-25150D02*
X19600Y-25150D01*
X32250Y-25100D02*
X33150Y-25100D01*
X26450Y-25100D02*
X29400Y-25100D01*
X20400Y-25100D02*
X21150Y-25100D01*
X16800Y-25100D02*
X19600Y-25100D01*
X32150Y-25050D02*
X33150Y-25050D01*
X26400Y-25050D02*
X29400Y-25050D01*
X20400Y-25050D02*
X20750Y-25050D01*
X16800Y-25050D02*
X19600Y-25050D01*
X32050Y-25000D02*
X33150Y-25000D01*
X26300Y-25000D02*
X29400Y-25000D01*
X20400Y-25000D02*
X20750Y-25000D01*
X16800Y-25000D02*
X19600Y-25000D01*
X31700Y-24950D02*
X33150Y-24950D01*
X26200Y-24950D02*
X29400Y-24950D01*
X20400Y-24950D02*
X20750Y-24950D01*
X16800Y-24950D02*
X19600Y-24950D01*
X31750Y-24900D02*
X33150Y-24900D01*
X25850Y-24900D02*
X29400Y-24900D01*
X20400Y-24900D02*
X20750Y-24900D01*
X16800Y-24900D02*
X19600Y-24900D01*
X31750Y-24850D02*
X33150Y-24850D01*
X25850Y-24850D02*
X27000Y-24850D01*
X20400Y-24850D02*
X20750Y-24850D01*
X16800Y-24850D02*
X19600Y-24850D01*
X31750Y-24800D02*
X33150Y-24800D01*
X25850Y-24800D02*
X27000Y-24800D01*
X20400Y-24800D02*
X20750Y-24800D01*
X16800Y-24800D02*
X19600Y-24800D01*
X31750Y-24750D02*
X33150Y-24750D01*
X25850Y-24750D02*
X27000Y-24750D01*
X20400Y-24750D02*
X20750Y-24750D01*
X16800Y-24750D02*
X19600Y-24750D01*
X31750Y-24700D02*
X33150Y-24700D01*
X25850Y-24700D02*
X27000Y-24700D01*
X20400Y-24700D02*
X20750Y-24700D01*
X16800Y-24700D02*
X19600Y-24700D01*
X31750Y-24650D02*
X33150Y-24650D01*
X25850Y-24650D02*
X27000Y-24650D01*
X20400Y-24650D02*
X20750Y-24650D01*
X16800Y-24650D02*
X19600Y-24650D01*
X31750Y-24600D02*
X33150Y-24600D01*
X25850Y-24600D02*
X27000Y-24600D01*
X20400Y-24600D02*
X20750Y-24600D01*
X16800Y-24600D02*
X19600Y-24600D01*
X31750Y-24550D02*
X33150Y-24550D01*
X25850Y-24550D02*
X27000Y-24550D01*
X20700Y-24550D02*
X20750Y-24550D01*
X16800Y-24550D02*
X19600Y-24550D01*
X31750Y-24500D02*
X33150Y-24500D01*
X25850Y-24500D02*
X27000Y-24500D01*
X16800Y-24500D02*
X19600Y-24500D01*
X31750Y-24450D02*
X33150Y-24450D01*
X25850Y-24450D02*
X27000Y-24450D01*
X16800Y-24450D02*
X19600Y-24450D01*
X31750Y-24400D02*
X33150Y-24400D01*
X25850Y-24400D02*
X27000Y-24400D01*
X16800Y-24400D02*
X19600Y-24400D01*
X31750Y-24350D02*
X33150Y-24350D01*
X25850Y-24350D02*
X27000Y-24350D01*
X16800Y-24350D02*
X19600Y-24350D01*
X31750Y-24300D02*
X33150Y-24300D01*
X25850Y-24300D02*
X27000Y-24300D01*
X16800Y-24300D02*
X18800Y-24300D01*
X31750Y-24250D02*
X33150Y-24250D01*
X25500Y-24250D02*
X26700Y-24250D01*
X16800Y-24250D02*
X18700Y-24250D01*
X31750Y-24200D02*
X33150Y-24200D01*
X25500Y-24200D02*
X26700Y-24200D01*
X16800Y-24200D02*
X18650Y-24200D01*
X31750Y-24150D02*
X33150Y-24150D01*
X25500Y-24150D02*
X26700Y-24150D01*
X16800Y-24150D02*
X18600Y-24150D01*
X31800Y-24100D02*
X33150Y-24100D01*
X25500Y-24100D02*
X26700Y-24100D01*
X16800Y-24100D02*
X18550Y-24100D01*
X31850Y-24050D02*
X33150Y-24050D01*
X25950Y-24050D02*
X26700Y-24050D01*
X16800Y-24050D02*
X18500Y-24050D01*
X32200Y-24000D02*
X33150Y-24000D01*
X16800Y-24000D02*
X18450Y-24000D01*
X32300Y-23950D02*
X33150Y-23950D01*
X16800Y-23950D02*
X18300Y-23950D01*
X32350Y-23900D02*
X33150Y-23900D01*
X16800Y-23900D02*
X18300Y-23900D01*
X33100Y-23850D02*
X33150Y-23850D01*
X16800Y-23850D02*
X18300Y-23850D01*
X33100Y-23800D02*
X33150Y-23800D01*
X16800Y-23800D02*
X18300Y-23800D01*
X16800Y-23750D02*
X18300Y-23750D01*
X16800Y-23700D02*
X18300Y-23700D01*
X16800Y-23650D02*
X18300Y-23650D01*
X16800Y-23600D02*
X18300Y-23600D01*
X16800Y-23550D02*
X18300Y-23550D01*
X16800Y-23500D02*
X18300Y-23500D01*
X16800Y-23450D02*
X18300Y-23450D01*
X16800Y-23400D02*
X18300Y-23400D01*
X16800Y-23350D02*
X18300Y-23350D01*
X16800Y-23300D02*
X18300Y-23300D01*
X16800Y-23250D02*
X18300Y-23250D01*
X16800Y-23200D02*
X18300Y-23200D01*
X16800Y-23150D02*
X18300Y-23150D01*
X16800Y-23100D02*
X18300Y-23100D01*
X16800Y-23050D02*
X18300Y-23050D01*
X28350Y-23000D02*
X28700Y-23000D01*
X27050Y-23000D02*
X27250Y-23000D01*
X16800Y-23000D02*
X19350Y-23000D01*
X28350Y-22950D02*
X28700Y-22950D01*
X27050Y-22950D02*
X27250Y-22950D01*
X16800Y-22950D02*
X19400Y-22950D01*
X28350Y-22900D02*
X28700Y-22900D01*
X27050Y-22900D02*
X27250Y-22900D01*
X22600Y-22900D02*
X24550Y-22900D01*
X16800Y-22900D02*
X19450Y-22900D01*
X28350Y-22850D02*
X28700Y-22850D01*
X27050Y-22850D02*
X27250Y-22850D01*
X22550Y-22850D02*
X24550Y-22850D01*
X16800Y-22850D02*
X19500Y-22850D01*
X28350Y-22800D02*
X29400Y-22800D01*
X27050Y-22800D02*
X27250Y-22800D01*
X22500Y-22800D02*
X24550Y-22800D01*
X16800Y-22800D02*
X19550Y-22800D01*
X28350Y-22750D02*
X29400Y-22750D01*
X27050Y-22750D02*
X27250Y-22750D01*
X22450Y-22750D02*
X25950Y-22750D01*
X16800Y-22750D02*
X19600Y-22750D01*
X28350Y-22700D02*
X29400Y-22700D01*
X27050Y-22700D02*
X27250Y-22700D01*
X22350Y-22700D02*
X25950Y-22700D01*
X16800Y-22700D02*
X19700Y-22700D01*
X28350Y-22650D02*
X29400Y-22650D01*
X27050Y-22650D02*
X27250Y-22650D01*
X16800Y-22650D02*
X25950Y-22650D01*
X28350Y-22600D02*
X29450Y-22600D01*
X27050Y-22600D02*
X27250Y-22600D01*
X16800Y-22600D02*
X25950Y-22600D01*
X28350Y-22550D02*
X29450Y-22550D01*
X27050Y-22550D02*
X27250Y-22550D01*
X16800Y-22550D02*
X25950Y-22550D01*
X28350Y-22500D02*
X29500Y-22500D01*
X27050Y-22500D02*
X27250Y-22500D01*
X16800Y-22500D02*
X25950Y-22500D01*
X28350Y-22450D02*
X29550Y-22450D01*
X27050Y-22450D02*
X27250Y-22450D01*
X16800Y-22450D02*
X25950Y-22450D01*
X28350Y-22400D02*
X29600Y-22400D01*
X27050Y-22400D02*
X27250Y-22400D01*
X16800Y-22400D02*
X25950Y-22400D01*
X28350Y-22350D02*
X29650Y-22350D01*
X27050Y-22350D02*
X27250Y-22350D01*
X16800Y-22350D02*
X25950Y-22350D01*
X28350Y-22300D02*
X29700Y-22300D01*
X27050Y-22300D02*
X27250Y-22300D01*
X16800Y-22300D02*
X25950Y-22300D01*
X28350Y-22250D02*
X29750Y-22250D01*
X27050Y-22250D02*
X27250Y-22250D01*
X16800Y-22250D02*
X25950Y-22250D01*
X28350Y-22200D02*
X29800Y-22200D01*
X27050Y-22200D02*
X27250Y-22200D01*
X16800Y-22200D02*
X25950Y-22200D01*
X28350Y-22150D02*
X29850Y-22150D01*
X27050Y-22150D02*
X27250Y-22150D01*
X16800Y-22150D02*
X25950Y-22150D01*
X28350Y-22100D02*
X29900Y-22100D01*
X27050Y-22100D02*
X27250Y-22100D01*
X16800Y-22100D02*
X25950Y-22100D01*
X28350Y-22050D02*
X29950Y-22050D01*
X27050Y-22050D02*
X27250Y-22050D01*
X16800Y-22050D02*
X25950Y-22050D01*
X28350Y-22000D02*
X30000Y-22000D01*
X27050Y-22000D02*
X27250Y-22000D01*
X16800Y-22000D02*
X25950Y-22000D01*
X28350Y-21950D02*
X30050Y-21950D01*
X27050Y-21950D02*
X27250Y-21950D01*
X16800Y-21950D02*
X25950Y-21950D01*
X28350Y-21900D02*
X30100Y-21900D01*
X27050Y-21900D02*
X27250Y-21900D01*
X16800Y-21900D02*
X25950Y-21900D01*
X16800Y-21850D02*
X30150Y-21850D01*
X16800Y-21800D02*
X30200Y-21800D01*
M02*
