G04 (Genere par PCBNEW (2007-05-25)) le 7/11/2007-12:59:44*
G01*
G70*
G90*
%MOIN*%
G04 Gerber Fmt 3.4, Leading zero omitted, Abs format*
%FSLAX34Y34*%
G04 APERTURE LIST*
%ADD10C,0.015000*%
%ADD11R,0.070000X0.070000*%
%ADD12C,0.070000*%
%ADD13C,0.169300*%
%ADD14C,0.059100*%
%ADD15C,0.045000*%
%ADD16C,0.030000*%
%ADD17C,0.017000*%
%ADD18C,0.005000*%
%ADD19C,0.006000*%
%ADD20R,0.025000X0.045000*%
%ADD21R,0.045000X0.025000*%
%ADD22R,0.100000X0.050000*%
%ADD23R,0.050000X0.100000*%
%ADD24R,0.020000X0.050000*%
%ADD25R,0.036000X0.036000*%
%ADD26R,0.080000X0.060000*%
%ADD27R,0.060000X0.080000*%
%ADD28C,0.015000*%
%ADD29C,0.012000*%
%ADD30C,0.001000*%
%ADD31C,0.008000*%
G04 APERTURE END LIST*
G54D10*
X16750Y-32500D02*
X16750Y-21750D01*
X34500Y-32500D02*
X16750Y-32500D01*
X34500Y-21750D02*
X34500Y-32500D01*
X16750Y-21750D02*
X34500Y-21750D01*
X16750Y-21750D02*
X16750Y-32500D01*
X34500Y-32500D02*
X34500Y-21750D01*
X16750Y-32500D02*
X34500Y-32500D01*
X34500Y-21750D02*
X16750Y-21750D01*
X29800Y-22450D02*
X29800Y-22500D01*
G54D18*
X23950Y-31250D02*
X23050Y-31250D01*
X23050Y-31250D02*
X23050Y-30750D01*
X23050Y-30750D02*
X23950Y-30750D01*
X23950Y-30750D02*
X23950Y-31250D01*
X28550Y-29750D02*
X29450Y-29750D01*
X29450Y-29750D02*
X29450Y-30250D01*
X29450Y-30250D02*
X28550Y-30250D01*
X28550Y-30250D02*
X28550Y-29750D01*
X28100Y-30350D02*
X29000Y-30350D01*
X29000Y-30350D02*
X29000Y-30850D01*
X29000Y-30850D02*
X28100Y-30850D01*
X28100Y-30850D02*
X28100Y-30350D01*
X29150Y-27500D02*
X28250Y-27500D01*
X28250Y-27500D02*
X28250Y-27000D01*
X28250Y-27000D02*
X29150Y-27000D01*
X29150Y-27000D02*
X29150Y-27500D01*
X30300Y-28050D02*
X29400Y-28050D01*
X29400Y-28050D02*
X29400Y-27550D01*
X29400Y-27550D02*
X30300Y-27550D01*
X30300Y-27550D02*
X30300Y-28050D01*
X31750Y-22800D02*
X30850Y-22800D01*
X30850Y-22800D02*
X30850Y-22300D01*
X30850Y-22300D02*
X31750Y-22300D01*
X31750Y-22300D02*
X31750Y-22800D01*
X20700Y-23750D02*
X19800Y-23750D01*
X19800Y-23750D02*
X19800Y-23250D01*
X19800Y-23250D02*
X20700Y-23250D01*
X20700Y-23250D02*
X20700Y-23750D01*
X19450Y-23750D02*
X18550Y-23750D01*
X18550Y-23750D02*
X18550Y-23250D01*
X18550Y-23250D02*
X19450Y-23250D01*
X19450Y-23250D02*
X19450Y-23750D01*
X25700Y-23500D02*
X24800Y-23500D01*
X24800Y-23500D02*
X24800Y-23000D01*
X24800Y-23000D02*
X25700Y-23000D01*
X25700Y-23000D02*
X25700Y-23500D01*
X25300Y-24500D02*
X26200Y-24500D01*
X26200Y-24500D02*
X26200Y-25000D01*
X26200Y-25000D02*
X25300Y-25000D01*
X25300Y-25000D02*
X25300Y-24500D01*
X24950Y-23950D02*
X25850Y-23950D01*
X25850Y-23950D02*
X25850Y-24450D01*
X25850Y-24450D02*
X24950Y-24450D01*
X24950Y-24450D02*
X24950Y-23950D01*
X28550Y-29150D02*
X29450Y-29150D01*
X29450Y-29150D02*
X29450Y-29650D01*
X29450Y-29650D02*
X28550Y-29650D01*
X28550Y-29650D02*
X28550Y-29150D01*
X26500Y-23500D02*
X26500Y-24400D01*
X26500Y-24400D02*
X26000Y-24400D01*
X26000Y-24400D02*
X26000Y-23500D01*
X26000Y-23500D02*
X26500Y-23500D01*
X32500Y-27000D02*
X32500Y-26100D01*
X32500Y-26100D02*
X33000Y-26100D01*
X33000Y-26100D02*
X33000Y-27000D01*
X33000Y-27000D02*
X32500Y-27000D01*
X19750Y-26650D02*
X18850Y-26650D01*
X18850Y-26650D02*
X18850Y-26150D01*
X18850Y-26150D02*
X19750Y-26150D01*
X19750Y-26150D02*
X19750Y-26650D01*
X20970Y-23050D02*
X20935Y-23110D01*
X20935Y-23110D02*
X20865Y-23110D01*
X20865Y-23110D02*
X20830Y-23050D01*
X20830Y-23050D02*
X20865Y-22990D01*
X20865Y-22990D02*
X20935Y-22990D01*
X20935Y-22990D02*
X20970Y-23050D01*
X22050Y-23700D02*
X22050Y-23100D01*
X22050Y-23100D02*
X20950Y-23100D01*
X20950Y-23100D02*
X20950Y-23700D01*
X20950Y-24300D02*
X20950Y-24900D01*
X20950Y-24900D02*
X22050Y-24900D01*
X22050Y-24900D02*
X22050Y-24300D01*
X28470Y-24050D02*
X28435Y-24110D01*
X28435Y-24110D02*
X28365Y-24110D01*
X28365Y-24110D02*
X28330Y-24050D01*
X28330Y-24050D02*
X28365Y-23990D01*
X28365Y-23990D02*
X28435Y-23990D01*
X28435Y-23990D02*
X28470Y-24050D01*
X29550Y-24700D02*
X29550Y-24100D01*
X29550Y-24100D02*
X28450Y-24100D01*
X28450Y-24100D02*
X28450Y-24700D01*
X28450Y-25300D02*
X28450Y-25900D01*
X28450Y-25900D02*
X29550Y-25900D01*
X29550Y-25900D02*
X29550Y-25300D01*
X27220Y-24050D02*
X27185Y-24110D01*
X27185Y-24110D02*
X27115Y-24110D01*
X27115Y-24110D02*
X27080Y-24050D01*
X27080Y-24050D02*
X27115Y-23990D01*
X27115Y-23990D02*
X27185Y-23990D01*
X27185Y-23990D02*
X27220Y-24050D01*
X28300Y-24700D02*
X28300Y-24100D01*
X28300Y-24100D02*
X27200Y-24100D01*
X27200Y-24100D02*
X27200Y-24700D01*
X27200Y-25300D02*
X27200Y-25900D01*
X27200Y-25900D02*
X28300Y-25900D01*
X28300Y-25900D02*
X28300Y-25300D01*
X30470Y-25100D02*
X30435Y-25160D01*
X30435Y-25160D02*
X30365Y-25160D01*
X30365Y-25160D02*
X30330Y-25100D01*
X30330Y-25100D02*
X30365Y-25040D01*
X30365Y-25040D02*
X30435Y-25040D01*
X30435Y-25040D02*
X30470Y-25100D01*
X31050Y-23950D02*
X30450Y-23950D01*
X30450Y-23950D02*
X30450Y-25050D01*
X30450Y-25050D02*
X31050Y-25050D01*
X31650Y-25050D02*
X32250Y-25050D01*
X32250Y-25050D02*
X32250Y-23950D01*
X32250Y-23950D02*
X31650Y-23950D01*
X22220Y-23050D02*
X22185Y-23110D01*
X22185Y-23110D02*
X22115Y-23110D01*
X22115Y-23110D02*
X22080Y-23050D01*
X22080Y-23050D02*
X22115Y-22990D01*
X22115Y-22990D02*
X22185Y-22990D01*
X22185Y-22990D02*
X22220Y-23050D01*
X23300Y-23700D02*
X23300Y-23100D01*
X23300Y-23100D02*
X22200Y-23100D01*
X22200Y-23100D02*
X22200Y-23700D01*
X22200Y-24300D02*
X22200Y-24900D01*
X22200Y-24900D02*
X23300Y-24900D01*
X23300Y-24900D02*
X23300Y-24300D01*
X23470Y-23050D02*
X23435Y-23110D01*
X23435Y-23110D02*
X23365Y-23110D01*
X23365Y-23110D02*
X23330Y-23050D01*
X23330Y-23050D02*
X23365Y-22990D01*
X23365Y-22990D02*
X23435Y-22990D01*
X23435Y-22990D02*
X23470Y-23050D01*
X24550Y-23700D02*
X24550Y-23100D01*
X24550Y-23100D02*
X23450Y-23100D01*
X23450Y-23100D02*
X23450Y-23700D01*
X23450Y-24300D02*
X23450Y-24900D01*
X23450Y-24900D02*
X24550Y-24900D01*
X24550Y-24900D02*
X24550Y-24300D01*
G54D29*
X21000Y-29500D02*
X21000Y-27000D01*
X21000Y-27000D02*
X28000Y-27000D01*
X28000Y-27000D02*
X28000Y-30000D01*
X28000Y-30000D02*
X21000Y-30000D01*
X21000Y-30000D02*
X21000Y-29500D01*
X28000Y-28750D02*
X27500Y-28750D01*
X27500Y-28750D02*
X27500Y-28250D01*
X27500Y-28250D02*
X28000Y-28250D01*
G54D18*
X29550Y-29450D02*
X30750Y-29450D01*
X30750Y-29450D02*
X30750Y-29750D01*
X30750Y-29750D02*
X29550Y-29750D01*
X29550Y-29750D02*
X29550Y-29450D01*
X30050Y-31600D02*
X30050Y-30400D01*
X30050Y-30400D02*
X30350Y-30400D01*
X30350Y-30400D02*
X30350Y-31600D01*
X30350Y-31600D02*
X30050Y-31600D01*
X20400Y-25750D02*
X21300Y-25750D01*
X21300Y-25750D02*
X21300Y-26250D01*
X21300Y-26250D02*
X20400Y-26250D01*
X20400Y-26250D02*
X20400Y-25750D01*
X32400Y-29350D02*
X33300Y-29350D01*
X33300Y-29350D02*
X33300Y-28700D01*
X32400Y-28000D02*
X32400Y-27350D01*
X32400Y-27350D02*
X33300Y-27350D01*
X33300Y-27350D02*
X33300Y-28000D01*
X32400Y-28700D02*
X32400Y-29350D01*
X28650Y-29100D02*
X28650Y-27900D01*
X28650Y-27900D02*
X28950Y-27900D01*
X28950Y-27900D02*
X28950Y-29100D01*
X28950Y-29100D02*
X28650Y-29100D01*
X28900Y-23000D02*
X28900Y-23900D01*
X28900Y-23900D02*
X29550Y-23900D01*
X30250Y-23000D02*
X30900Y-23000D01*
X30900Y-23000D02*
X30900Y-23900D01*
X30900Y-23900D02*
X30250Y-23900D01*
X29550Y-23000D02*
X28900Y-23000D01*
X26900Y-23200D02*
X26900Y-24100D01*
X26900Y-24100D02*
X27550Y-24100D01*
X28250Y-23200D02*
X28900Y-23200D01*
X28900Y-23200D02*
X28900Y-24100D01*
X28900Y-24100D02*
X28250Y-24100D01*
X27550Y-23200D02*
X26900Y-23200D01*
X26150Y-22050D02*
X26150Y-22950D01*
X26150Y-22950D02*
X26800Y-22950D01*
X27500Y-22050D02*
X28150Y-22050D01*
X28150Y-22050D02*
X28150Y-22950D01*
X28150Y-22950D02*
X27500Y-22950D01*
X26800Y-22050D02*
X26150Y-22050D01*
X30900Y-22800D02*
X30900Y-23700D01*
X30900Y-23700D02*
X31550Y-23700D01*
X32250Y-22800D02*
X32900Y-22800D01*
X32900Y-22800D02*
X32900Y-23700D01*
X32900Y-23700D02*
X32250Y-23700D01*
X31550Y-22800D02*
X30900Y-22800D01*
X33300Y-24000D02*
X32400Y-24000D01*
X32400Y-24000D02*
X32400Y-24650D01*
X33300Y-25350D02*
X33300Y-26000D01*
X33300Y-26000D02*
X32400Y-26000D01*
X32400Y-26000D02*
X32400Y-25350D01*
X33300Y-24650D02*
X33300Y-24000D01*
X23207Y-31609D02*
X23184Y-31640D01*
X23184Y-31640D02*
X23072Y-31640D01*
X23072Y-31640D02*
X23049Y-31609D01*
X23049Y-31609D02*
X23049Y-31392D01*
X23049Y-31392D02*
X23072Y-31360D01*
X23072Y-31360D02*
X23184Y-31360D01*
X23184Y-31360D02*
X23207Y-31392D01*
X23412Y-31640D02*
X23412Y-31360D01*
X23412Y-31360D02*
X23299Y-31578D01*
X23299Y-31578D02*
X23457Y-31578D01*
X28099Y-30090D02*
X28099Y-29810D01*
X28099Y-29810D02*
X28234Y-29810D01*
X28234Y-29810D02*
X28257Y-29842D01*
X28257Y-29842D02*
X28257Y-29935D01*
X28257Y-29935D02*
X28234Y-29966D01*
X28234Y-29966D02*
X28099Y-29966D01*
X28167Y-29966D02*
X28257Y-30090D01*
X28507Y-30090D02*
X28349Y-30090D01*
X28349Y-30090D02*
X28349Y-29997D01*
X28349Y-29997D02*
X28372Y-29966D01*
X28372Y-29966D02*
X28484Y-29966D01*
X28484Y-29966D02*
X28507Y-29935D01*
X28507Y-29935D02*
X28507Y-29842D01*
X28507Y-29842D02*
X28484Y-29810D01*
X28484Y-29810D02*
X28372Y-29810D01*
X28372Y-29810D02*
X28349Y-29842D01*
X29049Y-30640D02*
X29049Y-30360D01*
X29049Y-30360D02*
X29184Y-30360D01*
X29184Y-30360D02*
X29207Y-30392D01*
X29207Y-30392D02*
X29207Y-30485D01*
X29207Y-30485D02*
X29184Y-30516D01*
X29184Y-30516D02*
X29049Y-30516D01*
X29117Y-30516D02*
X29207Y-30640D01*
X29299Y-30360D02*
X29457Y-30360D01*
X29457Y-30360D02*
X29457Y-30392D01*
X29457Y-30392D02*
X29367Y-30485D01*
X29367Y-30485D02*
X29434Y-30485D01*
X29434Y-30485D02*
X29457Y-30516D01*
X29457Y-30516D02*
X29457Y-30609D01*
X29457Y-30609D02*
X29434Y-30640D01*
X29434Y-30640D02*
X29322Y-30640D01*
X29322Y-30640D02*
X29299Y-30609D01*
X28249Y-26640D02*
X28249Y-26360D01*
X28249Y-26360D02*
X28384Y-26360D01*
X28384Y-26360D02*
X28407Y-26392D01*
X28407Y-26392D02*
X28407Y-26485D01*
X28407Y-26485D02*
X28384Y-26516D01*
X28384Y-26516D02*
X28249Y-26516D01*
X28317Y-26516D02*
X28407Y-26640D01*
X28612Y-26640D02*
X28612Y-26360D01*
X28612Y-26360D02*
X28499Y-26578D01*
X28499Y-26578D02*
X28657Y-26578D01*
X29399Y-27140D02*
X29399Y-26860D01*
X29399Y-26860D02*
X29534Y-26860D01*
X29534Y-26860D02*
X29557Y-26892D01*
X29557Y-26892D02*
X29557Y-26985D01*
X29557Y-26985D02*
X29534Y-27016D01*
X29534Y-27016D02*
X29399Y-27016D01*
X29467Y-27016D02*
X29557Y-27140D01*
X29649Y-27078D02*
X29649Y-27109D01*
X29649Y-27109D02*
X29672Y-27140D01*
X29672Y-27140D02*
X29784Y-27140D01*
X29784Y-27140D02*
X29807Y-27109D01*
X29807Y-27109D02*
X29807Y-27016D01*
X29807Y-27016D02*
X29762Y-26954D01*
X29762Y-26954D02*
X29649Y-26954D01*
X29649Y-26954D02*
X29649Y-26860D01*
X29649Y-26860D02*
X29807Y-26860D01*
X30799Y-22190D02*
X30799Y-21910D01*
X30799Y-21910D02*
X30934Y-21910D01*
X30934Y-21910D02*
X30957Y-21942D01*
X30957Y-21942D02*
X30957Y-22035D01*
X30957Y-22035D02*
X30934Y-22066D01*
X30934Y-22066D02*
X30799Y-22066D01*
X30867Y-22066D02*
X30957Y-22190D01*
X31094Y-22190D02*
X31184Y-22190D01*
X31139Y-22190D02*
X31139Y-21910D01*
X31139Y-21942D02*
X31094Y-22004D01*
X19749Y-24090D02*
X19749Y-23810D01*
X19749Y-23810D02*
X19884Y-23810D01*
X19884Y-23810D02*
X19907Y-23842D01*
X19907Y-23842D02*
X19907Y-23935D01*
X19907Y-23935D02*
X19884Y-23966D01*
X19884Y-23966D02*
X19749Y-23966D01*
X19817Y-23966D02*
X19907Y-24090D01*
X20022Y-24090D02*
X19999Y-24059D01*
X19999Y-24059D02*
X19999Y-23966D01*
X19999Y-23966D02*
X20022Y-23935D01*
X20022Y-23935D02*
X20134Y-23935D01*
X20134Y-23935D02*
X20157Y-23904D01*
X20157Y-23904D02*
X20157Y-23842D01*
X20157Y-23842D02*
X20134Y-23810D01*
X20134Y-23810D02*
X20022Y-23810D01*
X20022Y-23810D02*
X19999Y-23842D01*
X19999Y-23842D02*
X19999Y-23904D01*
X19999Y-23904D02*
X20022Y-23935D01*
X20134Y-23935D02*
X20157Y-23966D01*
X20157Y-23966D02*
X20157Y-24059D01*
X20157Y-24059D02*
X20134Y-24090D01*
X20134Y-24090D02*
X20022Y-24090D01*
X18549Y-24090D02*
X18549Y-23810D01*
X18549Y-23810D02*
X18684Y-23810D01*
X18684Y-23810D02*
X18707Y-23842D01*
X18707Y-23842D02*
X18707Y-23935D01*
X18707Y-23935D02*
X18684Y-23966D01*
X18684Y-23966D02*
X18549Y-23966D01*
X18617Y-23966D02*
X18707Y-24090D01*
X18799Y-23810D02*
X18957Y-23810D01*
X18957Y-23810D02*
X18799Y-24090D01*
X24749Y-22640D02*
X24749Y-22360D01*
X24749Y-22360D02*
X24884Y-22360D01*
X24884Y-22360D02*
X24907Y-22392D01*
X24907Y-22392D02*
X24907Y-22485D01*
X24907Y-22485D02*
X24884Y-22516D01*
X24884Y-22516D02*
X24749Y-22516D01*
X24817Y-22516D02*
X24907Y-22640D01*
X25157Y-22392D02*
X25134Y-22360D01*
X25134Y-22360D02*
X25022Y-22360D01*
X25022Y-22360D02*
X24999Y-22392D01*
X24999Y-22392D02*
X24999Y-22609D01*
X24999Y-22609D02*
X25022Y-22640D01*
X25022Y-22640D02*
X25134Y-22640D01*
X25134Y-22640D02*
X25157Y-22609D01*
X25157Y-22609D02*
X25157Y-22516D01*
X25157Y-22516D02*
X25134Y-22485D01*
X25134Y-22485D02*
X25022Y-22485D01*
X25022Y-22485D02*
X24999Y-22516D01*
X26407Y-24709D02*
X26384Y-24740D01*
X26384Y-24740D02*
X26272Y-24740D01*
X26272Y-24740D02*
X26249Y-24709D01*
X26249Y-24709D02*
X26249Y-24492D01*
X26249Y-24492D02*
X26272Y-24460D01*
X26272Y-24460D02*
X26384Y-24460D01*
X26384Y-24460D02*
X26407Y-24492D01*
X26499Y-24460D02*
X26657Y-24460D01*
X26657Y-24460D02*
X26657Y-24492D01*
X26657Y-24492D02*
X26567Y-24585D01*
X26567Y-24585D02*
X26634Y-24585D01*
X26634Y-24585D02*
X26657Y-24616D01*
X26657Y-24616D02*
X26657Y-24709D01*
X26657Y-24709D02*
X26634Y-24740D01*
X26634Y-24740D02*
X26522Y-24740D01*
X26522Y-24740D02*
X26499Y-24709D01*
X24957Y-24809D02*
X24934Y-24840D01*
X24934Y-24840D02*
X24822Y-24840D01*
X24822Y-24840D02*
X24799Y-24809D01*
X24799Y-24809D02*
X24799Y-24592D01*
X24799Y-24592D02*
X24822Y-24560D01*
X24822Y-24560D02*
X24934Y-24560D01*
X24934Y-24560D02*
X24957Y-24592D01*
X25207Y-24840D02*
X25049Y-24840D01*
X25049Y-24840D02*
X25049Y-24747D01*
X25049Y-24747D02*
X25072Y-24716D01*
X25072Y-24716D02*
X25184Y-24716D01*
X25184Y-24716D02*
X25207Y-24685D01*
X25207Y-24685D02*
X25207Y-24592D01*
X25207Y-24592D02*
X25184Y-24560D01*
X25184Y-24560D02*
X25072Y-24560D01*
X25072Y-24560D02*
X25049Y-24592D01*
X28957Y-29509D02*
X28934Y-29540D01*
X28934Y-29540D02*
X28822Y-29540D01*
X28822Y-29540D02*
X28799Y-29509D01*
X28799Y-29509D02*
X28799Y-29292D01*
X28799Y-29292D02*
X28822Y-29260D01*
X28822Y-29260D02*
X28934Y-29260D01*
X28934Y-29260D02*
X28957Y-29292D01*
X29207Y-29292D02*
X29184Y-29260D01*
X29184Y-29260D02*
X29072Y-29260D01*
X29072Y-29260D02*
X29049Y-29292D01*
X29049Y-29292D02*
X29049Y-29509D01*
X29049Y-29509D02*
X29072Y-29540D01*
X29072Y-29540D02*
X29184Y-29540D01*
X29184Y-29540D02*
X29207Y-29509D01*
X29207Y-29509D02*
X29207Y-29416D01*
X29207Y-29416D02*
X29184Y-29385D01*
X29184Y-29385D02*
X29072Y-29385D01*
X29072Y-29385D02*
X29049Y-29416D01*
X26809Y-24243D02*
X26840Y-24266D01*
X26840Y-24266D02*
X26840Y-24378D01*
X26840Y-24378D02*
X26809Y-24401D01*
X26809Y-24401D02*
X26592Y-24401D01*
X26592Y-24401D02*
X26560Y-24378D01*
X26560Y-24378D02*
X26560Y-24266D01*
X26560Y-24266D02*
X26592Y-24243D01*
X26778Y-24151D02*
X26809Y-24151D01*
X26809Y-24151D02*
X26840Y-24128D01*
X26840Y-24128D02*
X26840Y-24016D01*
X26840Y-24016D02*
X26809Y-23993D01*
X26809Y-23993D02*
X26716Y-23993D01*
X26716Y-23993D02*
X26654Y-24038D01*
X26654Y-24038D02*
X26654Y-24151D01*
X26654Y-24151D02*
X26560Y-24151D01*
X26560Y-24151D02*
X26560Y-23993D01*
X33309Y-26893D02*
X33340Y-26916D01*
X33340Y-26916D02*
X33340Y-27028D01*
X33340Y-27028D02*
X33309Y-27051D01*
X33309Y-27051D02*
X33092Y-27051D01*
X33092Y-27051D02*
X33060Y-27028D01*
X33060Y-27028D02*
X33060Y-26916D01*
X33060Y-26916D02*
X33092Y-26893D01*
X33060Y-26801D02*
X33060Y-26643D01*
X33060Y-26643D02*
X33340Y-26801D01*
X19057Y-25659D02*
X19034Y-25690D01*
X19034Y-25690D02*
X18922Y-25690D01*
X18922Y-25690D02*
X18899Y-25659D01*
X18899Y-25659D02*
X18899Y-25442D01*
X18899Y-25442D02*
X18922Y-25410D01*
X18922Y-25410D02*
X19034Y-25410D01*
X19034Y-25410D02*
X19057Y-25442D01*
X19194Y-25690D02*
X19284Y-25690D01*
X19239Y-25690D02*
X19239Y-25410D01*
X19239Y-25442D02*
X19194Y-25504D01*
X21300Y-23016D02*
X21000Y-23016D01*
X21000Y-23054D02*
X21000Y-22829D01*
X21000Y-22829D02*
X21034Y-22791D01*
X21034Y-22791D02*
X21267Y-22791D01*
X21267Y-22791D02*
X21300Y-22829D01*
X21300Y-22829D02*
X21300Y-23054D01*
X21000Y-22671D02*
X21000Y-22408D01*
X21000Y-22408D02*
X21300Y-22671D01*
X21350Y-23045D02*
X21650Y-23045D01*
X21650Y-23045D02*
X21650Y-22745D01*
X21650Y-22399D02*
X21650Y-22662D01*
X21650Y-22662D02*
X21350Y-22662D01*
X21350Y-22662D02*
X21350Y-22399D01*
X21484Y-22662D02*
X21484Y-22512D01*
X21650Y-22241D02*
X21350Y-22241D01*
X21350Y-22279D02*
X21350Y-22054D01*
X21350Y-22054D02*
X21384Y-22016D01*
X21384Y-22016D02*
X21617Y-22016D01*
X21617Y-22016D02*
X21650Y-22054D01*
X21650Y-22054D02*
X21650Y-22279D01*
X28809Y-26267D02*
X28771Y-26300D01*
X28771Y-26300D02*
X28584Y-26300D01*
X28584Y-26300D02*
X28546Y-26267D01*
X28546Y-26267D02*
X28546Y-26034D01*
X28546Y-26034D02*
X28584Y-26000D01*
X28584Y-26000D02*
X28771Y-26000D01*
X28771Y-26000D02*
X28809Y-26034D01*
X28967Y-26300D02*
X29154Y-26300D01*
X29154Y-26300D02*
X29192Y-26267D01*
X29192Y-26267D02*
X29192Y-26034D01*
X29192Y-26034D02*
X29154Y-26000D01*
X29154Y-26000D02*
X28967Y-26000D01*
X28967Y-26000D02*
X28929Y-26034D01*
X28929Y-26034D02*
X28929Y-26134D01*
X28929Y-26134D02*
X28967Y-26167D01*
X28967Y-26167D02*
X29154Y-26167D01*
X29154Y-26167D02*
X29192Y-26134D01*
X29221Y-26300D02*
X29371Y-26300D01*
X29296Y-26300D02*
X29296Y-26000D01*
X29296Y-26034D02*
X29221Y-26100D01*
X29529Y-26100D02*
X29529Y-26234D01*
X29529Y-26234D02*
X29604Y-26300D01*
X29604Y-26300D02*
X29717Y-26300D01*
X29717Y-26300D02*
X29792Y-26234D01*
X29792Y-26234D02*
X29792Y-26100D01*
X27459Y-26267D02*
X27421Y-26300D01*
X27421Y-26300D02*
X27234Y-26300D01*
X27234Y-26300D02*
X27196Y-26267D01*
X27196Y-26267D02*
X27196Y-26034D01*
X27196Y-26034D02*
X27234Y-26000D01*
X27234Y-26000D02*
X27421Y-26000D01*
X27421Y-26000D02*
X27459Y-26034D01*
X27617Y-26300D02*
X27579Y-26267D01*
X27579Y-26267D02*
X27579Y-26167D01*
X27579Y-26167D02*
X27617Y-26134D01*
X27617Y-26134D02*
X27804Y-26134D01*
X27804Y-26134D02*
X27842Y-26100D01*
X27842Y-26100D02*
X27842Y-26034D01*
X27842Y-26034D02*
X27804Y-26000D01*
X27804Y-26000D02*
X27617Y-26000D01*
X27617Y-26000D02*
X27579Y-26034D01*
X27579Y-26034D02*
X27579Y-26100D01*
X27579Y-26100D02*
X27617Y-26134D01*
X27804Y-26134D02*
X27842Y-26167D01*
X27842Y-26167D02*
X27842Y-26267D01*
X27842Y-26267D02*
X27804Y-26300D01*
X27804Y-26300D02*
X27617Y-26300D01*
X27871Y-26300D02*
X28021Y-26300D01*
X27946Y-26300D02*
X27946Y-26000D01*
X27946Y-26034D02*
X27871Y-26100D01*
X28179Y-26100D02*
X28179Y-26234D01*
X28179Y-26234D02*
X28254Y-26300D01*
X28254Y-26300D02*
X28367Y-26300D01*
X28367Y-26300D02*
X28442Y-26234D01*
X28442Y-26234D02*
X28442Y-26100D01*
X30618Y-25367D02*
X30580Y-25400D01*
X30580Y-25400D02*
X30393Y-25400D01*
X30393Y-25400D02*
X30355Y-25367D01*
X30355Y-25367D02*
X30355Y-25134D01*
X30355Y-25134D02*
X30393Y-25100D01*
X30393Y-25100D02*
X30580Y-25100D01*
X30580Y-25100D02*
X30618Y-25134D01*
X30813Y-25400D02*
X30963Y-25400D01*
X30888Y-25400D02*
X30888Y-25100D01*
X30888Y-25134D02*
X30813Y-25200D01*
X31121Y-25400D02*
X31384Y-25100D01*
X31121Y-25367D02*
X31121Y-25134D01*
X31121Y-25134D02*
X31159Y-25100D01*
X31159Y-25100D02*
X31346Y-25100D01*
X31346Y-25100D02*
X31384Y-25134D01*
X31384Y-25134D02*
X31384Y-25367D01*
X31384Y-25367D02*
X31346Y-25400D01*
X31346Y-25400D02*
X31159Y-25400D01*
X31159Y-25400D02*
X31121Y-25367D01*
X30330Y-25750D02*
X30480Y-25750D01*
X30405Y-25750D02*
X30405Y-25450D01*
X30405Y-25484D02*
X30330Y-25550D01*
X30638Y-25750D02*
X30901Y-25450D01*
X30638Y-25717D02*
X30638Y-25484D01*
X30638Y-25484D02*
X30676Y-25450D01*
X30676Y-25450D02*
X30863Y-25450D01*
X30863Y-25450D02*
X30901Y-25484D01*
X30901Y-25484D02*
X30901Y-25717D01*
X30901Y-25717D02*
X30863Y-25750D01*
X30863Y-25750D02*
X30676Y-25750D01*
X30676Y-25750D02*
X30638Y-25717D01*
X31021Y-25550D02*
X31021Y-25684D01*
X31021Y-25684D02*
X31096Y-25750D01*
X31096Y-25750D02*
X31209Y-25750D01*
X31209Y-25750D02*
X31284Y-25684D01*
X31284Y-25684D02*
X31284Y-25550D01*
X22550Y-23016D02*
X22250Y-23016D01*
X22250Y-23054D02*
X22250Y-22829D01*
X22250Y-22829D02*
X22284Y-22791D01*
X22284Y-22791D02*
X22517Y-22791D01*
X22517Y-22791D02*
X22550Y-22829D01*
X22550Y-22829D02*
X22550Y-23054D01*
X22284Y-22408D02*
X22250Y-22446D01*
X22250Y-22446D02*
X22250Y-22633D01*
X22250Y-22633D02*
X22284Y-22671D01*
X22284Y-22671D02*
X22517Y-22671D01*
X22517Y-22671D02*
X22550Y-22633D01*
X22550Y-22633D02*
X22550Y-22446D01*
X22550Y-22446D02*
X22517Y-22408D01*
X22517Y-22408D02*
X22417Y-22408D01*
X22417Y-22408D02*
X22384Y-22446D01*
X22384Y-22446D02*
X22384Y-22633D01*
X22384Y-22633D02*
X22417Y-22671D01*
X22600Y-23045D02*
X22900Y-23045D01*
X22900Y-23045D02*
X22900Y-22745D01*
X22900Y-22399D02*
X22900Y-22662D01*
X22900Y-22662D02*
X22600Y-22662D01*
X22600Y-22662D02*
X22600Y-22399D01*
X22734Y-22662D02*
X22734Y-22512D01*
X22900Y-22241D02*
X22600Y-22241D01*
X22600Y-22279D02*
X22600Y-22054D01*
X22600Y-22054D02*
X22634Y-22016D01*
X22634Y-22016D02*
X22867Y-22016D01*
X22867Y-22016D02*
X22900Y-22054D01*
X22900Y-22054D02*
X22900Y-22279D01*
X23800Y-23016D02*
X23500Y-23016D01*
X23500Y-23054D02*
X23500Y-22829D01*
X23500Y-22829D02*
X23534Y-22791D01*
X23534Y-22791D02*
X23767Y-22791D01*
X23767Y-22791D02*
X23800Y-22829D01*
X23800Y-22829D02*
X23800Y-23054D01*
X23734Y-22671D02*
X23767Y-22671D01*
X23767Y-22671D02*
X23800Y-22633D01*
X23800Y-22633D02*
X23800Y-22446D01*
X23800Y-22446D02*
X23767Y-22408D01*
X23767Y-22408D02*
X23667Y-22408D01*
X23667Y-22408D02*
X23600Y-22483D01*
X23600Y-22483D02*
X23600Y-22671D01*
X23600Y-22671D02*
X23500Y-22671D01*
X23500Y-22671D02*
X23500Y-22408D01*
X23900Y-23045D02*
X24200Y-23045D01*
X24200Y-23045D02*
X24200Y-22745D01*
X24200Y-22399D02*
X24200Y-22662D01*
X24200Y-22662D02*
X23900Y-22662D01*
X23900Y-22662D02*
X23900Y-22399D01*
X24034Y-22662D02*
X24034Y-22512D01*
X24200Y-22241D02*
X23900Y-22241D01*
X23900Y-22279D02*
X23900Y-22054D01*
X23900Y-22054D02*
X23934Y-22016D01*
X23934Y-22016D02*
X24167Y-22016D01*
X24167Y-22016D02*
X24200Y-22054D01*
X24200Y-22054D02*
X24200Y-22279D01*
G54D19*
X21979Y-25600D02*
X21979Y-26134D01*
X21979Y-26134D02*
X22054Y-26200D01*
X22054Y-26200D02*
X22429Y-26200D01*
X22429Y-26200D02*
X22504Y-26134D01*
X22504Y-26134D02*
X22504Y-25600D01*
X22855Y-26200D02*
X23155Y-26200D01*
X23005Y-26200D02*
X23005Y-25600D01*
X23005Y-25667D02*
X22855Y-25800D01*
X21025Y-28300D02*
X21025Y-27700D01*
X21025Y-27700D02*
X21475Y-27700D01*
X21475Y-27700D02*
X21550Y-27767D01*
X21550Y-27767D02*
X21550Y-27967D01*
X21550Y-27967D02*
X21475Y-28034D01*
X21475Y-28034D02*
X21025Y-28034D01*
X21826Y-28300D02*
X22126Y-28300D01*
X21976Y-28300D02*
X21976Y-27700D01*
X21826Y-27700D02*
X22126Y-27700D01*
X23002Y-28234D02*
X22927Y-28300D01*
X22927Y-28300D02*
X22552Y-28300D01*
X22552Y-28300D02*
X22477Y-28234D01*
X22477Y-28234D02*
X22477Y-27767D01*
X22477Y-27767D02*
X22552Y-27700D01*
X22552Y-27700D02*
X22927Y-27700D01*
X22927Y-27700D02*
X23002Y-27767D01*
X23353Y-28300D02*
X23653Y-28300D01*
X23503Y-28300D02*
X23503Y-27700D01*
X23503Y-27767D02*
X23353Y-27900D01*
X24004Y-28300D02*
X23929Y-28234D01*
X23929Y-28234D02*
X23929Y-28034D01*
X23929Y-28034D02*
X24004Y-27967D01*
X24004Y-27967D02*
X24379Y-27967D01*
X24379Y-27967D02*
X24454Y-27900D01*
X24454Y-27900D02*
X24454Y-27767D01*
X24454Y-27767D02*
X24379Y-27700D01*
X24379Y-27700D02*
X24004Y-27700D01*
X24004Y-27700D02*
X23929Y-27767D01*
X23929Y-27767D02*
X23929Y-27900D01*
X23929Y-27900D02*
X24004Y-27967D01*
X24379Y-27967D02*
X24454Y-28034D01*
X24454Y-28034D02*
X24454Y-28234D01*
X24454Y-28234D02*
X24379Y-28300D01*
X24379Y-28300D02*
X24004Y-28300D01*
X24655Y-28300D02*
X24655Y-27700D01*
X24655Y-27700D02*
X25180Y-27700D01*
X24655Y-27967D02*
X24955Y-27967D01*
X25906Y-28300D02*
X25381Y-28300D01*
X25381Y-28300D02*
X25381Y-28100D01*
X25381Y-28100D02*
X25456Y-28034D01*
X25456Y-28034D02*
X25831Y-28034D01*
X25831Y-28034D02*
X25906Y-27967D01*
X25906Y-27967D02*
X25906Y-27767D01*
X25906Y-27767D02*
X25831Y-27700D01*
X25831Y-27700D02*
X25456Y-27700D01*
X25456Y-27700D02*
X25381Y-27767D01*
X26107Y-28167D02*
X26107Y-28234D01*
X26107Y-28234D02*
X26182Y-28300D01*
X26182Y-28300D02*
X26557Y-28300D01*
X26557Y-28300D02*
X26632Y-28234D01*
X26632Y-28234D02*
X26632Y-28034D01*
X26632Y-28034D02*
X26482Y-27900D01*
X26482Y-27900D02*
X26107Y-27900D01*
X26107Y-27900D02*
X26107Y-27700D01*
X26107Y-27700D02*
X26632Y-27700D01*
X26833Y-28167D02*
X26833Y-28234D01*
X26833Y-28234D02*
X26908Y-28300D01*
X26908Y-28300D02*
X27283Y-28300D01*
X27283Y-28300D02*
X27358Y-28234D01*
X27358Y-28234D02*
X27358Y-28034D01*
X27358Y-28034D02*
X27208Y-27900D01*
X27208Y-27900D02*
X26833Y-27900D01*
X26833Y-27900D02*
X26833Y-27700D01*
X26833Y-27700D02*
X27358Y-27700D01*
X27559Y-28300D02*
X28084Y-27700D01*
X27559Y-28234D02*
X27559Y-27767D01*
X27559Y-27767D02*
X27634Y-27700D01*
X27634Y-27700D02*
X28009Y-27700D01*
X28009Y-27700D02*
X28084Y-27767D01*
X28084Y-27767D02*
X28084Y-28234D01*
X28084Y-28234D02*
X28009Y-28300D01*
X28009Y-28300D02*
X27634Y-28300D01*
X27634Y-28300D02*
X27559Y-28234D01*
G54D31*
X30767Y-30481D02*
X30534Y-30481D01*
X30534Y-30481D02*
X30500Y-30443D01*
X30500Y-30443D02*
X30500Y-30256D01*
X30500Y-30256D02*
X30534Y-30218D01*
X30534Y-30218D02*
X30767Y-30218D01*
X30767Y-30218D02*
X30800Y-30256D01*
X30800Y-30256D02*
X30800Y-30443D01*
X30800Y-30443D02*
X30767Y-30481D01*
X30667Y-30293D02*
X30800Y-30218D01*
X30800Y-29993D02*
X30800Y-29843D01*
X30800Y-29918D02*
X30500Y-29918D01*
X30534Y-29918D02*
X30600Y-29993D01*
X31200Y-30750D02*
X30900Y-30750D01*
X30900Y-30750D02*
X30900Y-30525D01*
X30900Y-30525D02*
X30934Y-30487D01*
X30934Y-30487D02*
X31000Y-30487D01*
X31000Y-30487D02*
X31034Y-30525D01*
X31034Y-30525D02*
X31034Y-30750D01*
X31034Y-30525D02*
X31100Y-30487D01*
X31100Y-30487D02*
X31167Y-30487D01*
X31167Y-30487D02*
X31200Y-30525D01*
X31200Y-30525D02*
X31200Y-30750D01*
X31167Y-30337D02*
X31200Y-30299D01*
X31200Y-30299D02*
X31200Y-30112D01*
X31200Y-30112D02*
X31167Y-30074D01*
X31167Y-30074D02*
X31067Y-30074D01*
X31067Y-30074D02*
X31034Y-30112D01*
X31034Y-30112D02*
X31034Y-30299D01*
X31034Y-30299D02*
X31000Y-30337D01*
X31000Y-30337D02*
X30934Y-30337D01*
X30934Y-30337D02*
X30900Y-30299D01*
X30900Y-30299D02*
X30900Y-30112D01*
X30900Y-30112D02*
X30934Y-30074D01*
X31200Y-29849D02*
X31200Y-29699D01*
X31200Y-29774D02*
X30900Y-29774D01*
X30934Y-29774D02*
X31000Y-29849D01*
X30900Y-29511D02*
X30900Y-29248D01*
X30900Y-29248D02*
X31200Y-29511D01*
X31200Y-29098D02*
X30900Y-28835D01*
X31167Y-29098D02*
X30934Y-29098D01*
X30934Y-29098D02*
X30900Y-29060D01*
X30900Y-29060D02*
X30900Y-28873D01*
X30900Y-28873D02*
X30934Y-28835D01*
X30934Y-28835D02*
X31167Y-28835D01*
X31167Y-28835D02*
X31200Y-28873D01*
X31200Y-28873D02*
X31200Y-29060D01*
X31200Y-29060D02*
X31167Y-29098D01*
X29569Y-31867D02*
X29569Y-31634D01*
X29569Y-31634D02*
X29607Y-31600D01*
X29607Y-31600D02*
X29794Y-31600D01*
X29794Y-31600D02*
X29832Y-31634D01*
X29832Y-31634D02*
X29832Y-31867D01*
X29832Y-31867D02*
X29794Y-31900D01*
X29794Y-31900D02*
X29607Y-31900D01*
X29607Y-31900D02*
X29569Y-31867D01*
X29757Y-31767D02*
X29832Y-31900D01*
X30245Y-31900D02*
X29982Y-31900D01*
X29982Y-31900D02*
X29982Y-31800D01*
X29982Y-31800D02*
X30020Y-31767D01*
X30020Y-31767D02*
X30207Y-31767D01*
X30207Y-31767D02*
X30245Y-31734D01*
X30245Y-31734D02*
X30245Y-31634D01*
X30245Y-31634D02*
X30207Y-31600D01*
X30207Y-31600D02*
X30020Y-31600D01*
X30020Y-31600D02*
X29982Y-31634D01*
X29350Y-32300D02*
X29350Y-32000D01*
X29350Y-32000D02*
X29575Y-32000D01*
X29575Y-32000D02*
X29613Y-32034D01*
X29613Y-32034D02*
X29613Y-32100D01*
X29613Y-32100D02*
X29575Y-32134D01*
X29575Y-32134D02*
X29350Y-32134D01*
X29575Y-32134D02*
X29613Y-32200D01*
X29613Y-32200D02*
X29613Y-32267D01*
X29613Y-32267D02*
X29575Y-32300D01*
X29575Y-32300D02*
X29350Y-32300D01*
X29763Y-32267D02*
X29801Y-32300D01*
X29801Y-32300D02*
X29988Y-32300D01*
X29988Y-32300D02*
X30026Y-32267D01*
X30026Y-32267D02*
X30026Y-32167D01*
X30026Y-32167D02*
X29988Y-32134D01*
X29988Y-32134D02*
X29801Y-32134D01*
X29801Y-32134D02*
X29763Y-32100D01*
X29763Y-32100D02*
X29763Y-32034D01*
X29763Y-32034D02*
X29801Y-32000D01*
X29801Y-32000D02*
X29988Y-32000D01*
X29988Y-32000D02*
X30026Y-32034D01*
X30251Y-32300D02*
X30401Y-32300D01*
X30326Y-32300D02*
X30326Y-32000D01*
X30326Y-32034D02*
X30251Y-32100D01*
X30589Y-32000D02*
X30852Y-32000D01*
X30852Y-32000D02*
X30589Y-32300D01*
X31002Y-32300D02*
X31265Y-32000D01*
X31002Y-32267D02*
X31002Y-32034D01*
X31002Y-32034D02*
X31040Y-32000D01*
X31040Y-32000D02*
X31227Y-32000D01*
X31227Y-32000D02*
X31265Y-32034D01*
X31265Y-32034D02*
X31265Y-32267D01*
X31265Y-32267D02*
X31227Y-32300D01*
X31227Y-32300D02*
X31040Y-32300D01*
X31040Y-32300D02*
X31002Y-32267D01*
G54D18*
X20482Y-25359D02*
X20459Y-25390D01*
X20459Y-25390D02*
X20347Y-25390D01*
X20347Y-25390D02*
X20324Y-25359D01*
X20324Y-25359D02*
X20324Y-25142D01*
X20324Y-25142D02*
X20347Y-25110D01*
X20347Y-25110D02*
X20459Y-25110D01*
X20459Y-25110D02*
X20482Y-25142D01*
X20619Y-25390D02*
X20709Y-25390D01*
X20664Y-25390D02*
X20664Y-25110D01*
X20664Y-25142D02*
X20619Y-25204D01*
X20869Y-25390D02*
X20959Y-25390D01*
X20914Y-25390D02*
X20914Y-25110D01*
X20914Y-25142D02*
X20869Y-25204D01*
X33700Y-29266D02*
X33400Y-29266D01*
X33400Y-29304D02*
X33400Y-29079D01*
X33400Y-29079D02*
X33434Y-29041D01*
X33434Y-29041D02*
X33667Y-29041D01*
X33667Y-29041D02*
X33700Y-29079D01*
X33700Y-29079D02*
X33700Y-29304D01*
X33700Y-28883D02*
X33700Y-28696D01*
X33700Y-28696D02*
X33667Y-28658D01*
X33667Y-28658D02*
X33434Y-28658D01*
X33434Y-28658D02*
X33400Y-28696D01*
X33400Y-28696D02*
X33400Y-28883D01*
X33400Y-28883D02*
X33434Y-28921D01*
X33434Y-28921D02*
X33534Y-28921D01*
X33534Y-28921D02*
X33567Y-28883D01*
X33567Y-28883D02*
X33567Y-28696D01*
X33567Y-28696D02*
X33534Y-28658D01*
G54D31*
X29419Y-28467D02*
X29419Y-28234D01*
X29419Y-28234D02*
X29457Y-28200D01*
X29457Y-28200D02*
X29644Y-28200D01*
X29644Y-28200D02*
X29682Y-28234D01*
X29682Y-28234D02*
X29682Y-28467D01*
X29682Y-28467D02*
X29644Y-28500D01*
X29644Y-28500D02*
X29457Y-28500D01*
X29457Y-28500D02*
X29419Y-28467D01*
X29607Y-28367D02*
X29682Y-28500D01*
X29832Y-28200D02*
X30095Y-28200D01*
X30095Y-28200D02*
X30095Y-28234D01*
X30095Y-28234D02*
X29945Y-28334D01*
X29945Y-28334D02*
X30057Y-28334D01*
X30057Y-28334D02*
X30095Y-28367D01*
X30095Y-28367D02*
X30095Y-28467D01*
X30095Y-28467D02*
X30057Y-28500D01*
X30057Y-28500D02*
X29870Y-28500D01*
X29870Y-28500D02*
X29832Y-28467D01*
X29087Y-28650D02*
X29387Y-28650D01*
X29237Y-28650D02*
X29237Y-28950D01*
X29500Y-28917D02*
X29538Y-28950D01*
X29538Y-28950D02*
X29725Y-28950D01*
X29725Y-28950D02*
X29763Y-28917D01*
X29763Y-28917D02*
X29763Y-28817D01*
X29763Y-28817D02*
X29725Y-28784D01*
X29725Y-28784D02*
X29538Y-28784D01*
X29538Y-28784D02*
X29500Y-28750D01*
X29500Y-28750D02*
X29500Y-28684D01*
X29500Y-28684D02*
X29538Y-28650D01*
X29538Y-28650D02*
X29725Y-28650D01*
X29725Y-28650D02*
X29763Y-28684D01*
X29913Y-28950D02*
X29913Y-28650D01*
X29913Y-28650D02*
X30063Y-28784D01*
X30063Y-28784D02*
X30213Y-28650D01*
X30213Y-28650D02*
X30213Y-28950D01*
X30589Y-28950D02*
X30326Y-28950D01*
X30326Y-28950D02*
X30326Y-28850D01*
X30326Y-28850D02*
X30364Y-28817D01*
X30364Y-28817D02*
X30551Y-28817D01*
X30551Y-28817D02*
X30589Y-28784D01*
X30589Y-28784D02*
X30589Y-28684D01*
X30589Y-28684D02*
X30551Y-28650D01*
X30551Y-28650D02*
X30364Y-28650D01*
X30364Y-28650D02*
X30326Y-28684D01*
X30739Y-28650D02*
X31002Y-28650D01*
X31002Y-28650D02*
X31002Y-28684D01*
X31002Y-28684D02*
X30852Y-28784D01*
X30852Y-28784D02*
X30964Y-28784D01*
X30964Y-28784D02*
X31002Y-28817D01*
X31002Y-28817D02*
X31002Y-28917D01*
X31002Y-28917D02*
X30964Y-28950D01*
X30964Y-28950D02*
X30777Y-28950D01*
X30777Y-28950D02*
X30739Y-28917D01*
X31152Y-28950D02*
X31415Y-28650D01*
X31152Y-28917D02*
X31152Y-28684D01*
X31152Y-28684D02*
X31190Y-28650D01*
X31190Y-28650D02*
X31377Y-28650D01*
X31377Y-28650D02*
X31415Y-28684D01*
X31415Y-28684D02*
X31415Y-28917D01*
X31415Y-28917D02*
X31377Y-28950D01*
X31377Y-28950D02*
X31190Y-28950D01*
X31190Y-28950D02*
X31152Y-28917D01*
X31640Y-28950D02*
X31790Y-28950D01*
X31715Y-28950D02*
X31715Y-28650D01*
X31715Y-28684D02*
X31640Y-28750D01*
G54D18*
X28934Y-22950D02*
X28934Y-22650D01*
X28896Y-22650D02*
X29121Y-22650D01*
X29121Y-22650D02*
X29159Y-22684D01*
X29159Y-22684D02*
X29159Y-22917D01*
X29159Y-22917D02*
X29121Y-22950D01*
X29121Y-22950D02*
X28896Y-22950D01*
X29279Y-22650D02*
X29542Y-22650D01*
X29542Y-22650D02*
X29542Y-22684D01*
X29542Y-22684D02*
X29392Y-22784D01*
X29392Y-22784D02*
X29504Y-22784D01*
X29504Y-22784D02*
X29542Y-22817D01*
X29542Y-22817D02*
X29542Y-22917D01*
X29542Y-22917D02*
X29504Y-22950D01*
X29504Y-22950D02*
X29317Y-22950D01*
X29317Y-22950D02*
X29279Y-22917D01*
X28284Y-22650D02*
X28284Y-22350D01*
X28246Y-22350D02*
X28471Y-22350D01*
X28471Y-22350D02*
X28509Y-22384D01*
X28509Y-22384D02*
X28509Y-22617D01*
X28509Y-22617D02*
X28471Y-22650D01*
X28471Y-22650D02*
X28246Y-22650D01*
X28892Y-22650D02*
X28629Y-22650D01*
X28629Y-22650D02*
X28629Y-22550D01*
X28629Y-22550D02*
X28667Y-22517D01*
X28667Y-22517D02*
X28854Y-22517D01*
X28854Y-22517D02*
X28892Y-22484D01*
X28892Y-22484D02*
X28892Y-22384D01*
X28892Y-22384D02*
X28854Y-22350D01*
X28854Y-22350D02*
X28667Y-22350D01*
X28667Y-22350D02*
X28629Y-22384D01*
X25584Y-22150D02*
X25584Y-21850D01*
X25546Y-21850D02*
X25771Y-21850D01*
X25771Y-21850D02*
X25809Y-21884D01*
X25809Y-21884D02*
X25809Y-22117D01*
X25809Y-22117D02*
X25771Y-22150D01*
X25771Y-22150D02*
X25546Y-22150D01*
X26004Y-22150D02*
X26154Y-22150D01*
X26079Y-22150D02*
X26079Y-21850D01*
X26079Y-21884D02*
X26004Y-21950D01*
X32984Y-23050D02*
X32984Y-22750D01*
X32946Y-22750D02*
X33171Y-22750D01*
X33171Y-22750D02*
X33209Y-22784D01*
X33209Y-22784D02*
X33209Y-23017D01*
X33209Y-23017D02*
X33171Y-23050D01*
X33171Y-23050D02*
X32946Y-23050D01*
X33517Y-23050D02*
X33517Y-22750D01*
X33517Y-22750D02*
X33329Y-22984D01*
X33329Y-22984D02*
X33592Y-22984D01*
X33650Y-25966D02*
X33350Y-25966D01*
X33350Y-26004D02*
X33350Y-25779D01*
X33350Y-25779D02*
X33384Y-25741D01*
X33384Y-25741D02*
X33617Y-25741D01*
X33617Y-25741D02*
X33650Y-25779D01*
X33650Y-25779D02*
X33650Y-26004D01*
X33650Y-25583D02*
X33617Y-25621D01*
X33617Y-25621D02*
X33517Y-25621D01*
X33517Y-25621D02*
X33484Y-25583D01*
X33484Y-25583D02*
X33484Y-25396D01*
X33484Y-25396D02*
X33450Y-25358D01*
X33450Y-25358D02*
X33384Y-25358D01*
X33384Y-25358D02*
X33350Y-25396D01*
X33350Y-25396D02*
X33350Y-25583D01*
X33350Y-25583D02*
X33384Y-25621D01*
X33384Y-25621D02*
X33450Y-25621D01*
X33450Y-25621D02*
X33484Y-25583D01*
X33484Y-25396D02*
X33517Y-25358D01*
X33517Y-25358D02*
X33617Y-25358D01*
X33617Y-25358D02*
X33650Y-25396D01*
X33650Y-25396D02*
X33650Y-25583D01*
M02*
