M48
;DRILL file {PCBNEW (2007-05-25)} date 26/10/2007-18:21:51
;FORMAT={2:4 / absolute / inches / decimal format}
R,T
VER,1
FMAT,2
INCH,TZ
TCST,OFF
ICI,OFF
ATC,ON
T1C0.025
T2C0.032
T3C0.035
T4C0.091
%
M47
G05
M72
T1
X2.005Y3.115
X2.225Y3.115
X3.115Y2.975
X3.115Y3.170
X2.890Y2.245
X1.790Y2.245
X2.050Y2.245
X2.295Y2.245
X2.550Y2.245
X3.375Y3.090
X2.185Y2.945
X2.485Y2.755
X2.375Y2.955
X2.280Y2.895
X2.675Y2.895
T2
X3.185Y2.955
X3.185Y2.855
X3.185Y2.755
X3.185Y2.655
X3.185Y2.555
X2.475Y3.145
X2.575Y3.145
X2.675Y3.145
X2.775Y3.145
X2.875Y3.145
X2.400Y2.550
X2.600Y2.550
T3
X1.975Y2.726
X1.896Y2.726
X1.896Y2.824
X1.975Y2.824
T4
X1.790Y3.011
X1.790Y2.538
T0
M30
