/* XPM */
const char * blankcheck_xpm[] = {
"24 24 166 2",
"  	c None",
". 	c #78726E",
"+ 	c #888888",
"@ 	c #7E7E7E",
"# 	c #6B6B6B",
"$ 	c #757270",
"% 	c #777676",
"& 	c #777777",
"* 	c #717171",
"= 	c #676767",
"- 	c #656565",
"; 	c #E7E4E3",
"> 	c #FBFAFA",
", 	c #F3F3F3",
"' 	c #C9C9C9",
") 	c #858585",
"! 	c #7B7B7B",
"~ 	c #747474",
"{ 	c #6E6E6E",
"] 	c #666666",
"^ 	c #959392",
"/ 	c #F7F7F7",
"( 	c #FFFFFF",
"_ 	c #CFCFCF",
": 	c #7D7D7D",
"< 	c #767676",
"[ 	c #6C6C6C",
"} 	c #827D7B",
"| 	c #949392",
"1 	c #D3D3D3",
"2 	c #A6A6A6",
"3 	c #B6B6B6",
"4 	c #F9F9F9",
"5 	c #808080",
"6 	c #757575",
"7 	c #707070",
"8 	c #686868",
"9 	c #82726A",
"0 	c #76706C",
"a 	c #929292",
"b 	c #A3A3A3",
"c 	c #9F9F9F",
"d 	c #F4F4F4",
"e 	c #848484",
"f 	c #797979",
"g 	c #6C5548",
"h 	c #919191",
"i 	c #A9A9A9",
"j 	c #A7A7A7",
"k 	c #A4A4A4",
"l 	c #A0A0A0",
"m 	c #C7C7C7",
"n 	c #C6C6C6",
"o 	c #868686",
"p 	c #828282",
"q 	c #787878",
"r 	c #606060",
"s 	c #807A77",
"t 	c #999594",
"u 	c #B2B2B2",
"v 	c #AFAFAF",
"w 	c #AAAAAA",
"x 	c #A5A5A5",
"y 	c #B0B0B0",
"z 	c #FBFBFB",
"A 	c #E8E8E8",
"B 	c #8E8E8E",
"C 	c #727272",
"D 	c #5E5E5E",
"E 	c #B4B4B4",
"F 	c #BCBCBC",
"G 	c #B5B5B5",
"H 	c #A1A1A1",
"I 	c #8B8B8B",
"J 	c #E6E6E6",
"K 	c #8A8A8A",
"L 	c #838383",
"M 	c #818181",
"N 	c #6F6D6C",
"O 	c #6C625C",
"P 	c #585757",
"Q 	c #7C7C7C",
"R 	c #ACABAA",
"S 	c #BDBCBC",
"T 	c #B7B7B7",
"U 	c #B1B1B1",
"V 	c #959595",
"W 	c #A2A2A2",
"X 	c #FCFCFC",
"Y 	c #999999",
"Z 	c #909090",
"` 	c #747475",
" .	c #9F938E",
"..	c #9C7258",
"+.	c #555250",
"@.	c #A6A5A5",
"#.	c #B8B8B8",
"$.	c #B3B3B3",
"%.	c #E9E9E9",
"&.	c #7F7F7F",
"*.	c #918682",
"=.	c #967460",
"-.	c #626161",
";.	c #A39691",
">.	c #9B6E54",
",.	c #73706E",
"'.	c #626262",
").	c #A8A8A8",
"!.	c #9E9E9E",
"~.	c #C5C5C5",
"{.	c #818080",
"].	c #7A7674",
"^.	c #737474",
"/.	c #B1A29C",
"(.	c #A87758",
"_.	c #5A5856",
":.	c #9C8E8A",
"<.	c #996C50",
"[.	c #9C9C9C",
"}.	c #989898",
"|.	c #A4948E",
"1.	c #A3765A",
"2.	c #686867",
"3.	c #B0A09A",
"4.	c #A57354",
"5.	c #898785",
"6.	c #BAB6B4",
"7.	c #9A6D52",
"8.	c #979797",
"9.	c #BEBEBE",
"0.	c #F9F8F8",
"a.	c #C9B7AC",
"b.	c #B2A19A",
"c.	c #A57455",
"d.	c #636262",
"e.	c #AEA49E",
"f.	c #A57254",
"g.	c #696969",
"h.	c #6D6D6D",
"i.	c #7E7A78",
"j.	c #7C6456",
"k.	c #F8F8F8",
"l.	c #FAF7F6",
"m.	c #6D6C6B",
"n.	c #B2A099",
"o.	c #646464",
"p.	c #7F8080",
"q.	c #A69691",
"r.	c #A76944",
"s.	c #B8B4B0",
"t.	c #D0B6A7",
"u.	c #807E7D",
"v.	c #B4A8A2",
"w.	c #AD7859",
"x.	c #585858",
"y.	c #575757",
"z.	c #808181",
"A.	c #AB9B97",
"B.	c #A86A45",
"C.	c #60554F",
"D.	c #AC9E98",
"E.	c #555555",
"F.	c #978984",
"G.	c #AB704D",
"H.	c #AEADAC",
"I.	c #B58366",
"                                                ",
"                                                ",
"                            . + @ #             ",
"                          $ % & * = -           ",
"                    ; > , ' ) ! ~ { ] #         ",
"                ^ / ( ( ( ( _ : < * [ - #       ",
"              } | 1 2 3 ( ( 4 5 ! 6 7 { 8 *     ",
"        9 0 a 2 2 b c c ( ( d e @ f 6 * { 8 6   ",
"    g < h i j 2 2 k l m ( ( n o p @ q 6 7 [ r o ",
"  s t u v w 2 x x k y z ( A B + e p : & C [ D p ",
"o E F G y H I a k b J ( ( i B K ) L M f N O P Q ",
"p R S T U Q B V b W X ( ( Y Z K + 5 ` [  ...+.K ",
"{ Y @.#.$.a k 3 2 l %.( ( _ Z K &.*.=.-.;.>.,.  ",
"'.h B l u v ).x H !.i %.X ~.{.].^./.(._.:.<.    ",
"  f o L a w i k l [.}.Z e @ |.1.2.3.4.5.6.7.    ",
"    { Q < 5 l W 8.B 9.0.a.7 b.c.d.e.f.    7.    ",
"      g.h.= g.) i.j.k.( l.m.n.f.    f.          ",
"        o.r D p.q.r.s.> t.u.v.f.    w.          ",
"          x.y.z.A.B.C.D.f.    f.                ",
"            E.~ F.G.    f.                      ",
"              Z H.f.    I.                      ",
"                  f.                            ",
"                                                ",
"                                                "};
