/* XPM */
const char * program_xpm[] = {
"16 16 108 2",
"  	c None",
". 	c #858585",
"+ 	c #717171",
"@ 	c #494900",
"# 	c #C6C600",
"$ 	c #333300",
"% 	c #81807F",
"& 	c #7B7A7A",
"* 	c #767676",
"= 	c #6C6C6C",
"- 	c #666666",
"; 	c #FFFF00",
"> 	c #3D3C3B",
", 	c #908E8D",
"' 	c #6F6F6F",
") 	c #676767",
"! 	c #7A7A7A",
"~ 	c #727272",
"{ 	c #696969",
"] 	c #595920",
"^ 	c #E3E300",
"/ 	c #606044",
"( 	c #393900",
"_ 	c #5A5A5A",
": 	c #808080",
"< 	c #787878",
"[ 	c #7F7D7C",
"} 	c #94918F",
"| 	c #909090",
"1 	c #5E5E25",
"2 	c #AAAA00",
"3 	c #5C5C5C",
"4 	c #848484",
"5 	c #7E7E7E",
"6 	c #797979",
"7 	c #8D8A89",
"8 	c #9E9B9A",
"9 	c #B2B2B2",
"0 	c #AAAAAA",
"a 	c #9E9E9E",
"b 	c #8E8E00",
"c 	c #5E5E5E",
"d 	c #878787",
"e 	c #838383",
"f 	c #7C7C7C",
"g 	c #737373",
"h 	c #676463",
"i 	c #747474",
"j 	c #929291",
"k 	c #B8B7B7",
"l 	c #B4B4B4",
"m 	c #969696",
"n 	c #6E6E6E",
"o 	c #101010",
"p 	c #555500",
"q 	c #606060",
"r 	c #898989",
"s 	c #857F7D",
"t 	c #7A6457",
"u 	c #767574",
"v 	c #9B9B9B",
"w 	c #B1B1B1",
"x 	c #A3A3A3",
"y 	c #A9A9A9",
"z 	c #A8A8A8",
"A 	c #9F9F9F",
"B 	c #959595",
"C 	c #8D8D8D",
"D 	c #818180",
"E 	c #918986",
"F 	c #886D5D",
"G 	c #8B827E",
"H 	c #906E59",
"I 	c #757575",
"J 	c #868686",
"K 	c #929292",
"L 	c #A7A7A7",
"M 	c #A2A2A2",
"N 	c #888888",
"O 	c #918A87",
"P 	c #877366",
"Q 	c #998F8B",
"R 	c #977560",
"S 	c #9E9896",
"T 	c #9A6D51",
"U 	c #919191",
"V 	c #929191",
"W 	c #847F7B",
"X 	c #918782",
"Y 	c #8A6E5D",
"Z 	c #9C908B",
"` 	c #946F58",
" .	c #958E8A",
"..	c #A57254",
"+.	c #686868",
"@.	c #646464",
"#.	c #896650",
"$.	c #9B8C85",
"%.	c #96745F",
"&.	c #A09692",
"*.	c #AA7657",
"=.	c #636363",
"-.	c #978D8A",
";.	c #97664A",
">.	c #938680",
",.	c #9C9897",
"'.	c #A77152",
").	c #B07D60",
"                                ",
"                    . +         ",
"      @ # $     % & * = -       ",
"      @ ; # > , ' ) ! ~ { {     ",
"        ] ^ # / ( _ : < + = '   ",
"    [ } | 1 ; # 2 3 4 5 * + { 6 ",
"7 8 9 0 a 5 b ; 2 c d e f g h i ",
"j k l m n o p p ( q r e * s t u ",
"6 v w x y z A v B C D E F G H   ",
"I J K L L M v B N O P Q R S T   ",
"    I * U V W X Y Z `  ...      ",
"    +.@.= E #.$.%.&...  *.      ",
"        =.-.;.>...              ",
"        g ,.'.  ).              ",
"                                ",
"                                "};
