/* XPM */
const char * read_xpm[] = {
"16 16 107 2",
"  	c None",
". 	c #858585",
"+ 	c #717171",
"@ 	c #000000",
"# 	c #555500",
"$ 	c #393900",
"% 	c #1D1C1C",
"& 	c #81807F",
"* 	c #7B7A7A",
"= 	c #767676",
"- 	c #6C6C6C",
"; 	c #666666",
"> 	c #FFFF00",
", 	c #585820",
"' 	c #807F7F",
") 	c #8F8F8F",
"! 	c #868686",
"~ 	c #7A7A7A",
"{ 	c #727272",
"] 	c #696969",
"^ 	c #13100F",
"/ 	c #E3E300",
"( 	c #C6C600",
"_ 	c #606044",
": 	c #929292",
"< 	c #8A8A8A",
"[ 	c #808080",
"} 	c #787878",
"| 	c #6F6F6F",
"1 	c #7F7D7C",
"2 	c #2F2D2C",
"3 	c #5E5E25",
"4 	c #515151",
"5 	c #8C8C8C",
"6 	c #848484",
"7 	c #7E7E7E",
"8 	c #797979",
"9 	c #8D8A89",
"0 	c #9E9B9A",
"a 	c #B2B2B2",
"b 	c #5E5E5E",
"c 	c #9E9E9E",
"d 	c #A3A3A3",
"e 	c #5D5D24",
"f 	c #828210",
"g 	c #6E6E6E",
"h 	c #878787",
"i 	c #838383",
"j 	c #7C7C7C",
"k 	c #737373",
"l 	c #676463",
"m 	c #747474",
"n 	c #929291",
"o 	c #B8B7B7",
"p 	c #B4B4B4",
"q 	c #969696",
"r 	c #909090",
"s 	c #5C5C24",
"t 	c #919191",
"u 	c #898989",
"v 	c #857F7D",
"w 	c #7A6457",
"x 	c #767574",
"y 	c #9B9B9B",
"z 	c #B1B1B1",
"A 	c #A9A9A9",
"B 	c #A8A8A8",
"C 	c #9F9F9F",
"D 	c #959595",
"E 	c #8D8D8D",
"F 	c #818180",
"G 	c #918986",
"H 	c #886D5D",
"I 	c #8B827E",
"J 	c #906E59",
"K 	c #757575",
"L 	c #A7A7A7",
"M 	c #A2A2A2",
"N 	c #888888",
"O 	c #918A87",
"P 	c #877366",
"Q 	c #998F8B",
"R 	c #977560",
"S 	c #9E9896",
"T 	c #9A6D51",
"U 	c #929191",
"V 	c #847F7B",
"W 	c #918782",
"X 	c #8A6E5D",
"Y 	c #9C908B",
"Z 	c #946F58",
"` 	c #958E8A",
" .	c #A57254",
"..	c #686868",
"+.	c #646464",
"@.	c #896650",
"#.	c #9B8C85",
"$.	c #96745F",
"%.	c #A09692",
"&.	c #AA7657",
"*.	c #636363",
"=.	c #978D8A",
"-.	c #97664A",
";.	c #938680",
">.	c #9C9897",
",.	c #A77152",
"'.	c #B07D60",
"                                ",
"                    . +         ",
"      @ # # $ % & * = - ;       ",
"      @ > > , ' ) ! ~ { ] ]     ",
"      ^ / / ( _ : < [ } + - |   ",
"    1 2 3 3 > ( 4 5 6 7 = + ] 8 ",
"9 0 a b c d e / f g h i j k l m ",
"n o p q ) c r s = t u i = v w x ",
"8 y z d A B C y D E F G H I J   ",
"K ! : L L M y D N O P Q R S T   ",
"    K = t U V W X Y Z `  .      ",
"    ..+.- G @.#.$.%. .  &.      ",
"        *.=.-.;. .              ",
"        k >.,.  '.              ",
"                                ",
"                                "};
