/* XPM */
const char * play_xpm[] = {
"16 16 78 1",
" 	c None",
".	c #DEDEDD",
"+	c #DFDEDE",
"@	c #DFDFDE",
"#	c #D9D9D8",
"$	c #E4E4E3",
"%	c #DBDBDA",
"&	c #DADAD9",
"*	c #DAD9D9",
"=	c #E4E3E3",
"-	c #D8D8D7",
";	c #D2D3D1",
">	c #D5D5D4",
",	c #D2D1D1",
"'	c #D2D2D1",
")	c #CCCCCB",
"!	c #CECECD",
"~	c #CDCDCC",
"{	c #B9B7B7",
"]	c #D1D1D0",
"^	c #CBCBCA",
"/	c #CACAC9",
"(	c #3E3A39",
"_	c #757271",
":	c #D4D4D4",
"<	c #CECDCD",
"[	c #C9C9C8",
"}	c #C8C8C7",
"|	c #C8C7C7",
"1	c #C9C8C8",
"2	c #2F2A29",
"3	c #3D3837",
"4	c #403B3A",
"5	c #9E9C9C",
"6	c #C3C2C2",
"7	c #C4C4C3",
"8	c #C5C4C4",
"9	c #C5C5C4",
"0	c #C4C5C4",
"a	c #282321",
"b	c #393432",
"c	c #383331",
"d	c #4E4947",
"e	c #969493",
"f	c #C8C8C8",
"g	c #C1C0C0",
"h	c #C1C1C0",
"i	c #C2C2C1",
"j	c #C2C1C0",
"k	c #211C1A",
"l	c #332E2C",
"m	c #322D2B",
"n	c #312C2A",
"o	c #474341",
"p	c #8E8C8B",
"q	c #BEBDBD",
"r	c #BEBEBD",
"s	c #BFBEBE",
"t	c #1A1512",
"u	c #2A2522",
"v	c #2A2523",
"w	c #8F8E8D",
"x	c #B8B8B7",
"y	c #C0C0BF",
"z	c #BBBABA",
"A	c #BCBBBB",
"B	c #BABABA",
"C	c #1B1813",
"D	c #585453",
"E	c #C3C1C3",
"F	c #B8B7B7",
"G	c #B6B5B5",
"H	c #9E9C9B",
"I	c #B4B3B3",
"J	c #B5B4B4",
"K	c #B1B0B0",
"L	c #AEADAD",
"M	c #ABAAAA",
"      .++@      ",
"   #$%&**&%=#   ",
"  -.;>>>>>>;.-  ",
" ,%''''''''''%' ",
" #)!!~{]!!!!!)# ",
" ~^^)/(_:<^^^^~ ",
"[}||1}23456/||}[",
"788890abccdef887",
"ghhhijklmnop9hhg",
"qrrrsrtuvwxyrrrr",
" zzzABCDEqzzzzz ",
" FFFFGHzFFFFFFF ",
" IIIIIJIIIIIIII ",
"  KKKKKKKKKKKK  ",
"   LLLLLLLLLL   ",
"      MMMM      "};
