/* XPM */
const char * usbpicprog_xpm[] = {
"32 32 610 2",
"  	c None",
". 	c #3B7483",
"+ 	c #2A6681",
"@ 	c #2A6478",
"# 	c #567E81",
"$ 	c #A2BCAD",
"% 	c #115A7E",
"& 	c #0D547F",
"* 	c #014F7F",
"= 	c #014F7D",
"- 	c #155778",
"; 	c #2A6378",
"> 	c #548089",
", 	c #5A898A",
"' 	c #02517F",
") 	c #296280",
"! 	c #024E7E",
"~ 	c #014D7E",
"{ 	c #024E7F",
"] 	c #08507B",
"^ 	c #165678",
"/ 	c #2D677F",
"( 	c #376B7E",
"_ 	c #547978",
": 	c #397687",
"< 	c #07527E",
"[ 	c #255873",
"} 	c #024D7C",
"| 	c #014D7F",
"1 	c #024D7D",
"2 	c #034C7A",
"3 	c #01507F",
"4 	c #03527E",
"5 	c #145779",
"6 	c #2A6374",
"7 	c #5F888C",
"8 	c #306F86",
"9 	c #0F5680",
"0 	c #265266",
"a 	c #094A75",
"b 	c #014C7E",
"c 	c #004C7F",
"d 	c #014F80",
"e 	c #08507C",
"f 	c #03527F",
"g 	c #06547E",
"h 	c #12587D",
"i 	c #26617B",
"j 	c #265F73",
"k 	c #4A7074",
"l 	c #367895",
"m 	c #2D6686",
"n 	c #294855",
"o 	c #264051",
"p 	c #044D7B",
"q 	c #004C80",
"r 	c #004C7E",
"s 	c #094E7C",
"t 	c #074F7E",
"u 	c #005080",
"v 	c #005181",
"w 	c #05517F",
"x 	c #0B517B",
"y 	c #015383",
"z 	c #035380",
"A 	c #30596C",
"B 	c #6A5A4D",
"C 	c #988879",
"D 	c #70989A",
"E 	c #5690A4",
"F 	c #538191",
"G 	c #31474D",
"H 	c #2E4B59",
"I 	c #145B84",
"J 	c #0C4D7A",
"K 	c #384453",
"L 	c #3D434D",
"M 	c #294A61",
"N 	c #125079",
"O 	c #044F80",
"P 	c #005081",
"Q 	c #005182",
"R 	c #015282",
"S 	c #2A4E65",
"T 	c #4D3A32",
"U 	c #5A4135",
"V 	c #694D3F",
"W 	c #745C4E",
"X 	c #716755",
"Y 	c #538996",
"Z 	c #4987A2",
"` 	c #3C6271",
" .	c #324148",
"..	c #305566",
"+.	c #18618A",
"@.	c #085183",
"#.	c #355F7A",
"$.	c #54433C",
"%.	c #5E453A",
"&.	c #5A4237",
"*.	c #58443C",
"=.	c #494649",
"-.	c #0C4F7D",
";.	c #014E82",
">.	c #014F82",
",.	c #005082",
"'.	c #344859",
").	c #44332E",
"!.	c #47342D",
"~.	c #50372E",
"{.	c #5F3F30",
"].	c #644233",
"^.	c #684537",
"/.	c #6B483D",
"(.	c #8A6F65",
"_.	c #427B91",
":.	c #5A92A7",
"<.	c #2D5663",
"[.	c #2B383E",
"}.	c #306279",
"|.	c #0A5783",
"1.	c #014B7F",
"2.	c #014C7F",
"3.	c #1E638D",
"4.	c #1C5271",
"5.	c #3C535B",
"6.	c #595D59",
"7.	c #60544B",
"8.	c #5A4539",
"9.	c #564035",
"0.	c #2C5A7A",
"a.	c #065183",
"b.	c #004F82",
"c.	c #004F81",
"d.	c #3E4148",
"e.	c #43312C",
"f.	c #47322A",
"g.	c #4D352B",
"h.	c #5A3A2D",
"i.	c #604031",
"j.	c #664433",
"k.	c #674636",
"l.	c #67483C",
"m.	c #6B4D43",
"n.	c #719694",
"o.	c #5D94A7",
"p.	c #4D7F93",
"q.	c #2D4751",
"r.	c #293940",
"s.	c #316F8C",
"t.	c #014E7F",
"u.	c #004C7D",
"v.	c #276990",
"w.	c #194D6D",
"x.	c #4D7079",
"y.	c #578A95",
"z.	c #336E80",
"A.	c #5E7D84",
"B.	c #5E767D",
"C.	c #2A5871",
"D.	c #1E628C",
"E.	c #024E82",
"F.	c #024B7C",
"G.	c #483735",
"H.	c #422F2A",
"I.	c #473229",
"J.	c #4D342A",
"K.	c #5A3B2D",
"L.	c #5F3E2F",
"M.	c #644130",
"N.	c #654433",
"O.	c #654738",
"P.	c #664A3D",
"Q.	c #68949A",
"R.	c #3B7999",
"S.	c #4B8096",
"T.	c #2A4149",
"U.	c #2B404B",
"V.	c #4988A1",
"W.	c #0B5483",
"X.	c #004B7D",
"Y.	c #014B7D",
"Z.	c #014C7D",
"`.	c #165B87",
" +	c #326D8F",
".+	c #467081",
"++	c #7E9C99",
"@+	c #7A9796",
"#+	c #7C9C9D",
"$+	c #588791",
"%+	c #225169",
"&+	c #226790",
"*+	c #045081",
"=+	c #265E81",
"-+	c #47342E",
";+	c #422F29",
">+	c #493128",
",+	c #50352A",
"'+	c #5C3B2D",
")+	c #613E2E",
"!+	c #664333",
"~+	c #644537",
"{+	c #664A3F",
"]+	c #6C989B",
"^+	c #588EA5",
"/+	c #447A91",
"(+	c #223B44",
"_+	c #415F6C",
":+	c #3E7D9B",
"<+	c #024C7C",
"[+	c #014B7C",
"}+	c #024B7D",
"|+	c #1E5E87",
"1+	c #6096AF",
"2+	c #397C9C",
"3+	c #4B8098",
"4+	c #6A929B",
"5+	c #74999F",
"6+	c #155A83",
"7+	c #1C618D",
"8+	c #0E5684",
"9+	c #4D6F85",
"0+	c #43302A",
"a+	c #432F29",
"b+	c #4C3128",
"c+	c #533529",
"d+	c #5E3B2C",
"e+	c #633E2C",
"f+	c #65402F",
"g+	c #654233",
"h+	c #624438",
"i+	c #65493D",
"j+	c #4A7D92",
"k+	c #417899",
"l+	c #3B6472",
"m+	c #28383F",
"n+	c #3C6778",
"o+	c #175C86",
"p+	c #014B7B",
"q+	c #014A7B",
"r+	c #014A7D",
"s+	c #054E7E",
"t+	c #1A5C87",
"u+	c #0C5281",
"v+	c #4C7F9F",
"w+	c #5D95AE",
"x+	c #5793AC",
"y+	c #3E7A9D",
"z+	c #0F5583",
"A+	c #115784",
"B+	c #4A5F6F",
"C+	c #44312A",
"D+	c #47322B",
"E+	c #4E3428",
"F+	c #56382A",
"G+	c #603C2C",
"H+	c #643F2D",
"I+	c #653F2E",
"J+	c #644132",
"K+	c #614438",
"L+	c #664B3C",
"M+	c #729694",
"N+	c #50839B",
"O+	c #629AAE",
"P+	c #41636F",
"Q+	c #2D3C46",
"R+	c #2C637D",
"S+	c #01497A",
"T+	c #004A7B",
"U+	c #064A7A",
"V+	c #064A79",
"W+	c #175A86",
"X+	c #467F9E",
"Y+	c #377194",
"Z+	c #205F89",
"`+	c #575D66",
" @	c #48332D",
".@	c #4C352D",
"+@	c #53382C",
"@@	c #593B2C",
"#@	c #603E2E",
"$@	c #623E2D",
"%@	c #634030",
"&@	c #624232",
"*@	c #614338",
"=@	c #6F5644",
"-@	c #4E7B7D",
";@	c #206085",
">@	c #367092",
",@	c #426A7A",
"'@	c #36505A",
")@	c #205E7C",
"!@	c #034978",
"~@	c #0F4870",
"{@	c #014A7A",
"]@	c #024A7B",
"^@	c #014576",
"/@	c #024878",
"(@	c #014A7C",
"_@	c #02497C",
":@	c #02497B",
"<@	c #09507F",
"[@	c #1F5C84",
"}@	c #595D63",
"|@	c #74646F",
"1@	c #624E53",
"2@	c #553934",
"3@	c #5B3E2F",
"4@	c #623F2F",
"5@	c #63402F",
"6@	c #634233",
"7@	c #614233",
"8@	c #6F5845",
"9@	c #1E5C72",
"0@	c #024C7D",
"a@	c #16547A",
"b@	c #2F5A71",
"c@	c #1A587C",
"d@	c #094B7A",
"e@	c #456B84",
"f@	c #1B4F75",
"g@	c #195075",
"h@	c #184A71",
"i@	c #0F3C5C",
"j@	c #043C65",
"k@	c #033E6B",
"l@	c #024370",
"m@	c #014575",
"n@	c #2B6286",
"o@	c #5C6E7B",
"p@	c #6A676C",
"q@	c #756F7B",
"r@	c #8B8092",
"s@	c #857585",
"t@	c #765D64",
"u@	c #6F5350",
"v@	c #64453A",
"w@	c #62453A",
"x@	c #755E4A",
"y@	c #0E5072",
"z@	c #034876",
"A@	c #014C7C",
"B@	c #014C7B",
"C@	c #054B77",
"D@	c #034778",
"E@	c #507389",
"F@	c #2C5F82",
"G@	c #2B6082",
"H@	c #496A81",
"I@	c #265272",
"J@	c #124467",
"K@	c #133E5F",
"L@	c #033E68",
"M@	c #03406C",
"N@	c #023D6A",
"O@	c #154F75",
"P@	c #607781",
"Q@	c #73868B",
"R@	c #878B8C",
"S@	c #7A7679",
"T@	c #666269",
"U@	c #88808B",
"V@	c #958897",
"W@	c #907F92",
"X@	c #7A656E",
"Y@	c #624944",
"Z@	c #7B6652",
"`@	c #014B79",
" #	c #014A79",
".#	c #014979",
"+#	c #014879",
"@#	c #014878",
"##	c #09446D",
"$#	c #46545B",
"%#	c #3C505E",
"&#	c #33566D",
"*#	c #577589",
"=#	c #3A6685",
"-#	c #2D5F7F",
";#	c #476E86",
">#	c #02426F",
",#	c #073B66",
"'#	c #043E69",
")#	c #0A3B5C",
"!#	c #024776",
"~#	c #174E70",
"{#	c #215469",
"]#	c #1F657C",
"^#	c #2D6C7F",
"/#	c #709095",
"(#	c #8EA0A2",
"_#	c #8B8D8E",
":#	c #807C7B",
"<#	c #888186",
"[#	c #908795",
"}#	c #9E95A9",
"|#	c #9F9796",
"1#	c #014C79",
"2#	c #004A79",
"3#	c #08466F",
"4#	c #014978",
"5#	c #16435E",
"6#	c #343D41",
"7#	c #33373A",
"8#	c #353A3F",
"9#	c #464D51",
"0#	c #435564",
"a#	c #395C72",
"b#	c #52748A",
"c#	c #064875",
"d#	c #024673",
"e#	c #024470",
"f#	c #084772",
"g#	c #0E517C",
"h#	c #446C87",
"i#	c #20546B",
"j#	c #336D83",
"k#	c #2C6B81",
"l#	c #387282",
"m#	c #397484",
"n#	c #89A3A6",
"o#	c #D3D0C9",
"p#	c #BCB9B5",
"q#	c #AAA6A4",
"r#	c #989496",
"s#	c #ACA8A9",
"t#	c #2F5C72",
"u#	c #1E5472",
"v#	c #0E4D75",
"w#	c #054A77",
"x#	c #024773",
"y#	c #0F4361",
"z#	c #213843",
"A#	c #26353D",
"B#	c #2A343A",
"C#	c #343B3E",
"D#	c #2E3337",
"E#	c #32373B",
"F#	c #474A4C",
"G#	c #154666",
"H#	c #024B7B",
"I#	c #165884",
"J#	c #527793",
"K#	c #2D6277",
"L#	c #4F7689",
"M#	c #3A7184",
"N#	c #4C7C85",
"O#	c #2D7385",
"P#	c #8AA9AE",
"Q#	c #DBD7D2",
"R#	c #D9D6D1",
"S#	c #D7D4CE",
"T#	c #D4D1CA",
"U#	c #4C5C60",
"V#	c #304957",
"W#	c #2C4E63",
"X#	c #2C546B",
"Y#	c #1D5070",
"Z#	c #084D76",
"`#	c #0C5480",
" $	c #315F7A",
".$	c #375865",
"+$	c #213B46",
"@$	c #22343D",
"#$	c #28353D",
"$$	c #2E373C",
"%$	c #333C40",
"&$	c #2E566D",
"*$	c #26648C",
"=$	c #477594",
"-$	c #195473",
";$	c #27667F",
">$	c #83958C",
",$	c #B1A587",
"'$	c #538489",
")$	c #9EB9BB",
"!$	c #DEDBD6",
"~$	c #DDDAD5",
"{$	c #DAD7D2",
"]$	c #D5D3CD",
"^$	c #739B98",
"/$	c #48666B",
"($	c #405B65",
"_$	c #35525E",
":$	c #385260",
"<$	c #2C556D",
"[$	c #195779",
"}$	c #175A83",
"|$	c #2F6A8F",
"1$	c #36657E",
"2$	c #2C5168",
"3$	c #2E4653",
"4$	c #283F4B",
"5$	c #376581",
"6$	c #034D7C",
"7$	c #064974",
"8$	c #1B5A86",
"9$	c #2B6C96",
"0$	c #045B87",
"a$	c #235F79",
"b$	c #817A68",
"c$	c #AD8654",
"d$	c #748275",
"e$	c #C3D1CE",
"f$	c #E5E5E0",
"g$	c #E3E0DB",
"h$	c #D6D4CF",
"i$	c #608183",
"j$	c #5C7B7F",
"k$	c #3D5964",
"l$	c #304F5F",
"m$	c #2B556C",
"n$	c #2B5972",
"o$	c #215979",
"p$	c #206088",
"q$	c #256086",
"r$	c #3A6582",
"s$	c #2F6789",
"t$	c #1B5B87",
"u$	c #2C739D",
"v$	c #0777A6",
"w$	c #2386A9",
"x$	c #9BA18F",
"y$	c #917B59",
"z$	c #6E8177",
"A$	c #8E9090",
"B$	c #BEBCB8",
"C$	c #E8E5E0",
"D$	c #E5E2DD",
"E$	c #D7D5D0",
"F$	c #648A89",
"G$	c #5F7D80",
"H$	c #3D5763",
"I$	c #36515F",
"J$	c #385362",
"K$	c #2E586E",
"L$	c #1F5674",
"M$	c #115079",
"N$	c #054E79",
"O$	c #014D7B",
"P$	c #014D7C",
"Q$	c #014E7D",
"R$	c #045884",
"S$	c #03638E",
"T$	c #0D7BA5",
"U$	c #679DA4",
"V$	c #A6B49F",
"W$	c #4896A7",
"X$	c #6A7777",
"Y$	c #6D6F6D",
"Z$	c #74716F",
"`$	c #948F8D",
" %	c #B9B9B2",
".%	c #799C9C",
"+%	c #4B6B70",
"@%	c #36505C",
"#%	c #31495A",
"$%	c #315266",
"%%	c #2E556C",
"&%	c #1A5374",
"*%	c #095079",
"=%	c #014E7B",
"-%	c #014E7C",
";%	c #015583",
">%	c #015D8A",
",%	c #04648F",
"'%	c #076792",
")%	c #1A7899",
"!%	c #1882A4",
"~%	c #93ACAB",
"{%	c #748482",
"]%	c #656B69",
"^%	c #A2A794",
"/%	c #99BDBC",
"(%	c #577A7C",
"_%	c #516F75",
":%	c #34505E",
"<%	c #324D5B",
"[%	c #354F5F",
"}%	c #28536D",
"|%	c #1B5474",
"1%	c #0D567C",
"2%	c #075C84",
"3%	c #015B86",
"4%	c #015D88",
"5%	c #01628B",
"6%	c #1A718E",
"7%	c #739499",
"8%	c #40606A",
"9%	c #2D4756",
"0%	c #2A4457",
"a%	c #2D5268",
"b%	c #2D5A71",
"c%	c #1E5D7B",
"d%	c #116083",
"e%	c #06658A",
"f%	c #307991",
"g%	c #96B5B8",
"h%	c #506D73",
"i%	c #536B74",
"j%	c #344E5C",
"k%	c #344F60",
"l%	c #3C5968",
"m%	c #3E677A",
"n%	c #5A858A",
"o%	c #809BA1",
"p%	c #4A6771",
"q%	c #465E69",
"r%	c #678182",
"s%	c #ABC9CA",
"                                                                ",
"        . + @ #                                                 ",
"      $ % & * = - ; >                                           ",
"      , ' ) ! ~ { ! ] ^ / ( _                                   ",
"      : < [ } ~ ~ | 1 2 * 3 4 5 6 7                             ",
"      8 9 0 a ~ ~ | b c | * d e f g h i j k                     ",
"      l m n o p b q r c ~ s t d u v w x y z A B C               ",
"    D E F G H I | q r | J K L M N O P v Q R S T U V W X         ",
"    Y Z `  ...+.b r r @.#.$.%.&.*.=.-.;.>.,.'.).!.~.{.].^./.(.  ",
"    _.:.<.[.}.|.1.2.c 3.4.5.6.7.8.9.0.a.b.c.d.e.f.g.h.i.j.k.l.m.",
"  n.o.p.q.r.s.t.r u.2.v.w.x.y.z.A.B.C.D.E.F.G.H.I.J.K.L.M.N.O.P.",
"  Q.R.S.T.U.V.W.X.Y.Z.`. +.+++@+#+$+%+&+*+=+-+;+>+,+'+)+M.!+~+{+",
"  ]+^+/+(+_+:+<+[+[+[+}+|+1+2+3+4+5+6+7+8+9+0+a+b+c+d+e+f+g+h+i+",
"  j+k+l+m+n+o+p+q+[+[+r+s+t+u+v+w+x+y+z+A+B+C+D+E+F+G+H+I+J+K+L+",
"M+N+O+P+Q+R+S+S+T+[+[+[+[+[+U+V+W+X+Y+~ Z+`+ @.@+@@@#@$@%@&@*@=@",
"-@;@>@,@'@)@!@~@{@]@S+^@/@(@_@:@[+F.<@u.[@}@|@1@2@3@4@5@6@7@K+8@",
"9@!@0@a@b@c@d@e@f@g@h@i@j@k@l@m@S+[+Y.u.n@o@p@q@r@s@t@u@v@~+w@x@",
"y@z@A@B@C@p D@E@F@G@H@I@J@K@L@M@N@k@q+u.O@P@Q@R@S@T@U@V@W@X@Y@Z@",
"`@ #.#+#+#@###$#%#&#*#=#-#;#>#,#'#)#!#Z.~#{#]#^#/#(#_#:#<#[#}#|#",
"1#2#@#+#3#4#5#6#7#8#9#0#a#b#{@c#d#e#f#g#h#i#j#k#l#m#n#o#p#q#r#s#",
"t#u#v#w#x#4#y#z#A#B#C#D#E#F#G#[+[+p+H#I#J#K#L#M#N#O#P#Q#R#S#T#  ",
"U#V#W#X#Y#Z#`# $.$+$@$#$$$%$&$s+[+p+Z.*$=$-$;$>$,$'$)$!$~${$]$  ",
"  ^$/$($_$:$<$[$}$|$1$2$3$4$5$6$[+7$A@8$9$0$a$b$c$d$e$f$g$!$h$  ",
"        i$j$k$l$m$n$o$p$q$r$s$B@[+7$A@t$u$v$w$x$y$z$A$B$C$D$E$  ",
"              F$G$H$I$J$K$L$M$N$B@O$P$Q$R$S$T$U$V$W$X$Y$Z$`$ %  ",
"                    .%+%@%#%$%%%&%*%=%-%;%>%,%'%)%!%  ~%{%]%^%  ",
"                        /%(%_%:%<%[%}%|%1%2%3%4%5%6%            ",
"                                7%8%9%0%a%b%c%d%e%f%            ",
"                                    g%h%i%j%k%l%m%n%            ",
"                                            o%p%q%r%            ",
"                                                s%              ",
"                                                                "};
