/* XPM */
const char * verify_xpm[] = {
"16 16 111 2",
"  	c None",
". 	c #858585",
"+ 	c #717171",
"@ 	c #B8B73E",
"# 	c #838270",
"$ 	c #767676",
"% 	c #6C6C6C",
"& 	c #666666",
"* 	c #F7F708",
"= 	c #FBFB04",
"- 	c #F6F60A",
"; 	c #C9C93A",
"> 	c #7A7A7A",
", 	c #727272",
"' 	c #696969",
") 	c #908E8D",
"! 	c #969494",
"~ 	c #B9B977",
"{ 	c #ABAB82",
"] 	c #FFFF00",
"^ 	c #FAFA05",
"/ 	c #808080",
"( 	c #787878",
"_ 	c #6F6F6F",
": 	c #7F7D7C",
"< 	c #94918F",
"[ 	c #A2A2A2",
"} 	c #A6A6A6",
"| 	c #B1B17B",
"1 	c #E3E320",
"2 	c #848484",
"3 	c #7E7E7E",
"4 	c #797979",
"5 	c #8D8A89",
"6 	c #9E9B9A",
"7 	c #B2B2B2",
"8 	c #AAAAAA",
"9 	c #9E9E9E",
"0 	c #A3A3A3",
"a 	c #AEAE8F",
"b 	c #E9E924",
"c 	c #F0F013",
"d 	c #A5A56F",
"e 	c #878787",
"f 	c #838383",
"g 	c #7C7C7C",
"h 	c #737373",
"i 	c #676463",
"j 	c #747474",
"k 	c #929291",
"l 	c #B8B7B7",
"m 	c #B4B4B4",
"n 	c #969696",
"o 	c #8F8F8F",
"p 	c #BEBE71",
"q 	c #FCFC05",
"r 	c #DFDF2C",
"s 	c #94948B",
"t 	c #898989",
"u 	c #857F7D",
"v 	c #7A6457",
"w 	c #767574",
"x 	c #9B9B9B",
"y 	c #B1B1B1",
"z 	c #A9A9A9",
"A 	c #A8A8A8",
"B 	c #B1B181",
"C 	c #ECEC1D",
"D 	c #EDED17",
"E 	c #A1A073",
"F 	c #818180",
"G 	c #918986",
"H 	c #886D5D",
"I 	c #8B827E",
"J 	c #906E59",
"K 	c #757575",
"L 	c #868686",
"M 	c #929292",
"N 	c #A7A7A7",
"O 	c #9D9D99",
"P 	c #A8A877",
"Q 	c #A5A55F",
"R 	c #979080",
"S 	c #877366",
"T 	c #998F8B",
"U 	c #977560",
"V 	c #9E9896",
"W 	c #9A6D51",
"X 	c #919191",
"Y 	c #929191",
"Z 	c #A09B62",
"` 	c #EDED12",
" .	c #B6AD38",
"..	c #9C908B",
"+.	c #946F58",
"@.	c #958E8A",
"#.	c #A57254",
"$.	c #686868",
"%.	c #646464",
"&.	c #AA883B",
"*.	c #EDEB0C",
"=.	c #BDB03C",
"-.	c #A09692",
";.	c #AA7657",
">.	c #636363",
",.	c #978D8A",
"'.	c #97664A",
").	c #938680",
"!.	c #9C9897",
"~.	c #A77152",
"{.	c #B07D60",
"                                ",
"                    . +         ",
"                @ # $ % &       ",
"            * = - ; > , ' '     ",
"        ) ! ~ { ] ^ / ( + % _   ",
"    : < [ } [ | ] 1 2 3 $ + ' 4 ",
"5 6 7 8 9 0 a b c d e f g h i j ",
"k l m n o 9 p q r s t f $ u v w ",
"4 x y 0 z A B C D E F G H I J   ",
"K L M N N [ O P Q R S T U V W   ",
"    K $ X Y Z `  ...+.@.#.      ",
"    $.%.% G &.*.=.-.#.  ;.      ",
"        >.,.'.).#.              ",
"        h !.~.  {.              ",
"                                ",
"                                "};
