M48
;DRILL file {PCBnew (20100402 SVN-R2504)-final} date Sun 11 Apr 2010 05:01:14 PM CEST
;FORMAT={-.-/ absolute / inch / decimal}
R,T
VER,1
FMAT,2
INCH,TZ
TCST,OFF
ICI,OFF
ATC,ON
T1C0.032
T2C0.039
T3C0.079
T4C0.126
%
M47
G05
M72
T1
X6.175Y-3.500
X6.175Y-3.800
X6.275Y-3.500
X6.275Y-3.800
X6.375Y-3.500
X6.375Y-3.800
X6.475Y-3.500
X6.475Y-3.800
T2
X5.600Y-3.750
X5.609Y-3.999
X5.609Y-4.251
X5.657Y-3.225
X5.677Y-2.800
X5.677Y-3.525
X5.750Y-2.625
X5.758Y-3.136
X5.758Y-3.312
X5.791Y-3.999
X5.791Y-4.251
X5.874Y-2.800
X5.874Y-3.525
X5.973Y-2.800
X5.973Y-3.525
X6.000Y-3.750
X6.150Y-2.625
X6.150Y-2.966
X6.150Y-3.084
X6.150Y-4.316
X6.150Y-4.434
X6.400Y-2.625
X6.400Y-2.825
X6.400Y-3.950
X6.600Y-2.825
X6.600Y-3.225
X6.800Y-3.950
X6.825Y-2.966
X6.825Y-3.084
X6.825Y-3.641
X6.825Y-3.759
X6.825Y-4.316
X6.825Y-4.434
X7.100Y-3.475
X7.250Y-3.325
X7.500Y-2.966
X7.500Y-3.084
X7.500Y-3.475
X7.500Y-4.316
X7.500Y-4.434
X7.650Y-3.325
T3
X6.625Y-2.650
X6.850Y-2.650
T4
X5.575Y-2.550
X6.025Y-3.250
X7.175Y-4.150
T0
M30
