G04 (created by PCBNEW-RS274X (20100402 SVN-R2504)-final) date Sun 11 Apr 2010 05:01:01 PM CEST*
G01*
G70*
G90*
%MOIN*%
G04 Gerber Fmt 3.4, Leading zero omitted, Abs format*
%FSLAX34Y34*%
G04 APERTURE LIST*
%ADD10C,0.001000*%
%ADD11C,0.015000*%
%ADD12C,0.006600*%
%ADD13C,0.012000*%
%ADD14C,0.009900*%
%ADD15C,0.007500*%
%ADD16C,0.010000*%
%ADD17C,0.008000*%
G04 APERTURE END LIST*
G54D10*
G54D11*
X80250Y-24500D02*
X80226Y-24742D01*
X80155Y-24976D01*
X80041Y-25191D01*
X79886Y-25380D01*
X79698Y-25536D01*
X79484Y-25652D01*
X79251Y-25724D01*
X79008Y-25749D01*
X78766Y-25727D01*
X78532Y-25658D01*
X78316Y-25545D01*
X78126Y-25393D01*
X77969Y-25206D01*
X77852Y-24992D01*
X77778Y-24759D01*
X77751Y-24517D01*
X77771Y-24275D01*
X77838Y-24040D01*
X77950Y-23823D01*
X78101Y-23632D01*
X78287Y-23474D01*
X78500Y-23355D01*
X78732Y-23280D01*
X78974Y-23251D01*
X79217Y-23269D01*
X79452Y-23335D01*
X79669Y-23445D01*
X79862Y-23595D01*
X80021Y-23780D01*
X80141Y-23992D01*
X80218Y-24224D01*
X80249Y-24466D01*
X80250Y-24500D01*
X76500Y-24500D02*
X81500Y-24500D01*
X79000Y-22000D02*
X79000Y-27000D01*
X56000Y-24500D02*
X55976Y-24742D01*
X55905Y-24976D01*
X55791Y-25191D01*
X55636Y-25380D01*
X55448Y-25536D01*
X55234Y-25652D01*
X55001Y-25724D01*
X54758Y-25749D01*
X54516Y-25727D01*
X54282Y-25658D01*
X54066Y-25545D01*
X53876Y-25393D01*
X53719Y-25206D01*
X53602Y-24992D01*
X53528Y-24759D01*
X53501Y-24517D01*
X53521Y-24275D01*
X53588Y-24040D01*
X53700Y-23823D01*
X53851Y-23632D01*
X54037Y-23474D01*
X54250Y-23355D01*
X54482Y-23280D01*
X54724Y-23251D01*
X54967Y-23269D01*
X55202Y-23335D01*
X55419Y-23445D01*
X55612Y-23595D01*
X55771Y-23780D01*
X55891Y-23992D01*
X55968Y-24224D01*
X55999Y-24466D01*
X56000Y-24500D01*
X52250Y-24500D02*
X57250Y-24500D01*
X54750Y-22000D02*
X54750Y-27000D01*
X56000Y-45250D02*
X55976Y-45492D01*
X55905Y-45726D01*
X55791Y-45941D01*
X55636Y-46130D01*
X55448Y-46286D01*
X55234Y-46402D01*
X55001Y-46474D01*
X54758Y-46499D01*
X54516Y-46477D01*
X54282Y-46408D01*
X54066Y-46295D01*
X53876Y-46143D01*
X53719Y-45956D01*
X53602Y-45742D01*
X53528Y-45509D01*
X53501Y-45267D01*
X53521Y-45025D01*
X53588Y-44790D01*
X53700Y-44573D01*
X53851Y-44382D01*
X54037Y-44224D01*
X54250Y-44105D01*
X54482Y-44030D01*
X54724Y-44001D01*
X54967Y-44019D01*
X55202Y-44085D01*
X55419Y-44195D01*
X55612Y-44345D01*
X55771Y-44530D01*
X55891Y-44742D01*
X55968Y-44974D01*
X55999Y-45216D01*
X56000Y-45250D01*
X52250Y-45250D02*
X57250Y-45250D01*
X54750Y-42750D02*
X54750Y-47750D01*
X80250Y-45250D02*
X80226Y-45492D01*
X80155Y-45726D01*
X80041Y-45941D01*
X79886Y-46130D01*
X79698Y-46286D01*
X79484Y-46402D01*
X79251Y-46474D01*
X79008Y-46499D01*
X78766Y-46477D01*
X78532Y-46408D01*
X78316Y-46295D01*
X78126Y-46143D01*
X77969Y-45956D01*
X77852Y-45742D01*
X77778Y-45509D01*
X77751Y-45267D01*
X77771Y-45025D01*
X77838Y-44790D01*
X77950Y-44573D01*
X78101Y-44382D01*
X78287Y-44224D01*
X78500Y-44105D01*
X78732Y-44030D01*
X78974Y-44001D01*
X79217Y-44019D01*
X79452Y-44085D01*
X79669Y-44195D01*
X79862Y-44345D01*
X80021Y-44530D01*
X80141Y-44742D01*
X80218Y-44974D01*
X80249Y-45216D01*
X80250Y-45250D01*
X76500Y-45250D02*
X81500Y-45250D01*
X79000Y-42750D02*
X79000Y-47750D01*
X79000Y-24500D02*
X54750Y-24500D01*
X79000Y-45250D02*
X54750Y-45250D01*
X79000Y-29500D02*
X79000Y-45250D01*
X79000Y-29500D02*
X79000Y-24500D01*
X54750Y-44750D02*
X54750Y-45250D01*
X54750Y-24500D02*
X54750Y-25750D01*
X65250Y-26250D02*
X65500Y-26250D01*
X65000Y-26250D02*
X65250Y-26250D01*
X64750Y-26250D02*
X65000Y-26250D01*
X64500Y-27750D02*
X64750Y-27750D01*
X64500Y-27750D02*
X64500Y-27500D01*
X64750Y-27500D02*
X64500Y-27750D01*
X67500Y-27500D02*
X64750Y-27500D01*
X68000Y-27000D02*
X67500Y-27500D01*
X64750Y-26250D02*
X65000Y-26500D01*
X64750Y-26250D02*
X65000Y-26000D01*
G54D12*
X77574Y-41097D02*
X76774Y-41097D01*
X77536Y-41097D02*
X77574Y-41135D01*
X77574Y-41210D01*
X77536Y-41247D01*
X77498Y-41266D01*
X77421Y-41285D01*
X77193Y-41285D01*
X77117Y-41266D01*
X77079Y-41247D01*
X77040Y-41210D01*
X77040Y-41135D01*
X77079Y-41097D01*
X77574Y-40910D02*
X77040Y-40910D01*
X76774Y-40910D02*
X76812Y-40929D01*
X76850Y-40910D01*
X76812Y-40891D01*
X76774Y-40910D01*
X76850Y-40910D01*
X77536Y-40553D02*
X77574Y-40591D01*
X77574Y-40666D01*
X77536Y-40703D01*
X77498Y-40722D01*
X77421Y-40741D01*
X77193Y-40741D01*
X77117Y-40722D01*
X77079Y-40703D01*
X77040Y-40666D01*
X77040Y-40591D01*
X77079Y-40553D01*
X77536Y-40234D02*
X77574Y-40272D01*
X77574Y-40347D01*
X77536Y-40384D01*
X77460Y-40403D01*
X77155Y-40403D01*
X77079Y-40384D01*
X77040Y-40347D01*
X77040Y-40272D01*
X77079Y-40234D01*
X77155Y-40215D01*
X77231Y-40215D01*
X77307Y-40403D01*
G54D11*
X54750Y-25750D02*
X54750Y-44750D01*
X58051Y-30557D02*
X57894Y-30557D01*
X58209Y-30557D02*
X57933Y-30557D01*
X57933Y-30557D02*
X58051Y-30557D01*
X58051Y-30557D02*
X58051Y-30400D01*
X58051Y-30400D02*
X58051Y-30715D01*
X58091Y-33530D02*
X58091Y-30970D01*
X56221Y-31659D02*
X56175Y-31773D01*
X56138Y-31891D01*
X56112Y-32011D01*
X56096Y-32133D01*
X56092Y-32254D01*
X56097Y-32377D01*
X56114Y-32499D01*
X56141Y-32619D01*
X56178Y-32736D01*
X56226Y-32849D01*
X56283Y-32958D01*
X56349Y-33062D01*
X56424Y-33159D01*
X56508Y-33249D01*
X56599Y-33332D01*
X56696Y-33406D01*
X56800Y-33472D01*
X56909Y-33529D01*
X56221Y-32841D02*
X56278Y-32950D01*
X56344Y-33054D01*
X56418Y-33151D01*
X56501Y-33242D01*
X56591Y-33326D01*
X56688Y-33401D01*
X56792Y-33467D01*
X56901Y-33524D01*
X57014Y-33572D01*
X57131Y-33609D01*
X57251Y-33636D01*
X57373Y-33653D01*
X57496Y-33658D01*
X57617Y-33654D01*
X57739Y-33638D01*
X57859Y-33612D01*
X57977Y-33575D01*
X58091Y-33529D01*
X58091Y-30971D02*
X57977Y-30925D01*
X57859Y-30888D01*
X57739Y-30862D01*
X57617Y-30846D01*
X57496Y-30842D01*
X57373Y-30847D01*
X57251Y-30864D01*
X57131Y-30891D01*
X57014Y-30928D01*
X56901Y-30976D01*
X56792Y-31033D01*
X56688Y-31099D01*
X56591Y-31174D01*
X56501Y-31258D01*
X56418Y-31349D01*
X56344Y-31446D01*
X56278Y-31550D01*
X56221Y-31659D01*
X61250Y-36000D02*
X61750Y-36000D01*
X61750Y-36000D02*
X61750Y-37000D01*
X61750Y-37000D02*
X61250Y-37000D01*
X61250Y-35500D02*
X65250Y-35500D01*
X65250Y-35500D02*
X65250Y-37500D01*
X65250Y-37500D02*
X61250Y-37500D01*
X61250Y-37500D02*
X61250Y-35500D01*
X64689Y-25577D02*
X64689Y-28923D01*
X64689Y-28923D02*
X63409Y-28923D01*
X63409Y-28923D02*
X63311Y-28923D01*
X63311Y-28923D02*
X63311Y-25577D01*
X63311Y-25577D02*
X64689Y-25577D01*
X64886Y-24986D02*
X64886Y-25380D01*
X64690Y-25183D02*
X65083Y-25183D01*
X56085Y-27213D02*
X60415Y-27213D01*
X60415Y-27213D02*
X60415Y-28787D01*
X60415Y-28787D02*
X56085Y-28787D01*
X56085Y-28787D02*
X56085Y-27213D01*
X56085Y-34463D02*
X60415Y-34463D01*
X60415Y-34463D02*
X60415Y-36037D01*
X60415Y-36037D02*
X56085Y-36037D01*
X56085Y-36037D02*
X56085Y-34463D01*
X58325Y-26650D02*
X58325Y-25850D01*
X60878Y-26959D02*
X60878Y-26841D01*
X60878Y-26959D02*
X60878Y-27077D01*
X60917Y-26959D02*
X60996Y-26959D01*
X60917Y-26959D02*
X60760Y-26959D01*
G54D13*
X61500Y-26250D02*
X61100Y-26250D01*
X61100Y-26250D02*
X61100Y-26650D01*
X61100Y-26650D02*
X57900Y-26650D01*
X57900Y-26650D02*
X57900Y-25850D01*
X57900Y-25850D02*
X61100Y-25850D01*
X61100Y-25850D02*
X61100Y-26250D01*
X57500Y-26250D02*
X57900Y-26250D01*
G54D11*
X69431Y-43750D02*
X69408Y-43979D01*
X69341Y-44200D01*
X69233Y-44403D01*
X69088Y-44582D01*
X68910Y-44729D01*
X68707Y-44838D01*
X68487Y-44906D01*
X68258Y-44930D01*
X68029Y-44910D01*
X67808Y-44845D01*
X67604Y-44738D01*
X67424Y-44593D01*
X67276Y-44417D01*
X67165Y-44215D01*
X67095Y-43995D01*
X67070Y-43766D01*
X67089Y-43537D01*
X67152Y-43316D01*
X67258Y-43111D01*
X67401Y-42930D01*
X67576Y-42781D01*
X67778Y-42668D01*
X67997Y-42597D01*
X68226Y-42570D01*
X68455Y-42587D01*
X68677Y-42649D01*
X68882Y-42753D01*
X69064Y-42895D01*
X69215Y-43070D01*
X69328Y-43270D01*
X69401Y-43489D01*
X69430Y-43718D01*
X69431Y-43750D01*
X69048Y-42253D02*
X69048Y-42653D01*
X69248Y-42453D02*
X68848Y-42453D01*
X69431Y-30250D02*
X69408Y-30479D01*
X69341Y-30700D01*
X69233Y-30903D01*
X69088Y-31082D01*
X68910Y-31229D01*
X68707Y-31338D01*
X68487Y-31406D01*
X68258Y-31430D01*
X68029Y-31410D01*
X67808Y-31345D01*
X67604Y-31238D01*
X67424Y-31093D01*
X67276Y-30917D01*
X67165Y-30715D01*
X67095Y-30495D01*
X67070Y-30266D01*
X67089Y-30037D01*
X67152Y-29816D01*
X67258Y-29611D01*
X67401Y-29430D01*
X67576Y-29281D01*
X67778Y-29168D01*
X67997Y-29097D01*
X68226Y-29070D01*
X68455Y-29087D01*
X68677Y-29149D01*
X68882Y-29253D01*
X69064Y-29395D01*
X69215Y-29570D01*
X69328Y-29770D01*
X69401Y-29989D01*
X69430Y-30218D01*
X69431Y-30250D01*
X69048Y-28753D02*
X69048Y-29153D01*
X69248Y-28953D02*
X68848Y-28953D01*
X69431Y-37000D02*
X69408Y-37229D01*
X69341Y-37450D01*
X69233Y-37653D01*
X69088Y-37832D01*
X68910Y-37979D01*
X68707Y-38088D01*
X68487Y-38156D01*
X68258Y-38180D01*
X68029Y-38160D01*
X67808Y-38095D01*
X67604Y-37988D01*
X67424Y-37843D01*
X67276Y-37667D01*
X67165Y-37465D01*
X67095Y-37245D01*
X67070Y-37016D01*
X67089Y-36787D01*
X67152Y-36566D01*
X67258Y-36361D01*
X67401Y-36180D01*
X67576Y-36031D01*
X67778Y-35918D01*
X67997Y-35847D01*
X68226Y-35820D01*
X68455Y-35837D01*
X68677Y-35899D01*
X68882Y-36003D01*
X69064Y-36145D01*
X69215Y-36320D01*
X69328Y-36520D01*
X69401Y-36739D01*
X69430Y-36968D01*
X69431Y-37000D01*
X67452Y-38497D02*
X67452Y-38097D01*
X67252Y-38297D02*
X67652Y-38297D01*
X76181Y-30250D02*
X76158Y-30479D01*
X76091Y-30700D01*
X75983Y-30903D01*
X75838Y-31082D01*
X75660Y-31229D01*
X75457Y-31338D01*
X75237Y-31406D01*
X75008Y-31430D01*
X74779Y-31410D01*
X74558Y-31345D01*
X74354Y-31238D01*
X74174Y-31093D01*
X74026Y-30917D01*
X73915Y-30715D01*
X73845Y-30495D01*
X73820Y-30266D01*
X73839Y-30037D01*
X73902Y-29816D01*
X74008Y-29611D01*
X74151Y-29430D01*
X74326Y-29281D01*
X74528Y-29168D01*
X74747Y-29097D01*
X74976Y-29070D01*
X75205Y-29087D01*
X75427Y-29149D01*
X75632Y-29253D01*
X75814Y-29395D01*
X75965Y-29570D01*
X76078Y-29770D01*
X76151Y-29989D01*
X76180Y-30218D01*
X76181Y-30250D01*
X74202Y-31747D02*
X74202Y-31347D01*
X74002Y-31547D02*
X74402Y-31547D01*
X62681Y-30250D02*
X62658Y-30479D01*
X62591Y-30700D01*
X62483Y-30903D01*
X62338Y-31082D01*
X62160Y-31229D01*
X61957Y-31338D01*
X61737Y-31406D01*
X61508Y-31430D01*
X61279Y-31410D01*
X61058Y-31345D01*
X60854Y-31238D01*
X60674Y-31093D01*
X60526Y-30917D01*
X60415Y-30715D01*
X60345Y-30495D01*
X60320Y-30266D01*
X60339Y-30037D01*
X60402Y-29816D01*
X60508Y-29611D01*
X60651Y-29430D01*
X60826Y-29281D01*
X61028Y-29168D01*
X61247Y-29097D01*
X61476Y-29070D01*
X61705Y-29087D01*
X61927Y-29149D01*
X62132Y-29253D01*
X62314Y-29395D01*
X62465Y-29570D01*
X62578Y-29770D01*
X62651Y-29989D01*
X62680Y-30218D01*
X62681Y-30250D01*
X62298Y-28753D02*
X62298Y-29153D01*
X62498Y-28953D02*
X62098Y-28953D01*
X76181Y-43750D02*
X76158Y-43979D01*
X76091Y-44200D01*
X75983Y-44403D01*
X75838Y-44582D01*
X75660Y-44729D01*
X75457Y-44838D01*
X75237Y-44906D01*
X75008Y-44930D01*
X74779Y-44910D01*
X74558Y-44845D01*
X74354Y-44738D01*
X74174Y-44593D01*
X74026Y-44417D01*
X73915Y-44215D01*
X73845Y-43995D01*
X73820Y-43766D01*
X73839Y-43537D01*
X73902Y-43316D01*
X74008Y-43111D01*
X74151Y-42930D01*
X74326Y-42781D01*
X74528Y-42668D01*
X74747Y-42597D01*
X74976Y-42570D01*
X75205Y-42587D01*
X75427Y-42649D01*
X75632Y-42753D01*
X75814Y-42895D01*
X75965Y-43070D01*
X76078Y-43270D01*
X76151Y-43489D01*
X76180Y-43718D01*
X76181Y-43750D01*
X75798Y-42253D02*
X75798Y-42653D01*
X75998Y-42453D02*
X75598Y-42453D01*
X62681Y-43750D02*
X62658Y-43979D01*
X62591Y-44200D01*
X62483Y-44403D01*
X62338Y-44582D01*
X62160Y-44729D01*
X61957Y-44838D01*
X61737Y-44906D01*
X61508Y-44930D01*
X61279Y-44910D01*
X61058Y-44845D01*
X60854Y-44738D01*
X60674Y-44593D01*
X60526Y-44417D01*
X60415Y-44215D01*
X60345Y-43995D01*
X60320Y-43766D01*
X60339Y-43537D01*
X60402Y-43316D01*
X60508Y-43111D01*
X60651Y-42930D01*
X60826Y-42781D01*
X61028Y-42668D01*
X61247Y-42597D01*
X61476Y-42570D01*
X61705Y-42587D01*
X61927Y-42649D01*
X62132Y-42753D01*
X62314Y-42895D01*
X62465Y-43070D01*
X62578Y-43270D01*
X62651Y-43489D01*
X62680Y-43718D01*
X62681Y-43750D01*
X62298Y-42253D02*
X62298Y-42653D01*
X62498Y-42453D02*
X62098Y-42453D01*
X57972Y-41250D02*
X57953Y-41438D01*
X57898Y-41620D01*
X57809Y-41787D01*
X57689Y-41934D01*
X57543Y-42055D01*
X57376Y-42146D01*
X57195Y-42202D01*
X57006Y-42221D01*
X56818Y-42204D01*
X56636Y-42151D01*
X56468Y-42063D01*
X56320Y-41944D01*
X56198Y-41799D01*
X56107Y-41632D01*
X56050Y-41452D01*
X56029Y-41263D01*
X56044Y-41075D01*
X56097Y-40893D01*
X56183Y-40724D01*
X56301Y-40575D01*
X56446Y-40452D01*
X56611Y-40360D01*
X56792Y-40301D01*
X56980Y-40279D01*
X57168Y-40293D01*
X57351Y-40344D01*
X57520Y-40430D01*
X57670Y-40547D01*
X57794Y-40690D01*
X57887Y-40855D01*
X57947Y-41035D01*
X57971Y-41223D01*
X57972Y-41250D01*
X57906Y-39400D02*
X55543Y-39400D01*
X55543Y-39400D02*
X55504Y-39400D01*
X55504Y-39400D02*
X55504Y-40266D01*
X55504Y-40266D02*
X55504Y-43100D01*
X55504Y-43100D02*
X56094Y-43100D01*
X57906Y-39400D02*
X58496Y-39400D01*
X58496Y-39400D02*
X58496Y-39793D01*
X58496Y-42510D02*
X58496Y-39951D01*
X58496Y-39951D02*
X58496Y-39715D01*
X58496Y-42510D02*
X58496Y-43100D01*
X58496Y-43100D02*
X58063Y-43100D01*
X56055Y-43100D02*
X57866Y-43100D01*
X57866Y-43100D02*
X58063Y-43100D01*
G54D13*
X76500Y-33250D02*
X76100Y-33250D01*
X76100Y-33250D02*
X76100Y-33650D01*
X76100Y-33650D02*
X72900Y-33650D01*
X72900Y-33650D02*
X72900Y-32850D01*
X72900Y-32850D02*
X76100Y-32850D01*
X76100Y-32850D02*
X76100Y-33250D01*
X76100Y-33450D02*
X75900Y-33650D01*
X72500Y-33250D02*
X72900Y-33250D01*
X75000Y-34750D02*
X74600Y-34750D01*
X74600Y-34750D02*
X74600Y-35150D01*
X74600Y-35150D02*
X71400Y-35150D01*
X71400Y-35150D02*
X71400Y-34350D01*
X71400Y-34350D02*
X74600Y-34350D01*
X74600Y-34350D02*
X74600Y-34750D01*
X74600Y-34950D02*
X74400Y-35150D01*
X71000Y-34750D02*
X71400Y-34750D01*
X66000Y-28250D02*
X66000Y-28650D01*
X66000Y-28650D02*
X66400Y-28650D01*
X66400Y-28650D02*
X66400Y-31850D01*
X66400Y-31850D02*
X65600Y-31850D01*
X65600Y-31850D02*
X65600Y-28650D01*
X65600Y-28650D02*
X66000Y-28650D01*
X66200Y-28650D02*
X66400Y-28850D01*
X66000Y-32250D02*
X66000Y-31850D01*
X68000Y-39500D02*
X67600Y-39500D01*
X67600Y-39500D02*
X67600Y-39900D01*
X67600Y-39900D02*
X64400Y-39900D01*
X64400Y-39900D02*
X64400Y-39100D01*
X64400Y-39100D02*
X67600Y-39100D01*
X67600Y-39100D02*
X67600Y-39500D01*
X67600Y-39700D02*
X67400Y-39900D01*
X64000Y-39500D02*
X64400Y-39500D01*
X60000Y-37500D02*
X59600Y-37500D01*
X59600Y-37500D02*
X59600Y-37900D01*
X59600Y-37900D02*
X56400Y-37900D01*
X56400Y-37900D02*
X56400Y-37100D01*
X56400Y-37100D02*
X59600Y-37100D01*
X59600Y-37100D02*
X59600Y-37500D01*
X59600Y-37700D02*
X59400Y-37900D01*
X56000Y-37500D02*
X56400Y-37500D01*
G54D10*
X57013Y-32250D02*
X57004Y-32335D01*
X56979Y-32416D01*
X56939Y-32492D01*
X56885Y-32558D01*
X56819Y-32613D01*
X56744Y-32653D01*
X56663Y-32679D01*
X56578Y-32687D01*
X56493Y-32680D01*
X56411Y-32656D01*
X56336Y-32616D01*
X56269Y-32562D01*
X56214Y-32497D01*
X56173Y-32422D01*
X56147Y-32341D01*
X56138Y-32256D01*
X56145Y-32171D01*
X56168Y-32089D01*
X56207Y-32013D01*
X56260Y-31946D01*
X56326Y-31891D01*
X56400Y-31849D01*
X56481Y-31823D01*
X56566Y-31813D01*
X56651Y-31819D01*
X56733Y-31842D01*
X56809Y-31881D01*
X56877Y-31933D01*
X56932Y-31998D01*
X56975Y-32072D01*
X57002Y-32153D01*
X57012Y-32238D01*
X57013Y-32250D01*
X58017Y-33116D02*
X58008Y-33201D01*
X57983Y-33282D01*
X57943Y-33358D01*
X57889Y-33424D01*
X57823Y-33479D01*
X57748Y-33519D01*
X57667Y-33545D01*
X57582Y-33553D01*
X57497Y-33546D01*
X57415Y-33522D01*
X57340Y-33482D01*
X57273Y-33428D01*
X57218Y-33363D01*
X57177Y-33288D01*
X57151Y-33207D01*
X57142Y-33122D01*
X57149Y-33037D01*
X57172Y-32955D01*
X57211Y-32879D01*
X57264Y-32812D01*
X57330Y-32757D01*
X57404Y-32715D01*
X57485Y-32689D01*
X57570Y-32679D01*
X57655Y-32685D01*
X57737Y-32708D01*
X57813Y-32747D01*
X57881Y-32799D01*
X57936Y-32864D01*
X57979Y-32938D01*
X58006Y-33019D01*
X58016Y-33104D01*
X58017Y-33116D01*
X58017Y-31364D02*
X58008Y-31449D01*
X57983Y-31530D01*
X57943Y-31606D01*
X57889Y-31672D01*
X57823Y-31727D01*
X57748Y-31767D01*
X57667Y-31793D01*
X57582Y-31801D01*
X57497Y-31794D01*
X57415Y-31770D01*
X57340Y-31730D01*
X57273Y-31676D01*
X57218Y-31611D01*
X57177Y-31536D01*
X57151Y-31455D01*
X57142Y-31370D01*
X57149Y-31285D01*
X57172Y-31203D01*
X57211Y-31127D01*
X57264Y-31060D01*
X57330Y-31005D01*
X57404Y-30963D01*
X57485Y-30937D01*
X57570Y-30927D01*
X57655Y-30933D01*
X57737Y-30956D01*
X57813Y-30995D01*
X57881Y-31047D01*
X57936Y-31112D01*
X57979Y-31186D01*
X58006Y-31267D01*
X58016Y-31352D01*
X58017Y-31364D01*
X61445Y-37555D02*
X61445Y-38445D01*
X62055Y-38445D01*
X62055Y-37555D01*
X61445Y-37555D01*
X62445Y-37860D02*
X62445Y-38140D01*
X63055Y-37860D02*
X63055Y-38140D01*
X62445Y-38140D02*
X62447Y-38166D01*
X62450Y-38192D01*
X62456Y-38218D01*
X62464Y-38244D01*
X62474Y-38268D01*
X62486Y-38292D01*
X62501Y-38314D01*
X62517Y-38336D01*
X62535Y-38355D01*
X62554Y-38373D01*
X62576Y-38389D01*
X62598Y-38404D01*
X62622Y-38416D01*
X62646Y-38426D01*
X62672Y-38434D01*
X62698Y-38440D01*
X62724Y-38443D01*
X62750Y-38445D01*
X62776Y-38443D01*
X62802Y-38440D01*
X62828Y-38434D01*
X62854Y-38426D01*
X62878Y-38416D01*
X62902Y-38404D01*
X62924Y-38389D01*
X62946Y-38373D01*
X62965Y-38355D01*
X62983Y-38336D01*
X62999Y-38314D01*
X63014Y-38292D01*
X63026Y-38268D01*
X63036Y-38244D01*
X63044Y-38218D01*
X63050Y-38192D01*
X63053Y-38166D01*
X63055Y-38140D01*
X63055Y-37860D02*
X63053Y-37834D01*
X63050Y-37808D01*
X63044Y-37782D01*
X63036Y-37756D01*
X63026Y-37732D01*
X63014Y-37708D01*
X62999Y-37686D01*
X62983Y-37664D01*
X62965Y-37645D01*
X62946Y-37627D01*
X62924Y-37611D01*
X62902Y-37596D01*
X62878Y-37584D01*
X62854Y-37574D01*
X62828Y-37566D01*
X62802Y-37560D01*
X62776Y-37557D01*
X62750Y-37555D01*
X62724Y-37557D01*
X62698Y-37560D01*
X62672Y-37566D01*
X62646Y-37574D01*
X62622Y-37584D01*
X62598Y-37596D01*
X62576Y-37611D01*
X62554Y-37627D01*
X62535Y-37645D01*
X62517Y-37664D01*
X62501Y-37686D01*
X62486Y-37708D01*
X62474Y-37732D01*
X62464Y-37756D01*
X62456Y-37782D01*
X62450Y-37808D01*
X62447Y-37834D01*
X62445Y-37860D01*
X63445Y-37860D02*
X63445Y-38140D01*
X64055Y-37860D02*
X64055Y-38140D01*
X63445Y-38140D02*
X63447Y-38166D01*
X63450Y-38192D01*
X63456Y-38218D01*
X63464Y-38244D01*
X63474Y-38268D01*
X63486Y-38292D01*
X63501Y-38314D01*
X63517Y-38336D01*
X63535Y-38355D01*
X63554Y-38373D01*
X63576Y-38389D01*
X63598Y-38404D01*
X63622Y-38416D01*
X63646Y-38426D01*
X63672Y-38434D01*
X63698Y-38440D01*
X63724Y-38443D01*
X63750Y-38445D01*
X63776Y-38443D01*
X63802Y-38440D01*
X63828Y-38434D01*
X63854Y-38426D01*
X63878Y-38416D01*
X63902Y-38404D01*
X63924Y-38389D01*
X63946Y-38373D01*
X63965Y-38355D01*
X63983Y-38336D01*
X63999Y-38314D01*
X64014Y-38292D01*
X64026Y-38268D01*
X64036Y-38244D01*
X64044Y-38218D01*
X64050Y-38192D01*
X64053Y-38166D01*
X64055Y-38140D01*
X64055Y-37860D02*
X64053Y-37834D01*
X64050Y-37808D01*
X64044Y-37782D01*
X64036Y-37756D01*
X64026Y-37732D01*
X64014Y-37708D01*
X63999Y-37686D01*
X63983Y-37664D01*
X63965Y-37645D01*
X63946Y-37627D01*
X63924Y-37611D01*
X63902Y-37596D01*
X63878Y-37584D01*
X63854Y-37574D01*
X63828Y-37566D01*
X63802Y-37560D01*
X63776Y-37557D01*
X63750Y-37555D01*
X63724Y-37557D01*
X63698Y-37560D01*
X63672Y-37566D01*
X63646Y-37574D01*
X63622Y-37584D01*
X63598Y-37596D01*
X63576Y-37611D01*
X63554Y-37627D01*
X63535Y-37645D01*
X63517Y-37664D01*
X63501Y-37686D01*
X63486Y-37708D01*
X63474Y-37732D01*
X63464Y-37756D01*
X63456Y-37782D01*
X63450Y-37808D01*
X63447Y-37834D01*
X63445Y-37860D01*
X64445Y-37860D02*
X64445Y-38140D01*
X65055Y-37860D02*
X65055Y-38140D01*
X64445Y-38140D02*
X64447Y-38166D01*
X64450Y-38192D01*
X64456Y-38218D01*
X64464Y-38244D01*
X64474Y-38268D01*
X64486Y-38292D01*
X64501Y-38314D01*
X64517Y-38336D01*
X64535Y-38355D01*
X64554Y-38373D01*
X64576Y-38389D01*
X64598Y-38404D01*
X64622Y-38416D01*
X64646Y-38426D01*
X64672Y-38434D01*
X64698Y-38440D01*
X64724Y-38443D01*
X64750Y-38445D01*
X64776Y-38443D01*
X64802Y-38440D01*
X64828Y-38434D01*
X64854Y-38426D01*
X64878Y-38416D01*
X64902Y-38404D01*
X64924Y-38389D01*
X64946Y-38373D01*
X64965Y-38355D01*
X64983Y-38336D01*
X64999Y-38314D01*
X65014Y-38292D01*
X65026Y-38268D01*
X65036Y-38244D01*
X65044Y-38218D01*
X65050Y-38192D01*
X65053Y-38166D01*
X65055Y-38140D01*
X65055Y-37860D02*
X65053Y-37834D01*
X65050Y-37808D01*
X65044Y-37782D01*
X65036Y-37756D01*
X65026Y-37732D01*
X65014Y-37708D01*
X64999Y-37686D01*
X64983Y-37664D01*
X64965Y-37645D01*
X64946Y-37627D01*
X64924Y-37611D01*
X64902Y-37596D01*
X64878Y-37584D01*
X64854Y-37574D01*
X64828Y-37566D01*
X64802Y-37560D01*
X64776Y-37557D01*
X64750Y-37555D01*
X64724Y-37557D01*
X64698Y-37560D01*
X64672Y-37566D01*
X64646Y-37574D01*
X64622Y-37584D01*
X64598Y-37596D01*
X64576Y-37611D01*
X64554Y-37627D01*
X64535Y-37645D01*
X64517Y-37664D01*
X64501Y-37686D01*
X64486Y-37708D01*
X64474Y-37732D01*
X64464Y-37756D01*
X64456Y-37782D01*
X64450Y-37808D01*
X64447Y-37834D01*
X64445Y-37860D01*
X64445Y-34860D02*
X64445Y-35140D01*
X65055Y-34860D02*
X65055Y-35140D01*
X64445Y-35140D02*
X64447Y-35166D01*
X64450Y-35192D01*
X64456Y-35218D01*
X64464Y-35244D01*
X64474Y-35268D01*
X64486Y-35292D01*
X64501Y-35314D01*
X64517Y-35336D01*
X64535Y-35355D01*
X64554Y-35373D01*
X64576Y-35389D01*
X64598Y-35404D01*
X64622Y-35416D01*
X64646Y-35426D01*
X64672Y-35434D01*
X64698Y-35440D01*
X64724Y-35443D01*
X64750Y-35445D01*
X64776Y-35443D01*
X64802Y-35440D01*
X64828Y-35434D01*
X64854Y-35426D01*
X64878Y-35416D01*
X64902Y-35404D01*
X64924Y-35389D01*
X64946Y-35373D01*
X64965Y-35355D01*
X64983Y-35336D01*
X64999Y-35314D01*
X65014Y-35292D01*
X65026Y-35268D01*
X65036Y-35244D01*
X65044Y-35218D01*
X65050Y-35192D01*
X65053Y-35166D01*
X65055Y-35140D01*
X65055Y-34860D02*
X65053Y-34834D01*
X65050Y-34808D01*
X65044Y-34782D01*
X65036Y-34756D01*
X65026Y-34732D01*
X65014Y-34708D01*
X64999Y-34686D01*
X64983Y-34664D01*
X64965Y-34645D01*
X64946Y-34627D01*
X64924Y-34611D01*
X64902Y-34596D01*
X64878Y-34584D01*
X64854Y-34574D01*
X64828Y-34566D01*
X64802Y-34560D01*
X64776Y-34557D01*
X64750Y-34555D01*
X64724Y-34557D01*
X64698Y-34560D01*
X64672Y-34566D01*
X64646Y-34574D01*
X64622Y-34584D01*
X64598Y-34596D01*
X64576Y-34611D01*
X64554Y-34627D01*
X64535Y-34645D01*
X64517Y-34664D01*
X64501Y-34686D01*
X64486Y-34708D01*
X64474Y-34732D01*
X64464Y-34756D01*
X64456Y-34782D01*
X64450Y-34808D01*
X64447Y-34834D01*
X64445Y-34860D01*
X63445Y-34860D02*
X63445Y-35140D01*
X64055Y-34860D02*
X64055Y-35140D01*
X63445Y-35140D02*
X63447Y-35166D01*
X63450Y-35192D01*
X63456Y-35218D01*
X63464Y-35244D01*
X63474Y-35268D01*
X63486Y-35292D01*
X63501Y-35314D01*
X63517Y-35336D01*
X63535Y-35355D01*
X63554Y-35373D01*
X63576Y-35389D01*
X63598Y-35404D01*
X63622Y-35416D01*
X63646Y-35426D01*
X63672Y-35434D01*
X63698Y-35440D01*
X63724Y-35443D01*
X63750Y-35445D01*
X63776Y-35443D01*
X63802Y-35440D01*
X63828Y-35434D01*
X63854Y-35426D01*
X63878Y-35416D01*
X63902Y-35404D01*
X63924Y-35389D01*
X63946Y-35373D01*
X63965Y-35355D01*
X63983Y-35336D01*
X63999Y-35314D01*
X64014Y-35292D01*
X64026Y-35268D01*
X64036Y-35244D01*
X64044Y-35218D01*
X64050Y-35192D01*
X64053Y-35166D01*
X64055Y-35140D01*
X64055Y-34860D02*
X64053Y-34834D01*
X64050Y-34808D01*
X64044Y-34782D01*
X64036Y-34756D01*
X64026Y-34732D01*
X64014Y-34708D01*
X63999Y-34686D01*
X63983Y-34664D01*
X63965Y-34645D01*
X63946Y-34627D01*
X63924Y-34611D01*
X63902Y-34596D01*
X63878Y-34584D01*
X63854Y-34574D01*
X63828Y-34566D01*
X63802Y-34560D01*
X63776Y-34557D01*
X63750Y-34555D01*
X63724Y-34557D01*
X63698Y-34560D01*
X63672Y-34566D01*
X63646Y-34574D01*
X63622Y-34584D01*
X63598Y-34596D01*
X63576Y-34611D01*
X63554Y-34627D01*
X63535Y-34645D01*
X63517Y-34664D01*
X63501Y-34686D01*
X63486Y-34708D01*
X63474Y-34732D01*
X63464Y-34756D01*
X63456Y-34782D01*
X63450Y-34808D01*
X63447Y-34834D01*
X63445Y-34860D01*
X62445Y-34860D02*
X62445Y-35140D01*
X63055Y-34860D02*
X63055Y-35140D01*
X62445Y-35140D02*
X62447Y-35166D01*
X62450Y-35192D01*
X62456Y-35218D01*
X62464Y-35244D01*
X62474Y-35268D01*
X62486Y-35292D01*
X62501Y-35314D01*
X62517Y-35336D01*
X62535Y-35355D01*
X62554Y-35373D01*
X62576Y-35389D01*
X62598Y-35404D01*
X62622Y-35416D01*
X62646Y-35426D01*
X62672Y-35434D01*
X62698Y-35440D01*
X62724Y-35443D01*
X62750Y-35445D01*
X62776Y-35443D01*
X62802Y-35440D01*
X62828Y-35434D01*
X62854Y-35426D01*
X62878Y-35416D01*
X62902Y-35404D01*
X62924Y-35389D01*
X62946Y-35373D01*
X62965Y-35355D01*
X62983Y-35336D01*
X62999Y-35314D01*
X63014Y-35292D01*
X63026Y-35268D01*
X63036Y-35244D01*
X63044Y-35218D01*
X63050Y-35192D01*
X63053Y-35166D01*
X63055Y-35140D01*
X63055Y-34860D02*
X63053Y-34834D01*
X63050Y-34808D01*
X63044Y-34782D01*
X63036Y-34756D01*
X63026Y-34732D01*
X63014Y-34708D01*
X62999Y-34686D01*
X62983Y-34664D01*
X62965Y-34645D01*
X62946Y-34627D01*
X62924Y-34611D01*
X62902Y-34596D01*
X62878Y-34584D01*
X62854Y-34574D01*
X62828Y-34566D01*
X62802Y-34560D01*
X62776Y-34557D01*
X62750Y-34555D01*
X62724Y-34557D01*
X62698Y-34560D01*
X62672Y-34566D01*
X62646Y-34574D01*
X62622Y-34584D01*
X62598Y-34596D01*
X62576Y-34611D01*
X62554Y-34627D01*
X62535Y-34645D01*
X62517Y-34664D01*
X62501Y-34686D01*
X62486Y-34708D01*
X62474Y-34732D01*
X62464Y-34756D01*
X62456Y-34782D01*
X62450Y-34808D01*
X62447Y-34834D01*
X62445Y-34860D01*
X61445Y-34860D02*
X61445Y-35140D01*
X62055Y-34860D02*
X62055Y-35140D01*
X61445Y-35140D02*
X61447Y-35166D01*
X61450Y-35192D01*
X61456Y-35218D01*
X61464Y-35244D01*
X61474Y-35268D01*
X61486Y-35292D01*
X61501Y-35314D01*
X61517Y-35336D01*
X61535Y-35355D01*
X61554Y-35373D01*
X61576Y-35389D01*
X61598Y-35404D01*
X61622Y-35416D01*
X61646Y-35426D01*
X61672Y-35434D01*
X61698Y-35440D01*
X61724Y-35443D01*
X61750Y-35445D01*
X61776Y-35443D01*
X61802Y-35440D01*
X61828Y-35434D01*
X61854Y-35426D01*
X61878Y-35416D01*
X61902Y-35404D01*
X61924Y-35389D01*
X61946Y-35373D01*
X61965Y-35355D01*
X61983Y-35336D01*
X61999Y-35314D01*
X62014Y-35292D01*
X62026Y-35268D01*
X62036Y-35244D01*
X62044Y-35218D01*
X62050Y-35192D01*
X62053Y-35166D01*
X62055Y-35140D01*
X62055Y-34860D02*
X62053Y-34834D01*
X62050Y-34808D01*
X62044Y-34782D01*
X62036Y-34756D01*
X62026Y-34732D01*
X62014Y-34708D01*
X61999Y-34686D01*
X61983Y-34664D01*
X61965Y-34645D01*
X61946Y-34627D01*
X61924Y-34611D01*
X61902Y-34596D01*
X61878Y-34584D01*
X61854Y-34574D01*
X61828Y-34566D01*
X61802Y-34560D01*
X61776Y-34557D01*
X61750Y-34555D01*
X61724Y-34557D01*
X61698Y-34560D01*
X61672Y-34566D01*
X61646Y-34574D01*
X61622Y-34584D01*
X61598Y-34596D01*
X61576Y-34611D01*
X61554Y-34627D01*
X61535Y-34645D01*
X61517Y-34664D01*
X61501Y-34686D01*
X61486Y-34708D01*
X61474Y-34732D01*
X61464Y-34756D01*
X61456Y-34782D01*
X61450Y-34808D01*
X61447Y-34834D01*
X61445Y-34860D01*
X63562Y-25812D02*
X63562Y-26688D01*
X64438Y-26688D01*
X64438Y-25812D01*
X63562Y-25812D01*
X64438Y-28250D02*
X64429Y-28335D01*
X64404Y-28416D01*
X64364Y-28492D01*
X64310Y-28558D01*
X64244Y-28613D01*
X64169Y-28653D01*
X64088Y-28679D01*
X64003Y-28687D01*
X63918Y-28680D01*
X63836Y-28656D01*
X63761Y-28616D01*
X63694Y-28562D01*
X63639Y-28497D01*
X63598Y-28422D01*
X63572Y-28341D01*
X63563Y-28256D01*
X63570Y-28171D01*
X63593Y-28089D01*
X63632Y-28013D01*
X63685Y-27946D01*
X63751Y-27891D01*
X63825Y-27849D01*
X63906Y-27823D01*
X63991Y-27813D01*
X64076Y-27819D01*
X64158Y-27842D01*
X64234Y-27881D01*
X64302Y-27933D01*
X64357Y-27998D01*
X64400Y-28072D01*
X64427Y-28153D01*
X64437Y-28238D01*
X64438Y-28250D01*
X56336Y-27562D02*
X56336Y-28438D01*
X57212Y-28438D01*
X57212Y-27562D01*
X56336Y-27562D01*
X60164Y-28000D02*
X60155Y-28085D01*
X60130Y-28166D01*
X60090Y-28242D01*
X60036Y-28308D01*
X59970Y-28363D01*
X59895Y-28403D01*
X59814Y-28429D01*
X59729Y-28437D01*
X59644Y-28430D01*
X59562Y-28406D01*
X59487Y-28366D01*
X59420Y-28312D01*
X59365Y-28247D01*
X59324Y-28172D01*
X59298Y-28091D01*
X59289Y-28006D01*
X59296Y-27921D01*
X59319Y-27839D01*
X59358Y-27763D01*
X59411Y-27696D01*
X59477Y-27641D01*
X59551Y-27599D01*
X59632Y-27573D01*
X59717Y-27563D01*
X59802Y-27569D01*
X59884Y-27592D01*
X59960Y-27631D01*
X60028Y-27683D01*
X60083Y-27748D01*
X60126Y-27822D01*
X60153Y-27903D01*
X60163Y-27988D01*
X60164Y-28000D01*
X59180Y-28000D02*
X59171Y-28085D01*
X59146Y-28166D01*
X59106Y-28242D01*
X59052Y-28308D01*
X58986Y-28363D01*
X58911Y-28403D01*
X58830Y-28429D01*
X58745Y-28437D01*
X58660Y-28430D01*
X58578Y-28406D01*
X58503Y-28366D01*
X58436Y-28312D01*
X58381Y-28247D01*
X58340Y-28172D01*
X58314Y-28091D01*
X58305Y-28006D01*
X58312Y-27921D01*
X58335Y-27839D01*
X58374Y-27763D01*
X58427Y-27696D01*
X58493Y-27641D01*
X58567Y-27599D01*
X58648Y-27573D01*
X58733Y-27563D01*
X58818Y-27569D01*
X58900Y-27592D01*
X58976Y-27631D01*
X59044Y-27683D01*
X59099Y-27748D01*
X59142Y-27822D01*
X59169Y-27903D01*
X59179Y-27988D01*
X59180Y-28000D01*
X56336Y-34812D02*
X56336Y-35688D01*
X57212Y-35688D01*
X57212Y-34812D01*
X56336Y-34812D01*
X60164Y-35250D02*
X60155Y-35335D01*
X60130Y-35416D01*
X60090Y-35492D01*
X60036Y-35558D01*
X59970Y-35613D01*
X59895Y-35653D01*
X59814Y-35679D01*
X59729Y-35687D01*
X59644Y-35680D01*
X59562Y-35656D01*
X59487Y-35616D01*
X59420Y-35562D01*
X59365Y-35497D01*
X59324Y-35422D01*
X59298Y-35341D01*
X59289Y-35256D01*
X59296Y-35171D01*
X59319Y-35089D01*
X59358Y-35013D01*
X59411Y-34946D01*
X59477Y-34891D01*
X59551Y-34849D01*
X59632Y-34823D01*
X59717Y-34813D01*
X59802Y-34819D01*
X59884Y-34842D01*
X59960Y-34881D01*
X60028Y-34933D01*
X60083Y-34998D01*
X60126Y-35072D01*
X60153Y-35153D01*
X60163Y-35238D01*
X60164Y-35250D01*
X59180Y-35250D02*
X59171Y-35335D01*
X59146Y-35416D01*
X59106Y-35492D01*
X59052Y-35558D01*
X58986Y-35613D01*
X58911Y-35653D01*
X58830Y-35679D01*
X58745Y-35687D01*
X58660Y-35680D01*
X58578Y-35656D01*
X58503Y-35616D01*
X58436Y-35562D01*
X58381Y-35497D01*
X58340Y-35422D01*
X58314Y-35341D01*
X58305Y-35256D01*
X58312Y-35171D01*
X58335Y-35089D01*
X58374Y-35013D01*
X58427Y-34946D01*
X58493Y-34891D01*
X58567Y-34849D01*
X58648Y-34823D01*
X58733Y-34813D01*
X58818Y-34819D01*
X58900Y-34842D01*
X58976Y-34881D01*
X59044Y-34933D01*
X59099Y-34998D01*
X59142Y-35072D01*
X59169Y-35153D01*
X59179Y-35238D01*
X59180Y-35250D01*
X61062Y-25812D02*
X61062Y-26688D01*
X61938Y-26688D01*
X61938Y-25812D01*
X61062Y-25812D01*
X57938Y-26250D02*
X57929Y-26335D01*
X57904Y-26416D01*
X57864Y-26492D01*
X57810Y-26558D01*
X57744Y-26613D01*
X57669Y-26653D01*
X57588Y-26679D01*
X57503Y-26687D01*
X57418Y-26680D01*
X57336Y-26656D01*
X57261Y-26616D01*
X57194Y-26562D01*
X57139Y-26497D01*
X57098Y-26422D01*
X57072Y-26341D01*
X57063Y-26256D01*
X57070Y-26171D01*
X57093Y-26089D01*
X57132Y-26013D01*
X57185Y-25946D01*
X57251Y-25891D01*
X57325Y-25849D01*
X57406Y-25823D01*
X57491Y-25813D01*
X57576Y-25819D01*
X57658Y-25842D01*
X57734Y-25881D01*
X57802Y-25933D01*
X57857Y-25998D01*
X57900Y-26072D01*
X57927Y-26153D01*
X57937Y-26238D01*
X57938Y-26250D01*
X67812Y-42721D02*
X67812Y-43597D01*
X68688Y-43597D01*
X68688Y-42721D01*
X67812Y-42721D01*
X68688Y-44341D02*
X68679Y-44426D01*
X68654Y-44507D01*
X68614Y-44583D01*
X68560Y-44649D01*
X68494Y-44704D01*
X68419Y-44744D01*
X68338Y-44770D01*
X68253Y-44778D01*
X68168Y-44771D01*
X68086Y-44747D01*
X68011Y-44707D01*
X67944Y-44653D01*
X67889Y-44588D01*
X67848Y-44513D01*
X67822Y-44432D01*
X67813Y-44347D01*
X67820Y-44262D01*
X67843Y-44180D01*
X67882Y-44104D01*
X67935Y-44037D01*
X68001Y-43982D01*
X68075Y-43940D01*
X68156Y-43914D01*
X68241Y-43904D01*
X68326Y-43910D01*
X68408Y-43933D01*
X68484Y-43972D01*
X68552Y-44024D01*
X68607Y-44089D01*
X68650Y-44163D01*
X68677Y-44244D01*
X68687Y-44329D01*
X68688Y-44341D01*
X67812Y-29221D02*
X67812Y-30097D01*
X68688Y-30097D01*
X68688Y-29221D01*
X67812Y-29221D01*
X68688Y-30841D02*
X68679Y-30926D01*
X68654Y-31007D01*
X68614Y-31083D01*
X68560Y-31149D01*
X68494Y-31204D01*
X68419Y-31244D01*
X68338Y-31270D01*
X68253Y-31278D01*
X68168Y-31271D01*
X68086Y-31247D01*
X68011Y-31207D01*
X67944Y-31153D01*
X67889Y-31088D01*
X67848Y-31013D01*
X67822Y-30932D01*
X67813Y-30847D01*
X67820Y-30762D01*
X67843Y-30680D01*
X67882Y-30604D01*
X67935Y-30537D01*
X68001Y-30482D01*
X68075Y-30440D01*
X68156Y-30414D01*
X68241Y-30404D01*
X68326Y-30410D01*
X68408Y-30433D01*
X68484Y-30472D01*
X68552Y-30524D01*
X68607Y-30589D01*
X68650Y-30663D01*
X68677Y-30744D01*
X68687Y-30829D01*
X68688Y-30841D01*
X67812Y-37153D02*
X67812Y-38029D01*
X68688Y-38029D01*
X68688Y-37153D01*
X67812Y-37153D01*
X68688Y-36409D02*
X68679Y-36494D01*
X68654Y-36575D01*
X68614Y-36651D01*
X68560Y-36717D01*
X68494Y-36772D01*
X68419Y-36812D01*
X68338Y-36838D01*
X68253Y-36846D01*
X68168Y-36839D01*
X68086Y-36815D01*
X68011Y-36775D01*
X67944Y-36721D01*
X67889Y-36656D01*
X67848Y-36581D01*
X67822Y-36500D01*
X67813Y-36415D01*
X67820Y-36330D01*
X67843Y-36248D01*
X67882Y-36172D01*
X67935Y-36105D01*
X68001Y-36050D01*
X68075Y-36008D01*
X68156Y-35982D01*
X68241Y-35972D01*
X68326Y-35978D01*
X68408Y-36001D01*
X68484Y-36040D01*
X68552Y-36092D01*
X68607Y-36157D01*
X68650Y-36231D01*
X68677Y-36312D01*
X68687Y-36397D01*
X68688Y-36409D01*
X74562Y-30403D02*
X74562Y-31279D01*
X75438Y-31279D01*
X75438Y-30403D01*
X74562Y-30403D01*
X75438Y-29659D02*
X75429Y-29744D01*
X75404Y-29825D01*
X75364Y-29901D01*
X75310Y-29967D01*
X75244Y-30022D01*
X75169Y-30062D01*
X75088Y-30088D01*
X75003Y-30096D01*
X74918Y-30089D01*
X74836Y-30065D01*
X74761Y-30025D01*
X74694Y-29971D01*
X74639Y-29906D01*
X74598Y-29831D01*
X74572Y-29750D01*
X74563Y-29665D01*
X74570Y-29580D01*
X74593Y-29498D01*
X74632Y-29422D01*
X74685Y-29355D01*
X74751Y-29300D01*
X74825Y-29258D01*
X74906Y-29232D01*
X74991Y-29222D01*
X75076Y-29228D01*
X75158Y-29251D01*
X75234Y-29290D01*
X75302Y-29342D01*
X75357Y-29407D01*
X75400Y-29481D01*
X75427Y-29562D01*
X75437Y-29647D01*
X75438Y-29659D01*
X61062Y-29221D02*
X61062Y-30097D01*
X61938Y-30097D01*
X61938Y-29221D01*
X61062Y-29221D01*
X61938Y-30841D02*
X61929Y-30926D01*
X61904Y-31007D01*
X61864Y-31083D01*
X61810Y-31149D01*
X61744Y-31204D01*
X61669Y-31244D01*
X61588Y-31270D01*
X61503Y-31278D01*
X61418Y-31271D01*
X61336Y-31247D01*
X61261Y-31207D01*
X61194Y-31153D01*
X61139Y-31088D01*
X61098Y-31013D01*
X61072Y-30932D01*
X61063Y-30847D01*
X61070Y-30762D01*
X61093Y-30680D01*
X61132Y-30604D01*
X61185Y-30537D01*
X61251Y-30482D01*
X61325Y-30440D01*
X61406Y-30414D01*
X61491Y-30404D01*
X61576Y-30410D01*
X61658Y-30433D01*
X61734Y-30472D01*
X61802Y-30524D01*
X61857Y-30589D01*
X61900Y-30663D01*
X61927Y-30744D01*
X61937Y-30829D01*
X61938Y-30841D01*
X74562Y-42721D02*
X74562Y-43597D01*
X75438Y-43597D01*
X75438Y-42721D01*
X74562Y-42721D01*
X75438Y-44341D02*
X75429Y-44426D01*
X75404Y-44507D01*
X75364Y-44583D01*
X75310Y-44649D01*
X75244Y-44704D01*
X75169Y-44744D01*
X75088Y-44770D01*
X75003Y-44778D01*
X74918Y-44771D01*
X74836Y-44747D01*
X74761Y-44707D01*
X74694Y-44653D01*
X74639Y-44588D01*
X74598Y-44513D01*
X74572Y-44432D01*
X74563Y-44347D01*
X74570Y-44262D01*
X74593Y-44180D01*
X74632Y-44104D01*
X74685Y-44037D01*
X74751Y-43982D01*
X74825Y-43940D01*
X74906Y-43914D01*
X74991Y-43904D01*
X75076Y-43910D01*
X75158Y-43933D01*
X75234Y-43972D01*
X75302Y-44024D01*
X75357Y-44089D01*
X75400Y-44163D01*
X75427Y-44244D01*
X75437Y-44329D01*
X75438Y-44341D01*
X61062Y-42721D02*
X61062Y-43597D01*
X61938Y-43597D01*
X61938Y-42721D01*
X61062Y-42721D01*
X61938Y-44341D02*
X61929Y-44426D01*
X61904Y-44507D01*
X61864Y-44583D01*
X61810Y-44649D01*
X61744Y-44704D01*
X61669Y-44744D01*
X61588Y-44770D01*
X61503Y-44778D01*
X61418Y-44771D01*
X61336Y-44747D01*
X61261Y-44707D01*
X61194Y-44653D01*
X61139Y-44588D01*
X61098Y-44513D01*
X61072Y-44432D01*
X61063Y-44347D01*
X61070Y-44262D01*
X61093Y-44180D01*
X61132Y-44104D01*
X61185Y-44037D01*
X61251Y-43982D01*
X61325Y-43940D01*
X61406Y-43914D01*
X61491Y-43904D01*
X61576Y-43910D01*
X61658Y-43933D01*
X61734Y-43972D01*
X61802Y-44024D01*
X61857Y-44089D01*
X61900Y-44163D01*
X61927Y-44244D01*
X61937Y-44329D01*
X61938Y-44341D01*
X56532Y-39990D02*
X56523Y-40075D01*
X56498Y-40156D01*
X56458Y-40232D01*
X56404Y-40298D01*
X56338Y-40353D01*
X56263Y-40393D01*
X56182Y-40419D01*
X56097Y-40427D01*
X56012Y-40420D01*
X55930Y-40396D01*
X55855Y-40356D01*
X55788Y-40302D01*
X55733Y-40237D01*
X55692Y-40162D01*
X55666Y-40081D01*
X55657Y-39996D01*
X55664Y-39911D01*
X55687Y-39829D01*
X55726Y-39753D01*
X55779Y-39686D01*
X55845Y-39631D01*
X55919Y-39589D01*
X56000Y-39563D01*
X56085Y-39553D01*
X56170Y-39559D01*
X56252Y-39582D01*
X56328Y-39621D01*
X56396Y-39673D01*
X56451Y-39738D01*
X56494Y-39812D01*
X56521Y-39893D01*
X56531Y-39978D01*
X56532Y-39990D01*
X58344Y-39990D02*
X58335Y-40075D01*
X58310Y-40156D01*
X58270Y-40232D01*
X58216Y-40298D01*
X58150Y-40353D01*
X58075Y-40393D01*
X57994Y-40419D01*
X57909Y-40427D01*
X57824Y-40420D01*
X57742Y-40396D01*
X57667Y-40356D01*
X57600Y-40302D01*
X57545Y-40237D01*
X57504Y-40162D01*
X57478Y-40081D01*
X57469Y-39996D01*
X57476Y-39911D01*
X57499Y-39829D01*
X57538Y-39753D01*
X57591Y-39686D01*
X57657Y-39631D01*
X57731Y-39589D01*
X57812Y-39563D01*
X57897Y-39553D01*
X57982Y-39559D01*
X58064Y-39582D01*
X58140Y-39621D01*
X58208Y-39673D01*
X58263Y-39738D01*
X58306Y-39812D01*
X58333Y-39893D01*
X58343Y-39978D01*
X58344Y-39990D01*
X58344Y-42510D02*
X58335Y-42595D01*
X58310Y-42676D01*
X58270Y-42752D01*
X58216Y-42818D01*
X58150Y-42873D01*
X58075Y-42913D01*
X57994Y-42939D01*
X57909Y-42947D01*
X57824Y-42940D01*
X57742Y-42916D01*
X57667Y-42876D01*
X57600Y-42822D01*
X57545Y-42757D01*
X57504Y-42682D01*
X57478Y-42601D01*
X57469Y-42516D01*
X57476Y-42431D01*
X57499Y-42349D01*
X57538Y-42273D01*
X57591Y-42206D01*
X57657Y-42151D01*
X57731Y-42109D01*
X57812Y-42083D01*
X57897Y-42073D01*
X57982Y-42079D01*
X58064Y-42102D01*
X58140Y-42141D01*
X58208Y-42193D01*
X58263Y-42258D01*
X58306Y-42332D01*
X58333Y-42413D01*
X58343Y-42498D01*
X58344Y-42510D01*
X56532Y-42510D02*
X56523Y-42595D01*
X56498Y-42676D01*
X56458Y-42752D01*
X56404Y-42818D01*
X56338Y-42873D01*
X56263Y-42913D01*
X56182Y-42939D01*
X56097Y-42947D01*
X56012Y-42940D01*
X55930Y-42916D01*
X55855Y-42876D01*
X55788Y-42822D01*
X55733Y-42757D01*
X55692Y-42682D01*
X55666Y-42601D01*
X55657Y-42516D01*
X55664Y-42431D01*
X55687Y-42349D01*
X55726Y-42273D01*
X55779Y-42206D01*
X55845Y-42151D01*
X55919Y-42109D01*
X56000Y-42083D01*
X56085Y-42073D01*
X56170Y-42079D01*
X56252Y-42102D01*
X56328Y-42141D01*
X56396Y-42193D01*
X56451Y-42258D01*
X56494Y-42332D01*
X56521Y-42413D01*
X56531Y-42498D01*
X56532Y-42510D01*
X76938Y-33250D02*
X76929Y-33335D01*
X76904Y-33416D01*
X76864Y-33492D01*
X76810Y-33558D01*
X76744Y-33613D01*
X76669Y-33653D01*
X76588Y-33679D01*
X76503Y-33687D01*
X76418Y-33680D01*
X76336Y-33656D01*
X76261Y-33616D01*
X76194Y-33562D01*
X76139Y-33497D01*
X76098Y-33422D01*
X76072Y-33341D01*
X76063Y-33256D01*
X76070Y-33171D01*
X76093Y-33089D01*
X76132Y-33013D01*
X76185Y-32946D01*
X76251Y-32891D01*
X76325Y-32849D01*
X76406Y-32823D01*
X76491Y-32813D01*
X76576Y-32819D01*
X76658Y-32842D01*
X76734Y-32881D01*
X76802Y-32933D01*
X76857Y-32998D01*
X76900Y-33072D01*
X76927Y-33153D01*
X76937Y-33238D01*
X76938Y-33250D01*
X72938Y-33250D02*
X72929Y-33335D01*
X72904Y-33416D01*
X72864Y-33492D01*
X72810Y-33558D01*
X72744Y-33613D01*
X72669Y-33653D01*
X72588Y-33679D01*
X72503Y-33687D01*
X72418Y-33680D01*
X72336Y-33656D01*
X72261Y-33616D01*
X72194Y-33562D01*
X72139Y-33497D01*
X72098Y-33422D01*
X72072Y-33341D01*
X72063Y-33256D01*
X72070Y-33171D01*
X72093Y-33089D01*
X72132Y-33013D01*
X72185Y-32946D01*
X72251Y-32891D01*
X72325Y-32849D01*
X72406Y-32823D01*
X72491Y-32813D01*
X72576Y-32819D01*
X72658Y-32842D01*
X72734Y-32881D01*
X72802Y-32933D01*
X72857Y-32998D01*
X72900Y-33072D01*
X72927Y-33153D01*
X72937Y-33238D01*
X72938Y-33250D01*
X75438Y-34750D02*
X75429Y-34835D01*
X75404Y-34916D01*
X75364Y-34992D01*
X75310Y-35058D01*
X75244Y-35113D01*
X75169Y-35153D01*
X75088Y-35179D01*
X75003Y-35187D01*
X74918Y-35180D01*
X74836Y-35156D01*
X74761Y-35116D01*
X74694Y-35062D01*
X74639Y-34997D01*
X74598Y-34922D01*
X74572Y-34841D01*
X74563Y-34756D01*
X74570Y-34671D01*
X74593Y-34589D01*
X74632Y-34513D01*
X74685Y-34446D01*
X74751Y-34391D01*
X74825Y-34349D01*
X74906Y-34323D01*
X74991Y-34313D01*
X75076Y-34319D01*
X75158Y-34342D01*
X75234Y-34381D01*
X75302Y-34433D01*
X75357Y-34498D01*
X75400Y-34572D01*
X75427Y-34653D01*
X75437Y-34738D01*
X75438Y-34750D01*
X71438Y-34750D02*
X71429Y-34835D01*
X71404Y-34916D01*
X71364Y-34992D01*
X71310Y-35058D01*
X71244Y-35113D01*
X71169Y-35153D01*
X71088Y-35179D01*
X71003Y-35187D01*
X70918Y-35180D01*
X70836Y-35156D01*
X70761Y-35116D01*
X70694Y-35062D01*
X70639Y-34997D01*
X70598Y-34922D01*
X70572Y-34841D01*
X70563Y-34756D01*
X70570Y-34671D01*
X70593Y-34589D01*
X70632Y-34513D01*
X70685Y-34446D01*
X70751Y-34391D01*
X70825Y-34349D01*
X70906Y-34323D01*
X70991Y-34313D01*
X71076Y-34319D01*
X71158Y-34342D01*
X71234Y-34381D01*
X71302Y-34433D01*
X71357Y-34498D01*
X71400Y-34572D01*
X71427Y-34653D01*
X71437Y-34738D01*
X71438Y-34750D01*
X66438Y-28250D02*
X66429Y-28335D01*
X66404Y-28416D01*
X66364Y-28492D01*
X66310Y-28558D01*
X66244Y-28613D01*
X66169Y-28653D01*
X66088Y-28679D01*
X66003Y-28687D01*
X65918Y-28680D01*
X65836Y-28656D01*
X65761Y-28616D01*
X65694Y-28562D01*
X65639Y-28497D01*
X65598Y-28422D01*
X65572Y-28341D01*
X65563Y-28256D01*
X65570Y-28171D01*
X65593Y-28089D01*
X65632Y-28013D01*
X65685Y-27946D01*
X65751Y-27891D01*
X65825Y-27849D01*
X65906Y-27823D01*
X65991Y-27813D01*
X66076Y-27819D01*
X66158Y-27842D01*
X66234Y-27881D01*
X66302Y-27933D01*
X66357Y-27998D01*
X66400Y-28072D01*
X66427Y-28153D01*
X66437Y-28238D01*
X66438Y-28250D01*
X66438Y-32250D02*
X66429Y-32335D01*
X66404Y-32416D01*
X66364Y-32492D01*
X66310Y-32558D01*
X66244Y-32613D01*
X66169Y-32653D01*
X66088Y-32679D01*
X66003Y-32687D01*
X65918Y-32680D01*
X65836Y-32656D01*
X65761Y-32616D01*
X65694Y-32562D01*
X65639Y-32497D01*
X65598Y-32422D01*
X65572Y-32341D01*
X65563Y-32256D01*
X65570Y-32171D01*
X65593Y-32089D01*
X65632Y-32013D01*
X65685Y-31946D01*
X65751Y-31891D01*
X65825Y-31849D01*
X65906Y-31823D01*
X65991Y-31813D01*
X66076Y-31819D01*
X66158Y-31842D01*
X66234Y-31881D01*
X66302Y-31933D01*
X66357Y-31998D01*
X66400Y-32072D01*
X66427Y-32153D01*
X66437Y-32238D01*
X66438Y-32250D01*
X68438Y-39500D02*
X68429Y-39585D01*
X68404Y-39666D01*
X68364Y-39742D01*
X68310Y-39808D01*
X68244Y-39863D01*
X68169Y-39903D01*
X68088Y-39929D01*
X68003Y-39937D01*
X67918Y-39930D01*
X67836Y-39906D01*
X67761Y-39866D01*
X67694Y-39812D01*
X67639Y-39747D01*
X67598Y-39672D01*
X67572Y-39591D01*
X67563Y-39506D01*
X67570Y-39421D01*
X67593Y-39339D01*
X67632Y-39263D01*
X67685Y-39196D01*
X67751Y-39141D01*
X67825Y-39099D01*
X67906Y-39073D01*
X67991Y-39063D01*
X68076Y-39069D01*
X68158Y-39092D01*
X68234Y-39131D01*
X68302Y-39183D01*
X68357Y-39248D01*
X68400Y-39322D01*
X68427Y-39403D01*
X68437Y-39488D01*
X68438Y-39500D01*
X64438Y-39500D02*
X64429Y-39585D01*
X64404Y-39666D01*
X64364Y-39742D01*
X64310Y-39808D01*
X64244Y-39863D01*
X64169Y-39903D01*
X64088Y-39929D01*
X64003Y-39937D01*
X63918Y-39930D01*
X63836Y-39906D01*
X63761Y-39866D01*
X63694Y-39812D01*
X63639Y-39747D01*
X63598Y-39672D01*
X63572Y-39591D01*
X63563Y-39506D01*
X63570Y-39421D01*
X63593Y-39339D01*
X63632Y-39263D01*
X63685Y-39196D01*
X63751Y-39141D01*
X63825Y-39099D01*
X63906Y-39073D01*
X63991Y-39063D01*
X64076Y-39069D01*
X64158Y-39092D01*
X64234Y-39131D01*
X64302Y-39183D01*
X64357Y-39248D01*
X64400Y-39322D01*
X64427Y-39403D01*
X64437Y-39488D01*
X64438Y-39500D01*
X60438Y-37500D02*
X60429Y-37585D01*
X60404Y-37666D01*
X60364Y-37742D01*
X60310Y-37808D01*
X60244Y-37863D01*
X60169Y-37903D01*
X60088Y-37929D01*
X60003Y-37937D01*
X59918Y-37930D01*
X59836Y-37906D01*
X59761Y-37866D01*
X59694Y-37812D01*
X59639Y-37747D01*
X59598Y-37672D01*
X59572Y-37591D01*
X59563Y-37506D01*
X59570Y-37421D01*
X59593Y-37339D01*
X59632Y-37263D01*
X59685Y-37196D01*
X59751Y-37141D01*
X59825Y-37099D01*
X59906Y-37073D01*
X59991Y-37063D01*
X60076Y-37069D01*
X60158Y-37092D01*
X60234Y-37131D01*
X60302Y-37183D01*
X60357Y-37248D01*
X60400Y-37322D01*
X60427Y-37403D01*
X60437Y-37488D01*
X60438Y-37500D01*
X56438Y-37500D02*
X56429Y-37585D01*
X56404Y-37666D01*
X56364Y-37742D01*
X56310Y-37808D01*
X56244Y-37863D01*
X56169Y-37903D01*
X56088Y-37929D01*
X56003Y-37937D01*
X55918Y-37930D01*
X55836Y-37906D01*
X55761Y-37866D01*
X55694Y-37812D01*
X55639Y-37747D01*
X55598Y-37672D01*
X55572Y-37591D01*
X55563Y-37506D01*
X55570Y-37421D01*
X55593Y-37339D01*
X55632Y-37263D01*
X55685Y-37196D01*
X55751Y-37141D01*
X55825Y-37099D01*
X55906Y-37073D01*
X55991Y-37063D01*
X56076Y-37069D01*
X56158Y-37092D01*
X56234Y-37131D01*
X56302Y-37183D01*
X56357Y-37248D01*
X56400Y-37322D01*
X56427Y-37403D01*
X56437Y-37488D01*
X56438Y-37500D01*
X66796Y-26500D02*
X66785Y-26606D01*
X66754Y-26708D01*
X66704Y-26802D01*
X66637Y-26884D01*
X66555Y-26952D01*
X66461Y-27003D01*
X66359Y-27034D01*
X66253Y-27045D01*
X66148Y-27036D01*
X66046Y-27006D01*
X65952Y-26956D01*
X65868Y-26890D01*
X65800Y-26808D01*
X65749Y-26715D01*
X65716Y-26613D01*
X65705Y-26507D01*
X65713Y-26402D01*
X65743Y-26300D01*
X65792Y-26205D01*
X65858Y-26121D01*
X65939Y-26052D01*
X66032Y-26000D01*
X66133Y-25967D01*
X66239Y-25955D01*
X66344Y-25963D01*
X66447Y-25991D01*
X66542Y-26039D01*
X66626Y-26105D01*
X66696Y-26186D01*
X66748Y-26278D01*
X66782Y-26380D01*
X66795Y-26485D01*
X66796Y-26500D01*
X69046Y-26500D02*
X69035Y-26606D01*
X69004Y-26708D01*
X68954Y-26802D01*
X68887Y-26884D01*
X68805Y-26952D01*
X68711Y-27003D01*
X68609Y-27034D01*
X68503Y-27045D01*
X68398Y-27036D01*
X68296Y-27006D01*
X68202Y-26956D01*
X68118Y-26890D01*
X68050Y-26808D01*
X67999Y-26715D01*
X67966Y-26613D01*
X67955Y-26507D01*
X67963Y-26402D01*
X67993Y-26300D01*
X68042Y-26205D01*
X68108Y-26121D01*
X68189Y-26052D01*
X68282Y-26000D01*
X68383Y-25967D01*
X68489Y-25955D01*
X68594Y-25963D01*
X68697Y-25991D01*
X68792Y-26039D01*
X68876Y-26105D01*
X68946Y-26186D01*
X68998Y-26278D01*
X69032Y-26380D01*
X69045Y-26485D01*
X69046Y-26500D01*
X72572Y-41500D02*
X72556Y-41659D01*
X72509Y-41813D01*
X72434Y-41954D01*
X72333Y-42079D01*
X72209Y-42181D01*
X72068Y-42257D01*
X71915Y-42305D01*
X71755Y-42321D01*
X71596Y-42307D01*
X71443Y-42262D01*
X71300Y-42187D01*
X71175Y-42087D01*
X71072Y-41964D01*
X70995Y-41823D01*
X70946Y-41670D01*
X70929Y-41511D01*
X70942Y-41352D01*
X70986Y-41198D01*
X71060Y-41055D01*
X71159Y-40929D01*
X71281Y-40826D01*
X71421Y-40747D01*
X71574Y-40698D01*
X71733Y-40679D01*
X71892Y-40691D01*
X72047Y-40734D01*
X72190Y-40806D01*
X72316Y-40905D01*
X72421Y-41027D01*
X72500Y-41166D01*
X72551Y-41318D01*
X72571Y-41478D01*
X72572Y-41500D01*
X56572Y-25500D02*
X56556Y-25659D01*
X56509Y-25813D01*
X56434Y-25954D01*
X56333Y-26079D01*
X56209Y-26181D01*
X56068Y-26257D01*
X55915Y-26305D01*
X55755Y-26321D01*
X55596Y-26307D01*
X55443Y-26262D01*
X55300Y-26187D01*
X55175Y-26087D01*
X55072Y-25964D01*
X54995Y-25823D01*
X54946Y-25670D01*
X54929Y-25511D01*
X54942Y-25352D01*
X54986Y-25198D01*
X55060Y-25055D01*
X55159Y-24929D01*
X55281Y-24826D01*
X55421Y-24747D01*
X55574Y-24698D01*
X55733Y-24679D01*
X55892Y-24691D01*
X56047Y-24734D01*
X56190Y-24806D01*
X56316Y-24905D01*
X56421Y-25027D01*
X56500Y-25166D01*
X56551Y-25318D01*
X56571Y-25478D01*
X56572Y-25500D01*
X61072Y-32500D02*
X61056Y-32659D01*
X61009Y-32813D01*
X60934Y-32954D01*
X60833Y-33079D01*
X60709Y-33181D01*
X60568Y-33257D01*
X60415Y-33305D01*
X60255Y-33321D01*
X60096Y-33307D01*
X59943Y-33262D01*
X59800Y-33187D01*
X59675Y-33087D01*
X59572Y-32964D01*
X59495Y-32823D01*
X59446Y-32670D01*
X59429Y-32511D01*
X59442Y-32352D01*
X59486Y-32198D01*
X59560Y-32055D01*
X59659Y-31929D01*
X59781Y-31826D01*
X59921Y-31747D01*
X60074Y-31698D01*
X60233Y-31679D01*
X60392Y-31691D01*
X60547Y-31734D01*
X60690Y-31806D01*
X60816Y-31905D01*
X60921Y-32027D01*
X61000Y-32166D01*
X61051Y-32318D01*
X61071Y-32478D01*
X61072Y-32500D01*
G54D14*
X58231Y-32700D02*
X58709Y-32700D01*
X58765Y-32672D01*
X58794Y-32644D01*
X58822Y-32588D01*
X58822Y-32475D01*
X58794Y-32419D01*
X58765Y-32391D01*
X58709Y-32363D01*
X58231Y-32363D01*
X58822Y-31772D02*
X58822Y-32109D01*
X58822Y-31941D02*
X58231Y-31941D01*
X58315Y-31997D01*
X58371Y-32053D01*
X58400Y-32109D01*
G54D15*
X62907Y-36083D02*
X62907Y-36650D01*
X62929Y-36717D01*
X62950Y-36750D01*
X62993Y-36783D01*
X63079Y-36783D01*
X63121Y-36750D01*
X63143Y-36717D01*
X63164Y-36650D01*
X63164Y-36083D01*
X63357Y-36150D02*
X63378Y-36117D01*
X63421Y-36083D01*
X63528Y-36083D01*
X63571Y-36117D01*
X63592Y-36150D01*
X63614Y-36217D01*
X63614Y-36283D01*
X63592Y-36383D01*
X63335Y-36783D01*
X63614Y-36783D01*
G54D14*
X62679Y-27464D02*
X62707Y-27380D01*
X62735Y-27352D01*
X62792Y-27324D01*
X62876Y-27324D01*
X62932Y-27352D01*
X62961Y-27380D01*
X62989Y-27436D01*
X62989Y-27661D01*
X62398Y-27661D01*
X62398Y-27464D01*
X62426Y-27408D01*
X62454Y-27380D01*
X62510Y-27352D01*
X62567Y-27352D01*
X62623Y-27380D01*
X62651Y-27408D01*
X62679Y-27464D01*
X62679Y-27661D01*
X62398Y-27155D02*
X62398Y-26817D01*
X62989Y-26986D02*
X62398Y-26986D01*
X62989Y-26311D02*
X62989Y-26648D01*
X62989Y-26480D02*
X62398Y-26480D01*
X62482Y-26536D01*
X62538Y-26592D01*
X62567Y-26648D01*
G54D16*
X58151Y-29436D02*
X58122Y-29464D01*
X58036Y-29493D01*
X57979Y-29493D01*
X57894Y-29464D01*
X57836Y-29407D01*
X57808Y-29350D01*
X57779Y-29236D01*
X57779Y-29150D01*
X57808Y-29036D01*
X57836Y-28979D01*
X57894Y-28921D01*
X57979Y-28893D01*
X58036Y-28893D01*
X58122Y-28921D01*
X58151Y-28950D01*
X58722Y-29493D02*
X58379Y-29493D01*
X58551Y-29493D02*
X58551Y-28893D01*
X58494Y-28979D01*
X58436Y-29036D01*
X58379Y-29064D01*
X58151Y-36686D02*
X58122Y-36714D01*
X58036Y-36743D01*
X57979Y-36743D01*
X57894Y-36714D01*
X57836Y-36657D01*
X57808Y-36600D01*
X57779Y-36486D01*
X57779Y-36400D01*
X57808Y-36286D01*
X57836Y-36229D01*
X57894Y-36171D01*
X57979Y-36143D01*
X58036Y-36143D01*
X58122Y-36171D01*
X58151Y-36200D01*
X58379Y-36200D02*
X58408Y-36171D01*
X58465Y-36143D01*
X58608Y-36143D01*
X58665Y-36171D01*
X58694Y-36200D01*
X58722Y-36257D01*
X58722Y-36314D01*
X58694Y-36400D01*
X58351Y-36743D01*
X58722Y-36743D01*
G54D17*
X59131Y-26473D02*
X59131Y-25923D01*
X59250Y-25923D01*
X59322Y-25949D01*
X59369Y-26001D01*
X59393Y-26054D01*
X59417Y-26158D01*
X59417Y-26237D01*
X59393Y-26342D01*
X59369Y-26394D01*
X59322Y-26446D01*
X59250Y-26473D01*
X59131Y-26473D01*
X59702Y-26158D02*
X59655Y-26132D01*
X59631Y-26106D01*
X59607Y-26054D01*
X59607Y-26027D01*
X59631Y-25975D01*
X59655Y-25949D01*
X59702Y-25923D01*
X59798Y-25923D01*
X59845Y-25949D01*
X59869Y-25975D01*
X59893Y-26027D01*
X59893Y-26054D01*
X59869Y-26106D01*
X59845Y-26132D01*
X59798Y-26158D01*
X59702Y-26158D01*
X59655Y-26185D01*
X59631Y-26211D01*
X59607Y-26263D01*
X59607Y-26368D01*
X59631Y-26420D01*
X59655Y-26446D01*
X59702Y-26473D01*
X59798Y-26473D01*
X59845Y-26446D01*
X59869Y-26420D01*
X59893Y-26368D01*
X59893Y-26263D01*
X59869Y-26211D01*
X59845Y-26185D01*
X59798Y-26158D01*
G54D16*
X70166Y-44192D02*
X69566Y-44192D01*
X69566Y-44049D01*
X69594Y-43964D01*
X69652Y-43906D01*
X69709Y-43878D01*
X69823Y-43849D01*
X69909Y-43849D01*
X70023Y-43878D01*
X70080Y-43906D01*
X70137Y-43964D01*
X70166Y-44049D01*
X70166Y-44192D01*
X69623Y-43621D02*
X69594Y-43592D01*
X69566Y-43535D01*
X69566Y-43392D01*
X69594Y-43335D01*
X69623Y-43306D01*
X69680Y-43278D01*
X69737Y-43278D01*
X69823Y-43306D01*
X70166Y-43649D01*
X70166Y-43278D01*
X70166Y-30692D02*
X69566Y-30692D01*
X69566Y-30549D01*
X69594Y-30464D01*
X69652Y-30406D01*
X69709Y-30378D01*
X69823Y-30349D01*
X69909Y-30349D01*
X70023Y-30378D01*
X70080Y-30406D01*
X70137Y-30464D01*
X70166Y-30549D01*
X70166Y-30692D01*
X70166Y-29778D02*
X70166Y-30121D01*
X70166Y-29949D02*
X69566Y-29949D01*
X69652Y-30006D01*
X69709Y-30064D01*
X69737Y-30121D01*
X66820Y-37442D02*
X66220Y-37442D01*
X66220Y-37299D01*
X66248Y-37214D01*
X66306Y-37156D01*
X66363Y-37128D01*
X66477Y-37099D01*
X66563Y-37099D01*
X66677Y-37128D01*
X66734Y-37156D01*
X66791Y-37214D01*
X66820Y-37299D01*
X66820Y-37442D01*
X66220Y-36556D02*
X66220Y-36842D01*
X66506Y-36871D01*
X66477Y-36842D01*
X66448Y-36785D01*
X66448Y-36642D01*
X66477Y-36585D01*
X66506Y-36556D01*
X66563Y-36528D01*
X66706Y-36528D01*
X66763Y-36556D01*
X66791Y-36585D01*
X66820Y-36642D01*
X66820Y-36785D01*
X66791Y-36842D01*
X66763Y-36871D01*
X73570Y-30692D02*
X72970Y-30692D01*
X72970Y-30549D01*
X72998Y-30464D01*
X73056Y-30406D01*
X73113Y-30378D01*
X73227Y-30349D01*
X73313Y-30349D01*
X73427Y-30378D01*
X73484Y-30406D01*
X73541Y-30464D01*
X73570Y-30549D01*
X73570Y-30692D01*
X72970Y-30149D02*
X72970Y-29778D01*
X73198Y-29978D01*
X73198Y-29892D01*
X73227Y-29835D01*
X73256Y-29806D01*
X73313Y-29778D01*
X73456Y-29778D01*
X73513Y-29806D01*
X73541Y-29835D01*
X73570Y-29892D01*
X73570Y-30064D01*
X73541Y-30121D01*
X73513Y-30149D01*
X63416Y-30692D02*
X62816Y-30692D01*
X62816Y-30549D01*
X62844Y-30464D01*
X62902Y-30406D01*
X62959Y-30378D01*
X63073Y-30349D01*
X63159Y-30349D01*
X63273Y-30378D01*
X63330Y-30406D01*
X63387Y-30464D01*
X63416Y-30549D01*
X63416Y-30692D01*
X62816Y-29835D02*
X62816Y-29949D01*
X62844Y-30006D01*
X62873Y-30035D01*
X62959Y-30092D01*
X63073Y-30121D01*
X63302Y-30121D01*
X63359Y-30092D01*
X63387Y-30064D01*
X63416Y-30006D01*
X63416Y-29892D01*
X63387Y-29835D01*
X63359Y-29806D01*
X63302Y-29778D01*
X63159Y-29778D01*
X63102Y-29806D01*
X63073Y-29835D01*
X63044Y-29892D01*
X63044Y-30006D01*
X63073Y-30064D01*
X63102Y-30092D01*
X63159Y-30121D01*
X76916Y-44192D02*
X76316Y-44192D01*
X76316Y-44049D01*
X76344Y-43964D01*
X76402Y-43906D01*
X76459Y-43878D01*
X76573Y-43849D01*
X76659Y-43849D01*
X76773Y-43878D01*
X76830Y-43906D01*
X76887Y-43964D01*
X76916Y-44049D01*
X76916Y-44192D01*
X76316Y-43649D02*
X76316Y-43249D01*
X76916Y-43506D01*
X63416Y-44192D02*
X62816Y-44192D01*
X62816Y-44049D01*
X62844Y-43964D01*
X62902Y-43906D01*
X62959Y-43878D01*
X63073Y-43849D01*
X63159Y-43849D01*
X63273Y-43878D01*
X63330Y-43906D01*
X63387Y-43964D01*
X63416Y-44049D01*
X63416Y-44192D01*
X63016Y-43335D02*
X63416Y-43335D01*
X62787Y-43478D02*
X63216Y-43621D01*
X63216Y-43249D01*
G54D17*
X56584Y-38946D02*
X56656Y-38973D01*
X56775Y-38973D01*
X56822Y-38946D01*
X56846Y-38920D01*
X56870Y-38868D01*
X56870Y-38815D01*
X56846Y-38763D01*
X56822Y-38737D01*
X56775Y-38711D01*
X56679Y-38685D01*
X56632Y-38658D01*
X56608Y-38632D01*
X56584Y-38580D01*
X56584Y-38527D01*
X56608Y-38475D01*
X56632Y-38449D01*
X56679Y-38423D01*
X56799Y-38423D01*
X56870Y-38449D01*
X57036Y-38423D02*
X57155Y-38973D01*
X57251Y-38580D01*
X57346Y-38973D01*
X57465Y-38423D01*
X57917Y-38973D02*
X57631Y-38973D01*
X57774Y-38973D02*
X57774Y-38423D01*
X57726Y-38501D01*
X57679Y-38554D01*
X57631Y-38580D01*
X74417Y-33473D02*
X74250Y-33211D01*
X74131Y-33473D02*
X74131Y-32923D01*
X74322Y-32923D01*
X74369Y-32949D01*
X74393Y-32975D01*
X74417Y-33027D01*
X74417Y-33106D01*
X74393Y-33158D01*
X74369Y-33185D01*
X74322Y-33211D01*
X74131Y-33211D01*
X74607Y-32975D02*
X74631Y-32949D01*
X74679Y-32923D01*
X74798Y-32923D01*
X74845Y-32949D01*
X74869Y-32975D01*
X74893Y-33027D01*
X74893Y-33080D01*
X74869Y-33158D01*
X74583Y-33473D01*
X74893Y-33473D01*
X72917Y-34973D02*
X72750Y-34711D01*
X72631Y-34973D02*
X72631Y-34423D01*
X72822Y-34423D01*
X72869Y-34449D01*
X72893Y-34475D01*
X72917Y-34527D01*
X72917Y-34606D01*
X72893Y-34658D01*
X72869Y-34685D01*
X72822Y-34711D01*
X72631Y-34711D01*
X73083Y-34423D02*
X73393Y-34423D01*
X73226Y-34632D01*
X73298Y-34632D01*
X73345Y-34658D01*
X73369Y-34685D01*
X73393Y-34737D01*
X73393Y-34868D01*
X73369Y-34920D01*
X73345Y-34946D01*
X73298Y-34973D01*
X73155Y-34973D01*
X73107Y-34946D01*
X73083Y-34920D01*
X66223Y-30333D02*
X65961Y-30500D01*
X66223Y-30619D02*
X65673Y-30619D01*
X65673Y-30428D01*
X65699Y-30381D01*
X65725Y-30357D01*
X65777Y-30333D01*
X65856Y-30333D01*
X65908Y-30357D01*
X65935Y-30381D01*
X65961Y-30428D01*
X65961Y-30619D01*
X65856Y-29905D02*
X66223Y-29905D01*
X65646Y-30024D02*
X66039Y-30143D01*
X66039Y-29833D01*
X65917Y-39723D02*
X65750Y-39461D01*
X65631Y-39723D02*
X65631Y-39173D01*
X65822Y-39173D01*
X65869Y-39199D01*
X65893Y-39225D01*
X65917Y-39277D01*
X65917Y-39356D01*
X65893Y-39408D01*
X65869Y-39435D01*
X65822Y-39461D01*
X65631Y-39461D01*
X66369Y-39173D02*
X66131Y-39173D01*
X66107Y-39435D01*
X66131Y-39408D01*
X66179Y-39382D01*
X66298Y-39382D01*
X66345Y-39408D01*
X66369Y-39435D01*
X66393Y-39487D01*
X66393Y-39618D01*
X66369Y-39670D01*
X66345Y-39696D01*
X66298Y-39723D01*
X66179Y-39723D01*
X66131Y-39696D01*
X66107Y-39670D01*
X57917Y-37723D02*
X57750Y-37461D01*
X57631Y-37723D02*
X57631Y-37173D01*
X57822Y-37173D01*
X57869Y-37199D01*
X57893Y-37225D01*
X57917Y-37277D01*
X57917Y-37356D01*
X57893Y-37408D01*
X57869Y-37435D01*
X57822Y-37461D01*
X57631Y-37461D01*
X58393Y-37723D02*
X58107Y-37723D01*
X58250Y-37723D02*
X58250Y-37173D01*
X58202Y-37251D01*
X58155Y-37304D01*
X58107Y-37330D01*
M02*
