/* XPM */
static const char *zoomfit_xpm[] = {
/* columns rows colors chars-per-pixel */
"16 16 58 1",
"  c #2E3436",
". c #2F3537",
"X c #303537",
"o c #303638",
"O c #303738",
"+ c #323739",
"@ c #363C3E",
"# c #383D3E",
"$ c #3B3F3F",
"% c #3A3F40",
"& c #3A3F41",
"* c #3B4040",
"= c #3A4042",
"- c #3B4142",
"; c #3C4244",
": c #3F4546",
"> c #464C4D",
", c #555753",
"< c #616566",
"1 c #6F7472",
"2 c #757978",
"3 c #7C7F80",
"4 c #7D8081",
"5 c #A5A9A6",
"6 c #A6A9A6",
"7 c #B4B6B4",
"8 c #B4B7B5",
"9 c #BABDB9",
"0 c #BFC2BD",
"q c #C0C1C0",
"w c #C0C2C1",
"e c #C9CCC8",
"r c #D4D8D0",
"t c #D4D8D1",
"y c #D6D9D3",
"u c #D7DAD3",
"i c #D7D9D4",
"p c #D7DAD4",
"a c #D7DBD4",
"s c #D7D8D6",
"d c #DCDDD9",
"f c #DCDED8",
"g c #DDDFD9",
"h c #DCDDDA",
"j c #E0E2DD",
"k c #E1E3DE",
"l c #E4E6E1",
"z c #E4E6E2",
"x c #E5E6E2",
"c c #E8E9E6",
"v c #E8E9E7",
"b c #E9EAE6",
"n c #ECEDEA",
"m c #EDEDEB",
"M c #EDEEEB",
"N c #EEEEEB",
"B c #EEEEEC",
"V c None",
/* pixels */
"VVVV...  VVVVVVV",
"VVV.3wde6=.VVVVV",
"VV;smcxkgu1.VVVV",
"V.s,,,m,,,u;VVVV",
".3m,mBBBm,u9.VVV",
".wc,BBBBB,gs VVV",
" dzmBBBBBmjjoVVV",
" ej,BBBBB,zg.VVV",
".6f,BBBBB,c7.VVV",
"V=u,,,B,,,c=VVVV",
"V.2rsfjxcc<OVVVV",
"VV.>0ujg8=o$oVVV",
"VVVV. @XXVVo#XVV",
"VVVVVVVVVVVVo*XV",
"VVVVVVVVVVVVVX#o",
"VVVVVVVVVVVVVVoo"
};
