G04 (created by PCBNEW-RS274X (20100402 SVN-R2504)-final) date Sun 11 Apr 2010 05:01:01 PM CEST*
G01*
G70*
G90*
%MOIN*%
G04 Gerber Fmt 3.4, Leading zero omitted, Abs format*
%FSLAX34Y34*%
G04 APERTURE LIST*
%ADD10C,0.001000*%
%ADD11C,0.015000*%
G04 APERTURE END LIST*
G54D10*
G54D11*
X80250Y-24500D02*
X80226Y-24742D01*
X80155Y-24976D01*
X80041Y-25191D01*
X79886Y-25380D01*
X79698Y-25536D01*
X79484Y-25652D01*
X79251Y-25724D01*
X79008Y-25749D01*
X78766Y-25727D01*
X78532Y-25658D01*
X78316Y-25545D01*
X78126Y-25393D01*
X77969Y-25206D01*
X77852Y-24992D01*
X77778Y-24759D01*
X77751Y-24517D01*
X77771Y-24275D01*
X77838Y-24040D01*
X77950Y-23823D01*
X78101Y-23632D01*
X78287Y-23474D01*
X78500Y-23355D01*
X78732Y-23280D01*
X78974Y-23251D01*
X79217Y-23269D01*
X79452Y-23335D01*
X79669Y-23445D01*
X79862Y-23595D01*
X80021Y-23780D01*
X80141Y-23992D01*
X80218Y-24224D01*
X80249Y-24466D01*
X80250Y-24500D01*
X76500Y-24500D02*
X81500Y-24500D01*
X79000Y-22000D02*
X79000Y-27000D01*
X56000Y-24500D02*
X55976Y-24742D01*
X55905Y-24976D01*
X55791Y-25191D01*
X55636Y-25380D01*
X55448Y-25536D01*
X55234Y-25652D01*
X55001Y-25724D01*
X54758Y-25749D01*
X54516Y-25727D01*
X54282Y-25658D01*
X54066Y-25545D01*
X53876Y-25393D01*
X53719Y-25206D01*
X53602Y-24992D01*
X53528Y-24759D01*
X53501Y-24517D01*
X53521Y-24275D01*
X53588Y-24040D01*
X53700Y-23823D01*
X53851Y-23632D01*
X54037Y-23474D01*
X54250Y-23355D01*
X54482Y-23280D01*
X54724Y-23251D01*
X54967Y-23269D01*
X55202Y-23335D01*
X55419Y-23445D01*
X55612Y-23595D01*
X55771Y-23780D01*
X55891Y-23992D01*
X55968Y-24224D01*
X55999Y-24466D01*
X56000Y-24500D01*
X52250Y-24500D02*
X57250Y-24500D01*
X54750Y-22000D02*
X54750Y-27000D01*
X56000Y-45250D02*
X55976Y-45492D01*
X55905Y-45726D01*
X55791Y-45941D01*
X55636Y-46130D01*
X55448Y-46286D01*
X55234Y-46402D01*
X55001Y-46474D01*
X54758Y-46499D01*
X54516Y-46477D01*
X54282Y-46408D01*
X54066Y-46295D01*
X53876Y-46143D01*
X53719Y-45956D01*
X53602Y-45742D01*
X53528Y-45509D01*
X53501Y-45267D01*
X53521Y-45025D01*
X53588Y-44790D01*
X53700Y-44573D01*
X53851Y-44382D01*
X54037Y-44224D01*
X54250Y-44105D01*
X54482Y-44030D01*
X54724Y-44001D01*
X54967Y-44019D01*
X55202Y-44085D01*
X55419Y-44195D01*
X55612Y-44345D01*
X55771Y-44530D01*
X55891Y-44742D01*
X55968Y-44974D01*
X55999Y-45216D01*
X56000Y-45250D01*
X52250Y-45250D02*
X57250Y-45250D01*
X54750Y-42750D02*
X54750Y-47750D01*
X80250Y-45250D02*
X80226Y-45492D01*
X80155Y-45726D01*
X80041Y-45941D01*
X79886Y-46130D01*
X79698Y-46286D01*
X79484Y-46402D01*
X79251Y-46474D01*
X79008Y-46499D01*
X78766Y-46477D01*
X78532Y-46408D01*
X78316Y-46295D01*
X78126Y-46143D01*
X77969Y-45956D01*
X77852Y-45742D01*
X77778Y-45509D01*
X77751Y-45267D01*
X77771Y-45025D01*
X77838Y-44790D01*
X77950Y-44573D01*
X78101Y-44382D01*
X78287Y-44224D01*
X78500Y-44105D01*
X78732Y-44030D01*
X78974Y-44001D01*
X79217Y-44019D01*
X79452Y-44085D01*
X79669Y-44195D01*
X79862Y-44345D01*
X80021Y-44530D01*
X80141Y-44742D01*
X80218Y-44974D01*
X80249Y-45216D01*
X80250Y-45250D01*
X76500Y-45250D02*
X81500Y-45250D01*
X79000Y-42750D02*
X79000Y-47750D01*
X79000Y-24500D02*
X54750Y-24500D01*
X79000Y-45250D02*
X54750Y-45250D01*
X79000Y-29500D02*
X79000Y-45250D01*
X79000Y-29500D02*
X79000Y-24500D01*
X54750Y-44750D02*
X54750Y-45250D01*
X54750Y-24500D02*
X54750Y-25750D01*
X54750Y-25750D02*
X54750Y-44750D01*
M02*
