G04 (created by PCBNEW-RS274X (20100402 SVN-R2504)-final) date Sun 11 Apr 2010 05:01:00 PM CEST*
G01*
G70*
G90*
%MOIN*%
G04 Gerber Fmt 3.4, Leading zero omitted, Abs format*
%FSLAX34Y34*%
G04 APERTURE LIST*
%ADD10C,0.001000*%
%ADD11C,0.015000*%
%ADD12C,0.006600*%
%ADD13C,0.088600*%
%ADD14R,0.062000X0.090000*%
%ADD15O,0.062000X0.090000*%
%ADD16R,0.088600X0.088600*%
%ADD17C,0.110200*%
%ADD18C,0.165400*%
%ADD19C,0.059100*%
%ADD20C,0.005000*%
G04 APERTURE END LIST*
G54D10*
G54D11*
X80250Y-24500D02*
X80226Y-24742D01*
X80155Y-24976D01*
X80041Y-25191D01*
X79886Y-25380D01*
X79698Y-25536D01*
X79484Y-25652D01*
X79251Y-25724D01*
X79008Y-25749D01*
X78766Y-25727D01*
X78532Y-25658D01*
X78316Y-25545D01*
X78126Y-25393D01*
X77969Y-25206D01*
X77852Y-24992D01*
X77778Y-24759D01*
X77751Y-24517D01*
X77771Y-24275D01*
X77838Y-24040D01*
X77950Y-23823D01*
X78101Y-23632D01*
X78287Y-23474D01*
X78500Y-23355D01*
X78732Y-23280D01*
X78974Y-23251D01*
X79217Y-23269D01*
X79452Y-23335D01*
X79669Y-23445D01*
X79862Y-23595D01*
X80021Y-23780D01*
X80141Y-23992D01*
X80218Y-24224D01*
X80249Y-24466D01*
X80250Y-24500D01*
X76500Y-24500D02*
X81500Y-24500D01*
X79000Y-22000D02*
X79000Y-27000D01*
X56000Y-24500D02*
X55976Y-24742D01*
X55905Y-24976D01*
X55791Y-25191D01*
X55636Y-25380D01*
X55448Y-25536D01*
X55234Y-25652D01*
X55001Y-25724D01*
X54758Y-25749D01*
X54516Y-25727D01*
X54282Y-25658D01*
X54066Y-25545D01*
X53876Y-25393D01*
X53719Y-25206D01*
X53602Y-24992D01*
X53528Y-24759D01*
X53501Y-24517D01*
X53521Y-24275D01*
X53588Y-24040D01*
X53700Y-23823D01*
X53851Y-23632D01*
X54037Y-23474D01*
X54250Y-23355D01*
X54482Y-23280D01*
X54724Y-23251D01*
X54967Y-23269D01*
X55202Y-23335D01*
X55419Y-23445D01*
X55612Y-23595D01*
X55771Y-23780D01*
X55891Y-23992D01*
X55968Y-24224D01*
X55999Y-24466D01*
X56000Y-24500D01*
X52250Y-24500D02*
X57250Y-24500D01*
X54750Y-22000D02*
X54750Y-27000D01*
X56000Y-45250D02*
X55976Y-45492D01*
X55905Y-45726D01*
X55791Y-45941D01*
X55636Y-46130D01*
X55448Y-46286D01*
X55234Y-46402D01*
X55001Y-46474D01*
X54758Y-46499D01*
X54516Y-46477D01*
X54282Y-46408D01*
X54066Y-46295D01*
X53876Y-46143D01*
X53719Y-45956D01*
X53602Y-45742D01*
X53528Y-45509D01*
X53501Y-45267D01*
X53521Y-45025D01*
X53588Y-44790D01*
X53700Y-44573D01*
X53851Y-44382D01*
X54037Y-44224D01*
X54250Y-44105D01*
X54482Y-44030D01*
X54724Y-44001D01*
X54967Y-44019D01*
X55202Y-44085D01*
X55419Y-44195D01*
X55612Y-44345D01*
X55771Y-44530D01*
X55891Y-44742D01*
X55968Y-44974D01*
X55999Y-45216D01*
X56000Y-45250D01*
X52250Y-45250D02*
X57250Y-45250D01*
X54750Y-42750D02*
X54750Y-47750D01*
X80250Y-45250D02*
X80226Y-45492D01*
X80155Y-45726D01*
X80041Y-45941D01*
X79886Y-46130D01*
X79698Y-46286D01*
X79484Y-46402D01*
X79251Y-46474D01*
X79008Y-46499D01*
X78766Y-46477D01*
X78532Y-46408D01*
X78316Y-46295D01*
X78126Y-46143D01*
X77969Y-45956D01*
X77852Y-45742D01*
X77778Y-45509D01*
X77751Y-45267D01*
X77771Y-45025D01*
X77838Y-44790D01*
X77950Y-44573D01*
X78101Y-44382D01*
X78287Y-44224D01*
X78500Y-44105D01*
X78732Y-44030D01*
X78974Y-44001D01*
X79217Y-44019D01*
X79452Y-44085D01*
X79669Y-44195D01*
X79862Y-44345D01*
X80021Y-44530D01*
X80141Y-44742D01*
X80218Y-44974D01*
X80249Y-45216D01*
X80250Y-45250D01*
X76500Y-45250D02*
X81500Y-45250D01*
X79000Y-42750D02*
X79000Y-47750D01*
X79000Y-24500D02*
X54750Y-24500D01*
X79000Y-45250D02*
X54750Y-45250D01*
X79000Y-29500D02*
X79000Y-45250D01*
X79000Y-29500D02*
X79000Y-24500D01*
X54750Y-44750D02*
X54750Y-45250D01*
X54750Y-24500D02*
X54750Y-25750D01*
G54D12*
X77568Y-40403D02*
X76781Y-40403D01*
X77531Y-40403D02*
X77568Y-40365D01*
X77568Y-40290D01*
X77531Y-40253D01*
X77493Y-40234D01*
X77418Y-40215D01*
X77193Y-40215D01*
X77118Y-40234D01*
X77081Y-40253D01*
X77043Y-40290D01*
X77043Y-40365D01*
X77081Y-40403D01*
X77568Y-40590D02*
X77043Y-40590D01*
X76781Y-40590D02*
X76819Y-40571D01*
X76856Y-40590D01*
X76819Y-40609D01*
X76781Y-40590D01*
X76856Y-40590D01*
X77531Y-40947D02*
X77568Y-40909D01*
X77568Y-40834D01*
X77531Y-40797D01*
X77493Y-40778D01*
X77418Y-40759D01*
X77193Y-40759D01*
X77118Y-40778D01*
X77081Y-40797D01*
X77043Y-40834D01*
X77043Y-40909D01*
X77081Y-40947D01*
X77531Y-41266D02*
X77568Y-41228D01*
X77568Y-41153D01*
X77531Y-41116D01*
X77456Y-41097D01*
X77156Y-41097D01*
X77081Y-41116D01*
X77043Y-41153D01*
X77043Y-41228D01*
X77081Y-41266D01*
X77156Y-41285D01*
X77231Y-41285D01*
X77306Y-41097D01*
G54D11*
X54750Y-25750D02*
X54750Y-44750D01*
G54D13*
X56575Y-32250D03*
X57579Y-33116D03*
X57579Y-31364D03*
G54D14*
X61750Y-38000D03*
G54D15*
X62750Y-38000D03*
X63750Y-38000D03*
X64750Y-38000D03*
X64750Y-35000D03*
X63750Y-35000D03*
X62750Y-35000D03*
X61750Y-35000D03*
G54D16*
X64000Y-26250D03*
G54D13*
X64000Y-28250D03*
G54D16*
X56774Y-28000D03*
G54D13*
X59726Y-28000D03*
X58742Y-28000D03*
G54D16*
X56774Y-35250D03*
G54D13*
X59726Y-35250D03*
X58742Y-35250D03*
G54D16*
X61500Y-26250D03*
G54D13*
X57500Y-26250D03*
G54D16*
X68250Y-43159D03*
G54D13*
X68250Y-44341D03*
G54D16*
X68250Y-29659D03*
G54D13*
X68250Y-30841D03*
G54D16*
X68250Y-37591D03*
G54D13*
X68250Y-36409D03*
G54D16*
X75000Y-30841D03*
G54D13*
X75000Y-29659D03*
G54D16*
X61500Y-29659D03*
G54D13*
X61500Y-30841D03*
G54D16*
X75000Y-43159D03*
G54D13*
X75000Y-44341D03*
G54D16*
X61500Y-43159D03*
G54D13*
X61500Y-44341D03*
X56094Y-39990D03*
X57906Y-39990D03*
X57906Y-42510D03*
X56094Y-42510D03*
X76500Y-33250D03*
X72500Y-33250D03*
X75000Y-34750D03*
X71000Y-34750D03*
X66000Y-28250D03*
X66000Y-32250D03*
X68000Y-39500D03*
X64000Y-39500D03*
X60000Y-37500D03*
X56000Y-37500D03*
G54D17*
X66250Y-26500D03*
X68500Y-26500D03*
G54D18*
X71750Y-41500D03*
X55750Y-25500D03*
X60250Y-32500D03*
G54D19*
X64000Y-26250D02*
X61500Y-26250D01*
X62750Y-33250D02*
X63750Y-32250D01*
X62750Y-35000D02*
X62750Y-33250D01*
X63750Y-32250D02*
X66000Y-32250D01*
X61500Y-29659D02*
X65591Y-29659D01*
X66000Y-29250D02*
X66000Y-28250D01*
X65591Y-29659D02*
X66000Y-29250D01*
X66000Y-28250D02*
X70500Y-28250D01*
X71750Y-27000D02*
X75500Y-27000D01*
X70500Y-28250D02*
X71750Y-27000D01*
X75500Y-27000D02*
X77000Y-27000D01*
X75000Y-40000D02*
X75000Y-43159D01*
X78000Y-37000D02*
X75000Y-40000D01*
X78000Y-28000D02*
X78000Y-37000D01*
X77000Y-27000D02*
X78000Y-28000D01*
X63750Y-38000D02*
X63750Y-39250D01*
X63750Y-39250D02*
X64000Y-39500D01*
X71000Y-34750D02*
X69500Y-34750D01*
X69250Y-35000D02*
X64750Y-35000D01*
X69250Y-35000D02*
X69500Y-34750D01*
X68250Y-29659D02*
X71341Y-29659D01*
X76250Y-28250D02*
X76500Y-28500D01*
X71341Y-29659D02*
X72750Y-28250D01*
X72750Y-28250D02*
X76250Y-28250D01*
X76500Y-28500D02*
X76500Y-33250D01*
X68250Y-43159D02*
X72841Y-43159D01*
X76500Y-36500D02*
X76500Y-33250D01*
X73750Y-39250D02*
X76500Y-36500D01*
X73750Y-42250D02*
X73750Y-39250D01*
X72841Y-43159D02*
X73750Y-42250D01*
X57906Y-42510D02*
X57906Y-39990D01*
X57906Y-39990D02*
X58500Y-39396D01*
X58500Y-39396D02*
X60000Y-37896D01*
X60000Y-37896D02*
X60000Y-37500D01*
X62750Y-38000D02*
X62750Y-39000D01*
X58500Y-39500D02*
X58500Y-39396D01*
X62250Y-39500D02*
X58500Y-39500D01*
X62750Y-39000D02*
X62250Y-39500D01*
X56774Y-30559D02*
X57579Y-31364D01*
X56774Y-28000D02*
X56774Y-26976D01*
X56774Y-26976D02*
X57500Y-26250D01*
X56774Y-28000D02*
X56774Y-30559D01*
X64500Y-33250D02*
X69500Y-33250D01*
X63750Y-34000D02*
X63750Y-35000D01*
X72500Y-33250D02*
X69500Y-33250D01*
X63750Y-34000D02*
X64500Y-33250D01*
X65341Y-43159D02*
X66750Y-41750D01*
X75000Y-34750D02*
X75000Y-30841D01*
X61500Y-43159D02*
X65341Y-43159D01*
X75000Y-35750D02*
X75000Y-34750D01*
X69000Y-41750D02*
X75000Y-35750D01*
X66750Y-41750D02*
X69000Y-41750D01*
X68000Y-37841D02*
X68250Y-37591D01*
X68000Y-39500D02*
X68000Y-37841D01*
X56000Y-36500D02*
X56000Y-36024D01*
X56000Y-37500D02*
X56000Y-36500D01*
X56000Y-36024D02*
X56774Y-35250D01*
X56774Y-35250D02*
X56774Y-33921D01*
X61750Y-38000D02*
X61750Y-37250D01*
X61000Y-36500D02*
X56000Y-36500D01*
X61750Y-37250D02*
X61000Y-36500D01*
X56774Y-33921D02*
X57579Y-33116D01*
X73841Y-29659D02*
X75000Y-29659D01*
X72750Y-30750D02*
X73841Y-29659D01*
X72659Y-30841D02*
X72750Y-30750D01*
X68250Y-30841D02*
X72659Y-30841D01*
X58742Y-28000D02*
X59726Y-28000D01*
X59726Y-28000D02*
X63750Y-28000D01*
X63750Y-28000D02*
X64000Y-28250D01*
X61500Y-30841D02*
X59841Y-30841D01*
X58742Y-29742D02*
X58742Y-28000D01*
X59841Y-30841D02*
X58742Y-29742D01*
X61500Y-44341D02*
X68250Y-44341D01*
X56575Y-32250D02*
X59500Y-32250D01*
X60409Y-30841D02*
X61500Y-30841D01*
X60000Y-31250D02*
X60409Y-30841D01*
X59500Y-32250D02*
X60000Y-31750D01*
X61750Y-35000D02*
X61750Y-34500D01*
X61750Y-34500D02*
X59500Y-32250D01*
X58742Y-35250D02*
X59726Y-35250D01*
X61750Y-35000D02*
X59976Y-35000D01*
X59976Y-35000D02*
X59726Y-35250D01*
X68250Y-44341D02*
X75000Y-44341D01*
X61500Y-30841D02*
X68250Y-30841D01*
X60000Y-31750D02*
X60000Y-31250D01*
X68250Y-36409D02*
X66591Y-36409D01*
X64750Y-41000D02*
X62000Y-41000D01*
X66000Y-39750D02*
X64750Y-41000D01*
X66000Y-37000D02*
X66000Y-39750D01*
X66591Y-36409D02*
X66000Y-37000D01*
X68250Y-36409D02*
X71841Y-36409D01*
X73750Y-31750D02*
X72750Y-30750D01*
X73750Y-34500D02*
X73750Y-31750D01*
X71841Y-36409D02*
X73750Y-34500D01*
X61500Y-44341D02*
X59750Y-44341D01*
X59750Y-44341D02*
X56591Y-44341D01*
X56591Y-44341D02*
X56094Y-43844D01*
X56094Y-43844D02*
X56094Y-42510D01*
X62000Y-41000D02*
X60750Y-41000D01*
X59750Y-44250D02*
X59750Y-44341D01*
X59750Y-42000D02*
X59750Y-44250D01*
X60750Y-41000D02*
X59750Y-42000D01*
X56094Y-39990D02*
X56094Y-42510D01*
X58742Y-35250D02*
X59851Y-35250D01*
X58742Y-35250D02*
X58742Y-34141D01*
X59726Y-35250D02*
X59726Y-34141D01*
X58742Y-28000D02*
X59851Y-28000D01*
X58742Y-28000D02*
X58742Y-29109D01*
X59726Y-28000D02*
X60835Y-28000D01*
X59726Y-28000D02*
X59726Y-29109D01*
X64000Y-28250D02*
X62891Y-28250D01*
X56094Y-42510D02*
X56094Y-41401D01*
X56094Y-42510D02*
X56094Y-43619D01*
X56094Y-39990D02*
X56094Y-41099D01*
G54D20*
X74050Y-35300D02*
X74050Y-35350D01*
X74050Y-31950D02*
X74050Y-34200D01*
X74000Y-35200D02*
X74000Y-35400D01*
X74000Y-31950D02*
X74000Y-34300D01*
X73950Y-35050D02*
X73950Y-35450D01*
X73950Y-31950D02*
X73950Y-34450D01*
X73950Y-29200D02*
X73950Y-29350D01*
X73900Y-43450D02*
X73900Y-44500D01*
X73900Y-29200D02*
X73900Y-35500D01*
X73850Y-43500D02*
X73850Y-44500D01*
X73850Y-29200D02*
X73850Y-35550D01*
X73800Y-43550D02*
X73800Y-44500D01*
X73800Y-29200D02*
X73800Y-35600D01*
X73750Y-43600D02*
X73750Y-44500D01*
X73750Y-29200D02*
X73750Y-35650D01*
X73700Y-43650D02*
X73700Y-44500D01*
X73700Y-29200D02*
X73700Y-35700D01*
X73650Y-43700D02*
X73650Y-44500D01*
X73650Y-29200D02*
X73650Y-35750D01*
X73600Y-43750D02*
X73600Y-44500D01*
X73600Y-29200D02*
X73600Y-35800D01*
X73550Y-43800D02*
X73550Y-44500D01*
X73550Y-33550D02*
X73550Y-35850D01*
X73550Y-29200D02*
X73550Y-32950D01*
X73500Y-43850D02*
X73500Y-44500D01*
X73500Y-33700D02*
X73500Y-35900D01*
X73500Y-29200D02*
X73500Y-32800D01*
X73450Y-43900D02*
X73450Y-44500D01*
X73450Y-33800D02*
X73450Y-35950D01*
X73450Y-29200D02*
X73450Y-32700D01*
X73400Y-43950D02*
X73400Y-44500D01*
X73400Y-33900D02*
X73400Y-36000D01*
X73400Y-29200D02*
X73400Y-32600D01*
X73350Y-43950D02*
X73350Y-44500D01*
X73350Y-33950D02*
X73350Y-36050D01*
X73350Y-29200D02*
X73350Y-32550D01*
X73300Y-44000D02*
X73300Y-44500D01*
X73300Y-34000D02*
X73300Y-36100D01*
X73300Y-29200D02*
X73300Y-32500D01*
X73250Y-44050D02*
X73250Y-44500D01*
X73250Y-34050D02*
X73250Y-36150D01*
X73250Y-29200D02*
X73250Y-32450D01*
X73200Y-44050D02*
X73200Y-44500D01*
X73200Y-34100D02*
X73200Y-36200D01*
X73200Y-29200D02*
X73200Y-32400D01*
X73150Y-44050D02*
X73150Y-44500D01*
X73150Y-34150D02*
X73150Y-36250D01*
X73150Y-29200D02*
X73150Y-32350D01*
X73100Y-44100D02*
X73100Y-44500D01*
X73100Y-34200D02*
X73100Y-36300D01*
X73100Y-29250D02*
X73100Y-32300D01*
X73050Y-44100D02*
X73050Y-44500D01*
X73050Y-34200D02*
X73050Y-36350D01*
X73050Y-29300D02*
X73050Y-32300D01*
X73000Y-44100D02*
X73000Y-44500D01*
X73000Y-34250D02*
X73000Y-36400D01*
X73000Y-29350D02*
X73000Y-32250D01*
X72950Y-44100D02*
X72950Y-44500D01*
X72950Y-34250D02*
X72950Y-36450D01*
X72950Y-29400D02*
X72950Y-32250D01*
X72900Y-44100D02*
X72900Y-44500D01*
X72900Y-34300D02*
X72900Y-36500D01*
X72900Y-29450D02*
X72900Y-32200D01*
X72850Y-44100D02*
X72850Y-44500D01*
X72850Y-34300D02*
X72850Y-36550D01*
X72850Y-29500D02*
X72850Y-32200D01*
X72800Y-44100D02*
X72800Y-44500D01*
X72800Y-34300D02*
X72800Y-36600D01*
X72800Y-29550D02*
X72800Y-32200D01*
X72750Y-44100D02*
X72750Y-44500D01*
X72750Y-34350D02*
X72750Y-36650D01*
X72750Y-29600D02*
X72750Y-32150D01*
X72700Y-44100D02*
X72700Y-44500D01*
X72700Y-34350D02*
X72700Y-36700D01*
X72700Y-29650D02*
X72700Y-32150D01*
X72650Y-44100D02*
X72650Y-44500D01*
X72650Y-34350D02*
X72650Y-36750D01*
X72650Y-29700D02*
X72650Y-32150D01*
X72600Y-44100D02*
X72600Y-44500D01*
X72600Y-34350D02*
X72600Y-36800D01*
X72600Y-29750D02*
X72600Y-32150D01*
X72550Y-44100D02*
X72550Y-44500D01*
X72550Y-34350D02*
X72550Y-36850D01*
X72550Y-29800D02*
X72550Y-32150D01*
X72500Y-44100D02*
X72500Y-44500D01*
X72500Y-34350D02*
X72500Y-36900D01*
X72500Y-29850D02*
X72500Y-32150D01*
X72450Y-44100D02*
X72450Y-44500D01*
X72450Y-34350D02*
X72450Y-36950D01*
X72450Y-29900D02*
X72450Y-32150D01*
X72400Y-44100D02*
X72400Y-44500D01*
X72400Y-34350D02*
X72400Y-37000D01*
X72400Y-29950D02*
X72400Y-32150D01*
X72350Y-44100D02*
X72350Y-44500D01*
X72350Y-34350D02*
X72350Y-37050D01*
X72350Y-30000D02*
X72350Y-32150D01*
X72300Y-44100D02*
X72300Y-44500D01*
X72300Y-34350D02*
X72300Y-37100D01*
X72300Y-30050D02*
X72300Y-32150D01*
X72250Y-44100D02*
X72250Y-44500D01*
X72250Y-34350D02*
X72250Y-37150D01*
X72250Y-30100D02*
X72250Y-32150D01*
X72200Y-44100D02*
X72200Y-44500D01*
X72200Y-34300D02*
X72200Y-37200D01*
X72200Y-30150D02*
X72200Y-32200D01*
X72150Y-44100D02*
X72150Y-44500D01*
X72150Y-34300D02*
X72150Y-37250D01*
X72150Y-30200D02*
X72150Y-32200D01*
X72100Y-44100D02*
X72100Y-44500D01*
X72100Y-34300D02*
X72100Y-37300D01*
X72100Y-30250D02*
X72100Y-32200D01*
X72050Y-44100D02*
X72050Y-44500D01*
X72050Y-35050D02*
X72050Y-37350D01*
X72050Y-34250D02*
X72050Y-34450D01*
X72050Y-30300D02*
X72050Y-32250D01*
X72000Y-44100D02*
X72000Y-44500D01*
X72000Y-35200D02*
X72000Y-37400D01*
X72000Y-34250D02*
X72000Y-34300D01*
X72000Y-30350D02*
X72000Y-32250D01*
X71950Y-44100D02*
X71950Y-44500D01*
X71950Y-35300D02*
X71950Y-37450D01*
X71950Y-30400D02*
X71950Y-32300D01*
X71900Y-44100D02*
X71900Y-44500D01*
X71900Y-35400D02*
X71900Y-37500D01*
X71900Y-30450D02*
X71900Y-32300D01*
X71850Y-44100D02*
X71850Y-44500D01*
X71850Y-35450D02*
X71850Y-37550D01*
X71850Y-30450D02*
X71850Y-32300D01*
X71800Y-44100D02*
X71800Y-44500D01*
X71800Y-35500D02*
X71800Y-37600D01*
X71800Y-30500D02*
X71800Y-32300D01*
X71750Y-44100D02*
X71750Y-44500D01*
X71750Y-35550D02*
X71750Y-37650D01*
X71750Y-30550D02*
X71750Y-32300D01*
X71700Y-44100D02*
X71700Y-44500D01*
X71700Y-35600D02*
X71700Y-37700D01*
X71700Y-30550D02*
X71700Y-32300D01*
X71650Y-44100D02*
X71650Y-44500D01*
X71650Y-35650D02*
X71650Y-37750D01*
X71650Y-30550D02*
X71650Y-32300D01*
X71600Y-44100D02*
X71600Y-44500D01*
X71600Y-35700D02*
X71600Y-37800D01*
X71600Y-30600D02*
X71600Y-32300D01*
X71550Y-44100D02*
X71550Y-44500D01*
X71550Y-35700D02*
X71550Y-37850D01*
X71550Y-30600D02*
X71550Y-32300D01*
X71500Y-44100D02*
X71500Y-44500D01*
X71500Y-35750D02*
X71500Y-37900D01*
X71500Y-30600D02*
X71500Y-32300D01*
X71450Y-44100D02*
X71450Y-44500D01*
X71450Y-35750D02*
X71450Y-37950D01*
X71450Y-30600D02*
X71450Y-32300D01*
X71400Y-44100D02*
X71400Y-44500D01*
X71400Y-35800D02*
X71400Y-38000D01*
X71400Y-30600D02*
X71400Y-32300D01*
X71350Y-44100D02*
X71350Y-44500D01*
X71350Y-35800D02*
X71350Y-38050D01*
X71350Y-30600D02*
X71350Y-32300D01*
X71300Y-44100D02*
X71300Y-44500D01*
X71300Y-35800D02*
X71300Y-38100D01*
X71300Y-30600D02*
X71300Y-32300D01*
X71250Y-44100D02*
X71250Y-44500D01*
X71250Y-35850D02*
X71250Y-38150D01*
X71250Y-30600D02*
X71250Y-32300D01*
X71200Y-44100D02*
X71200Y-44500D01*
X71200Y-35850D02*
X71200Y-38200D01*
X71200Y-30600D02*
X71200Y-32300D01*
X71150Y-44100D02*
X71150Y-44500D01*
X71150Y-35850D02*
X71150Y-38250D01*
X71150Y-30600D02*
X71150Y-32300D01*
X71100Y-44100D02*
X71100Y-44500D01*
X71100Y-35850D02*
X71100Y-38300D01*
X71100Y-30600D02*
X71100Y-32300D01*
X71050Y-44100D02*
X71050Y-44500D01*
X71050Y-35850D02*
X71050Y-38350D01*
X71050Y-30600D02*
X71050Y-32300D01*
X71000Y-44100D02*
X71000Y-44500D01*
X71000Y-35850D02*
X71000Y-38400D01*
X71000Y-30600D02*
X71000Y-32300D01*
X70950Y-44100D02*
X70950Y-44500D01*
X70950Y-35850D02*
X70950Y-38450D01*
X70950Y-30600D02*
X70950Y-32300D01*
X70900Y-44100D02*
X70900Y-44500D01*
X70900Y-35850D02*
X70900Y-38500D01*
X70900Y-30600D02*
X70900Y-32300D01*
X70850Y-44100D02*
X70850Y-44500D01*
X70850Y-35850D02*
X70850Y-38550D01*
X70850Y-30600D02*
X70850Y-32300D01*
X70800Y-44100D02*
X70800Y-44500D01*
X70800Y-35850D02*
X70800Y-38600D01*
X70800Y-30600D02*
X70800Y-32300D01*
X70750Y-44100D02*
X70750Y-44500D01*
X70750Y-35850D02*
X70750Y-38650D01*
X70750Y-30600D02*
X70750Y-32300D01*
X70700Y-44100D02*
X70700Y-44500D01*
X70700Y-35800D02*
X70700Y-38700D01*
X70700Y-30600D02*
X70700Y-32300D01*
X70650Y-44100D02*
X70650Y-44500D01*
X70650Y-35800D02*
X70650Y-38750D01*
X70650Y-30600D02*
X70650Y-32300D01*
X70600Y-44100D02*
X70600Y-44500D01*
X70600Y-35800D02*
X70600Y-38800D01*
X70600Y-30600D02*
X70600Y-32300D01*
X70550Y-44100D02*
X70550Y-44500D01*
X70550Y-35750D02*
X70550Y-38850D01*
X70550Y-30600D02*
X70550Y-32300D01*
X70500Y-44100D02*
X70500Y-44500D01*
X70500Y-35750D02*
X70500Y-38900D01*
X70500Y-30600D02*
X70500Y-32300D01*
X70450Y-44100D02*
X70450Y-44500D01*
X70450Y-35700D02*
X70450Y-38950D01*
X70450Y-30600D02*
X70450Y-32300D01*
X70400Y-44100D02*
X70400Y-44500D01*
X70400Y-35700D02*
X70400Y-39000D01*
X70400Y-30600D02*
X70400Y-32300D01*
X70350Y-44100D02*
X70350Y-44500D01*
X70350Y-35700D02*
X70350Y-39050D01*
X70350Y-30600D02*
X70350Y-32300D01*
X70300Y-44100D02*
X70300Y-44500D01*
X70300Y-35700D02*
X70300Y-39100D01*
X70300Y-30600D02*
X70300Y-32300D01*
X70250Y-44100D02*
X70250Y-44500D01*
X70250Y-35700D02*
X70250Y-39150D01*
X70250Y-30600D02*
X70250Y-32300D01*
X70200Y-44100D02*
X70200Y-44500D01*
X70200Y-35700D02*
X70200Y-39200D01*
X70200Y-30600D02*
X70200Y-32300D01*
X70150Y-44100D02*
X70150Y-44500D01*
X70150Y-35700D02*
X70150Y-39250D01*
X70150Y-30600D02*
X70150Y-32300D01*
X70100Y-44100D02*
X70100Y-44500D01*
X70100Y-35700D02*
X70100Y-39300D01*
X70100Y-30600D02*
X70100Y-32300D01*
X70050Y-44100D02*
X70050Y-44500D01*
X70050Y-35700D02*
X70050Y-39350D01*
X70050Y-30600D02*
X70050Y-32300D01*
X70000Y-44100D02*
X70000Y-44500D01*
X70000Y-35700D02*
X70000Y-39400D01*
X70000Y-30600D02*
X70000Y-32300D01*
X69950Y-44100D02*
X69950Y-44500D01*
X69950Y-35700D02*
X69950Y-39450D01*
X69950Y-30600D02*
X69950Y-32300D01*
X69900Y-44100D02*
X69900Y-44500D01*
X69900Y-35700D02*
X69900Y-39500D01*
X69900Y-30600D02*
X69900Y-32300D01*
X69850Y-44100D02*
X69850Y-44500D01*
X69850Y-35750D02*
X69850Y-39550D01*
X69850Y-30600D02*
X69850Y-32300D01*
X69800Y-44100D02*
X69800Y-44500D01*
X69800Y-35800D02*
X69800Y-39600D01*
X69800Y-30600D02*
X69800Y-32300D01*
X69750Y-44100D02*
X69750Y-44500D01*
X69750Y-35800D02*
X69750Y-39650D01*
X69750Y-30600D02*
X69750Y-32300D01*
X69700Y-44100D02*
X69700Y-44500D01*
X69700Y-35850D02*
X69700Y-39700D01*
X69700Y-30600D02*
X69700Y-32300D01*
X69650Y-44100D02*
X69650Y-44500D01*
X69650Y-35850D02*
X69650Y-39750D01*
X69650Y-30600D02*
X69650Y-32300D01*
X69600Y-44100D02*
X69600Y-44500D01*
X69600Y-35900D02*
X69600Y-39800D01*
X69600Y-30600D02*
X69600Y-32300D01*
X69550Y-44100D02*
X69550Y-44500D01*
X69550Y-35900D02*
X69550Y-39850D01*
X69550Y-30600D02*
X69550Y-32300D01*
X69500Y-44100D02*
X69500Y-44500D01*
X69500Y-35950D02*
X69500Y-39900D01*
X69500Y-30600D02*
X69500Y-32300D01*
X69450Y-44100D02*
X69450Y-44500D01*
X69450Y-35950D02*
X69450Y-39950D01*
X69450Y-30600D02*
X69450Y-32300D01*
X69400Y-44100D02*
X69400Y-44500D01*
X69400Y-35950D02*
X69400Y-40000D01*
X69400Y-30600D02*
X69400Y-32300D01*
X69350Y-44100D02*
X69350Y-44500D01*
X69350Y-35950D02*
X69350Y-40050D01*
X69350Y-30600D02*
X69350Y-32300D01*
X69300Y-38700D02*
X69300Y-40100D01*
X69300Y-35950D02*
X69300Y-36100D01*
X69300Y-31150D02*
X69300Y-32300D01*
X69250Y-38700D02*
X69250Y-40150D01*
X69250Y-31300D02*
X69250Y-32300D01*
X69200Y-38700D02*
X69200Y-40200D01*
X69200Y-31400D02*
X69200Y-32300D01*
X69150Y-38700D02*
X69150Y-40250D01*
X69150Y-31450D02*
X69150Y-32300D01*
X69100Y-38700D02*
X69100Y-40300D01*
X69100Y-31550D02*
X69100Y-32300D01*
X69050Y-39800D02*
X69050Y-40350D01*
X69050Y-38700D02*
X69050Y-39200D01*
X69050Y-31600D02*
X69050Y-32300D01*
X69000Y-39950D02*
X69000Y-40400D01*
X69000Y-38700D02*
X69000Y-39050D01*
X69000Y-31650D02*
X69000Y-32300D01*
X68950Y-40050D02*
X68950Y-40450D01*
X68950Y-38700D02*
X68950Y-38950D01*
X68950Y-31700D02*
X68950Y-32300D01*
X68900Y-40150D02*
X68900Y-40500D01*
X68900Y-31750D02*
X68900Y-32300D01*
X68850Y-40200D02*
X68850Y-40550D01*
X68850Y-31750D02*
X68850Y-32300D01*
X68800Y-40250D02*
X68800Y-40600D01*
X68800Y-31800D02*
X68800Y-32300D01*
X68750Y-40300D02*
X68750Y-40650D01*
X68750Y-31850D02*
X68750Y-32300D01*
X68700Y-40350D02*
X68700Y-40700D01*
X68700Y-31850D02*
X68700Y-32300D01*
X68650Y-40400D02*
X68650Y-40750D01*
X68650Y-31850D02*
X68650Y-32300D01*
X68600Y-40450D02*
X68600Y-40800D01*
X68600Y-31900D02*
X68600Y-32300D01*
X68550Y-40450D02*
X68550Y-40800D01*
X68550Y-31900D02*
X68550Y-32300D01*
X68500Y-40500D02*
X68500Y-40800D01*
X68500Y-31900D02*
X68500Y-32300D01*
X68450Y-40500D02*
X68450Y-40800D01*
X68450Y-31950D02*
X68450Y-32300D01*
X68400Y-40550D02*
X68400Y-40800D01*
X68400Y-31950D02*
X68400Y-32300D01*
X68350Y-40550D02*
X68350Y-40800D01*
X68350Y-31950D02*
X68350Y-32300D01*
X68300Y-40550D02*
X68300Y-40800D01*
X68300Y-31950D02*
X68300Y-32300D01*
X68250Y-40600D02*
X68250Y-40800D01*
X68250Y-31950D02*
X68250Y-32300D01*
X68200Y-40600D02*
X68200Y-40800D01*
X68200Y-31950D02*
X68200Y-32300D01*
X68150Y-40600D02*
X68150Y-40800D01*
X68150Y-31950D02*
X68150Y-32300D01*
X68100Y-40600D02*
X68100Y-40800D01*
X68100Y-31950D02*
X68100Y-32300D01*
X68050Y-40600D02*
X68050Y-40800D01*
X68050Y-31950D02*
X68050Y-32300D01*
X68000Y-40600D02*
X68000Y-40800D01*
X68000Y-31900D02*
X68000Y-32300D01*
X67950Y-40600D02*
X67950Y-40800D01*
X67950Y-31900D02*
X67950Y-32300D01*
X67900Y-40600D02*
X67900Y-40800D01*
X67900Y-31900D02*
X67900Y-32300D01*
X67850Y-40600D02*
X67850Y-40800D01*
X67850Y-31850D02*
X67850Y-32300D01*
X67800Y-40600D02*
X67800Y-40800D01*
X67800Y-31850D02*
X67800Y-32300D01*
X67750Y-40600D02*
X67750Y-40800D01*
X67750Y-31850D02*
X67750Y-32300D01*
X67700Y-40550D02*
X67700Y-40800D01*
X67700Y-31800D02*
X67700Y-32300D01*
X67650Y-40550D02*
X67650Y-40800D01*
X67650Y-31750D02*
X67650Y-32300D01*
X67600Y-40550D02*
X67600Y-40800D01*
X67600Y-31750D02*
X67600Y-32300D01*
X67550Y-40500D02*
X67550Y-40800D01*
X67550Y-31700D02*
X67550Y-32300D01*
X67500Y-40500D02*
X67500Y-40800D01*
X67500Y-31650D02*
X67500Y-32300D01*
X67450Y-40450D02*
X67450Y-40800D01*
X67450Y-31600D02*
X67450Y-32300D01*
X67400Y-40450D02*
X67400Y-40800D01*
X67400Y-31550D02*
X67400Y-32300D01*
X67350Y-40400D02*
X67350Y-40800D01*
X67350Y-31450D02*
X67350Y-32300D01*
X67300Y-40350D02*
X67300Y-40800D01*
X67300Y-31400D02*
X67300Y-32300D01*
X67250Y-40300D02*
X67250Y-40800D01*
X67250Y-31300D02*
X67250Y-32300D01*
X67200Y-40250D02*
X67200Y-40800D01*
X67200Y-35950D02*
X67200Y-36100D01*
X67200Y-31150D02*
X67200Y-32300D01*
X67150Y-42700D02*
X67150Y-44500D01*
X67150Y-40200D02*
X67150Y-40800D01*
X67150Y-35950D02*
X67150Y-37400D01*
X67150Y-29200D02*
X67150Y-32300D01*
X67100Y-42750D02*
X67100Y-44500D01*
X67100Y-40150D02*
X67100Y-40800D01*
X67100Y-35950D02*
X67100Y-37550D01*
X67100Y-29200D02*
X67100Y-32300D01*
X67050Y-42800D02*
X67050Y-44500D01*
X67050Y-40050D02*
X67050Y-40800D01*
X67050Y-35950D02*
X67050Y-38950D01*
X67050Y-29200D02*
X67050Y-31950D01*
X67000Y-42850D02*
X67000Y-44500D01*
X67000Y-39950D02*
X67000Y-40800D01*
X67000Y-35950D02*
X67000Y-39050D01*
X67000Y-29200D02*
X67000Y-31800D01*
X66950Y-42900D02*
X66950Y-44500D01*
X66950Y-39800D02*
X66950Y-40800D01*
X66950Y-35950D02*
X66950Y-39200D01*
X66950Y-29200D02*
X66950Y-31700D01*
X66900Y-42950D02*
X66900Y-44500D01*
X66900Y-35950D02*
X66900Y-40800D01*
X66900Y-29550D02*
X66900Y-31600D01*
X66850Y-43000D02*
X66850Y-44500D01*
X66850Y-35950D02*
X66850Y-40800D01*
X66850Y-29650D02*
X66850Y-31550D01*
X66800Y-43050D02*
X66800Y-44500D01*
X66800Y-35950D02*
X66800Y-40800D01*
X66800Y-29750D02*
X66800Y-31500D01*
X66750Y-43100D02*
X66750Y-44500D01*
X66750Y-35950D02*
X66750Y-40800D01*
X66750Y-29850D02*
X66750Y-31450D01*
X66700Y-43150D02*
X66700Y-44500D01*
X66700Y-35950D02*
X66700Y-40800D01*
X66700Y-29900D02*
X66700Y-31400D01*
X66650Y-43200D02*
X66650Y-44500D01*
X66650Y-35950D02*
X66650Y-40800D01*
X66650Y-29950D02*
X66650Y-31350D01*
X66600Y-43250D02*
X66600Y-44500D01*
X66600Y-35950D02*
X66600Y-40800D01*
X66600Y-30000D02*
X66600Y-31300D01*
X66550Y-43300D02*
X66550Y-44500D01*
X66550Y-35950D02*
X66550Y-40800D01*
X66550Y-30050D02*
X66550Y-31300D01*
X66500Y-43350D02*
X66500Y-44500D01*
X66500Y-35950D02*
X66500Y-40800D01*
X66500Y-30100D02*
X66500Y-31250D01*
X66450Y-43400D02*
X66450Y-44500D01*
X66450Y-35950D02*
X66450Y-40850D01*
X66450Y-30150D02*
X66450Y-31250D01*
X66400Y-43450D02*
X66400Y-44500D01*
X66400Y-35950D02*
X66400Y-40850D01*
X66400Y-30200D02*
X66400Y-31200D01*
X66350Y-43500D02*
X66350Y-44500D01*
X66350Y-35950D02*
X66350Y-40900D01*
X66350Y-30250D02*
X66350Y-31200D01*
X66300Y-43550D02*
X66300Y-44500D01*
X66300Y-35950D02*
X66300Y-40900D01*
X66300Y-30300D02*
X66300Y-31200D01*
X66250Y-43600D02*
X66250Y-44500D01*
X66250Y-35950D02*
X66250Y-40950D01*
X66250Y-30350D02*
X66250Y-31150D01*
X66200Y-43650D02*
X66200Y-44500D01*
X66200Y-35950D02*
X66200Y-40950D01*
X66200Y-30400D02*
X66200Y-31150D01*
X66150Y-43700D02*
X66150Y-44500D01*
X66150Y-35950D02*
X66150Y-41000D01*
X66150Y-30450D02*
X66150Y-31150D01*
X66100Y-43750D02*
X66100Y-44500D01*
X66100Y-35950D02*
X66100Y-41050D01*
X66100Y-30450D02*
X66100Y-31150D01*
X66050Y-43800D02*
X66050Y-44500D01*
X66050Y-35950D02*
X66050Y-41100D01*
X66050Y-30500D02*
X66050Y-31150D01*
X66000Y-43850D02*
X66000Y-44500D01*
X66000Y-35950D02*
X66000Y-41150D01*
X66000Y-30550D02*
X66000Y-31150D01*
X65950Y-43900D02*
X65950Y-44500D01*
X65950Y-35950D02*
X65950Y-41200D01*
X65950Y-30550D02*
X65950Y-31150D01*
X65900Y-43950D02*
X65900Y-44500D01*
X65900Y-35950D02*
X65900Y-41250D01*
X65900Y-30550D02*
X65900Y-31150D01*
X65850Y-43950D02*
X65850Y-44500D01*
X65850Y-35950D02*
X65850Y-41300D01*
X65850Y-30600D02*
X65850Y-31150D01*
X65800Y-44000D02*
X65800Y-44500D01*
X65800Y-35950D02*
X65800Y-41350D01*
X65800Y-30600D02*
X65800Y-31150D01*
X65750Y-44050D02*
X65750Y-44500D01*
X65750Y-35950D02*
X65750Y-41400D01*
X65750Y-30600D02*
X65750Y-31150D01*
X65700Y-44050D02*
X65700Y-44500D01*
X65700Y-39100D02*
X65700Y-41450D01*
X65700Y-36100D02*
X65700Y-36900D01*
X65700Y-30600D02*
X65700Y-31200D01*
X65650Y-44050D02*
X65650Y-44500D01*
X65650Y-39100D02*
X65650Y-41500D01*
X65650Y-36100D02*
X65650Y-36900D01*
X65650Y-30600D02*
X65650Y-31200D01*
X65600Y-44100D02*
X65600Y-44500D01*
X65600Y-39100D02*
X65600Y-41550D01*
X65600Y-36100D02*
X65600Y-36900D01*
X65600Y-30600D02*
X65600Y-31200D01*
X65550Y-44100D02*
X65550Y-44500D01*
X65550Y-39100D02*
X65550Y-41600D01*
X65550Y-36100D02*
X65550Y-36900D01*
X65550Y-30600D02*
X65550Y-31250D01*
X65500Y-44100D02*
X65500Y-44500D01*
X65500Y-39100D02*
X65500Y-41650D01*
X65500Y-36100D02*
X65500Y-36900D01*
X65500Y-30600D02*
X65500Y-31250D01*
X65450Y-44100D02*
X65450Y-44500D01*
X65450Y-39100D02*
X65450Y-41700D01*
X65450Y-36100D02*
X65450Y-36900D01*
X65450Y-30600D02*
X65450Y-31300D01*
X65400Y-44100D02*
X65400Y-44500D01*
X65400Y-39100D02*
X65400Y-41750D01*
X65400Y-36100D02*
X65400Y-36900D01*
X65400Y-30600D02*
X65400Y-31300D01*
X65350Y-44100D02*
X65350Y-44500D01*
X65350Y-39100D02*
X65350Y-41800D01*
X65350Y-36100D02*
X65350Y-36900D01*
X65350Y-30600D02*
X65350Y-31300D01*
X65300Y-44100D02*
X65300Y-44500D01*
X65300Y-39100D02*
X65300Y-41850D01*
X65300Y-36100D02*
X65300Y-36900D01*
X65300Y-30600D02*
X65300Y-31300D01*
X65250Y-44100D02*
X65250Y-44500D01*
X65250Y-39100D02*
X65250Y-41900D01*
X65250Y-36100D02*
X65250Y-36900D01*
X65250Y-30600D02*
X65250Y-31300D01*
X65200Y-44100D02*
X65200Y-44500D01*
X65200Y-39100D02*
X65200Y-41950D01*
X65200Y-36100D02*
X65200Y-36900D01*
X65200Y-30600D02*
X65200Y-31300D01*
X65150Y-44100D02*
X65150Y-44500D01*
X65150Y-39100D02*
X65150Y-42000D01*
X65150Y-36100D02*
X65150Y-36900D01*
X65150Y-30600D02*
X65150Y-31300D01*
X65100Y-44100D02*
X65100Y-44500D01*
X65100Y-39100D02*
X65100Y-42050D01*
X65100Y-36100D02*
X65100Y-36900D01*
X65100Y-30600D02*
X65100Y-31300D01*
X65050Y-44100D02*
X65050Y-44500D01*
X65050Y-39800D02*
X65050Y-42100D01*
X65050Y-39100D02*
X65050Y-39200D01*
X65050Y-36100D02*
X65050Y-36900D01*
X65050Y-30600D02*
X65050Y-31300D01*
X65000Y-44100D02*
X65000Y-44500D01*
X65000Y-39950D02*
X65000Y-42150D01*
X65000Y-36100D02*
X65000Y-36900D01*
X65000Y-30600D02*
X65000Y-31300D01*
X64950Y-44100D02*
X64950Y-44500D01*
X64950Y-40050D02*
X64950Y-42200D01*
X64950Y-36100D02*
X64950Y-36900D01*
X64950Y-30600D02*
X64950Y-31300D01*
X64900Y-44100D02*
X64900Y-44500D01*
X64900Y-40150D02*
X64900Y-42200D01*
X64900Y-36100D02*
X64900Y-36900D01*
X64900Y-30600D02*
X64900Y-31300D01*
X64850Y-44100D02*
X64850Y-44500D01*
X64850Y-40200D02*
X64850Y-42200D01*
X64850Y-36100D02*
X64850Y-36900D01*
X64850Y-30600D02*
X64850Y-31300D01*
X64800Y-44100D02*
X64800Y-44500D01*
X64800Y-40250D02*
X64800Y-42200D01*
X64800Y-36100D02*
X64800Y-36900D01*
X64800Y-30600D02*
X64800Y-31300D01*
X64750Y-44100D02*
X64750Y-44500D01*
X64750Y-40300D02*
X64750Y-42200D01*
X64750Y-36100D02*
X64750Y-36900D01*
X64750Y-30600D02*
X64750Y-31300D01*
X64700Y-44100D02*
X64700Y-44500D01*
X64700Y-40350D02*
X64700Y-42200D01*
X64700Y-36100D02*
X64700Y-36900D01*
X64700Y-30600D02*
X64700Y-31300D01*
X64650Y-44100D02*
X64650Y-44500D01*
X64650Y-40400D02*
X64650Y-42200D01*
X64650Y-36100D02*
X64650Y-36900D01*
X64650Y-30600D02*
X64650Y-31300D01*
X64600Y-44100D02*
X64600Y-44500D01*
X64600Y-40450D02*
X64600Y-42200D01*
X64600Y-36100D02*
X64600Y-36900D01*
X64600Y-30600D02*
X64600Y-31300D01*
X64550Y-44100D02*
X64550Y-44500D01*
X64550Y-40450D02*
X64550Y-42200D01*
X64550Y-36100D02*
X64550Y-36900D01*
X64550Y-30600D02*
X64550Y-31300D01*
X64500Y-44100D02*
X64500Y-44500D01*
X64500Y-40500D02*
X64500Y-42200D01*
X64500Y-36100D02*
X64500Y-36900D01*
X64500Y-30600D02*
X64500Y-31300D01*
X64450Y-44100D02*
X64450Y-44500D01*
X64450Y-40500D02*
X64450Y-42200D01*
X64450Y-36100D02*
X64450Y-36900D01*
X64450Y-30600D02*
X64450Y-31300D01*
X64400Y-44100D02*
X64400Y-44500D01*
X64400Y-40550D02*
X64400Y-42200D01*
X64400Y-36100D02*
X64400Y-36900D01*
X64400Y-30600D02*
X64400Y-31300D01*
X64350Y-44100D02*
X64350Y-44500D01*
X64350Y-40550D02*
X64350Y-42200D01*
X64350Y-36100D02*
X64350Y-36900D01*
X64350Y-30600D02*
X64350Y-31300D01*
X64300Y-44100D02*
X64300Y-44500D01*
X64300Y-40550D02*
X64300Y-42200D01*
X64300Y-36100D02*
X64300Y-36900D01*
X64300Y-30600D02*
X64300Y-31300D01*
X64250Y-44100D02*
X64250Y-44500D01*
X64250Y-40600D02*
X64250Y-42200D01*
X64250Y-36100D02*
X64250Y-36900D01*
X64250Y-30600D02*
X64250Y-31300D01*
X64200Y-44100D02*
X64200Y-44500D01*
X64200Y-40600D02*
X64200Y-42200D01*
X64200Y-36100D02*
X64200Y-36900D01*
X64200Y-30600D02*
X64200Y-31300D01*
X64150Y-44100D02*
X64150Y-44500D01*
X64150Y-40600D02*
X64150Y-42200D01*
X64150Y-36100D02*
X64150Y-36900D01*
X64150Y-30600D02*
X64150Y-31300D01*
X64100Y-44100D02*
X64100Y-44500D01*
X64100Y-40600D02*
X64100Y-42200D01*
X64100Y-36100D02*
X64100Y-36900D01*
X64100Y-30600D02*
X64100Y-31300D01*
X64050Y-44100D02*
X64050Y-44500D01*
X64050Y-40600D02*
X64050Y-42200D01*
X64050Y-36100D02*
X64050Y-36900D01*
X64050Y-30600D02*
X64050Y-31300D01*
X64000Y-44100D02*
X64000Y-44500D01*
X64000Y-40600D02*
X64000Y-42200D01*
X64000Y-36100D02*
X64000Y-36900D01*
X64000Y-30600D02*
X64000Y-31300D01*
X63950Y-44100D02*
X63950Y-44500D01*
X63950Y-40600D02*
X63950Y-42200D01*
X63950Y-36100D02*
X63950Y-36900D01*
X63950Y-30600D02*
X63950Y-31300D01*
X63900Y-44100D02*
X63900Y-44500D01*
X63900Y-40600D02*
X63900Y-42200D01*
X63900Y-36100D02*
X63900Y-36900D01*
X63900Y-30600D02*
X63900Y-31300D01*
X63850Y-44100D02*
X63850Y-44500D01*
X63850Y-40600D02*
X63850Y-42200D01*
X63850Y-36100D02*
X63850Y-36900D01*
X63850Y-30600D02*
X63850Y-31300D01*
X63800Y-44100D02*
X63800Y-44500D01*
X63800Y-40600D02*
X63800Y-42200D01*
X63800Y-36100D02*
X63800Y-36900D01*
X63800Y-30600D02*
X63800Y-31300D01*
X63750Y-44100D02*
X63750Y-44500D01*
X63750Y-40600D02*
X63750Y-42200D01*
X63750Y-36100D02*
X63750Y-36900D01*
X63750Y-30600D02*
X63750Y-31300D01*
X63700Y-44100D02*
X63700Y-44500D01*
X63700Y-40550D02*
X63700Y-42200D01*
X63700Y-36100D02*
X63700Y-36900D01*
X63700Y-30600D02*
X63700Y-31300D01*
X63650Y-44100D02*
X63650Y-44500D01*
X63650Y-40550D02*
X63650Y-42200D01*
X63650Y-36100D02*
X63650Y-36900D01*
X63650Y-30600D02*
X63650Y-31300D01*
X63600Y-44100D02*
X63600Y-44500D01*
X63600Y-40550D02*
X63600Y-42200D01*
X63600Y-36100D02*
X63600Y-36900D01*
X63600Y-30600D02*
X63600Y-31300D01*
X63550Y-44100D02*
X63550Y-44500D01*
X63550Y-40500D02*
X63550Y-42200D01*
X63550Y-36100D02*
X63550Y-36900D01*
X63550Y-30600D02*
X63550Y-31300D01*
X63500Y-44100D02*
X63500Y-44500D01*
X63500Y-40500D02*
X63500Y-42200D01*
X63500Y-36100D02*
X63500Y-36900D01*
X63500Y-30600D02*
X63500Y-31300D01*
X63450Y-44100D02*
X63450Y-44500D01*
X63450Y-40450D02*
X63450Y-42200D01*
X63450Y-36100D02*
X63450Y-36900D01*
X63450Y-30600D02*
X63450Y-31350D01*
X63400Y-44100D02*
X63400Y-44500D01*
X63400Y-40450D02*
X63400Y-42200D01*
X63400Y-36100D02*
X63400Y-36900D01*
X63400Y-30600D02*
X63400Y-31350D01*
X63350Y-44100D02*
X63350Y-44500D01*
X63350Y-40400D02*
X63350Y-42200D01*
X63350Y-36100D02*
X63350Y-36900D01*
X63350Y-30600D02*
X63350Y-31400D01*
X63300Y-44100D02*
X63300Y-44500D01*
X63300Y-40350D02*
X63300Y-42200D01*
X63300Y-36100D02*
X63300Y-36900D01*
X63300Y-30600D02*
X63300Y-31400D01*
X63300Y-27350D02*
X63300Y-27400D01*
X63250Y-44100D02*
X63250Y-44500D01*
X63250Y-40300D02*
X63250Y-42200D01*
X63250Y-36100D02*
X63250Y-36900D01*
X63250Y-30600D02*
X63250Y-31450D01*
X63250Y-27350D02*
X63250Y-27450D01*
X63200Y-44100D02*
X63200Y-44500D01*
X63200Y-40250D02*
X63200Y-42200D01*
X63200Y-36100D02*
X63200Y-36900D01*
X63200Y-30600D02*
X63200Y-31450D01*
X63200Y-27350D02*
X63200Y-27500D01*
X63150Y-44100D02*
X63150Y-44500D01*
X63150Y-40200D02*
X63150Y-42200D01*
X63150Y-36100D02*
X63150Y-36900D01*
X63150Y-30600D02*
X63150Y-31500D01*
X63150Y-27350D02*
X63150Y-27550D01*
X63100Y-44100D02*
X63100Y-44500D01*
X63100Y-40150D02*
X63100Y-42200D01*
X63100Y-36100D02*
X63100Y-36900D01*
X63100Y-30600D02*
X63100Y-31550D01*
X63100Y-27350D02*
X63100Y-27600D01*
X63050Y-44100D02*
X63050Y-44500D01*
X63050Y-40050D02*
X63050Y-42200D01*
X63050Y-36100D02*
X63050Y-36900D01*
X63050Y-30600D02*
X63050Y-31600D01*
X63050Y-27350D02*
X63050Y-27700D01*
X63000Y-44100D02*
X63000Y-44500D01*
X63000Y-40100D02*
X63000Y-42200D01*
X63000Y-36100D02*
X63000Y-36900D01*
X63000Y-30600D02*
X63000Y-31650D01*
X63000Y-27350D02*
X63000Y-27800D01*
X62950Y-44100D02*
X62950Y-44500D01*
X62950Y-40150D02*
X62950Y-42200D01*
X62950Y-36100D02*
X62950Y-36900D01*
X62950Y-30600D02*
X62950Y-31700D01*
X62950Y-28550D02*
X62950Y-28700D01*
X62950Y-27350D02*
X62950Y-27950D01*
X62900Y-44100D02*
X62900Y-44500D01*
X62900Y-40200D02*
X62900Y-42200D01*
X62900Y-36100D02*
X62900Y-36900D01*
X62900Y-30600D02*
X62900Y-31750D01*
X62900Y-27200D02*
X62900Y-28700D01*
X62850Y-44100D02*
X62850Y-44500D01*
X62850Y-40250D02*
X62850Y-42200D01*
X62850Y-36100D02*
X62850Y-36900D01*
X62850Y-30600D02*
X62850Y-31800D01*
X62850Y-27200D02*
X62850Y-28700D01*
X62800Y-44100D02*
X62800Y-44500D01*
X62800Y-40300D02*
X62800Y-42200D01*
X62800Y-36100D02*
X62800Y-36900D01*
X62800Y-30600D02*
X62800Y-31850D01*
X62800Y-27200D02*
X62800Y-28700D01*
X62750Y-44100D02*
X62750Y-44500D01*
X62750Y-40300D02*
X62750Y-42200D01*
X62750Y-36100D02*
X62750Y-36900D01*
X62750Y-30600D02*
X62750Y-31900D01*
X62750Y-27200D02*
X62750Y-28700D01*
X62700Y-44100D02*
X62700Y-44500D01*
X62700Y-40350D02*
X62700Y-42200D01*
X62700Y-36100D02*
X62700Y-36900D01*
X62700Y-30600D02*
X62700Y-31950D01*
X62700Y-27200D02*
X62700Y-28700D01*
X62650Y-44100D02*
X62650Y-44500D01*
X62650Y-40350D02*
X62650Y-42200D01*
X62650Y-36100D02*
X62650Y-36900D01*
X62650Y-30600D02*
X62650Y-32000D01*
X62650Y-27200D02*
X62650Y-28700D01*
X62600Y-44100D02*
X62600Y-44500D01*
X62600Y-40400D02*
X62600Y-42200D01*
X62600Y-36100D02*
X62600Y-36850D01*
X62600Y-30600D02*
X62600Y-32050D01*
X62600Y-27200D02*
X62600Y-28700D01*
X62550Y-40400D02*
X62550Y-42050D01*
X62550Y-36100D02*
X62550Y-36750D01*
X62550Y-31150D02*
X62550Y-32100D01*
X62550Y-27350D02*
X62550Y-28550D01*
X62500Y-40450D02*
X62500Y-42050D01*
X62500Y-36100D02*
X62500Y-36650D01*
X62500Y-31300D02*
X62500Y-32150D01*
X62500Y-27350D02*
X62500Y-28550D01*
X62450Y-40450D02*
X62450Y-42050D01*
X62450Y-36100D02*
X62450Y-36600D01*
X62450Y-31400D02*
X62450Y-32200D01*
X62450Y-27350D02*
X62450Y-28550D01*
X62400Y-40450D02*
X62400Y-42050D01*
X62400Y-36100D02*
X62400Y-36550D01*
X62400Y-31450D02*
X62400Y-32250D01*
X62400Y-27350D02*
X62400Y-28550D01*
X62350Y-40450D02*
X62350Y-42050D01*
X62350Y-36100D02*
X62350Y-36500D01*
X62350Y-31550D02*
X62350Y-32300D01*
X62350Y-27350D02*
X62350Y-28550D01*
X62300Y-40450D02*
X62300Y-42050D01*
X62300Y-36100D02*
X62300Y-36450D01*
X62300Y-31600D02*
X62300Y-32350D01*
X62300Y-27350D02*
X62300Y-28550D01*
X62250Y-40450D02*
X62250Y-42050D01*
X62250Y-36100D02*
X62250Y-36400D01*
X62250Y-31650D02*
X62250Y-32400D01*
X62250Y-27350D02*
X62250Y-28550D01*
X62200Y-40450D02*
X62200Y-42050D01*
X62200Y-36100D02*
X62200Y-36350D01*
X62200Y-31700D02*
X62200Y-32450D01*
X62200Y-27350D02*
X62200Y-28550D01*
X62150Y-40450D02*
X62150Y-42050D01*
X62150Y-36100D02*
X62150Y-36300D01*
X62150Y-31750D02*
X62150Y-32500D01*
X62150Y-27350D02*
X62150Y-28550D01*
X62100Y-40450D02*
X62100Y-42050D01*
X62100Y-36100D02*
X62100Y-36250D01*
X62100Y-31750D02*
X62100Y-32550D01*
X62100Y-27350D02*
X62100Y-28550D01*
X62050Y-40450D02*
X62050Y-42050D01*
X62050Y-36100D02*
X62050Y-36200D01*
X62050Y-31800D02*
X62050Y-32600D01*
X62050Y-27350D02*
X62050Y-28550D01*
X62000Y-40450D02*
X62000Y-42050D01*
X62000Y-36100D02*
X62000Y-36150D01*
X62000Y-31850D02*
X62000Y-32650D01*
X62000Y-27350D02*
X62000Y-28550D01*
X61950Y-40450D02*
X61950Y-42050D01*
X61950Y-31850D02*
X61950Y-32750D01*
X61950Y-27350D02*
X61950Y-28550D01*
X61900Y-40450D02*
X61900Y-42050D01*
X61900Y-31850D02*
X61900Y-32850D01*
X61900Y-27350D02*
X61900Y-28550D01*
X61850Y-40450D02*
X61850Y-42050D01*
X61850Y-31900D02*
X61850Y-32950D01*
X61850Y-27350D02*
X61850Y-28550D01*
X61800Y-40450D02*
X61800Y-42050D01*
X61800Y-31900D02*
X61800Y-33900D01*
X61800Y-27350D02*
X61800Y-28550D01*
X61750Y-40450D02*
X61750Y-42050D01*
X61750Y-31900D02*
X61750Y-33900D01*
X61750Y-27350D02*
X61750Y-28550D01*
X61700Y-40450D02*
X61700Y-42050D01*
X61700Y-31950D02*
X61700Y-33900D01*
X61700Y-27350D02*
X61700Y-28550D01*
X61650Y-40450D02*
X61650Y-42050D01*
X61650Y-31950D02*
X61650Y-33900D01*
X61650Y-27350D02*
X61650Y-28550D01*
X61600Y-40450D02*
X61600Y-42050D01*
X61600Y-31950D02*
X61600Y-33900D01*
X61600Y-27350D02*
X61600Y-28550D01*
X61550Y-40450D02*
X61550Y-42050D01*
X61550Y-31950D02*
X61550Y-33900D01*
X61550Y-27350D02*
X61550Y-28550D01*
X61500Y-40450D02*
X61500Y-42050D01*
X61500Y-31950D02*
X61500Y-33900D01*
X61500Y-27350D02*
X61500Y-28550D01*
X61450Y-40450D02*
X61450Y-42050D01*
X61450Y-31950D02*
X61450Y-33900D01*
X61450Y-27350D02*
X61450Y-28550D01*
X61400Y-40450D02*
X61400Y-42050D01*
X61400Y-31950D02*
X61400Y-33900D01*
X61400Y-27350D02*
X61400Y-28550D01*
X61350Y-40450D02*
X61350Y-42050D01*
X61350Y-31950D02*
X61350Y-33900D01*
X61350Y-27350D02*
X61350Y-28550D01*
X61300Y-40450D02*
X61300Y-42050D01*
X61300Y-31950D02*
X61300Y-33900D01*
X61300Y-27350D02*
X61300Y-28550D01*
X61250Y-40450D02*
X61250Y-42050D01*
X61250Y-31900D02*
X61250Y-33900D01*
X61250Y-27350D02*
X61250Y-28550D01*
X61200Y-40450D02*
X61200Y-42050D01*
X61200Y-31900D02*
X61200Y-33900D01*
X61200Y-27350D02*
X61200Y-28550D01*
X61150Y-40450D02*
X61150Y-42050D01*
X61150Y-31900D02*
X61150Y-33900D01*
X61150Y-27350D02*
X61150Y-28550D01*
X61100Y-40450D02*
X61100Y-42050D01*
X61100Y-31850D02*
X61100Y-33900D01*
X61100Y-27350D02*
X61100Y-28550D01*
X61050Y-40450D02*
X61050Y-42050D01*
X61050Y-31850D02*
X61050Y-33900D01*
X61050Y-27350D02*
X61050Y-28550D01*
X61000Y-40450D02*
X61000Y-42050D01*
X61000Y-31850D02*
X61000Y-33900D01*
X61000Y-27350D02*
X61000Y-28550D01*
X60950Y-40450D02*
X60950Y-42050D01*
X60950Y-31800D02*
X60950Y-33900D01*
X60950Y-27350D02*
X60950Y-28550D01*
X60900Y-40450D02*
X60900Y-42050D01*
X60900Y-31750D02*
X60900Y-33900D01*
X60900Y-27350D02*
X60900Y-28550D01*
X60850Y-40450D02*
X60850Y-42050D01*
X60850Y-31750D02*
X60850Y-33900D01*
X60850Y-27350D02*
X60850Y-28550D01*
X60800Y-40450D02*
X60800Y-42050D01*
X60800Y-31700D02*
X60800Y-33900D01*
X60800Y-28150D02*
X60800Y-28550D01*
X60800Y-27350D02*
X60800Y-27850D01*
X60750Y-40450D02*
X60750Y-42050D01*
X60750Y-31650D02*
X60750Y-34850D01*
X60750Y-28400D02*
X60750Y-28550D01*
X60750Y-27350D02*
X60750Y-27600D01*
X60700Y-40450D02*
X60700Y-42050D01*
X60700Y-31600D02*
X60700Y-34750D01*
X60700Y-28500D02*
X60700Y-28550D01*
X60700Y-27350D02*
X60700Y-27500D01*
X60650Y-40450D02*
X60650Y-42050D01*
X60650Y-31550D02*
X60650Y-34650D01*
X60650Y-27350D02*
X60650Y-27400D01*
X60600Y-40450D02*
X60600Y-42050D01*
X60600Y-31450D02*
X60600Y-34600D01*
X60550Y-40450D02*
X60550Y-42050D01*
X60550Y-31400D02*
X60550Y-34500D01*
X60500Y-40450D02*
X60500Y-42050D01*
X60500Y-31300D02*
X60500Y-34450D01*
X60450Y-40450D02*
X60450Y-42050D01*
X60450Y-31150D02*
X60450Y-34400D01*
X60400Y-40450D02*
X60400Y-44500D01*
X60400Y-28850D02*
X60400Y-34400D01*
X60350Y-40450D02*
X60350Y-44500D01*
X60350Y-28900D02*
X60350Y-34350D01*
X60300Y-40450D02*
X60300Y-44500D01*
X60300Y-28950D02*
X60300Y-34300D01*
X60250Y-40450D02*
X60250Y-44500D01*
X60250Y-28950D02*
X60250Y-34300D01*
X60200Y-40450D02*
X60200Y-44500D01*
X60200Y-29000D02*
X60200Y-34250D01*
X60150Y-40450D02*
X60150Y-44500D01*
X60150Y-29000D02*
X60150Y-34250D01*
X60100Y-40450D02*
X60100Y-44500D01*
X60100Y-29050D02*
X60100Y-34200D01*
X60050Y-40450D02*
X60050Y-44500D01*
X60050Y-29050D02*
X60050Y-34200D01*
X60000Y-40450D02*
X60000Y-44500D01*
X60000Y-29050D02*
X60000Y-34200D01*
X59950Y-40450D02*
X59950Y-44500D01*
X59950Y-29100D02*
X59950Y-34150D01*
X59900Y-40450D02*
X59900Y-44500D01*
X59900Y-29100D02*
X59900Y-34150D01*
X59850Y-40450D02*
X59850Y-44500D01*
X59850Y-29100D02*
X59850Y-34150D01*
X59800Y-40450D02*
X59800Y-44500D01*
X59800Y-29100D02*
X59800Y-34150D01*
X59750Y-40450D02*
X59750Y-44500D01*
X59750Y-29100D02*
X59750Y-34150D01*
X59700Y-40450D02*
X59700Y-44500D01*
X59700Y-29100D02*
X59700Y-34150D01*
X59650Y-40450D02*
X59650Y-44500D01*
X59650Y-29100D02*
X59650Y-34150D01*
X59600Y-40450D02*
X59600Y-44500D01*
X59600Y-29100D02*
X59600Y-34150D01*
X59550Y-40450D02*
X59550Y-44500D01*
X59550Y-29100D02*
X59550Y-34150D01*
X59500Y-40450D02*
X59500Y-44500D01*
X59500Y-29100D02*
X59500Y-34150D01*
X59450Y-40450D02*
X59450Y-44500D01*
X59450Y-29050D02*
X59450Y-34200D01*
X59400Y-40450D02*
X59400Y-44500D01*
X59400Y-29050D02*
X59400Y-34200D01*
X59350Y-40450D02*
X59350Y-44500D01*
X59350Y-29050D02*
X59350Y-34200D01*
X59300Y-40450D02*
X59300Y-44500D01*
X59300Y-29000D02*
X59300Y-34250D01*
X59250Y-40450D02*
X59250Y-44500D01*
X59250Y-29000D02*
X59250Y-34250D01*
X59200Y-40450D02*
X59200Y-44500D01*
X59200Y-29000D02*
X59200Y-34250D01*
X59150Y-40450D02*
X59150Y-44500D01*
X59150Y-29050D02*
X59150Y-34200D01*
X59100Y-40450D02*
X59100Y-44500D01*
X59100Y-29050D02*
X59100Y-34200D01*
X59050Y-40450D02*
X59050Y-44500D01*
X59050Y-29050D02*
X59050Y-34200D01*
X59000Y-40450D02*
X59000Y-44500D01*
X59000Y-29100D02*
X59000Y-34150D01*
X58950Y-42850D02*
X58950Y-44500D01*
X58950Y-40450D02*
X58950Y-42200D01*
X58950Y-29100D02*
X58950Y-34150D01*
X58900Y-42950D02*
X58900Y-44500D01*
X58900Y-40450D02*
X58900Y-42050D01*
X58900Y-29100D02*
X58900Y-34150D01*
X58850Y-43050D02*
X58850Y-44500D01*
X58850Y-40550D02*
X58850Y-41950D01*
X58850Y-29100D02*
X58850Y-34150D01*
X58800Y-43150D02*
X58800Y-44500D01*
X58800Y-29100D02*
X58800Y-34150D01*
X58750Y-43200D02*
X58750Y-44500D01*
X58750Y-29100D02*
X58750Y-34150D01*
X58700Y-43250D02*
X58700Y-44500D01*
X58700Y-29100D02*
X58700Y-34150D01*
X58650Y-43300D02*
X58650Y-44500D01*
X58650Y-33300D02*
X58650Y-34150D01*
X58650Y-31550D02*
X58650Y-32900D01*
X58650Y-29100D02*
X58650Y-31150D01*
X58600Y-43350D02*
X58600Y-44500D01*
X58600Y-33500D02*
X58600Y-34150D01*
X58600Y-31750D02*
X58600Y-32750D01*
X58600Y-29100D02*
X58600Y-30950D01*
X58550Y-43400D02*
X58550Y-44500D01*
X58550Y-33600D02*
X58550Y-34150D01*
X58550Y-31850D02*
X58550Y-32600D01*
X58550Y-29100D02*
X58550Y-30850D01*
X58500Y-43450D02*
X58500Y-44500D01*
X58500Y-33700D02*
X58500Y-34150D01*
X58500Y-31950D02*
X58500Y-32500D01*
X58500Y-29100D02*
X58500Y-30750D01*
X58450Y-43450D02*
X58450Y-44500D01*
X58450Y-33800D02*
X58450Y-34200D01*
X58450Y-32050D02*
X58450Y-32450D01*
X58450Y-29050D02*
X58450Y-30700D01*
X58400Y-43500D02*
X58400Y-44500D01*
X58400Y-33850D02*
X58400Y-34200D01*
X58400Y-32100D02*
X58400Y-32400D01*
X58400Y-29050D02*
X58400Y-30650D01*
X58350Y-43500D02*
X58350Y-44500D01*
X58350Y-33900D02*
X58350Y-34200D01*
X58350Y-32150D02*
X58350Y-32350D01*
X58350Y-29050D02*
X58350Y-30600D01*
X58300Y-43550D02*
X58300Y-44500D01*
X58300Y-33950D02*
X58300Y-34250D01*
X58300Y-32200D02*
X58300Y-32300D01*
X58300Y-29000D02*
X58300Y-30550D01*
X58250Y-43550D02*
X58250Y-44500D01*
X58250Y-34000D02*
X58250Y-34250D01*
X58250Y-29000D02*
X58250Y-30500D01*
X58200Y-43600D02*
X58200Y-44500D01*
X58200Y-34050D02*
X58200Y-34300D01*
X58200Y-28950D02*
X58200Y-30450D01*
X58150Y-43600D02*
X58150Y-44500D01*
X58150Y-34050D02*
X58150Y-34300D01*
X58150Y-28950D02*
X58150Y-30400D01*
X58100Y-43600D02*
X58100Y-44500D01*
X58100Y-34100D02*
X58100Y-34350D01*
X58100Y-28900D02*
X58100Y-30400D01*
X58050Y-43600D02*
X58050Y-44500D01*
X58050Y-34100D02*
X58050Y-34400D01*
X58050Y-28850D02*
X58050Y-30350D01*
X58000Y-43600D02*
X58000Y-44500D01*
X58000Y-34150D02*
X58000Y-34450D01*
X58000Y-28800D02*
X58000Y-30350D01*
X57950Y-43600D02*
X57950Y-44500D01*
X57950Y-34150D02*
X57950Y-34500D01*
X57950Y-28750D02*
X57950Y-30300D01*
X57900Y-43600D02*
X57900Y-44500D01*
X57900Y-34200D02*
X57900Y-34550D01*
X57900Y-28700D02*
X57900Y-30300D01*
X57850Y-43600D02*
X57850Y-44500D01*
X57850Y-29100D02*
X57850Y-30300D01*
X57800Y-43600D02*
X57800Y-44500D01*
X57800Y-29100D02*
X57800Y-30250D01*
X57750Y-43600D02*
X57750Y-44500D01*
X57750Y-29100D02*
X57750Y-30200D01*
X57700Y-43600D02*
X57700Y-44500D01*
X57650Y-43600D02*
X57650Y-44500D01*
X57600Y-43550D02*
X57600Y-44500D01*
X57550Y-43550D02*
X57550Y-44500D01*
X57500Y-43550D02*
X57500Y-44500D01*
X57450Y-43500D02*
X57450Y-44500D01*
X57400Y-43500D02*
X57400Y-44500D01*
X57350Y-43450D02*
X57350Y-44500D01*
X57300Y-43450D02*
X57300Y-44500D01*
X57250Y-43400D02*
X57250Y-44500D01*
X57200Y-43350D02*
X57200Y-44500D01*
X57150Y-43300D02*
X57150Y-44500D01*
X57100Y-43250D02*
X57100Y-44500D01*
X57050Y-43200D02*
X57050Y-44500D01*
X57000Y-43150D02*
X57000Y-44500D01*
X56950Y-43200D02*
X56950Y-44500D01*
X56950Y-40700D02*
X56950Y-41800D01*
X56900Y-43250D02*
X56900Y-44500D01*
X56900Y-40750D02*
X56900Y-41750D01*
X56850Y-43300D02*
X56850Y-44500D01*
X56850Y-40800D02*
X56850Y-41700D01*
X56800Y-43350D02*
X56800Y-44500D01*
X56800Y-40850D02*
X56800Y-41650D01*
X56750Y-43400D02*
X56750Y-44500D01*
X56750Y-40900D02*
X56750Y-41600D01*
X56700Y-43450D02*
X56700Y-44500D01*
X56700Y-40900D02*
X56700Y-41600D01*
X56650Y-43450D02*
X56650Y-44500D01*
X56650Y-40950D02*
X56650Y-41550D01*
X56600Y-43500D02*
X56600Y-44500D01*
X56600Y-40950D02*
X56600Y-41550D01*
X56550Y-43500D02*
X56550Y-44500D01*
X56550Y-41000D02*
X56550Y-41500D01*
X56500Y-43550D02*
X56500Y-44500D01*
X56500Y-41000D02*
X56500Y-41500D01*
X56450Y-43550D02*
X56450Y-44500D01*
X56450Y-41050D02*
X56450Y-41450D01*
X56400Y-43550D02*
X56400Y-44500D01*
X56400Y-41050D02*
X56400Y-41450D01*
X56350Y-43600D02*
X56350Y-44500D01*
X56350Y-41050D02*
X56350Y-41450D01*
X56300Y-43600D02*
X56300Y-44500D01*
X56300Y-41100D02*
X56300Y-41400D01*
X56250Y-43600D02*
X56250Y-44500D01*
X56250Y-41100D02*
X56250Y-41400D01*
X56200Y-43600D02*
X56200Y-44500D01*
X56200Y-41100D02*
X56200Y-41400D01*
X56150Y-43600D02*
X56150Y-44500D01*
X56150Y-41100D02*
X56150Y-41400D01*
X56100Y-43600D02*
X56100Y-44500D01*
X56100Y-41100D02*
X56100Y-41400D01*
X56050Y-43600D02*
X56050Y-44500D01*
X56050Y-41100D02*
X56050Y-41400D01*
X56000Y-43600D02*
X56000Y-44500D01*
X56000Y-41100D02*
X56000Y-41400D01*
X55950Y-43600D02*
X55950Y-44500D01*
X55950Y-41100D02*
X55950Y-41400D01*
X55900Y-43600D02*
X55900Y-44500D01*
X55900Y-41100D02*
X55900Y-41400D01*
X55850Y-43600D02*
X55850Y-44500D01*
X55850Y-41050D02*
X55850Y-41450D01*
X55800Y-43600D02*
X55800Y-44500D01*
X55800Y-41050D02*
X55800Y-41450D01*
X55750Y-43550D02*
X55750Y-44500D01*
X55750Y-41050D02*
X55750Y-41450D01*
X55700Y-43550D02*
X55700Y-44500D01*
X55700Y-41000D02*
X55700Y-41500D01*
X55650Y-43500D02*
X55650Y-44500D01*
X55650Y-41000D02*
X55650Y-41500D01*
X55600Y-43500D02*
X55600Y-44500D01*
X55600Y-41000D02*
X55600Y-41500D01*
X55550Y-43450D02*
X55550Y-44500D01*
X55550Y-40950D02*
X55550Y-41550D01*
X55500Y-43450D02*
X55500Y-44500D01*
X55500Y-40900D02*
X55500Y-41600D01*
X69350Y-44500D02*
X73900Y-44500D01*
X62600Y-44500D02*
X67150Y-44500D01*
X55500Y-44500D02*
X60400Y-44500D01*
X69350Y-44450D02*
X73900Y-44450D01*
X62600Y-44450D02*
X67150Y-44450D01*
X55500Y-44450D02*
X60400Y-44450D01*
X69350Y-44400D02*
X73900Y-44400D01*
X62600Y-44400D02*
X67150Y-44400D01*
X55500Y-44400D02*
X60400Y-44400D01*
X69350Y-44350D02*
X73900Y-44350D01*
X62600Y-44350D02*
X67150Y-44350D01*
X55500Y-44350D02*
X60400Y-44350D01*
X69350Y-44300D02*
X73900Y-44300D01*
X62600Y-44300D02*
X67150Y-44300D01*
X55500Y-44300D02*
X60400Y-44300D01*
X69350Y-44250D02*
X73900Y-44250D01*
X62600Y-44250D02*
X67150Y-44250D01*
X55500Y-44250D02*
X60400Y-44250D01*
X69350Y-44200D02*
X73900Y-44200D01*
X62600Y-44200D02*
X67150Y-44200D01*
X55500Y-44200D02*
X60400Y-44200D01*
X69350Y-44150D02*
X73900Y-44150D01*
X62600Y-44150D02*
X67150Y-44150D01*
X55500Y-44150D02*
X60400Y-44150D01*
X69350Y-44100D02*
X73900Y-44100D01*
X62600Y-44100D02*
X67150Y-44100D01*
X55500Y-44100D02*
X60400Y-44100D01*
X73150Y-44050D02*
X73900Y-44050D01*
X65650Y-44050D02*
X67150Y-44050D01*
X55500Y-44050D02*
X60400Y-44050D01*
X73300Y-44000D02*
X73900Y-44000D01*
X65800Y-44000D02*
X67150Y-44000D01*
X55500Y-44000D02*
X60400Y-44000D01*
X73350Y-43950D02*
X73900Y-43950D01*
X65850Y-43950D02*
X67150Y-43950D01*
X55500Y-43950D02*
X60400Y-43950D01*
X73450Y-43900D02*
X73900Y-43900D01*
X65950Y-43900D02*
X67150Y-43900D01*
X55500Y-43900D02*
X60400Y-43900D01*
X73500Y-43850D02*
X73900Y-43850D01*
X66000Y-43850D02*
X67150Y-43850D01*
X55500Y-43850D02*
X60400Y-43850D01*
X73550Y-43800D02*
X73900Y-43800D01*
X66050Y-43800D02*
X67150Y-43800D01*
X55500Y-43800D02*
X60400Y-43800D01*
X73600Y-43750D02*
X73900Y-43750D01*
X66100Y-43750D02*
X67150Y-43750D01*
X55500Y-43750D02*
X60400Y-43750D01*
X73650Y-43700D02*
X73900Y-43700D01*
X66150Y-43700D02*
X67150Y-43700D01*
X55500Y-43700D02*
X60400Y-43700D01*
X73700Y-43650D02*
X73900Y-43650D01*
X66200Y-43650D02*
X67150Y-43650D01*
X55500Y-43650D02*
X60400Y-43650D01*
X73750Y-43600D02*
X73900Y-43600D01*
X66250Y-43600D02*
X67150Y-43600D01*
X55500Y-43600D02*
X60400Y-43600D01*
X73800Y-43550D02*
X73900Y-43550D01*
X66300Y-43550D02*
X67150Y-43550D01*
X58250Y-43550D02*
X60400Y-43550D01*
X56400Y-43550D02*
X57600Y-43550D01*
X55500Y-43550D02*
X55750Y-43550D01*
X73850Y-43500D02*
X73900Y-43500D01*
X66350Y-43500D02*
X67150Y-43500D01*
X58350Y-43500D02*
X60400Y-43500D01*
X56550Y-43500D02*
X57450Y-43500D01*
X55500Y-43500D02*
X55650Y-43500D01*
X66400Y-43450D02*
X67150Y-43450D01*
X58450Y-43450D02*
X60400Y-43450D01*
X56650Y-43450D02*
X57350Y-43450D01*
X55500Y-43450D02*
X55550Y-43450D01*
X66450Y-43400D02*
X67150Y-43400D01*
X58550Y-43400D02*
X60400Y-43400D01*
X56750Y-43400D02*
X57250Y-43400D01*
X66500Y-43350D02*
X67150Y-43350D01*
X58600Y-43350D02*
X60400Y-43350D01*
X56800Y-43350D02*
X57200Y-43350D01*
X66550Y-43300D02*
X67150Y-43300D01*
X58650Y-43300D02*
X60400Y-43300D01*
X56850Y-43300D02*
X57150Y-43300D01*
X66600Y-43250D02*
X67150Y-43250D01*
X58700Y-43250D02*
X60400Y-43250D01*
X56900Y-43250D02*
X57100Y-43250D01*
X66650Y-43200D02*
X67150Y-43200D01*
X58750Y-43200D02*
X60400Y-43200D01*
X56950Y-43200D02*
X57050Y-43200D01*
X66700Y-43150D02*
X67150Y-43150D01*
X58800Y-43150D02*
X60400Y-43150D01*
X66750Y-43100D02*
X67150Y-43100D01*
X58850Y-43100D02*
X60400Y-43100D01*
X66800Y-43050D02*
X67150Y-43050D01*
X58850Y-43050D02*
X60400Y-43050D01*
X66850Y-43000D02*
X67150Y-43000D01*
X58900Y-43000D02*
X60400Y-43000D01*
X66900Y-42950D02*
X67150Y-42950D01*
X58900Y-42950D02*
X60400Y-42950D01*
X66950Y-42900D02*
X67150Y-42900D01*
X58950Y-42900D02*
X60400Y-42900D01*
X67000Y-42850D02*
X67150Y-42850D01*
X58950Y-42850D02*
X60400Y-42850D01*
X67050Y-42800D02*
X67150Y-42800D01*
X59000Y-42800D02*
X60400Y-42800D01*
X67100Y-42750D02*
X67150Y-42750D01*
X59000Y-42750D02*
X60400Y-42750D01*
X59000Y-42700D02*
X60400Y-42700D01*
X59000Y-42650D02*
X60400Y-42650D01*
X59000Y-42600D02*
X60400Y-42600D01*
X59000Y-42550D02*
X60400Y-42550D01*
X59000Y-42500D02*
X60400Y-42500D01*
X59000Y-42450D02*
X60400Y-42450D01*
X59000Y-42400D02*
X60400Y-42400D01*
X59000Y-42350D02*
X60400Y-42350D01*
X59000Y-42300D02*
X60400Y-42300D01*
X59000Y-42250D02*
X60400Y-42250D01*
X62600Y-42200D02*
X64950Y-42200D01*
X58950Y-42200D02*
X60400Y-42200D01*
X62600Y-42150D02*
X65000Y-42150D01*
X58950Y-42150D02*
X60400Y-42150D01*
X62600Y-42100D02*
X65050Y-42100D01*
X58950Y-42100D02*
X60400Y-42100D01*
X58900Y-42050D02*
X65100Y-42050D01*
X58900Y-42000D02*
X65150Y-42000D01*
X58850Y-41950D02*
X65200Y-41950D01*
X58850Y-41900D02*
X65250Y-41900D01*
X58850Y-41850D02*
X65300Y-41850D01*
X58850Y-41800D02*
X65350Y-41800D01*
X58850Y-41750D02*
X65400Y-41750D01*
X56900Y-41750D02*
X56950Y-41750D01*
X58850Y-41700D02*
X65450Y-41700D01*
X56850Y-41700D02*
X56950Y-41700D01*
X58850Y-41650D02*
X65500Y-41650D01*
X56800Y-41650D02*
X56950Y-41650D01*
X58850Y-41600D02*
X65550Y-41600D01*
X56700Y-41600D02*
X56950Y-41600D01*
X58850Y-41550D02*
X65600Y-41550D01*
X56600Y-41550D02*
X56950Y-41550D01*
X55500Y-41550D02*
X55550Y-41550D01*
X58850Y-41500D02*
X65650Y-41500D01*
X56500Y-41500D02*
X56950Y-41500D01*
X55500Y-41500D02*
X55700Y-41500D01*
X58850Y-41450D02*
X65700Y-41450D01*
X56350Y-41450D02*
X56950Y-41450D01*
X55500Y-41450D02*
X55850Y-41450D01*
X58850Y-41400D02*
X65750Y-41400D01*
X55500Y-41400D02*
X56950Y-41400D01*
X58850Y-41350D02*
X65800Y-41350D01*
X55500Y-41350D02*
X56950Y-41350D01*
X58850Y-41300D02*
X65850Y-41300D01*
X55500Y-41300D02*
X56950Y-41300D01*
X58850Y-41250D02*
X65900Y-41250D01*
X55500Y-41250D02*
X56950Y-41250D01*
X58850Y-41200D02*
X65950Y-41200D01*
X55500Y-41200D02*
X56950Y-41200D01*
X58850Y-41150D02*
X66000Y-41150D01*
X55500Y-41150D02*
X56950Y-41150D01*
X58850Y-41100D02*
X66050Y-41100D01*
X55500Y-41100D02*
X56950Y-41100D01*
X58850Y-41050D02*
X66100Y-41050D01*
X56350Y-41050D02*
X56950Y-41050D01*
X55500Y-41050D02*
X55850Y-41050D01*
X58850Y-41000D02*
X66150Y-41000D01*
X56500Y-41000D02*
X56950Y-41000D01*
X55500Y-41000D02*
X55700Y-41000D01*
X58850Y-40950D02*
X66250Y-40950D01*
X56600Y-40950D02*
X56950Y-40950D01*
X55500Y-40950D02*
X55550Y-40950D01*
X58850Y-40900D02*
X66350Y-40900D01*
X56700Y-40900D02*
X56950Y-40900D01*
X58850Y-40850D02*
X66450Y-40850D01*
X56800Y-40850D02*
X56950Y-40850D01*
X58850Y-40800D02*
X68600Y-40800D01*
X56850Y-40800D02*
X56950Y-40800D01*
X58850Y-40750D02*
X68650Y-40750D01*
X56900Y-40750D02*
X56950Y-40750D01*
X58850Y-40700D02*
X68700Y-40700D01*
X58850Y-40650D02*
X68750Y-40650D01*
X58850Y-40600D02*
X68800Y-40600D01*
X68300Y-40550D02*
X68850Y-40550D01*
X64300Y-40550D02*
X67700Y-40550D01*
X58850Y-40550D02*
X63700Y-40550D01*
X68450Y-40500D02*
X68900Y-40500D01*
X64450Y-40500D02*
X67550Y-40500D01*
X58900Y-40500D02*
X63550Y-40500D01*
X68550Y-40450D02*
X68950Y-40450D01*
X64550Y-40450D02*
X67450Y-40450D01*
X58900Y-40450D02*
X63450Y-40450D01*
X68650Y-40400D02*
X69000Y-40400D01*
X64650Y-40400D02*
X67350Y-40400D01*
X62550Y-40400D02*
X63350Y-40400D01*
X68700Y-40350D02*
X69050Y-40350D01*
X64700Y-40350D02*
X67300Y-40350D01*
X62650Y-40350D02*
X63300Y-40350D01*
X68750Y-40300D02*
X69100Y-40300D01*
X64750Y-40300D02*
X67250Y-40300D01*
X62750Y-40300D02*
X63250Y-40300D01*
X68800Y-40250D02*
X69150Y-40250D01*
X64800Y-40250D02*
X67200Y-40250D01*
X62850Y-40250D02*
X63200Y-40250D01*
X68850Y-40200D02*
X69200Y-40200D01*
X64850Y-40200D02*
X67150Y-40200D01*
X62900Y-40200D02*
X63150Y-40200D01*
X68900Y-40150D02*
X69250Y-40150D01*
X64900Y-40150D02*
X67100Y-40150D01*
X62950Y-40150D02*
X63100Y-40150D01*
X68950Y-40100D02*
X69300Y-40100D01*
X64950Y-40100D02*
X67050Y-40100D01*
X63000Y-40100D02*
X63050Y-40100D01*
X68950Y-40050D02*
X69350Y-40050D01*
X64950Y-40050D02*
X67050Y-40050D01*
X69000Y-40000D02*
X69400Y-40000D01*
X65000Y-40000D02*
X67000Y-40000D01*
X69000Y-39950D02*
X69450Y-39950D01*
X65000Y-39950D02*
X67000Y-39950D01*
X69050Y-39900D02*
X69500Y-39900D01*
X65050Y-39900D02*
X66950Y-39900D01*
X69050Y-39850D02*
X69550Y-39850D01*
X65050Y-39850D02*
X66950Y-39850D01*
X69050Y-39800D02*
X69600Y-39800D01*
X65050Y-39800D02*
X66950Y-39800D01*
X69100Y-39750D02*
X69650Y-39750D01*
X65100Y-39750D02*
X66900Y-39750D01*
X69100Y-39700D02*
X69700Y-39700D01*
X65100Y-39700D02*
X66900Y-39700D01*
X69100Y-39650D02*
X69750Y-39650D01*
X65100Y-39650D02*
X66900Y-39650D01*
X69100Y-39600D02*
X69800Y-39600D01*
X65100Y-39600D02*
X66900Y-39600D01*
X69100Y-39550D02*
X69850Y-39550D01*
X65100Y-39550D02*
X66900Y-39550D01*
X69100Y-39500D02*
X69900Y-39500D01*
X65100Y-39500D02*
X66900Y-39500D01*
X69100Y-39450D02*
X69950Y-39450D01*
X65100Y-39450D02*
X66900Y-39450D01*
X69100Y-39400D02*
X70000Y-39400D01*
X65100Y-39400D02*
X66900Y-39400D01*
X69100Y-39350D02*
X70050Y-39350D01*
X65100Y-39350D02*
X66900Y-39350D01*
X69100Y-39300D02*
X70100Y-39300D01*
X65100Y-39300D02*
X66900Y-39300D01*
X69100Y-39250D02*
X70150Y-39250D01*
X65100Y-39250D02*
X66900Y-39250D01*
X69050Y-39200D02*
X70200Y-39200D01*
X65050Y-39200D02*
X66950Y-39200D01*
X69050Y-39150D02*
X70250Y-39150D01*
X65050Y-39150D02*
X66950Y-39150D01*
X69050Y-39100D02*
X70300Y-39100D01*
X65050Y-39100D02*
X66950Y-39100D01*
X69000Y-39050D02*
X70350Y-39050D01*
X65750Y-39050D02*
X67000Y-39050D01*
X69000Y-39000D02*
X70400Y-39000D01*
X65750Y-39000D02*
X67000Y-39000D01*
X68950Y-38950D02*
X70450Y-38950D01*
X65750Y-38950D02*
X67050Y-38950D01*
X68950Y-38900D02*
X70500Y-38900D01*
X65750Y-38900D02*
X67050Y-38900D01*
X68950Y-38850D02*
X70550Y-38850D01*
X65750Y-38850D02*
X67050Y-38850D01*
X68950Y-38800D02*
X70600Y-38800D01*
X65750Y-38800D02*
X67050Y-38800D01*
X68950Y-38750D02*
X70650Y-38750D01*
X65750Y-38750D02*
X67050Y-38750D01*
X68950Y-38700D02*
X70700Y-38700D01*
X65750Y-38700D02*
X67050Y-38700D01*
X69350Y-38650D02*
X70750Y-38650D01*
X65750Y-38650D02*
X67050Y-38650D01*
X69350Y-38600D02*
X70800Y-38600D01*
X65750Y-38600D02*
X67050Y-38600D01*
X69350Y-38550D02*
X70850Y-38550D01*
X65750Y-38550D02*
X67050Y-38550D01*
X69350Y-38500D02*
X70900Y-38500D01*
X65750Y-38500D02*
X67050Y-38500D01*
X69350Y-38450D02*
X70950Y-38450D01*
X65750Y-38450D02*
X67050Y-38450D01*
X69350Y-38400D02*
X71000Y-38400D01*
X65750Y-38400D02*
X67050Y-38400D01*
X69350Y-38350D02*
X71050Y-38350D01*
X65750Y-38350D02*
X67050Y-38350D01*
X69350Y-38300D02*
X71100Y-38300D01*
X65750Y-38300D02*
X67050Y-38300D01*
X69350Y-38250D02*
X71150Y-38250D01*
X65750Y-38250D02*
X67050Y-38250D01*
X69350Y-38200D02*
X71200Y-38200D01*
X65750Y-38200D02*
X67050Y-38200D01*
X69350Y-38150D02*
X71250Y-38150D01*
X65750Y-38150D02*
X67050Y-38150D01*
X69350Y-38100D02*
X71300Y-38100D01*
X65750Y-38100D02*
X67050Y-38100D01*
X69350Y-38050D02*
X71350Y-38050D01*
X65750Y-38050D02*
X67050Y-38050D01*
X69350Y-38000D02*
X71400Y-38000D01*
X65750Y-38000D02*
X67050Y-38000D01*
X69350Y-37950D02*
X71450Y-37950D01*
X65750Y-37950D02*
X67050Y-37950D01*
X69350Y-37900D02*
X71500Y-37900D01*
X65750Y-37900D02*
X67050Y-37900D01*
X69350Y-37850D02*
X71550Y-37850D01*
X65750Y-37850D02*
X67050Y-37850D01*
X69350Y-37800D02*
X71600Y-37800D01*
X65750Y-37800D02*
X67050Y-37800D01*
X69350Y-37750D02*
X71650Y-37750D01*
X65750Y-37750D02*
X67050Y-37750D01*
X69350Y-37700D02*
X71700Y-37700D01*
X65750Y-37700D02*
X67050Y-37700D01*
X69350Y-37650D02*
X71750Y-37650D01*
X65750Y-37650D02*
X67050Y-37650D01*
X69350Y-37600D02*
X71800Y-37600D01*
X65750Y-37600D02*
X67050Y-37600D01*
X69350Y-37550D02*
X71850Y-37550D01*
X65750Y-37550D02*
X67100Y-37550D01*
X69350Y-37500D02*
X71900Y-37500D01*
X65750Y-37500D02*
X67100Y-37500D01*
X69350Y-37450D02*
X71950Y-37450D01*
X65750Y-37450D02*
X67100Y-37450D01*
X69350Y-37400D02*
X72000Y-37400D01*
X65750Y-37400D02*
X67150Y-37400D01*
X69350Y-37350D02*
X72050Y-37350D01*
X65750Y-37350D02*
X67150Y-37350D01*
X69350Y-37300D02*
X72100Y-37300D01*
X65750Y-37300D02*
X67150Y-37300D01*
X69350Y-37250D02*
X72150Y-37250D01*
X65750Y-37250D02*
X67150Y-37250D01*
X69350Y-37200D02*
X72200Y-37200D01*
X65750Y-37200D02*
X67150Y-37200D01*
X69350Y-37150D02*
X72250Y-37150D01*
X65750Y-37150D02*
X67150Y-37150D01*
X69350Y-37100D02*
X72300Y-37100D01*
X65750Y-37100D02*
X67150Y-37100D01*
X69350Y-37050D02*
X72350Y-37050D01*
X65750Y-37050D02*
X67150Y-37050D01*
X69350Y-37000D02*
X72400Y-37000D01*
X65750Y-37000D02*
X67150Y-37000D01*
X69350Y-36950D02*
X72450Y-36950D01*
X65750Y-36950D02*
X67150Y-36950D01*
X69350Y-36900D02*
X72500Y-36900D01*
X62650Y-36900D02*
X67150Y-36900D01*
X69350Y-36850D02*
X72550Y-36850D01*
X62600Y-36850D02*
X67150Y-36850D01*
X69350Y-36800D02*
X72600Y-36800D01*
X62600Y-36800D02*
X67150Y-36800D01*
X69350Y-36750D02*
X72650Y-36750D01*
X62550Y-36750D02*
X67150Y-36750D01*
X69350Y-36700D02*
X72700Y-36700D01*
X62550Y-36700D02*
X67150Y-36700D01*
X69350Y-36650D02*
X72750Y-36650D01*
X62500Y-36650D02*
X67150Y-36650D01*
X69350Y-36600D02*
X72800Y-36600D01*
X62450Y-36600D02*
X67150Y-36600D01*
X69350Y-36550D02*
X72850Y-36550D01*
X62400Y-36550D02*
X67150Y-36550D01*
X69350Y-36500D02*
X72900Y-36500D01*
X62350Y-36500D02*
X67150Y-36500D01*
X69350Y-36450D02*
X72950Y-36450D01*
X62300Y-36450D02*
X67150Y-36450D01*
X69350Y-36400D02*
X73000Y-36400D01*
X62250Y-36400D02*
X67150Y-36400D01*
X69350Y-36350D02*
X73050Y-36350D01*
X62200Y-36350D02*
X67150Y-36350D01*
X69350Y-36300D02*
X73100Y-36300D01*
X62150Y-36300D02*
X67150Y-36300D01*
X69350Y-36250D02*
X73150Y-36250D01*
X62100Y-36250D02*
X67150Y-36250D01*
X69350Y-36200D02*
X73200Y-36200D01*
X62050Y-36200D02*
X67150Y-36200D01*
X69350Y-36150D02*
X73250Y-36150D01*
X62000Y-36150D02*
X67150Y-36150D01*
X69300Y-36100D02*
X73300Y-36100D01*
X61950Y-36100D02*
X67200Y-36100D01*
X69300Y-36050D02*
X73350Y-36050D01*
X65750Y-36050D02*
X67200Y-36050D01*
X69300Y-36000D02*
X73400Y-36000D01*
X65750Y-36000D02*
X67200Y-36000D01*
X69250Y-35950D02*
X73450Y-35950D01*
X65750Y-35950D02*
X67250Y-35950D01*
X69550Y-35900D02*
X73500Y-35900D01*
X69650Y-35850D02*
X73550Y-35850D01*
X71300Y-35800D02*
X73600Y-35800D01*
X69750Y-35800D02*
X70700Y-35800D01*
X71450Y-35750D02*
X73650Y-35750D01*
X69850Y-35750D02*
X70550Y-35750D01*
X71550Y-35700D02*
X73700Y-35700D01*
X69900Y-35700D02*
X70450Y-35700D01*
X71650Y-35650D02*
X73750Y-35650D01*
X71700Y-35600D02*
X73800Y-35600D01*
X71750Y-35550D02*
X73850Y-35550D01*
X71800Y-35500D02*
X73900Y-35500D01*
X71850Y-35450D02*
X73950Y-35450D01*
X71900Y-35400D02*
X74000Y-35400D01*
X71950Y-35350D02*
X74050Y-35350D01*
X71950Y-35300D02*
X74050Y-35300D01*
X72000Y-35250D02*
X74000Y-35250D01*
X72000Y-35200D02*
X74000Y-35200D01*
X72050Y-35150D02*
X73950Y-35150D01*
X72050Y-35100D02*
X73950Y-35100D01*
X72050Y-35050D02*
X73950Y-35050D01*
X72100Y-35000D02*
X73900Y-35000D01*
X72100Y-34950D02*
X73900Y-34950D01*
X72100Y-34900D02*
X73900Y-34900D01*
X72100Y-34850D02*
X73900Y-34850D01*
X72100Y-34800D02*
X73900Y-34800D01*
X72100Y-34750D02*
X73900Y-34750D01*
X60700Y-34750D02*
X60750Y-34750D01*
X72100Y-34700D02*
X73900Y-34700D01*
X60700Y-34700D02*
X60750Y-34700D01*
X72100Y-34650D02*
X73900Y-34650D01*
X60650Y-34650D02*
X60750Y-34650D01*
X72100Y-34600D02*
X73900Y-34600D01*
X60600Y-34600D02*
X60750Y-34600D01*
X72100Y-34550D02*
X73900Y-34550D01*
X60600Y-34550D02*
X60750Y-34550D01*
X72100Y-34500D02*
X73900Y-34500D01*
X60550Y-34500D02*
X60750Y-34500D01*
X57900Y-34500D02*
X57950Y-34500D01*
X72050Y-34450D02*
X73950Y-34450D01*
X60500Y-34450D02*
X60750Y-34450D01*
X57900Y-34450D02*
X58000Y-34450D01*
X72050Y-34400D02*
X73950Y-34400D01*
X60400Y-34400D02*
X60750Y-34400D01*
X57900Y-34400D02*
X58050Y-34400D01*
X72050Y-34350D02*
X73950Y-34350D01*
X60350Y-34350D02*
X60750Y-34350D01*
X57900Y-34350D02*
X58100Y-34350D01*
X72800Y-34300D02*
X74000Y-34300D01*
X72000Y-34300D02*
X72200Y-34300D01*
X60250Y-34300D02*
X60750Y-34300D01*
X57900Y-34300D02*
X58200Y-34300D01*
X72950Y-34250D02*
X74000Y-34250D01*
X72000Y-34250D02*
X72050Y-34250D01*
X60150Y-34250D02*
X60750Y-34250D01*
X59200Y-34250D02*
X59300Y-34250D01*
X57900Y-34250D02*
X58300Y-34250D01*
X73050Y-34200D02*
X74050Y-34200D01*
X60000Y-34200D02*
X60750Y-34200D01*
X59050Y-34200D02*
X59450Y-34200D01*
X57900Y-34200D02*
X58450Y-34200D01*
X73150Y-34150D02*
X74050Y-34150D01*
X57950Y-34150D02*
X60750Y-34150D01*
X73200Y-34100D02*
X74050Y-34100D01*
X58050Y-34100D02*
X60750Y-34100D01*
X73250Y-34050D02*
X74050Y-34050D01*
X58150Y-34050D02*
X60750Y-34050D01*
X73300Y-34000D02*
X74050Y-34000D01*
X58250Y-34000D02*
X60750Y-34000D01*
X73350Y-33950D02*
X74050Y-33950D01*
X58300Y-33950D02*
X60750Y-33950D01*
X73400Y-33900D02*
X74050Y-33900D01*
X58350Y-33900D02*
X61800Y-33900D01*
X73450Y-33850D02*
X74050Y-33850D01*
X58400Y-33850D02*
X61800Y-33850D01*
X73450Y-33800D02*
X74050Y-33800D01*
X58450Y-33800D02*
X61800Y-33800D01*
X73500Y-33750D02*
X74050Y-33750D01*
X58500Y-33750D02*
X61800Y-33750D01*
X73500Y-33700D02*
X74050Y-33700D01*
X58500Y-33700D02*
X61800Y-33700D01*
X73550Y-33650D02*
X74050Y-33650D01*
X58550Y-33650D02*
X61800Y-33650D01*
X73550Y-33600D02*
X74050Y-33600D01*
X58550Y-33600D02*
X61800Y-33600D01*
X73550Y-33550D02*
X74050Y-33550D01*
X58600Y-33550D02*
X61800Y-33550D01*
X73600Y-33500D02*
X74050Y-33500D01*
X58600Y-33500D02*
X61800Y-33500D01*
X73600Y-33450D02*
X74050Y-33450D01*
X58650Y-33450D02*
X61800Y-33450D01*
X73600Y-33400D02*
X74050Y-33400D01*
X58650Y-33400D02*
X61800Y-33400D01*
X73600Y-33350D02*
X74050Y-33350D01*
X58650Y-33350D02*
X61800Y-33350D01*
X73600Y-33300D02*
X74050Y-33300D01*
X58650Y-33300D02*
X61800Y-33300D01*
X73600Y-33250D02*
X74050Y-33250D01*
X58700Y-33250D02*
X61800Y-33250D01*
X73600Y-33200D02*
X74050Y-33200D01*
X58700Y-33200D02*
X61800Y-33200D01*
X73600Y-33150D02*
X74050Y-33150D01*
X58700Y-33150D02*
X61800Y-33150D01*
X73600Y-33100D02*
X74050Y-33100D01*
X58700Y-33100D02*
X61800Y-33100D01*
X73600Y-33050D02*
X74050Y-33050D01*
X58700Y-33050D02*
X61800Y-33050D01*
X73600Y-33000D02*
X74050Y-33000D01*
X58700Y-33000D02*
X61800Y-33000D01*
X73550Y-32950D02*
X74050Y-32950D01*
X58700Y-32950D02*
X61850Y-32950D01*
X73550Y-32900D02*
X74050Y-32900D01*
X58650Y-32900D02*
X61850Y-32900D01*
X73550Y-32850D02*
X74050Y-32850D01*
X58650Y-32850D02*
X61900Y-32850D01*
X73500Y-32800D02*
X74050Y-32800D01*
X58650Y-32800D02*
X61900Y-32800D01*
X73500Y-32750D02*
X74050Y-32750D01*
X58600Y-32750D02*
X61950Y-32750D01*
X73450Y-32700D02*
X74050Y-32700D01*
X58600Y-32700D02*
X61950Y-32700D01*
X73450Y-32650D02*
X74050Y-32650D01*
X58600Y-32650D02*
X62000Y-32650D01*
X73400Y-32600D02*
X74050Y-32600D01*
X58550Y-32600D02*
X62050Y-32600D01*
X73350Y-32550D02*
X74050Y-32550D01*
X58550Y-32550D02*
X62100Y-32550D01*
X73300Y-32500D02*
X74050Y-32500D01*
X58500Y-32500D02*
X62150Y-32500D01*
X73250Y-32450D02*
X74050Y-32450D01*
X58450Y-32450D02*
X62200Y-32450D01*
X73200Y-32400D02*
X74050Y-32400D01*
X58400Y-32400D02*
X62250Y-32400D01*
X73150Y-32350D02*
X74050Y-32350D01*
X58350Y-32350D02*
X62300Y-32350D01*
X73050Y-32300D02*
X74050Y-32300D01*
X67100Y-32300D02*
X71950Y-32300D01*
X58300Y-32300D02*
X62350Y-32300D01*
X72950Y-32250D02*
X74050Y-32250D01*
X67100Y-32250D02*
X72050Y-32250D01*
X58250Y-32250D02*
X62400Y-32250D01*
X72800Y-32200D02*
X74050Y-32200D01*
X67100Y-32200D02*
X72200Y-32200D01*
X58300Y-32200D02*
X62450Y-32200D01*
X67100Y-32150D02*
X74050Y-32150D01*
X58350Y-32150D02*
X62500Y-32150D01*
X67100Y-32100D02*
X74050Y-32100D01*
X58400Y-32100D02*
X62550Y-32100D01*
X67100Y-32050D02*
X74050Y-32050D01*
X58450Y-32050D02*
X62600Y-32050D01*
X67100Y-32000D02*
X74050Y-32000D01*
X58500Y-32000D02*
X62650Y-32000D01*
X67050Y-31950D02*
X74050Y-31950D01*
X58500Y-31950D02*
X62700Y-31950D01*
X68500Y-31900D02*
X73900Y-31900D01*
X67050Y-31900D02*
X68000Y-31900D01*
X61750Y-31900D02*
X62750Y-31900D01*
X58550Y-31900D02*
X61250Y-31900D01*
X68650Y-31850D02*
X73900Y-31850D01*
X67050Y-31850D02*
X67850Y-31850D01*
X61900Y-31850D02*
X62800Y-31850D01*
X58550Y-31850D02*
X61100Y-31850D01*
X68800Y-31800D02*
X73900Y-31800D01*
X67000Y-31800D02*
X67700Y-31800D01*
X62050Y-31800D02*
X62850Y-31800D01*
X58600Y-31800D02*
X60950Y-31800D01*
X68850Y-31750D02*
X73900Y-31750D01*
X67000Y-31750D02*
X67650Y-31750D01*
X62100Y-31750D02*
X62900Y-31750D01*
X58600Y-31750D02*
X60900Y-31750D01*
X68950Y-31700D02*
X73900Y-31700D01*
X66950Y-31700D02*
X67550Y-31700D01*
X62200Y-31700D02*
X62950Y-31700D01*
X58650Y-31700D02*
X60800Y-31700D01*
X69000Y-31650D02*
X73900Y-31650D01*
X66950Y-31650D02*
X67500Y-31650D01*
X62250Y-31650D02*
X63000Y-31650D01*
X58650Y-31650D02*
X60750Y-31650D01*
X69050Y-31600D02*
X73900Y-31600D01*
X66900Y-31600D02*
X67450Y-31600D01*
X62300Y-31600D02*
X63050Y-31600D01*
X58650Y-31600D02*
X60700Y-31600D01*
X69100Y-31550D02*
X73900Y-31550D01*
X66850Y-31550D02*
X67400Y-31550D01*
X62350Y-31550D02*
X63100Y-31550D01*
X58650Y-31550D02*
X60650Y-31550D01*
X69150Y-31500D02*
X73900Y-31500D01*
X66800Y-31500D02*
X67350Y-31500D01*
X62400Y-31500D02*
X63150Y-31500D01*
X58700Y-31500D02*
X60600Y-31500D01*
X69150Y-31450D02*
X73900Y-31450D01*
X66750Y-31450D02*
X67350Y-31450D01*
X62400Y-31450D02*
X63250Y-31450D01*
X58700Y-31450D02*
X60600Y-31450D01*
X69200Y-31400D02*
X73900Y-31400D01*
X66700Y-31400D02*
X67300Y-31400D01*
X62450Y-31400D02*
X63350Y-31400D01*
X58700Y-31400D02*
X60550Y-31400D01*
X69250Y-31350D02*
X73900Y-31350D01*
X66650Y-31350D02*
X67250Y-31350D01*
X62500Y-31350D02*
X63450Y-31350D01*
X58700Y-31350D02*
X60500Y-31350D01*
X69250Y-31300D02*
X73900Y-31300D01*
X66550Y-31300D02*
X67250Y-31300D01*
X62500Y-31300D02*
X65450Y-31300D01*
X58700Y-31300D02*
X60500Y-31300D01*
X69300Y-31250D02*
X73900Y-31250D01*
X66450Y-31250D02*
X67200Y-31250D01*
X62550Y-31250D02*
X65550Y-31250D01*
X58700Y-31250D02*
X60450Y-31250D01*
X69300Y-31200D02*
X73900Y-31200D01*
X66300Y-31200D02*
X67200Y-31200D01*
X62550Y-31200D02*
X65700Y-31200D01*
X58700Y-31200D02*
X60450Y-31200D01*
X69300Y-31150D02*
X73900Y-31150D01*
X62550Y-31150D02*
X67200Y-31150D01*
X58650Y-31150D02*
X60450Y-31150D01*
X69350Y-31100D02*
X73900Y-31100D01*
X62600Y-31100D02*
X67150Y-31100D01*
X58650Y-31100D02*
X60400Y-31100D01*
X69350Y-31050D02*
X73900Y-31050D01*
X62600Y-31050D02*
X67150Y-31050D01*
X58650Y-31050D02*
X60400Y-31050D01*
X69350Y-31000D02*
X73900Y-31000D01*
X62600Y-31000D02*
X67150Y-31000D01*
X58650Y-31000D02*
X60400Y-31000D01*
X69350Y-30950D02*
X73900Y-30950D01*
X62600Y-30950D02*
X67150Y-30950D01*
X58600Y-30950D02*
X60400Y-30950D01*
X69350Y-30900D02*
X73900Y-30900D01*
X62600Y-30900D02*
X67150Y-30900D01*
X58600Y-30900D02*
X60400Y-30900D01*
X69350Y-30850D02*
X73900Y-30850D01*
X62600Y-30850D02*
X67150Y-30850D01*
X58550Y-30850D02*
X60400Y-30850D01*
X69350Y-30800D02*
X73900Y-30800D01*
X62600Y-30800D02*
X67150Y-30800D01*
X58550Y-30800D02*
X60400Y-30800D01*
X69350Y-30750D02*
X73900Y-30750D01*
X62600Y-30750D02*
X67150Y-30750D01*
X58500Y-30750D02*
X60400Y-30750D01*
X69350Y-30700D02*
X73900Y-30700D01*
X62600Y-30700D02*
X67150Y-30700D01*
X58450Y-30700D02*
X60400Y-30700D01*
X69350Y-30650D02*
X73900Y-30650D01*
X62600Y-30650D02*
X67150Y-30650D01*
X58400Y-30650D02*
X60400Y-30650D01*
X69350Y-30600D02*
X73900Y-30600D01*
X62600Y-30600D02*
X67150Y-30600D01*
X58350Y-30600D02*
X60400Y-30600D01*
X71650Y-30550D02*
X73900Y-30550D01*
X65900Y-30550D02*
X67150Y-30550D01*
X58300Y-30550D02*
X60400Y-30550D01*
X71800Y-30500D02*
X73900Y-30500D01*
X66050Y-30500D02*
X67150Y-30500D01*
X58250Y-30500D02*
X60400Y-30500D01*
X71850Y-30450D02*
X73900Y-30450D01*
X66100Y-30450D02*
X67150Y-30450D01*
X58200Y-30450D02*
X60400Y-30450D01*
X71950Y-30400D02*
X73900Y-30400D01*
X66200Y-30400D02*
X67150Y-30400D01*
X58100Y-30400D02*
X60400Y-30400D01*
X72000Y-30350D02*
X73900Y-30350D01*
X66250Y-30350D02*
X67150Y-30350D01*
X58000Y-30350D02*
X60400Y-30350D01*
X72050Y-30300D02*
X73900Y-30300D01*
X66300Y-30300D02*
X67150Y-30300D01*
X57850Y-30300D02*
X60400Y-30300D01*
X72100Y-30250D02*
X73900Y-30250D01*
X66350Y-30250D02*
X67150Y-30250D01*
X57800Y-30250D02*
X60400Y-30250D01*
X72150Y-30200D02*
X73900Y-30200D01*
X66400Y-30200D02*
X67150Y-30200D01*
X57750Y-30200D02*
X60400Y-30200D01*
X72200Y-30150D02*
X73900Y-30150D01*
X66450Y-30150D02*
X67150Y-30150D01*
X57750Y-30150D02*
X60400Y-30150D01*
X72250Y-30100D02*
X73900Y-30100D01*
X66500Y-30100D02*
X67150Y-30100D01*
X57750Y-30100D02*
X60400Y-30100D01*
X72300Y-30050D02*
X73900Y-30050D01*
X66550Y-30050D02*
X67150Y-30050D01*
X57750Y-30050D02*
X60400Y-30050D01*
X72350Y-30000D02*
X73900Y-30000D01*
X66600Y-30000D02*
X67150Y-30000D01*
X57750Y-30000D02*
X60400Y-30000D01*
X72400Y-29950D02*
X73900Y-29950D01*
X66650Y-29950D02*
X67150Y-29950D01*
X57750Y-29950D02*
X60400Y-29950D01*
X72450Y-29900D02*
X73900Y-29900D01*
X66700Y-29900D02*
X67150Y-29900D01*
X57750Y-29900D02*
X60400Y-29900D01*
X72500Y-29850D02*
X73900Y-29850D01*
X66750Y-29850D02*
X67150Y-29850D01*
X57750Y-29850D02*
X60400Y-29850D01*
X72550Y-29800D02*
X73900Y-29800D01*
X66800Y-29800D02*
X67150Y-29800D01*
X57750Y-29800D02*
X60400Y-29800D01*
X72600Y-29750D02*
X73900Y-29750D01*
X66800Y-29750D02*
X67150Y-29750D01*
X57750Y-29750D02*
X60400Y-29750D01*
X72650Y-29700D02*
X73900Y-29700D01*
X66850Y-29700D02*
X67150Y-29700D01*
X57750Y-29700D02*
X60400Y-29700D01*
X72700Y-29650D02*
X73900Y-29650D01*
X66850Y-29650D02*
X67150Y-29650D01*
X57750Y-29650D02*
X60400Y-29650D01*
X72750Y-29600D02*
X73900Y-29600D01*
X66900Y-29600D02*
X67150Y-29600D01*
X57750Y-29600D02*
X60400Y-29600D01*
X72800Y-29550D02*
X73900Y-29550D01*
X66900Y-29550D02*
X67150Y-29550D01*
X57750Y-29550D02*
X60400Y-29550D01*
X72850Y-29500D02*
X73900Y-29500D01*
X66950Y-29500D02*
X67150Y-29500D01*
X57750Y-29500D02*
X60400Y-29500D01*
X72900Y-29450D02*
X73900Y-29450D01*
X66950Y-29450D02*
X67150Y-29450D01*
X57750Y-29450D02*
X60400Y-29450D01*
X72950Y-29400D02*
X73900Y-29400D01*
X66950Y-29400D02*
X67150Y-29400D01*
X57750Y-29400D02*
X60400Y-29400D01*
X73000Y-29350D02*
X73950Y-29350D01*
X66950Y-29350D02*
X67150Y-29350D01*
X57750Y-29350D02*
X60400Y-29350D01*
X73050Y-29300D02*
X73950Y-29300D01*
X66950Y-29300D02*
X67150Y-29300D01*
X57750Y-29300D02*
X60400Y-29300D01*
X73100Y-29250D02*
X73950Y-29250D01*
X66950Y-29250D02*
X67150Y-29250D01*
X57750Y-29250D02*
X60400Y-29250D01*
X73150Y-29200D02*
X74000Y-29200D01*
X66950Y-29200D02*
X67150Y-29200D01*
X57750Y-29200D02*
X60400Y-29200D01*
X57750Y-29150D02*
X60400Y-29150D01*
X57750Y-29100D02*
X60400Y-29100D01*
X60000Y-29050D02*
X60400Y-29050D01*
X59050Y-29050D02*
X59450Y-29050D01*
X57900Y-29050D02*
X58450Y-29050D01*
X60150Y-29000D02*
X60400Y-29000D01*
X59200Y-29000D02*
X59300Y-29000D01*
X57900Y-29000D02*
X58300Y-29000D01*
X60250Y-28950D02*
X60400Y-28950D01*
X57900Y-28950D02*
X58200Y-28950D01*
X60350Y-28900D02*
X60400Y-28900D01*
X57900Y-28900D02*
X58100Y-28900D01*
X57900Y-28850D02*
X58050Y-28850D01*
X57900Y-28800D02*
X58000Y-28800D01*
X57900Y-28750D02*
X57950Y-28750D01*
X62600Y-28700D02*
X63000Y-28700D01*
X62600Y-28650D02*
X62950Y-28650D01*
X62600Y-28600D02*
X62950Y-28600D01*
X60700Y-28550D02*
X62950Y-28550D01*
X60700Y-28500D02*
X62900Y-28500D01*
X60750Y-28450D02*
X62900Y-28450D01*
X60750Y-28400D02*
X62900Y-28400D01*
X60800Y-28350D02*
X62900Y-28350D01*
X60800Y-28300D02*
X62900Y-28300D01*
X60800Y-28250D02*
X62900Y-28250D01*
X60800Y-28200D02*
X62900Y-28200D01*
X60800Y-28150D02*
X62900Y-28150D01*
X60850Y-28100D02*
X62900Y-28100D01*
X60850Y-28050D02*
X62900Y-28050D01*
X60850Y-28000D02*
X62900Y-28000D01*
X60850Y-27950D02*
X62950Y-27950D01*
X60850Y-27900D02*
X62950Y-27900D01*
X60800Y-27850D02*
X62950Y-27850D01*
X60800Y-27800D02*
X63000Y-27800D01*
X60800Y-27750D02*
X63000Y-27750D01*
X60800Y-27700D02*
X63050Y-27700D01*
X60800Y-27650D02*
X63050Y-27650D01*
X60750Y-27600D02*
X63100Y-27600D01*
X60750Y-27550D02*
X63150Y-27550D01*
X60700Y-27500D02*
X63200Y-27500D01*
X60700Y-27450D02*
X63250Y-27450D01*
X60650Y-27400D02*
X63300Y-27400D01*
X60600Y-27350D02*
X63350Y-27350D01*
X62600Y-27300D02*
X62900Y-27300D01*
X62600Y-27250D02*
X62900Y-27250D01*
X62600Y-27200D02*
X62900Y-27200D01*
M02*
