<?xml version="1.0" encoding="UTF-8" standalone="no"?>
<svg
   xmlns:dc="http://purl.org/dc/elements/1.1/"
   xmlns:cc="http://creativecommons.org/ns#"
   xmlns:rdf="http://www.w3.org/1999/02/22-rdf-syntax-ns#"
   xmlns:svg="http://www.w3.org/2000/svg"
   xmlns="http://www.w3.org/2000/svg"
   xmlns:sodipodi="http://sodipodi.sourceforge.net/DTD/sodipodi-0.dtd"
   xmlns:inkscape="http://www.inkscape.org/namespaces/inkscape"
   width="500pt"
   height="272pt"
   viewBox="0 0 500 272"
   version="1.1"
   id="svg2"
   sodipodi:version="0.32"
   inkscape:version="0.46"
   sodipodi:docname="usbpicprog2.svg"
   inkscape:output_extension="org.inkscape.output.svg.inkscape">
  <metadata
     id="metadata421">
    <rdf:RDF>
      <cc:Work
         rdf:about="">
        <dc:format>image/svg+xml</dc:format>
        <dc:type
           rdf:resource="http://purl.org/dc/dcmitype/StillImage" />
      </cc:Work>
    </rdf:RDF>
  </metadata>
  <defs
     id="defs419">
    <inkscape:perspective
       sodipodi:type="inkscape:persp3d"
       inkscape:vp_x="0 : 170 : 1"
       inkscape:vp_y="0 : 1000 : 0"
       inkscape:vp_z="625 : 170 : 1"
       inkscape:persp3d-origin="312.5 : 113.33333 : 1"
       id="perspective423" />
  </defs>
  <sodipodi:namedview
     inkscape:window-height="1147"
     inkscape:window-width="1600"
     inkscape:pageshadow="2"
     inkscape:pageopacity="0"
     guidetolerance="10.0"
     gridtolerance="10.0"
     objecttolerance="10.0"
     borderopacity="1.0"
     bordercolor="#666666"
     pagecolor="#ffffff"
     id="base"
     showgrid="false"
     inkscape:showpageshadow="true"
     inkscape:zoom="0.8704"
     inkscape:cx="107.99632"
     inkscape:cy="170"
     inkscape:window-x="0"
     inkscape:window-y="0"
     inkscape:current-layer="svg2" />
  <path
     fill="#ffffff"
     stroke="#ffffff"
     stroke-width="0.09375"
     d=" M 0.0 0.0 L 500.0 0.0 L 500.0 272.0 L 0.0 272.0 L 0.0 0.0 Z"
     id="path4"
     style="opacity:0" />
  <path
     fill="#84a395"
     stroke="#84a395"
     stroke-width="0.09375"
     d=" M 115.8 18.7 C 117.1 18.7 119.6 18.8 120.9 18.8 C 119.5 19.0 118.1 19.2 116.8 19.6 C 113.2 27.1 110.2 34.9 106.3 42.3 C 107.6 34.1 112.8 26.6 115.8 18.7 Z"
     id="path6" />
  <path
     fill="#1b4a4f"
     stroke="#1b4a4f"
     stroke-width="0.09375"
     d=" M 116.8 19.6 C 118.1 19.2 119.5 19.0 120.9 18.8 C 121.7 18.9 123.2 19.3 124.0 19.4 C 125.2 20.1 126.6 20.2 127.9 20.0 C 128.4 20.1 129.5 20.3 130.0 20.4 C 131.2 21.1 132.5 21.2 133.8 21.0 C 134.6 21.1 136.2 21.3 137.0 21.4 C 138.2 22.1 139.5 22.2 140.8 22.0 C 143.0 21.8 145.0 22.8 147.0 23.5 L 147.0 24.1 C 136.9 23.0 126.8 21.2 116.8 19.6 Z"
     id="path8" />
  <path
     fill="#91ab9b"
     stroke="#91ab9b"
     stroke-width="0.09375"
     d=" M 124.0 19.4 C 124.9 18.3 128.0 18.2 127.9 20.0 C 126.6 20.2 125.2 20.1 124.0 19.4 Z"
     id="path10" />
  <path
     fill="#044d7d"
     stroke="#044d7d"
     stroke-width="0.09375"
     d=" M 106.3 42.3 C 110.2 34.9 113.2 27.1 116.8 19.6 C 126.8 21.2 136.9 23.0 147.0 24.1 C 170.0 28.9 193.2 32.1 216.3 36.6 C 212.3 37.4 209.6 43.3 214.9 44.1 C 218.1 44.6 218.3 47.8 219.3 50.3 C 224.0 49.0 222.8 56.1 226.9 56.5 C 229.6 55.4 230.8 52.7 232.3 50.4 C 236.8 50.7 242.9 48.6 245.3 53.7 C 240.0 52.5 234.6 54.6 233.0 59.9 C 238.8 63.7 244.3 59.0 249.6 57.0 C 250.3 63.6 260.0 64.3 265.2 65.6 C 271.2 70.5 282.2 63.2 284.9 73.2 C 278.0 71.6 271.1 70.4 264.0 70.0 C 252.4 69.0 239.1 60.7 228.0 66.1 C 225.6 67.6 223.8 69.8 222.1 72.1 C 217.5 74.9 210.0 75.6 208.8 81.9 C 208.1 86.1 203.2 90.9 207.4 94.7 C 209.9 100.7 215.7 101.9 221.5 102.6 C 220.4 106.9 219.7 111.3 224.9 107.2 C 220.1 101.6 230.9 102.9 232.3 106.9 C 230.7 108.2 228.7 109.0 227.6 110.8 C 231.2 108.5 234.3 109.2 237.1 112.2 C 236.8 110.4 233.5 107.4 236.6 106.6 C 244.0 105.0 251.1 108.6 258.1 110.4 C 256.2 111.7 252.0 110.9 252.0 113.8 C 255.1 114.4 258.2 114.6 261.3 114.8 C 259.6 113.9 257.7 113.1 255.9 112.3 C 258.4 111.8 260.8 111.1 263.1 110.2 C 262.8 112.9 262.2 115.4 261.9 118.1 C 263.6 115.1 270.8 113.0 269.6 118.3 C 271.5 121.6 276.8 116.3 279.3 119.7 C 283.7 123.9 282.4 114.6 285.8 113.7 C 285.2 116.4 284.3 119.0 284.0 121.8 C 286.9 122.6 289.8 122.9 292.8 123.0 C 294.4 120.6 295.9 117.1 293.2 114.9 C 297.8 112.2 305.3 111.0 305.1 104.0 C 310.4 94.7 301.8 84.2 291.9 84.9 C 290.8 81.0 289.9 76.8 286.9 73.9 C 291.5 73.7 292.9 78.8 295.3 81.6 C 301.5 82.6 306.3 86.1 311.1 89.7 C 307.3 92.2 311.6 96.0 309.5 99.3 C 307.0 105.7 321.2 108.7 318.6 99.7 C 323.8 100.9 325.4 94.7 330.5 94.7 C 332.0 87.7 335.8 81.6 341.1 76.9 C 340.6 79.3 340.1 81.8 339.2 84.1 C 337.0 88.9 334.5 93.9 334.1 99.3 C 331.8 98.7 329.4 98.0 327.0 97.9 C 326.2 100.6 329.2 99.9 330.9 100.3 C 331.9 100.8 333.0 101.2 334.0 101.7 C 330.9 103.1 327.4 103.9 324.6 106.0 C 326.8 108.1 330.3 107.8 333.2 108.2 C 332.9 108.7 332.5 109.8 332.3 110.3 C 329.9 110.6 322.7 106.3 324.1 110.8 C 325.7 111.0 327.3 111.1 328.9 111.3 C 329.7 111.7 330.4 112.2 331.1 112.7 C 327.9 114.1 324.5 115.0 321.7 117.0 C 323.5 118.9 326.7 118.7 329.2 119.1 C 329.3 119.8 329.3 120.5 329.4 121.2 C 322.1 115.8 314.2 129.0 323.8 130.4 L 324.5 130.7 C 325.2 133.9 324.1 137.1 323.0 140.1 C 316.5 140.7 318.7 135.6 320.8 131.8 C 315.1 132.5 314.8 141.7 321.3 141.9 C 322.6 146.6 320.3 151.3 319.2 155.8 C 313.3 152.8 309.6 158.2 310.1 163.7 C 313.0 164.6 316.0 165.2 319.0 166.0 C 319.3 166.5 319.8 167.4 320.0 167.9 C 313.7 165.3 313.4 171.1 311.7 174.8 C 307.0 175.1 310.9 169.1 311.8 166.8 C 306.3 166.2 305.2 178.0 311.7 176.7 C 316.0 176.5 313.4 168.9 317.4 169.6 C 322.3 169.6 317.3 175.4 317.0 178.1 C 320.5 178.0 321.0 174.1 322.1 171.6 C 325.9 182.4 340.8 177.6 349.3 180.7 C 349.2 181.3 349.1 182.4 349.0 183.0 C 345.3 178.4 338.9 185.7 334.0 183.0 C 332.4 182.2 330.8 181.3 329.1 180.6 C 324.4 178.0 319.7 178.9 319.9 185.0 C 319.6 184.7 319.1 184.1 318.9 183.8 C 318.0 177.7 309.8 180.1 305.7 179.1 C 308.6 182.0 314.5 180.6 316.6 182.8 C 317.1 190.6 308.3 187.0 303.7 187.2 C 306.7 190.8 312.3 188.9 316.2 189.9 C 307.8 199.5 325.5 203.9 323.1 214.1 C 298.7 210.7 274.9 203.8 250.5 200.9 C 246.7 200.8 242.1 200.8 239.4 197.6 C 206.2 194.0 172.5 184.8 139.1 178.8 C 133.2 174.1 144.4 168.2 148.9 169.7 C 148.5 170.7 148.3 171.8 148.1 172.9 C 177.0 179.2 206.1 184.6 235.1 190.6 C 231.8 193.6 242.1 191.6 242.7 192.8 C 246.5 188.5 246.8 182.2 249.5 177.2 C 241.3 170.1 246.7 160.8 254.5 156.3 C 256.3 159.9 260.0 161.7 264.0 160.6 C 269.2 164.2 276.2 155.0 279.8 162.3 C 278.6 166.3 278.5 170.7 278.1 175.0 C 289.7 176.4 278.3 158.4 289.7 157.0 C 284.8 166.3 303.9 168.8 299.9 158.3 C 297.5 156.0 293.9 156.2 290.9 154.9 C 291.4 152.8 292.1 150.8 293.0 148.9 C 294.1 150.5 295.9 153.3 297.0 150.2 C 291.8 143.8 283.9 136.2 275.2 140.6 C 268.7 137.5 273.4 129.6 269.7 125.2 C 261.9 121.6 264.5 128.9 263.9 133.1 C 260.7 132.7 260.5 128.2 257.4 127.4 C 256.2 129.6 255.0 131.8 253.7 133.8 C 247.2 133.0 240.9 131.4 234.3 131.4 C 232.0 131.7 231.3 128.7 229.8 127.4 C 224.2 130.1 218.1 128.2 213.0 125.4 C 205.5 123.7 200.7 128.9 194.9 131.9 C 192.5 127.0 196.3 125.6 199.4 123.9 C 196.2 119.8 192.8 126.5 189.0 124.9 C 182.4 124.8 176.2 132.2 169.8 128.9 C 171.4 126.6 174.1 125.6 176.3 124.1 C 173.3 122.6 170.8 120.3 169.2 117.4 C 172.4 115.6 174.3 113.0 173.0 108.9 C 169.5 108.3 168.3 112.6 165.2 113.0 C 164.3 111.4 163.7 109.6 162.8 108.0 C 159.3 111.0 157.2 116.6 151.9 116.5 C 147.7 115.5 147.3 111.4 144.1 110.9 C 141.2 107.5 144.6 102.1 137.8 103.8 L 136.8 103.8 C 138.4 98.2 143.6 101.1 147.8 101.9 C 151.7 95.7 143.5 99.7 140.0 97.8 C 142.2 87.8 148.4 78.9 151.0 69.0 C 151.6 66.2 148.8 65.8 146.8 66.6 C 147.1 63.5 146.5 60.4 145.8 57.3 C 143.8 54.8 139.2 56.5 137.3 53.7 C 135.3 49.3 136.3 44.0 134.2 39.8 C 126.9 38.2 138.6 37.4 135.0 33.2 C 127.4 34.7 129.6 45.4 132.8 50.3 C 134.6 53.9 130.1 55.8 127.8 53.1 C 124.9 52.2 123.6 57.3 126.9 57.3 C 127.0 58.8 127.1 60.4 127.0 61.9 C 126.0 62.4 125.0 62.9 124.0 63.4 C 124.6 58.7 118.8 56.3 117.8 61.7 C 117.4 61.7 116.6 61.7 116.2 61.6 C 113.8 61.3 111.5 61.1 109.1 60.9 C 107.0 62.6 105.1 64.5 103.0 66.3 C 102.2 63.7 102.9 60.0 100.2 58.5 L 99.9 57.7 C 100.8 55.5 101.6 53.3 102.2 51.0 C 102.4 50.6 102.9 49.7 103.1 49.2 C 104.7 47.2 106.0 44.9 106.3 42.3 Z"
     id="path12" />
  <path
     fill="#7e9c98"
     stroke="#7e9c98"
     stroke-width="0.09375"
     d=" M 130.0 20.4 C 130.9 19.4 134.0 19.2 133.8 21.0 C 132.5 21.2 131.2 21.1 130.0 20.4 Z"
     id="path14" />
  <path
     fill="#a7bbb2"
     stroke="#a7bbb2"
     stroke-width="0.09375"
     d=" M 137.0 21.4 C 137.9 20.3 141.0 20.2 140.8 22.0 C 139.5 22.2 138.2 22.1 137.0 21.4 Z"
     id="path16" />
  <path
     fill="#93aea2"
     stroke="#93aea2"
     stroke-width="0.09375"
     d=" M 147.0 23.5 C 148.2 22.6 151.3 22.2 151.8 23.9 C 150.2 24.0 148.6 24.2 147.0 24.1 L 147.0 23.5 Z"
     id="path18" />
  <path
     fill="#2b5456"
     stroke="#2b5456"
     stroke-width="0.09375"
     d=" M 147.0 24.1 C 148.6 24.2 150.2 24.0 151.8 23.9 C 195.8 31.9 240.5 38.1 284.0 47.5 L 284.0 48.2 C 261.3 45.2 238.9 40.1 216.3 36.6 C 193.2 32.1 170.0 28.9 147.0 24.1 Z"
     id="path20" />
  <path
     fill="#7c949d"
     stroke="#7c949d"
     stroke-width="0.09375"
     d=" M 132.8 50.3 C 129.6 45.4 127.4 34.7 135.0 33.2 C 138.6 37.4 126.9 38.2 134.2 39.8 C 132.2 43.0 132.0 46.7 132.8 50.3 Z"
     id="path22" />
  <path
     fill="#025180"
     stroke="#025180"
     stroke-width="0.09375"
     d=" M 214.9 44.1 C 209.6 43.3 212.3 37.4 216.3 36.6 C 238.9 40.1 261.3 45.2 284.0 48.2 C 304.4 52.4 325.2 54.7 345.4 60.1 C 344.0 65.7 342.9 71.4 341.1 76.9 C 335.8 81.6 332.0 87.7 330.5 94.7 C 325.4 94.7 323.8 100.9 318.6 99.7 C 321.2 108.7 307.0 105.7 309.5 99.3 C 311.6 96.0 307.3 92.2 311.1 89.7 C 306.3 86.1 301.5 82.6 295.3 81.6 C 292.9 78.8 291.5 73.7 286.9 73.9 C 286.4 73.7 285.4 73.4 284.9 73.2 C 282.2 63.2 271.2 70.5 265.2 65.6 C 260.0 64.3 250.3 63.6 249.6 57.0 C 244.3 59.0 238.8 63.7 233.0 59.9 C 234.6 54.6 240.0 52.5 245.3 53.7 C 242.9 48.6 236.8 50.7 232.3 50.4 C 230.8 52.7 229.6 55.4 226.9 56.5 C 222.8 56.1 224.0 49.0 219.3 50.3 C 218.3 47.8 218.1 44.6 214.9 44.1 Z"
     id="path24" />
  <path
     fill="#283a42"
     stroke="#283a42"
     stroke-width="0.09375"
     d=" M 134.2 39.8 C 136.3 44.0 135.3 49.3 137.3 53.7 C 139.2 56.5 143.8 54.8 145.8 57.3 C 146.5 60.4 147.1 63.5 146.8 66.6 C 145.2 69.5 146.0 75.6 141.8 75.6 C 142.0 77.2 143.2 78.2 144.3 79.2 L 144.1 79.9 C 138.9 79.7 141.4 87.4 137.2 89.2 C 135.1 91.1 137.2 92.4 139.4 92.0 C 139.0 93.0 138.6 94.0 138.2 95.0 C 134.8 92.9 134.5 99.4 133.6 101.5 C 129.3 100.5 127.8 104.6 127.0 107.6 C 132.4 107.8 129.1 116.3 125.5 117.7 C 123.6 120.1 126.8 119.6 128.4 119.8 L 128.0 120.6 C 122.6 120.9 123.6 128.2 123.2 132.3 C 123.3 136.5 114.2 133.2 118.1 137.4 C 114.3 140.9 110.5 137.3 107.2 135.2 C 109.7 133.9 107.4 130.8 106.0 129.5 C 105.3 128.3 104.7 127.0 104.2 125.8 L 104.2 124.9 C 105.2 123.0 106.3 120.7 104.3 118.9 L 103.9 118.1 C 103.9 117.4 103.9 116.6 103.9 115.9 C 104.6 115.3 105.2 114.7 105.7 113.9 C 106.8 108.7 111.4 111.4 114.8 109.8 C 114.2 104.9 114.5 100.1 115.0 95.2 C 115.2 93.3 115.4 91.5 114.9 89.6 C 116.2 87.6 117.7 88.2 119.1 89.9 C 118.7 84.3 122.0 79.8 122.3 74.4 C 127.5 74.9 125.6 70.1 124.8 66.5 C 127.3 66.3 127.0 63.8 127.0 61.9 C 127.1 60.4 127.0 58.8 126.9 57.3 C 127.2 55.9 127.6 54.5 127.8 53.1 C 130.1 55.8 134.6 53.9 132.8 50.3 C 132.0 46.7 132.2 43.0 134.2 39.8 Z"
     id="path26" />
  <path
     fill="#789a8d"
     stroke="#789a8d"
     stroke-width="0.09375"
     d=" M 103.1 49.2 C 103.0 46.8 104.0 42.7 106.3 42.3 C 106.0 44.9 104.7 47.2 103.1 49.2 Z"
     id="path28" />
  <path
     fill="#808d91"
     stroke="#808d91"
     stroke-width="0.09375"
     d=" M 128.3 46.5 C 132.2 47.5 125.7 51.7 123.9 53.1 C 121.3 48.0 125.9 48.1 128.3 46.5 Z"
     id="path30" />
  <path
     fill="#7e9b92"
     stroke="#7e9b92"
     stroke-width="0.09375"
     d=" M 284.0 47.5 C 285.2 46.6 288.3 46.2 288.8 47.9 C 287.2 48.0 285.6 48.2 284.0 48.2 L 284.0 47.5 Z"
     id="path32" />
  <path
     fill="#234c53"
     stroke="#234c53"
     stroke-width="0.09375"
     d=" M 284.0 48.2 C 285.6 48.2 287.2 48.0 288.8 47.9 C 308.0 50.9 327.2 54.3 346.2 58.3 C 346.0 58.7 345.6 59.6 345.4 60.1 C 325.2 54.7 304.4 52.4 284.0 48.2 Z"
     id="path34" />
  <path
     fill="#809d8e"
     stroke="#809d8e"
     stroke-width="0.09375"
     d=" M 99.0 58.0 C 99.0 55.5 100.0 52.3 102.2 51.0 C 101.6 53.3 100.8 55.5 99.9 57.7 L 99.0 58.0 Z"
     id="path36" />
  <path
     fill="#89a7b0"
     stroke="#89a7b0"
     stroke-width="0.09375"
     d=" M 126.9 57.3 C 123.6 57.3 124.9 52.2 127.8 53.1 C 127.6 54.5 127.2 55.9 126.9 57.3 Z"
     id="path38" />
  <path
     fill="#8190a1"
     stroke="#8190a1"
     stroke-width="0.09375"
     d=" M 303.1 56.2 C 308.0 57.3 299.9 59.5 303.1 56.2 Z"
     id="path40" />
  <path
     fill="#1d5c7c"
     stroke="#1d5c7c"
     stroke-width="0.09375"
     d=" M 97.0 62.3 C 97.2 60.8 97.4 58.4 99.0 58.0 L 99.9 57.7 L 100.2 58.5 L 100.1 59.4 C 100.5 61.4 96.0 73.2 100.9 70.4 C 103.6 68.0 106.2 65.3 108.9 62.9 L 108.9 63.9 C 108.3 66.1 103.9 75.3 108.5 70.5 C 110.1 66.7 114.3 69.9 117.2 68.1 C 123.1 68.2 116.9 69.8 116.4 72.9 C 115.1 73.3 113.9 73.9 112.7 74.8 C 109.9 74.9 107.0 74.2 104.2 74.4 C 100.6 74.5 98.8 78.2 96.1 80.2 C 94.0 79.3 98.3 71.7 94.0 73.0 C 94.0 75.8 94.0 81.3 94.1 84.1 C 98.7 82.9 100.4 77.2 104.2 74.4 C 105.8 78.4 101.9 81.8 101.5 85.8 C 100.6 87.5 103.2 87.1 104.2 87.6 C 98.0 87.0 96.3 93.1 95.0 97.9 C 99.2 101.4 105.7 100.2 106.2 94.1 C 93.1 88.3 110.9 103.1 98.4 97.7 C 95.5 96.4 99.7 92.5 100.4 90.3 C 103.6 89.9 109.7 92.4 105.1 87.8 C 110.3 87.7 111.3 91.9 108.7 95.7 C 107.7 97.4 106.7 99.1 105.7 100.8 C 103.8 103.3 109.2 102.2 110.1 104.0 C 103.7 100.3 96.0 114.6 103.9 115.9 C 103.9 116.6 103.9 117.4 103.9 118.1 C 96.3 114.6 98.1 125.1 94.1 128.8 C 93.6 128.7 92.5 128.3 91.9 128.2 C 93.5 124.5 95.4 120.9 96.1 116.9 C 92.7 117.1 93.1 121.9 91.4 124.1 C 90.5 121.2 90.0 118.0 88.0 115.6 C 85.9 118.0 81.4 124.7 84.8 126.2 C 84.1 128.3 81.9 125.9 80.9 125.1 C 81.8 123.5 82.6 121.8 83.2 120.1 C 74.1 116.9 78.7 120.2 80.1 122.2 C 79.2 125.0 76.2 123.8 74.2 122.9 C 75.3 118.3 77.8 112.0 83.1 116.8 C 86.5 112.6 78.8 112.6 76.2 114.2 C 74.6 116.8 73.3 119.6 71.9 122.3 C 71.8 121.9 71.5 121.1 71.3 120.7 C 72.4 115.9 74.7 111.1 77.4 106.8 C 77.5 107.2 77.8 108.0 78.0 108.4 C 77.9 111.7 80.2 108.2 81.6 107.6 C 86.0 108.3 90.7 105.8 91.1 101.1 C 88.7 99.4 85.5 99.7 82.7 99.1 C 80.9 96.4 84.8 97.5 85.8 96.0 C 87.1 90.5 93.2 95.9 95.7 91.7 C 100.0 87.1 90.7 84.2 87.6 86.9 C 87.4 86.4 87.1 85.4 86.9 84.9 C 89.2 78.7 91.9 72.5 95.2 66.8 C 96.6 65.7 97.2 64.0 97.0 62.3 Z"
     id="path42" />
  <path
     fill="#1d4e5f"
     stroke="#1d4e5f"
     stroke-width="0.09375"
     d=" M 117.8 61.7 C 118.8 56.3 124.6 58.7 124.0 63.4 C 124.2 64.5 124.5 65.5 124.8 66.5 C 125.6 70.1 127.5 74.9 122.3 74.4 C 122.0 79.8 118.7 84.3 119.1 89.9 C 117.7 88.2 116.2 87.6 114.9 89.6 C 112.0 91.4 111.8 93.7 115.0 95.2 C 114.5 100.1 114.2 104.9 114.8 109.8 C 111.4 111.4 106.8 108.7 105.7 113.9 C 101.3 115.1 103.1 109.8 104.6 107.7 C 105.4 104.7 110.8 107.6 110.1 104.0 C 109.2 102.2 103.8 103.3 105.7 100.8 C 109.8 102.3 109.0 98.5 108.7 95.7 C 111.3 91.9 110.3 87.7 105.1 87.8 L 104.2 87.6 C 103.2 87.1 100.6 87.5 101.5 85.8 C 108.8 89.3 111.9 83.8 113.1 78.2 C 117.5 79.6 118.7 73.8 113.8 74.8 L 112.7 74.8 C 113.9 73.9 115.1 73.3 116.4 72.9 C 120.8 72.3 120.1 75.3 118.2 78.1 C 123.3 81.4 120.3 70.2 122.9 67.2 C 114.5 65.9 126.3 61.8 118.8 61.8 L 117.8 61.7 Z"
     id="path44" />
  <path
     fill="#7a7c82"
     stroke="#7a7c82"
     stroke-width="0.09375"
     d=" M 346.2 58.3 L 347.1 58.1 C 346.8 60.1 346.5 62.0 346.0 64.0 C 341.7 81.4 336.9 98.8 332.4 116.1 C 332.2 115.6 332.0 114.5 331.9 114.0 C 331.7 113.7 331.3 113.0 331.1 112.7 C 330.4 112.2 329.7 111.7 328.9 111.3 C 330.1 111.0 331.2 110.7 332.3 110.3 C 332.5 109.8 332.9 108.7 333.2 108.2 L 333.4 107.3 C 334.1 106.1 333.7 104.7 333.1 103.6 C 334.0 103.0 335.9 102.5 334.0 101.7 C 333.0 101.2 331.9 100.8 330.9 100.3 C 332.0 100.0 333.0 99.7 334.1 99.3 C 338.8 96.8 337.5 89.0 339.2 84.1 C 340.1 81.8 340.6 79.3 341.1 76.9 C 342.9 71.4 344.0 65.7 345.4 60.1 C 345.6 59.6 346.0 58.7 346.2 58.3 Z"
     id="path46" />
  <path
     fill="#583b2e"
     stroke="#583b2e"
     stroke-width="0.09375"
     d=" M 347.1 58.1 C 350.6 58.6 354.4 58.2 357.3 60.3 C 355.8 60.7 354.3 61.0 352.9 61.3 C 360.4 67.3 371.1 66.8 379.8 70.2 C 386.0 73.1 392.7 74.9 398.5 78.5 C 401.5 81.6 400.9 86.6 405.0 88.9 C 403.3 90.6 400.1 94.3 404.6 94.4 C 412.8 97.5 392.0 98.4 401.9 101.4 C 401.5 106.2 392.2 104.4 394.3 110.7 C 398.5 117.1 389.4 116.4 389.0 120.8 C 391.7 121.4 394.3 121.8 397.1 122.3 C 396.2 127.0 388.4 124.9 385.6 128.6 C 381.9 133.0 373.0 127.1 370.6 132.1 C 362.4 130.9 354.3 128.6 345.9 128.2 C 337.3 126.2 347.7 123.3 351.9 124.8 C 353.8 121.7 362.2 123.6 365.6 119.6 C 368.0 115.1 374.0 117.3 376.6 112.6 C 374.8 105.1 384.2 101.7 381.3 94.2 C 388.5 92.8 384.7 87.0 382.8 82.2 C 384.2 76.9 379.1 74.1 375.5 71.6 C 366.6 69.5 358.0 64.9 348.6 65.5 C 347.4 65.8 346.8 64.7 346.0 64.0 C 346.5 62.0 346.8 60.1 347.1 58.1 Z"
     id="path48" />
  <path
     fill="#78adc0"
     stroke="#78adc0"
     stroke-width="0.09375"
     d=" M 100.2 58.5 C 102.9 60.0 102.2 63.7 103.0 66.3 C 99.4 69.6 101.4 61.6 100.1 59.4 L 100.2 58.5 Z"
     id="path50" />
  <path
     fill="#5398ba"
     stroke="#5398ba"
     stroke-width="0.09375"
     d=" M 100.9 70.4 C 96.0 73.2 100.5 61.4 100.1 59.4 C 100.0 63.1 99.4 66.9 100.9 70.4 Z"
     id="path52" />
  <path
     fill="#bee8ee"
     stroke="#bee8ee"
     stroke-width="0.09375"
     d=" M 100.1 59.4 C 101.4 61.6 99.4 69.6 103.0 66.3 C 105.1 64.5 107.0 62.6 109.1 60.9 C 109.0 61.4 109.0 62.4 108.9 62.9 C 106.2 65.3 103.6 68.0 100.9 70.4 C 99.4 66.9 100.0 63.1 100.1 59.4 Z"
     id="path54" />
  <path
     fill="#634132"
     stroke="#634132"
     stroke-width="0.09375"
     d=" M 357.3 60.3 C 362.9 60.6 368.5 62.2 374.0 63.5 C 375.2 64.1 376.5 64.2 377.8 64.1 C 383.5 64.7 389.1 66.2 394.7 67.3 C 399.7 68.6 404.8 69.7 409.9 70.2 C 420.1 72.1 430.2 73.9 440.2 76.4 C 433.4 77.3 426.7 75.6 420.2 74.0 C 417.0 77.4 425.6 77.7 427.0 80.0 C 433.1 81.8 433.1 88.7 437.1 92.7 C 439.4 91.6 441.6 90.5 444.0 89.9 C 443.8 92.4 439.6 100.5 444.2 96.0 C 449.0 99.3 443.0 104.7 439.8 107.0 C 443.3 107.1 449.0 108.8 445.2 113.1 C 450.1 117.7 445.8 123.9 446.5 129.5 C 440.5 129.5 444.7 141.5 439.2 137.8 C 434.6 133.6 428.1 139.4 423.4 135.7 C 416.3 138.0 407.7 131.7 400.2 135.5 C 395.0 132.7 388.0 131.3 382.8 134.7 C 382.1 134.8 380.7 135.0 380.1 135.1 C 377.1 133.6 373.8 132.9 370.6 132.1 C 373.0 127.1 381.9 133.0 385.6 128.6 C 388.4 124.9 396.2 127.0 397.1 122.3 C 394.3 121.8 391.7 121.4 389.0 120.8 C 389.4 116.4 398.5 117.1 394.3 110.7 C 392.2 104.4 401.5 106.2 401.9 101.4 C 392.0 98.4 412.8 97.5 404.6 94.4 C 400.1 94.3 403.3 90.6 405.0 88.9 C 400.9 86.6 401.5 81.6 398.5 78.5 C 392.7 74.9 386.0 73.1 379.8 70.2 C 371.1 66.8 360.4 67.3 352.9 61.3 C 354.3 61.0 355.8 60.7 357.3 60.3 Z"
     id="path56" />
  <path
     fill="#5899b9"
     stroke="#5899b9"
     stroke-width="0.09375"
     d=" M 109.1 60.9 C 111.5 61.1 113.8 61.3 116.2 61.6 C 113.6 62.0 110.7 61.8 108.9 63.9 L 108.9 62.9 C 109.0 62.4 109.0 61.4 109.1 60.9 Z"
     id="path58" />
  <path
     fill="#7c9d8e"
     stroke="#7c9d8e"
     stroke-width="0.09375"
     d=" M 95.2 66.8 C 94.3 65.3 95.3 62.3 97.0 62.3 C 97.2 64.0 96.6 65.7 95.2 66.8 Z"
     id="path60" />
  <path
     fill="#b0dae3"
     stroke="#b0dae3"
     stroke-width="0.09375"
     d=" M 108.9 63.9 C 110.7 61.8 113.6 62.0 116.2 61.6 C 116.6 61.7 117.4 61.7 117.8 61.7 L 118.8 61.8 C 118.3 63.9 117.8 66.0 117.2 68.1 C 114.3 69.9 110.1 66.7 108.5 70.5 C 103.9 75.3 108.3 66.1 108.9 63.9 Z"
     id="path62" />
  <path
     fill="#80a1a4"
     stroke="#80a1a4"
     stroke-width="0.09375"
     d=" M 118.8 61.8 C 126.3 61.8 114.5 65.9 122.9 67.2 C 120.3 70.2 123.3 81.4 118.2 78.1 C 120.1 75.3 120.8 72.3 116.4 72.9 C 116.9 69.8 123.1 68.2 117.2 68.1 C 117.8 66.0 118.3 63.9 118.8 61.8 Z"
     id="path64" />
  <path
     fill="#7fa7ba"
     stroke="#7fa7ba"
     stroke-width="0.09375"
     d=" M 124.0 63.4 C 125.0 62.9 126.0 62.4 127.0 61.9 C 127.0 63.8 127.3 66.3 124.8 66.5 C 124.5 65.5 124.2 64.5 124.0 63.4 Z"
     id="path66" />
  <path
     fill="#20607e"
     stroke="#20607e"
     stroke-width="0.09375"
     d=" M 112.2 63.1 C 113.5 63.7 117.8 63.2 116.4 65.4 C 115.8 69.3 108.1 65.9 112.2 63.1 Z"
     id="path68" />
  <path
     fill="#b4ada0"
     stroke="#b4ada0"
     stroke-width="0.09375"
     d=" M 374.0 63.5 C 374.8 62.3 378.0 62.2 377.8 64.1 C 376.5 64.2 375.2 64.1 374.0 63.5 Z"
     id="path70" />
  <path
     fill="#495d74"
     stroke="#495d74"
     stroke-width="0.09375"
     d=" M 228.0 66.1 C 239.1 60.7 252.4 69.0 264.0 70.0 C 251.8 70.3 240.1 63.7 228.0 66.1 Z"
     id="path72" />
  <path
     fill="#48322b"
     stroke="#48322b"
     stroke-width="0.09375"
     d=" M 346.0 64.0 C 346.8 64.7 347.4 65.8 348.6 65.5 C 358.0 64.9 366.6 69.5 375.5 71.6 C 379.1 74.1 384.2 76.9 382.8 82.2 C 384.7 87.0 388.5 92.8 381.3 94.2 C 384.2 101.7 374.8 105.1 376.6 112.6 C 374.0 117.3 368.0 115.1 365.6 119.6 C 362.2 123.6 353.8 121.7 351.9 124.8 C 347.7 123.3 337.3 126.2 345.9 128.2 L 345.9 129.1 C 342.6 128.8 339.3 128.2 336.1 127.8 C 335.6 127.5 334.6 127.0 334.1 126.8 C 333.6 126.5 332.4 125.9 331.9 125.6 C 330.2 122.6 332.1 119.3 332.4 116.1 C 336.9 98.8 341.7 81.4 346.0 64.0 Z"
     id="path74" />
  <path
     fill="#513c34"
     stroke="#513c34"
     stroke-width="0.09375"
     d=" M 228.0 66.1 C 240.1 63.7 251.8 70.3 264.0 70.0 C 272.1 72.9 282.9 71.0 288.8 78.4 C 289.8 81.8 288.9 85.3 287.4 88.3 C 286.4 89.7 285.2 90.9 284.0 92.0 C 282.2 92.0 280.5 92.0 278.8 92.0 L 279.2 91.3 C 281.0 90.6 283.7 90.6 284.3 88.4 C 280.0 88.6 275.6 88.9 271.3 88.9 C 260.7 86.6 250.0 84.5 239.3 82.8 C 234.6 82.6 230.3 78.8 225.6 79.9 C 223.3 79.1 223.0 76.3 221.8 74.5 L 221.9 73.7 C 221.9 73.3 222.0 72.5 222.1 72.1 C 223.8 69.8 225.6 67.6 228.0 66.1 Z"
     id="path76" />
  <path
     fill="#afd7de"
     stroke="#afd7de"
     stroke-width="0.09375"
     d=" M 146.8 66.6 C 148.8 65.8 151.6 66.2 151.0 69.0 C 148.4 78.9 142.2 87.8 140.0 97.8 C 143.5 99.7 151.7 95.7 147.8 101.9 C 143.6 101.1 138.4 98.2 136.8 103.8 C 135.3 106.0 134.7 108.6 134.0 111.2 C 131.8 117.3 128.9 123.3 127.0 129.6 C 126.1 131.3 125.3 133.1 124.8 134.9 C 123.7 138.1 120.9 137.8 118.1 137.4 C 114.2 133.2 123.3 136.5 123.2 132.3 C 124.9 128.4 126.4 124.5 128.0 120.6 L 128.4 119.8 C 131.8 111.6 134.8 103.2 138.2 95.0 C 138.6 94.0 139.0 93.0 139.4 92.0 C 141.0 88.0 142.7 84.0 144.1 79.9 L 144.3 79.2 C 145.4 75.3 151.2 69.7 146.8 66.6 Z"
     id="path78" />
  <path
     fill="#365f78"
     stroke="#365f78"
     stroke-width="0.09375"
     d=" M 141.8 75.6 C 146.0 75.6 145.2 69.5 146.8 66.6 C 151.2 69.7 145.4 75.3 144.3 79.2 C 143.2 78.2 142.0 77.2 141.8 75.6 Z"
     id="path80" />
  <path
     fill="#808b78"
     stroke="#808b78"
     stroke-width="0.09375"
     d=" M 394.7 67.3 C 399.3 67.8 407.0 66.6 409.9 70.2 C 404.8 69.7 399.7 68.6 394.7 67.3 Z"
     id="path82" />
  <path
     fill="#506677"
     stroke="#506677"
     stroke-width="0.09375"
     d=" M 264.0 70.0 C 271.1 70.4 278.0 71.6 284.9 73.2 C 285.4 73.4 286.4 73.7 286.9 73.9 C 289.9 76.8 290.8 81.0 291.9 84.9 C 289.1 84.6 290.6 85.8 291.9 86.9 L 291.1 87.2 C 290.9 87.3 290.5 87.4 290.3 87.5 C 289.5 87.7 288.1 88.1 287.4 88.3 C 288.9 85.3 289.8 81.8 288.8 78.4 C 282.9 71.0 272.1 72.9 264.0 70.0 Z"
     id="path84" />
  <path
     fill="#add8e2"
     stroke="#add8e2"
     stroke-width="0.09375"
     d=" M 208.8 81.9 C 210.0 75.6 217.5 74.9 222.1 72.1 C 222.0 72.5 221.9 73.3 221.9 73.7 C 213.2 75.3 208.7 82.5 208.0 90.9 C 210.1 95.2 212.8 101.3 218.8 100.3 C 239.3 102.4 259.2 109.9 279.8 110.2 C 283.4 114.3 293.0 115.2 298.1 111.1 C 309.5 105.9 305.5 84.8 291.9 86.9 C 290.6 85.8 289.1 84.6 291.9 84.9 C 301.8 84.2 310.4 94.7 305.1 104.0 C 305.3 111.0 297.8 112.2 293.2 114.9 C 295.9 117.1 294.4 120.6 292.8 123.0 C 289.8 122.9 286.9 122.6 284.0 121.8 C 284.3 119.0 285.2 116.4 285.8 113.7 C 282.4 114.6 283.7 123.9 279.3 119.7 C 276.8 116.3 271.5 121.6 269.6 118.3 C 270.8 113.0 263.6 115.1 261.9 118.1 C 262.2 115.4 262.8 112.9 263.1 110.2 C 260.8 111.1 258.4 111.8 255.9 112.3 C 257.7 113.1 259.6 113.9 261.3 114.8 C 258.2 114.6 255.1 114.4 252.0 113.8 C 252.0 110.9 256.2 111.7 258.1 110.4 C 251.1 108.6 244.0 105.0 236.6 106.6 C 233.5 107.4 236.8 110.4 237.1 112.2 C 234.3 109.2 231.2 108.5 227.6 110.8 C 228.7 109.0 230.7 108.2 232.3 106.9 C 230.9 102.9 220.1 101.6 224.9 107.2 C 219.7 111.3 220.4 106.9 221.5 102.6 C 215.7 101.9 209.9 100.7 207.4 94.7 C 203.2 90.9 208.1 86.1 208.8 81.9 Z"
     id="path86" />
  <path
     fill="#b2d9e5"
     stroke="#b2d9e5"
     stroke-width="0.09375"
     d=" M 94.0 73.0 C 98.3 71.7 94.0 79.3 96.1 80.2 C 98.8 78.2 100.6 74.5 104.2 74.4 C 100.4 77.2 98.7 82.9 94.1 84.1 C 94.0 81.3 94.0 75.8 94.0 73.0 Z"
     id="path88" />
  <path
     fill="#acd5dd"
     stroke="#acd5dd"
     stroke-width="0.09375"
     d=" M 104.2 74.4 C 107.0 74.2 109.9 74.9 112.7 74.8 L 113.8 74.8 C 113.6 76.0 113.4 77.1 113.1 78.2 C 111.9 83.8 108.8 89.3 101.5 85.8 C 101.9 81.8 105.8 78.4 104.2 74.4 Z"
     id="path90" />
  <path
     fill="#0c557f"
     stroke="#0c557f"
     stroke-width="0.09375"
     d=" M 208.0 90.9 C 208.7 82.5 213.2 75.3 221.9 73.7 L 221.8 74.5 C 217.2 82.9 216.8 98.5 229.2 98.9 C 244.7 98.5 257.7 105.8 273.8 106.7 C 275.1 106.9 276.4 107.1 277.7 107.4 C 279.4 108.0 283.8 108.0 282.3 105.2 L 282.9 104.9 C 284.4 105.4 286.2 106.9 287.4 105.1 C 293.2 101.4 296.3 92.8 290.9 87.7 L 291.1 87.2 L 291.9 86.9 C 305.5 84.8 309.5 105.9 298.1 111.1 C 293.0 115.2 283.4 114.3 279.8 110.2 C 259.2 109.9 239.3 102.4 218.8 100.3 C 212.8 101.3 210.1 95.2 208.0 90.9 Z"
     id="path92" />
  <path
     fill="#65493c"
     stroke="#65493c"
     stroke-width="0.09375"
     d=" M 420.2 74.0 C 426.7 75.6 433.4 77.3 440.2 76.4 C 448.4 79.1 459.1 77.2 466.0 82.3 C 465.9 83.8 466.0 85.3 466.1 86.8 C 464.9 95.9 463.7 105.1 461.5 114.0 C 460.9 115.2 460.8 116.5 461.0 117.8 C 461.2 123.0 459.8 128.1 458.5 133.0 C 457.9 134.2 457.8 135.6 458.0 136.9 C 457.9 137.4 457.7 138.5 457.6 139.0 C 456.9 140.2 456.8 141.5 457.0 142.8 C 457.1 145.6 456.2 148.3 455.8 151.0 C 432.7 142.4 406.9 140.6 382.8 134.7 C 388.0 131.3 395.0 132.7 400.2 135.5 C 407.7 131.7 416.3 138.0 423.4 135.7 C 428.1 139.4 434.6 133.6 439.2 137.8 C 444.7 141.5 440.5 129.5 446.5 129.5 C 445.8 123.9 450.1 117.7 445.2 113.1 C 449.0 108.8 443.3 107.1 439.8 107.0 C 443.0 104.7 449.0 99.3 444.2 96.0 C 439.6 100.5 443.8 92.4 444.0 89.9 C 441.6 90.5 439.4 91.6 437.1 92.7 C 433.1 88.7 433.1 81.8 427.0 80.0 C 425.6 77.7 417.0 77.4 420.2 74.0 Z"
     id="path94" />
  <path
     fill="#787a6b"
     stroke="#787a6b"
     stroke-width="0.09375"
     d=" M 113.8 74.8 C 118.7 73.8 117.5 79.6 113.1 78.2 C 113.4 77.1 113.6 76.0 113.8 74.8 Z"
     id="path96" />
  <path
     fill="#25434d"
     stroke="#25434d"
     stroke-width="0.09375"
     d=" M 229.2 98.9 C 216.8 98.5 217.2 82.9 221.8 74.5 C 223.0 76.3 223.3 79.1 225.6 79.9 C 229.7 82.2 234.3 83.6 239.0 83.9 C 249.7 85.5 260.3 88.2 271.0 89.9 C 273.7 90.5 276.5 91.0 279.2 91.3 L 278.8 92.0 C 276.8 92.5 274.7 94.5 272.6 93.7 C 272.0 92.0 271.0 90.8 269.2 90.9 C 261.2 89.8 253.3 87.7 245.3 86.8 C 240.6 85.8 236.0 84.2 231.2 83.9 C 227.8 89.6 227.4 82.5 223.9 80.9 C 224.5 84.0 225.9 87.1 227.6 89.8 C 229.5 93.2 233.9 93.0 237.3 93.2 C 235.8 93.7 234.3 94.1 232.8 94.4 C 231.5 94.3 230.1 94.2 228.8 94.1 C 226.8 92.7 224.4 91.6 221.9 92.0 C 222.3 95.7 226.5 97.1 229.2 98.9 Z"
     id="path98" />
  <path
     fill="#6b564a"
     stroke="#6b564a"
     stroke-width="0.09375"
     d=" M 236.1 75.1 C 244.7 74.4 252.0 79.3 259.8 78.0 C 258.9 84.3 264.5 75.7 266.9 80.2 C 267.3 83.6 262.4 85.4 260.2 82.8 C 255.8 82.4 251.4 82.0 247.2 80.6 C 244.3 81.1 239.4 81.0 239.7 77.0 C 236.6 78.6 235.1 79.5 236.1 75.1 Z"
     id="path100" />
  <path
     fill="#1b6280"
     stroke="#1b6280"
     stroke-width="0.09375"
     d=" M 107.2 77.1 C 113.5 75.1 109.7 82.2 107.8 85.0 C 102.0 85.3 105.7 80.0 107.2 77.1 Z"
     id="path102" />
  <path
     fill="#908b84"
     stroke="#908b84"
     stroke-width="0.09375"
     d=" M 225.6 79.9 C 230.3 78.8 234.6 82.6 239.3 82.8 L 239.0 83.9 C 234.3 83.6 229.7 82.2 225.6 79.9 Z"
     id="path104" />
  <path
     fill="#305c79"
     stroke="#305c79"
     stroke-width="0.09375"
     d=" M 137.2 89.2 C 141.4 87.4 138.9 79.7 144.1 79.9 C 142.7 84.0 141.0 88.0 139.4 92.0 C 137.2 92.4 135.1 91.1 137.2 89.2 Z"
     id="path106" />
  <path
     fill="#4a7c8d"
     stroke="#4a7c8d"
     stroke-width="0.09375"
     d=" M 223.9 80.9 C 227.4 82.5 227.8 89.6 231.2 83.9 C 231.4 85.9 231.2 88.0 231.0 90.0 C 229.9 89.7 228.7 89.3 227.6 89.8 C 225.9 87.1 224.5 84.0 223.9 80.9 Z"
     id="path108" />
  <path
     fill="#746154"
     stroke="#746154"
     stroke-width="0.09375"
     d=" M 272.2 81.1 C 279.3 76.2 277.7 87.7 273.2 85.7 C 270.0 86.9 271.2 82.6 272.2 81.1 Z"
     id="path110" />
  <path
     fill="#c9c19a"
     stroke="#c9c19a"
     stroke-width="0.09375"
     d=" M 466.0 82.3 C 467.9 82.2 467.9 86.7 466.1 86.8 C 466.0 85.3 465.9 83.8 466.0 82.3 Z"
     id="path112" />
  <path
     fill="#b1bab5"
     stroke="#b1bab5"
     stroke-width="0.09375"
     d=" M 239.3 82.8 C 250.0 84.5 260.7 86.6 271.3 88.9 L 271.0 89.9 C 260.3 88.2 249.7 85.5 239.0 83.9 L 239.3 82.8 Z"
     id="path114" />
  <path
     fill="#125e77"
     stroke="#125e77"
     stroke-width="0.09375"
     d=" M 231.2 83.9 C 236.0 84.2 240.6 85.8 245.3 86.8 C 242.4 89.9 233.7 82.9 237.6 88.5 C 238.4 91.4 232.4 91.1 231.0 90.0 C 231.2 88.0 231.4 85.9 231.2 83.9 Z"
     id="path116" />
  <path
     fill="#0d3451"
     stroke="#0d3451"
     stroke-width="0.09375"
     d=" M 334.1 99.3 C 334.5 93.9 337.0 88.9 339.2 84.1 C 337.5 89.0 338.8 96.8 334.1 99.3 Z"
     id="path118" />
  <path
     fill="#4c7979"
     stroke="#4c7979"
     stroke-width="0.09375"
     d=" M 77.4 106.8 C 79.7 99.6 83.0 91.6 86.9 84.9 C 87.1 85.4 87.4 86.4 87.6 86.9 C 87.4 89.7 81.7 95.6 85.8 96.0 C 84.8 97.5 80.9 96.4 82.7 99.1 C 81.2 102.2 79.8 105.4 78.0 108.4 C 77.8 108.0 77.5 107.2 77.4 106.8 Z"
     id="path120" />
  <path
     fill="#c7dfe7"
     stroke="#c7dfe7"
     stroke-width="0.09375"
     d=" M 113.2 85.2 C 116.9 88.0 109.6 88.1 113.2 85.2 Z"
     id="path122" />
  <path
     fill="#afd9e1"
     stroke="#afd9e1"
     stroke-width="0.09375"
     d=" M 87.6 86.9 C 90.7 84.2 100.0 87.1 95.7 91.7 C 93.2 95.9 87.1 90.5 85.8 96.0 C 81.7 95.6 87.4 89.7 87.6 86.9 Z"
     id="path124" />
  <path
     fill="#a2bdbf"
     stroke="#a2bdbf"
     stroke-width="0.09375"
     d=" M 237.6 88.5 C 233.7 82.9 242.4 89.9 245.3 86.8 C 243.0 88.1 240.7 90.3 243.3 92.7 C 249.5 94.0 255.7 95.1 262.0 95.1 C 260.7 92.7 254.8 88.0 263.8 91.1 C 268.4 92.5 266.4 93.3 262.6 92.4 C 263.7 94.6 265.9 96.0 268.2 96.5 C 268.6 96.6 269.4 96.8 269.8 96.9 C 271.5 97.4 273.3 97.9 275.2 98.2 C 278.8 99.5 282.8 95.2 279.9 101.0 C 268.2 99.9 256.7 97.3 245.3 94.7 C 242.7 93.9 240.0 93.1 237.3 93.2 C 233.9 93.0 229.5 93.2 227.6 89.8 C 228.7 89.3 229.9 89.7 231.0 90.0 C 232.4 91.1 238.4 91.4 237.6 88.5 Z"
     id="path126" />
  <path
     fill="#14627b"
     stroke="#14627b"
     stroke-width="0.09375"
     d=" M 245.3 86.8 C 253.3 87.7 261.2 89.8 269.2 90.9 C 268.9 92.8 268.6 94.6 268.2 96.5 C 265.9 96.0 263.7 94.6 262.6 92.4 C 266.4 93.3 268.4 92.5 263.8 91.1 C 254.8 88.0 260.7 92.7 262.0 95.1 C 255.7 95.1 249.5 94.0 243.3 92.7 C 240.7 90.3 243.0 88.1 245.3 86.8 Z"
     id="path128" />
  <path
     fill="#22465b"
     stroke="#22465b"
     stroke-width="0.09375"
     d=" M 290.3 87.5 C 290.5 87.4 290.9 87.3 291.1 87.2 L 290.9 87.7 L 290.3 87.5 Z"
     id="path130" />
  <path
     fill="#1d5e77"
     stroke="#1d5e77"
     stroke-width="0.09375"
     d=" M 89.3 88.1 C 96.0 82.8 95.0 94.3 90.6 91.5 C 87.9 91.5 87.9 90.1 89.3 88.1 Z"
     id="path132" />
  <path
     fill="#b0dbe4"
     stroke="#b0dbe4"
     stroke-width="0.09375"
     d=" M 95.0 97.9 C 96.3 93.1 98.0 87.0 104.2 87.6 L 105.1 87.8 C 109.7 92.4 103.6 89.9 100.4 90.3 C 99.7 92.5 95.5 96.4 98.4 97.7 C 110.9 103.1 93.1 88.3 106.2 94.1 C 105.7 100.2 99.2 101.4 95.0 97.9 Z"
     id="path134" />
  <path
     fill="#e0eaea"
     stroke="#e0eaea"
     stroke-width="0.09375"
     d=" M 271.3 88.9 C 275.6 88.9 280.0 88.6 284.3 88.4 C 283.7 90.6 281.0 90.6 279.2 91.3 C 276.5 91.0 273.7 90.5 271.0 89.9 L 271.3 88.9 Z"
     id="path136" />
  <path
     fill="#16596e"
     stroke="#16596e"
     stroke-width="0.09375"
     d=" M 287.4 88.3 C 288.1 88.1 289.5 87.7 290.3 87.5 L 290.9 87.7 C 289.7 91.8 288.7 96.4 285.3 99.3 C 279.8 101.8 281.5 94.5 284.0 92.0 C 285.2 90.9 286.4 89.7 287.4 88.3 Z"
     id="path138" />
  <path
     fill="#455858"
     stroke="#455858"
     stroke-width="0.09375"
     d=" M 290.9 87.7 C 296.3 92.8 293.2 101.4 287.4 105.1 C 286.4 104.0 285.4 102.9 284.2 102.0 C 270.5 104.0 257.0 98.6 243.8 95.9 C 244.2 95.6 244.9 95.0 245.3 94.7 C 256.7 97.3 268.2 99.9 279.9 101.0 C 281.9 101.2 284.0 101.0 285.3 99.3 C 288.7 96.4 289.7 91.8 290.9 87.7 Z"
     id="path140" />
  <path
     fill="#698b9a"
     stroke="#698b9a"
     stroke-width="0.09375"
     d=" M 115.0 95.2 C 111.8 93.7 112.0 91.4 114.9 89.6 C 115.4 91.5 115.2 93.3 115.0 95.2 Z"
     id="path142" />
  <path
     fill="#709ea9"
     stroke="#709ea9"
     stroke-width="0.09375"
     d=" M 269.2 90.9 C 271.0 90.8 272.0 92.0 272.6 93.7 C 274.7 94.5 276.8 92.5 278.8 92.0 C 280.5 92.0 282.2 92.0 284.0 92.0 C 281.5 94.5 279.8 101.8 285.3 99.3 C 284.0 101.0 281.9 101.2 279.9 101.0 C 282.8 95.2 278.8 99.5 275.2 98.2 C 274.7 95.6 272.9 95.2 269.8 96.9 C 269.4 96.8 268.6 96.6 268.2 96.5 C 268.6 94.6 268.9 92.8 269.2 90.9 Z"
     id="path144" />
  <path
     fill="#808e85"
     stroke="#808e85"
     stroke-width="0.09375"
     d=" M 221.9 92.0 C 224.4 91.6 226.8 92.7 228.8 94.1 C 240.3 98.9 253.3 98.8 265.5 102.4 C 269.0 103.1 284.0 105.0 273.8 106.7 C 257.7 105.8 244.7 98.5 229.2 98.9 C 226.5 97.1 222.3 95.7 221.9 92.0 Z"
     id="path146" />
  <path
     fill="#7a8b81"
     stroke="#7a8b81"
     stroke-width="0.09375"
     d=" M 237.3 93.2 C 240.0 93.1 242.7 93.9 245.3 94.7 C 244.9 95.0 244.2 95.6 243.8 95.9 C 240.1 95.4 236.4 95.1 232.8 94.4 C 234.3 94.1 235.8 93.7 237.3 93.2 Z"
     id="path148" />
  <path
     fill="#365f77"
     stroke="#365f77"
     stroke-width="0.09375"
     d=" M 133.6 101.5 C 134.5 99.4 134.8 92.9 138.2 95.0 C 134.8 103.2 131.8 111.6 128.4 119.8 C 126.8 119.6 123.6 120.1 125.5 117.7 C 129.1 116.3 132.4 107.8 127.0 107.6 C 127.8 104.6 129.3 100.5 133.6 101.5 Z"
     id="path150" />
  <path
     fill="#cedad5"
     stroke="#cedad5"
     stroke-width="0.09375"
     d=" M 228.8 94.1 C 230.1 94.2 231.5 94.3 232.8 94.4 C 236.4 95.1 240.1 95.4 243.8 95.9 C 257.0 98.6 270.5 104.0 284.2 102.0 C 283.7 103.0 283.3 103.9 282.9 104.9 L 282.3 105.2 C 280.7 105.8 279.2 106.6 277.7 107.4 C 276.4 107.1 275.1 106.9 273.8 106.7 C 284.0 105.0 269.0 103.1 265.5 102.4 C 253.3 98.8 240.3 98.9 228.8 94.1 Z"
     id="path152" />
  <path
     fill="#b1d8e6"
     stroke="#b1d8e6"
     stroke-width="0.09375"
     d=" M 105.7 100.8 C 106.7 99.1 107.7 97.4 108.7 95.7 C 109.0 98.5 109.8 102.3 105.7 100.8 Z"
     id="path154" />
  <path
     fill="#1f7381"
     stroke="#1f7381"
     stroke-width="0.09375"
     d=" M 269.8 96.9 C 272.9 95.2 274.7 95.6 275.2 98.2 C 273.3 97.9 271.5 97.4 269.8 96.9 Z"
     id="path156" />
  <path
     fill="#aad2e2"
     stroke="#aad2e2"
     stroke-width="0.09375"
     d=" M 327.0 97.9 C 329.4 98.0 331.8 98.7 334.1 99.3 C 333.0 99.7 332.0 100.0 330.9 100.3 C 329.2 99.9 326.2 100.6 327.0 97.9 Z"
     id="path158" />
  <path
     fill="#b2dde5"
     stroke="#b2dde5"
     stroke-width="0.09375"
     d=" M 82.7 99.1 C 85.5 99.7 88.7 99.4 91.1 101.1 C 90.7 105.8 86.0 108.3 81.6 107.6 C 80.2 108.2 77.9 111.7 78.0 108.4 C 79.8 105.4 81.2 102.2 82.7 99.1 Z"
     id="path160" />
  <path
     fill="#26637f"
     stroke="#26637f"
     stroke-width="0.09375"
     d=" M 83.2 101.1 C 84.8 101.5 89.9 101.1 88.4 103.4 C 87.4 107.7 79.2 105.1 83.2 101.1 Z"
     id="path162" />
  <path
     fill="#b1dae2"
     stroke="#b1dae2"
     stroke-width="0.09375"
     d=" M 93.2 102.1 C 95.7 102.8 102.8 99.9 101.0 105.1 C 95.6 100.8 92.3 105.6 91.2 110.9 C 94.7 113.6 99.9 111.0 94.8 108.0 C 103.4 104.4 99.3 111.8 96.8 113.9 C 94.1 114.4 91.3 113.2 89.0 111.8 C 90.0 108.5 91.2 105.0 93.2 102.1 Z"
     id="path164" />
  <path
     fill="#8d9d96"
     stroke="#8d9d96"
     stroke-width="0.09375"
     d=" M 284.2 102.0 C 285.4 102.9 286.4 104.0 287.4 105.1 C 286.2 106.9 284.4 105.4 282.9 104.9 C 283.3 103.9 283.7 103.0 284.2 102.0 Z"
     id="path166" />
  <path
     fill="#b0d1dd"
     stroke="#b0d1dd"
     stroke-width="0.09375"
     d=" M 324.6 106.0 C 327.4 103.9 330.9 103.1 334.0 101.7 C 335.9 102.5 334.0 103.0 333.1 103.6 C 328.4 104.9 328.9 106.3 333.4 107.3 L 333.2 108.2 C 330.3 107.8 326.8 108.1 324.6 106.0 Z"
     id="path168" />
  <path
     fill="#b0d4dc"
     stroke="#b0d4dc"
     stroke-width="0.09375"
     d=" M 103.9 115.9 C 96.0 114.6 103.7 100.3 110.1 104.0 C 110.8 107.6 105.4 104.7 104.6 107.7 C 103.1 109.8 101.3 115.1 105.7 113.9 C 105.2 114.7 104.6 115.3 103.9 115.9 Z"
     id="path170" />
  <path
     fill="#4e95a5"
     stroke="#4e95a5"
     stroke-width="0.09375"
     d=" M 134.0 111.2 C 134.7 108.6 135.3 106.0 136.8 103.8 L 137.8 103.8 C 137.1 105.8 136.4 107.7 135.8 109.7 C 135.3 110.1 134.5 110.8 134.0 111.2 Z"
     id="path172" />
  <path
     fill="#b1dde4"
     stroke="#b1dde4"
     stroke-width="0.09375"
     d=" M 137.8 103.8 C 144.6 102.1 141.2 107.5 144.1 110.9 C 141.3 110.8 138.6 110.2 135.8 109.7 C 136.4 107.7 137.1 105.8 137.8 103.8 Z"
     id="path174" />
  <path
     fill="#264b64"
     stroke="#264b64"
     stroke-width="0.09375"
     d=" M 333.4 107.3 C 328.9 106.3 328.4 104.9 333.1 103.6 C 333.7 104.7 334.1 106.1 333.4 107.3 Z"
     id="path176" />
  <path
     fill="#3d798e"
     stroke="#3d798e"
     stroke-width="0.09375"
     d=" M 139.2 105.2 C 142.4 103.9 140.3 107.4 139.8 108.9 C 137.1 110.2 137.5 106.0 139.2 105.2 Z"
     id="path178" />
  <path
     fill="#6e8d83"
     stroke="#6e8d83"
     stroke-width="0.09375"
     d=" M 277.7 107.4 C 279.2 106.6 280.7 105.8 282.3 105.2 C 283.8 108.0 279.4 108.0 277.7 107.4 Z"
     id="path180" />
  <path
     fill="#044a78"
     stroke="#044a78"
     stroke-width="0.09375"
     d=" M 151.9 116.5 C 157.2 116.6 159.3 111.0 162.8 108.0 C 163.7 109.6 164.3 111.4 165.2 113.0 C 168.3 112.6 169.5 108.3 173.0 108.9 C 174.3 113.0 172.4 115.6 169.2 117.4 C 170.8 120.3 173.3 122.6 176.3 124.1 C 174.1 125.6 171.4 126.6 169.8 128.9 C 176.2 132.2 182.4 124.8 189.0 124.9 C 192.8 126.5 196.2 119.8 199.4 123.9 C 196.3 125.6 192.5 127.0 194.9 131.9 C 200.7 128.9 205.5 123.7 213.0 125.4 C 218.1 128.2 224.2 130.1 229.8 127.4 C 231.3 128.7 232.0 131.7 234.3 131.4 C 240.9 131.4 247.2 133.0 253.7 133.8 C 255.0 131.8 256.2 129.6 257.4 127.4 C 260.5 128.2 260.7 132.7 263.9 133.1 C 264.5 128.9 261.9 121.6 269.7 125.2 C 273.4 129.6 268.7 137.5 275.2 140.6 C 283.9 136.2 291.8 143.8 297.0 150.2 C 295.9 153.3 294.1 150.5 293.0 148.9 C 292.1 150.8 291.4 152.8 290.9 154.9 C 293.9 156.2 297.5 156.0 299.9 158.3 C 303.9 168.8 284.8 166.3 289.7 157.0 C 278.3 158.4 289.7 176.4 278.1 175.0 C 278.5 170.7 278.6 166.3 279.8 162.3 C 276.2 155.0 269.2 164.2 264.0 160.6 C 260.0 161.7 256.3 159.9 254.5 156.3 C 246.7 160.8 241.3 170.1 249.5 177.2 C 246.8 182.2 246.5 188.5 242.7 192.8 C 242.1 191.6 231.8 193.6 235.1 190.6 C 243.7 195.4 243.2 184.1 245.4 178.4 C 245.9 176.7 246.8 174.0 244.3 173.8 C 242.8 170.3 242.7 166.1 239.5 163.6 C 236.8 162.7 233.7 162.0 233.1 158.8 L 232.8 158.0 C 232.9 154.7 232.8 151.4 233.1 148.0 C 242.9 149.5 252.9 150.3 262.2 153.6 C 259.9 153.8 257.0 153.8 258.0 157.0 C 263.2 159.8 263.4 151.0 268.6 154.5 C 274.7 155.5 282.6 160.7 287.3 154.2 C 290.0 151.2 289.5 146.1 285.6 144.3 C 262.3 141.8 239.3 136.7 216.4 131.5 C 211.1 129.1 202.5 128.6 200.3 135.3 C 198.2 141.6 207.4 142.4 208.0 148.1 C 208.5 151.3 209.0 154.6 209.4 157.8 C 209.1 158.1 208.5 158.6 208.2 158.9 C 207.4 157.6 205.4 157.6 204.7 159.0 C 203.9 157.9 203.1 156.9 202.2 155.9 C 201.0 153.7 198.3 154.1 196.1 153.8 C 195.3 148.0 195.5 142.0 193.7 136.3 C 190.9 133.2 188.5 136.8 189.0 139.9 C 189.1 144.7 189.9 149.4 190.7 154.1 C 186.3 159.0 182.9 150.3 177.7 150.9 C 177.5 150.4 177.1 149.6 176.9 149.1 C 176.2 143.4 176.7 137.2 173.8 132.0 C 171.2 131.1 169.4 133.4 169.9 135.9 C 170.0 141.0 171.2 146.0 171.9 151.0 C 167.8 155.7 164.9 145.9 159.1 147.8 C 158.8 141.3 157.4 135.0 156.2 128.6 C 152.8 126.0 148.9 132.2 151.6 135.2 C 152.3 139.1 153.0 143.1 153.6 147.0 C 151.7 148.8 148.9 150.2 149.1 153.2 C 148.2 153.5 147.3 154.1 146.6 154.9 C 142.0 154.9 141.0 159.9 141.3 163.7 C 142.1 167.3 146.5 167.1 149.2 168.8 L 148.9 169.7 C 144.4 168.2 133.2 174.1 139.1 178.8 C 115.7 173.9 92.3 169.4 68.9 164.3 C 64.3 162.2 54.1 165.2 54.8 158.0 C 58.5 149.7 61.4 140.9 65.9 133.0 C 68.8 129.5 71.5 125.5 71.3 120.7 C 71.5 121.1 71.8 121.9 71.9 122.3 C 72.8 126.2 77.9 125.8 80.9 125.1 C 81.9 125.9 84.1 128.3 84.8 126.2 C 85.6 124.0 86.3 121.8 87.7 119.9 C 89.4 122.5 88.7 127.2 91.9 128.2 C 92.5 128.3 93.6 128.7 94.1 128.8 C 97.6 129.7 104.7 131.6 104.2 125.8 C 104.7 127.0 105.3 128.3 106.0 129.5 C 104.5 131.9 103.5 134.5 107.2 135.2 C 110.5 137.3 114.3 140.9 118.1 137.4 C 120.9 137.8 123.7 138.1 124.8 134.9 C 129.6 136.6 131.8 131.4 127.0 129.6 C 128.9 123.3 131.8 117.3 134.0 111.2 C 134.5 110.8 135.3 110.1 135.8 109.7 C 138.6 110.2 141.3 110.8 144.1 110.9 C 147.3 111.4 147.7 115.5 151.9 116.5 Z"
     id="path182" />
  <path
     fill="#a8cbda"
     stroke="#a8cbda"
     stroke-width="0.09375"
     d=" M 324.1 110.8 C 322.7 106.3 329.9 110.6 332.3 110.3 C 331.2 110.7 330.1 111.0 328.9 111.3 C 327.3 111.1 325.7 111.0 324.1 110.8 Z"
     id="path184" />
  <path
     fill="#24597a"
     stroke="#24597a"
     stroke-width="0.09375"
     d=" M 265.0 111.0 C 267.3 110.8 271.5 110.4 271.0 114.0 C 268.9 114.0 264.6 114.1 265.0 111.0 Z"
     id="path186" />
  <path
     fill="#afd8e1"
     stroke="#afd8e1"
     stroke-width="0.09375"
     d=" M 76.2 114.2 C 78.8 112.6 86.5 112.6 83.1 116.8 C 77.8 112.0 75.3 118.3 74.2 122.9 C 76.2 123.8 79.2 125.0 80.1 122.2 C 78.7 120.2 74.1 116.9 83.2 120.1 C 82.6 121.8 81.8 123.5 80.9 125.1 C 77.9 125.8 72.8 126.2 71.9 122.3 C 73.3 119.6 74.6 116.8 76.2 114.2 Z"
     id="path188" />
  <path
     fill="#20638a"
     stroke="#20638a"
     stroke-width="0.09375"
     d=" M 275.2 113.1 C 280.4 110.2 283.7 115.1 280.9 118.8 C 277.9 116.6 271.6 118.0 275.2 113.1 Z"
     id="path190" />
  <path
     fill="#b4d0dc"
     stroke="#b4d0dc"
     stroke-width="0.09375"
     d=" M 321.7 117.0 C 324.5 115.0 327.9 114.1 331.1 112.7 C 331.3 113.0 331.7 113.7 331.9 114.0 C 329.9 114.8 327.9 115.7 326.0 116.6 C 327.4 117.2 333.5 118.7 329.2 119.1 C 326.7 118.7 323.5 118.9 321.7 117.0 Z"
     id="path192" />
  <path
     fill="#545051"
     stroke="#545051"
     stroke-width="0.09375"
     d=" M 326.0 116.6 C 327.9 115.7 329.9 114.8 331.9 114.0 C 332.0 114.5 332.2 115.6 332.4 116.1 C 332.1 119.3 330.2 122.6 331.9 125.6 C 327.4 126.8 332.5 129.9 334.1 126.8 C 334.6 127.0 335.6 127.5 336.1 127.8 C 336.8 129.3 337.6 130.7 338.5 132.2 C 338.7 132.6 339.0 133.5 339.1 133.9 C 337.6 133.6 335.6 132.7 335.5 135.1 C 335.2 135.0 334.5 134.9 334.2 134.8 C 332.8 134.3 331.4 132.6 329.9 133.7 L 329.2 133.9 C 328.9 131.4 326.6 130.9 324.5 130.7 L 323.8 130.4 C 325.3 130.2 326.8 129.9 328.3 129.4 C 328.5 127.9 329.1 124.9 329.3 123.3 C 329.4 122.6 329.4 121.9 329.4 121.2 C 329.3 120.5 329.3 119.8 329.2 119.1 C 333.5 118.7 327.4 117.2 326.0 116.6 Z"
     id="path194" />
  <path
     fill="#beb38d"
     stroke="#beb38d"
     stroke-width="0.09375"
     d=" M 461.0 117.8 C 460.8 116.5 460.9 115.2 461.5 114.0 C 462.6 114.8 462.8 118.0 461.0 117.8 Z"
     id="path196" />
  <path
     fill="#b5dce4"
     stroke="#b5dce4"
     stroke-width="0.09375"
     d=" M 84.8 126.2 C 81.4 124.7 85.9 118.0 88.0 115.6 C 90.0 118.0 90.5 121.2 91.4 124.1 C 93.1 121.9 92.7 117.1 96.1 116.9 C 95.4 120.9 93.5 124.5 91.9 128.2 C 88.7 127.2 89.4 122.5 87.7 119.9 C 86.3 121.8 85.6 124.0 84.8 126.2 Z"
     id="path198" />
  <path
     fill="#295676"
     stroke="#295676"
     stroke-width="0.09375"
     d=" M 287.0 116.0 C 289.3 115.8 293.5 115.4 293.0 119.0 C 290.9 119.0 286.6 119.1 287.0 116.0 Z"
     id="path200" />
  <path
     fill="#b4dae3"
     stroke="#b4dae3"
     stroke-width="0.09375"
     d=" M 94.1 128.8 C 98.1 125.1 96.3 114.6 103.9 118.1 L 104.3 118.9 C 99.7 119.4 98.2 124.0 97.9 128.0 C 100.7 128.7 102.8 127.2 104.2 124.9 L 104.2 125.8 C 104.7 131.6 97.6 129.7 94.1 128.8 Z"
     id="path202" />
  <path
     fill="#1c607a"
     stroke="#1c607a"
     stroke-width="0.09375"
     d=" M 104.3 118.9 C 106.3 120.7 105.2 123.0 104.2 124.9 C 102.8 127.2 100.7 128.7 97.9 128.0 C 98.2 124.0 99.7 119.4 104.3 118.9 Z"
     id="path204" />
  <path
     fill="#3a6a7c"
     stroke="#3a6a7c"
     stroke-width="0.09375"
     d=" M 285.9 120.0 C 288.0 120.4 292.9 118.5 292.0 122.1 C 290.0 121.6 287.0 121.8 285.9 120.0 Z"
     id="path206" />
  <path
     fill="#aecfdc"
     stroke="#aecfdc"
     stroke-width="0.09375"
     d=" M 323.8 130.4 C 314.2 129.0 322.1 115.8 329.4 121.2 C 329.4 121.9 329.4 122.6 329.3 123.3 C 326.9 123.0 322.6 120.3 322.3 124.3 C 320.3 128.6 325.5 128.6 328.3 129.4 C 326.8 129.9 325.3 130.2 323.8 130.4 Z"
     id="path208" />
  <path
     fill="#5c7d6a"
     stroke="#5c7d6a"
     stroke-width="0.09375"
     d=" M 65.9 133.0 C 67.0 128.8 68.7 124.1 71.3 120.7 C 71.5 125.5 68.8 129.5 65.9 133.0 Z"
     id="path210" />
  <path
     fill="#2a5c7f"
     stroke="#2a5c7f"
     stroke-width="0.09375"
     d=" M 123.2 132.3 C 123.6 128.2 122.6 120.9 128.0 120.6 C 126.4 124.5 124.9 128.4 123.2 132.3 Z"
     id="path212" />
  <path
     fill="#1d2c37"
     stroke="#1d2c37"
     stroke-width="0.09375"
     d=" M 246.9 121.0 C 248.9 120.9 254.0 120.2 251.3 123.3 C 249.7 125.1 246.4 123.5 246.9 121.0 Z"
     id="path214" />
  <path
     fill="#0f4164"
     stroke="#0f4164"
     stroke-width="0.09375"
     d=" M 322.3 124.3 C 322.6 120.3 326.9 123.0 329.3 123.3 C 329.1 124.9 328.5 127.9 328.3 129.4 C 325.5 128.6 320.3 128.6 322.3 124.3 Z"
     id="path216" />
  <path
     fill="#b3a6a9"
     stroke="#b3a6a9"
     stroke-width="0.09375"
     d=" M 334.1 126.8 C 332.5 129.9 327.4 126.8 331.9 125.6 C 332.4 125.9 333.6 126.5 334.1 126.8 Z"
     id="path218" />
  <path
     fill="#434e50"
     stroke="#434e50"
     stroke-width="0.09375"
     d=" M 151.6 135.2 C 148.9 132.2 152.8 126.0 156.2 128.6 C 157.4 135.0 158.8 141.3 159.1 147.8 C 160.2 151.7 158.4 158.3 157.9 152.1 C 158.0 145.7 157.0 139.3 155.8 133.0 C 154.0 133.0 151.4 132.5 151.6 135.2 Z"
     id="path220" />
  <path
     fill="#e4dde9"
     stroke="#e4dde9"
     stroke-width="0.09375"
     d=" M 336.1 127.8 C 339.3 128.2 342.6 128.8 345.9 129.1 C 351.3 130.1 356.6 131.0 361.9 132.2 C 362.9 133.5 364.7 133.4 366.1 132.9 C 370.7 133.9 375.3 135.1 380.1 135.1 C 396.4 139.3 413.2 141.5 429.7 145.3 C 437.8 147.7 446.9 147.1 454.1 152.0 L 453.8 152.9 C 453.2 153.0 451.9 153.3 451.3 153.4 C 446.7 151.9 441.7 149.5 436.9 150.9 C 407.8 142.1 377.2 138.6 347.6 131.5 C 345.3 132.5 339.0 127.5 338.5 132.2 C 337.6 130.7 336.8 129.3 336.1 127.8 Z"
     id="path222" />
  <path
     fill="#422c54"
     stroke="#422c54"
     stroke-width="0.09375"
     d=" M 345.9 128.2 C 354.3 128.6 362.4 130.9 370.6 132.1 C 373.8 132.9 377.1 133.6 380.1 135.1 C 375.3 135.1 370.7 133.9 366.1 132.9 C 365.1 131.5 363.3 131.6 361.9 132.2 C 356.6 131.0 351.3 130.1 345.9 129.1 L 345.9 128.2 Z"
     id="path224" />
  <path
     fill="#a0c6cf"
     stroke="#a0c6cf"
     stroke-width="0.09375"
     d=" M 107.2 135.2 C 103.5 134.5 104.5 131.9 106.0 129.5 C 107.4 130.8 109.7 133.9 107.2 135.2 Z"
     id="path226" />
  <path
     fill="#30514e"
     stroke="#30514e"
     stroke-width="0.09375"
     d=" M 127.0 129.6 C 131.8 131.4 129.6 136.6 124.8 134.9 C 125.3 133.1 126.1 131.3 127.0 129.6 Z"
     id="path228" />
  <path
     fill="#05345b"
     stroke="#05345b"
     stroke-width="0.09375"
     d=" M 200.3 135.3 C 202.5 128.6 211.1 129.1 216.4 131.5 C 239.3 136.7 262.3 141.8 285.6 144.3 C 289.5 146.1 290.0 151.2 287.3 154.2 C 282.6 160.7 274.7 155.5 268.6 154.5 C 263.4 151.0 263.2 159.8 258.0 157.0 C 257.0 153.8 259.9 153.8 262.2 153.6 C 252.9 150.3 242.9 149.5 233.1 148.0 C 232.8 151.4 232.9 154.7 232.8 158.0 L 232.1 158.1 C 232.1 156.1 232.0 154.2 231.9 152.2 C 232.2 149.2 230.9 146.4 230.9 143.5 C 246.7 145.6 262.2 149.8 278.0 152.0 C 277.9 150.4 278.7 148.0 276.7 147.3 C 256.3 143.6 235.9 139.7 215.6 135.3 C 212.4 134.2 209.2 137.2 207.9 139.9 C 207.9 141.2 207.9 142.5 207.9 143.9 C 207.9 145.3 208.0 146.7 208.0 148.1 C 207.4 142.4 198.2 141.6 200.3 135.3 Z"
     id="path230" />
  <path
     fill="#49385f"
     stroke="#49385f"
     stroke-width="0.09375"
     d=" M 338.5 132.2 C 339.0 127.5 345.3 132.5 347.6 131.5 C 377.2 138.6 407.8 142.1 436.9 150.9 C 404.0 145.5 371.4 137.6 338.5 132.2 Z"
     id="path232" />
  <path
     fill="#143046"
     stroke="#143046"
     stroke-width="0.09375"
     d=" M 324.5 130.7 C 326.6 130.9 328.9 131.4 329.2 133.9 C 328.8 139.4 328.1 144.8 328.0 150.2 C 327.0 154.1 325.8 157.9 325.2 161.8 C 325.5 165.8 321.8 171.5 325.8 174.2 C 333.2 177.8 342.0 176.8 349.9 178.8 C 352.6 179.7 355.5 179.4 358.4 179.4 C 357.6 181.1 355.6 181.0 354.0 181.2 C 352.4 181.0 350.8 180.9 349.3 180.7 C 340.8 177.6 325.9 182.4 322.1 171.6 C 321.5 170.3 320.7 169.1 320.0 167.9 C 319.8 167.4 319.3 166.5 319.0 166.0 C 319.8 165.9 321.4 165.8 322.2 165.7 C 325.8 159.8 321.4 159.2 321.0 164.1 C 315.7 165.5 317.0 157.8 321.1 158.0 C 325.2 158.0 320.9 155.8 319.2 155.8 C 320.3 151.3 322.6 146.6 321.3 141.9 C 324.9 142.2 327.6 141.9 323.0 140.1 C 324.1 137.1 325.2 133.9 324.5 130.7 Z"
     id="path234" />
  <path
     fill="#3a4346"
     stroke="#3a4346"
     stroke-width="0.09375"
     d=" M 169.9 135.9 C 169.4 133.4 171.2 131.1 173.8 132.0 C 176.7 137.2 176.2 143.4 176.9 149.1 C 174.5 144.5 176.7 136.8 169.9 135.9 Z"
     id="path236" />
  <path
     fill="#aecfdb"
     stroke="#aecfdb"
     stroke-width="0.09375"
     d=" M 321.3 141.9 C 314.8 141.7 315.1 132.5 320.8 131.8 C 318.7 135.6 316.5 140.7 323.0 140.1 C 327.6 141.9 324.9 142.2 321.3 141.9 Z"
     id="path238" />
  <path
     fill="#c2bebc"
     stroke="#c2bebc"
     stroke-width="0.09375"
     d=" M 338.5 132.2 C 371.4 137.6 404.0 145.5 436.9 150.9 C 441.6 152.0 446.4 154.8 451.3 153.4 C 451.9 153.3 453.2 153.0 453.8 152.9 C 455.8 155.8 453.1 160.8 451.9 163.3 C 449.8 163.0 448.2 161.7 446.8 160.3 C 449.4 160.1 452.9 158.8 449.2 156.8 C 412.6 149.1 375.7 141.9 339.1 133.9 C 339.0 133.5 338.7 132.6 338.5 132.2 Z"
     id="path240" />
  <path
     fill="#9582ae"
     stroke="#9582ae"
     stroke-width="0.09375"
     d=" M 361.9 132.2 C 363.3 131.6 365.1 131.5 366.1 132.9 C 364.7 133.4 362.9 133.5 361.9 132.2 Z"
     id="path242" />
  <path
     fill="#dacfc3"
     stroke="#dacfc3"
     stroke-width="0.09375"
     d=" M 151.6 135.2 C 151.4 132.5 154.0 133.0 155.8 133.0 C 157.0 139.3 158.0 145.7 157.9 152.1 C 155.3 151.4 153.5 150.0 153.6 147.0 C 153.0 143.1 152.3 139.1 151.6 135.2 Z"
     id="path244" />
  <path
     fill="#6b787f"
     stroke="#6b787f"
     stroke-width="0.09375"
     d=" M 208.2 133.0 C 213.7 133.7 204.5 137.0 208.2 133.0 Z"
     id="path246" />
  <path
     fill="#bcbcb9"
     stroke="#bcbcb9"
     stroke-width="0.09375"
     d=" M 329.9 133.7 C 331.4 132.6 332.8 134.3 334.2 134.8 C 334.8 137.9 335.6 146.7 330.0 144.1 C 329.8 140.6 329.9 137.1 329.9 133.7 Z"
     id="path248" />
  <path
     fill="#322e36"
     stroke="#322e36"
     stroke-width="0.09375"
     d=" M 335.5 135.1 C 335.6 132.7 337.6 133.6 339.1 133.9 C 375.7 141.9 412.6 149.1 449.2 156.8 C 452.9 158.8 449.4 160.1 446.8 160.3 C 429.4 156.2 411.7 153.1 394.2 149.6 C 375.5 145.8 356.8 142.2 338.0 138.8 C 336.7 137.9 336.0 136.5 335.5 135.1 Z"
     id="path250" />
  <path
     fill="#cfc090"
     stroke="#cfc090"
     stroke-width="0.09375"
     d=" M 458.0 136.9 C 457.8 135.6 457.9 134.2 458.5 133.0 C 459.6 133.8 459.8 137.0 458.0 136.9 Z"
     id="path252" />
  <path
     fill="#496d7a"
     stroke="#496d7a"
     stroke-width="0.09375"
     d=" M 329.2 133.9 L 329.9 133.7 C 329.9 137.1 329.8 140.6 330.0 144.1 C 329.5 146.5 331.5 147.4 333.4 148.1 C 332.1 149.7 330.1 151.1 328.0 150.2 C 328.1 144.8 328.8 139.4 329.2 133.9 Z"
     id="path254" />
  <path
     fill="#2f373c"
     stroke="#2f373c"
     stroke-width="0.09375"
     d=" M 189.0 139.9 C 188.5 136.8 190.9 133.2 193.7 136.3 C 195.5 142.0 195.3 148.0 196.1 153.8 C 196.7 156.0 200.3 155.3 202.2 155.9 C 203.1 156.9 203.9 157.9 204.7 159.0 C 205.4 160.6 207.4 160.1 208.2 158.9 C 208.5 158.6 209.1 158.1 209.4 157.8 C 208.4 162.2 217.8 166.3 213.9 158.0 C 212.8 152.9 215.9 142.7 207.9 143.9 C 207.9 142.5 207.9 141.2 207.9 139.9 C 217.2 137.0 212.5 153.5 215.3 158.6 C 219.3 158.0 221.5 160.9 224.1 163.0 C 227.8 163.6 227.0 158.5 227.6 155.9 C 223.8 159.5 233.4 171.0 232.8 163.0 C 233.1 161.6 233.2 160.2 233.1 158.8 C 233.7 162.0 236.8 162.7 239.5 163.6 C 242.7 166.1 242.8 170.3 244.3 173.8 C 244.2 174.3 244.0 175.4 243.9 176.0 C 240.4 176.8 241.5 175.0 242.9 173.0 C 239.4 169.7 233.9 173.4 241.0 173.1 C 238.7 174.7 237.0 178.4 233.7 177.5 C 234.8 178.9 237.5 179.9 236.0 181.9 C 231.3 178.3 223.5 182.0 219.9 176.6 C 213.0 181.0 206.6 171.2 200.1 174.7 C 194.4 173.6 188.3 172.9 184.0 169.0 C 177.9 173.4 169.6 168.3 165.1 164.4 C 158.0 169.1 152.0 163.0 145.1 162.7 C 145.0 160.6 145.3 158.3 147.0 156.8 C 148.9 156.7 149.4 154.8 149.1 153.2 C 148.9 150.2 151.7 148.8 153.6 147.0 C 153.5 150.0 155.3 151.4 157.9 152.1 C 158.4 158.3 160.2 151.7 159.1 147.8 C 164.9 145.9 167.8 155.7 171.9 151.0 C 172.3 155.8 178.3 156.3 177.7 150.9 C 182.9 150.3 186.3 159.0 190.7 154.1 C 188.9 159.4 199.1 160.0 195.0 153.0 C 193.9 148.4 195.7 139.1 189.0 139.9 Z"
     id="path256" />
  <path
     fill="#044570"
     stroke="#044570"
     stroke-width="0.09375"
     d=" M 207.9 139.9 C 209.2 137.2 212.4 134.2 215.6 135.3 C 235.9 139.7 256.3 143.6 276.7 147.3 C 278.7 148.0 277.9 150.4 278.0 152.0 C 262.2 149.8 246.7 145.6 230.9 143.5 C 228.6 140.1 225.1 146.7 226.5 149.2 C 226.9 151.4 227.2 153.6 227.6 155.9 C 227.0 158.5 227.8 163.6 224.1 163.0 C 221.5 160.9 219.3 158.0 215.3 158.6 C 212.5 153.5 217.2 137.0 207.9 139.9 Z"
     id="path258" />
  <path
     fill="#8b9598"
     stroke="#8b9598"
     stroke-width="0.09375"
     d=" M 334.2 134.8 C 334.5 134.9 335.2 135.0 335.5 135.1 C 336.0 136.5 336.7 137.9 338.0 138.8 C 336.2 138.8 335.9 140.4 335.6 141.8 C 334.9 144.0 334.6 146.3 333.4 148.1 C 331.5 147.4 329.5 146.5 330.0 144.1 C 335.6 146.7 334.8 137.9 334.2 134.8 Z"
     id="path260" />
  <path
     fill="#4e396c"
     stroke="#4e396c"
     stroke-width="0.09375"
     d=" M 380.1 135.1 C 380.7 135.0 382.1 134.8 382.8 134.7 C 406.9 140.6 432.7 142.4 455.8 151.0 C 455.4 151.3 454.6 151.8 454.1 152.0 C 446.9 147.1 437.8 147.7 429.7 145.3 C 413.2 141.5 396.4 139.3 380.1 135.1 Z"
     id="path262" />
  <path
     fill="#d5cbc0"
     stroke="#d5cbc0"
     stroke-width="0.09375"
     d=" M 169.9 135.9 C 176.7 136.8 174.5 144.5 176.9 149.1 C 177.1 149.6 177.5 150.4 177.7 150.9 C 178.3 156.3 172.3 155.8 171.9 151.0 C 171.2 146.0 170.0 141.0 169.9 135.9 Z"
     id="path264" />
  <path
     fill="#152b35"
     stroke="#152b35"
     stroke-width="0.09375"
     d=" M 74.2 139.1 C 78.5 136.8 79.8 143.4 75.0 142.0 C 72.4 143.0 72.5 140.1 74.2 139.1 Z"
     id="path266" />
  <path
     fill="#bebdb7"
     stroke="#bebdb7"
     stroke-width="0.09375"
     d=" M 335.6 141.8 C 335.9 140.4 336.2 138.8 338.0 138.8 C 356.8 142.2 375.5 145.8 394.2 149.6 C 386.6 149.7 398.0 152.9 394.6 157.2 C 394.3 156.5 393.9 155.0 393.7 154.3 C 383.0 150.9 371.8 148.9 360.7 148.0 C 352.5 146.2 344.4 144.1 336.1 142.6 L 335.6 141.8 Z"
     id="path268" />
  <path
     fill="#bbab84"
     stroke="#bbab84"
     stroke-width="0.09375"
     d=" M 457.0 142.8 C 456.8 141.5 456.9 140.2 457.6 139.0 C 458.6 139.9 458.8 143.0 457.0 142.8 Z"
     id="path270" />
  <path
     fill="#d7cabf"
     stroke="#d7cabf"
     stroke-width="0.09375"
     d=" M 189.0 139.9 C 195.7 139.1 193.9 148.4 195.0 153.0 C 199.1 160.0 188.9 159.4 190.7 154.1 C 189.9 149.4 189.1 144.7 189.0 139.9 Z"
     id="path272" />
  <path
     fill="#585057"
     stroke="#585057"
     stroke-width="0.09375"
     d=" M 226.5 149.2 C 225.1 146.7 228.6 140.1 230.9 143.5 C 230.9 146.4 232.2 149.2 231.9 152.2 C 232.3 149.2 227.1 144.9 226.5 149.2 Z"
     id="path274" />
  <path
     fill="#195e78"
     stroke="#195e78"
     stroke-width="0.09375"
     d=" M 333.4 148.1 C 334.6 146.3 334.9 144.0 335.6 141.8 L 336.1 142.6 C 338.9 152.6 350.2 143.7 356.9 149.2 C 359.3 151.7 366.0 152.7 364.5 157.4 C 363.5 160.6 368.1 162.3 367.1 165.7 C 362.4 164.9 357.7 165.5 353.6 167.9 C 350.3 168.3 351.5 171.1 352.5 173.1 C 351.9 175.1 350.7 176.9 349.9 178.8 C 342.0 176.8 333.2 177.8 325.8 174.2 C 326.5 170.3 331.7 162.6 325.2 161.8 C 325.8 157.9 327.0 154.1 328.0 150.2 C 330.1 151.1 332.1 149.7 333.4 148.1 Z"
     id="path276" />
  <path
     fill="#437785"
     stroke="#437785"
     stroke-width="0.09375"
     d=" M 336.1 142.6 C 344.4 144.1 352.5 146.2 360.7 148.0 C 361.6 151.6 366.8 150.0 369.0 150.9 C 377.2 151.2 385.0 153.7 392.9 155.4 C 392.8 156.9 392.4 159.9 392.3 161.4 C 390.1 158.1 379.9 152.6 380.6 159.4 C 382.3 163.0 376.4 165.4 379.0 169.0 C 380.9 171.4 386.8 176.0 380.8 177.0 C 376.0 169.0 366.3 167.9 357.9 169.9 C 356.2 170.1 353.6 170.4 353.6 167.9 C 357.7 165.5 362.4 164.9 367.1 165.7 C 368.1 162.3 363.5 160.6 364.5 157.4 C 366.0 152.7 359.3 151.7 356.9 149.2 C 350.2 143.7 338.9 152.6 336.1 142.6 Z"
     id="path278" />
  <path
     fill="#d2c9bf"
     stroke="#d2c9bf"
     stroke-width="0.09375"
     d=" M 207.9 143.9 C 215.9 142.7 212.8 152.9 213.9 158.0 C 217.8 166.3 208.4 162.2 209.4 157.8 C 209.0 154.6 208.5 151.3 208.0 148.1 C 208.0 146.7 207.9 145.3 207.9 143.9 Z"
     id="path280" />
  <path
     fill="#dad0c6"
     stroke="#dad0c6"
     stroke-width="0.09375"
     d=" M 226.5 149.2 C 227.1 144.9 232.3 149.2 231.9 152.2 C 232.0 154.2 232.1 156.1 232.1 158.1 C 231.6 159.7 231.7 161.6 232.8 163.0 C 233.4 171.0 223.8 159.5 227.6 155.9 C 227.2 153.6 226.9 151.4 226.5 149.2 Z"
     id="path282" />
  <path
     fill="#8b9d9c"
     stroke="#8b9d9c"
     stroke-width="0.09375"
     d=" M 360.7 148.0 C 371.8 148.9 383.0 150.9 393.7 154.3 C 393.9 155.0 394.3 156.5 394.6 157.2 C 394.0 160.6 393.3 164.0 392.2 167.3 C 392.2 165.3 392.2 163.4 392.3 161.4 C 392.4 159.9 392.8 156.9 392.9 155.4 C 385.0 153.7 377.2 151.2 369.0 150.9 C 366.8 150.0 361.6 151.6 360.7 148.0 Z"
     id="path284" />
  <path
     fill="#d6d3ce"
     stroke="#d6d3ce"
     stroke-width="0.09375"
     d=" M 394.6 157.2 C 398.0 152.9 386.6 149.7 394.2 149.6 C 411.7 153.1 429.4 156.2 446.8 160.3 C 448.2 161.7 449.8 163.0 451.9 163.3 C 450.4 172.0 447.3 180.5 445.1 189.1 C 443.9 192.3 443.4 196.9 439.7 198.0 C 439.3 197.3 438.9 196.6 438.4 195.9 C 436.8 185.1 426.4 178.6 418.2 174.2 C 415.6 176.6 413.4 175.1 411.1 173.3 C 406.1 176.3 400.9 173.8 396.0 172.2 C 393.6 173.1 391.9 175.3 390.0 177.1 C 390.8 173.8 391.5 170.5 392.2 167.3 C 393.3 164.0 394.0 160.6 394.6 157.2 Z"
     id="path286" />
  <path
     fill="#57497a"
     stroke="#57497a"
     stroke-width="0.09375"
     d=" M 436.9 150.9 C 441.7 149.5 446.7 151.9 451.3 153.4 C 446.4 154.8 441.6 152.0 436.9 150.9 Z"
     id="path288" />
  <path
     fill="#adc0c4"
     stroke="#adc0c4"
     stroke-width="0.09375"
     d=" M 343.9 154.9 C 343.0 150.3 352.8 151.7 350.0 154.8 C 348.0 153.9 345.9 153.9 343.9 154.9 Z"
     id="path290" />
  <path
     fill="#728390"
     stroke="#728390"
     stroke-width="0.09375"
     d=" M 146.6 154.9 C 147.3 154.1 148.2 153.5 149.1 153.2 C 149.4 154.8 148.9 156.7 147.0 156.8 C 146.9 156.4 146.7 155.4 146.6 154.9 Z"
     id="path292" />
  <path
     fill="#aeccd9"
     stroke="#aeccd9"
     stroke-width="0.09375"
     d=" M 196.1 153.8 C 198.3 154.1 201.0 153.7 202.2 155.9 C 200.3 155.3 196.7 156.0 196.1 153.8 Z"
     id="path294" />
  <path
     fill="#60858a"
     stroke="#60858a"
     stroke-width="0.09375"
     d=" M 343.9 154.9 C 345.9 153.9 348.0 153.9 350.0 154.8 C 351.3 158.8 340.7 158.8 343.9 154.9 Z"
     id="path296" />
  <path
     fill="#1b3744"
     stroke="#1b3744"
     stroke-width="0.09375"
     d=" M 141.3 163.7 C 141.0 159.9 142.0 154.9 146.6 154.9 C 146.7 155.4 146.9 156.4 147.0 156.8 C 145.3 158.3 145.0 160.6 145.1 162.7 C 152.0 163.0 158.0 169.1 165.1 164.4 C 169.6 168.3 177.9 173.4 184.0 169.0 C 188.3 172.9 194.4 173.6 200.1 174.7 C 206.6 171.2 213.0 181.0 219.9 176.6 C 223.5 182.0 231.3 178.3 236.0 181.9 C 234.5 190.5 238.7 175.5 243.5 177.9 C 241.3 182.0 242.1 191.2 235.1 188.7 C 207.4 183.4 179.7 177.7 152.0 172.1 C 149.3 172.4 151.8 168.8 149.2 168.8 C 146.5 167.1 142.1 167.3 141.3 163.7 Z"
     id="path298" />
  <path
     fill="#b2d0db"
     stroke="#b2d0db"
     stroke-width="0.09375"
     d=" M 310.1 163.7 C 309.6 158.2 313.3 152.8 319.2 155.8 C 320.9 155.8 325.2 158.0 321.1 158.0 C 317.0 157.8 315.7 165.5 321.0 164.1 C 321.3 164.5 321.9 165.3 322.2 165.7 C 321.4 165.8 319.8 165.9 319.0 166.0 C 316.0 165.2 313.0 164.6 310.1 163.7 Z"
     id="path300" />
  <path
     fill="#1d6e83"
     stroke="#1d6e83"
     stroke-width="0.09375"
     d=" M 380.6 159.4 C 379.9 152.6 390.1 158.1 392.3 161.4 C 392.2 163.4 392.2 165.3 392.2 167.3 C 391.5 170.5 390.8 173.8 390.0 177.1 C 389.3 179.7 388.5 182.3 387.8 184.9 C 387.2 187.6 387.0 190.5 386.4 193.2 C 386.4 190.9 385.1 189.3 383.1 188.4 C 383.8 187.3 385.9 185.7 383.2 185.9 C 383.1 182.8 382.1 179.8 380.8 177.0 C 386.8 176.0 380.9 171.4 379.0 169.0 C 376.4 165.4 382.3 163.0 380.6 159.4 Z"
     id="path302" />
  <path
     fill="#1d4f7e"
     stroke="#1d4f7e"
     stroke-width="0.09375"
     d=" M 313.2 157.1 C 318.5 155.0 316.7 165.0 312.1 163.0 C 312.4 161.0 312.8 159.1 313.2 157.1 Z"
     id="path304" />
  <path
     fill="#45707b"
     stroke="#45707b"
     stroke-width="0.09375"
     d=" M 54.4 162.7 C 54.5 161.4 52.8 157.9 54.8 158.0 C 54.1 165.2 64.3 162.2 68.9 164.3 C 68.9 166.3 68.9 168.3 68.8 170.4 C 66.8 170.0 64.8 169.7 62.8 169.2 C 60.3 168.5 57.7 168.0 55.1 167.8 C 54.9 166.1 54.7 164.4 54.4 162.7 Z"
     id="path306" />
  <path
     fill="#89a5b9"
     stroke="#89a5b9"
     stroke-width="0.09375"
     d=" M 204.7 159.0 C 205.4 157.6 207.4 157.6 208.2 158.9 C 207.4 160.1 205.4 160.6 204.7 159.0 Z"
     id="path308" />
  <path
     fill="#7a8181"
     stroke="#7a8181"
     stroke-width="0.09375"
     d=" M 232.1 158.1 L 232.8 158.0 L 233.1 158.8 C 233.2 160.2 233.1 161.6 232.8 163.0 C 231.7 161.6 231.6 159.7 232.1 158.1 Z"
     id="path310" />
  <path
     fill="#172c35"
     stroke="#172c35"
     stroke-width="0.09375"
     d=" M 293.0 159.0 C 294.9 158.7 298.7 158.8 297.9 161.8 C 296.0 164.7 291.7 162.2 293.0 159.0 Z"
     id="path312" />
  <path
     fill="#15272c"
     stroke="#15272c"
     stroke-width="0.09375"
     d=" M 114.0 160.0 C 116.5 159.6 119.1 159.7 118.0 163.0 C 115.5 163.4 112.9 163.3 114.0 160.0 Z"
     id="path314" />
  <path
     fill="#728994"
     stroke="#728994"
     stroke-width="0.09375"
     d=" M 321.0 164.1 C 321.4 159.2 325.8 159.8 322.2 165.7 C 321.9 165.3 321.3 164.5 321.0 164.1 Z"
     id="path316" />
  <path
     fill="#899ea3"
     stroke="#899ea3"
     stroke-width="0.09375"
     d=" M 334.0 159.9 C 336.3 159.9 339.0 160.8 340.1 163.0 C 338.0 163.0 333.5 163.2 334.0 159.9 Z"
     id="path318" />
  <path
     fill="#ccd7de"
     stroke="#ccd7de"
     stroke-width="0.09375"
     d=" M 343.6 162.0 C 345.1 159.8 351.6 158.9 351.1 163.0 C 348.6 162.7 346.1 162.1 343.6 162.0 Z"
     id="path320" />
  <path
     fill="#466c7b"
     stroke="#466c7b"
     stroke-width="0.09375"
     d=" M 325.2 161.8 C 331.7 162.6 326.5 170.3 325.8 174.2 C 321.8 171.5 325.5 165.8 325.2 161.8 Z"
     id="path322" />
  <path
     fill="#9daaa8"
     stroke="#9daaa8"
     stroke-width="0.09375"
     d=" M 340.9 164.0 C 340.2 162.6 342.4 161.2 343.6 162.0 C 344.2 163.4 342.1 164.6 340.9 164.0 Z"
     id="path324" />
  <path
     fill="#afb298"
     stroke="#afb298"
     stroke-width="0.09375"
     d=" M 54.4 162.7 C 54.7 164.4 54.9 166.1 55.1 167.8 C 54.6 169.1 54.2 170.5 53.8 171.9 C 51.7 170.8 54.6 165.5 54.4 162.7 Z"
     id="path326" />
  <path
     fill="#c6d3d8"
     stroke="#c6d3d8"
     stroke-width="0.09375"
     d=" M 333.1 164.8 C 332.4 161.0 339.1 164.9 340.9 164.0 C 343.0 166.4 347.6 162.2 345.9 167.0 C 341.6 167.0 337.4 165.3 333.1 164.8 Z"
     id="path328" />
  <path
     fill="#3c5a6b"
     stroke="#3c5a6b"
     stroke-width="0.09375"
     d=" M 68.9 164.3 C 92.3 169.4 115.7 173.9 139.1 178.8 C 172.5 184.8 206.2 194.0 239.4 197.6 C 242.1 200.8 246.7 200.8 250.5 200.9 C 282.6 208.7 315.2 214.5 347.6 220.3 C 348.5 220.3 349.4 220.2 350.3 219.9 C 353.6 220.2 356.8 221.1 360.0 221.8 C 364.5 224.8 355.5 223.7 356.9 228.9 C 260.8 209.8 164.8 190.1 68.8 170.4 C 68.9 168.3 68.9 166.3 68.9 164.3 Z"
     id="path330" />
  <path
     fill="#b4d4e1"
     stroke="#b4d4e1"
     stroke-width="0.09375"
     d=" M 311.7 176.7 C 305.2 178.0 306.3 166.2 311.8 166.8 C 310.9 169.1 307.0 175.1 311.7 174.8 C 313.4 171.1 313.7 165.3 320.0 167.9 C 320.7 169.1 321.5 170.3 322.1 171.6 C 321.0 174.1 320.5 178.0 317.0 178.1 C 317.3 175.4 322.3 169.6 317.4 169.6 C 313.4 168.9 316.0 176.5 311.7 176.7 Z"
     id="path332" />
  <path
     fill="#64584d"
     stroke="#64584d"
     stroke-width="0.09375"
     d=" M 55.1 167.8 C 57.7 168.0 60.3 168.5 62.8 169.2 C 63.2 171.1 63.5 173.1 63.9 175.0 C 60.8 174.3 55.1 174.8 53.8 171.9 C 54.2 170.5 54.6 169.1 55.1 167.8 Z"
     id="path334" />
  <path
     fill="#bfae8e"
     stroke="#bfae8e"
     stroke-width="0.09375"
     d=" M 352.5 173.1 C 351.5 171.1 350.3 168.3 353.6 167.9 C 353.6 170.4 356.2 170.1 357.9 169.9 C 366.3 167.9 376.0 169.0 380.8 177.0 C 382.1 179.8 383.1 182.8 383.2 185.9 C 380.1 185.3 375.5 184.5 375.1 180.6 C 378.2 177.3 371.6 173.5 371.3 177.7 C 370.0 178.2 368.4 178.3 367.6 179.6 C 367.1 180.0 366.1 180.8 365.6 181.2 C 366.0 177.8 368.5 174.7 363.5 177.6 C 361.8 178.1 360.1 178.6 358.4 179.4 C 355.5 179.4 352.6 179.7 349.9 178.8 C 350.7 176.9 351.9 175.1 352.5 173.1 Z"
     id="path336" />
  <path
     fill="#2a424f"
     stroke="#2a424f"
     stroke-width="0.09375"
     d=" M 62.8 169.2 C 64.8 169.7 66.8 170.0 68.8 170.4 C 164.8 190.1 260.8 209.8 356.9 228.9 C 361.9 231.8 375.7 228.1 375.1 237.0 C 375.5 238.8 374.8 239.5 373.0 238.9 C 341.4 232.1 309.5 226.8 278.0 219.5 C 276.8 218.9 275.4 218.8 274.1 218.9 L 273.1 218.6 C 271.9 217.9 270.5 217.8 269.2 218.0 C 259.1 216.2 248.9 214.1 239.0 211.5 C 237.8 210.9 236.5 210.8 235.2 211.0 C 221.8 208.5 208.3 205.8 195.0 202.5 C 193.8 201.9 192.5 201.8 191.2 202.0 C 189.1 201.7 187.0 201.1 185.0 200.5 C 183.8 199.9 182.5 199.8 181.2 200.0 C 174.4 198.8 167.7 197.2 161.0 195.5 C 159.8 194.9 158.5 194.8 157.2 195.0 C 155.4 194.9 153.7 194.1 152.0 193.5 C 150.8 192.9 149.4 192.8 148.1 192.9 L 147.1 192.6 C 145.8 192.0 144.4 191.8 143.1 191.9 L 142.1 191.6 C 140.8 191.0 139.4 190.8 138.1 190.9 L 137.1 190.6 C 135.9 189.9 134.5 189.8 133.2 190.0 C 131.6 190.2 130.3 189.1 129.0 188.6 C 127.9 187.8 126.5 187.8 125.2 188.0 C 113.4 186.1 101.6 183.6 90.0 180.5 C 88.8 179.9 87.4 179.8 86.1 179.9 L 85.1 179.6 C 83.9 178.9 82.5 178.8 81.2 179.0 C 77.7 178.6 74.3 177.6 71.0 176.5 C 69.8 175.9 68.5 175.8 67.2 176.0 C 66.0 176.1 64.9 175.8 63.9 175.0 C 63.5 173.1 63.2 171.1 62.8 169.2 Z"
     id="path338" />
  <path
     fill="#b3d3db"
     stroke="#b3d3db"
     stroke-width="0.09375"
     d=" M 149.2 168.8 C 151.8 168.8 149.3 172.4 152.0 172.1 C 179.7 177.7 207.4 183.4 235.1 188.7 C 242.1 191.2 241.3 182.0 243.5 177.9 C 243.6 177.4 243.8 176.5 243.9 176.0 C 244.0 175.4 244.2 174.3 244.3 173.8 C 246.8 174.0 245.9 176.7 245.4 178.4 C 243.2 184.1 243.7 195.4 235.1 190.6 C 206.1 184.6 177.0 179.2 148.1 172.9 C 148.3 171.8 148.5 170.7 148.9 169.7 L 149.2 168.8 Z"
     id="path340" />
  <path
     fill="#586b74"
     stroke="#586b74"
     stroke-width="0.09375"
     d=" M 241.0 173.1 C 233.9 173.4 239.4 169.7 242.9 173.0 C 241.5 175.0 240.4 176.8 243.9 176.0 C 243.8 176.5 243.6 177.4 243.5 177.9 C 238.7 175.5 234.5 190.5 236.0 181.9 C 237.5 179.9 234.8 178.9 233.7 177.5 C 237.0 178.4 238.7 174.7 241.0 173.1 Z"
     id="path342" />
  <path
     fill="#e6e4df"
     stroke="#e6e4df"
     stroke-width="0.09375"
     d=" M 390.0 177.1 C 391.9 175.3 393.6 173.1 396.0 172.2 C 400.9 173.8 406.1 176.3 411.1 173.3 C 413.4 175.1 415.6 176.6 418.2 174.2 C 426.4 178.6 436.8 185.1 438.4 195.9 C 421.8 195.2 405.0 189.3 388.3 186.6 C 388.2 186.2 387.9 185.3 387.8 184.9 C 388.5 182.3 389.3 179.7 390.0 177.1 Z"
     id="path344" />
  <path
     fill="#7d979f"
     stroke="#7d979f"
     stroke-width="0.09375"
     d=" M 339.3 173.4 C 343.9 176.0 337.6 175.6 335.0 174.9 C 335.5 173.3 338.0 174.0 339.3 173.4 Z"
     id="path346" />
  <path
     fill="#98b5af"
     stroke="#98b5af"
     stroke-width="0.09375"
     d=" M 67.2 176.0 C 68.5 175.8 69.8 175.9 71.0 176.5 C 70.2 177.6 67.0 177.8 67.2 176.0 Z"
     id="path348" />
  <path
     fill="#bf8b4a"
     stroke="#bf8b4a"
     stroke-width="0.09375"
     d=" M 363.5 177.6 C 368.5 174.7 366.0 177.8 365.6 181.2 C 365.3 182.6 366.9 185.2 365.2 185.8 C 364.2 183.1 362.6 180.5 363.5 177.6 Z"
     id="path350" />
  <path
     fill="#b78c5a"
     stroke="#b78c5a"
     stroke-width="0.09375"
     d=" M 371.3 177.7 C 371.6 173.5 378.2 177.3 375.1 180.6 C 372.3 179.4 370.0 181.6 367.7 182.9 C 367.7 182.1 367.6 180.4 367.6 179.6 C 368.4 178.3 370.0 178.2 371.3 177.7 Z"
     id="path352" />
  <path
     fill="#7c5b3e"
     stroke="#7c5b3e"
     stroke-width="0.09375"
     d=" M 358.4 179.4 C 360.1 178.6 361.8 178.1 363.5 177.6 C 362.6 180.5 364.2 183.1 365.2 185.8 C 362.1 186.2 365.0 190.7 361.8 192.0 C 360.1 190.8 358.7 189.3 357.2 187.9 C 356.8 185.4 355.6 183.1 354.0 181.2 C 355.6 181.0 357.6 181.1 358.4 179.4 Z"
     id="path354" />
  <path
     fill="#90bbb6"
     stroke="#90bbb6"
     stroke-width="0.09375"
     d=" M 81.2 179.0 C 82.5 178.8 83.9 178.9 85.1 179.6 C 84.2 180.6 81.0 180.8 81.2 179.0 Z"
     id="path356" />
  <path
     fill="#afcfdc"
     stroke="#afcfdc"
     stroke-width="0.09375"
     d=" M 305.7 179.1 C 309.8 180.1 318.0 177.7 318.9 183.8 C 318.0 185.8 317.1 187.9 316.2 189.9 C 312.3 188.9 306.7 190.8 303.7 187.2 C 308.3 187.0 317.1 190.6 316.6 182.8 C 314.5 180.6 308.6 182.0 305.7 179.1 Z"
     id="path358" />
  <path
     fill="#035d88"
     stroke="#035d88"
     stroke-width="0.09375"
     d=" M 319.9 185.0 C 319.7 178.9 324.4 178.0 329.1 180.6 C 323.6 181.3 323.0 187.1 320.1 190.8 C 320.0 191.2 319.8 191.9 319.7 192.3 C 319.8 194.3 321.1 195.2 322.9 195.5 C 324.8 197.4 326.5 200.9 329.6 199.5 C 334.7 198.2 338.5 203.5 343.4 204.4 C 354.3 201.5 365.4 208.8 375.8 212.4 C 376.0 216.9 372.2 218.7 367.9 218.4 C 368.2 221.2 372.0 221.6 373.2 224.0 C 368.8 223.3 364.4 222.5 360.0 221.8 C 356.8 221.1 353.6 220.2 350.3 219.9 C 341.4 217.1 331.9 216.9 323.1 214.1 C 325.5 203.9 307.8 199.5 316.2 189.9 C 317.1 187.9 318.0 185.8 318.9 183.8 C 319.1 184.1 319.6 184.7 319.9 185.0 Z"
     id="path360" />
  <path
     fill="#8eb5af"
     stroke="#8eb5af"
     stroke-width="0.09375"
     d=" M 86.1 179.9 C 87.4 179.8 88.8 179.9 90.0 180.5 C 89.1 181.6 86.0 181.8 86.1 179.9 Z"
     id="path362" />
  <path
     fill="#e1d3ac"
     stroke="#e1d3ac"
     stroke-width="0.09375"
     d=" M 365.6 181.2 C 366.1 180.8 367.1 180.0 367.6 179.6 C 367.6 180.4 367.7 182.1 367.7 182.9 C 368.6 186.7 364.2 189.5 366.2 192.9 C 370.4 194.7 372.3 190.7 375.0 188.8 C 377.2 189.3 379.2 190.3 381.2 191.3 C 379.2 195.5 375.2 197.8 371.1 199.3 C 368.0 199.2 364.9 199.2 361.8 199.2 C 358.7 198.5 355.9 196.7 353.2 195.0 C 351.7 192.7 349.3 190.7 349.0 187.8 C 351.8 187.7 354.5 188.6 357.2 187.9 C 358.7 189.3 360.1 190.8 361.8 192.0 C 365.0 190.7 362.1 186.2 365.2 185.8 C 366.9 185.2 365.3 182.6 365.6 181.2 Z"
     id="path364" />
  <path
     fill="#604b37"
     stroke="#604b37"
     stroke-width="0.09375"
     d=" M 367.7 182.9 C 370.0 181.6 372.3 179.4 375.1 180.6 C 375.5 184.5 380.1 185.3 383.2 185.9 C 385.9 185.7 383.8 187.3 383.1 188.4 L 382.6 189.0 C 381.2 185.3 377.2 186.6 375.0 188.8 C 372.3 190.7 370.4 194.7 366.2 192.9 C 364.2 189.5 368.6 186.7 367.7 182.9 Z"
     id="path366" />
  <path
     fill="#077aa8"
     stroke="#077aa8"
     stroke-width="0.09375"
     d=" M 320.1 190.8 C 323.0 187.1 323.6 181.3 329.1 180.6 C 330.8 181.3 332.4 182.2 334.0 183.0 C 338.9 185.7 345.3 178.4 349.0 183.0 C 349.0 184.6 348.9 186.2 349.0 187.8 C 349.3 190.7 351.7 192.7 353.2 195.0 C 350.9 200.7 343.9 197.4 339.4 199.5 C 337.8 192.6 329.7 193.4 324.2 192.6 L 323.8 192.0 C 323.0 190.7 321.4 190.8 320.1 190.8 Z"
     id="path368" />
  <path
     fill="#c6b489"
     stroke="#c6b489"
     stroke-width="0.09375"
     d=" M 349.3 180.7 C 350.8 180.9 352.4 181.0 354.0 181.2 C 355.6 183.1 356.8 185.4 357.2 187.9 C 354.5 188.6 351.8 187.7 349.0 187.8 C 348.9 186.2 349.0 184.6 349.0 183.0 C 349.1 182.4 349.2 181.3 349.3 180.7 Z"
     id="path370" />
  <path
     fill="#16232d"
     stroke="#16232d"
     stroke-width="0.09375"
     d=" M 279.2 184.2 C 283.4 181.8 284.8 188.5 280.1 187.0 C 278.3 187.1 277.3 184.8 279.2 184.2 Z"
     id="path372" />
  <path
     fill="#636563"
     stroke="#636563"
     stroke-width="0.09375"
     d=" M 386.4 193.2 C 387.0 190.5 387.2 187.6 387.8 184.9 C 387.9 185.3 388.2 186.2 388.3 186.6 C 405.0 189.3 421.8 195.2 438.4 195.9 C 438.9 196.6 439.3 197.3 439.7 198.0 C 438.9 199.5 438.8 201.2 439.0 202.8 C 439.4 206.1 434.8 208.6 432.0 207.0 C 416.3 204.5 401.1 199.6 385.3 198.0 C 385.6 196.4 386.1 194.8 386.4 193.2 Z"
     id="path374" />
  <path
     fill="#c2ad7e"
     stroke="#c2ad7e"
     stroke-width="0.09375"
     d=" M 375.0 188.8 C 377.2 186.6 381.2 185.3 382.6 189.0 C 382.2 189.6 381.5 190.8 381.2 191.3 C 379.2 190.3 377.2 189.3 375.0 188.8 Z"
     id="path376" />
  <path
     fill="#6e9a96"
     stroke="#6e9a96"
     stroke-width="0.09375"
     d=" M 125.2 188.0 C 126.5 187.8 127.9 187.8 129.0 188.6 C 128.1 189.6 125.0 189.8 125.2 188.0 Z"
     id="path378" />
  <path
     fill="#0e7ea1"
     stroke="#0e7ea1"
     stroke-width="0.09375"
     d=" M 382.6 189.0 L 383.1 188.4 C 385.1 189.3 386.4 190.9 386.4 193.2 C 386.1 194.8 385.6 196.4 385.3 198.0 C 383.9 202.1 383.7 208.5 382.4 210.7 C 378.2 207.7 372.1 205.8 370.7 200.1 L 371.1 199.3 C 375.2 197.8 379.2 195.5 381.2 191.3 C 381.5 190.8 382.2 189.6 382.6 189.0 Z"
     id="path380" />
  <path
     fill="#99c3be"
     stroke="#99c3be"
     stroke-width="0.09375"
     d=" M 133.2 190.0 C 134.5 189.8 135.9 189.9 137.1 190.6 C 136.2 191.6 133.1 191.8 133.2 190.0 Z"
     id="path382" />
  <path
     fill="#8cb6b0"
     stroke="#8cb6b0"
     stroke-width="0.09375"
     d=" M 138.1 190.9 C 139.4 190.8 140.8 191.0 142.1 191.6 C 141.1 192.6 138.0 192.8 138.1 190.9 Z"
     id="path384" />
  <path
     fill="#91beca"
     stroke="#91beca"
     stroke-width="0.09375"
     d=" M 319.7 192.3 C 319.8 191.9 320.0 191.2 320.1 190.8 C 321.4 190.8 323.0 190.7 323.8 192.0 C 322.4 192.2 321.0 192.3 319.7 192.3 Z"
     id="path386" />
  <path
     fill="#8cb9b6"
     stroke="#8cb9b6"
     stroke-width="0.09375"
     d=" M 143.1 191.9 C 144.4 191.8 145.8 192.0 147.1 192.6 C 146.1 193.6 143.0 193.8 143.1 191.9 Z"
     id="path388" />
  <path
     fill="#131e2a"
     stroke="#131e2a"
     stroke-width="0.09375"
     d=" M 319.7 192.3 C 321.0 192.3 322.4 192.2 323.8 192.0 L 324.2 192.6 C 323.9 193.3 323.2 194.8 322.9 195.5 C 321.1 195.2 319.8 194.3 319.7 192.3 Z"
     id="path390" />
  <path
     fill="#066991"
     stroke="#066991"
     stroke-width="0.09375"
     d=" M 324.2 192.6 C 329.7 193.4 337.8 192.6 339.4 199.5 C 343.9 197.4 350.9 200.7 353.2 195.0 C 355.9 196.7 358.7 198.5 361.8 199.2 C 364.7 199.6 367.7 199.9 370.7 200.1 C 372.1 205.8 378.2 207.7 382.4 210.7 C 381.8 214.5 381.0 218.3 379.9 222.0 C 377.2 219.9 378.3 223.6 379.1 224.9 L 379.1 226.1 C 377.1 225.5 375.1 224.8 373.2 224.0 C 372.0 221.6 368.2 221.2 367.9 218.4 C 372.2 218.7 376.0 216.9 375.8 212.4 C 365.4 208.8 354.3 201.5 343.4 204.4 C 338.5 203.5 334.7 198.2 329.6 199.5 C 326.5 200.9 324.8 197.4 322.9 195.5 C 323.2 194.8 323.9 193.3 324.2 192.6 Z"
     id="path392" />
  <path
     fill="#8cb6b5"
     stroke="#8cb6b5"
     stroke-width="0.09375"
     d=" M 148.1 192.9 C 149.4 192.8 150.8 192.9 152.0 193.5 C 151.1 194.6 148.0 194.8 148.1 192.9 Z"
     id="path394" />
  <path
     fill="#98c4be"
     stroke="#98c4be"
     stroke-width="0.09375"
     d=" M 157.2 195.0 C 158.5 194.8 159.8 194.9 161.0 195.5 C 160.2 196.6 157.0 196.8 157.2 195.0 Z"
     id="path396" />
  <path
     fill="#cccfbe"
     stroke="#cccfbe"
     stroke-width="0.09375"
     d=" M 439.0 202.8 C 438.8 201.2 438.9 199.5 439.7 198.0 C 440.6 199.3 440.9 202.6 439.0 202.8 Z"
     id="path398" />
  <path
     fill="#77968d"
     stroke="#77968d"
     stroke-width="0.09375"
     d=" M 361.8 199.2 C 364.9 199.2 368.0 199.2 371.1 199.3 L 370.7 200.1 C 367.7 199.9 364.7 199.6 361.8 199.2 Z"
     id="path400" />
  <path
     fill="#9abfc0"
     stroke="#9abfc0"
     stroke-width="0.09375"
     d=" M 181.2 200.0 C 182.5 199.8 183.8 199.9 185.0 200.5 C 184.2 201.6 181.0 201.8 181.2 200.0 Z"
     id="path402" />
  <path
     fill="#15587b"
     stroke="#15587b"
     stroke-width="0.09375"
     d=" M 250.5 200.9 C 274.9 203.8 298.7 210.7 323.1 214.1 C 331.9 216.9 341.4 217.1 350.3 219.9 C 349.4 220.2 348.5 220.3 347.6 220.3 C 315.2 214.5 282.6 208.7 250.5 200.9 Z"
     id="path404" />
  <path
     fill="#85b5ae"
     stroke="#85b5ae"
     stroke-width="0.09375"
     d=" M 191.2 202.0 C 192.5 201.8 193.8 201.9 195.0 202.5 C 194.2 203.6 191.0 203.8 191.2 202.0 Z"
     id="path406" />
  <path
     fill="#84aead"
     stroke="#84aead"
     stroke-width="0.09375"
     d=" M 235.2 211.0 C 236.5 210.8 237.8 210.9 239.0 211.5 C 238.2 212.6 235.0 212.8 235.2 211.0 Z"
     id="path408" />
  <path
     fill="#8bb4b5"
     stroke="#8bb4b5"
     stroke-width="0.09375"
     d=" M 269.2 218.0 C 270.5 217.8 271.9 217.9 273.1 218.6 C 272.2 219.6 269.1 219.8 269.2 218.0 Z"
     id="path410" />
  <path
     fill="#95c0bf"
     stroke="#95c0bf"
     stroke-width="0.09375"
     d=" M 274.1 218.9 C 275.4 218.8 276.8 218.9 278.0 219.5 C 277.1 220.6 274.0 220.8 274.1 218.9 Z"
     id="path412" />
  <path
     fill="#7fa6ab"
     stroke="#7fa6ab"
     stroke-width="0.09375"
     d=" M 379.1 224.9 C 378.3 223.6 377.2 219.9 379.9 222.0 C 380.5 223.4 380.3 224.4 379.1 224.9 Z"
     id="path414" />
  <path
     fill="#476d7c"
     stroke="#476d7c"
     stroke-width="0.09375"
     d=" M 360.0 221.8 C 364.4 222.5 368.8 223.3 373.2 224.0 C 375.1 224.8 377.1 225.5 379.1 226.1 C 379.5 230.2 376.3 234.0 375.1 237.0 C 375.7 228.1 361.9 231.8 356.9 228.9 C 355.5 223.7 364.5 224.8 360.0 221.8 Z"
     id="path416" />
</svg>
