/* XPM */
const char * play_xpm[] = {
"24 24 131 2",
"  	c None",
". 	c #DDDDDC",
"+ 	c #DEDEDD",
"@ 	c #D9D9D8",
"# 	c #E1E1E0",
"$ 	c #E2E2E1",
"% 	c #E2E1E1",
"& 	c #DAD9D9",
"* 	c #DCDCDB",
"= 	c #E6E6E5",
"- 	c #D8D8D7",
"; 	c #D8D7D7",
"> 	c #E6E5E5",
", 	c #D5D5D4",
"' 	c #D6D6D5",
") 	c #DCDBDB",
"! 	c #D3D3D2",
"~ 	c #D3D4D2",
"{ 	c #DBDBDA",
"] 	c #DADAD9",
"^ 	c #D5D4D4",
"/ 	c #DDDCDC",
"( 	c #D1D1D0",
"_ 	c #D2D2D1",
": 	c #CECECD",
"< 	c #CFCFCE",
"[ 	c #CAC9C8",
"} 	c #D0D0D0",
"| 	c #D0D0CF",
"1 	c #CECDCD",
"2 	c #CFCECE",
"3 	c #C1C1BF",
"4 	c #696665",
"5 	c #ABA9A9",
"6 	c #CDCDCC",
"7 	c #D0CFCF",
"8 	c #CCCCCB",
"9 	c #CBCBCA",
"0 	c #BFBEBE",
"a 	c #3C3837",
"b 	c #484444",
"c 	c #6A6765",
"d 	c #C2C2C1",
"e 	c #CACAC9",
"f 	c #C9C8C8",
"g 	c #CBCACA",
"h 	c #BDBCBC",
"i 	c #383432",
"j 	c #413C3B",
"k 	c #403B3A",
"l 	c #3F3A39",
"m 	c #8B8988",
"n 	c #CAC9C9",
"o 	c #C7C7C6",
"p 	c #C6C6C5",
"q 	c #C6C7C5",
"r 	c #C8C8C7",
"s 	c #BABAB9",
"t 	c #342F2E",
"u 	c #3D3837",
"v 	c #3C3836",
"w 	c #363230",
"x 	c #534F4E",
"y 	c #8D8B89",
"z 	c #C3C3C2",
"A 	c #C4C4C3",
"B 	c #C5C5C4",
"C 	c #C5C4C4",
"D 	c #C6C5C5",
"E 	c #B8B8B7",
"F 	c #2F2A28",
"G 	c #383331",
"H 	c #373230",
"I 	c #393432",
"J 	c #4C4846",
"K 	c #9B9998",
"L 	c #C7C6C6",
"M 	c #C2C1C1",
"N 	c #B6B5B4",
"O 	c #2B2624",
"P 	c #342F2D",
"Q 	c #332E2C",
"R 	c #35302E",
"S 	c #464241",
"T 	c #949291",
"U 	c #C1C0C0",
"V 	c #C1BFC0",
"W 	c #B3B3B2",
"X 	c #26211F",
"Y 	c #2F2B28",
"Z 	c #282421",
"` 	c #45403F",
" .	c #827F7E",
"..	c #BBBAB9",
"+.	c #C4C3C3",
"@.	c #C0BFBF",
"#.	c #BEBDBD",
"$.	c #BEBEBD",
"%.	c #BFBFBE",
"&.	c #B1B0AF",
"*.	c #221D1A",
"=.	c #2B2623",
"-.	c #2A2522",
";.	c #272220",
">.	c #777473",
",.	c #B2B2B1",
"'.	c #BCBBBB",
").	c #AFAEAE",
"!.	c #1C1814",
"~.	c #292623",
"{.	c #4C4847",
"].	c #AFADAE",
"^.	c #C1C0C1",
"/.	c #B9B9B8",
"(.	c #BBBABA",
"_.	c #ABAAA9",
":.	c #43403D",
"<.	c #8F8E8C",
"[.	c #B7B7B6",
"}.	c #B8B7B7",
"|.	c #B6B5B5",
"1.	c #B1AFAF",
"2.	c #B9B8B8",
"3.	c #B5B4B4",
"4.	c #B3B2B2",
"5.	c #B4B3B3",
"6.	c #B1B0B0",
"7.	c #ADACAC",
"8.	c #ACABAB",
"9.	c #ACACAB",
"0.	c #ABAAAA",
"                  . + + + + +                   ",
"            @ # $ $ $ % % $ $ $ # &             ",
"          * = * @ - - ; ; - - @ * > *           ",
"        * # , ' ' ' ' ' ' ' ' ' ' , # *         ",
"      & ) ! ~ ! ! ! ! ! ! ! ! ! ! ~ ! { ]       ",
"    ^ / ( _ _ _ _ _ _ _ _ _ _ _ _ _ _ ( * ,     ",
"  : * : < < < < : [ } < < < < < < < < < : * :   ",
"  ! | 1 1 1 1 2 3 4 5 _ 2 6 1 1 1 1 1 1 1 7 !   ",
"  7 8 9 9 9 9 8 0 a b c d 7 9 9 9 9 9 9 9 8 7   ",
"e 8 f f f f f g h i j k l m 0 n n f f f f f 8 e ",
"o f p q q q q r s t u u v w x y z e p q q p f o ",
"A B C C C C C D E F G G G G H I J K L C C C B A ",
"M d d d d d d A N O P P P P Q R S T A d d d d M ",
"U V V V V V V M W X Y F F Z `  ...+.@.V V V V U ",
"#.$.$.$.$.$.$.%.&.*.=.-.;.>.,.%.$.$.$.$.$.$.$.$.",
"  '.'.'.'.'.'.#.).!.~.{.].^.'.'.'.'.'.'.'.'.'.  ",
"  /./././././.(._.:.<.0 (././././././././././.  ",
"  [.}.}.}.}.}.}.|.1.2.}.}.}.}.}.}.}.}.}.}.}.}.  ",
"    3.3.3.3.3.3.3.3.3.3.3.3.3.3.3.3.3.3.3.3.    ",
"      4.5.5.5.5.5.5.5.5.5.5.5.5.5.5.5.5.4.      ",
"        6.6.6.6.6.6.6.6.6.6.6.6.6.6.6.6.        ",
"          ).).).).).).).).).).).).).).          ",
"            7.8.8.8.8.8.8.8.8.8.9.7.            ",
"                  0.0.0.0.0.0.                  "};
