/* XPM */
static char * pikdev_xpm[] = {
"32 32 69 1",
" 	c None",
".	c #585858",
"+	c #303030",
"@	c #FFFF00",
"#	c #A0A0A4",
"$	c #DADADA",
"%	c #BFBFBF",
"&	c #2F2F2F",
"*	c #808080",
"=	c #FFFFFF",
"-	c #BDBDBD",
";	c #000000",
">	c #B9B9B9",
",	c #2B2B2B",
"'	c #2D2D2D",
")	c #2E2E2E",
"!	c #C0C0C0",
"~	c #B4B4B4",
"{	c #272727",
"]	c #292929",
"^	c #2A2A2A",
"/	c #C1C1C3",
"(	c #B0B0B0",
"_	c #232323",
":	c #252525",
"<	c #1F1F1F",
"[	c #202020",
"}	c #262626",
"|	c #1C1C1C",
"1	c #222222",
"2	c #BABABA",
"3	c #DCDCDC",
"4	c #B6B6B6",
"5	c #1E1E1E",
"6	c #B1B1B1",
"7	c #9A9A9A",
"8	c #0F0F0F",
"9	c #101010",
"0	c #1A1A1A",
"a	c #1B1B1B",
"b	c #ADADAD",
"c	c #E1E1E1",
"d	c #969696",
"e	c #0A0A0A",
"f	c #0C0C0C",
"g	c #171717",
"h	c #181818",
"i	c #A9A9A9",
"j	c #D2D2D2",
"k	c #919191",
"l	c #060606",
"m	c #080808",
"n	c #141414",
"o	c #151515",
"p	c #A4A4A4",
"q	c #8D8D8D",
"r	c #020202",
"s	c #040404",
"t	c #111111",
"u	c #A0A0A0",
"v	c #8C8C8C",
"w	c #010101",
"x	c #050505",
"y	c #090909",
"z	c #0D0D0D",
"A	c #9C9C9C",
"B	c #979797",
"C	c #939393",
"D	c #8E8E8E",
"                                ",
"                                ",
"     .          ++              ",
"    .@.        +#$.+%&&         ",
"   .@@@.      +*$=+-&&.;        ",
"  .@@@@@.     +$=+-&&.;*.       ",
"   .@@@@@.  ++.++-&&.;.++*      ",
"    .@@@@@.+#$.+>,')&#++!&&     ",
"     .@@@@@.$=+~{]^,')#/&&&&    ",
"      .@@@@@.+(_:;{]^,')&&&%;   ",
"       .@@@@@.<[;@:}{]^,')%;;   ",
"       +.@@@@@|;@@1_:}{]^2;;;;  ",
"      +*3.@@@@@@@@<[1_:}4;;;=;  ",
"      +$=+.@@@@@@@|5<[16;;;==.  ",
"    ++.++789@@@@@@0a|5b;;;===c. ",
"   +#$=+def;@@@@@@gh0i;;;;;jc.. ",
"  +*3=+klm;@@@@@@@nop;;;=; +..  ",
"  +$=+qrs;@@@@@@@@tu;;;==. #+*  ",
"  .++v;;wrsxlmyefzA;;;===j. +   ",
"  + ;;v;;;wrsxlmyB;;;;;jj.. +   ",
"  + ;;;v;;;;wrsxC;;;=; +..#     ",
"    ;;;;v;;;;;wD;;;==. #+*      ",
"     ;;;;v;;;;v;;;$$6v. +       ",
"     ;;;;;v;;v;;;;;6v.. +       ",
"      ;;;;;vv;;;=; +..#         ",
"       ;;;;+.;;=$. #+*          ",
"        ;;;;.;=$6v. +           ",
"         ;;;.;;6v.. +           ",
"          ;.;+ ;..#             ",
"               #;*              ",
"                ;               ",
"                ;               "};
