/* XPM */
const char * refresh_xpm[] = {
"24 24 219 2",
"  	c None",
". 	c #3A4D7C",
"+ 	c #0D2C6F",
"@ 	c #3C5182",
"# 	c #1A428A",
"$ 	c #607FB3",
"% 	c #3C5385",
"& 	c #949DB4",
"* 	c #5B6B92",
"= 	c #354F86",
"- 	c #22478C",
"; 	c #7694C2",
"> 	c #7A9AC8",
", 	c #5C7FB6",
"' 	c #3C5388",
") 	c #A1AABC",
"! 	c #4E618D",
"~ 	c #3C5D9B",
"{ 	c #5A7DB2",
"] 	c #6E8FC0",
"^ 	c #7A9BC8",
"/ 	c #7C9ECA",
"( 	c #7A9DCA",
"_ 	c #7599C9",
": 	c #587EB9",
"< 	c #3C558B",
"[ 	c #8E97AF",
"} 	c #465F93",
"| 	c #6181B4",
"1 	c #83A0CA",
"2 	c #82A1CB",
"3 	c #80A0CB",
"4 	c #7EA0CC",
"5 	c #7B9ECC",
"6 	c #779CCC",
"7 	c #749BCC",
"8 	c #6F96C9",
"9 	c #4F72B3",
"0 	c #384C84",
"a 	c #9EA6B9",
"b 	c #445E90",
"c 	c #6F8EBD",
"d 	c #809FC9",
"e 	c #81A0CB",
"f 	c #7FA0CC",
"g 	c #7DA0CD",
"h 	c #7B9FCD",
"i 	c #799ECD",
"j 	c #769CCE",
"k 	c #7199CD",
"l 	c #5780C0",
"m 	c #2D4581",
"n 	c #495C88",
"o 	c #5A7CB1",
"p 	c #7C9CC7",
"q 	c #7D9ECA",
"r 	c #7C9DCB",
"s 	c #6589C0",
"t 	c #436DB2",
"u 	c #2C5BAB",
"v 	c #7398CC",
"w 	c #739ACF",
"x 	c #5881C3",
"y 	c #2B447E",
"z 	c #A1A4A6",
"A 	c #8892A9",
"B 	c #365998",
"C 	c #7797C5",
"D 	c #799BC8",
"E 	c #799BC9",
"F 	c #6084BD",
"G 	c #3C568A",
"H 	c #525D79",
"I 	c #747982",
"J 	c #2A59AC",
"K 	c #5982C5",
"L 	c #2B4481",
"M 	c #506187",
"N 	c #4E74AE",
"O 	c #7497C6",
"P 	c #7598C8",
"Q 	c #6085BF",
"R 	c #3D578C",
"S 	c #7A818F",
"T 	c #AAADAF",
"U 	c #123A8F",
"V 	c #2C4581",
"W 	c #2D467F",
"X 	c #5E83B9",
"Y 	c #6F94C5",
"Z 	c #7197C8",
"` 	c #3F69B1",
" .	c #5E6984",
"..	c #2D447F",
"+.	c #1B3E82",
"@.	c #658CC0",
"#.	c #6B92C5",
"$.	c #5E8AC3",
"%.	c #2250A2",
"&.	c #9AA0A9",
"*.	c #1B3E83",
"=.	c #5F87BE",
"-.	c #4C7DBC",
";.	c #366EB7",
">.	c #1F4FA4",
",.	c #A8AEB7",
"'.	c #123CA0",
").	c #2159C1",
"!.	c #215AC3",
"~.	c #2055BE",
"{.	c #163A95",
"].	c #2A467E",
"^.	c #3B6AAF",
"/.	c #2E68B2",
"(.	c #306BB6",
"_.	c #2559B0",
":.	c #75829E",
"<.	c #7D8AA8",
"[.	c #2D6DD6",
"}.	c #3D89DE",
"|.	c #3D8AE0",
"1.	c #3981DF",
"2.	c #335AA7",
"3.	c #46577F",
"4.	c #2558A6",
"5.	c #2F69B4",
"6.	c #306DB9",
"7.	c #2C65B8",
"8.	c #3E5C9A",
"9.	c #ADB4C3",
"0.	c #AEB6C5",
"a.	c #4164AA",
"b.	c #377DDE",
"c.	c #3F8DE3",
"d.	c #3F8EE5",
"e.	c #337BE2",
"f.	c #4A5E91",
"g.	c #717A92",
"h.	c #1D4A9C",
"i.	c #2E68B5",
"j.	c #316FBB",
"k.	c #316FBE",
"l.	c #2A64BD",
"m.	c #4361A2",
"n.	c #8692B0",
"o.	c #8793B2",
"p.	c #4466AE",
"q.	c #3277DE",
"r.	c #3D8BE4",
"s.	c #4090E7",
"t.	c #3F8EE8",
"u.	c #2969DC",
"v.	c #747F98",
"w.	c #374C7D",
"x.	c #275CAF",
"y.	c #306FBD",
"z.	c #3374C2",
"A.	c #3474C6",
"B.	c #316FC8",
"C.	c #2A66C9",
"D.	c #255FC6",
"E.	c #2661CB",
"F.	c #2E6ED8",
"G.	c #377EE0",
"H.	c #3E8BE5",
"I.	c #4191E9",
"J.	c #4091EB",
"K.	c #357EEB",
"L.	c #3B5797",
"M.	c #788193",
"N.	c #25478B",
"O.	c #2B65B8",
"P.	c #3374C3",
"Q.	c #3679C9",
"R.	c #377DCE",
"S.	c #3981D3",
"T.	c #3B84D8",
"U.	c #3C88DC",
"V.	c #3E8BE1",
"W.	c #4092EC",
"X.	c #3985ED",
"Y.	c #2D59B4",
"Z.	c #7A8398",
"`.	c #636E86",
" +	c #274B90",
".+	c #2A65BE",
"++	c #3577C9",
"@+	c #387ECF",
"#+	c #3A82D5",
"$+	c #3B85D9",
"%+	c #408FEB",
"&+	c #367FEC",
"*+	c #2D5AB4",
"=+	c #65728C",
"-+	c #6F778A",
";+	c #344B82",
">+	c #2358B9",
",+	c #2D6ECB",
"'+	c #3579D3",
")+	c #3A83DA",
"!+	c #3C87DF",
"~+	c #3A83E3",
"{+	c #347DE6",
"]+	c #2A6ADF",
"^+	c #375394",
"/+	c #71798F",
"(+	c #9B9EA2",
"_+	c #5E6A82",
":+	c #3C507E",
"<+	c #294D95",
"[+	c #2353B3",
"}+	c #2355B7",
"|+	c #2B509E",
"1+	c #3D5387",
"2+	c #616C86",
"3+	c #9B9FA3",
"4+	c #A7AAAC",
"5+	c #9B9EA0",
"6+	c #949799",
"                                                ",
"                        .                       ",
"                        + @                     ",
"                        # $ %                   ",
"                & * = - ; > , '                 ",
"            ) ! ~ { ] ^ / ( _ : <               ",
"          [ } | 1 2 3 4 5 6 7 8 9 0             ",
"        a b c d e f g h i j k l m               ",
"        n o p q r s t u v w x y z               ",
"      A B C D E F G H I J K L z                 ",
"      M N O P Q R S   T U V z                   ",
"      W X Y Z `  .      ..z                     ",
"      +.@.#.$.%.&.                              ",
"      *.=.-.;.>.,.              '.).!.~.{.      ",
"      ].^./.(._.:.            <.[.}.|.1.2.      ",
"      3.4.5.6.7.8.9.        0.a.b.c.d.e.f.      ",
"      g.h.i.j.k.l.m.n.    o.p.q.r.s.t.u.v.      ",
"        w.x.y.z.A.B.C.D.E.F.G.H.I.J.K.L.        ",
"        M.N.O.P.Q.R.S.T.U.V.d.I.W.X.Y.Z.        ",
"          `. +.+++@+#+$+}.c.s.%+&+*+=+          ",
"            -+;+>+,+'+)+!+~+{+]+^+/+            ",
"              (+_+:+<+[+}+|+1+2+3+              ",
"                  4+5+6+6+5+4+                  ",
"                                                "};
