/* XPM */
const char * blankcheck_xpm[] = {
"16 16 106 2",
"  	c None",
". 	c #858585",
"+ 	c #717171",
"@ 	c #B8B7B6",
"# 	c #838281",
"$ 	c #767676",
"% 	c #6C6C6C",
"& 	c #666666",
"* 	c #F7F7F6",
"= 	c #FBFBFB",
"- 	c #F6F6F6",
"; 	c #C9C9C9",
"> 	c #7A7A7A",
", 	c #727272",
"' 	c #696969",
") 	c #908E8D",
"! 	c #969494",
"~ 	c #B9B9B9",
"{ 	c #ABABAB",
"] 	c #FFFFFF",
"^ 	c #FAFAFA",
"/ 	c #808080",
"( 	c #787878",
"_ 	c #6F6F6F",
": 	c #7F7D7C",
"< 	c #94918F",
"[ 	c #A2A2A2",
"} 	c #A6A6A6",
"| 	c #B1B1B1",
"1 	c #E3E3E3",
"2 	c #848484",
"3 	c #7E7E7E",
"4 	c #797979",
"5 	c #8D8A89",
"6 	c #9E9B9A",
"7 	c #B2B2B2",
"8 	c #AAAAAA",
"9 	c #9E9E9E",
"0 	c #A3A3A3",
"a 	c #AEAEAE",
"b 	c #E9E9E9",
"c 	c #F0F0F0",
"d 	c #A5A5A5",
"e 	c #878787",
"f 	c #838383",
"g 	c #7C7C7C",
"h 	c #737373",
"i 	c #676463",
"j 	c #747474",
"k 	c #929291",
"l 	c #B8B7B7",
"m 	c #B4B4B4",
"n 	c #969696",
"o 	c #8F8F8F",
"p 	c #BEBEBE",
"q 	c #FCFCFC",
"r 	c #DFDFDF",
"s 	c #949494",
"t 	c #898989",
"u 	c #857F7D",
"v 	c #7A6457",
"w 	c #767574",
"x 	c #9B9B9B",
"y 	c #A9A9A9",
"z 	c #A8A8A8",
"A 	c #ECECEC",
"B 	c #EDEDED",
"C 	c #A1A0A0",
"D 	c #818180",
"E 	c #918986",
"F 	c #886D5D",
"G 	c #8B827E",
"H 	c #906E59",
"I 	c #757575",
"J 	c #868686",
"K 	c #929292",
"L 	c #A7A7A7",
"M 	c #9D9D9D",
"N 	c #97908D",
"O 	c #877366",
"P 	c #998F8B",
"Q 	c #977560",
"R 	c #9E9896",
"S 	c #9A6D51",
"T 	c #919191",
"U 	c #929191",
"V 	c #A09B98",
"W 	c #B6ADA8",
"X 	c #9C908B",
"Y 	c #946F58",
"Z 	c #958E8A",
"` 	c #A57254",
" .	c #686868",
"..	c #646464",
"+.	c #AA8874",
"@.	c #EDEBEA",
"#.	c #BDB0A9",
"$.	c #A09692",
"%.	c #AA7657",
"&.	c #636363",
"*.	c #978D8A",
"=.	c #97664A",
"-.	c #938680",
";.	c #9C9897",
">.	c #A77152",
",.	c #B07D60",
"                                ",
"                    . +         ",
"                @ # $ % &       ",
"            * = - ; > , ' '     ",
"        ) ! ~ { ] ^ / ( + % _   ",
"    : < [ } [ | ] 1 2 3 $ + ' 4 ",
"5 6 7 8 9 0 a b c d e f g h i j ",
"k l m n o 9 p q r s t f $ u v w ",
"4 x | 0 y z | A B C D E F G H   ",
"I J K L L [ M z d N O P Q R S   ",
"    I $ T U V B W X Y Z `       ",
"     ...% E +.@.#.$.`   %.      ",
"        &.*.=.-.`               ",
"        h ;.>.  ,.              ",
"                                ",
"                                "};
