/* XPM */
const char * erase_xpm[] = {
"16 16 123 2",
"  	c None",
". 	c #878782",
"+ 	c #75756D",
"@ 	c #949368",
"# 	c #A5A34E",
"$ 	c #CACA2D",
"% 	c #8F8F51",
"& 	c #666666",
"* 	c #8A8885",
"= 	c #949286",
"- 	c #E2E221",
"; 	c #C9C93A",
"> 	c #8C8C69",
", 	c #74746F",
"' 	c #696969",
") 	c #9F9D71",
"! 	c #B4B35C",
"~ 	c #D6D644",
"{ 	c #A8A884",
"] 	c #DDDD2E",
"^ 	c #E5E51D",
"/ 	c #ACAC50",
"( 	c #95955D",
"_ 	c #717170",
": 	c #6C6C6C",
"< 	c #6F6F6F",
"[ 	c #7F7D7C",
"} 	c #A09C78",
"| 	c #E4E426",
"1 	c #D2D252",
"2 	c #AFAF8B",
"3 	c #9D9D9A",
"4 	c #B5B567",
"5 	c #F7F709",
"6 	c #BBBB47",
"7 	c #81817A",
"8 	c #767676",
"9 	c #717171",
"0 	c #797979",
"a 	c #8D8A89",
"b 	c #9E9B9A",
"c 	c #B2B2B2",
"d 	c #ABABA6",
"e 	c #F2F210",
"f 	c #DBDB41",
"g 	c #C1C16D",
"h 	c #ADAD83",
"i 	c #9A9A90",
"j 	c #D7D734",
"k 	c #DEDE23",
"l 	c #8C8C79",
"m 	c #7C7C7C",
"n 	c #737373",
"o 	c #676463",
"p 	c #747474",
"q 	c #929291",
"r 	c #B8B7B7",
"s 	c #B4B4B4",
"t 	c #969696",
"u 	c #C1C14C",
"v 	c #FDFD03",
"w 	c #BBBB75",
"x 	c #A0A09A",
"y 	c #979797",
"z 	c #ABAB6F",
"A 	c #F9F907",
"B 	c #A8A859",
"C 	c #857F7D",
"D 	c #7A6457",
"E 	c #767574",
"F 	c #9B9B9B",
"G 	c #B1B1B1",
"H 	c #A3A3A3",
"I 	c #B2B293",
"J 	c #EDED26",
"K 	c #D5D544",
"L 	c #9D9D98",
"M 	c #959595",
"N 	c #8D8D8D",
"O 	c #C7C733",
"P 	c #BAB35A",
"Q 	c #886D5D",
"R 	c #8B827E",
"S 	c #906E59",
"T 	c #757575",
"U 	c #868686",
"V 	c #929292",
"W 	c #A7A7A7",
"X 	c #A8A8A6",
"Y 	c #CCCC59",
"Z 	c #F0F016",
"` 	c #A8A878",
" .	c #888888",
"..	c #918A87",
"+.	c #8A7563",
"@.	c #9A8F8B",
"#.	c #977560",
"$.	c #9E9896",
"%.	c #9A6D51",
"&.	c #919191",
"*.	c #94938E",
"=.	c #D9D51A",
"-.	c #B1A760",
";.	c #8A6E5D",
">.	c #9C908B",
",.	c #946F58",
"'.	c #958E8A",
").	c #A57254",
"!.	c #686868",
"~.	c #646464",
"{.	c #918986",
"].	c #906E4C",
"^.	c #9B8C85",
"/.	c #96745F",
"(.	c #A09692",
"_.	c #AA7657",
":.	c #636363",
"<.	c #978D8A",
"[.	c #97664A",
"}.	c #938680",
"|.	c #9C9897",
"1.	c #A77152",
"2.	c #B07D60",
"                                ",
"                    . +         ",
"                @ # $ % &       ",
"            * = - ; > , ' '     ",
"        ) ! ~ { ] ^ / ( _ : <   ",
"    [ } | 1 2 3 4 5 6 7 8 9 ' 0 ",
"a b c d e f g h i j k l m n o p ",
"q r s t u v w x y z A B 8 C D E ",
"0 F G H I J K L M N O P Q R S   ",
"T U V W X Y Z `  ...+.@.#.$.%.  ",
"    T 8 &.*.=.-.;.>.,.'.).      ",
"    !.~.: {.].^./.(.).  _.      ",
"        :.<.[.}.).              ",
"        n |.1.  2.              ",
"                                ",
"                                "};
