/* XPM */
const char * refresh_xpm[] = {
"16 16 99 2",
"  	c None",
". 	c #243E77",
"+ 	c #496CA6",
"@ 	c #526EA2",
"# 	c #8592AC",
"$ 	c #566E9E",
"% 	c #5B78A9",
"& 	c #5C7DB2",
"* 	c #7A9BC8",
"= 	c #7194C5",
"- 	c #4A69A1",
"; 	c #7B89A8",
"> 	c #5C78AA",
", 	c #7B99C5",
"' 	c #80A0CB",
") 	c #7EA0CC",
"! 	c #799DCC",
"~ 	c #749BCC",
"{ 	c #5B80BA",
"] 	c #3D5691",
"^ 	c #5973A1",
"/ 	c #7A9AC6",
"( 	c #7E9ECB",
"_ 	c #668AC1",
": 	c #4C76B8",
"< 	c #759ACD",
"[ 	c #678FC9",
"} 	c #4F6796",
"| 	c #63779E",
"1 	c #6385B9",
"2 	c #7598C7",
"3 	c #5E7FB5",
"4 	c #516287",
"5 	c #797F8B",
"6 	c #2F59A6",
"7 	c #506798",
"8 	c #435F93",
"9 	c #698DC0",
"0 	c #658BC2",
"a 	c #506896",
"b 	c #41578B",
"c 	c #8A919F",
"d 	c #335797",
"e 	c #618BC1",
"f 	c #4170B6",
"g 	c #7588AA",
"h 	c #305391",
"i 	c #3D71B5",
"j 	c #2D65B3",
"k 	c #657DA8",
"l 	c #5777B4",
"m 	c #2E70CF",
"n 	c #3377D6",
"o 	c #2C5BB2",
"p 	c #445E8F",
"q 	c #2B62AE",
"r 	c #2F6CBA",
"s 	c #3462AC",
"t 	c #8997B7",
"u 	c #8A9ABC",
"v 	c #3B72C8",
"w 	c #3D8AE3",
"x 	c #3A86E4",
"y 	c #4B6DAD",
"z 	c #495E8C",
"A 	c #2B59A3",
"B 	c #3170BE",
"C 	c #3170C2",
"D 	c #3D6EBD",
"E 	c #3468C4",
"F 	c #366CCB",
"G 	c #4177CE",
"H 	c #3C88E4",
"I 	c #4090E9",
"J 	c #3777D6",
"K 	c #4E6BA5",
"L 	c #495F8C",
"M 	c #2C63B2",
"N 	c #3475C6",
"O 	c #387FD0",
"P 	c #3A83D7",
"Q 	c #3D89DE",
"R 	c #3F8EE4",
"S 	c #3F8FEA",
"T 	c #387EE0",
"U 	c #4E6AA3",
"V 	c #4A618F",
"W 	c #2C5DB1",
"X 	c #3376CF",
"Y 	c #3981D8",
"Z 	c #3C87E0",
"` 	c #3984E5",
" .	c #336FD2",
"..	c #727B8D",
"+.	c #5A6C91",
"@.	c #4B69A4",
"#.	c #4B6BA8",
"$.	c #5B6E97",
"%.	c #747D90",
"                                ",
"                .               ",
"                + @             ",
"        # $ % & * = -           ",
"      ; > , ' ) ! ~ { ]         ",
"      ^ / ( _ : < [ }           ",
"    | 1 2 3 4 5 6 7             ",
"    8 9 0 a     b c             ",
"    d e f g                     ",
"    h i j k         l m n o     ",
"    p q r s t     u v w x y     ",
"    z A B C D E F G H I J K     ",
"      L M N O P Q R S T U       ",
"        V W X Y Z `  .U         ",
"          ..+.@.#.$.%.          ",
"                                "};
