/* XPM */
const char * stop_xpm[] = {
"16 16 70 1",
" 	c None",
".	c #DFDFDE",
"+	c #DFDEDE",
"@	c #D9D9D8",
"#	c #E4E4E3",
"$	c #DBDBDA",
"%	c #DADAD9",
"&	c #DAD9D9",
"*	c #D8D8D7",
"=	c #DEDEDD",
"-	c #D2D3D1",
";	c #D5D5D4",
">	c #D2D1D1",
",	c #D2D2D1",
"'	c #CCCCCB",
")	c #CECECD",
"!	c #D1D1D0",
"~	c #CDCDCC",
"{	c #CBCBCA",
"]	c #CAC9C9",
"^	c #868483",
"/	c #726F6E",
"(	c #736F6F",
"_	c #C9C9C8",
":	c #C8C8C7",
"<	c #C8C7C7",
"[	c #C7C6C6",
"}	c #605D5B",
"|	c #413D3B",
"1	c #423E3C",
"2	c #5F5B5A",
"3	c #C6C5C5",
"4	c #C4C4C3",
"5	c #C5C4C4",
"6	c #C3C2C2",
"7	c #595553",
"8	c #383432",
"9	c #393533",
"0	c #383532",
"a	c #575452",
"b	c #C2C2C1",
"c	c #C1C0C0",
"d	c #C1C1C0",
"e	c #C0BFBE",
"f	c #514D4C",
"g	c #302C2A",
"h	c #312D2B",
"i	c #504D4B",
"j	c #BFBFBE",
"k	c #BEBDBD",
"l	c #BEBEBD",
"m	c #BCBBBB",
"n	c #494543",
"o	c #26211E",
"p	c #27221F",
"q	c #484441",
"r	c #BCBCBB",
"s	c #BBBABA",
"t	c #BAB9B9",
"u	c #666262",
"v	c #4C4947",
"w	c #4D4A48",
"x	c #4C4948",
"y	c #656260",
"z	c #B9B8B8",
"A	c #B8B7B7",
"B	c #B4B3B3",
"C	c #B1B0B0",
"D	c #AEADAD",
"E	c #ABAAAA",
"      .++.      ",
"   @#$%&&%$#@   ",
"  *=-;;;;;;-=*  ",
" >$,,,,,,,,,,$, ",
" @'))!,,,,!))'@ ",
" ~{{]^/((/^_{{~ ",
"_:<<[}|11|23<<:_",
"4555678990ab5554",
"cdddefghhgijdddc",
"klllmnoppoqrllll",
" ssstuvwwxyzsss ",
" AAAAsmmmmsAAAA ",
" BBBBBBBBBBBBBB ",
"  CCCCCCCCCCCC  ",
"   DDDDDDDDDD   ",
"      EEEE      "};
