/* XPM */
static char * usbpicprog_xpm[] = {
"16 16 118 2",
"  	c None",
". 	c #909090",
"+ 	c #999999",
"@ 	c #959595",
"# 	c #989898",
"$ 	c #B1B1B1",
"% 	c #36546F",
"& 	c #1D1218",
"* 	c #250808",
"= 	c #BEBEBD",
"- 	c #ADADAD",
"; 	c #9A9A9A",
"> 	c #A6A6A6",
", 	c #B9B9B9",
"' 	c #435B71",
") 	c #2A4F72",
"! 	c #422E31",
"~ 	c #3A1A18",
"{ 	c #91897F",
"] 	c #A9A99D",
"^ 	c #DBDBD8",
"/ 	c #F0F0F0",
"( 	c #E4E4E4",
"_ 	c #C5C5C5",
": 	c #C3C3C3",
"< 	c #BEBEBE",
"[ 	c #345472",
"} 	c #4D6984",
"| 	c #4D505B",
"1 	c #4B3A38",
"2 	c #3C2727",
"3 	c #ACA498",
"4 	c #F5F5E6",
"5 	c #F5F5F3",
"6 	c #E6E6E6",
"7 	c #C2C2C2",
"8 	c #2E5178",
"9 	c #4F5F70",
"0 	c #332B2B",
"a 	c #3C3636",
"b 	c #37201C",
"c 	c #5F524D",
"d 	c #B4ADA2",
"e 	c #ECEBE9",
"f 	c #E8E8E8",
"g 	c #C7C7C7",
"h 	c #DEDEDE",
"i 	c #261212",
"j 	c #232821",
"k 	c #2F5160",
"l 	c #474E5A",
"m 	c #504746",
"n 	c #30261D",
"o 	c #323025",
"p 	c #161E08",
"q 	c #9A9592",
"r 	c #E9E9E9",
"s 	c #BABABA",
"t 	c #E3E3E3",
"u 	c #160606",
"v 	c #171A0C",
"w 	c #31618E",
"x 	c #2C5881",
"y 	c #3A5873",
"z 	c #283D36",
"A 	c #2B391E",
"B 	c #3B3729",
"C 	c #82967E",
"D 	c #EBEBEB",
"E 	c #ACACAC",
"F 	c #C0C0C0",
"G 	c #030808",
"H 	c #0E0000",
"I 	c #211111",
"J 	c #303949",
"K 	c #335E86",
"L 	c #316392",
"M 	c #2E404F",
"N 	c #3C2E2A",
"O 	c #3B4836",
"P 	c #877F7D",
"Q 	c #ECECEC",
"R 	c #A2A2A2",
"S 	c #B3B3B3",
"T 	c #040202",
"U 	c #0D0808",
"V 	c #3B2526",
"W 	c #323B4B",
"X 	c #2E272D",
"Y 	c #3A3829",
"Z 	c #444037",
"` 	c #6B6666",
" .	c #EEEEEE",
"..	c #AFAFAF",
"+.	c #000909",
"@.	c #050303",
"#.	c #1D0A0A",
"$.	c #280E0E",
"%.	c #251616",
"&.	c #131C07",
"*.	c #282219",
"=.	c #283E1D",
"-.	c #91A18E",
";.	c #E2E2E2",
">.	c #EFEFEF",
",.	c #BBBBBB",
"'.	c #020A0A",
").	c #070202",
"!.	c #0C0000",
"~.	c #170C0C",
"{.	c #261312",
"].	c #352423",
"^.	c #212A2A",
"/.	c #000808",
"(.	c #000101",
"_.	c #000000",
":.	c #010000",
"<.	c #060808",
"                                ",
"                    . + + @ @   ",
"                    # + + + + $ ",
"        % & *     = - ; + + > , ",
"      ' ) ! ~ { ] ^ / ( _ > : < ",
"    [ } | 1 2 3 4 5 / / / 6 7 ( ",
"    8 9 0 a b c d e / / / f g h ",
"  i j k l m n o p q / / / r s t ",
"  u v w x y z A B C / / / D E F ",
"G H I J K L M N O P / / / Q R S ",
"    T U V W X Y Z ` 6 / /  ...  ",
"      +.@.#.$.%.&.*.=.-.;.>.,.  ",
"          '.).H !.~.{.].^.      ",
"              /.(._.:.<.        ",
"                  /._.          ",
"                                "};
