G04 (Genere par PCBNEW (2007-07-09)) le 14/8/2008-14:27:18*
G01*
G70*
G90*
%MOIN*%
G04 Gerber Fmt 3.4, Leading zero omitted, Abs format*
%FSLAX34Y34*%
G04 APERTURE LIST*
%ADD10C,0.015000*%
%ADD11C,0.015000*%
%ADD12R,0.063000X0.063000*%
%ADD13C,0.063000*%
%ADD14O,0.062000X0.090000*%
%ADD15R,0.062000X0.090000*%
%ADD16R,0.055000X0.055000*%
%ADD17C,0.055000*%
%ADD18C,0.070000*%
%ADD19R,0.088600X0.088600*%
%ADD20C,0.088600*%
%ADD21C,0.169300*%
%ADD22C,0.059100*%
%ADD23C,0.030000*%
%ADD24C,0.005000*%
G04 APERTURE END LIST*
G54D10*
X44250Y-37500D02*
X44250Y-19750D01*
X12000Y-37500D02*
X44250Y-37500D01*
X12000Y-19750D02*
X12000Y-37500D01*
X44250Y-19750D02*
X12000Y-19750D01*
G54D12*
X37250Y-31500D03*
G54D13*
X36500Y-30750D03*
X37250Y-30000D03*
G54D12*
X40750Y-34750D03*
G54D13*
X40000Y-34000D03*
X40750Y-33250D03*
G54D12*
X36500Y-33750D03*
G54D13*
X37250Y-33000D03*
X38000Y-33750D03*
G54D14*
X31250Y-27500D03*
X30250Y-27500D03*
X29250Y-27500D03*
X28250Y-27500D03*
X27250Y-27500D03*
X26250Y-27500D03*
X25250Y-27500D03*
X24250Y-27500D03*
X23250Y-27500D03*
X22250Y-27500D03*
X21250Y-27500D03*
X20250Y-27500D03*
X19250Y-27500D03*
G54D15*
X32250Y-27500D03*
G54D14*
X19250Y-30500D03*
X20250Y-30500D03*
X21250Y-30500D03*
X22250Y-30500D03*
X23250Y-30500D03*
X24250Y-30500D03*
X25250Y-30500D03*
X26250Y-30500D03*
X27250Y-30500D03*
X28250Y-30500D03*
X29250Y-30500D03*
X30250Y-30500D03*
X31250Y-30500D03*
X32250Y-30500D03*
G54D16*
X33750Y-25750D03*
G54D17*
X33750Y-26750D03*
G54D16*
X31250Y-25000D03*
G54D17*
X31250Y-26000D03*
G54D16*
X29250Y-25000D03*
G54D17*
X29250Y-26000D03*
G54D18*
X24500Y-25500D03*
X26500Y-25500D03*
G54D16*
X29000Y-32750D03*
G54D17*
X30000Y-32750D03*
X31000Y-32750D03*
X32000Y-32750D03*
X33000Y-32750D03*
G54D16*
X41500Y-30750D03*
G54D17*
X41500Y-29750D03*
X41500Y-28750D03*
X41500Y-27750D03*
X41500Y-26750D03*
G54D19*
X36000Y-24774D03*
G54D20*
X36000Y-27726D03*
X36000Y-26742D03*
G54D19*
X32476Y-34250D03*
G54D20*
X29524Y-34250D03*
X30508Y-34250D03*
G54D19*
X18226Y-34000D03*
G54D20*
X15274Y-34000D03*
X16258Y-34000D03*
G54D19*
X21484Y-32250D03*
G54D20*
X18532Y-32250D03*
X19516Y-32250D03*
G54D19*
X41226Y-22750D03*
G54D20*
X38274Y-22750D03*
X39258Y-22750D03*
G54D19*
X17024Y-26000D03*
G54D20*
X19976Y-26000D03*
X18992Y-26000D03*
G54D19*
X27750Y-23750D03*
G54D20*
X31750Y-23750D03*
G54D19*
X29000Y-22500D03*
G54D20*
X33000Y-22500D03*
G54D19*
X33000Y-23750D03*
G54D20*
X37000Y-23750D03*
G54D19*
X43000Y-25750D03*
G54D20*
X39000Y-25750D03*
G54D19*
X21750Y-23250D03*
G54D20*
X21750Y-24341D03*
G54D19*
X18750Y-23750D03*
G54D20*
X19841Y-23750D03*
G54D19*
X16750Y-23250D03*
G54D20*
X16750Y-24341D03*
G54D19*
X40250Y-30750D03*
G54D20*
X40250Y-26750D03*
G54D19*
X38500Y-31750D03*
G54D20*
X38500Y-27750D03*
G54D21*
X15148Y-26886D03*
X15148Y-31618D03*
G54D22*
X17000Y-29742D03*
X16210Y-29742D03*
X16210Y-28758D03*
X17000Y-28758D03*
G54D17*
X24500Y-23750D03*
X23500Y-23750D03*
X25500Y-23750D03*
X26500Y-23750D03*
G54D20*
X42750Y-24250D03*
X38750Y-24250D03*
X23750Y-34500D03*
X27750Y-34500D03*
X34000Y-30250D03*
X34000Y-34250D03*
X27500Y-32750D03*
X23500Y-32750D03*
X29750Y-31750D03*
X25750Y-31750D03*
X27500Y-22250D03*
X23500Y-22250D03*
X19500Y-22000D03*
X15500Y-22000D03*
X13750Y-26000D03*
X13750Y-22000D03*
X35000Y-29250D03*
X35000Y-33250D03*
G54D18*
X36250Y-22500D03*
X38250Y-21500D03*
X35000Y-24750D03*
X36750Y-29000D03*
X43000Y-28750D03*
X41750Y-32250D03*
X37750Y-25750D03*
X39250Y-28500D03*
G54D23*
X37250Y-22500D02*
X36250Y-22500D01*
X38250Y-21500D02*
X37250Y-22500D01*
X35000Y-28000D02*
X35000Y-24750D01*
X35750Y-28750D02*
X35000Y-28000D01*
X36500Y-28750D02*
X35750Y-28750D01*
X36750Y-29000D02*
X36500Y-28750D01*
X43000Y-31000D02*
X43000Y-28750D01*
X41750Y-32250D02*
X43000Y-31000D01*
X39250Y-28500D02*
X39250Y-27250D01*
X38500Y-26500D02*
X37750Y-25750D01*
X39250Y-27250D02*
X38500Y-26500D01*
M02*
