G04 (Genere par PCBnew (20080825c)) le 21/7/2009-11:49:01*
G01*
G70*
G90*
%MOIN*%
G04 Gerber Fmt 3.4, Leading zero omitted, Abs format*
%FSLAX34Y34*%
G04 APERTURE LIST*
%ADD10C,0.001000*%
%ADD11R,0.070000X0.070000*%
%ADD12C,0.070000*%
%ADD13C,0.169300*%
%ADD14C,0.059100*%
%ADD15C,0.045000*%
%ADD16C,0.030000*%
%ADD17C,0.012000*%
%ADD18C,0.005000*%
%ADD19C,0.006000*%
%ADD20R,0.025000X0.045000*%
%ADD21R,0.045000X0.025000*%
%ADD22R,0.100000X0.050000*%
%ADD23R,0.050000X0.100000*%
%ADD24R,0.020000X0.050000*%
%ADD25R,0.036000X0.036000*%
%ADD26R,0.080000X0.060000*%
%ADD27R,0.060000X0.080000*%
%ADD28C,0.017000*%
G04 APERTURE END LIST*
G54D10*
X16650Y-21650D02*
X34600Y-21650D01*
X16650Y-32600D02*
X16650Y-21650D01*
X34600Y-32600D02*
X16650Y-32600D01*
X34600Y-21650D02*
X34600Y-32600D01*
G54D19*
X16941Y-31900D02*
X16941Y-32256D01*
X16941Y-32256D02*
X16966Y-32300D01*
X16966Y-32300D02*
X17091Y-32300D01*
X17091Y-32300D02*
X17116Y-32256D01*
X17116Y-32256D02*
X17116Y-31900D01*
X17223Y-32256D02*
X17248Y-32300D01*
X17248Y-32300D02*
X17373Y-32300D01*
X17373Y-32300D02*
X17398Y-32256D01*
X17398Y-32256D02*
X17398Y-32212D01*
X17398Y-32212D02*
X17373Y-32167D01*
X17373Y-32167D02*
X17248Y-32167D01*
X17248Y-32167D02*
X17223Y-32123D01*
X17223Y-32123D02*
X17223Y-32078D01*
X17223Y-32078D02*
X17248Y-32034D01*
X17248Y-32034D02*
X17373Y-32034D01*
X17373Y-32034D02*
X17398Y-32078D01*
X17505Y-31900D02*
X17505Y-32300D01*
X17505Y-32300D02*
X17680Y-32300D01*
X17680Y-32300D02*
X17680Y-32123D01*
X17680Y-32123D02*
X17655Y-32078D01*
X17655Y-32078D02*
X17505Y-32078D01*
X17787Y-32433D02*
X17787Y-32034D01*
X17787Y-32078D02*
X17812Y-32034D01*
X17812Y-32034D02*
X17937Y-32034D01*
X17937Y-32034D02*
X17962Y-32078D01*
X17962Y-32078D02*
X17962Y-32256D01*
X17962Y-32256D02*
X17937Y-32300D01*
X17937Y-32300D02*
X17812Y-32300D01*
X17812Y-32300D02*
X17787Y-32256D01*
X18144Y-31900D02*
X18144Y-31945D01*
X18144Y-32078D02*
X18144Y-32256D01*
X18144Y-32256D02*
X18169Y-32300D01*
X18169Y-32300D02*
X18194Y-32300D01*
X18526Y-32256D02*
X18501Y-32300D01*
X18501Y-32300D02*
X18376Y-32300D01*
X18376Y-32300D02*
X18351Y-32256D01*
X18351Y-32256D02*
X18351Y-32078D01*
X18351Y-32078D02*
X18376Y-32034D01*
X18376Y-32034D02*
X18501Y-32034D01*
X18501Y-32034D02*
X18526Y-32078D01*
X18633Y-32433D02*
X18633Y-32034D01*
X18633Y-32078D02*
X18658Y-32034D01*
X18658Y-32034D02*
X18783Y-32034D01*
X18783Y-32034D02*
X18808Y-32078D01*
X18808Y-32078D02*
X18808Y-32256D01*
X18808Y-32256D02*
X18783Y-32300D01*
X18783Y-32300D02*
X18658Y-32300D01*
X18658Y-32300D02*
X18633Y-32256D01*
X18915Y-32300D02*
X18915Y-32034D01*
X18915Y-32123D02*
X18965Y-32034D01*
X18965Y-32034D02*
X19040Y-32034D01*
X19040Y-32034D02*
X19090Y-32123D01*
X19222Y-32300D02*
X19197Y-32256D01*
X19197Y-32256D02*
X19197Y-32078D01*
X19197Y-32078D02*
X19222Y-32034D01*
X19222Y-32034D02*
X19347Y-32034D01*
X19347Y-32034D02*
X19372Y-32078D01*
X19372Y-32078D02*
X19372Y-32256D01*
X19372Y-32256D02*
X19347Y-32300D01*
X19347Y-32300D02*
X19222Y-32300D01*
X19479Y-32388D02*
X19504Y-32433D01*
X19504Y-32433D02*
X19629Y-32433D01*
X19629Y-32433D02*
X19654Y-32388D01*
X19654Y-32388D02*
X19654Y-32078D01*
X19654Y-32078D02*
X19629Y-32034D01*
X19629Y-32034D02*
X19504Y-32034D01*
X19504Y-32034D02*
X19479Y-32078D01*
X19479Y-32078D02*
X19479Y-32256D01*
X19479Y-32256D02*
X19504Y-32300D01*
X19504Y-32300D02*
X19629Y-32300D01*
X19629Y-32300D02*
X19654Y-32256D01*
X20043Y-32034D02*
X20043Y-32167D01*
X20043Y-32167D02*
X20118Y-32300D01*
X20118Y-32300D02*
X20193Y-32167D01*
X20193Y-32167D02*
X20193Y-32034D01*
X20325Y-32300D02*
X20500Y-31900D01*
X20325Y-32256D02*
X20325Y-31945D01*
X20325Y-31945D02*
X20350Y-31900D01*
X20350Y-31900D02*
X20475Y-31900D01*
X20475Y-31900D02*
X20500Y-31945D01*
X20500Y-31945D02*
X20500Y-32256D01*
X20500Y-32256D02*
X20475Y-32300D01*
X20475Y-32300D02*
X20350Y-32300D01*
X20350Y-32300D02*
X20325Y-32256D01*
X20682Y-32300D02*
X20682Y-32256D01*
X20889Y-31900D02*
X21064Y-31900D01*
X21064Y-31900D02*
X21064Y-31945D01*
X21064Y-31945D02*
X20964Y-32078D01*
X20964Y-32078D02*
X21039Y-32078D01*
X21039Y-32078D02*
X21064Y-32123D01*
X21064Y-32123D02*
X21064Y-32256D01*
X21064Y-32256D02*
X21039Y-32300D01*
X21039Y-32300D02*
X20914Y-32300D01*
X20914Y-32300D02*
X20889Y-32256D01*
G54D11*
X31850Y-29550D03*
G54D12*
X31850Y-28550D03*
X31850Y-27550D03*
X31850Y-26550D03*
X31850Y-25550D03*
G54D11*
X24750Y-31450D03*
G54D12*
X25750Y-31450D03*
X26750Y-31450D03*
X27750Y-31450D03*
X28750Y-31450D03*
X24000Y-25500D03*
X26000Y-25500D03*
G54D20*
X23400Y-31100D03*
X22800Y-31100D03*
X27900Y-30100D03*
X28500Y-30100D03*
X27900Y-30700D03*
X28500Y-30700D03*
X28500Y-28300D03*
X27900Y-28300D03*
X28500Y-28900D03*
X27900Y-28900D03*
G54D21*
X30000Y-24900D03*
X30000Y-24300D03*
G54D20*
X20550Y-23500D03*
X19950Y-23500D03*
X19300Y-23500D03*
X18700Y-23500D03*
X25550Y-23250D03*
X24950Y-23250D03*
X25450Y-24750D03*
X26050Y-24750D03*
X25100Y-24200D03*
X25700Y-24200D03*
X30900Y-30500D03*
X31500Y-30500D03*
G54D21*
X26250Y-23650D03*
X26250Y-24250D03*
X32750Y-26850D03*
X32750Y-26250D03*
G54D20*
X19600Y-26400D03*
X19000Y-26400D03*
G54D22*
X21500Y-23400D03*
X21500Y-24600D03*
X28750Y-24400D03*
X28750Y-25600D03*
X27550Y-24400D03*
X27550Y-25600D03*
G54D23*
X30750Y-24500D03*
X31950Y-24500D03*
G54D22*
X22750Y-23400D03*
X22750Y-24600D03*
X24000Y-23400D03*
X24000Y-24600D03*
G54D24*
X27250Y-26700D03*
X26750Y-26700D03*
X26250Y-26700D03*
X25750Y-26700D03*
X25250Y-26700D03*
X24750Y-26700D03*
X24250Y-26700D03*
X23750Y-26700D03*
X23250Y-26700D03*
X22750Y-26700D03*
X22250Y-26700D03*
X21750Y-26700D03*
X21250Y-26700D03*
X20750Y-26700D03*
X20750Y-30300D03*
X21250Y-30300D03*
X21750Y-30300D03*
X22250Y-30300D03*
X22750Y-30300D03*
X23250Y-30300D03*
X23750Y-30300D03*
X24250Y-30300D03*
X24750Y-30300D03*
X25250Y-30300D03*
X25750Y-30300D03*
X26250Y-30300D03*
X26750Y-30300D03*
X27250Y-30300D03*
G54D25*
X31250Y-32000D03*
X30550Y-32000D03*
X30900Y-31200D03*
X32850Y-32000D03*
X32150Y-32000D03*
X32500Y-31200D03*
G54D13*
X17898Y-30114D03*
X17898Y-25382D03*
G54D14*
X19750Y-27258D03*
X18960Y-27258D03*
X18960Y-28242D03*
X19750Y-28242D03*
G54D20*
X20200Y-26000D03*
X20800Y-26000D03*
G54D26*
X32850Y-29000D03*
X32850Y-27700D03*
G54D25*
X29500Y-30200D03*
X29500Y-29500D03*
X30300Y-29850D03*
G54D27*
X29250Y-23450D03*
X30550Y-23450D03*
X27250Y-23650D03*
X28550Y-23650D03*
X26500Y-22650D03*
X27800Y-22650D03*
G54D26*
X30900Y-27650D03*
X30900Y-26350D03*
X32850Y-24350D03*
X32850Y-25650D03*
G54D20*
X27900Y-27100D03*
X28500Y-27100D03*
X27900Y-29500D03*
X28500Y-29500D03*
X27900Y-27700D03*
X28500Y-27700D03*
X27900Y-26500D03*
X28500Y-26500D03*
G54D21*
X33700Y-26300D03*
X33700Y-25700D03*
G54D20*
X29100Y-27500D03*
X29700Y-27500D03*
G54D25*
X30250Y-28600D03*
X29550Y-28600D03*
X29900Y-27800D03*
G54D20*
X33300Y-23350D03*
X32700Y-23350D03*
X32700Y-22600D03*
X33300Y-22600D03*
G54D27*
X29750Y-25600D03*
X31050Y-25600D03*
G54D15*
X26750Y-24750D03*
X31950Y-23600D03*
X33450Y-31800D03*
X23000Y-32000D03*
X32000Y-30500D03*
X21500Y-29500D03*
X21000Y-29000D03*
X21000Y-28000D03*
X22500Y-28000D03*
X23500Y-28500D03*
X34000Y-24750D03*
X34000Y-23250D03*
X34000Y-22250D03*
X18250Y-22250D03*
X17250Y-22250D03*
X17250Y-24250D03*
X21750Y-32000D03*
X17250Y-31500D03*
X19250Y-31500D03*
X21250Y-31500D03*
X23900Y-31100D03*
X29800Y-30250D03*
X19650Y-24650D03*
X26800Y-27400D03*
X30600Y-31000D03*
X30700Y-28300D03*
G54D16*
X18960Y-27258D02*
X18960Y-26440D01*
X18960Y-26440D02*
X19000Y-26400D01*
X17898Y-25382D02*
X17982Y-25382D01*
X17982Y-25382D02*
X19000Y-26400D01*
X19682Y-25382D02*
X17898Y-25382D01*
X19800Y-25500D02*
X19682Y-25382D01*
X20000Y-25700D02*
X19800Y-25500D01*
G54D28*
X20200Y-25900D02*
X20000Y-25700D01*
X20200Y-26000D02*
X20200Y-25900D01*
X20200Y-25900D02*
X19800Y-25500D01*
G54D17*
X25700Y-24200D02*
X26200Y-24200D01*
X26200Y-24200D02*
X26250Y-24250D01*
X26050Y-24750D02*
X26050Y-24450D01*
X26050Y-24450D02*
X26250Y-24250D01*
X23750Y-26700D02*
X23750Y-26450D01*
X23750Y-26450D02*
X23900Y-26300D01*
X23900Y-26300D02*
X24700Y-26300D01*
X26500Y-25200D02*
X26050Y-24750D01*
X23750Y-26700D02*
X23750Y-27500D01*
X23750Y-27500D02*
X23750Y-28250D01*
X23750Y-28250D02*
X22750Y-29250D01*
X23750Y-27500D02*
X20600Y-27500D01*
X20200Y-27100D02*
X20200Y-26000D01*
X20600Y-27500D02*
X20200Y-27100D01*
G54D28*
X22750Y-30300D02*
X22750Y-31050D01*
X22750Y-31050D02*
X22800Y-31100D01*
G54D16*
X17898Y-30114D02*
X17898Y-25382D01*
G54D17*
X26200Y-26000D02*
X26500Y-25700D01*
X26500Y-25700D02*
X26500Y-25200D01*
G54D16*
X31850Y-29550D02*
X31850Y-30450D01*
X31800Y-30500D02*
X31500Y-30500D01*
X31850Y-30450D02*
X31800Y-30500D01*
X31500Y-30500D02*
X31500Y-31600D01*
X31500Y-31600D02*
X31500Y-31750D01*
X31500Y-31750D02*
X31250Y-32000D01*
X32850Y-32000D02*
X32850Y-31850D01*
X32850Y-31850D02*
X32600Y-31600D01*
X32600Y-31600D02*
X31500Y-31600D01*
X32850Y-24350D02*
X32100Y-24350D01*
X32100Y-24350D02*
X31950Y-24500D01*
X33700Y-26300D02*
X33250Y-26300D01*
X33700Y-26300D02*
X33700Y-31600D01*
X33300Y-32000D02*
X32850Y-32000D01*
X33700Y-31600D02*
X33500Y-31800D01*
X33500Y-31800D02*
X33300Y-32000D01*
G54D17*
X32750Y-26250D02*
X33200Y-26250D01*
X33200Y-26250D02*
X33250Y-26300D01*
G54D16*
X26050Y-24750D02*
X26750Y-24750D01*
X31950Y-24500D02*
X31950Y-23600D01*
X22800Y-31100D02*
X22800Y-31600D01*
X24500Y-31700D02*
X24750Y-31450D01*
X22900Y-31700D02*
X24500Y-31700D01*
X22800Y-31600D02*
X22900Y-31700D01*
X33500Y-31800D02*
X33450Y-31800D01*
X22750Y-30300D02*
X22750Y-29250D01*
X22800Y-31100D02*
X22800Y-31800D01*
X22800Y-31800D02*
X23000Y-32000D01*
G54D17*
X26200Y-26000D02*
X25000Y-26000D01*
X25000Y-26000D02*
X24700Y-26300D01*
X33300Y-23350D02*
X33300Y-23900D01*
X33300Y-23900D02*
X32850Y-24350D01*
G54D16*
X22750Y-29250D02*
X23500Y-28500D01*
X21000Y-29000D02*
X21500Y-29500D01*
X22500Y-28000D02*
X21000Y-28000D01*
G54D17*
X34000Y-22250D02*
X34000Y-23250D01*
X17898Y-25382D02*
X17898Y-24898D01*
X17250Y-22250D02*
X18250Y-22250D01*
X17898Y-24898D02*
X17250Y-24250D01*
X21250Y-31500D02*
X21750Y-32000D01*
X17250Y-31500D02*
X19250Y-31500D01*
X28500Y-28900D02*
X28700Y-28900D01*
X31550Y-28550D02*
X31850Y-28550D01*
X31100Y-29000D02*
X31550Y-28550D01*
X28700Y-28900D02*
X28850Y-29050D01*
X28500Y-27700D02*
X28300Y-27700D01*
X28300Y-28900D02*
X28500Y-28900D01*
X28200Y-28800D02*
X28300Y-28900D01*
X28200Y-27800D02*
X28200Y-28800D01*
X28300Y-27700D02*
X28200Y-27800D01*
X28850Y-29050D02*
X28950Y-29150D01*
X30950Y-29150D02*
X31100Y-29000D01*
X28950Y-29150D02*
X30950Y-29150D01*
X31850Y-27550D02*
X31850Y-27750D01*
X28600Y-28300D02*
X28500Y-28300D01*
X28850Y-28550D02*
X28600Y-28300D01*
X31400Y-28200D02*
X31400Y-28300D01*
X31850Y-27750D02*
X31400Y-28200D01*
X28500Y-28300D02*
X28700Y-28300D01*
X28700Y-27100D02*
X28500Y-27100D01*
X28800Y-27200D02*
X28700Y-27100D01*
X28800Y-28200D02*
X28800Y-27200D01*
X28700Y-28300D02*
X28800Y-28200D01*
X31400Y-28300D02*
X31400Y-28400D01*
X31400Y-28400D02*
X31025Y-28775D01*
X31025Y-28775D02*
X30832Y-28968D01*
X28850Y-28650D02*
X28850Y-28550D01*
X29168Y-28968D02*
X28850Y-28650D01*
X30832Y-28968D02*
X29168Y-28968D01*
G54D28*
X31850Y-26550D02*
X31950Y-26550D01*
X32250Y-26850D02*
X32750Y-26850D01*
X31950Y-26550D02*
X32250Y-26850D01*
X32850Y-27700D02*
X32850Y-26950D01*
X32850Y-26950D02*
X32750Y-26850D01*
X31850Y-25550D02*
X32750Y-25550D01*
X32750Y-25550D02*
X32850Y-25650D01*
X32850Y-25650D02*
X33650Y-25650D01*
X33650Y-25650D02*
X33700Y-25700D01*
G54D17*
X32500Y-31200D02*
X32550Y-31200D01*
X32750Y-25650D02*
X32850Y-25650D01*
X32350Y-26050D02*
X32750Y-25650D01*
X32350Y-26500D02*
X32350Y-26050D01*
X32450Y-26600D02*
X32350Y-26500D01*
X32800Y-26600D02*
X32450Y-26600D01*
X32550Y-31200D02*
X33400Y-30350D01*
X33400Y-30350D02*
X33400Y-26800D01*
X33400Y-26800D02*
X33200Y-26600D01*
X33200Y-26600D02*
X32800Y-26600D01*
X33300Y-22600D02*
X33500Y-22600D01*
X33650Y-24850D02*
X32850Y-25650D01*
X33650Y-22750D02*
X33650Y-24850D01*
X33500Y-22600D02*
X33650Y-22750D01*
X30900Y-26350D02*
X30900Y-25750D01*
X30900Y-25750D02*
X31050Y-25600D01*
X31050Y-25600D02*
X31800Y-25600D01*
X31800Y-25600D02*
X31850Y-25550D01*
X26750Y-30300D02*
X26750Y-30450D01*
X26750Y-30450D02*
X25750Y-31450D01*
X27250Y-30300D02*
X27250Y-30950D01*
X27250Y-30950D02*
X26750Y-31450D01*
G54D16*
X19750Y-27258D02*
X19750Y-26550D01*
X19750Y-26550D02*
X19600Y-26400D01*
X18700Y-23500D02*
X18700Y-22800D01*
X19000Y-22500D02*
X19100Y-22500D01*
X19100Y-22500D02*
X20000Y-22500D01*
X20000Y-22500D02*
X25800Y-22500D01*
X25800Y-22500D02*
X25900Y-22500D01*
X25900Y-22500D02*
X26500Y-22500D01*
X18700Y-22800D02*
X19000Y-22500D01*
X19950Y-23500D02*
X19950Y-22550D01*
X19950Y-22550D02*
X20000Y-22500D01*
G54D28*
X23250Y-30300D02*
X23250Y-30950D01*
X23250Y-30950D02*
X23400Y-31100D01*
G54D16*
X23400Y-31100D02*
X23900Y-31100D01*
G54D17*
X26050Y-23250D02*
X26200Y-23400D01*
X26200Y-23400D02*
X26250Y-23450D01*
G54D28*
X26250Y-23650D02*
X26250Y-23450D01*
X25550Y-23250D02*
X26050Y-23250D01*
X26050Y-23250D02*
X26250Y-23450D01*
X26250Y-23450D02*
X26250Y-23650D01*
X26500Y-22500D02*
X26500Y-23100D01*
X26500Y-23100D02*
X26200Y-23400D01*
G54D16*
X30900Y-30500D02*
X29800Y-30500D01*
X29700Y-30500D02*
X29500Y-30300D01*
X29800Y-30500D02*
X29800Y-30250D01*
X25900Y-22500D02*
X26350Y-22500D01*
X26350Y-22500D02*
X26500Y-22650D01*
X18700Y-23500D02*
X18700Y-23800D01*
X18700Y-23800D02*
X19600Y-24700D01*
X19600Y-24700D02*
X19650Y-24650D01*
X29800Y-30500D02*
X29700Y-30500D01*
X29700Y-30500D02*
X29500Y-30300D01*
X29500Y-30300D02*
X29500Y-30200D01*
G54D17*
X27250Y-26700D02*
X27250Y-26950D01*
X27250Y-26950D02*
X26800Y-27400D01*
X22750Y-26350D02*
X23600Y-25500D01*
X25100Y-24200D02*
X25100Y-24800D01*
X24400Y-25500D02*
X24000Y-25500D01*
X25100Y-24800D02*
X24400Y-25500D01*
X22750Y-26700D02*
X22750Y-26350D01*
X23600Y-25500D02*
X24000Y-25500D01*
X23250Y-26700D02*
X23250Y-26250D01*
X24800Y-25500D02*
X26000Y-25500D01*
X24200Y-26100D02*
X24800Y-25500D01*
X23400Y-26100D02*
X24200Y-26100D01*
X23250Y-26250D02*
X23400Y-26100D01*
X25450Y-24750D02*
X25450Y-24950D01*
X25450Y-24950D02*
X26000Y-25500D01*
X25500Y-29700D02*
X25250Y-29950D01*
X27500Y-29700D02*
X25500Y-29700D01*
X27700Y-29900D02*
X27500Y-29700D01*
X27700Y-30000D02*
X27700Y-29900D01*
X27800Y-30100D02*
X27700Y-30000D01*
X27900Y-30100D02*
X27800Y-30100D01*
X25250Y-29950D02*
X25250Y-30300D01*
X30550Y-32000D02*
X30550Y-31450D01*
X28700Y-30100D02*
X28500Y-30100D01*
X29400Y-30800D02*
X28700Y-30100D01*
X29900Y-30800D02*
X29400Y-30800D01*
X30550Y-31450D02*
X29900Y-30800D01*
X26400Y-29900D02*
X26250Y-30050D01*
X27400Y-29900D02*
X26400Y-29900D01*
X27500Y-30000D02*
X27400Y-29900D01*
X27500Y-30500D02*
X27500Y-30000D01*
X27700Y-30700D02*
X27500Y-30500D01*
X27900Y-30700D02*
X27700Y-30700D01*
X26250Y-30050D02*
X26250Y-30300D01*
X28500Y-30700D02*
X29000Y-30700D01*
X31750Y-32400D02*
X32150Y-32000D01*
X30400Y-32400D02*
X31750Y-32400D01*
X30200Y-32200D02*
X30400Y-32400D01*
X30200Y-31400D02*
X30200Y-32200D01*
X29800Y-31000D02*
X30200Y-31400D01*
X29300Y-31000D02*
X29800Y-31000D01*
X29000Y-30700D02*
X29300Y-31000D01*
X23750Y-30300D02*
X23750Y-29850D01*
X27700Y-28300D02*
X27900Y-28300D01*
X27500Y-28500D02*
X27700Y-28300D01*
X27500Y-28700D02*
X27500Y-28500D01*
X27100Y-29100D02*
X27500Y-28700D01*
X24500Y-29100D02*
X27100Y-29100D01*
X23750Y-29850D02*
X24500Y-29100D01*
X24700Y-29300D02*
X24250Y-29750D01*
X27200Y-29300D02*
X24700Y-29300D01*
X27600Y-28900D02*
X27200Y-29300D01*
X27900Y-28900D02*
X27600Y-28900D01*
X24250Y-29750D02*
X24250Y-30300D01*
X29900Y-27800D02*
X29900Y-27700D01*
X29900Y-27700D02*
X29700Y-27500D01*
X30000Y-24900D02*
X30200Y-25100D01*
X29700Y-27200D02*
X29700Y-27500D01*
X30200Y-26700D02*
X29700Y-27200D01*
X30200Y-25100D02*
X30200Y-26700D01*
G54D28*
X30550Y-23650D02*
X30750Y-23850D01*
X30000Y-24300D02*
X30550Y-24300D01*
X30550Y-24300D02*
X30750Y-24500D01*
X30550Y-23450D02*
X30550Y-23650D01*
X30750Y-23850D02*
X30750Y-24500D01*
G54D17*
X20550Y-23500D02*
X21400Y-23500D01*
X21400Y-23500D02*
X21500Y-23400D01*
X19300Y-23500D02*
X19300Y-23800D01*
X22750Y-23850D02*
X22750Y-23400D01*
X22600Y-24000D02*
X22750Y-23850D01*
X19500Y-24000D02*
X22600Y-24000D01*
X19300Y-23800D02*
X19500Y-24000D01*
X24800Y-23400D02*
X24950Y-23250D01*
G54D28*
X24800Y-23400D02*
X24950Y-23250D01*
G54D17*
X24000Y-23400D02*
X24800Y-23400D01*
X21500Y-25500D02*
X21250Y-25750D01*
X21500Y-24600D02*
X21500Y-25500D01*
X21250Y-25750D02*
X21250Y-26700D01*
X28550Y-23650D02*
X29050Y-23650D01*
X29050Y-23650D02*
X29250Y-23450D01*
X29000Y-24400D02*
X29000Y-24100D01*
X29000Y-24100D02*
X29000Y-23700D01*
X29000Y-23700D02*
X29250Y-23450D01*
X28750Y-24400D02*
X29000Y-24150D01*
X29000Y-24150D02*
X29000Y-24100D01*
X26750Y-26700D02*
X26750Y-26550D01*
X28550Y-26050D02*
X29000Y-25600D01*
X27650Y-26050D02*
X28550Y-26050D01*
X27450Y-26250D02*
X27650Y-26050D01*
X27050Y-26250D02*
X27450Y-26250D01*
X26750Y-26550D02*
X27050Y-26250D01*
X28750Y-25600D02*
X28750Y-25850D01*
X28750Y-25850D02*
X28550Y-26050D01*
X27250Y-23650D02*
X27250Y-23900D01*
X27250Y-23900D02*
X27750Y-24400D01*
X27800Y-22500D02*
X27800Y-22600D01*
X27250Y-23150D02*
X27250Y-23650D01*
X27800Y-22600D02*
X27400Y-23000D01*
X27400Y-23000D02*
X27250Y-23150D01*
X27800Y-22650D02*
X27750Y-22650D01*
X27750Y-22650D02*
X27400Y-23000D01*
X27250Y-23650D02*
X27250Y-24100D01*
X27250Y-24100D02*
X27550Y-24400D01*
X27750Y-25600D02*
X27750Y-25650D01*
X26250Y-26600D02*
X26250Y-26700D01*
X26600Y-26250D02*
X26250Y-26600D01*
X26750Y-26250D02*
X26600Y-26250D01*
X26950Y-26050D02*
X26750Y-26250D01*
X27350Y-26050D02*
X26950Y-26050D01*
X27750Y-25650D02*
X27400Y-26000D01*
X27400Y-26000D02*
X27350Y-26050D01*
X27550Y-25600D02*
X27550Y-25850D01*
X27550Y-25850D02*
X27400Y-26000D01*
X21750Y-26050D02*
X22750Y-25050D01*
X21750Y-26700D02*
X21750Y-26050D01*
X22750Y-25050D02*
X22750Y-24600D01*
X24000Y-24600D02*
X23900Y-24600D01*
X22250Y-26250D02*
X22250Y-26700D01*
X23900Y-24600D02*
X22250Y-26250D01*
X25750Y-26700D02*
X25750Y-26450D01*
X32650Y-22550D02*
X32700Y-22600D01*
X30150Y-22550D02*
X32650Y-22550D01*
X29850Y-22850D02*
X30150Y-22550D01*
X29850Y-23850D02*
X29850Y-22850D01*
X29650Y-24050D02*
X29850Y-23850D01*
X29600Y-24050D02*
X29650Y-24050D01*
X29500Y-24150D02*
X29600Y-24050D01*
X29500Y-24900D02*
X29500Y-24150D01*
X29400Y-25000D02*
X29500Y-24900D01*
X25750Y-26450D02*
X25950Y-26250D01*
X25950Y-26250D02*
X26300Y-26250D01*
X26300Y-26250D02*
X26850Y-25700D01*
X26850Y-25700D02*
X26850Y-25300D01*
X26850Y-25300D02*
X27150Y-25000D01*
X27150Y-25000D02*
X29400Y-25000D01*
X32700Y-23350D02*
X32700Y-22600D01*
X27600Y-27100D02*
X27600Y-26800D01*
X27400Y-27300D02*
X27600Y-27100D01*
X25250Y-26700D02*
X25250Y-27650D01*
X27100Y-27800D02*
X27400Y-27500D01*
X25400Y-27800D02*
X27100Y-27800D01*
X25250Y-27650D02*
X25400Y-27800D01*
X27600Y-26800D02*
X27900Y-26500D01*
X27400Y-27500D02*
X27400Y-27300D01*
X27900Y-27100D02*
X27600Y-27400D01*
X27600Y-27500D02*
X27600Y-27400D01*
X27400Y-27800D02*
X27600Y-27600D01*
X27600Y-27600D02*
X27600Y-27500D01*
X27400Y-27800D02*
X27300Y-27900D01*
X24750Y-27750D02*
X24750Y-26700D01*
X25000Y-28000D02*
X24750Y-27750D01*
X27200Y-28000D02*
X25000Y-28000D01*
X27300Y-27900D02*
X27200Y-28000D01*
X27900Y-27700D02*
X27800Y-27700D01*
X24250Y-27600D02*
X24250Y-27500D01*
X24250Y-27500D02*
X24250Y-26700D01*
X27800Y-27700D02*
X27500Y-28000D01*
X24250Y-27600D02*
X24250Y-27950D01*
X27300Y-28200D02*
X27500Y-28000D01*
X24500Y-28200D02*
X27300Y-28200D01*
X24250Y-27950D02*
X24500Y-28200D01*
G54D28*
X20750Y-26700D02*
X20750Y-26050D01*
X20750Y-26050D02*
X20800Y-26000D01*
G54D17*
X20750Y-29750D02*
X19750Y-28750D01*
X20750Y-30300D02*
X20750Y-29750D01*
X19750Y-28750D02*
X19750Y-28242D01*
X18960Y-28242D02*
X18960Y-28260D01*
X21250Y-30850D02*
X21250Y-30300D01*
X21200Y-30900D02*
X21250Y-30850D01*
X20500Y-30900D02*
X21200Y-30900D01*
X20400Y-30800D02*
X20500Y-30900D01*
X20400Y-29700D02*
X20400Y-30800D01*
X18960Y-28260D02*
X20400Y-29700D01*
X25100Y-29500D02*
X24750Y-29850D01*
X27900Y-29500D02*
X25100Y-29500D01*
X24750Y-29850D02*
X24750Y-30300D01*
X30900Y-31200D02*
X30800Y-31200D01*
X30600Y-31000D02*
X30800Y-31200D01*
X29550Y-28550D02*
X29550Y-28600D01*
X29550Y-28550D02*
X29900Y-28200D01*
X29900Y-28200D02*
X30200Y-28200D01*
X29550Y-28600D02*
X29300Y-28600D01*
X29100Y-28400D02*
X29100Y-27500D01*
X29300Y-28600D02*
X29100Y-28400D01*
X30200Y-28200D02*
X30600Y-28200D01*
X30600Y-28200D02*
X30700Y-28300D01*
X31400Y-29050D02*
X32800Y-29050D01*
X30650Y-29800D02*
X31400Y-29050D01*
X30300Y-29800D02*
X30500Y-29800D01*
X30500Y-29800D02*
X30650Y-29800D01*
X32800Y-29050D02*
X32850Y-29000D01*
X30300Y-29850D02*
X30450Y-29850D01*
X30450Y-29850D02*
X30500Y-29800D01*
X28500Y-29500D02*
X29200Y-29500D01*
X29200Y-29500D02*
X29450Y-29500D01*
X29450Y-29500D02*
X29500Y-29450D01*
X29200Y-29500D02*
X29500Y-29500D01*
X30900Y-27650D02*
X30900Y-27700D01*
X30368Y-28718D02*
X30250Y-28600D01*
X30782Y-28718D02*
X30368Y-28718D01*
X31176Y-28324D02*
X30782Y-28718D01*
X31176Y-27976D02*
X31176Y-28324D01*
X30900Y-27700D02*
X31176Y-27976D01*
X29750Y-25600D02*
X29750Y-26050D01*
X29300Y-26500D02*
X28500Y-26500D01*
X29750Y-26050D02*
X29300Y-26500D01*
G54D18*
X34350Y-21900D02*
X34350Y-32350D01*
X34300Y-21900D02*
X34300Y-32350D01*
X34250Y-21900D02*
X34250Y-32350D01*
X34200Y-21900D02*
X34200Y-32350D01*
X34150Y-21900D02*
X34150Y-32350D01*
X34100Y-26050D02*
X34100Y-32350D01*
X34100Y-21900D02*
X34100Y-25350D01*
X34050Y-26050D02*
X34050Y-32350D01*
X34050Y-21900D02*
X34050Y-25350D01*
X34000Y-26050D02*
X34000Y-32350D01*
X34000Y-21900D02*
X34000Y-25350D01*
X33950Y-26050D02*
X33950Y-32350D01*
X33950Y-21900D02*
X33950Y-25350D01*
X33900Y-26050D02*
X33900Y-32350D01*
X33900Y-24950D02*
X33900Y-25350D01*
X33900Y-21900D02*
X33900Y-22650D01*
X33850Y-26050D02*
X33850Y-32350D01*
X33850Y-25050D02*
X33850Y-25350D01*
X33850Y-21900D02*
X33850Y-22550D01*
X33800Y-26050D02*
X33800Y-32350D01*
X33800Y-25100D02*
X33800Y-25350D01*
X33800Y-21900D02*
X33800Y-22500D01*
X33750Y-26050D02*
X33750Y-32350D01*
X33750Y-25150D02*
X33750Y-25350D01*
X33750Y-21900D02*
X33750Y-22450D01*
X33700Y-26050D02*
X33700Y-32350D01*
X33700Y-25200D02*
X33700Y-25350D01*
X33700Y-21900D02*
X33700Y-22400D01*
X33650Y-30450D02*
X33650Y-32350D01*
X33650Y-26050D02*
X33650Y-26700D01*
X33650Y-25250D02*
X33650Y-25350D01*
X33650Y-21900D02*
X33650Y-22350D01*
X33600Y-30550D02*
X33600Y-32350D01*
X33600Y-26050D02*
X33600Y-26600D01*
X33600Y-25300D02*
X33600Y-25350D01*
X33600Y-21900D02*
X33600Y-22150D01*
X33550Y-30600D02*
X33550Y-32350D01*
X33550Y-26050D02*
X33550Y-26550D01*
X33550Y-21900D02*
X33550Y-22150D01*
X33500Y-30650D02*
X33500Y-32350D01*
X33500Y-26050D02*
X33500Y-26500D01*
X33500Y-21900D02*
X33500Y-22150D01*
X33450Y-30700D02*
X33450Y-32350D01*
X33450Y-26200D02*
X33450Y-26450D01*
X33450Y-21900D02*
X33450Y-22150D01*
X33400Y-30750D02*
X33400Y-32350D01*
X33400Y-26200D02*
X33400Y-26400D01*
X33400Y-21900D02*
X33400Y-22150D01*
X33350Y-30800D02*
X33350Y-32350D01*
X33350Y-26200D02*
X33350Y-26350D01*
X33350Y-23050D02*
X33350Y-24750D01*
X33350Y-21900D02*
X33350Y-22150D01*
X33300Y-30850D02*
X33300Y-32350D01*
X33300Y-26200D02*
X33300Y-26350D01*
X33300Y-23050D02*
X33300Y-24800D01*
X33300Y-21900D02*
X33300Y-22150D01*
X33250Y-30900D02*
X33250Y-32350D01*
X33250Y-26200D02*
X33250Y-26300D01*
X33250Y-23050D02*
X33250Y-24850D01*
X33250Y-21900D02*
X33250Y-22150D01*
X33200Y-30950D02*
X33200Y-32350D01*
X33200Y-26200D02*
X33200Y-26300D01*
X33200Y-23050D02*
X33200Y-24900D01*
X33200Y-21900D02*
X33200Y-22150D01*
X33150Y-31000D02*
X33150Y-32350D01*
X33150Y-26200D02*
X33150Y-26300D01*
X33150Y-23050D02*
X33150Y-24950D01*
X33150Y-21900D02*
X33150Y-22150D01*
X33100Y-31050D02*
X33100Y-32350D01*
X33100Y-29550D02*
X33100Y-30250D01*
X33100Y-26200D02*
X33100Y-26300D01*
X33100Y-23050D02*
X33100Y-25000D01*
X33100Y-21900D02*
X33100Y-22150D01*
X33050Y-31100D02*
X33050Y-32350D01*
X33050Y-29550D02*
X33050Y-30300D01*
X33050Y-26200D02*
X33050Y-26300D01*
X33050Y-23050D02*
X33050Y-25050D01*
X33050Y-21900D02*
X33050Y-22150D01*
X33000Y-31150D02*
X33000Y-32350D01*
X33000Y-29550D02*
X33000Y-30350D01*
X33000Y-26200D02*
X33000Y-26300D01*
X33000Y-23800D02*
X33000Y-25100D01*
X33000Y-21900D02*
X33000Y-22150D01*
X32950Y-31200D02*
X32950Y-32350D01*
X32950Y-29550D02*
X32950Y-30400D01*
X32950Y-26200D02*
X32950Y-26300D01*
X32950Y-23800D02*
X32950Y-25100D01*
X32950Y-21900D02*
X32950Y-22150D01*
X32900Y-31250D02*
X32900Y-32350D01*
X32900Y-29550D02*
X32900Y-30450D01*
X32900Y-26200D02*
X32900Y-26300D01*
X32900Y-23800D02*
X32900Y-25100D01*
X32900Y-21900D02*
X32900Y-22150D01*
X32850Y-31600D02*
X32850Y-32350D01*
X32850Y-29550D02*
X32850Y-30500D01*
X32850Y-26200D02*
X32850Y-26300D01*
X32850Y-23800D02*
X32850Y-25100D01*
X32850Y-21900D02*
X32850Y-22150D01*
X32800Y-31600D02*
X32800Y-32350D01*
X32800Y-29550D02*
X32800Y-30550D01*
X32800Y-26200D02*
X32800Y-26300D01*
X32800Y-23800D02*
X32800Y-25100D01*
X32800Y-21900D02*
X32800Y-22150D01*
X32750Y-31600D02*
X32750Y-32350D01*
X32750Y-29550D02*
X32750Y-30600D01*
X32750Y-26200D02*
X32750Y-26300D01*
X32750Y-23800D02*
X32750Y-25100D01*
X32750Y-21900D02*
X32750Y-22150D01*
X32700Y-31600D02*
X32700Y-32350D01*
X32700Y-29550D02*
X32700Y-30650D01*
X32700Y-26200D02*
X32700Y-26300D01*
X32700Y-23800D02*
X32700Y-25100D01*
X32700Y-21900D02*
X32700Y-22150D01*
X32650Y-31600D02*
X32650Y-32350D01*
X32650Y-29550D02*
X32650Y-30700D01*
X32650Y-26200D02*
X32650Y-26300D01*
X32650Y-23800D02*
X32650Y-25100D01*
X32650Y-21900D02*
X32650Y-22150D01*
X32600Y-31600D02*
X32600Y-32350D01*
X32600Y-29550D02*
X32600Y-30750D01*
X32600Y-23800D02*
X32600Y-25100D01*
X32600Y-21900D02*
X32600Y-22150D01*
X32550Y-31600D02*
X32550Y-32350D01*
X32550Y-29550D02*
X32550Y-30800D01*
X32550Y-23800D02*
X32550Y-25100D01*
X32550Y-21900D02*
X32550Y-22150D01*
X32500Y-29550D02*
X32500Y-30800D01*
X32500Y-23800D02*
X32500Y-25100D01*
X32500Y-21900D02*
X32500Y-22150D01*
X32450Y-29550D02*
X32450Y-30800D01*
X32450Y-23800D02*
X32450Y-25100D01*
X32450Y-21900D02*
X32450Y-22150D01*
X32400Y-29550D02*
X32400Y-30800D01*
X32400Y-23800D02*
X32400Y-25100D01*
X32400Y-21900D02*
X32400Y-22150D01*
X32350Y-29550D02*
X32350Y-30800D01*
X32350Y-22850D02*
X32350Y-25100D01*
X32350Y-21900D02*
X32350Y-22250D01*
X32300Y-29550D02*
X32300Y-30800D01*
X32300Y-22850D02*
X32300Y-25100D01*
X32300Y-21900D02*
X32300Y-22250D01*
X32250Y-29550D02*
X32250Y-30800D01*
X32250Y-22850D02*
X32250Y-25100D01*
X32250Y-21900D02*
X32250Y-22250D01*
X32200Y-29350D02*
X32200Y-30800D01*
X32200Y-22850D02*
X32200Y-25100D01*
X32200Y-21900D02*
X32200Y-22250D01*
X32150Y-29350D02*
X32150Y-30800D01*
X32150Y-22850D02*
X32150Y-25050D01*
X32150Y-21900D02*
X32150Y-22250D01*
X32100Y-29350D02*
X32100Y-31600D01*
X32100Y-22850D02*
X32100Y-25050D01*
X32100Y-21900D02*
X32100Y-22250D01*
X32050Y-29350D02*
X32050Y-31600D01*
X32050Y-22850D02*
X32050Y-25000D01*
X32050Y-21900D02*
X32050Y-22250D01*
X32000Y-29350D02*
X32000Y-31600D01*
X32000Y-22850D02*
X32000Y-25000D01*
X32000Y-21900D02*
X32000Y-22250D01*
X31950Y-29350D02*
X31950Y-31600D01*
X31950Y-22850D02*
X31950Y-25000D01*
X31950Y-21900D02*
X31950Y-22250D01*
X31900Y-29350D02*
X31900Y-31600D01*
X31900Y-22850D02*
X31900Y-25000D01*
X31900Y-21900D02*
X31900Y-22250D01*
X31850Y-29350D02*
X31850Y-31600D01*
X31850Y-22850D02*
X31850Y-25000D01*
X31850Y-21900D02*
X31850Y-22250D01*
X31800Y-29350D02*
X31800Y-31600D01*
X31800Y-22850D02*
X31800Y-25000D01*
X31800Y-21900D02*
X31800Y-22250D01*
X31750Y-29350D02*
X31750Y-32000D01*
X31750Y-22850D02*
X31750Y-25000D01*
X31750Y-21900D02*
X31750Y-22250D01*
X31700Y-29350D02*
X31700Y-32050D01*
X31700Y-22850D02*
X31700Y-25000D01*
X31700Y-21900D02*
X31700Y-22250D01*
X31650Y-29350D02*
X31650Y-32100D01*
X31650Y-22850D02*
X31650Y-25000D01*
X31650Y-21900D02*
X31650Y-22250D01*
X31600Y-29350D02*
X31600Y-32100D01*
X31600Y-22850D02*
X31600Y-25050D01*
X31600Y-21900D02*
X31600Y-22250D01*
X31550Y-29350D02*
X31550Y-32100D01*
X31550Y-22850D02*
X31550Y-24950D01*
X31550Y-21900D02*
X31550Y-22250D01*
X31500Y-29350D02*
X31500Y-32100D01*
X31500Y-22850D02*
X31500Y-24950D01*
X31500Y-21900D02*
X31500Y-22250D01*
X31450Y-29400D02*
X31450Y-32100D01*
X31450Y-22850D02*
X31450Y-24950D01*
X31450Y-21900D02*
X31450Y-22250D01*
X31400Y-29450D02*
X31400Y-32100D01*
X31400Y-22850D02*
X31400Y-24950D01*
X31400Y-21900D02*
X31400Y-22250D01*
X31350Y-29500D02*
X31350Y-32100D01*
X31350Y-22850D02*
X31350Y-24950D01*
X31350Y-21900D02*
X31350Y-22250D01*
X31300Y-29550D02*
X31300Y-32100D01*
X31300Y-22850D02*
X31300Y-24950D01*
X31300Y-21900D02*
X31300Y-22250D01*
X31250Y-31600D02*
X31250Y-32100D01*
X31250Y-30550D02*
X31250Y-30800D01*
X31250Y-29600D02*
X31250Y-30450D01*
X31250Y-22850D02*
X31250Y-24950D01*
X31250Y-21900D02*
X31250Y-22250D01*
X31200Y-31600D02*
X31200Y-32100D01*
X31200Y-29650D02*
X31200Y-30050D01*
X31200Y-22850D02*
X31200Y-23750D01*
X31200Y-21900D02*
X31200Y-22250D01*
X31150Y-31600D02*
X31150Y-32100D01*
X31150Y-29700D02*
X31150Y-30050D01*
X31150Y-22850D02*
X31150Y-23750D01*
X31150Y-21900D02*
X31150Y-22250D01*
X31100Y-31600D02*
X31100Y-32100D01*
X31100Y-29750D02*
X31100Y-30050D01*
X31100Y-22850D02*
X31100Y-23750D01*
X31100Y-21900D02*
X31100Y-22250D01*
X31050Y-31600D02*
X31050Y-32100D01*
X31050Y-29800D02*
X31050Y-30050D01*
X31050Y-21900D02*
X31050Y-22250D01*
X31000Y-31600D02*
X31000Y-32100D01*
X31000Y-29850D02*
X31000Y-30050D01*
X31000Y-21900D02*
X31000Y-22250D01*
X30950Y-31600D02*
X30950Y-32100D01*
X30950Y-29900D02*
X30950Y-30050D01*
X30950Y-21900D02*
X30950Y-22250D01*
X30900Y-29950D02*
X30900Y-30050D01*
X30900Y-21900D02*
X30900Y-22250D01*
X30850Y-30000D02*
X30850Y-30050D01*
X30850Y-21900D02*
X30850Y-22250D01*
X30800Y-21900D02*
X30800Y-22250D01*
X30750Y-21900D02*
X30750Y-22250D01*
X30700Y-21900D02*
X30700Y-22250D01*
X30650Y-21900D02*
X30650Y-22250D01*
X30600Y-21900D02*
X30600Y-22250D01*
X30550Y-21900D02*
X30550Y-22250D01*
X30500Y-21900D02*
X30500Y-22250D01*
X30450Y-21900D02*
X30450Y-22250D01*
X30400Y-21900D02*
X30400Y-22250D01*
X30350Y-21900D02*
X30350Y-22250D01*
X30300Y-21900D02*
X30300Y-22250D01*
X30250Y-21900D02*
X30250Y-22250D01*
X30200Y-21900D02*
X30200Y-22250D01*
X30150Y-21900D02*
X30150Y-22250D01*
X30100Y-21900D02*
X30100Y-22250D01*
X30050Y-21900D02*
X30050Y-22300D01*
X30000Y-21900D02*
X30000Y-22300D01*
X29950Y-32300D02*
X29950Y-32350D01*
X29950Y-21900D02*
X29950Y-22350D01*
X29900Y-31500D02*
X29900Y-32350D01*
X29900Y-21900D02*
X29900Y-22400D01*
X29850Y-31450D02*
X29850Y-32350D01*
X29850Y-21900D02*
X29850Y-22450D01*
X29800Y-31400D02*
X29800Y-32350D01*
X29800Y-21900D02*
X29800Y-22500D01*
X29750Y-31350D02*
X29750Y-32350D01*
X29750Y-21900D02*
X29750Y-22550D01*
X29700Y-31300D02*
X29700Y-32350D01*
X29700Y-21900D02*
X29700Y-22600D01*
X29650Y-31300D02*
X29650Y-32350D01*
X29650Y-21900D02*
X29650Y-22650D01*
X29600Y-31300D02*
X29600Y-32350D01*
X29600Y-21900D02*
X29600Y-22750D01*
X29550Y-31300D02*
X29550Y-32350D01*
X29550Y-21900D02*
X29550Y-22800D01*
X29500Y-31300D02*
X29500Y-32350D01*
X29500Y-21900D02*
X29500Y-22800D01*
X29450Y-31300D02*
X29450Y-32350D01*
X29450Y-21900D02*
X29450Y-22800D01*
X29400Y-31300D02*
X29400Y-32350D01*
X29400Y-21900D02*
X29400Y-22800D01*
X29350Y-31300D02*
X29350Y-32350D01*
X29350Y-21900D02*
X29350Y-22800D01*
X29300Y-31300D02*
X29300Y-32350D01*
X29300Y-21900D02*
X29300Y-22800D01*
X29250Y-31700D02*
X29250Y-32350D01*
X29250Y-21900D02*
X29250Y-22800D01*
X29200Y-31800D02*
X29200Y-32350D01*
X29200Y-21900D02*
X29200Y-22800D01*
X29150Y-31850D02*
X29150Y-32350D01*
X29150Y-21900D02*
X29150Y-22800D01*
X29100Y-31900D02*
X29100Y-32350D01*
X29100Y-21900D02*
X29100Y-22800D01*
X29050Y-31950D02*
X29050Y-32350D01*
X29050Y-21900D02*
X29050Y-22800D01*
X29000Y-31950D02*
X29000Y-32350D01*
X29000Y-21900D02*
X29000Y-22800D01*
X28950Y-32000D02*
X28950Y-32350D01*
X28950Y-21900D02*
X28950Y-22800D01*
X28900Y-32000D02*
X28900Y-32350D01*
X28900Y-21900D02*
X28900Y-22800D01*
X28850Y-32000D02*
X28850Y-32350D01*
X28850Y-21900D02*
X28850Y-22800D01*
X28800Y-32000D02*
X28800Y-32350D01*
X28800Y-21900D02*
X28800Y-22800D01*
X28750Y-32000D02*
X28750Y-32350D01*
X28750Y-21900D02*
X28750Y-22800D01*
X28700Y-32000D02*
X28700Y-32350D01*
X28700Y-21900D02*
X28700Y-23000D01*
X28650Y-32000D02*
X28650Y-32350D01*
X28650Y-21900D02*
X28650Y-23000D01*
X28600Y-32000D02*
X28600Y-32350D01*
X28600Y-21900D02*
X28600Y-23000D01*
X28550Y-32000D02*
X28550Y-32350D01*
X28550Y-21900D02*
X28550Y-23000D01*
X28500Y-31950D02*
X28500Y-32350D01*
X28500Y-21900D02*
X28500Y-23000D01*
X28450Y-31950D02*
X28450Y-32350D01*
X28450Y-21900D02*
X28450Y-23000D01*
X28400Y-31900D02*
X28400Y-32350D01*
X28400Y-21900D02*
X28400Y-23000D01*
X28350Y-31850D02*
X28350Y-32350D01*
X28350Y-21900D02*
X28350Y-23000D01*
X28300Y-31800D02*
X28300Y-32350D01*
X28300Y-21900D02*
X28300Y-22000D01*
X28250Y-31700D02*
X28250Y-32350D01*
X28250Y-21900D02*
X28250Y-22000D01*
X28200Y-31800D02*
X28200Y-32350D01*
X28200Y-21900D02*
X28200Y-22000D01*
X28150Y-31850D02*
X28150Y-32350D01*
X28150Y-21900D02*
X28150Y-22000D01*
X28100Y-31900D02*
X28100Y-32350D01*
X28100Y-21900D02*
X28100Y-22000D01*
X28050Y-31950D02*
X28050Y-32350D01*
X28050Y-21900D02*
X28050Y-22000D01*
X28000Y-31950D02*
X28000Y-32350D01*
X28000Y-21900D02*
X28000Y-22000D01*
X27950Y-32000D02*
X27950Y-32350D01*
X27950Y-21900D02*
X27950Y-22000D01*
X27900Y-32000D02*
X27900Y-32350D01*
X27900Y-21900D02*
X27900Y-22000D01*
X27850Y-32000D02*
X27850Y-32350D01*
X27850Y-21900D02*
X27850Y-22000D01*
X27800Y-32000D02*
X27800Y-32350D01*
X27800Y-21900D02*
X27800Y-22000D01*
X27750Y-32000D02*
X27750Y-32350D01*
X27750Y-21900D02*
X27750Y-22000D01*
X27700Y-32000D02*
X27700Y-32350D01*
X27700Y-21900D02*
X27700Y-22000D01*
X27650Y-32000D02*
X27650Y-32350D01*
X27650Y-21900D02*
X27650Y-22000D01*
X27600Y-32000D02*
X27600Y-32350D01*
X27600Y-21900D02*
X27600Y-22000D01*
X27550Y-32000D02*
X27550Y-32350D01*
X27550Y-21900D02*
X27550Y-22000D01*
X27500Y-31950D02*
X27500Y-32350D01*
X27500Y-21900D02*
X27500Y-22000D01*
X27450Y-31950D02*
X27450Y-32350D01*
X27450Y-21900D02*
X27450Y-22000D01*
X27400Y-31900D02*
X27400Y-32350D01*
X27400Y-21900D02*
X27400Y-22000D01*
X27350Y-31850D02*
X27350Y-32350D01*
X27350Y-21900D02*
X27350Y-22000D01*
X27300Y-31800D02*
X27300Y-32350D01*
X27300Y-21900D02*
X27300Y-22000D01*
X27250Y-31700D02*
X27250Y-32350D01*
X27250Y-21900D02*
X27250Y-22750D01*
X27200Y-31800D02*
X27200Y-32350D01*
X27200Y-28500D02*
X27200Y-28600D01*
X27200Y-21900D02*
X27200Y-22800D01*
X27150Y-31850D02*
X27150Y-32350D01*
X27150Y-28500D02*
X27150Y-28650D01*
X27150Y-21900D02*
X27150Y-22850D01*
X27100Y-31900D02*
X27100Y-32350D01*
X27100Y-28500D02*
X27100Y-28700D01*
X27100Y-21900D02*
X27100Y-22900D01*
X27050Y-31950D02*
X27050Y-32350D01*
X27050Y-28500D02*
X27050Y-28750D01*
X27050Y-21900D02*
X27050Y-22950D01*
X27000Y-31950D02*
X27000Y-32350D01*
X27000Y-28500D02*
X27000Y-28800D01*
X27000Y-21900D02*
X27000Y-22000D01*
X26950Y-32000D02*
X26950Y-32350D01*
X26950Y-28500D02*
X26950Y-28800D01*
X26950Y-21900D02*
X26950Y-22000D01*
X26900Y-32000D02*
X26900Y-32350D01*
X26900Y-28500D02*
X26900Y-28800D01*
X26900Y-21900D02*
X26900Y-22000D01*
X26850Y-32000D02*
X26850Y-32350D01*
X26850Y-28500D02*
X26850Y-28800D01*
X26850Y-21900D02*
X26850Y-22000D01*
X26800Y-32000D02*
X26800Y-32350D01*
X26800Y-28500D02*
X26800Y-28800D01*
X26800Y-24300D02*
X26800Y-24950D01*
X26800Y-21900D02*
X26800Y-22000D01*
X26750Y-32000D02*
X26750Y-32350D01*
X26750Y-28500D02*
X26750Y-28800D01*
X26750Y-24300D02*
X26750Y-25000D01*
X26750Y-21900D02*
X26750Y-22000D01*
X26700Y-32000D02*
X26700Y-32350D01*
X26700Y-28500D02*
X26700Y-28800D01*
X26700Y-23350D02*
X26700Y-25050D01*
X26700Y-21900D02*
X26700Y-22000D01*
X26650Y-32000D02*
X26650Y-32350D01*
X26650Y-28500D02*
X26650Y-28800D01*
X26650Y-24000D02*
X26650Y-25100D01*
X26650Y-21900D02*
X26650Y-22000D01*
X26600Y-32000D02*
X26600Y-32350D01*
X26600Y-28500D02*
X26600Y-28800D01*
X26600Y-24000D02*
X26600Y-25200D01*
X26600Y-21900D02*
X26600Y-22000D01*
X26550Y-32000D02*
X26550Y-32350D01*
X26550Y-28500D02*
X26550Y-28800D01*
X26550Y-24000D02*
X26550Y-25600D01*
X26550Y-21900D02*
X26550Y-22000D01*
X26500Y-31950D02*
X26500Y-32350D01*
X26500Y-28500D02*
X26500Y-28800D01*
X26500Y-24000D02*
X26500Y-25250D01*
X26500Y-21900D02*
X26500Y-22000D01*
X26450Y-31950D02*
X26450Y-32350D01*
X26450Y-28500D02*
X26450Y-28800D01*
X26450Y-24000D02*
X26450Y-25150D01*
X26450Y-21900D02*
X26450Y-22000D01*
X26400Y-31900D02*
X26400Y-32350D01*
X26400Y-28500D02*
X26400Y-28800D01*
X26400Y-24000D02*
X26400Y-25100D01*
X26400Y-21900D02*
X26400Y-22000D01*
X26350Y-31850D02*
X26350Y-32350D01*
X26350Y-28500D02*
X26350Y-28800D01*
X26350Y-24000D02*
X26350Y-25050D01*
X26350Y-21900D02*
X26350Y-22000D01*
X26300Y-31800D02*
X26300Y-32350D01*
X26300Y-28500D02*
X26300Y-28800D01*
X26300Y-24000D02*
X26300Y-25000D01*
X26300Y-21900D02*
X26300Y-22000D01*
X26250Y-31700D02*
X26250Y-32350D01*
X26250Y-28500D02*
X26250Y-28800D01*
X26250Y-24000D02*
X26250Y-25000D01*
X26250Y-21900D02*
X26250Y-22000D01*
X26200Y-31800D02*
X26200Y-32350D01*
X26200Y-28500D02*
X26200Y-28800D01*
X26200Y-24000D02*
X26200Y-24950D01*
X26200Y-21900D02*
X26200Y-22000D01*
X26150Y-31850D02*
X26150Y-32350D01*
X26150Y-28500D02*
X26150Y-28800D01*
X26150Y-24000D02*
X26150Y-24950D01*
X26150Y-21900D02*
X26150Y-22000D01*
X26100Y-31900D02*
X26100Y-32350D01*
X26100Y-28500D02*
X26100Y-28800D01*
X26100Y-24000D02*
X26100Y-24950D01*
X26100Y-21900D02*
X26100Y-22000D01*
X26050Y-31950D02*
X26050Y-32350D01*
X26050Y-28500D02*
X26050Y-28800D01*
X26050Y-24000D02*
X26050Y-24950D01*
X26050Y-21900D02*
X26050Y-22000D01*
X26000Y-31950D02*
X26000Y-32350D01*
X26000Y-28500D02*
X26000Y-28800D01*
X26000Y-24000D02*
X26000Y-24950D01*
X26000Y-21900D02*
X26000Y-22000D01*
X25950Y-32000D02*
X25950Y-32350D01*
X25950Y-30800D02*
X25950Y-30850D01*
X25950Y-28500D02*
X25950Y-28800D01*
X25950Y-24000D02*
X25950Y-24950D01*
X25950Y-21900D02*
X25950Y-22100D01*
X25900Y-32000D02*
X25900Y-32350D01*
X25900Y-30800D02*
X25900Y-30900D01*
X25900Y-28500D02*
X25900Y-28800D01*
X25900Y-24000D02*
X25900Y-24950D01*
X25900Y-21900D02*
X25900Y-22100D01*
X25850Y-32000D02*
X25850Y-32350D01*
X25850Y-30800D02*
X25850Y-30900D01*
X25850Y-28500D02*
X25850Y-28800D01*
X25850Y-24000D02*
X25850Y-24950D01*
X25850Y-21900D02*
X25850Y-22100D01*
X25800Y-32000D02*
X25800Y-32350D01*
X25800Y-30800D02*
X25800Y-30900D01*
X25800Y-28500D02*
X25800Y-28800D01*
X25800Y-23700D02*
X25800Y-24900D01*
X25800Y-21900D02*
X25800Y-22100D01*
X25750Y-32000D02*
X25750Y-32350D01*
X25750Y-30800D02*
X25750Y-30900D01*
X25750Y-28500D02*
X25750Y-28800D01*
X25750Y-26000D02*
X25750Y-26050D01*
X25750Y-23700D02*
X25750Y-24300D01*
X25750Y-21900D02*
X25750Y-22100D01*
X25700Y-32000D02*
X25700Y-32350D01*
X25700Y-30800D02*
X25700Y-30900D01*
X25700Y-28500D02*
X25700Y-28800D01*
X25700Y-26000D02*
X25700Y-26100D01*
X25700Y-23700D02*
X25700Y-24300D01*
X25700Y-21900D02*
X25700Y-22100D01*
X25650Y-32000D02*
X25650Y-32350D01*
X25650Y-30800D02*
X25650Y-30900D01*
X25650Y-28500D02*
X25650Y-28800D01*
X25650Y-25950D02*
X25650Y-26150D01*
X25650Y-23700D02*
X25650Y-24300D01*
X25650Y-21900D02*
X25650Y-22100D01*
X25600Y-32000D02*
X25600Y-32350D01*
X25600Y-30800D02*
X25600Y-30900D01*
X25600Y-28500D02*
X25600Y-28800D01*
X25600Y-25900D02*
X25600Y-26200D01*
X25600Y-23700D02*
X25600Y-24300D01*
X25600Y-21900D02*
X25600Y-22100D01*
X25550Y-32000D02*
X25550Y-32350D01*
X25550Y-30800D02*
X25550Y-30900D01*
X25550Y-28500D02*
X25550Y-28800D01*
X25550Y-25850D02*
X25550Y-26200D01*
X25550Y-23700D02*
X25550Y-24300D01*
X25550Y-21900D02*
X25550Y-22100D01*
X25500Y-31950D02*
X25500Y-32350D01*
X25500Y-30800D02*
X25500Y-30950D01*
X25500Y-28500D02*
X25500Y-28800D01*
X25500Y-25800D02*
X25500Y-26200D01*
X25500Y-23700D02*
X25500Y-24300D01*
X25500Y-21900D02*
X25500Y-22100D01*
X25450Y-31950D02*
X25450Y-32350D01*
X25450Y-30800D02*
X25450Y-30950D01*
X25450Y-28500D02*
X25450Y-28800D01*
X25450Y-25800D02*
X25450Y-26200D01*
X25450Y-23700D02*
X25450Y-24300D01*
X25450Y-21900D02*
X25450Y-22100D01*
X25400Y-31900D02*
X25400Y-32350D01*
X25400Y-30800D02*
X25400Y-31000D01*
X25400Y-28500D02*
X25400Y-28800D01*
X25400Y-25800D02*
X25400Y-26200D01*
X25400Y-23700D02*
X25400Y-23750D01*
X25400Y-21900D02*
X25400Y-22100D01*
X25350Y-31850D02*
X25350Y-32350D01*
X25350Y-30800D02*
X25350Y-31050D01*
X25350Y-28500D02*
X25350Y-28800D01*
X25350Y-25800D02*
X25350Y-26200D01*
X25350Y-23700D02*
X25350Y-23750D01*
X25350Y-21900D02*
X25350Y-22100D01*
X25300Y-31800D02*
X25300Y-32350D01*
X25300Y-30800D02*
X25300Y-31100D01*
X25300Y-28500D02*
X25300Y-28800D01*
X25300Y-25800D02*
X25300Y-26200D01*
X25300Y-23700D02*
X25300Y-23750D01*
X25300Y-21900D02*
X25300Y-22100D01*
X25250Y-31700D02*
X25250Y-32350D01*
X25250Y-30800D02*
X25250Y-31200D01*
X25250Y-28500D02*
X25250Y-28800D01*
X25250Y-25800D02*
X25250Y-26200D01*
X25250Y-23700D02*
X25250Y-23750D01*
X25250Y-21900D02*
X25250Y-22100D01*
X25200Y-30800D02*
X25200Y-32350D01*
X25200Y-28500D02*
X25200Y-28800D01*
X25200Y-25800D02*
X25200Y-26200D01*
X25200Y-23700D02*
X25200Y-23750D01*
X25200Y-21900D02*
X25200Y-22100D01*
X25150Y-30800D02*
X25150Y-32350D01*
X25150Y-28500D02*
X25150Y-28800D01*
X25150Y-25800D02*
X25150Y-26200D01*
X25150Y-23700D02*
X25150Y-23750D01*
X25150Y-21900D02*
X25150Y-22100D01*
X25100Y-30800D02*
X25100Y-32350D01*
X25100Y-28500D02*
X25100Y-28800D01*
X25100Y-25800D02*
X25100Y-26200D01*
X25100Y-23700D02*
X25100Y-23750D01*
X25100Y-21900D02*
X25100Y-22100D01*
X25050Y-30800D02*
X25050Y-32350D01*
X25050Y-28500D02*
X25050Y-28800D01*
X25050Y-25800D02*
X25050Y-26200D01*
X25050Y-23700D02*
X25050Y-23750D01*
X25050Y-21900D02*
X25050Y-22100D01*
X25000Y-30800D02*
X25000Y-32350D01*
X25000Y-28500D02*
X25000Y-28800D01*
X25000Y-25800D02*
X25000Y-26200D01*
X25000Y-23700D02*
X25000Y-23750D01*
X25000Y-21900D02*
X25000Y-22100D01*
X24950Y-30800D02*
X24950Y-32350D01*
X24950Y-28500D02*
X24950Y-28800D01*
X24950Y-25800D02*
X24950Y-26200D01*
X24950Y-23700D02*
X24950Y-23750D01*
X24950Y-21900D02*
X24950Y-22100D01*
X24900Y-30800D02*
X24900Y-32350D01*
X24900Y-28500D02*
X24900Y-28800D01*
X24900Y-25800D02*
X24900Y-26200D01*
X24900Y-23700D02*
X24900Y-23750D01*
X24900Y-21900D02*
X24900Y-22100D01*
X24850Y-30800D02*
X24850Y-32350D01*
X24850Y-28500D02*
X24850Y-28800D01*
X24850Y-25850D02*
X24850Y-26200D01*
X24850Y-23700D02*
X24850Y-23750D01*
X24850Y-21900D02*
X24850Y-22100D01*
X24800Y-30800D02*
X24800Y-32350D01*
X24800Y-28500D02*
X24800Y-28800D01*
X24800Y-25900D02*
X24800Y-26200D01*
X24800Y-24650D02*
X24800Y-24700D01*
X24800Y-23700D02*
X24800Y-23750D01*
X24800Y-21900D02*
X24800Y-22100D01*
X24750Y-30800D02*
X24750Y-32350D01*
X24750Y-28500D02*
X24750Y-28800D01*
X24750Y-25950D02*
X24750Y-26200D01*
X24750Y-23700D02*
X24750Y-24750D01*
X24750Y-21900D02*
X24750Y-22100D01*
X24700Y-30800D02*
X24700Y-32350D01*
X24700Y-28500D02*
X24700Y-28800D01*
X24700Y-26000D02*
X24700Y-26200D01*
X24700Y-23900D02*
X24700Y-24100D01*
X24700Y-21900D02*
X24700Y-22100D01*
X24650Y-30800D02*
X24650Y-32350D01*
X24650Y-28500D02*
X24650Y-28800D01*
X24650Y-26050D02*
X24650Y-26200D01*
X24650Y-23900D02*
X24650Y-24100D01*
X24650Y-21900D02*
X24650Y-22100D01*
X24600Y-30800D02*
X24600Y-32350D01*
X24600Y-28500D02*
X24600Y-28800D01*
X24600Y-26100D02*
X24600Y-26200D01*
X24600Y-23900D02*
X24600Y-24100D01*
X24600Y-21900D02*
X24600Y-22100D01*
X24550Y-30800D02*
X24550Y-32350D01*
X24550Y-28500D02*
X24550Y-28800D01*
X24550Y-26150D02*
X24550Y-26200D01*
X24550Y-23900D02*
X24550Y-24100D01*
X24550Y-21900D02*
X24550Y-22100D01*
X24500Y-30800D02*
X24500Y-32350D01*
X24500Y-28500D02*
X24500Y-28800D01*
X24500Y-23900D02*
X24500Y-24100D01*
X24500Y-21900D02*
X24500Y-22100D01*
X24450Y-30800D02*
X24450Y-32350D01*
X24450Y-28500D02*
X24450Y-28800D01*
X24450Y-23900D02*
X24450Y-24100D01*
X24450Y-21900D02*
X24450Y-22100D01*
X24400Y-30800D02*
X24400Y-32350D01*
X24400Y-28450D02*
X24400Y-28850D01*
X24400Y-23900D02*
X24400Y-24100D01*
X24400Y-21900D02*
X24400Y-22100D01*
X24350Y-30800D02*
X24350Y-32350D01*
X24350Y-28450D02*
X24350Y-28850D01*
X24350Y-23900D02*
X24350Y-24100D01*
X24350Y-21900D02*
X24350Y-22100D01*
X24300Y-31250D02*
X24300Y-32350D01*
X24300Y-30800D02*
X24300Y-30950D01*
X24300Y-28400D02*
X24300Y-28900D01*
X24300Y-23900D02*
X24300Y-24100D01*
X24300Y-21900D02*
X24300Y-22100D01*
X24250Y-31350D02*
X24250Y-32350D01*
X24250Y-30800D02*
X24250Y-30850D01*
X24250Y-28350D02*
X24250Y-28950D01*
X24250Y-23900D02*
X24250Y-24100D01*
X24250Y-21900D02*
X24250Y-22100D01*
X24200Y-31450D02*
X24200Y-32350D01*
X24200Y-28300D02*
X24200Y-29000D01*
X24200Y-23900D02*
X24200Y-24100D01*
X24200Y-21900D02*
X24200Y-22100D01*
X24150Y-31450D02*
X24150Y-32350D01*
X24150Y-28250D02*
X24150Y-29050D01*
X24150Y-23900D02*
X24150Y-24100D01*
X24150Y-21900D02*
X24150Y-22100D01*
X24100Y-31500D02*
X24100Y-32350D01*
X24100Y-28200D02*
X24100Y-29100D01*
X24100Y-23900D02*
X24100Y-24100D01*
X24100Y-21900D02*
X24100Y-22100D01*
X24050Y-31500D02*
X24050Y-32350D01*
X24050Y-28150D02*
X24050Y-29150D01*
X24050Y-23900D02*
X24050Y-24100D01*
X24050Y-21900D02*
X24050Y-22100D01*
X24000Y-31550D02*
X24000Y-32350D01*
X24000Y-28050D02*
X24000Y-29200D01*
X24000Y-23900D02*
X24000Y-24100D01*
X24000Y-21900D02*
X24000Y-22100D01*
X23950Y-31550D02*
X23950Y-32350D01*
X23950Y-27200D02*
X23950Y-29250D01*
X23950Y-23900D02*
X23950Y-24100D01*
X23950Y-21900D02*
X23950Y-22100D01*
X23900Y-31550D02*
X23900Y-32350D01*
X23900Y-26400D02*
X23900Y-29300D01*
X23900Y-23900D02*
X23900Y-24100D01*
X23900Y-21900D02*
X23900Y-22100D01*
X23850Y-31550D02*
X23850Y-32350D01*
X23850Y-26400D02*
X23850Y-29350D01*
X23850Y-23900D02*
X23850Y-24100D01*
X23850Y-21900D02*
X23850Y-22100D01*
X23800Y-31550D02*
X23800Y-32350D01*
X23800Y-26400D02*
X23800Y-29400D01*
X23800Y-23900D02*
X23800Y-24100D01*
X23800Y-21900D02*
X23800Y-22100D01*
X23750Y-31500D02*
X23750Y-32350D01*
X23750Y-26400D02*
X23750Y-29450D01*
X23750Y-23900D02*
X23750Y-24100D01*
X23750Y-21900D02*
X23750Y-22100D01*
X23700Y-31550D02*
X23700Y-32350D01*
X23700Y-26400D02*
X23700Y-29500D01*
X23700Y-23900D02*
X23700Y-24100D01*
X23700Y-21900D02*
X23700Y-22100D01*
X23650Y-31550D02*
X23650Y-32350D01*
X23650Y-26400D02*
X23650Y-29550D01*
X23650Y-23900D02*
X23650Y-24100D01*
X23650Y-21900D02*
X23650Y-22100D01*
X23600Y-31550D02*
X23600Y-32350D01*
X23600Y-26400D02*
X23600Y-29600D01*
X23600Y-23900D02*
X23600Y-24100D01*
X23600Y-21900D02*
X23600Y-22100D01*
X23550Y-31550D02*
X23550Y-32350D01*
X23550Y-27200D02*
X23550Y-29650D01*
X23550Y-23900D02*
X23550Y-24100D01*
X23550Y-21900D02*
X23550Y-22100D01*
X23500Y-31550D02*
X23500Y-32350D01*
X23500Y-27200D02*
X23500Y-29750D01*
X23500Y-23900D02*
X23500Y-24100D01*
X23500Y-21900D02*
X23500Y-22100D01*
X23450Y-31550D02*
X23450Y-32350D01*
X23450Y-27200D02*
X23450Y-29800D01*
X23450Y-23900D02*
X23450Y-24100D01*
X23450Y-21900D02*
X23450Y-22100D01*
X23400Y-31550D02*
X23400Y-32350D01*
X23400Y-27200D02*
X23400Y-29800D01*
X23400Y-23900D02*
X23400Y-24100D01*
X23400Y-21900D02*
X23400Y-22100D01*
X23350Y-31550D02*
X23350Y-32350D01*
X23350Y-27200D02*
X23350Y-29800D01*
X23350Y-23900D02*
X23350Y-24100D01*
X23350Y-21900D02*
X23350Y-22100D01*
X23300Y-31550D02*
X23300Y-32350D01*
X23300Y-27200D02*
X23300Y-29800D01*
X23300Y-23900D02*
X23300Y-24100D01*
X23300Y-21900D02*
X23300Y-22100D01*
X23250Y-31550D02*
X23250Y-32350D01*
X23250Y-27200D02*
X23250Y-29800D01*
X23250Y-23900D02*
X23250Y-24100D01*
X23250Y-21900D02*
X23250Y-22100D01*
X23200Y-31550D02*
X23200Y-32350D01*
X23200Y-27200D02*
X23200Y-29800D01*
X23200Y-23900D02*
X23200Y-24100D01*
X23200Y-21900D02*
X23200Y-22100D01*
X23150Y-31550D02*
X23150Y-32350D01*
X23150Y-27200D02*
X23150Y-29800D01*
X23150Y-23900D02*
X23150Y-24100D01*
X23150Y-21900D02*
X23150Y-22100D01*
X23100Y-31550D02*
X23100Y-32350D01*
X23100Y-27200D02*
X23100Y-29800D01*
X23100Y-23900D02*
X23100Y-24100D01*
X23100Y-21900D02*
X23100Y-22100D01*
X23050Y-31200D02*
X23050Y-32350D01*
X23050Y-27200D02*
X23050Y-29800D01*
X23050Y-23900D02*
X23050Y-24100D01*
X23050Y-21900D02*
X23050Y-22100D01*
X23000Y-31100D02*
X23000Y-32350D01*
X23000Y-27200D02*
X23000Y-29800D01*
X23000Y-23950D02*
X23000Y-24100D01*
X23000Y-21900D02*
X23000Y-22100D01*
X22950Y-30800D02*
X22950Y-32350D01*
X22950Y-27200D02*
X22950Y-29800D01*
X22950Y-24050D02*
X22950Y-24100D01*
X22950Y-21900D02*
X22950Y-22100D01*
X22900Y-27200D02*
X22900Y-32350D01*
X22900Y-21900D02*
X22900Y-22100D01*
X22850Y-27200D02*
X22850Y-32350D01*
X22850Y-21900D02*
X22850Y-22100D01*
X22800Y-27200D02*
X22800Y-32350D01*
X22800Y-21900D02*
X22800Y-22100D01*
X22750Y-27200D02*
X22750Y-32350D01*
X22750Y-21900D02*
X22750Y-22100D01*
X22700Y-27200D02*
X22700Y-32350D01*
X22700Y-21900D02*
X22700Y-22100D01*
X22650Y-27200D02*
X22650Y-32350D01*
X22650Y-21900D02*
X22650Y-22100D01*
X22600Y-27200D02*
X22600Y-32350D01*
X22600Y-21900D02*
X22600Y-22100D01*
X22550Y-30800D02*
X22550Y-32350D01*
X22550Y-27200D02*
X22550Y-29800D01*
X22550Y-21900D02*
X22550Y-22100D01*
X22500Y-30800D02*
X22500Y-32350D01*
X22500Y-27200D02*
X22500Y-29800D01*
X22500Y-21900D02*
X22500Y-22100D01*
X22450Y-30800D02*
X22450Y-32350D01*
X22450Y-27200D02*
X22450Y-29800D01*
X22450Y-21900D02*
X22450Y-22100D01*
X22400Y-30800D02*
X22400Y-32350D01*
X22400Y-27200D02*
X22400Y-29800D01*
X22400Y-21900D02*
X22400Y-22100D01*
X22350Y-30800D02*
X22350Y-32350D01*
X22350Y-27200D02*
X22350Y-29800D01*
X22350Y-21900D02*
X22350Y-22100D01*
X22300Y-30800D02*
X22300Y-32350D01*
X22300Y-27200D02*
X22300Y-29800D01*
X22300Y-21900D02*
X22300Y-22100D01*
X22250Y-30800D02*
X22250Y-32350D01*
X22250Y-27200D02*
X22250Y-29800D01*
X22250Y-21900D02*
X22250Y-22100D01*
X22200Y-30800D02*
X22200Y-32350D01*
X22200Y-27200D02*
X22200Y-29800D01*
X22200Y-21900D02*
X22200Y-22100D01*
X22150Y-30800D02*
X22150Y-32350D01*
X22150Y-27200D02*
X22150Y-29800D01*
X22150Y-21900D02*
X22150Y-22100D01*
X22100Y-30800D02*
X22100Y-32350D01*
X22100Y-27200D02*
X22100Y-29800D01*
X22100Y-21900D02*
X22100Y-22100D01*
X22050Y-30800D02*
X22050Y-32350D01*
X22050Y-27200D02*
X22050Y-29800D01*
X22050Y-21900D02*
X22050Y-22100D01*
X22000Y-30800D02*
X22000Y-32350D01*
X22000Y-27200D02*
X22000Y-29800D01*
X22000Y-21900D02*
X22000Y-22100D01*
X21950Y-30800D02*
X21950Y-32350D01*
X21950Y-27200D02*
X21950Y-29800D01*
X21950Y-21900D02*
X21950Y-22100D01*
X21900Y-30800D02*
X21900Y-32350D01*
X21900Y-27200D02*
X21900Y-29800D01*
X21900Y-21900D02*
X21900Y-22100D01*
X21850Y-30800D02*
X21850Y-32350D01*
X21850Y-27200D02*
X21850Y-29800D01*
X21850Y-21900D02*
X21850Y-22100D01*
X21800Y-30800D02*
X21800Y-32350D01*
X21800Y-27200D02*
X21800Y-29800D01*
X21800Y-21900D02*
X21800Y-22100D01*
X21750Y-30800D02*
X21750Y-32350D01*
X21750Y-27200D02*
X21750Y-29800D01*
X21750Y-21900D02*
X21750Y-22100D01*
X21700Y-30800D02*
X21700Y-32350D01*
X21700Y-27200D02*
X21700Y-29800D01*
X21700Y-21900D02*
X21700Y-22100D01*
X21650Y-30800D02*
X21650Y-32350D01*
X21650Y-27200D02*
X21650Y-29800D01*
X21650Y-21900D02*
X21650Y-22100D01*
X21600Y-30800D02*
X21600Y-32350D01*
X21600Y-27200D02*
X21600Y-29800D01*
X21600Y-21900D02*
X21600Y-22100D01*
X21550Y-30800D02*
X21550Y-32350D01*
X21550Y-27200D02*
X21550Y-29800D01*
X21550Y-21900D02*
X21550Y-22100D01*
X21500Y-30950D02*
X21500Y-32350D01*
X21500Y-27200D02*
X21500Y-29800D01*
X21500Y-21900D02*
X21500Y-22100D01*
X21450Y-31050D02*
X21450Y-32350D01*
X21450Y-27200D02*
X21450Y-29800D01*
X21450Y-21900D02*
X21450Y-22100D01*
X21400Y-31100D02*
X21400Y-32350D01*
X21400Y-27200D02*
X21400Y-29800D01*
X21400Y-21900D02*
X21400Y-22100D01*
X21350Y-31150D02*
X21350Y-32350D01*
X21350Y-27200D02*
X21350Y-29800D01*
X21350Y-21900D02*
X21350Y-22100D01*
X21300Y-31150D02*
X21300Y-31650D01*
X21300Y-27200D02*
X21300Y-29800D01*
X21300Y-21900D02*
X21300Y-22100D01*
X21250Y-31200D02*
X21250Y-31650D01*
X21250Y-27200D02*
X21250Y-29800D01*
X21250Y-21900D02*
X21250Y-22100D01*
X21200Y-31200D02*
X21200Y-31650D01*
X21200Y-27200D02*
X21200Y-29800D01*
X21200Y-25100D02*
X21200Y-25400D01*
X21200Y-21900D02*
X21200Y-22100D01*
X21150Y-31200D02*
X21150Y-31650D01*
X21150Y-27200D02*
X21150Y-29800D01*
X21150Y-25100D02*
X21150Y-25450D01*
X21150Y-21900D02*
X21150Y-22100D01*
X21100Y-31200D02*
X21100Y-31650D01*
X21100Y-27200D02*
X21100Y-29800D01*
X21100Y-25100D02*
X21100Y-25500D01*
X21100Y-21900D02*
X21100Y-22100D01*
X21050Y-31200D02*
X21050Y-31650D01*
X21050Y-27200D02*
X21050Y-29800D01*
X21050Y-25100D02*
X21050Y-25550D01*
X21050Y-21900D02*
X21050Y-22100D01*
X21000Y-31200D02*
X21000Y-31650D01*
X21000Y-27200D02*
X21000Y-29650D01*
X21000Y-25100D02*
X21000Y-25550D01*
X21000Y-21900D02*
X21000Y-22100D01*
X20950Y-31200D02*
X20950Y-31650D01*
X20950Y-27200D02*
X20950Y-29550D01*
X20950Y-25100D02*
X20950Y-25550D01*
X20950Y-21900D02*
X20950Y-22100D01*
X20900Y-31200D02*
X20900Y-31650D01*
X20900Y-27200D02*
X20900Y-29500D01*
X20900Y-25100D02*
X20900Y-25550D01*
X20900Y-21900D02*
X20900Y-22100D01*
X20850Y-31200D02*
X20850Y-31650D01*
X20850Y-27200D02*
X20850Y-29450D01*
X20850Y-25100D02*
X20850Y-25550D01*
X20850Y-21900D02*
X20850Y-22100D01*
X20800Y-31200D02*
X20800Y-31650D01*
X20800Y-27200D02*
X20800Y-29400D01*
X20800Y-25100D02*
X20800Y-25550D01*
X20800Y-21900D02*
X20800Y-22100D01*
X20750Y-31200D02*
X20750Y-31650D01*
X20750Y-27200D02*
X20750Y-29350D01*
X20750Y-24300D02*
X20750Y-25550D01*
X20750Y-21900D02*
X20750Y-22100D01*
X20700Y-31200D02*
X20700Y-31650D01*
X20700Y-27200D02*
X20700Y-29300D01*
X20700Y-24300D02*
X20700Y-25550D01*
X20700Y-21900D02*
X20700Y-22100D01*
X20650Y-31200D02*
X20650Y-31650D01*
X20650Y-27200D02*
X20650Y-29250D01*
X20650Y-24300D02*
X20650Y-25550D01*
X20650Y-21900D02*
X20650Y-22100D01*
X20600Y-31200D02*
X20600Y-31650D01*
X20600Y-27200D02*
X20600Y-29200D01*
X20600Y-24300D02*
X20600Y-25550D01*
X20600Y-21900D02*
X20600Y-22100D01*
X20550Y-31200D02*
X20550Y-31650D01*
X20550Y-27200D02*
X20550Y-29150D01*
X20550Y-24300D02*
X20550Y-25550D01*
X20550Y-21900D02*
X20550Y-22100D01*
X20500Y-31200D02*
X20500Y-31650D01*
X20500Y-27200D02*
X20500Y-29100D01*
X20500Y-24300D02*
X20500Y-25550D01*
X20500Y-21900D02*
X20500Y-22100D01*
X20450Y-31200D02*
X20450Y-31650D01*
X20450Y-27200D02*
X20450Y-29050D01*
X20450Y-24300D02*
X20450Y-26200D01*
X20450Y-21900D02*
X20450Y-22100D01*
X20400Y-31150D02*
X20400Y-31650D01*
X20400Y-24300D02*
X20400Y-29000D01*
X20400Y-21900D02*
X20400Y-22100D01*
X20350Y-31150D02*
X20350Y-31650D01*
X20350Y-24300D02*
X20350Y-28950D01*
X20350Y-21900D02*
X20350Y-22100D01*
X20300Y-31100D02*
X20300Y-31650D01*
X20300Y-24300D02*
X20300Y-28900D01*
X20300Y-21900D02*
X20300Y-22100D01*
X20250Y-31050D02*
X20250Y-31650D01*
X20250Y-24300D02*
X20250Y-28850D01*
X20250Y-21900D02*
X20250Y-22100D01*
X20200Y-31000D02*
X20200Y-31650D01*
X20200Y-28450D02*
X20200Y-28800D01*
X20200Y-27500D02*
X20200Y-28000D01*
X20200Y-24300D02*
X20200Y-27050D01*
X20200Y-21900D02*
X20200Y-22100D01*
X20150Y-30900D02*
X20150Y-31650D01*
X20150Y-28550D02*
X20150Y-28750D01*
X20150Y-27550D02*
X20150Y-27950D01*
X20150Y-24300D02*
X20150Y-26950D01*
X20150Y-21900D02*
X20150Y-22100D01*
X20100Y-29800D02*
X20100Y-31650D01*
X20100Y-28600D02*
X20100Y-28700D01*
X20100Y-27650D02*
X20100Y-27850D01*
X20100Y-24300D02*
X20100Y-26500D01*
X20100Y-21900D02*
X20100Y-22100D01*
X20050Y-29750D02*
X20050Y-31650D01*
X20050Y-27700D02*
X20050Y-27800D01*
X20050Y-24800D02*
X20050Y-26350D01*
X20050Y-24300D02*
X20050Y-24500D01*
X20050Y-21900D02*
X20050Y-22100D01*
X20000Y-29700D02*
X20000Y-31650D01*
X20000Y-27700D02*
X20000Y-27800D01*
X20000Y-24900D02*
X20000Y-26300D01*
X20000Y-24300D02*
X20000Y-24400D01*
X20000Y-21900D02*
X20000Y-22100D01*
X19950Y-29650D02*
X19950Y-31650D01*
X19950Y-25000D02*
X19950Y-26250D01*
X19950Y-21900D02*
X19950Y-22100D01*
X19900Y-29600D02*
X19900Y-31650D01*
X19900Y-25000D02*
X19900Y-25950D01*
X19900Y-21900D02*
X19900Y-22100D01*
X19850Y-29550D02*
X19850Y-31650D01*
X19850Y-25050D02*
X19850Y-25950D01*
X19850Y-21900D02*
X19850Y-22100D01*
X19800Y-29500D02*
X19800Y-31650D01*
X19800Y-25050D02*
X19800Y-25950D01*
X19800Y-21900D02*
X19800Y-22100D01*
X19750Y-29450D02*
X19750Y-31650D01*
X19750Y-25100D02*
X19750Y-25950D01*
X19750Y-21900D02*
X19750Y-22100D01*
X19700Y-29400D02*
X19700Y-31650D01*
X19700Y-25100D02*
X19700Y-25950D01*
X19700Y-21900D02*
X19700Y-22100D01*
X19650Y-29350D02*
X19650Y-31650D01*
X19650Y-25100D02*
X19650Y-25950D01*
X19650Y-21900D02*
X19650Y-22100D01*
X19600Y-29300D02*
X19600Y-31650D01*
X19600Y-25100D02*
X19600Y-25950D01*
X19600Y-21900D02*
X19600Y-22100D01*
X19550Y-29250D02*
X19550Y-31650D01*
X19550Y-25100D02*
X19550Y-25950D01*
X19550Y-21900D02*
X19550Y-22100D01*
X19500Y-29200D02*
X19500Y-31650D01*
X19500Y-27700D02*
X19500Y-27800D01*
X19500Y-25050D02*
X19500Y-25950D01*
X19500Y-21900D02*
X19500Y-22100D01*
X19450Y-29150D02*
X19450Y-31650D01*
X19450Y-27700D02*
X19450Y-27800D01*
X19450Y-25050D02*
X19450Y-25950D01*
X19450Y-21900D02*
X19450Y-22100D01*
X19400Y-29100D02*
X19400Y-31650D01*
X19400Y-27650D02*
X19400Y-27850D01*
X19400Y-25000D02*
X19400Y-25950D01*
X19400Y-21900D02*
X19400Y-22100D01*
X19350Y-29050D02*
X19350Y-31650D01*
X19350Y-27550D02*
X19350Y-27900D01*
X19350Y-26850D02*
X19350Y-26950D01*
X19350Y-25000D02*
X19350Y-25950D01*
X19350Y-21900D02*
X19350Y-22100D01*
X19300Y-29000D02*
X19300Y-31650D01*
X19300Y-27500D02*
X19300Y-27850D01*
X19300Y-26850D02*
X19300Y-27050D01*
X19300Y-24900D02*
X19300Y-25950D01*
X19300Y-21900D02*
X19300Y-22100D01*
X19250Y-28950D02*
X19250Y-31650D01*
X19250Y-26450D02*
X19250Y-27800D01*
X19250Y-24850D02*
X19250Y-26350D01*
X19250Y-21900D02*
X19250Y-22100D01*
X19200Y-28900D02*
X19200Y-31650D01*
X19200Y-24800D02*
X19200Y-27800D01*
X19200Y-21900D02*
X19200Y-22100D01*
X19150Y-28850D02*
X19150Y-31650D01*
X19150Y-24750D02*
X19150Y-27750D01*
X19150Y-21900D02*
X19150Y-22100D01*
X19100Y-28800D02*
X19100Y-31650D01*
X19100Y-24700D02*
X19100Y-27750D01*
X19100Y-21900D02*
X19100Y-22100D01*
X19050Y-28750D02*
X19050Y-31650D01*
X19050Y-24650D02*
X19050Y-27750D01*
X19050Y-21900D02*
X19050Y-22100D01*
X19000Y-28750D02*
X19000Y-31650D01*
X19000Y-24600D02*
X19000Y-27700D01*
X19000Y-21900D02*
X19000Y-22100D01*
X18950Y-28750D02*
X18950Y-31650D01*
X18950Y-24550D02*
X18950Y-27700D01*
X18950Y-21900D02*
X18950Y-22150D01*
X18900Y-28750D02*
X18900Y-31650D01*
X18900Y-24500D02*
X18900Y-27750D01*
X18900Y-21900D02*
X18900Y-22150D01*
X18850Y-28750D02*
X18850Y-31650D01*
X18850Y-24450D02*
X18850Y-27750D01*
X18850Y-21900D02*
X18850Y-22150D01*
X18800Y-28750D02*
X18800Y-31650D01*
X18800Y-24400D02*
X18800Y-27750D01*
X18800Y-21900D02*
X18800Y-22200D01*
X18750Y-28700D02*
X18750Y-31650D01*
X18750Y-24350D02*
X18750Y-27750D01*
X18750Y-21900D02*
X18750Y-22250D01*
X18700Y-28700D02*
X18700Y-31650D01*
X18700Y-24300D02*
X18700Y-27800D01*
X18700Y-21900D02*
X18700Y-22300D01*
X18650Y-28650D02*
X18650Y-31650D01*
X18650Y-24250D02*
X18650Y-27850D01*
X18650Y-21900D02*
X18650Y-22350D01*
X18600Y-28600D02*
X18600Y-31650D01*
X18600Y-24200D02*
X18600Y-27900D01*
X18600Y-21900D02*
X18600Y-22400D01*
X18550Y-28550D02*
X18550Y-31650D01*
X18550Y-24150D02*
X18550Y-27950D01*
X18550Y-21900D02*
X18550Y-22450D01*
X18500Y-28450D02*
X18500Y-31650D01*
X18500Y-24100D02*
X18500Y-28050D01*
X18500Y-21900D02*
X18500Y-22500D01*
X18450Y-24050D02*
X18450Y-31650D01*
X18450Y-21900D02*
X18450Y-22550D01*
X18400Y-24000D02*
X18400Y-31650D01*
X18400Y-21900D02*
X18400Y-22600D01*
X18350Y-23850D02*
X18350Y-31650D01*
X18350Y-21900D02*
X18350Y-22750D01*
X18300Y-21900D02*
X18300Y-31650D01*
X18250Y-21900D02*
X18250Y-31650D01*
X18200Y-21900D02*
X18200Y-31650D01*
X18150Y-21900D02*
X18150Y-31650D01*
X18100Y-21900D02*
X18100Y-31650D01*
X18050Y-21900D02*
X18050Y-31650D01*
X18000Y-21900D02*
X18000Y-31650D01*
X17950Y-21900D02*
X17950Y-31650D01*
X17900Y-21900D02*
X17900Y-31650D01*
X17850Y-21900D02*
X17850Y-31650D01*
X17800Y-21900D02*
X17800Y-31650D01*
X17750Y-21900D02*
X17750Y-31650D01*
X17700Y-21900D02*
X17700Y-31650D01*
X17650Y-21900D02*
X17650Y-31650D01*
X17600Y-21900D02*
X17600Y-31650D01*
X17550Y-21900D02*
X17550Y-31650D01*
X17500Y-21900D02*
X17500Y-31650D01*
X17450Y-21900D02*
X17450Y-31650D01*
X17400Y-21900D02*
X17400Y-31650D01*
X17350Y-21900D02*
X17350Y-31650D01*
X17300Y-21900D02*
X17300Y-31650D01*
X17250Y-21900D02*
X17250Y-31650D01*
X17200Y-21900D02*
X17200Y-31650D01*
X17150Y-21900D02*
X17150Y-31650D01*
X17100Y-21900D02*
X17100Y-31650D01*
X17050Y-21900D02*
X17050Y-31650D01*
X17000Y-21900D02*
X17000Y-31650D01*
X16950Y-21900D02*
X16950Y-31650D01*
X16900Y-21900D02*
X16900Y-31650D01*
X32550Y-32350D02*
X34350Y-32350D01*
X21350Y-32350D02*
X29950Y-32350D01*
X32550Y-32300D02*
X34350Y-32300D01*
X21350Y-32300D02*
X29950Y-32300D01*
X32550Y-32250D02*
X34350Y-32250D01*
X21350Y-32250D02*
X29900Y-32250D01*
X32550Y-32200D02*
X34350Y-32200D01*
X21350Y-32200D02*
X29900Y-32200D01*
X32550Y-32150D02*
X34350Y-32150D01*
X21350Y-32150D02*
X29900Y-32150D01*
X32550Y-32100D02*
X34350Y-32100D01*
X30950Y-32100D02*
X31650Y-32100D01*
X21350Y-32100D02*
X29900Y-32100D01*
X32550Y-32050D02*
X34350Y-32050D01*
X30950Y-32050D02*
X31700Y-32050D01*
X21350Y-32050D02*
X29900Y-32050D01*
X32550Y-32000D02*
X34350Y-32000D01*
X30950Y-32000D02*
X31750Y-32000D01*
X21350Y-32000D02*
X29900Y-32000D01*
X32550Y-31950D02*
X34350Y-31950D01*
X30950Y-31950D02*
X31750Y-31950D01*
X29000Y-31950D02*
X29900Y-31950D01*
X28000Y-31950D02*
X28500Y-31950D01*
X27000Y-31950D02*
X27500Y-31950D01*
X26000Y-31950D02*
X26500Y-31950D01*
X21350Y-31950D02*
X25500Y-31950D01*
X32550Y-31900D02*
X34350Y-31900D01*
X30950Y-31900D02*
X31750Y-31900D01*
X29100Y-31900D02*
X29900Y-31900D01*
X28100Y-31900D02*
X28400Y-31900D01*
X27100Y-31900D02*
X27400Y-31900D01*
X26100Y-31900D02*
X26400Y-31900D01*
X21350Y-31900D02*
X25400Y-31900D01*
X32550Y-31850D02*
X34350Y-31850D01*
X30950Y-31850D02*
X31750Y-31850D01*
X29150Y-31850D02*
X29900Y-31850D01*
X28150Y-31850D02*
X28350Y-31850D01*
X27150Y-31850D02*
X27350Y-31850D01*
X26150Y-31850D02*
X26350Y-31850D01*
X21350Y-31850D02*
X25350Y-31850D01*
X32550Y-31800D02*
X34350Y-31800D01*
X30950Y-31800D02*
X31750Y-31800D01*
X29200Y-31800D02*
X29900Y-31800D01*
X28200Y-31800D02*
X28300Y-31800D01*
X27200Y-31800D02*
X27300Y-31800D01*
X26200Y-31800D02*
X26300Y-31800D01*
X21350Y-31800D02*
X25300Y-31800D01*
X32550Y-31750D02*
X34350Y-31750D01*
X30950Y-31750D02*
X31750Y-31750D01*
X29250Y-31750D02*
X29900Y-31750D01*
X21350Y-31750D02*
X25250Y-31750D01*
X32550Y-31700D02*
X34350Y-31700D01*
X30950Y-31700D02*
X31750Y-31700D01*
X29250Y-31700D02*
X29900Y-31700D01*
X21350Y-31700D02*
X25250Y-31700D01*
X32550Y-31650D02*
X34350Y-31650D01*
X30950Y-31650D02*
X31750Y-31650D01*
X29300Y-31650D02*
X29900Y-31650D01*
X16900Y-31650D02*
X25200Y-31650D01*
X30850Y-31600D02*
X34350Y-31600D01*
X29300Y-31600D02*
X29900Y-31600D01*
X16900Y-31600D02*
X25200Y-31600D01*
X32900Y-31550D02*
X34350Y-31550D01*
X31300Y-31550D02*
X32100Y-31550D01*
X29300Y-31550D02*
X29900Y-31550D01*
X16900Y-31550D02*
X25200Y-31550D01*
X32900Y-31500D02*
X34350Y-31500D01*
X31300Y-31500D02*
X32100Y-31500D01*
X29300Y-31500D02*
X29900Y-31500D01*
X24050Y-31500D02*
X25200Y-31500D01*
X16900Y-31500D02*
X23050Y-31500D01*
X32900Y-31450D02*
X34350Y-31450D01*
X31300Y-31450D02*
X32100Y-31450D01*
X29300Y-31450D02*
X29850Y-31450D01*
X24150Y-31450D02*
X25200Y-31450D01*
X16900Y-31450D02*
X23050Y-31450D01*
X32900Y-31400D02*
X34350Y-31400D01*
X31300Y-31400D02*
X32100Y-31400D01*
X29300Y-31400D02*
X29800Y-31400D01*
X24250Y-31400D02*
X25200Y-31400D01*
X16900Y-31400D02*
X23050Y-31400D01*
X32900Y-31350D02*
X34350Y-31350D01*
X31300Y-31350D02*
X32100Y-31350D01*
X29300Y-31350D02*
X29750Y-31350D01*
X24250Y-31350D02*
X25200Y-31350D01*
X16900Y-31350D02*
X23050Y-31350D01*
X32900Y-31300D02*
X34350Y-31300D01*
X31300Y-31300D02*
X32100Y-31300D01*
X29300Y-31300D02*
X29700Y-31300D01*
X24300Y-31300D02*
X25200Y-31300D01*
X16900Y-31300D02*
X23050Y-31300D01*
X32900Y-31250D02*
X34350Y-31250D01*
X31300Y-31250D02*
X32100Y-31250D01*
X24300Y-31250D02*
X25200Y-31250D01*
X16900Y-31250D02*
X23050Y-31250D01*
X32950Y-31200D02*
X34350Y-31200D01*
X31300Y-31200D02*
X32100Y-31200D01*
X24350Y-31200D02*
X25250Y-31200D01*
X16900Y-31200D02*
X23050Y-31200D01*
X33000Y-31150D02*
X34350Y-31150D01*
X31300Y-31150D02*
X32100Y-31150D01*
X24350Y-31150D02*
X25250Y-31150D01*
X21300Y-31150D02*
X23000Y-31150D01*
X16900Y-31150D02*
X20400Y-31150D01*
X33050Y-31100D02*
X34350Y-31100D01*
X31300Y-31100D02*
X32100Y-31100D01*
X24350Y-31100D02*
X25300Y-31100D01*
X21400Y-31100D02*
X23000Y-31100D01*
X16900Y-31100D02*
X20300Y-31100D01*
X33100Y-31050D02*
X34350Y-31050D01*
X31300Y-31050D02*
X32100Y-31050D01*
X24350Y-31050D02*
X25350Y-31050D01*
X21450Y-31050D02*
X22950Y-31050D01*
X16900Y-31050D02*
X20250Y-31050D01*
X33150Y-31000D02*
X34350Y-31000D01*
X31300Y-31000D02*
X32100Y-31000D01*
X24350Y-31000D02*
X25400Y-31000D01*
X21500Y-31000D02*
X22950Y-31000D01*
X16900Y-31000D02*
X20200Y-31000D01*
X33200Y-30950D02*
X34350Y-30950D01*
X31300Y-30950D02*
X32100Y-30950D01*
X24300Y-30950D02*
X25500Y-30950D01*
X21500Y-30950D02*
X22950Y-30950D01*
X16900Y-30950D02*
X20150Y-30950D01*
X33250Y-30900D02*
X34350Y-30900D01*
X31300Y-30900D02*
X32100Y-30900D01*
X24300Y-30900D02*
X25900Y-30900D01*
X21550Y-30900D02*
X22950Y-30900D01*
X16900Y-30900D02*
X20150Y-30900D01*
X33300Y-30850D02*
X34350Y-30850D01*
X31300Y-30850D02*
X32100Y-30850D01*
X24250Y-30850D02*
X25950Y-30850D01*
X21550Y-30850D02*
X22950Y-30850D01*
X16900Y-30850D02*
X20100Y-30850D01*
X33350Y-30800D02*
X34350Y-30800D01*
X31250Y-30800D02*
X32550Y-30800D01*
X24250Y-30800D02*
X26000Y-30800D01*
X21550Y-30800D02*
X22950Y-30800D01*
X16900Y-30800D02*
X20100Y-30800D01*
X33400Y-30750D02*
X34350Y-30750D01*
X31250Y-30750D02*
X32600Y-30750D01*
X22600Y-30750D02*
X22900Y-30750D01*
X16900Y-30750D02*
X20100Y-30750D01*
X33450Y-30700D02*
X34350Y-30700D01*
X31250Y-30700D02*
X32650Y-30700D01*
X22600Y-30700D02*
X22900Y-30700D01*
X16900Y-30700D02*
X20100Y-30700D01*
X33500Y-30650D02*
X34350Y-30650D01*
X31250Y-30650D02*
X32700Y-30650D01*
X22600Y-30650D02*
X22900Y-30650D01*
X16900Y-30650D02*
X20100Y-30650D01*
X33550Y-30600D02*
X34350Y-30600D01*
X31250Y-30600D02*
X32750Y-30600D01*
X22600Y-30600D02*
X22900Y-30600D01*
X16900Y-30600D02*
X20100Y-30600D01*
X33600Y-30550D02*
X34350Y-30550D01*
X31250Y-30550D02*
X32800Y-30550D01*
X22600Y-30550D02*
X22900Y-30550D01*
X16900Y-30550D02*
X20100Y-30550D01*
X33650Y-30500D02*
X34350Y-30500D01*
X31300Y-30500D02*
X32850Y-30500D01*
X22600Y-30500D02*
X22900Y-30500D01*
X16900Y-30500D02*
X20100Y-30500D01*
X33650Y-30450D02*
X34350Y-30450D01*
X31250Y-30450D02*
X32900Y-30450D01*
X22600Y-30450D02*
X22900Y-30450D01*
X16900Y-30450D02*
X20100Y-30450D01*
X33700Y-30400D02*
X34350Y-30400D01*
X31250Y-30400D02*
X32950Y-30400D01*
X22600Y-30400D02*
X22900Y-30400D01*
X16900Y-30400D02*
X20100Y-30400D01*
X33700Y-30350D02*
X34350Y-30350D01*
X31250Y-30350D02*
X33000Y-30350D01*
X22600Y-30350D02*
X22900Y-30350D01*
X16900Y-30350D02*
X20100Y-30350D01*
X33700Y-30300D02*
X34350Y-30300D01*
X31250Y-30300D02*
X33050Y-30300D01*
X22600Y-30300D02*
X22900Y-30300D01*
X16900Y-30300D02*
X20100Y-30300D01*
X33700Y-30250D02*
X34350Y-30250D01*
X31250Y-30250D02*
X33100Y-30250D01*
X22600Y-30250D02*
X22900Y-30250D01*
X16900Y-30250D02*
X20100Y-30250D01*
X33700Y-30200D02*
X34350Y-30200D01*
X31250Y-30200D02*
X33100Y-30200D01*
X22600Y-30200D02*
X22900Y-30200D01*
X16900Y-30200D02*
X20100Y-30200D01*
X33700Y-30150D02*
X34350Y-30150D01*
X31250Y-30150D02*
X33100Y-30150D01*
X22600Y-30150D02*
X22900Y-30150D01*
X16900Y-30150D02*
X20100Y-30150D01*
X33700Y-30100D02*
X34350Y-30100D01*
X31250Y-30100D02*
X33100Y-30100D01*
X22600Y-30100D02*
X22900Y-30100D01*
X16900Y-30100D02*
X20100Y-30100D01*
X33700Y-30050D02*
X34350Y-30050D01*
X30750Y-30050D02*
X33100Y-30050D01*
X22600Y-30050D02*
X22900Y-30050D01*
X16900Y-30050D02*
X20100Y-30050D01*
X33700Y-30000D02*
X34350Y-30000D01*
X30850Y-30000D02*
X33100Y-30000D01*
X22600Y-30000D02*
X22900Y-30000D01*
X16900Y-30000D02*
X20100Y-30000D01*
X33700Y-29950D02*
X34350Y-29950D01*
X30900Y-29950D02*
X33100Y-29950D01*
X22600Y-29950D02*
X22900Y-29950D01*
X16900Y-29950D02*
X20100Y-29950D01*
X33700Y-29900D02*
X34350Y-29900D01*
X30950Y-29900D02*
X33100Y-29900D01*
X22600Y-29900D02*
X22900Y-29900D01*
X16900Y-29900D02*
X20100Y-29900D01*
X33700Y-29850D02*
X34350Y-29850D01*
X31000Y-29850D02*
X33100Y-29850D01*
X22600Y-29850D02*
X22900Y-29850D01*
X16900Y-29850D02*
X20100Y-29850D01*
X33700Y-29800D02*
X34350Y-29800D01*
X31050Y-29800D02*
X33100Y-29800D01*
X21050Y-29800D02*
X23450Y-29800D01*
X16900Y-29800D02*
X20100Y-29800D01*
X33700Y-29750D02*
X34350Y-29750D01*
X31100Y-29750D02*
X33100Y-29750D01*
X21050Y-29750D02*
X23500Y-29750D01*
X16900Y-29750D02*
X20050Y-29750D01*
X33700Y-29700D02*
X34350Y-29700D01*
X31150Y-29700D02*
X33100Y-29700D01*
X21050Y-29700D02*
X23500Y-29700D01*
X16900Y-29700D02*
X20000Y-29700D01*
X33700Y-29650D02*
X34350Y-29650D01*
X31200Y-29650D02*
X33100Y-29650D01*
X21000Y-29650D02*
X23550Y-29650D01*
X16900Y-29650D02*
X19950Y-29650D01*
X33700Y-29600D02*
X34350Y-29600D01*
X31250Y-29600D02*
X33100Y-29600D01*
X21000Y-29600D02*
X23600Y-29600D01*
X16900Y-29600D02*
X19900Y-29600D01*
X33700Y-29550D02*
X34350Y-29550D01*
X31300Y-29550D02*
X33100Y-29550D01*
X20950Y-29550D02*
X23650Y-29550D01*
X16900Y-29550D02*
X19850Y-29550D01*
X33700Y-29500D02*
X34350Y-29500D01*
X31350Y-29500D02*
X32200Y-29500D01*
X20900Y-29500D02*
X23700Y-29500D01*
X16900Y-29500D02*
X19800Y-29500D01*
X33700Y-29450D02*
X34350Y-29450D01*
X31400Y-29450D02*
X32200Y-29450D01*
X20850Y-29450D02*
X23750Y-29450D01*
X16900Y-29450D02*
X19750Y-29450D01*
X33700Y-29400D02*
X34350Y-29400D01*
X31450Y-29400D02*
X32200Y-29400D01*
X20800Y-29400D02*
X23800Y-29400D01*
X16900Y-29400D02*
X19700Y-29400D01*
X33700Y-29350D02*
X34350Y-29350D01*
X31500Y-29350D02*
X32200Y-29350D01*
X20750Y-29350D02*
X23850Y-29350D01*
X16900Y-29350D02*
X19650Y-29350D01*
X33700Y-29300D02*
X34350Y-29300D01*
X20700Y-29300D02*
X23900Y-29300D01*
X16900Y-29300D02*
X19600Y-29300D01*
X33700Y-29250D02*
X34350Y-29250D01*
X20650Y-29250D02*
X23950Y-29250D01*
X16900Y-29250D02*
X19550Y-29250D01*
X33700Y-29200D02*
X34350Y-29200D01*
X20600Y-29200D02*
X24000Y-29200D01*
X16900Y-29200D02*
X19500Y-29200D01*
X33700Y-29150D02*
X34350Y-29150D01*
X20550Y-29150D02*
X24050Y-29150D01*
X16900Y-29150D02*
X19450Y-29150D01*
X33700Y-29100D02*
X34350Y-29100D01*
X20500Y-29100D02*
X24100Y-29100D01*
X16900Y-29100D02*
X19400Y-29100D01*
X33700Y-29050D02*
X34350Y-29050D01*
X20450Y-29050D02*
X24150Y-29050D01*
X16900Y-29050D02*
X19350Y-29050D01*
X33700Y-29000D02*
X34350Y-29000D01*
X20400Y-29000D02*
X24200Y-29000D01*
X16900Y-29000D02*
X19300Y-29000D01*
X33700Y-28950D02*
X34350Y-28950D01*
X20350Y-28950D02*
X24250Y-28950D01*
X16900Y-28950D02*
X19250Y-28950D01*
X33700Y-28900D02*
X34350Y-28900D01*
X20300Y-28900D02*
X24300Y-28900D01*
X16900Y-28900D02*
X19200Y-28900D01*
X33700Y-28850D02*
X34350Y-28850D01*
X20250Y-28850D02*
X24400Y-28850D01*
X16900Y-28850D02*
X19150Y-28850D01*
X33700Y-28800D02*
X34350Y-28800D01*
X20200Y-28800D02*
X27000Y-28800D01*
X16900Y-28800D02*
X19100Y-28800D01*
X33700Y-28750D02*
X34350Y-28750D01*
X20150Y-28750D02*
X27050Y-28750D01*
X16900Y-28750D02*
X19050Y-28750D01*
X33700Y-28700D02*
X34350Y-28700D01*
X20100Y-28700D02*
X27100Y-28700D01*
X16900Y-28700D02*
X18750Y-28700D01*
X33700Y-28650D02*
X34350Y-28650D01*
X20050Y-28650D02*
X27150Y-28650D01*
X16900Y-28650D02*
X18650Y-28650D01*
X33700Y-28600D02*
X34350Y-28600D01*
X20100Y-28600D02*
X27200Y-28600D01*
X16900Y-28600D02*
X18600Y-28600D01*
X33700Y-28550D02*
X34350Y-28550D01*
X20150Y-28550D02*
X27200Y-28550D01*
X16900Y-28550D02*
X18550Y-28550D01*
X33700Y-28500D02*
X34350Y-28500D01*
X20200Y-28500D02*
X27200Y-28500D01*
X16900Y-28500D02*
X18500Y-28500D01*
X33700Y-28450D02*
X34350Y-28450D01*
X20200Y-28450D02*
X24400Y-28450D01*
X16900Y-28450D02*
X18500Y-28450D01*
X33700Y-28400D02*
X34350Y-28400D01*
X20250Y-28400D02*
X24300Y-28400D01*
X16900Y-28400D02*
X18450Y-28400D01*
X33700Y-28350D02*
X34350Y-28350D01*
X20250Y-28350D02*
X24250Y-28350D01*
X16900Y-28350D02*
X18450Y-28350D01*
X33700Y-28300D02*
X34350Y-28300D01*
X20250Y-28300D02*
X24200Y-28300D01*
X16900Y-28300D02*
X18450Y-28300D01*
X33700Y-28250D02*
X34350Y-28250D01*
X20250Y-28250D02*
X24150Y-28250D01*
X16900Y-28250D02*
X18450Y-28250D01*
X33700Y-28200D02*
X34350Y-28200D01*
X20250Y-28200D02*
X24100Y-28200D01*
X16900Y-28200D02*
X18450Y-28200D01*
X33700Y-28150D02*
X34350Y-28150D01*
X20250Y-28150D02*
X24050Y-28150D01*
X16900Y-28150D02*
X18450Y-28150D01*
X33700Y-28100D02*
X34350Y-28100D01*
X20250Y-28100D02*
X24000Y-28100D01*
X16900Y-28100D02*
X18450Y-28100D01*
X33700Y-28050D02*
X34350Y-28050D01*
X20250Y-28050D02*
X24000Y-28050D01*
X16900Y-28050D02*
X18500Y-28050D01*
X33700Y-28000D02*
X34350Y-28000D01*
X20200Y-28000D02*
X23950Y-28000D01*
X16900Y-28000D02*
X18500Y-28000D01*
X33700Y-27950D02*
X34350Y-27950D01*
X20150Y-27950D02*
X23950Y-27950D01*
X16900Y-27950D02*
X18550Y-27950D01*
X33700Y-27900D02*
X34350Y-27900D01*
X20150Y-27900D02*
X23950Y-27900D01*
X16900Y-27900D02*
X18600Y-27900D01*
X33700Y-27850D02*
X34350Y-27850D01*
X20100Y-27850D02*
X23950Y-27850D01*
X19300Y-27850D02*
X19400Y-27850D01*
X16900Y-27850D02*
X18650Y-27850D01*
X33700Y-27800D02*
X34350Y-27800D01*
X20000Y-27800D02*
X23950Y-27800D01*
X19200Y-27800D02*
X19500Y-27800D01*
X16900Y-27800D02*
X18700Y-27800D01*
X33700Y-27750D02*
X34350Y-27750D01*
X19850Y-27750D02*
X23950Y-27750D01*
X19050Y-27750D02*
X19650Y-27750D01*
X16900Y-27750D02*
X18900Y-27750D01*
X33700Y-27700D02*
X34350Y-27700D01*
X20000Y-27700D02*
X23950Y-27700D01*
X16900Y-27700D02*
X19500Y-27700D01*
X33700Y-27650D02*
X34350Y-27650D01*
X20100Y-27650D02*
X23950Y-27650D01*
X16900Y-27650D02*
X19400Y-27650D01*
X33700Y-27600D02*
X34350Y-27600D01*
X20150Y-27600D02*
X23950Y-27600D01*
X16900Y-27600D02*
X19350Y-27600D01*
X33700Y-27550D02*
X34350Y-27550D01*
X20150Y-27550D02*
X23950Y-27550D01*
X16900Y-27550D02*
X19350Y-27550D01*
X33700Y-27500D02*
X34350Y-27500D01*
X20200Y-27500D02*
X23950Y-27500D01*
X16900Y-27500D02*
X19300Y-27500D01*
X33700Y-27450D02*
X34350Y-27450D01*
X20250Y-27450D02*
X23950Y-27450D01*
X16900Y-27450D02*
X19250Y-27450D01*
X33700Y-27400D02*
X34350Y-27400D01*
X20250Y-27400D02*
X23950Y-27400D01*
X16900Y-27400D02*
X19250Y-27400D01*
X33700Y-27350D02*
X34350Y-27350D01*
X20250Y-27350D02*
X23950Y-27350D01*
X16900Y-27350D02*
X19250Y-27350D01*
X33700Y-27300D02*
X34350Y-27300D01*
X20250Y-27300D02*
X23950Y-27300D01*
X16900Y-27300D02*
X19250Y-27300D01*
X33700Y-27250D02*
X34350Y-27250D01*
X20250Y-27250D02*
X23950Y-27250D01*
X16900Y-27250D02*
X19250Y-27250D01*
X33700Y-27200D02*
X34350Y-27200D01*
X20250Y-27200D02*
X23950Y-27200D01*
X16900Y-27200D02*
X19250Y-27200D01*
X33700Y-27150D02*
X34350Y-27150D01*
X23600Y-27150D02*
X23900Y-27150D01*
X20250Y-27150D02*
X20400Y-27150D01*
X16900Y-27150D02*
X19250Y-27150D01*
X33700Y-27100D02*
X34350Y-27100D01*
X23600Y-27100D02*
X23900Y-27100D01*
X20250Y-27100D02*
X20400Y-27100D01*
X16900Y-27100D02*
X19250Y-27100D01*
X33700Y-27050D02*
X34350Y-27050D01*
X23600Y-27050D02*
X23900Y-27050D01*
X20200Y-27050D02*
X20400Y-27050D01*
X16900Y-27050D02*
X19300Y-27050D01*
X33700Y-27000D02*
X34350Y-27000D01*
X23600Y-27000D02*
X23900Y-27000D01*
X20200Y-27000D02*
X20400Y-27000D01*
X16900Y-27000D02*
X19300Y-27000D01*
X33700Y-26950D02*
X34350Y-26950D01*
X23600Y-26950D02*
X23900Y-26950D01*
X20150Y-26950D02*
X20400Y-26950D01*
X16900Y-26950D02*
X19350Y-26950D01*
X33700Y-26900D02*
X34350Y-26900D01*
X23600Y-26900D02*
X23900Y-26900D01*
X20150Y-26900D02*
X20400Y-26900D01*
X16900Y-26900D02*
X19350Y-26900D01*
X33700Y-26850D02*
X34350Y-26850D01*
X23600Y-26850D02*
X23900Y-26850D01*
X20150Y-26850D02*
X20400Y-26850D01*
X16900Y-26850D02*
X19350Y-26850D01*
X33700Y-26800D02*
X34350Y-26800D01*
X23600Y-26800D02*
X23900Y-26800D01*
X20150Y-26800D02*
X20400Y-26800D01*
X16900Y-26800D02*
X19250Y-26800D01*
X33700Y-26750D02*
X34350Y-26750D01*
X23600Y-26750D02*
X23900Y-26750D01*
X20150Y-26750D02*
X20400Y-26750D01*
X16900Y-26750D02*
X19250Y-26750D01*
X33650Y-26700D02*
X34350Y-26700D01*
X23600Y-26700D02*
X23900Y-26700D01*
X20150Y-26700D02*
X20400Y-26700D01*
X16900Y-26700D02*
X19250Y-26700D01*
X33650Y-26650D02*
X34350Y-26650D01*
X23600Y-26650D02*
X23900Y-26650D01*
X20150Y-26650D02*
X20400Y-26650D01*
X16900Y-26650D02*
X19250Y-26650D01*
X33600Y-26600D02*
X34350Y-26600D01*
X23600Y-26600D02*
X23900Y-26600D01*
X20150Y-26600D02*
X20400Y-26600D01*
X16900Y-26600D02*
X19250Y-26600D01*
X33550Y-26550D02*
X34350Y-26550D01*
X23600Y-26550D02*
X23900Y-26550D01*
X20150Y-26550D02*
X20400Y-26550D01*
X16900Y-26550D02*
X19250Y-26550D01*
X33500Y-26500D02*
X34350Y-26500D01*
X23600Y-26500D02*
X23900Y-26500D01*
X20100Y-26500D02*
X20400Y-26500D01*
X16900Y-26500D02*
X19250Y-26500D01*
X33450Y-26450D02*
X34350Y-26450D01*
X23600Y-26450D02*
X23900Y-26450D01*
X20100Y-26450D02*
X20400Y-26450D01*
X16900Y-26450D02*
X19250Y-26450D01*
X33400Y-26400D02*
X34350Y-26400D01*
X23600Y-26400D02*
X23900Y-26400D01*
X20100Y-26400D02*
X20400Y-26400D01*
X16900Y-26400D02*
X19200Y-26400D01*
X33300Y-26350D02*
X34350Y-26350D01*
X20050Y-26350D02*
X20400Y-26350D01*
X16900Y-26350D02*
X19250Y-26350D01*
X32650Y-26300D02*
X34350Y-26300D01*
X20000Y-26300D02*
X20400Y-26300D01*
X16900Y-26300D02*
X19250Y-26300D01*
X32650Y-26250D02*
X34350Y-26250D01*
X19950Y-26250D02*
X20400Y-26250D01*
X16900Y-26250D02*
X19250Y-26250D01*
X32650Y-26200D02*
X34350Y-26200D01*
X24500Y-26200D02*
X25600Y-26200D01*
X19950Y-26200D02*
X20450Y-26200D01*
X16900Y-26200D02*
X19250Y-26200D01*
X33500Y-26150D02*
X34350Y-26150D01*
X24550Y-26150D02*
X25650Y-26150D01*
X19950Y-26150D02*
X20450Y-26150D01*
X16900Y-26150D02*
X19250Y-26150D01*
X33500Y-26100D02*
X34350Y-26100D01*
X24600Y-26100D02*
X25700Y-26100D01*
X19950Y-26100D02*
X20450Y-26100D01*
X16900Y-26100D02*
X19250Y-26100D01*
X33500Y-26050D02*
X34350Y-26050D01*
X24650Y-26050D02*
X25750Y-26050D01*
X19950Y-26050D02*
X20450Y-26050D01*
X16900Y-26050D02*
X19250Y-26050D01*
X34150Y-26000D02*
X34350Y-26000D01*
X24700Y-26000D02*
X25750Y-26000D01*
X19950Y-26000D02*
X20450Y-26000D01*
X16900Y-26000D02*
X19250Y-26000D01*
X34150Y-25950D02*
X34350Y-25950D01*
X24750Y-25950D02*
X25650Y-25950D01*
X16900Y-25950D02*
X20450Y-25950D01*
X34150Y-25900D02*
X34350Y-25900D01*
X24800Y-25900D02*
X25600Y-25900D01*
X16900Y-25900D02*
X20450Y-25900D01*
X34150Y-25850D02*
X34350Y-25850D01*
X24850Y-25850D02*
X25550Y-25850D01*
X16900Y-25850D02*
X20450Y-25850D01*
X34150Y-25800D02*
X34350Y-25800D01*
X24900Y-25800D02*
X25500Y-25800D01*
X16900Y-25800D02*
X20450Y-25800D01*
X34150Y-25750D02*
X34350Y-25750D01*
X16900Y-25750D02*
X20450Y-25750D01*
X34150Y-25700D02*
X34350Y-25700D01*
X16900Y-25700D02*
X20450Y-25700D01*
X34150Y-25650D02*
X34350Y-25650D01*
X16900Y-25650D02*
X20450Y-25650D01*
X34150Y-25600D02*
X34350Y-25600D01*
X16900Y-25600D02*
X20450Y-25600D01*
X34150Y-25550D02*
X34350Y-25550D01*
X16900Y-25550D02*
X21050Y-25550D01*
X34150Y-25500D02*
X34350Y-25500D01*
X16900Y-25500D02*
X21100Y-25500D01*
X34150Y-25450D02*
X34350Y-25450D01*
X16900Y-25450D02*
X21150Y-25450D01*
X34150Y-25400D02*
X34350Y-25400D01*
X16900Y-25400D02*
X21200Y-25400D01*
X33550Y-25350D02*
X34350Y-25350D01*
X16900Y-25350D02*
X21200Y-25350D01*
X33600Y-25300D02*
X34350Y-25300D01*
X16900Y-25300D02*
X21200Y-25300D01*
X33650Y-25250D02*
X34350Y-25250D01*
X26500Y-25250D02*
X26550Y-25250D01*
X16900Y-25250D02*
X21200Y-25250D01*
X33700Y-25200D02*
X34350Y-25200D01*
X26500Y-25200D02*
X26600Y-25200D01*
X16900Y-25200D02*
X21200Y-25200D01*
X33750Y-25150D02*
X34350Y-25150D01*
X26450Y-25150D02*
X26600Y-25150D01*
X16900Y-25150D02*
X21200Y-25150D01*
X33800Y-25100D02*
X34350Y-25100D01*
X32200Y-25100D02*
X33000Y-25100D01*
X26400Y-25100D02*
X26650Y-25100D01*
X16900Y-25100D02*
X21200Y-25100D01*
X33850Y-25050D02*
X34350Y-25050D01*
X32100Y-25050D02*
X33050Y-25050D01*
X26350Y-25050D02*
X26700Y-25050D01*
X19800Y-25050D02*
X20750Y-25050D01*
X16900Y-25050D02*
X19500Y-25050D01*
X33900Y-25000D02*
X34350Y-25000D01*
X31600Y-25000D02*
X33100Y-25000D01*
X26250Y-25000D02*
X26750Y-25000D01*
X19900Y-25000D02*
X20750Y-25000D01*
X16900Y-25000D02*
X19400Y-25000D01*
X33900Y-24950D02*
X34350Y-24950D01*
X31250Y-24950D02*
X33150Y-24950D01*
X25850Y-24950D02*
X26800Y-24950D01*
X20000Y-24950D02*
X20750Y-24950D01*
X16900Y-24950D02*
X19300Y-24950D01*
X33950Y-24900D02*
X34350Y-24900D01*
X31250Y-24900D02*
X33200Y-24900D01*
X25800Y-24900D02*
X26850Y-24900D01*
X20000Y-24900D02*
X20750Y-24900D01*
X16900Y-24900D02*
X19300Y-24900D01*
X33950Y-24850D02*
X34350Y-24850D01*
X31250Y-24850D02*
X33250Y-24850D01*
X25800Y-24850D02*
X26800Y-24850D01*
X20050Y-24850D02*
X20750Y-24850D01*
X16900Y-24850D02*
X19250Y-24850D01*
X33950Y-24800D02*
X34350Y-24800D01*
X31250Y-24800D02*
X33300Y-24800D01*
X25800Y-24800D02*
X26800Y-24800D01*
X20050Y-24800D02*
X20750Y-24800D01*
X16900Y-24800D02*
X19200Y-24800D01*
X33950Y-24750D02*
X34350Y-24750D01*
X31250Y-24750D02*
X33350Y-24750D01*
X25800Y-24750D02*
X26800Y-24750D01*
X20100Y-24750D02*
X20750Y-24750D01*
X16900Y-24750D02*
X19150Y-24750D01*
X33950Y-24700D02*
X34350Y-24700D01*
X31250Y-24700D02*
X33350Y-24700D01*
X25800Y-24700D02*
X26800Y-24700D01*
X24750Y-24700D02*
X24800Y-24700D01*
X20100Y-24700D02*
X20750Y-24700D01*
X16900Y-24700D02*
X19100Y-24700D01*
X33950Y-24650D02*
X34350Y-24650D01*
X31250Y-24650D02*
X33350Y-24650D01*
X25800Y-24650D02*
X26800Y-24650D01*
X24750Y-24650D02*
X24800Y-24650D01*
X20100Y-24650D02*
X20750Y-24650D01*
X16900Y-24650D02*
X19050Y-24650D01*
X33950Y-24600D02*
X34350Y-24600D01*
X31250Y-24600D02*
X33350Y-24600D01*
X25800Y-24600D02*
X26800Y-24600D01*
X20100Y-24600D02*
X20750Y-24600D01*
X16900Y-24600D02*
X19000Y-24600D01*
X33950Y-24550D02*
X34350Y-24550D01*
X31250Y-24550D02*
X33350Y-24550D01*
X25800Y-24550D02*
X26800Y-24550D01*
X20100Y-24550D02*
X20750Y-24550D01*
X16900Y-24550D02*
X18950Y-24550D01*
X33950Y-24500D02*
X34350Y-24500D01*
X31250Y-24500D02*
X33350Y-24500D01*
X25800Y-24500D02*
X26800Y-24500D01*
X20050Y-24500D02*
X20750Y-24500D01*
X16900Y-24500D02*
X18900Y-24500D01*
X33950Y-24450D02*
X34350Y-24450D01*
X31250Y-24450D02*
X33350Y-24450D01*
X25800Y-24450D02*
X26800Y-24450D01*
X20050Y-24450D02*
X20750Y-24450D01*
X16900Y-24450D02*
X18850Y-24450D01*
X33950Y-24400D02*
X34350Y-24400D01*
X31250Y-24400D02*
X33350Y-24400D01*
X25800Y-24400D02*
X26800Y-24400D01*
X20000Y-24400D02*
X20750Y-24400D01*
X16900Y-24400D02*
X18800Y-24400D01*
X33950Y-24350D02*
X34350Y-24350D01*
X31250Y-24350D02*
X33350Y-24350D01*
X25800Y-24350D02*
X26800Y-24350D01*
X20000Y-24350D02*
X20750Y-24350D01*
X16900Y-24350D02*
X18750Y-24350D01*
X33950Y-24300D02*
X34350Y-24300D01*
X31250Y-24300D02*
X33350Y-24300D01*
X25450Y-24300D02*
X26800Y-24300D01*
X19900Y-24300D02*
X20750Y-24300D01*
X16900Y-24300D02*
X18700Y-24300D01*
X33950Y-24250D02*
X34350Y-24250D01*
X31250Y-24250D02*
X33350Y-24250D01*
X25450Y-24250D02*
X26700Y-24250D01*
X16900Y-24250D02*
X18650Y-24250D01*
X33950Y-24200D02*
X34350Y-24200D01*
X31250Y-24200D02*
X33350Y-24200D01*
X25450Y-24200D02*
X26700Y-24200D01*
X16900Y-24200D02*
X18600Y-24200D01*
X33950Y-24150D02*
X34350Y-24150D01*
X31250Y-24150D02*
X33350Y-24150D01*
X25450Y-24150D02*
X26700Y-24150D01*
X16900Y-24150D02*
X18550Y-24150D01*
X33950Y-24100D02*
X34350Y-24100D01*
X31250Y-24100D02*
X33350Y-24100D01*
X25450Y-24100D02*
X26700Y-24100D01*
X22900Y-24100D02*
X24750Y-24100D01*
X16900Y-24100D02*
X18500Y-24100D01*
X33950Y-24050D02*
X34350Y-24050D01*
X31250Y-24050D02*
X33350Y-24050D01*
X25450Y-24050D02*
X26700Y-24050D01*
X22950Y-24050D02*
X24750Y-24050D01*
X16900Y-24050D02*
X18450Y-24050D01*
X33950Y-24000D02*
X34350Y-24000D01*
X31250Y-24000D02*
X33350Y-24000D01*
X25450Y-24000D02*
X26700Y-24000D01*
X23000Y-24000D02*
X24750Y-24000D01*
X16900Y-24000D02*
X18400Y-24000D01*
X33950Y-23950D02*
X34350Y-23950D01*
X31250Y-23950D02*
X33350Y-23950D01*
X25450Y-23950D02*
X25800Y-23950D01*
X23000Y-23950D02*
X24750Y-23950D01*
X16900Y-23950D02*
X18350Y-23950D01*
X33950Y-23900D02*
X34350Y-23900D01*
X31250Y-23900D02*
X33350Y-23900D01*
X25450Y-23900D02*
X25800Y-23900D01*
X23050Y-23900D02*
X24750Y-23900D01*
X16900Y-23900D02*
X18350Y-23900D01*
X33950Y-23850D02*
X34350Y-23850D01*
X31250Y-23850D02*
X33350Y-23850D01*
X25450Y-23850D02*
X25800Y-23850D01*
X16900Y-23850D02*
X18350Y-23850D01*
X33950Y-23800D02*
X34350Y-23800D01*
X31250Y-23800D02*
X33350Y-23800D01*
X25450Y-23800D02*
X25800Y-23800D01*
X16900Y-23800D02*
X18300Y-23800D01*
X33950Y-23750D02*
X34350Y-23750D01*
X33050Y-23750D02*
X33350Y-23750D01*
X31100Y-23750D02*
X32350Y-23750D01*
X24750Y-23750D02*
X25800Y-23750D01*
X16900Y-23750D02*
X18300Y-23750D01*
X33950Y-23700D02*
X34350Y-23700D01*
X33050Y-23700D02*
X33350Y-23700D01*
X31100Y-23700D02*
X32350Y-23700D01*
X24750Y-23700D02*
X25800Y-23700D01*
X16900Y-23700D02*
X18300Y-23700D01*
X33950Y-23650D02*
X34350Y-23650D01*
X33050Y-23650D02*
X33350Y-23650D01*
X31100Y-23650D02*
X32350Y-23650D01*
X16900Y-23650D02*
X18300Y-23650D01*
X33950Y-23600D02*
X34350Y-23600D01*
X33050Y-23600D02*
X33350Y-23600D01*
X31100Y-23600D02*
X32350Y-23600D01*
X16900Y-23600D02*
X18300Y-23600D01*
X33950Y-23550D02*
X34350Y-23550D01*
X33050Y-23550D02*
X33350Y-23550D01*
X31100Y-23550D02*
X32350Y-23550D01*
X16900Y-23550D02*
X18300Y-23550D01*
X33950Y-23500D02*
X34350Y-23500D01*
X33050Y-23500D02*
X33350Y-23500D01*
X31100Y-23500D02*
X32350Y-23500D01*
X16900Y-23500D02*
X18300Y-23500D01*
X33950Y-23450D02*
X34350Y-23450D01*
X33050Y-23450D02*
X33350Y-23450D01*
X31100Y-23450D02*
X32350Y-23450D01*
X16900Y-23450D02*
X18300Y-23450D01*
X33950Y-23400D02*
X34350Y-23400D01*
X33050Y-23400D02*
X33350Y-23400D01*
X31100Y-23400D02*
X32350Y-23400D01*
X16900Y-23400D02*
X18300Y-23400D01*
X33950Y-23350D02*
X34350Y-23350D01*
X33050Y-23350D02*
X33350Y-23350D01*
X31100Y-23350D02*
X32350Y-23350D01*
X16900Y-23350D02*
X18300Y-23350D01*
X33950Y-23300D02*
X34350Y-23300D01*
X33050Y-23300D02*
X33350Y-23300D01*
X31100Y-23300D02*
X32350Y-23300D01*
X16900Y-23300D02*
X18300Y-23300D01*
X33950Y-23250D02*
X34350Y-23250D01*
X33050Y-23250D02*
X33350Y-23250D01*
X31100Y-23250D02*
X32350Y-23250D01*
X16900Y-23250D02*
X18300Y-23250D01*
X33950Y-23200D02*
X34350Y-23200D01*
X33050Y-23200D02*
X33350Y-23200D01*
X31100Y-23200D02*
X32350Y-23200D01*
X16900Y-23200D02*
X18300Y-23200D01*
X33950Y-23150D02*
X34350Y-23150D01*
X33050Y-23150D02*
X33350Y-23150D01*
X31100Y-23150D02*
X32350Y-23150D01*
X16900Y-23150D02*
X18300Y-23150D01*
X33950Y-23100D02*
X34350Y-23100D01*
X33050Y-23100D02*
X33350Y-23100D01*
X31100Y-23100D02*
X32350Y-23100D01*
X16900Y-23100D02*
X18300Y-23100D01*
X33950Y-23050D02*
X34350Y-23050D01*
X33050Y-23050D02*
X33350Y-23050D01*
X31100Y-23050D02*
X32350Y-23050D01*
X16900Y-23050D02*
X18300Y-23050D01*
X33950Y-23000D02*
X34350Y-23000D01*
X31100Y-23000D02*
X32350Y-23000D01*
X28350Y-23000D02*
X28700Y-23000D01*
X16900Y-23000D02*
X18300Y-23000D01*
X33950Y-22950D02*
X34350Y-22950D01*
X31100Y-22950D02*
X32350Y-22950D01*
X28350Y-22950D02*
X28700Y-22950D01*
X16900Y-22950D02*
X18300Y-22950D01*
X33950Y-22900D02*
X34350Y-22900D01*
X31100Y-22900D02*
X32350Y-22900D01*
X28350Y-22900D02*
X28700Y-22900D01*
X27050Y-22900D02*
X27100Y-22900D01*
X16900Y-22900D02*
X18300Y-22900D01*
X33950Y-22850D02*
X34350Y-22850D01*
X31100Y-22850D02*
X32350Y-22850D01*
X28350Y-22850D02*
X28700Y-22850D01*
X27050Y-22850D02*
X27150Y-22850D01*
X16900Y-22850D02*
X18300Y-22850D01*
X33950Y-22800D02*
X34350Y-22800D01*
X28350Y-22800D02*
X29550Y-22800D01*
X27050Y-22800D02*
X27200Y-22800D01*
X16900Y-22800D02*
X18300Y-22800D01*
X33950Y-22750D02*
X34350Y-22750D01*
X28350Y-22750D02*
X29600Y-22750D01*
X27050Y-22750D02*
X27250Y-22750D01*
X16900Y-22750D02*
X18350Y-22750D01*
X33950Y-22700D02*
X34350Y-22700D01*
X28350Y-22700D02*
X29600Y-22700D01*
X27050Y-22700D02*
X27250Y-22700D01*
X16900Y-22700D02*
X18350Y-22700D01*
X33900Y-22650D02*
X34350Y-22650D01*
X28350Y-22650D02*
X29650Y-22650D01*
X27050Y-22650D02*
X27250Y-22650D01*
X16900Y-22650D02*
X18350Y-22650D01*
X33900Y-22600D02*
X34350Y-22600D01*
X28350Y-22600D02*
X29700Y-22600D01*
X27050Y-22600D02*
X27250Y-22600D01*
X16900Y-22600D02*
X18400Y-22600D01*
X33850Y-22550D02*
X34350Y-22550D01*
X28350Y-22550D02*
X29750Y-22550D01*
X27050Y-22550D02*
X27250Y-22550D01*
X16900Y-22550D02*
X18450Y-22550D01*
X33800Y-22500D02*
X34350Y-22500D01*
X28350Y-22500D02*
X29800Y-22500D01*
X27050Y-22500D02*
X27250Y-22500D01*
X16900Y-22500D02*
X18500Y-22500D01*
X33750Y-22450D02*
X34350Y-22450D01*
X28350Y-22450D02*
X29850Y-22450D01*
X27050Y-22450D02*
X27250Y-22450D01*
X16900Y-22450D02*
X18550Y-22450D01*
X33700Y-22400D02*
X34350Y-22400D01*
X28350Y-22400D02*
X29900Y-22400D01*
X27050Y-22400D02*
X27250Y-22400D01*
X16900Y-22400D02*
X18600Y-22400D01*
X33650Y-22350D02*
X34350Y-22350D01*
X28350Y-22350D02*
X29950Y-22350D01*
X27050Y-22350D02*
X27250Y-22350D01*
X16900Y-22350D02*
X18650Y-22350D01*
X33650Y-22300D02*
X34350Y-22300D01*
X28350Y-22300D02*
X30050Y-22300D01*
X27050Y-22300D02*
X27250Y-22300D01*
X16900Y-22300D02*
X18700Y-22300D01*
X33650Y-22250D02*
X34350Y-22250D01*
X28350Y-22250D02*
X32350Y-22250D01*
X27050Y-22250D02*
X27250Y-22250D01*
X16900Y-22250D02*
X18750Y-22250D01*
X33650Y-22200D02*
X34350Y-22200D01*
X28350Y-22200D02*
X32350Y-22200D01*
X27050Y-22200D02*
X27250Y-22200D01*
X16900Y-22200D02*
X18800Y-22200D01*
X28350Y-22150D02*
X34350Y-22150D01*
X27050Y-22150D02*
X27250Y-22150D01*
X16900Y-22150D02*
X18950Y-22150D01*
X28350Y-22100D02*
X34350Y-22100D01*
X27050Y-22100D02*
X27250Y-22100D01*
X16900Y-22100D02*
X25950Y-22100D01*
X28350Y-22050D02*
X34350Y-22050D01*
X27050Y-22050D02*
X27250Y-22050D01*
X16900Y-22050D02*
X25950Y-22050D01*
X16900Y-22000D02*
X34350Y-22000D01*
X16900Y-21950D02*
X34350Y-21950D01*
X16900Y-21900D02*
X34350Y-21900D01*
M02*
