G04 (Genere par PCBnew (20080825c)) le 24/5/2009-11:15:52*
G01*
G70*
G90*
%MOIN*%
G04 Gerber Fmt 3.4, Leading zero omitted, Abs format*
%FSLAX34Y34*%
G04 APERTURE LIST*
%ADD10C,0.012000*%
%ADD11R,0.070000X0.070000*%
%ADD12C,0.070000*%
%ADD13C,0.169300*%
%ADD14C,0.059100*%
%ADD15C,0.045000*%
%ADD16C,0.030000*%
%ADD17C,0.012000*%
%ADD18C,0.005000*%
%ADD19C,0.006000*%
%ADD20R,0.025000X0.045000*%
%ADD21R,0.045000X0.025000*%
%ADD22R,0.100000X0.050000*%
%ADD23R,0.050000X0.100000*%
%ADD24R,0.020000X0.050000*%
%ADD25R,0.036000X0.036000*%
%ADD26R,0.080000X0.060000*%
%ADD27R,0.060000X0.080000*%
%ADD28C,0.017000*%
%ADD29C,0.010000*%
%ADD30C,0.008000*%
%ADD31C,0.015000*%
%ADD32R,0.090000X0.090000*%
%ADD33C,0.090000*%
%ADD34C,0.189300*%
%ADD35C,0.079100*%
%ADD36R,0.045000X0.065000*%
%ADD37R,0.065000X0.045000*%
%ADD38R,0.120000X0.070000*%
%ADD39R,0.070000X0.120000*%
%ADD40R,0.040000X0.070000*%
%ADD41R,0.056000X0.056000*%
%ADD42R,0.100000X0.080000*%
%ADD43R,0.080000X0.100000*%
%ADD44C,0.001000*%
G04 APERTURE END LIST*
G54D10*
X34040Y-22617D02*
X34040Y-22973D01*
X34040Y-22973D02*
X33890Y-23150D01*
X33890Y-23150D02*
X33665Y-23150D01*
X33665Y-23150D02*
X33515Y-22973D01*
X33515Y-22973D02*
X33515Y-22617D01*
X33254Y-23062D02*
X33179Y-23150D01*
X33179Y-23150D02*
X32804Y-23150D01*
X32804Y-23150D02*
X32729Y-23062D01*
X32729Y-23062D02*
X32729Y-22973D01*
X32729Y-22973D02*
X32804Y-22884D01*
X32804Y-22884D02*
X33179Y-22884D01*
X33179Y-22884D02*
X33254Y-22795D01*
X33254Y-22795D02*
X33254Y-22706D01*
X33254Y-22706D02*
X33179Y-22617D01*
X33179Y-22617D02*
X32804Y-22617D01*
X32804Y-22617D02*
X32729Y-22706D01*
X32468Y-22350D02*
X32468Y-23150D01*
X32468Y-23150D02*
X31943Y-23150D01*
X31943Y-23150D02*
X31943Y-22795D01*
X31943Y-22795D02*
X32018Y-22706D01*
X32018Y-22706D02*
X32468Y-22706D01*
X31682Y-23416D02*
X31682Y-22617D01*
X31682Y-22706D02*
X31607Y-22617D01*
X31607Y-22617D02*
X31232Y-22617D01*
X31232Y-22617D02*
X31157Y-22706D01*
X31157Y-22706D02*
X31157Y-23062D01*
X31157Y-23062D02*
X31232Y-23150D01*
X31232Y-23150D02*
X31607Y-23150D01*
X31607Y-23150D02*
X31682Y-23062D01*
X30671Y-22350D02*
X30671Y-22439D01*
X30671Y-22706D02*
X30671Y-23062D01*
X30671Y-23062D02*
X30596Y-23150D01*
X30596Y-23150D02*
X30521Y-23150D01*
X29585Y-23062D02*
X29660Y-23150D01*
X29660Y-23150D02*
X30035Y-23150D01*
X30035Y-23150D02*
X30110Y-23062D01*
X30110Y-23062D02*
X30110Y-22706D01*
X30110Y-22706D02*
X30035Y-22617D01*
X30035Y-22617D02*
X29660Y-22617D01*
X29660Y-22617D02*
X29585Y-22706D01*
X29324Y-23416D02*
X29324Y-22617D01*
X29324Y-22706D02*
X29249Y-22617D01*
X29249Y-22617D02*
X28874Y-22617D01*
X28874Y-22617D02*
X28799Y-22706D01*
X28799Y-22706D02*
X28799Y-23062D01*
X28799Y-23062D02*
X28874Y-23150D01*
X28874Y-23150D02*
X29249Y-23150D01*
X29249Y-23150D02*
X29324Y-23062D01*
X28538Y-23150D02*
X28538Y-22617D01*
X28538Y-22795D02*
X28388Y-22617D01*
X28388Y-22617D02*
X28163Y-22617D01*
X28163Y-22617D02*
X28013Y-22795D01*
X27677Y-23150D02*
X27752Y-23062D01*
X27752Y-23062D02*
X27752Y-22706D01*
X27752Y-22706D02*
X27677Y-22617D01*
X27677Y-22617D02*
X27302Y-22617D01*
X27302Y-22617D02*
X27227Y-22706D01*
X27227Y-22706D02*
X27227Y-23062D01*
X27227Y-23062D02*
X27302Y-23150D01*
X27302Y-23150D02*
X27677Y-23150D01*
X26966Y-23327D02*
X26891Y-23416D01*
X26891Y-23416D02*
X26516Y-23416D01*
X26516Y-23416D02*
X26441Y-23327D01*
X26441Y-23327D02*
X26441Y-22706D01*
X26441Y-22706D02*
X26516Y-22617D01*
X26516Y-22617D02*
X26891Y-22617D01*
X26891Y-22617D02*
X26966Y-22706D01*
X26966Y-22706D02*
X26966Y-23062D01*
X26966Y-23062D02*
X26891Y-23150D01*
X26891Y-23150D02*
X26516Y-23150D01*
X26516Y-23150D02*
X26441Y-23062D01*
X25955Y-23150D02*
X25955Y-23062D01*
X25319Y-23150D02*
X25394Y-23062D01*
X25394Y-23062D02*
X25394Y-22706D01*
X25394Y-22706D02*
X25319Y-22617D01*
X25319Y-22617D02*
X24944Y-22617D01*
X24944Y-22617D02*
X24869Y-22706D01*
X24869Y-22706D02*
X24869Y-23062D01*
X24869Y-23062D02*
X24944Y-23150D01*
X24944Y-23150D02*
X25319Y-23150D01*
X24608Y-23150D02*
X24608Y-22617D01*
X24608Y-22795D02*
X24458Y-22617D01*
X24458Y-22617D02*
X24233Y-22617D01*
X24233Y-22617D02*
X24083Y-22795D01*
X23822Y-23327D02*
X23747Y-23416D01*
X23747Y-23416D02*
X23372Y-23416D01*
X23372Y-23416D02*
X23297Y-23327D01*
X23297Y-23327D02*
X23297Y-22706D01*
X23297Y-22706D02*
X23372Y-22617D01*
X23372Y-22617D02*
X23747Y-22617D01*
X23747Y-22617D02*
X23822Y-22706D01*
X23822Y-22706D02*
X23822Y-23062D01*
X23822Y-23062D02*
X23747Y-23150D01*
X23747Y-23150D02*
X23372Y-23150D01*
X23372Y-23150D02*
X23297Y-23062D01*
G54D44*
X16650Y-21650D02*
X34600Y-21650D01*
X16650Y-32600D02*
X16650Y-21650D01*
X34600Y-32600D02*
X16650Y-32600D01*
X34600Y-21650D02*
X34600Y-32600D01*
G54D10*
X26146Y-30712D02*
X26071Y-30800D01*
X26071Y-30800D02*
X25696Y-30800D01*
X25696Y-30800D02*
X25621Y-30712D01*
X25621Y-30712D02*
X25621Y-30445D01*
X25621Y-30445D02*
X25696Y-30356D01*
X25696Y-30356D02*
X26071Y-30356D01*
X26071Y-30356D02*
X26146Y-30267D01*
X26146Y-30267D02*
X26146Y-30089D01*
X26146Y-30089D02*
X26071Y-30000D01*
X26071Y-30000D02*
X25696Y-30000D01*
X25696Y-30000D02*
X25621Y-30089D01*
X25360Y-30534D02*
X24835Y-30534D01*
X24835Y-30534D02*
X24835Y-30356D01*
X24835Y-30356D02*
X24910Y-30267D01*
X24910Y-30267D02*
X25285Y-30267D01*
X25285Y-30267D02*
X25360Y-30356D01*
X25360Y-30356D02*
X25360Y-30712D01*
X25360Y-30712D02*
X25285Y-30800D01*
X25285Y-30800D02*
X24910Y-30800D01*
X24910Y-30800D02*
X24835Y-30712D01*
X24424Y-30000D02*
X24349Y-30000D01*
X24349Y-30000D02*
X24349Y-30800D01*
X24424Y-30800D02*
X24274Y-30800D01*
X23788Y-30534D02*
X23263Y-30534D01*
X23263Y-30534D02*
X23263Y-30356D01*
X23263Y-30356D02*
X23338Y-30267D01*
X23338Y-30267D02*
X23713Y-30267D01*
X23713Y-30267D02*
X23788Y-30356D01*
X23788Y-30356D02*
X23788Y-30712D01*
X23788Y-30712D02*
X23713Y-30800D01*
X23713Y-30800D02*
X23338Y-30800D01*
X23338Y-30800D02*
X23263Y-30712D01*
X22477Y-30712D02*
X22552Y-30800D01*
X22552Y-30800D02*
X22927Y-30800D01*
X22927Y-30800D02*
X23002Y-30712D01*
X23002Y-30712D02*
X23002Y-30356D01*
X23002Y-30356D02*
X22927Y-30267D01*
X22927Y-30267D02*
X22552Y-30267D01*
X22552Y-30267D02*
X22477Y-30356D01*
X21766Y-30712D02*
X21841Y-30800D01*
X21841Y-30800D02*
X22066Y-30800D01*
X22066Y-30800D02*
X22141Y-30712D01*
X22141Y-30712D02*
X22141Y-30000D01*
X22141Y-30267D02*
X21916Y-30267D01*
X29167Y-30900D02*
X29167Y-30100D01*
X29167Y-30100D02*
X28717Y-30100D01*
X28717Y-30100D02*
X28642Y-30189D01*
X28642Y-30189D02*
X28642Y-30456D01*
X28642Y-30456D02*
X28717Y-30545D01*
X28717Y-30545D02*
X29167Y-30545D01*
X28942Y-30545D02*
X28642Y-30900D01*
X28381Y-30367D02*
X28381Y-30723D01*
X28381Y-30723D02*
X28231Y-30900D01*
X28231Y-30900D02*
X28006Y-30900D01*
X28006Y-30900D02*
X27856Y-30723D01*
X27856Y-30723D02*
X27856Y-30367D01*
X27595Y-30900D02*
X27595Y-30367D01*
X27595Y-30456D02*
X27520Y-30367D01*
X27520Y-30367D02*
X27220Y-30367D01*
X27220Y-30367D02*
X27145Y-30456D01*
X27145Y-30456D02*
X27145Y-30900D01*
G54D29*
X34348Y-26150D02*
X34098Y-26850D01*
X34098Y-26850D02*
X33848Y-26150D01*
X33630Y-26850D02*
X33630Y-26150D01*
X33693Y-26150D02*
X33318Y-26150D01*
X33318Y-26150D02*
X33255Y-26228D01*
X33255Y-26228D02*
X33255Y-26773D01*
X33255Y-26773D02*
X33318Y-26850D01*
X33318Y-26850D02*
X33693Y-26850D01*
X32975Y-26850D02*
X32975Y-26150D01*
X33038Y-26150D02*
X32663Y-26150D01*
X32663Y-26150D02*
X32600Y-26228D01*
X32600Y-26228D02*
X32600Y-26773D01*
X32600Y-26773D02*
X32663Y-26850D01*
X32663Y-26850D02*
X33038Y-26850D01*
X34348Y-27850D02*
X34348Y-27150D01*
X34348Y-27150D02*
X33973Y-27150D01*
X33973Y-27150D02*
X33910Y-27228D01*
X33910Y-27228D02*
X33910Y-27462D01*
X33910Y-27462D02*
X33973Y-27539D01*
X33973Y-27539D02*
X34348Y-27539D01*
X33318Y-27228D02*
X33318Y-27150D01*
X33318Y-27150D02*
X33630Y-27150D01*
X33630Y-27150D02*
X33693Y-27228D01*
X33693Y-27228D02*
X33693Y-27773D01*
X33693Y-27773D02*
X33630Y-27850D01*
X33630Y-27850D02*
X33318Y-27850D01*
X33318Y-27850D02*
X33255Y-27773D01*
X33255Y-27773D02*
X33255Y-27539D01*
X33255Y-27539D02*
X33443Y-27539D01*
X32975Y-27850D02*
X32975Y-27150D01*
X33038Y-27150D02*
X32663Y-27150D01*
X32663Y-27150D02*
X32600Y-27228D01*
X32600Y-27228D02*
X32600Y-27773D01*
X32600Y-27773D02*
X32663Y-27850D01*
X32663Y-27850D02*
X33038Y-27850D01*
X34348Y-25150D02*
X34098Y-25850D01*
X34098Y-25850D02*
X33848Y-25150D01*
X33693Y-25850D02*
X33693Y-25150D01*
X33693Y-25150D02*
X33318Y-25150D01*
X33318Y-25150D02*
X33255Y-25228D01*
X33255Y-25228D02*
X33255Y-25462D01*
X33255Y-25462D02*
X33318Y-25539D01*
X33318Y-25539D02*
X33693Y-25539D01*
X33038Y-25850D02*
X33038Y-25150D01*
X33038Y-25150D02*
X32663Y-25150D01*
X32663Y-25150D02*
X32600Y-25228D01*
X32600Y-25228D02*
X32600Y-25462D01*
X32600Y-25462D02*
X32663Y-25539D01*
X32663Y-25539D02*
X33038Y-25539D01*
X34348Y-28850D02*
X34348Y-28150D01*
X34348Y-28150D02*
X33973Y-28150D01*
X33973Y-28150D02*
X33910Y-28228D01*
X33910Y-28228D02*
X33910Y-28462D01*
X33910Y-28462D02*
X33973Y-28539D01*
X33973Y-28539D02*
X34348Y-28539D01*
X33318Y-28228D02*
X33318Y-28150D01*
X33318Y-28150D02*
X33630Y-28150D01*
X33630Y-28150D02*
X33693Y-28228D01*
X33693Y-28228D02*
X33693Y-28773D01*
X33693Y-28773D02*
X33630Y-28850D01*
X33630Y-28850D02*
X33318Y-28850D01*
X33318Y-28850D02*
X33255Y-28773D01*
X33255Y-28773D02*
X33255Y-28539D01*
X33255Y-28539D02*
X33443Y-28539D01*
X32600Y-28773D02*
X32663Y-28850D01*
X32663Y-28850D02*
X32975Y-28850D01*
X32975Y-28850D02*
X33038Y-28773D01*
X33038Y-28773D02*
X33038Y-28228D01*
X33038Y-28228D02*
X32975Y-28150D01*
X32975Y-28150D02*
X32663Y-28150D01*
X32663Y-28150D02*
X32600Y-28228D01*
X33973Y-29228D02*
X33973Y-29150D01*
X33973Y-29150D02*
X34285Y-29150D01*
X34285Y-29150D02*
X34348Y-29228D01*
X34348Y-29228D02*
X34348Y-29773D01*
X34348Y-29773D02*
X34285Y-29850D01*
X34285Y-29850D02*
X33973Y-29850D01*
X33973Y-29850D02*
X33910Y-29773D01*
X33910Y-29773D02*
X33910Y-29539D01*
X33910Y-29539D02*
X34098Y-29539D01*
X33693Y-29850D02*
X33693Y-29150D01*
X33693Y-29150D02*
X33255Y-29850D01*
X33255Y-29850D02*
X33255Y-29150D01*
X32975Y-29850D02*
X32975Y-29150D01*
X33038Y-29150D02*
X32663Y-29150D01*
X32663Y-29150D02*
X32600Y-29228D01*
X32600Y-29228D02*
X32600Y-29773D01*
X32600Y-29773D02*
X32663Y-29850D01*
X32663Y-29850D02*
X33038Y-29850D01*
G54D10*
X32350Y-30050D02*
X31350Y-30050D01*
X31350Y-25050D02*
X32350Y-25050D01*
X32350Y-30050D02*
X32350Y-25050D01*
X31350Y-25050D02*
X31350Y-30050D01*
X24250Y-31950D02*
X24250Y-30950D01*
X29250Y-30950D02*
X29250Y-31950D01*
X24250Y-31950D02*
X29250Y-31950D01*
X29250Y-30950D02*
X24250Y-30950D01*
G54D19*
X22250Y-26000D02*
X22750Y-26500D01*
X27250Y-26500D02*
X27750Y-26000D01*
X27750Y-25000D02*
X27250Y-24500D01*
X22250Y-25000D02*
X22750Y-24500D01*
X22750Y-26500D02*
X27250Y-26500D01*
X22250Y-26000D02*
X22250Y-25000D01*
X22750Y-24500D02*
X27250Y-24500D01*
X27750Y-25000D02*
X27750Y-26000D01*
G54D10*
X13750Y-29678D02*
X13754Y-25814D01*
X13754Y-25814D02*
X20254Y-25814D01*
X20270Y-25846D02*
X20270Y-29670D01*
X20270Y-29670D02*
X13742Y-29670D01*
G54D44*
X32200Y-29900D02*
X31500Y-29900D01*
X31500Y-29900D02*
X31500Y-29200D01*
X31500Y-29200D02*
X32200Y-29200D01*
X32200Y-29200D02*
X32200Y-29900D01*
X32200Y-28550D02*
X32192Y-28622D01*
X32192Y-28622D02*
X32169Y-28692D01*
X32169Y-28692D02*
X32133Y-28755D01*
X32133Y-28755D02*
X32084Y-28810D01*
X32084Y-28810D02*
X32025Y-28853D01*
X32025Y-28853D02*
X31958Y-28882D01*
X31958Y-28882D02*
X31886Y-28898D01*
X31886Y-28898D02*
X31814Y-28898D01*
X31814Y-28898D02*
X31742Y-28882D01*
X31742Y-28882D02*
X31675Y-28853D01*
X31675Y-28853D02*
X31616Y-28810D01*
X31616Y-28810D02*
X31567Y-28755D01*
X31567Y-28755D02*
X31531Y-28692D01*
X31531Y-28692D02*
X31508Y-28622D01*
X31508Y-28622D02*
X31500Y-28550D01*
X31500Y-28550D02*
X31508Y-28478D01*
X31508Y-28478D02*
X31531Y-28408D01*
X31531Y-28408D02*
X31567Y-28345D01*
X31567Y-28345D02*
X31616Y-28290D01*
X31616Y-28290D02*
X31675Y-28247D01*
X31675Y-28247D02*
X31742Y-28218D01*
X31742Y-28218D02*
X31814Y-28202D01*
X31814Y-28202D02*
X31886Y-28202D01*
X31886Y-28202D02*
X31958Y-28218D01*
X31958Y-28218D02*
X32025Y-28247D01*
X32025Y-28247D02*
X32084Y-28290D01*
X32084Y-28290D02*
X32133Y-28345D01*
X32133Y-28345D02*
X32169Y-28408D01*
X32169Y-28408D02*
X32192Y-28478D01*
X32192Y-28478D02*
X32200Y-28550D01*
X32200Y-27550D02*
X32192Y-27622D01*
X32192Y-27622D02*
X32169Y-27692D01*
X32169Y-27692D02*
X32133Y-27755D01*
X32133Y-27755D02*
X32084Y-27810D01*
X32084Y-27810D02*
X32025Y-27853D01*
X32025Y-27853D02*
X31958Y-27882D01*
X31958Y-27882D02*
X31886Y-27898D01*
X31886Y-27898D02*
X31814Y-27898D01*
X31814Y-27898D02*
X31742Y-27882D01*
X31742Y-27882D02*
X31675Y-27853D01*
X31675Y-27853D02*
X31616Y-27810D01*
X31616Y-27810D02*
X31567Y-27755D01*
X31567Y-27755D02*
X31531Y-27692D01*
X31531Y-27692D02*
X31508Y-27622D01*
X31508Y-27622D02*
X31500Y-27550D01*
X31500Y-27550D02*
X31508Y-27478D01*
X31508Y-27478D02*
X31531Y-27408D01*
X31531Y-27408D02*
X31567Y-27345D01*
X31567Y-27345D02*
X31616Y-27290D01*
X31616Y-27290D02*
X31675Y-27247D01*
X31675Y-27247D02*
X31742Y-27218D01*
X31742Y-27218D02*
X31814Y-27202D01*
X31814Y-27202D02*
X31886Y-27202D01*
X31886Y-27202D02*
X31958Y-27218D01*
X31958Y-27218D02*
X32025Y-27247D01*
X32025Y-27247D02*
X32084Y-27290D01*
X32084Y-27290D02*
X32133Y-27345D01*
X32133Y-27345D02*
X32169Y-27408D01*
X32169Y-27408D02*
X32192Y-27478D01*
X32192Y-27478D02*
X32200Y-27550D01*
X32200Y-26550D02*
X32192Y-26622D01*
X32192Y-26622D02*
X32169Y-26692D01*
X32169Y-26692D02*
X32133Y-26755D01*
X32133Y-26755D02*
X32084Y-26810D01*
X32084Y-26810D02*
X32025Y-26853D01*
X32025Y-26853D02*
X31958Y-26882D01*
X31958Y-26882D02*
X31886Y-26898D01*
X31886Y-26898D02*
X31814Y-26898D01*
X31814Y-26898D02*
X31742Y-26882D01*
X31742Y-26882D02*
X31675Y-26853D01*
X31675Y-26853D02*
X31616Y-26810D01*
X31616Y-26810D02*
X31567Y-26755D01*
X31567Y-26755D02*
X31531Y-26692D01*
X31531Y-26692D02*
X31508Y-26622D01*
X31508Y-26622D02*
X31500Y-26550D01*
X31500Y-26550D02*
X31508Y-26478D01*
X31508Y-26478D02*
X31531Y-26408D01*
X31531Y-26408D02*
X31567Y-26345D01*
X31567Y-26345D02*
X31616Y-26290D01*
X31616Y-26290D02*
X31675Y-26247D01*
X31675Y-26247D02*
X31742Y-26218D01*
X31742Y-26218D02*
X31814Y-26202D01*
X31814Y-26202D02*
X31886Y-26202D01*
X31886Y-26202D02*
X31958Y-26218D01*
X31958Y-26218D02*
X32025Y-26247D01*
X32025Y-26247D02*
X32084Y-26290D01*
X32084Y-26290D02*
X32133Y-26345D01*
X32133Y-26345D02*
X32169Y-26408D01*
X32169Y-26408D02*
X32192Y-26478D01*
X32192Y-26478D02*
X32200Y-26550D01*
X32200Y-25550D02*
X32192Y-25622D01*
X32192Y-25622D02*
X32169Y-25692D01*
X32169Y-25692D02*
X32133Y-25755D01*
X32133Y-25755D02*
X32084Y-25810D01*
X32084Y-25810D02*
X32025Y-25853D01*
X32025Y-25853D02*
X31958Y-25882D01*
X31958Y-25882D02*
X31886Y-25898D01*
X31886Y-25898D02*
X31814Y-25898D01*
X31814Y-25898D02*
X31742Y-25882D01*
X31742Y-25882D02*
X31675Y-25853D01*
X31675Y-25853D02*
X31616Y-25810D01*
X31616Y-25810D02*
X31567Y-25755D01*
X31567Y-25755D02*
X31531Y-25692D01*
X31531Y-25692D02*
X31508Y-25622D01*
X31508Y-25622D02*
X31500Y-25550D01*
X31500Y-25550D02*
X31508Y-25478D01*
X31508Y-25478D02*
X31531Y-25408D01*
X31531Y-25408D02*
X31567Y-25345D01*
X31567Y-25345D02*
X31616Y-25290D01*
X31616Y-25290D02*
X31675Y-25247D01*
X31675Y-25247D02*
X31742Y-25218D01*
X31742Y-25218D02*
X31814Y-25202D01*
X31814Y-25202D02*
X31886Y-25202D01*
X31886Y-25202D02*
X31958Y-25218D01*
X31958Y-25218D02*
X32025Y-25247D01*
X32025Y-25247D02*
X32084Y-25290D01*
X32084Y-25290D02*
X32133Y-25345D01*
X32133Y-25345D02*
X32169Y-25408D01*
X32169Y-25408D02*
X32192Y-25478D01*
X32192Y-25478D02*
X32200Y-25550D01*
X24400Y-31800D02*
X24400Y-31100D01*
X24400Y-31100D02*
X25100Y-31100D01*
X25100Y-31100D02*
X25100Y-31800D01*
X25100Y-31800D02*
X24400Y-31800D01*
X26100Y-31450D02*
X26092Y-31522D01*
X26092Y-31522D02*
X26069Y-31592D01*
X26069Y-31592D02*
X26033Y-31655D01*
X26033Y-31655D02*
X25984Y-31710D01*
X25984Y-31710D02*
X25925Y-31753D01*
X25925Y-31753D02*
X25858Y-31782D01*
X25858Y-31782D02*
X25786Y-31798D01*
X25786Y-31798D02*
X25714Y-31798D01*
X25714Y-31798D02*
X25642Y-31782D01*
X25642Y-31782D02*
X25575Y-31753D01*
X25575Y-31753D02*
X25516Y-31710D01*
X25516Y-31710D02*
X25467Y-31655D01*
X25467Y-31655D02*
X25431Y-31592D01*
X25431Y-31592D02*
X25408Y-31522D01*
X25408Y-31522D02*
X25400Y-31450D01*
X25400Y-31450D02*
X25408Y-31378D01*
X25408Y-31378D02*
X25431Y-31308D01*
X25431Y-31308D02*
X25467Y-31245D01*
X25467Y-31245D02*
X25516Y-31190D01*
X25516Y-31190D02*
X25575Y-31147D01*
X25575Y-31147D02*
X25642Y-31118D01*
X25642Y-31118D02*
X25714Y-31102D01*
X25714Y-31102D02*
X25786Y-31102D01*
X25786Y-31102D02*
X25858Y-31118D01*
X25858Y-31118D02*
X25925Y-31147D01*
X25925Y-31147D02*
X25984Y-31190D01*
X25984Y-31190D02*
X26033Y-31245D01*
X26033Y-31245D02*
X26069Y-31308D01*
X26069Y-31308D02*
X26092Y-31378D01*
X26092Y-31378D02*
X26100Y-31450D01*
X27100Y-31450D02*
X27092Y-31522D01*
X27092Y-31522D02*
X27069Y-31592D01*
X27069Y-31592D02*
X27033Y-31655D01*
X27033Y-31655D02*
X26984Y-31710D01*
X26984Y-31710D02*
X26925Y-31753D01*
X26925Y-31753D02*
X26858Y-31782D01*
X26858Y-31782D02*
X26786Y-31798D01*
X26786Y-31798D02*
X26714Y-31798D01*
X26714Y-31798D02*
X26642Y-31782D01*
X26642Y-31782D02*
X26575Y-31753D01*
X26575Y-31753D02*
X26516Y-31710D01*
X26516Y-31710D02*
X26467Y-31655D01*
X26467Y-31655D02*
X26431Y-31592D01*
X26431Y-31592D02*
X26408Y-31522D01*
X26408Y-31522D02*
X26400Y-31450D01*
X26400Y-31450D02*
X26408Y-31378D01*
X26408Y-31378D02*
X26431Y-31308D01*
X26431Y-31308D02*
X26467Y-31245D01*
X26467Y-31245D02*
X26516Y-31190D01*
X26516Y-31190D02*
X26575Y-31147D01*
X26575Y-31147D02*
X26642Y-31118D01*
X26642Y-31118D02*
X26714Y-31102D01*
X26714Y-31102D02*
X26786Y-31102D01*
X26786Y-31102D02*
X26858Y-31118D01*
X26858Y-31118D02*
X26925Y-31147D01*
X26925Y-31147D02*
X26984Y-31190D01*
X26984Y-31190D02*
X27033Y-31245D01*
X27033Y-31245D02*
X27069Y-31308D01*
X27069Y-31308D02*
X27092Y-31378D01*
X27092Y-31378D02*
X27100Y-31450D01*
X28100Y-31450D02*
X28092Y-31522D01*
X28092Y-31522D02*
X28069Y-31592D01*
X28069Y-31592D02*
X28033Y-31655D01*
X28033Y-31655D02*
X27984Y-31710D01*
X27984Y-31710D02*
X27925Y-31753D01*
X27925Y-31753D02*
X27858Y-31782D01*
X27858Y-31782D02*
X27786Y-31798D01*
X27786Y-31798D02*
X27714Y-31798D01*
X27714Y-31798D02*
X27642Y-31782D01*
X27642Y-31782D02*
X27575Y-31753D01*
X27575Y-31753D02*
X27516Y-31710D01*
X27516Y-31710D02*
X27467Y-31655D01*
X27467Y-31655D02*
X27431Y-31592D01*
X27431Y-31592D02*
X27408Y-31522D01*
X27408Y-31522D02*
X27400Y-31450D01*
X27400Y-31450D02*
X27408Y-31378D01*
X27408Y-31378D02*
X27431Y-31308D01*
X27431Y-31308D02*
X27467Y-31245D01*
X27467Y-31245D02*
X27516Y-31190D01*
X27516Y-31190D02*
X27575Y-31147D01*
X27575Y-31147D02*
X27642Y-31118D01*
X27642Y-31118D02*
X27714Y-31102D01*
X27714Y-31102D02*
X27786Y-31102D01*
X27786Y-31102D02*
X27858Y-31118D01*
X27858Y-31118D02*
X27925Y-31147D01*
X27925Y-31147D02*
X27984Y-31190D01*
X27984Y-31190D02*
X28033Y-31245D01*
X28033Y-31245D02*
X28069Y-31308D01*
X28069Y-31308D02*
X28092Y-31378D01*
X28092Y-31378D02*
X28100Y-31450D01*
X29100Y-31450D02*
X29092Y-31522D01*
X29092Y-31522D02*
X29069Y-31592D01*
X29069Y-31592D02*
X29033Y-31655D01*
X29033Y-31655D02*
X28984Y-31710D01*
X28984Y-31710D02*
X28925Y-31753D01*
X28925Y-31753D02*
X28858Y-31782D01*
X28858Y-31782D02*
X28786Y-31798D01*
X28786Y-31798D02*
X28714Y-31798D01*
X28714Y-31798D02*
X28642Y-31782D01*
X28642Y-31782D02*
X28575Y-31753D01*
X28575Y-31753D02*
X28516Y-31710D01*
X28516Y-31710D02*
X28467Y-31655D01*
X28467Y-31655D02*
X28431Y-31592D01*
X28431Y-31592D02*
X28408Y-31522D01*
X28408Y-31522D02*
X28400Y-31450D01*
X28400Y-31450D02*
X28408Y-31378D01*
X28408Y-31378D02*
X28431Y-31308D01*
X28431Y-31308D02*
X28467Y-31245D01*
X28467Y-31245D02*
X28516Y-31190D01*
X28516Y-31190D02*
X28575Y-31147D01*
X28575Y-31147D02*
X28642Y-31118D01*
X28642Y-31118D02*
X28714Y-31102D01*
X28714Y-31102D02*
X28786Y-31102D01*
X28786Y-31102D02*
X28858Y-31118D01*
X28858Y-31118D02*
X28925Y-31147D01*
X28925Y-31147D02*
X28984Y-31190D01*
X28984Y-31190D02*
X29033Y-31245D01*
X29033Y-31245D02*
X29069Y-31308D01*
X29069Y-31308D02*
X29092Y-31378D01*
X29092Y-31378D02*
X29100Y-31450D01*
X24350Y-25500D02*
X24342Y-25572D01*
X24342Y-25572D02*
X24319Y-25642D01*
X24319Y-25642D02*
X24283Y-25705D01*
X24283Y-25705D02*
X24234Y-25760D01*
X24234Y-25760D02*
X24175Y-25803D01*
X24175Y-25803D02*
X24108Y-25832D01*
X24108Y-25832D02*
X24036Y-25848D01*
X24036Y-25848D02*
X23964Y-25848D01*
X23964Y-25848D02*
X23892Y-25832D01*
X23892Y-25832D02*
X23825Y-25803D01*
X23825Y-25803D02*
X23766Y-25760D01*
X23766Y-25760D02*
X23717Y-25705D01*
X23717Y-25705D02*
X23681Y-25642D01*
X23681Y-25642D02*
X23658Y-25572D01*
X23658Y-25572D02*
X23650Y-25500D01*
X23650Y-25500D02*
X23658Y-25428D01*
X23658Y-25428D02*
X23681Y-25358D01*
X23681Y-25358D02*
X23717Y-25295D01*
X23717Y-25295D02*
X23766Y-25240D01*
X23766Y-25240D02*
X23825Y-25197D01*
X23825Y-25197D02*
X23892Y-25168D01*
X23892Y-25168D02*
X23964Y-25152D01*
X23964Y-25152D02*
X24036Y-25152D01*
X24036Y-25152D02*
X24108Y-25168D01*
X24108Y-25168D02*
X24175Y-25197D01*
X24175Y-25197D02*
X24234Y-25240D01*
X24234Y-25240D02*
X24283Y-25295D01*
X24283Y-25295D02*
X24319Y-25358D01*
X24319Y-25358D02*
X24342Y-25428D01*
X24342Y-25428D02*
X24350Y-25500D01*
X26350Y-25500D02*
X26342Y-25572D01*
X26342Y-25572D02*
X26319Y-25642D01*
X26319Y-25642D02*
X26283Y-25705D01*
X26283Y-25705D02*
X26234Y-25760D01*
X26234Y-25760D02*
X26175Y-25803D01*
X26175Y-25803D02*
X26108Y-25832D01*
X26108Y-25832D02*
X26036Y-25848D01*
X26036Y-25848D02*
X25964Y-25848D01*
X25964Y-25848D02*
X25892Y-25832D01*
X25892Y-25832D02*
X25825Y-25803D01*
X25825Y-25803D02*
X25766Y-25760D01*
X25766Y-25760D02*
X25717Y-25705D01*
X25717Y-25705D02*
X25681Y-25642D01*
X25681Y-25642D02*
X25658Y-25572D01*
X25658Y-25572D02*
X25650Y-25500D01*
X25650Y-25500D02*
X25658Y-25428D01*
X25658Y-25428D02*
X25681Y-25358D01*
X25681Y-25358D02*
X25717Y-25295D01*
X25717Y-25295D02*
X25766Y-25240D01*
X25766Y-25240D02*
X25825Y-25197D01*
X25825Y-25197D02*
X25892Y-25168D01*
X25892Y-25168D02*
X25964Y-25152D01*
X25964Y-25152D02*
X26036Y-25152D01*
X26036Y-25152D02*
X26108Y-25168D01*
X26108Y-25168D02*
X26175Y-25197D01*
X26175Y-25197D02*
X26234Y-25240D01*
X26234Y-25240D02*
X26283Y-25295D01*
X26283Y-25295D02*
X26319Y-25358D01*
X26319Y-25358D02*
X26342Y-25428D01*
X26342Y-25428D02*
X26350Y-25500D01*
X18744Y-30114D02*
X18725Y-30289D01*
X18725Y-30289D02*
X18670Y-30458D01*
X18670Y-30458D02*
X18582Y-30611D01*
X18582Y-30611D02*
X18464Y-30742D01*
X18464Y-30742D02*
X18321Y-30846D01*
X18321Y-30846D02*
X18159Y-30918D01*
X18159Y-30918D02*
X17986Y-30955D01*
X17986Y-30955D02*
X17810Y-30955D01*
X17810Y-30955D02*
X17637Y-30918D01*
X17637Y-30918D02*
X17475Y-30846D01*
X17475Y-30846D02*
X17332Y-30742D01*
X17332Y-30742D02*
X17214Y-30611D01*
X17214Y-30611D02*
X17126Y-30458D01*
X17126Y-30458D02*
X17071Y-30289D01*
X17071Y-30289D02*
X17052Y-30114D01*
X17052Y-30114D02*
X17071Y-29939D01*
X17071Y-29939D02*
X17126Y-29770D01*
X17126Y-29770D02*
X17214Y-29617D01*
X17214Y-29617D02*
X17332Y-29486D01*
X17332Y-29486D02*
X17475Y-29382D01*
X17475Y-29382D02*
X17637Y-29310D01*
X17637Y-29310D02*
X17810Y-29273D01*
X17810Y-29273D02*
X17986Y-29273D01*
X17986Y-29273D02*
X18159Y-29310D01*
X18159Y-29310D02*
X18321Y-29382D01*
X18321Y-29382D02*
X18464Y-29486D01*
X18464Y-29486D02*
X18582Y-29617D01*
X18582Y-29617D02*
X18670Y-29770D01*
X18670Y-29770D02*
X18725Y-29939D01*
X18725Y-29939D02*
X18744Y-30114D01*
X18744Y-25382D02*
X18725Y-25557D01*
X18725Y-25557D02*
X18670Y-25726D01*
X18670Y-25726D02*
X18582Y-25879D01*
X18582Y-25879D02*
X18464Y-26010D01*
X18464Y-26010D02*
X18321Y-26114D01*
X18321Y-26114D02*
X18159Y-26186D01*
X18159Y-26186D02*
X17986Y-26223D01*
X17986Y-26223D02*
X17810Y-26223D01*
X17810Y-26223D02*
X17637Y-26186D01*
X17637Y-26186D02*
X17475Y-26114D01*
X17475Y-26114D02*
X17332Y-26010D01*
X17332Y-26010D02*
X17214Y-25879D01*
X17214Y-25879D02*
X17126Y-25726D01*
X17126Y-25726D02*
X17071Y-25557D01*
X17071Y-25557D02*
X17052Y-25382D01*
X17052Y-25382D02*
X17071Y-25207D01*
X17071Y-25207D02*
X17126Y-25038D01*
X17126Y-25038D02*
X17214Y-24885D01*
X17214Y-24885D02*
X17332Y-24754D01*
X17332Y-24754D02*
X17475Y-24650D01*
X17475Y-24650D02*
X17637Y-24578D01*
X17637Y-24578D02*
X17810Y-24541D01*
X17810Y-24541D02*
X17986Y-24541D01*
X17986Y-24541D02*
X18159Y-24578D01*
X18159Y-24578D02*
X18321Y-24650D01*
X18321Y-24650D02*
X18464Y-24754D01*
X18464Y-24754D02*
X18582Y-24885D01*
X18582Y-24885D02*
X18670Y-25038D01*
X18670Y-25038D02*
X18725Y-25207D01*
X18725Y-25207D02*
X18744Y-25382D01*
X20045Y-27258D02*
X20038Y-27319D01*
X20038Y-27319D02*
X20019Y-27377D01*
X20019Y-27377D02*
X19988Y-27431D01*
X19988Y-27431D02*
X19947Y-27477D01*
X19947Y-27477D02*
X19897Y-27513D01*
X19897Y-27513D02*
X19841Y-27538D01*
X19841Y-27538D02*
X19780Y-27551D01*
X19780Y-27551D02*
X19720Y-27551D01*
X19720Y-27551D02*
X19659Y-27538D01*
X19659Y-27538D02*
X19603Y-27513D01*
X19603Y-27513D02*
X19553Y-27477D01*
X19553Y-27477D02*
X19512Y-27431D01*
X19512Y-27431D02*
X19481Y-27377D01*
X19481Y-27377D02*
X19462Y-27319D01*
X19462Y-27319D02*
X19455Y-27258D01*
X19455Y-27258D02*
X19462Y-27197D01*
X19462Y-27197D02*
X19481Y-27139D01*
X19481Y-27139D02*
X19512Y-27085D01*
X19512Y-27085D02*
X19553Y-27039D01*
X19553Y-27039D02*
X19603Y-27003D01*
X19603Y-27003D02*
X19659Y-26978D01*
X19659Y-26978D02*
X19720Y-26965D01*
X19720Y-26965D02*
X19780Y-26965D01*
X19780Y-26965D02*
X19841Y-26978D01*
X19841Y-26978D02*
X19897Y-27003D01*
X19897Y-27003D02*
X19947Y-27039D01*
X19947Y-27039D02*
X19988Y-27085D01*
X19988Y-27085D02*
X20019Y-27139D01*
X20019Y-27139D02*
X20038Y-27197D01*
X20038Y-27197D02*
X20045Y-27258D01*
X19255Y-27258D02*
X19248Y-27319D01*
X19248Y-27319D02*
X19229Y-27377D01*
X19229Y-27377D02*
X19198Y-27431D01*
X19198Y-27431D02*
X19157Y-27477D01*
X19157Y-27477D02*
X19107Y-27513D01*
X19107Y-27513D02*
X19051Y-27538D01*
X19051Y-27538D02*
X18990Y-27551D01*
X18990Y-27551D02*
X18930Y-27551D01*
X18930Y-27551D02*
X18869Y-27538D01*
X18869Y-27538D02*
X18813Y-27513D01*
X18813Y-27513D02*
X18763Y-27477D01*
X18763Y-27477D02*
X18722Y-27431D01*
X18722Y-27431D02*
X18691Y-27377D01*
X18691Y-27377D02*
X18672Y-27319D01*
X18672Y-27319D02*
X18665Y-27258D01*
X18665Y-27258D02*
X18672Y-27197D01*
X18672Y-27197D02*
X18691Y-27139D01*
X18691Y-27139D02*
X18722Y-27085D01*
X18722Y-27085D02*
X18763Y-27039D01*
X18763Y-27039D02*
X18813Y-27003D01*
X18813Y-27003D02*
X18869Y-26978D01*
X18869Y-26978D02*
X18930Y-26965D01*
X18930Y-26965D02*
X18990Y-26965D01*
X18990Y-26965D02*
X19051Y-26978D01*
X19051Y-26978D02*
X19107Y-27003D01*
X19107Y-27003D02*
X19157Y-27039D01*
X19157Y-27039D02*
X19198Y-27085D01*
X19198Y-27085D02*
X19229Y-27139D01*
X19229Y-27139D02*
X19248Y-27197D01*
X19248Y-27197D02*
X19255Y-27258D01*
X19255Y-28242D02*
X19248Y-28303D01*
X19248Y-28303D02*
X19229Y-28361D01*
X19229Y-28361D02*
X19198Y-28415D01*
X19198Y-28415D02*
X19157Y-28461D01*
X19157Y-28461D02*
X19107Y-28497D01*
X19107Y-28497D02*
X19051Y-28522D01*
X19051Y-28522D02*
X18990Y-28535D01*
X18990Y-28535D02*
X18930Y-28535D01*
X18930Y-28535D02*
X18869Y-28522D01*
X18869Y-28522D02*
X18813Y-28497D01*
X18813Y-28497D02*
X18763Y-28461D01*
X18763Y-28461D02*
X18722Y-28415D01*
X18722Y-28415D02*
X18691Y-28361D01*
X18691Y-28361D02*
X18672Y-28303D01*
X18672Y-28303D02*
X18665Y-28242D01*
X18665Y-28242D02*
X18672Y-28181D01*
X18672Y-28181D02*
X18691Y-28123D01*
X18691Y-28123D02*
X18722Y-28069D01*
X18722Y-28069D02*
X18763Y-28023D01*
X18763Y-28023D02*
X18813Y-27987D01*
X18813Y-27987D02*
X18869Y-27962D01*
X18869Y-27962D02*
X18930Y-27949D01*
X18930Y-27949D02*
X18990Y-27949D01*
X18990Y-27949D02*
X19051Y-27962D01*
X19051Y-27962D02*
X19107Y-27987D01*
X19107Y-27987D02*
X19157Y-28023D01*
X19157Y-28023D02*
X19198Y-28069D01*
X19198Y-28069D02*
X19229Y-28123D01*
X19229Y-28123D02*
X19248Y-28181D01*
X19248Y-28181D02*
X19255Y-28242D01*
X20045Y-28242D02*
X20038Y-28303D01*
X20038Y-28303D02*
X20019Y-28361D01*
X20019Y-28361D02*
X19988Y-28415D01*
X19988Y-28415D02*
X19947Y-28461D01*
X19947Y-28461D02*
X19897Y-28497D01*
X19897Y-28497D02*
X19841Y-28522D01*
X19841Y-28522D02*
X19780Y-28535D01*
X19780Y-28535D02*
X19720Y-28535D01*
X19720Y-28535D02*
X19659Y-28522D01*
X19659Y-28522D02*
X19603Y-28497D01*
X19603Y-28497D02*
X19553Y-28461D01*
X19553Y-28461D02*
X19512Y-28415D01*
X19512Y-28415D02*
X19481Y-28361D01*
X19481Y-28361D02*
X19462Y-28303D01*
X19462Y-28303D02*
X19455Y-28242D01*
X19455Y-28242D02*
X19462Y-28181D01*
X19462Y-28181D02*
X19481Y-28123D01*
X19481Y-28123D02*
X19512Y-28069D01*
X19512Y-28069D02*
X19553Y-28023D01*
X19553Y-28023D02*
X19603Y-27987D01*
X19603Y-27987D02*
X19659Y-27962D01*
X19659Y-27962D02*
X19720Y-27949D01*
X19720Y-27949D02*
X19780Y-27949D01*
X19780Y-27949D02*
X19841Y-27962D01*
X19841Y-27962D02*
X19897Y-27987D01*
X19897Y-27987D02*
X19947Y-28023D01*
X19947Y-28023D02*
X19988Y-28069D01*
X19988Y-28069D02*
X20019Y-28123D01*
X20019Y-28123D02*
X20038Y-28181D01*
X20038Y-28181D02*
X20045Y-28242D01*
G54D30*
X31200Y-27234D02*
X30800Y-27234D01*
X30800Y-27234D02*
X30800Y-27534D01*
X30800Y-27534D02*
X30845Y-27584D01*
X30845Y-27584D02*
X30978Y-27584D01*
X30978Y-27584D02*
X31023Y-27534D01*
X31023Y-27534D02*
X31023Y-27234D01*
X31200Y-27858D02*
X31200Y-28058D01*
X31200Y-27958D02*
X30800Y-27958D01*
X30845Y-27958D02*
X30934Y-27858D01*
X25016Y-32500D02*
X25016Y-32100D01*
X25016Y-32100D02*
X24716Y-32100D01*
X24716Y-32100D02*
X24666Y-32145D01*
X24666Y-32145D02*
X24666Y-32278D01*
X24666Y-32278D02*
X24716Y-32323D01*
X24716Y-32323D02*
X25016Y-32323D01*
X24142Y-32500D02*
X24492Y-32500D01*
X24492Y-32500D02*
X24492Y-32367D01*
X24492Y-32367D02*
X24442Y-32323D01*
X24442Y-32323D02*
X24192Y-32323D01*
X24192Y-32323D02*
X24142Y-32278D01*
X24142Y-32278D02*
X24142Y-32145D01*
X24142Y-32145D02*
X24192Y-32100D01*
X24192Y-32100D02*
X24442Y-32100D01*
X24442Y-32100D02*
X24492Y-32145D01*
G54D19*
X26735Y-26975D02*
X26297Y-26525D01*
X26735Y-26525D02*
X26297Y-26975D01*
X25995Y-26975D02*
X25745Y-26975D01*
X25870Y-26975D02*
X25870Y-26525D01*
X25870Y-26575D02*
X25995Y-26675D01*
X24737Y-27025D02*
X24800Y-26975D01*
X24800Y-26975D02*
X24800Y-26825D01*
X24800Y-26825D02*
X24737Y-26775D01*
X24737Y-26775D02*
X24425Y-26775D01*
X24425Y-26775D02*
X24362Y-26725D01*
X24362Y-26725D02*
X24362Y-26625D01*
X24362Y-26625D02*
X24425Y-26575D01*
X24425Y-26575D02*
X24737Y-26575D01*
X24737Y-26575D02*
X24800Y-26625D01*
X24800Y-26625D02*
X24800Y-26725D01*
X24800Y-26725D02*
X24737Y-26775D01*
X24425Y-26775D02*
X24362Y-26825D01*
X24362Y-26825D02*
X24362Y-26975D01*
X24362Y-26975D02*
X24425Y-27025D01*
X24425Y-27025D02*
X24737Y-27025D01*
X24185Y-27025D02*
X24185Y-26575D01*
X24185Y-26575D02*
X23935Y-26775D01*
X23935Y-26775D02*
X23685Y-26575D01*
X23685Y-26575D02*
X23685Y-27025D01*
X23570Y-27025D02*
X23570Y-26575D01*
X23132Y-27025D02*
X23132Y-26575D01*
X23570Y-26825D02*
X23132Y-26825D01*
X22955Y-26725D02*
X22517Y-26725D01*
X22517Y-26725D02*
X22955Y-27025D01*
X22955Y-27025D02*
X22517Y-27025D01*
G54D10*
X20047Y-25160D02*
X19998Y-25247D01*
X19998Y-25247D02*
X19899Y-25247D01*
X19899Y-25247D02*
X19850Y-25204D01*
X19850Y-25204D02*
X19850Y-24853D01*
X19949Y-24853D02*
X19752Y-24853D01*
X19392Y-25247D02*
X19195Y-25247D01*
X19293Y-25247D02*
X19293Y-24853D01*
X19293Y-24897D02*
X19392Y-24985D01*
X20450Y-25018D02*
X20984Y-25018D01*
X20984Y-25018D02*
X21050Y-25093D01*
X21050Y-25093D02*
X21050Y-25468D01*
X21050Y-25468D02*
X20984Y-25543D01*
X20984Y-25543D02*
X20450Y-25543D01*
X20984Y-25804D02*
X21050Y-25879D01*
X21050Y-25879D02*
X21050Y-26254D01*
X21050Y-26254D02*
X20984Y-26329D01*
X20984Y-26329D02*
X20784Y-26329D01*
X20784Y-26329D02*
X20717Y-26254D01*
X20717Y-26254D02*
X20717Y-25879D01*
X20717Y-25879D02*
X20650Y-25804D01*
X20650Y-25804D02*
X20517Y-25804D01*
X20517Y-25804D02*
X20450Y-25879D01*
X20450Y-25879D02*
X20450Y-26254D01*
X20450Y-26254D02*
X20517Y-26329D01*
X21050Y-26590D02*
X20450Y-26590D01*
X20450Y-26590D02*
X20450Y-27040D01*
X20450Y-27040D02*
X20517Y-27115D01*
X20517Y-27115D02*
X20650Y-27115D01*
X20650Y-27115D02*
X20717Y-27040D01*
X20717Y-27040D02*
X20717Y-26590D01*
X20717Y-27040D02*
X20850Y-27115D01*
X20850Y-27115D02*
X20984Y-27115D01*
X20984Y-27115D02*
X21050Y-27040D01*
X21050Y-27040D02*
X21050Y-26590D01*
X21050Y-27376D02*
X21050Y-27901D01*
X20984Y-28687D02*
X21050Y-28612D01*
X21050Y-28612D02*
X21050Y-28237D01*
X21050Y-28237D02*
X20984Y-28162D01*
X20984Y-28162D02*
X20517Y-28162D01*
X20517Y-28162D02*
X20450Y-28237D01*
X20450Y-28237D02*
X20450Y-28612D01*
X20450Y-28612D02*
X20517Y-28687D01*
X21050Y-29023D02*
X20984Y-28948D01*
X20984Y-28948D02*
X20517Y-28948D01*
X20517Y-28948D02*
X20450Y-29023D01*
X20450Y-29023D02*
X20450Y-29398D01*
X20450Y-29398D02*
X20517Y-29473D01*
X20517Y-29473D02*
X20984Y-29473D01*
X20984Y-29473D02*
X21050Y-29398D01*
X21050Y-29398D02*
X21050Y-29023D01*
X21050Y-29734D02*
X20450Y-29734D01*
X20450Y-29734D02*
X21050Y-30259D01*
X21050Y-30259D02*
X20450Y-30259D01*
X21050Y-30520D02*
X20450Y-30520D01*
X20450Y-30520D02*
X21050Y-31045D01*
X21050Y-31045D02*
X20450Y-31045D01*
M02*
