G04 (Genere par PCBnew (20080912)) le 20/5/2009-12:15:52*
G01*
G70*
G90*
%MOIN*%
G04 Gerber Fmt 3.4, Leading zero omitted, Abs format*
%FSLAX34Y34*%
G04 APERTURE LIST*
%ADD10C,0.001000*%
%ADD11R,0.070000X0.070000*%
%ADD12C,0.070000*%
%ADD13C,0.169300*%
%ADD14C,0.059100*%
%ADD15C,0.045000*%
%ADD16C,0.030000*%
%ADD17C,0.012000*%
%ADD18C,0.005000*%
%ADD19C,0.006000*%
%ADD20R,0.025000X0.045000*%
%ADD21R,0.045000X0.025000*%
%ADD22R,0.100000X0.050000*%
%ADD23R,0.050000X0.100000*%
%ADD24R,0.020000X0.050000*%
%ADD25R,0.036000X0.036000*%
%ADD26R,0.080000X0.060000*%
%ADD27R,0.060000X0.080000*%
%ADD28C,0.017000*%
%ADD29C,0.001000*%
%ADD30C,0.010000*%
%ADD31C,0.008000*%
%ADD32C,0.015000*%
%ADD33R,0.090000X0.090000*%
%ADD34C,0.090000*%
%ADD35C,0.189300*%
%ADD36C,0.079100*%
%ADD37R,0.045000X0.065000*%
%ADD38R,0.065000X0.045000*%
%ADD39R,0.120000X0.070000*%
%ADD40R,0.070000X0.120000*%
%ADD41R,0.040000X0.070000*%
%ADD42R,0.056000X0.056000*%
%ADD43R,0.100000X0.080000*%
%ADD44R,0.080000X0.100000*%
G04 APERTURE END LIST*
G54D10*
X16650Y-21650D02*
X34600Y-21650D01*
X16650Y-32600D02*
X16650Y-21650D01*
X34600Y-32600D02*
X16650Y-32600D01*
X34600Y-21650D02*
X34600Y-32600D01*
G54D20*
X23400Y-31100D03*
X22800Y-31100D03*
X27900Y-30100D03*
X28500Y-30100D03*
X27900Y-30700D03*
X28500Y-30700D03*
X28500Y-28300D03*
X27900Y-28300D03*
X28500Y-28900D03*
X27900Y-28900D03*
G54D21*
X30000Y-24900D03*
X30000Y-24300D03*
G54D20*
X20550Y-23500D03*
X19950Y-23500D03*
X19300Y-23500D03*
X18700Y-23500D03*
X25550Y-23250D03*
X24950Y-23250D03*
X25450Y-24750D03*
X26050Y-24750D03*
X25100Y-24200D03*
X25700Y-24200D03*
X30900Y-30500D03*
X31500Y-30500D03*
G54D21*
X26250Y-23650D03*
X26250Y-24250D03*
X32750Y-26850D03*
X32750Y-26250D03*
G54D20*
X19600Y-26400D03*
X19000Y-26400D03*
G54D22*
X21500Y-23400D03*
X21500Y-24600D03*
X29000Y-24400D03*
X29000Y-25600D03*
X27750Y-24400D03*
X27750Y-25600D03*
G54D23*
X30750Y-24500D03*
X31950Y-24500D03*
G54D22*
X22750Y-23400D03*
X22750Y-24600D03*
X24000Y-23400D03*
X24000Y-24600D03*
G54D24*
X27250Y-26700D03*
X26750Y-26700D03*
X26250Y-26700D03*
X25750Y-26700D03*
X25250Y-26700D03*
X24750Y-26700D03*
X24250Y-26700D03*
X23750Y-26700D03*
X23250Y-26700D03*
X22750Y-26700D03*
X22250Y-26700D03*
X21750Y-26700D03*
X21250Y-26700D03*
X20750Y-26700D03*
X20750Y-30300D03*
X21250Y-30300D03*
X21750Y-30300D03*
X22250Y-30300D03*
X22750Y-30300D03*
X23250Y-30300D03*
X23750Y-30300D03*
X24250Y-30300D03*
X24750Y-30300D03*
X25250Y-30300D03*
X25750Y-30300D03*
X26250Y-30300D03*
X26750Y-30300D03*
X27250Y-30300D03*
G54D25*
X31250Y-32000D03*
X30550Y-32000D03*
X30900Y-31200D03*
X32850Y-32000D03*
X32150Y-32000D03*
X32500Y-31200D03*
G54D20*
X20200Y-26000D03*
X20800Y-26000D03*
G54D26*
X32850Y-29000D03*
X32850Y-27700D03*
G54D25*
X29500Y-30150D03*
X29500Y-29450D03*
X30300Y-29800D03*
G54D27*
X29250Y-23450D03*
X30550Y-23450D03*
X27250Y-23650D03*
X28550Y-23650D03*
X26500Y-22650D03*
X27800Y-22650D03*
G54D26*
X30800Y-26850D03*
X30800Y-25550D03*
X32850Y-24350D03*
X32850Y-25650D03*
G54D20*
X27900Y-27100D03*
X28500Y-27100D03*
X27900Y-29500D03*
X28500Y-29500D03*
X27900Y-27700D03*
X28500Y-27700D03*
X27900Y-26500D03*
X28500Y-26500D03*
G54D21*
X33700Y-26300D03*
X33700Y-25700D03*
X30600Y-28100D03*
X30600Y-27500D03*
G54D25*
X29200Y-26950D03*
X29200Y-26250D03*
X30000Y-26600D03*
X29200Y-28250D03*
X29200Y-27550D03*
X30000Y-27900D03*
M02*
