M48
;DRILL file {PCBnew (20080825c)} date 21/7/2009-11:16:10
;FORMAT={-.-/ absolute / inch / decimal}
R,T
VER,1
FMAT,2
INCH,TZ
TCST,OFF
ICI,OFF
ATC,ON
T1C0.030
T2C0.032
T3C0.035
T4C0.039
T5C0.091
%
M47
G05
M72
T1
X2.305Y3.305
X2.305Y3.460
X3.085Y2.165
X3.490Y3.295
X3.675Y3.245
X3.760Y2.110
X3.890Y3.490
X3.900Y2.910
X4.295Y3.195
X4.365Y2.800
T2
X1.925Y2.750
X1.925Y3.050
X2.025Y2.750
X2.025Y3.050
X2.125Y2.750
X2.125Y3.050
X2.225Y2.750
X2.225Y3.050
X2.325Y2.750
X2.325Y3.050
X2.350Y2.375
X2.425Y2.750
X2.425Y3.050
X2.450Y2.375
X2.450Y2.550
X2.525Y2.750
X2.525Y3.050
X2.550Y2.375
X2.625Y2.750
X2.625Y3.050
X2.650Y2.375
X2.650Y2.550
X2.725Y2.750
X2.725Y3.050
X2.825Y2.750
X2.825Y3.050
X2.925Y2.500
X2.925Y2.600
X2.925Y2.750
X2.925Y3.050
X3.025Y2.750
X3.025Y3.050
X3.070Y3.200
X3.125Y2.500
X3.125Y2.600
X3.125Y2.750
X3.125Y3.050
X3.170Y3.200
X3.225Y2.750
X3.225Y3.050
X3.270Y3.200
X3.370Y3.200
X3.470Y3.200
X3.665Y3.585
X3.680Y3.345
X3.740Y3.660
X3.755Y2.360
X3.755Y2.460
X3.755Y3.270
X3.755Y3.420
X3.815Y3.585
X4.175Y2.910
X4.250Y2.835
X4.250Y2.985
X4.310Y2.275
X4.310Y2.375
X4.310Y2.475
X4.310Y2.575
X4.310Y2.675
X4.430Y3.505
X4.505Y3.430
X4.505Y3.580
T3
X1.621Y2.876
X1.621Y2.974
X1.700Y2.876
X1.700Y2.974
T4
X1.375Y2.200
X1.375Y2.600
X1.527Y3.400
X1.550Y2.200
X1.626Y3.400
X1.675Y2.325
X1.675Y2.434
X1.702Y2.600
X1.823Y3.400
X1.853Y3.225
X1.875Y2.375
X1.899Y2.600
X1.950Y2.200
X1.952Y3.225
X1.984Y2.375
X1.998Y2.600
X2.148Y3.225
X2.175Y2.325
X2.175Y2.434
X2.350Y2.225
X2.465Y3.190
X2.465Y3.590
X2.585Y2.130
X2.585Y3.190
X2.585Y3.590
X2.705Y3.185
X2.705Y3.585
X2.750Y2.225
X2.825Y3.185
X2.825Y3.585
X2.885Y2.250
X2.950Y3.185
X2.950Y3.585
X2.985Y2.130
X3.127Y3.340
X3.226Y3.340
X3.267Y2.400
X3.285Y2.250
X3.400Y2.955
X3.400Y3.075
X3.405Y2.585
X3.405Y2.710
X3.405Y2.840
X3.423Y3.340
X3.430Y2.245
X3.464Y2.400
X3.563Y2.400
X3.800Y2.955
X3.800Y3.075
X3.805Y2.585
X3.805Y2.710
X3.805Y2.840
X3.830Y2.245
X3.940Y2.235
X3.940Y2.635
X3.975Y3.695
X3.982Y2.125
X4.010Y2.860
X4.010Y3.260
X4.081Y2.125
X4.090Y2.305
X4.090Y2.705
X4.110Y3.260
X4.195Y2.270
X4.195Y2.670
X4.278Y2.125
X4.375Y3.695
X4.415Y2.665
X4.415Y3.065
X4.510Y3.260
T5
X1.515Y2.689
X1.515Y3.162
T0
M30
