M48
;DRILL file {PCBnew (20080912)} date 10/2/2010-09:53:02
;FORMAT={-.-/ absolute / inch / decimal}
R,T
VER,1
FMAT,2
INCH,TZ
TCST,OFF
ICI,OFF
ATC,ON
T1C0.025
T2C0.032
T3C0.035
T4C0.091
%
M47
G05
M72
T1
X1.725Y-2.225
X1.725Y-2.425
X1.725Y-3.150
X1.825Y-2.225
X1.925Y-3.150
X1.965Y-2.465
X2.100Y-2.800
X2.100Y-2.900
X2.125Y-3.150
X2.150Y-2.950
X2.175Y-3.200
X2.250Y-2.800
X2.300Y-3.200
X2.350Y-2.850
X2.390Y-3.110
X2.675Y-2.475
X2.680Y-2.740
X2.980Y-3.025
X3.060Y-3.100
X3.070Y-2.830
X3.195Y-2.360
X3.200Y-3.050
X3.345Y-3.180
X3.400Y-2.225
X3.400Y-2.325
X3.400Y-2.475
T2
X2.400Y-2.550
X2.475Y-3.145
X2.575Y-3.145
X2.600Y-2.550
X2.675Y-3.145
X2.775Y-3.145
X2.875Y-3.145
X3.185Y-2.555
X3.185Y-2.655
X3.185Y-2.755
X3.185Y-2.855
X3.185Y-2.955
T3
X1.896Y-2.726
X1.896Y-2.824
X1.975Y-2.726
X1.975Y-2.824
T4
X1.790Y-2.538
X1.790Y-3.011
T0
M30
