M48
;DRILL file {PCBnew (20080912)} date 20/5/2009-12:15:56
;FORMAT={-.-/ absolute / inch / decimal}
R,T
VER,1
FMAT,2
INCH,TZ
TCST,OFF
ICI,OFF
ATC,ON
T1C0.025
T2C0.032
T3C0.035
T4C0.091
%
M47
G05
M72
T1
X1.700Y2.200
X1.700Y2.350
X1.700Y2.450
X1.700Y2.700
X1.700Y2.850
X1.700Y3.100
X1.965Y2.465
X2.100Y2.800
X2.100Y2.900
X2.150Y2.950
X2.200Y3.200
X2.250Y2.800
X2.300Y3.200
X2.350Y2.850
X2.390Y3.110
X2.675Y2.475
X2.680Y2.740
X2.950Y2.200
X2.980Y2.740
X2.980Y3.025
X3.060Y2.810
X3.060Y3.100
X3.100Y2.200
X3.195Y2.360
X3.200Y3.050
X3.250Y2.200
X3.345Y3.180
X3.400Y2.200
X3.400Y2.350
X3.400Y2.500
X3.400Y3.200
T2
X2.400Y2.550
X2.475Y3.145
X2.575Y3.145
X2.600Y2.550
X2.675Y3.145
X2.775Y3.145
X2.875Y3.145
X3.185Y2.555
X3.185Y2.655
X3.185Y2.755
X3.185Y2.855
X3.185Y2.955
T3
X1.896Y2.726
X1.896Y2.824
X1.975Y2.726
X1.975Y2.824
T4
X1.790Y2.538
X1.790Y3.011
T0
M30
