G04 (Genere par PCBnew (20080825c)) le 26/6/2009-19:51:13*
G01*
G70*
G90*
%MOIN*%
G04 Gerber Fmt 3.4, Leading zero omitted, Abs format*
%FSLAX34Y34*%
G04 APERTURE LIST*
%ADD10C,0.001000*%
%ADD11R,0.070000X0.070000*%
%ADD12C,0.070000*%
%ADD13C,0.169300*%
%ADD14C,0.059100*%
%ADD15C,0.045000*%
%ADD16C,0.030000*%
%ADD17C,0.012000*%
%ADD18C,0.005000*%
%ADD19C,0.006000*%
%ADD20R,0.025000X0.045000*%
%ADD21R,0.045000X0.025000*%
%ADD22R,0.100000X0.050000*%
%ADD23R,0.050000X0.100000*%
%ADD24R,0.020000X0.050000*%
%ADD25R,0.036000X0.036000*%
%ADD26R,0.080000X0.060000*%
%ADD27R,0.060000X0.080000*%
%ADD28C,0.017000*%
%ADD29C,0.001000*%
%ADD30C,0.010000*%
%ADD31C,0.008000*%
%ADD32C,0.015000*%
G04 APERTURE END LIST*
G54D10*
X16650Y-21650D02*
X34600Y-21650D01*
X16650Y-32600D02*
X16650Y-21650D01*
X34600Y-32600D02*
X16650Y-32600D01*
X34600Y-21650D02*
X34600Y-32600D01*
G54D19*
X16941Y-31900D02*
X16941Y-32256D01*
X16941Y-32256D02*
X16966Y-32300D01*
X16966Y-32300D02*
X17091Y-32300D01*
X17091Y-32300D02*
X17116Y-32256D01*
X17116Y-32256D02*
X17116Y-31900D01*
X17223Y-32256D02*
X17248Y-32300D01*
X17248Y-32300D02*
X17373Y-32300D01*
X17373Y-32300D02*
X17398Y-32256D01*
X17398Y-32256D02*
X17398Y-32212D01*
X17398Y-32212D02*
X17373Y-32167D01*
X17373Y-32167D02*
X17248Y-32167D01*
X17248Y-32167D02*
X17223Y-32123D01*
X17223Y-32123D02*
X17223Y-32078D01*
X17223Y-32078D02*
X17248Y-32034D01*
X17248Y-32034D02*
X17373Y-32034D01*
X17373Y-32034D02*
X17398Y-32078D01*
X17505Y-31900D02*
X17505Y-32300D01*
X17505Y-32300D02*
X17680Y-32300D01*
X17680Y-32300D02*
X17680Y-32123D01*
X17680Y-32123D02*
X17655Y-32078D01*
X17655Y-32078D02*
X17505Y-32078D01*
X17787Y-32433D02*
X17787Y-32034D01*
X17787Y-32078D02*
X17812Y-32034D01*
X17812Y-32034D02*
X17937Y-32034D01*
X17937Y-32034D02*
X17962Y-32078D01*
X17962Y-32078D02*
X17962Y-32256D01*
X17962Y-32256D02*
X17937Y-32300D01*
X17937Y-32300D02*
X17812Y-32300D01*
X17812Y-32300D02*
X17787Y-32256D01*
X18144Y-31900D02*
X18144Y-31945D01*
X18144Y-32078D02*
X18144Y-32256D01*
X18144Y-32256D02*
X18169Y-32300D01*
X18169Y-32300D02*
X18194Y-32300D01*
X18526Y-32256D02*
X18501Y-32300D01*
X18501Y-32300D02*
X18376Y-32300D01*
X18376Y-32300D02*
X18351Y-32256D01*
X18351Y-32256D02*
X18351Y-32078D01*
X18351Y-32078D02*
X18376Y-32034D01*
X18376Y-32034D02*
X18501Y-32034D01*
X18501Y-32034D02*
X18526Y-32078D01*
X18633Y-32433D02*
X18633Y-32034D01*
X18633Y-32078D02*
X18658Y-32034D01*
X18658Y-32034D02*
X18783Y-32034D01*
X18783Y-32034D02*
X18808Y-32078D01*
X18808Y-32078D02*
X18808Y-32256D01*
X18808Y-32256D02*
X18783Y-32300D01*
X18783Y-32300D02*
X18658Y-32300D01*
X18658Y-32300D02*
X18633Y-32256D01*
X18915Y-32300D02*
X18915Y-32034D01*
X18915Y-32123D02*
X18965Y-32034D01*
X18965Y-32034D02*
X19040Y-32034D01*
X19040Y-32034D02*
X19090Y-32123D01*
X19222Y-32300D02*
X19197Y-32256D01*
X19197Y-32256D02*
X19197Y-32078D01*
X19197Y-32078D02*
X19222Y-32034D01*
X19222Y-32034D02*
X19347Y-32034D01*
X19347Y-32034D02*
X19372Y-32078D01*
X19372Y-32078D02*
X19372Y-32256D01*
X19372Y-32256D02*
X19347Y-32300D01*
X19347Y-32300D02*
X19222Y-32300D01*
X19479Y-32388D02*
X19504Y-32433D01*
X19504Y-32433D02*
X19629Y-32433D01*
X19629Y-32433D02*
X19654Y-32388D01*
X19654Y-32388D02*
X19654Y-32078D01*
X19654Y-32078D02*
X19629Y-32034D01*
X19629Y-32034D02*
X19504Y-32034D01*
X19504Y-32034D02*
X19479Y-32078D01*
X19479Y-32078D02*
X19479Y-32256D01*
X19479Y-32256D02*
X19504Y-32300D01*
X19504Y-32300D02*
X19629Y-32300D01*
X19629Y-32300D02*
X19654Y-32256D01*
X20043Y-32034D02*
X20043Y-32167D01*
X20043Y-32167D02*
X20118Y-32300D01*
X20118Y-32300D02*
X20193Y-32167D01*
X20193Y-32167D02*
X20193Y-32034D01*
X20325Y-32300D02*
X20500Y-31900D01*
X20325Y-32256D02*
X20325Y-31945D01*
X20325Y-31945D02*
X20350Y-31900D01*
X20350Y-31900D02*
X20475Y-31900D01*
X20475Y-31900D02*
X20500Y-31945D01*
X20500Y-31945D02*
X20500Y-32256D01*
X20500Y-32256D02*
X20475Y-32300D01*
X20475Y-32300D02*
X20350Y-32300D01*
X20350Y-32300D02*
X20325Y-32256D01*
X20682Y-32300D02*
X20682Y-32256D01*
X20889Y-31900D02*
X21064Y-31900D01*
X21064Y-31900D02*
X21064Y-31945D01*
X21064Y-31945D02*
X20964Y-32078D01*
X20964Y-32078D02*
X21039Y-32078D01*
X21039Y-32078D02*
X21064Y-32123D01*
X21064Y-32123D02*
X21064Y-32256D01*
X21064Y-32256D02*
X21039Y-32300D01*
X21039Y-32300D02*
X20914Y-32300D01*
X20914Y-32300D02*
X20889Y-32256D01*
G54D32*
X29800Y-22450D02*
X29800Y-22500D01*
G54D18*
X23550Y-31350D02*
X22650Y-31350D01*
X22650Y-31350D02*
X22650Y-30850D01*
X22650Y-30850D02*
X23550Y-30850D01*
X23550Y-30850D02*
X23550Y-31350D01*
X27750Y-29850D02*
X28650Y-29850D01*
X28650Y-29850D02*
X28650Y-30350D01*
X28650Y-30350D02*
X27750Y-30350D01*
X27750Y-30350D02*
X27750Y-29850D01*
X27750Y-30450D02*
X28650Y-30450D01*
X28650Y-30450D02*
X28650Y-30950D01*
X28650Y-30950D02*
X27750Y-30950D01*
X27750Y-30950D02*
X27750Y-30450D01*
X28650Y-28550D02*
X27750Y-28550D01*
X27750Y-28550D02*
X27750Y-28050D01*
X27750Y-28050D02*
X28650Y-28050D01*
X28650Y-28050D02*
X28650Y-28550D01*
X28650Y-29150D02*
X27750Y-29150D01*
X27750Y-29150D02*
X27750Y-28650D01*
X27750Y-28650D02*
X28650Y-28650D01*
X28650Y-28650D02*
X28650Y-29150D01*
X29750Y-25050D02*
X29750Y-24150D01*
X29750Y-24150D02*
X30250Y-24150D01*
X30250Y-24150D02*
X30250Y-25050D01*
X30250Y-25050D02*
X29750Y-25050D01*
X20700Y-23750D02*
X19800Y-23750D01*
X19800Y-23750D02*
X19800Y-23250D01*
X19800Y-23250D02*
X20700Y-23250D01*
X20700Y-23250D02*
X20700Y-23750D01*
X19450Y-23750D02*
X18550Y-23750D01*
X18550Y-23750D02*
X18550Y-23250D01*
X18550Y-23250D02*
X19450Y-23250D01*
X19450Y-23250D02*
X19450Y-23750D01*
X25700Y-23500D02*
X24800Y-23500D01*
X24800Y-23500D02*
X24800Y-23000D01*
X24800Y-23000D02*
X25700Y-23000D01*
X25700Y-23000D02*
X25700Y-23500D01*
X25300Y-24500D02*
X26200Y-24500D01*
X26200Y-24500D02*
X26200Y-25000D01*
X26200Y-25000D02*
X25300Y-25000D01*
X25300Y-25000D02*
X25300Y-24500D01*
X24950Y-23950D02*
X25850Y-23950D01*
X25850Y-23950D02*
X25850Y-24450D01*
X25850Y-24450D02*
X24950Y-24450D01*
X24950Y-24450D02*
X24950Y-23950D01*
X30750Y-30250D02*
X31650Y-30250D01*
X31650Y-30250D02*
X31650Y-30750D01*
X31650Y-30750D02*
X30750Y-30750D01*
X30750Y-30750D02*
X30750Y-30250D01*
X26500Y-23500D02*
X26500Y-24400D01*
X26500Y-24400D02*
X26000Y-24400D01*
X26000Y-24400D02*
X26000Y-23500D01*
X26000Y-23500D02*
X26500Y-23500D01*
X32500Y-27000D02*
X32500Y-26100D01*
X32500Y-26100D02*
X33000Y-26100D01*
X33000Y-26100D02*
X33000Y-27000D01*
X33000Y-27000D02*
X32500Y-27000D01*
X19750Y-26650D02*
X18850Y-26650D01*
X18850Y-26650D02*
X18850Y-26150D01*
X18850Y-26150D02*
X19750Y-26150D01*
X19750Y-26150D02*
X19750Y-26650D01*
X20970Y-23050D02*
X20935Y-23110D01*
X20935Y-23110D02*
X20865Y-23110D01*
X20865Y-23110D02*
X20830Y-23050D01*
X20830Y-23050D02*
X20865Y-22990D01*
X20865Y-22990D02*
X20935Y-22990D01*
X20935Y-22990D02*
X20970Y-23050D01*
X22050Y-23700D02*
X22050Y-23100D01*
X22050Y-23100D02*
X20950Y-23100D01*
X20950Y-23100D02*
X20950Y-23700D01*
X20950Y-24300D02*
X20950Y-24900D01*
X20950Y-24900D02*
X22050Y-24900D01*
X22050Y-24900D02*
X22050Y-24300D01*
X28220Y-24050D02*
X28185Y-24110D01*
X28185Y-24110D02*
X28115Y-24110D01*
X28115Y-24110D02*
X28080Y-24050D01*
X28080Y-24050D02*
X28115Y-23990D01*
X28115Y-23990D02*
X28185Y-23990D01*
X28185Y-23990D02*
X28220Y-24050D01*
X29300Y-24700D02*
X29300Y-24100D01*
X29300Y-24100D02*
X28200Y-24100D01*
X28200Y-24100D02*
X28200Y-24700D01*
X28200Y-25300D02*
X28200Y-25900D01*
X28200Y-25900D02*
X29300Y-25900D01*
X29300Y-25900D02*
X29300Y-25300D01*
X27020Y-24050D02*
X26985Y-24110D01*
X26985Y-24110D02*
X26915Y-24110D01*
X26915Y-24110D02*
X26880Y-24050D01*
X26880Y-24050D02*
X26915Y-23990D01*
X26915Y-23990D02*
X26985Y-23990D01*
X26985Y-23990D02*
X27020Y-24050D01*
X28100Y-24700D02*
X28100Y-24100D01*
X28100Y-24100D02*
X27000Y-24100D01*
X27000Y-24100D02*
X27000Y-24700D01*
X27000Y-25300D02*
X27000Y-25900D01*
X27000Y-25900D02*
X28100Y-25900D01*
X28100Y-25900D02*
X28100Y-25300D01*
X30470Y-25100D02*
X30435Y-25160D01*
X30435Y-25160D02*
X30365Y-25160D01*
X30365Y-25160D02*
X30330Y-25100D01*
X30330Y-25100D02*
X30365Y-25040D01*
X30365Y-25040D02*
X30435Y-25040D01*
X30435Y-25040D02*
X30470Y-25100D01*
X31050Y-23950D02*
X30450Y-23950D01*
X30450Y-23950D02*
X30450Y-25050D01*
X30450Y-25050D02*
X31050Y-25050D01*
X31650Y-25050D02*
X32250Y-25050D01*
X32250Y-25050D02*
X32250Y-23950D01*
X32250Y-23950D02*
X31650Y-23950D01*
X22220Y-23050D02*
X22185Y-23110D01*
X22185Y-23110D02*
X22115Y-23110D01*
X22115Y-23110D02*
X22080Y-23050D01*
X22080Y-23050D02*
X22115Y-22990D01*
X22115Y-22990D02*
X22185Y-22990D01*
X22185Y-22990D02*
X22220Y-23050D01*
X23300Y-23700D02*
X23300Y-23100D01*
X23300Y-23100D02*
X22200Y-23100D01*
X22200Y-23100D02*
X22200Y-23700D01*
X22200Y-24300D02*
X22200Y-24900D01*
X22200Y-24900D02*
X23300Y-24900D01*
X23300Y-24900D02*
X23300Y-24300D01*
X23470Y-23050D02*
X23435Y-23110D01*
X23435Y-23110D02*
X23365Y-23110D01*
X23365Y-23110D02*
X23330Y-23050D01*
X23330Y-23050D02*
X23365Y-22990D01*
X23365Y-22990D02*
X23435Y-22990D01*
X23435Y-22990D02*
X23470Y-23050D01*
X24550Y-23700D02*
X24550Y-23100D01*
X24550Y-23100D02*
X23450Y-23100D01*
X23450Y-23100D02*
X23450Y-23700D01*
X23450Y-24300D02*
X23450Y-24900D01*
X23450Y-24900D02*
X24550Y-24900D01*
X24550Y-24900D02*
X24550Y-24300D01*
G54D17*
X20500Y-29500D02*
X20500Y-27000D01*
X20500Y-27000D02*
X27500Y-27000D01*
X27500Y-27000D02*
X27500Y-30000D01*
X27500Y-30000D02*
X20500Y-30000D01*
X20500Y-30000D02*
X20500Y-29500D01*
X27500Y-28750D02*
X27000Y-28750D01*
X27000Y-28750D02*
X27000Y-28250D01*
X27000Y-28250D02*
X27500Y-28250D01*
G54D18*
X31500Y-31750D02*
X30300Y-31750D01*
X30300Y-31750D02*
X30300Y-31450D01*
X30300Y-31450D02*
X31500Y-31450D01*
X31500Y-31450D02*
X31500Y-31750D01*
X33100Y-31750D02*
X31900Y-31750D01*
X31900Y-31750D02*
X31900Y-31450D01*
X31900Y-31450D02*
X33100Y-31450D01*
X33100Y-31450D02*
X33100Y-31750D01*
X20050Y-25750D02*
X20950Y-25750D01*
X20950Y-25750D02*
X20950Y-26250D01*
X20950Y-26250D02*
X20050Y-26250D01*
X20050Y-26250D02*
X20050Y-25750D01*
X32400Y-29350D02*
X33300Y-29350D01*
X33300Y-29350D02*
X33300Y-28700D01*
X32400Y-28000D02*
X32400Y-27350D01*
X32400Y-27350D02*
X33300Y-27350D01*
X33300Y-27350D02*
X33300Y-28000D01*
X32400Y-28700D02*
X32400Y-29350D01*
X29750Y-30450D02*
X29750Y-29250D01*
X29750Y-29250D02*
X30050Y-29250D01*
X30050Y-29250D02*
X30050Y-30450D01*
X30050Y-30450D02*
X29750Y-30450D01*
X28900Y-23000D02*
X28900Y-23900D01*
X28900Y-23900D02*
X29550Y-23900D01*
X30250Y-23000D02*
X30900Y-23000D01*
X30900Y-23000D02*
X30900Y-23900D01*
X30900Y-23900D02*
X30250Y-23900D01*
X29550Y-23000D02*
X28900Y-23000D01*
X26900Y-23200D02*
X26900Y-24100D01*
X26900Y-24100D02*
X27550Y-24100D01*
X28250Y-23200D02*
X28900Y-23200D01*
X28900Y-23200D02*
X28900Y-24100D01*
X28900Y-24100D02*
X28250Y-24100D01*
X27550Y-23200D02*
X26900Y-23200D01*
X26150Y-22200D02*
X26150Y-23100D01*
X26150Y-23100D02*
X26800Y-23100D01*
X27500Y-22200D02*
X28150Y-22200D01*
X28150Y-22200D02*
X28150Y-23100D01*
X28150Y-23100D02*
X27500Y-23100D01*
X26800Y-22200D02*
X26150Y-22200D01*
X30450Y-28000D02*
X31350Y-28000D01*
X31350Y-28000D02*
X31350Y-27350D01*
X30450Y-26650D02*
X30450Y-26000D01*
X30450Y-26000D02*
X31350Y-26000D01*
X31350Y-26000D02*
X31350Y-26650D01*
X30450Y-27350D02*
X30450Y-28000D01*
X33300Y-24000D02*
X32400Y-24000D01*
X32400Y-24000D02*
X32400Y-24650D01*
X33300Y-25350D02*
X33300Y-26000D01*
X33300Y-26000D02*
X32400Y-26000D01*
X32400Y-26000D02*
X32400Y-25350D01*
X33300Y-24650D02*
X33300Y-24000D01*
X27750Y-26850D02*
X28650Y-26850D01*
X28650Y-26850D02*
X28650Y-27350D01*
X28650Y-27350D02*
X27750Y-27350D01*
X27750Y-27350D02*
X27750Y-26850D01*
X27750Y-29250D02*
X28650Y-29250D01*
X28650Y-29250D02*
X28650Y-29750D01*
X28650Y-29750D02*
X27750Y-29750D01*
X27750Y-29750D02*
X27750Y-29250D01*
X27750Y-27450D02*
X28650Y-27450D01*
X28650Y-27450D02*
X28650Y-27950D01*
X28650Y-27950D02*
X27750Y-27950D01*
X27750Y-27950D02*
X27750Y-27450D01*
X27750Y-26250D02*
X28650Y-26250D01*
X28650Y-26250D02*
X28650Y-26750D01*
X28650Y-26750D02*
X27750Y-26750D01*
X27750Y-26750D02*
X27750Y-26250D01*
X33450Y-26450D02*
X33450Y-25550D01*
X33450Y-25550D02*
X33950Y-25550D01*
X33950Y-25550D02*
X33950Y-26450D01*
X33950Y-26450D02*
X33450Y-26450D01*
X28950Y-27250D02*
X29850Y-27250D01*
X29850Y-27250D02*
X29850Y-27750D01*
X29850Y-27750D02*
X28950Y-27750D01*
X28950Y-27750D02*
X28950Y-27250D01*
X30500Y-28350D02*
X29300Y-28350D01*
X29300Y-28350D02*
X29300Y-28050D01*
X29300Y-28050D02*
X30500Y-28050D01*
X30500Y-28050D02*
X30500Y-28350D01*
X33450Y-23600D02*
X32550Y-23600D01*
X32550Y-23600D02*
X32550Y-23100D01*
X32550Y-23100D02*
X33450Y-23100D01*
X33450Y-23100D02*
X33450Y-23600D01*
X32550Y-22350D02*
X33450Y-22350D01*
X33450Y-22350D02*
X33450Y-22850D01*
X33450Y-22850D02*
X32550Y-22850D01*
X32550Y-22850D02*
X32550Y-22350D01*
X29400Y-25150D02*
X29400Y-26050D01*
X29400Y-26050D02*
X30050Y-26050D01*
X30750Y-25150D02*
X31400Y-25150D01*
X31400Y-25150D02*
X31400Y-26050D01*
X31400Y-26050D02*
X30750Y-26050D01*
X30050Y-25150D02*
X29400Y-25150D01*
X22807Y-31709D02*
X22784Y-31740D01*
X22784Y-31740D02*
X22672Y-31740D01*
X22672Y-31740D02*
X22649Y-31709D01*
X22649Y-31709D02*
X22649Y-31492D01*
X22649Y-31492D02*
X22672Y-31460D01*
X22672Y-31460D02*
X22784Y-31460D01*
X22784Y-31460D02*
X22807Y-31492D01*
X23012Y-31740D02*
X23012Y-31460D01*
X23012Y-31460D02*
X22899Y-31678D01*
X22899Y-31678D02*
X23057Y-31678D01*
X28699Y-30090D02*
X28699Y-29810D01*
X28699Y-29810D02*
X28834Y-29810D01*
X28834Y-29810D02*
X28857Y-29842D01*
X28857Y-29842D02*
X28857Y-29935D01*
X28857Y-29935D02*
X28834Y-29966D01*
X28834Y-29966D02*
X28699Y-29966D01*
X28767Y-29966D02*
X28857Y-30090D01*
X29107Y-30090D02*
X28949Y-30090D01*
X28949Y-30090D02*
X28949Y-29997D01*
X28949Y-29997D02*
X28972Y-29966D01*
X28972Y-29966D02*
X29084Y-29966D01*
X29084Y-29966D02*
X29107Y-29935D01*
X29107Y-29935D02*
X29107Y-29842D01*
X29107Y-29842D02*
X29084Y-29810D01*
X29084Y-29810D02*
X28972Y-29810D01*
X28972Y-29810D02*
X28949Y-29842D01*
X28699Y-30740D02*
X28699Y-30460D01*
X28699Y-30460D02*
X28834Y-30460D01*
X28834Y-30460D02*
X28857Y-30492D01*
X28857Y-30492D02*
X28857Y-30585D01*
X28857Y-30585D02*
X28834Y-30616D01*
X28834Y-30616D02*
X28699Y-30616D01*
X28767Y-30616D02*
X28857Y-30740D01*
X28949Y-30460D02*
X29107Y-30460D01*
X29107Y-30460D02*
X29107Y-30492D01*
X29107Y-30492D02*
X29017Y-30585D01*
X29017Y-30585D02*
X29084Y-30585D01*
X29084Y-30585D02*
X29107Y-30616D01*
X29107Y-30616D02*
X29107Y-30709D01*
X29107Y-30709D02*
X29084Y-30740D01*
X29084Y-30740D02*
X28972Y-30740D01*
X28972Y-30740D02*
X28949Y-30709D01*
X28649Y-28340D02*
X28649Y-28060D01*
X28649Y-28060D02*
X28784Y-28060D01*
X28784Y-28060D02*
X28807Y-28092D01*
X28807Y-28092D02*
X28807Y-28185D01*
X28807Y-28185D02*
X28784Y-28216D01*
X28784Y-28216D02*
X28649Y-28216D01*
X28717Y-28216D02*
X28807Y-28340D01*
X29012Y-28340D02*
X29012Y-28060D01*
X29012Y-28060D02*
X28899Y-28278D01*
X28899Y-28278D02*
X29057Y-28278D01*
X28699Y-28890D02*
X28699Y-28610D01*
X28699Y-28610D02*
X28834Y-28610D01*
X28834Y-28610D02*
X28857Y-28642D01*
X28857Y-28642D02*
X28857Y-28735D01*
X28857Y-28735D02*
X28834Y-28766D01*
X28834Y-28766D02*
X28699Y-28766D01*
X28767Y-28766D02*
X28857Y-28890D01*
X28949Y-28828D02*
X28949Y-28859D01*
X28949Y-28859D02*
X28972Y-28890D01*
X28972Y-28890D02*
X29084Y-28890D01*
X29084Y-28890D02*
X29107Y-28859D01*
X29107Y-28859D02*
X29107Y-28766D01*
X29107Y-28766D02*
X29062Y-28704D01*
X29062Y-28704D02*
X28949Y-28704D01*
X28949Y-28704D02*
X28949Y-28610D01*
X28949Y-28610D02*
X29107Y-28610D01*
X29699Y-25340D02*
X29699Y-25060D01*
X29699Y-25060D02*
X29834Y-25060D01*
X29834Y-25060D02*
X29857Y-25092D01*
X29857Y-25092D02*
X29857Y-25185D01*
X29857Y-25185D02*
X29834Y-25216D01*
X29834Y-25216D02*
X29699Y-25216D01*
X29767Y-25216D02*
X29857Y-25340D01*
X29994Y-25340D02*
X30084Y-25340D01*
X30039Y-25340D02*
X30039Y-25060D01*
X30039Y-25092D02*
X29994Y-25154D01*
X19749Y-24090D02*
X19749Y-23810D01*
X19749Y-23810D02*
X19884Y-23810D01*
X19884Y-23810D02*
X19907Y-23842D01*
X19907Y-23842D02*
X19907Y-23935D01*
X19907Y-23935D02*
X19884Y-23966D01*
X19884Y-23966D02*
X19749Y-23966D01*
X19817Y-23966D02*
X19907Y-24090D01*
X20022Y-24090D02*
X19999Y-24059D01*
X19999Y-24059D02*
X19999Y-23966D01*
X19999Y-23966D02*
X20022Y-23935D01*
X20022Y-23935D02*
X20134Y-23935D01*
X20134Y-23935D02*
X20157Y-23904D01*
X20157Y-23904D02*
X20157Y-23842D01*
X20157Y-23842D02*
X20134Y-23810D01*
X20134Y-23810D02*
X20022Y-23810D01*
X20022Y-23810D02*
X19999Y-23842D01*
X19999Y-23842D02*
X19999Y-23904D01*
X19999Y-23904D02*
X20022Y-23935D01*
X20134Y-23935D02*
X20157Y-23966D01*
X20157Y-23966D02*
X20157Y-24059D01*
X20157Y-24059D02*
X20134Y-24090D01*
X20134Y-24090D02*
X20022Y-24090D01*
X18549Y-24090D02*
X18549Y-23810D01*
X18549Y-23810D02*
X18684Y-23810D01*
X18684Y-23810D02*
X18707Y-23842D01*
X18707Y-23842D02*
X18707Y-23935D01*
X18707Y-23935D02*
X18684Y-23966D01*
X18684Y-23966D02*
X18549Y-23966D01*
X18617Y-23966D02*
X18707Y-24090D01*
X18799Y-23810D02*
X18957Y-23810D01*
X18957Y-23810D02*
X18799Y-24090D01*
X24749Y-22640D02*
X24749Y-22360D01*
X24749Y-22360D02*
X24884Y-22360D01*
X24884Y-22360D02*
X24907Y-22392D01*
X24907Y-22392D02*
X24907Y-22485D01*
X24907Y-22485D02*
X24884Y-22516D01*
X24884Y-22516D02*
X24749Y-22516D01*
X24817Y-22516D02*
X24907Y-22640D01*
X25157Y-22392D02*
X25134Y-22360D01*
X25134Y-22360D02*
X25022Y-22360D01*
X25022Y-22360D02*
X24999Y-22392D01*
X24999Y-22392D02*
X24999Y-22609D01*
X24999Y-22609D02*
X25022Y-22640D01*
X25022Y-22640D02*
X25134Y-22640D01*
X25134Y-22640D02*
X25157Y-22609D01*
X25157Y-22609D02*
X25157Y-22516D01*
X25157Y-22516D02*
X25134Y-22485D01*
X25134Y-22485D02*
X25022Y-22485D01*
X25022Y-22485D02*
X24999Y-22516D01*
X26407Y-24709D02*
X26384Y-24740D01*
X26384Y-24740D02*
X26272Y-24740D01*
X26272Y-24740D02*
X26249Y-24709D01*
X26249Y-24709D02*
X26249Y-24492D01*
X26249Y-24492D02*
X26272Y-24460D01*
X26272Y-24460D02*
X26384Y-24460D01*
X26384Y-24460D02*
X26407Y-24492D01*
X26499Y-24460D02*
X26657Y-24460D01*
X26657Y-24460D02*
X26657Y-24492D01*
X26657Y-24492D02*
X26567Y-24585D01*
X26567Y-24585D02*
X26634Y-24585D01*
X26634Y-24585D02*
X26657Y-24616D01*
X26657Y-24616D02*
X26657Y-24709D01*
X26657Y-24709D02*
X26634Y-24740D01*
X26634Y-24740D02*
X26522Y-24740D01*
X26522Y-24740D02*
X26499Y-24709D01*
X24957Y-24809D02*
X24934Y-24840D01*
X24934Y-24840D02*
X24822Y-24840D01*
X24822Y-24840D02*
X24799Y-24809D01*
X24799Y-24809D02*
X24799Y-24592D01*
X24799Y-24592D02*
X24822Y-24560D01*
X24822Y-24560D02*
X24934Y-24560D01*
X24934Y-24560D02*
X24957Y-24592D01*
X25207Y-24840D02*
X25049Y-24840D01*
X25049Y-24840D02*
X25049Y-24747D01*
X25049Y-24747D02*
X25072Y-24716D01*
X25072Y-24716D02*
X25184Y-24716D01*
X25184Y-24716D02*
X25207Y-24685D01*
X25207Y-24685D02*
X25207Y-24592D01*
X25207Y-24592D02*
X25184Y-24560D01*
X25184Y-24560D02*
X25072Y-24560D01*
X25072Y-24560D02*
X25049Y-24592D01*
X31157Y-30609D02*
X31134Y-30640D01*
X31134Y-30640D02*
X31022Y-30640D01*
X31022Y-30640D02*
X30999Y-30609D01*
X30999Y-30609D02*
X30999Y-30392D01*
X30999Y-30392D02*
X31022Y-30360D01*
X31022Y-30360D02*
X31134Y-30360D01*
X31134Y-30360D02*
X31157Y-30392D01*
X31407Y-30392D02*
X31384Y-30360D01*
X31384Y-30360D02*
X31272Y-30360D01*
X31272Y-30360D02*
X31249Y-30392D01*
X31249Y-30392D02*
X31249Y-30609D01*
X31249Y-30609D02*
X31272Y-30640D01*
X31272Y-30640D02*
X31384Y-30640D01*
X31384Y-30640D02*
X31407Y-30609D01*
X31407Y-30609D02*
X31407Y-30516D01*
X31407Y-30516D02*
X31384Y-30485D01*
X31384Y-30485D02*
X31272Y-30485D01*
X31272Y-30485D02*
X31249Y-30516D01*
X26809Y-24243D02*
X26840Y-24266D01*
X26840Y-24266D02*
X26840Y-24378D01*
X26840Y-24378D02*
X26809Y-24401D01*
X26809Y-24401D02*
X26592Y-24401D01*
X26592Y-24401D02*
X26560Y-24378D01*
X26560Y-24378D02*
X26560Y-24266D01*
X26560Y-24266D02*
X26592Y-24243D01*
X26778Y-24151D02*
X26809Y-24151D01*
X26809Y-24151D02*
X26840Y-24128D01*
X26840Y-24128D02*
X26840Y-24016D01*
X26840Y-24016D02*
X26809Y-23993D01*
X26809Y-23993D02*
X26716Y-23993D01*
X26716Y-23993D02*
X26654Y-24038D01*
X26654Y-24038D02*
X26654Y-24151D01*
X26654Y-24151D02*
X26560Y-24151D01*
X26560Y-24151D02*
X26560Y-23993D01*
X33309Y-26893D02*
X33340Y-26916D01*
X33340Y-26916D02*
X33340Y-27028D01*
X33340Y-27028D02*
X33309Y-27051D01*
X33309Y-27051D02*
X33092Y-27051D01*
X33092Y-27051D02*
X33060Y-27028D01*
X33060Y-27028D02*
X33060Y-26916D01*
X33060Y-26916D02*
X33092Y-26893D01*
X33060Y-26801D02*
X33060Y-26643D01*
X33060Y-26643D02*
X33340Y-26801D01*
X19057Y-25659D02*
X19034Y-25690D01*
X19034Y-25690D02*
X18922Y-25690D01*
X18922Y-25690D02*
X18899Y-25659D01*
X18899Y-25659D02*
X18899Y-25442D01*
X18899Y-25442D02*
X18922Y-25410D01*
X18922Y-25410D02*
X19034Y-25410D01*
X19034Y-25410D02*
X19057Y-25442D01*
X19194Y-25690D02*
X19284Y-25690D01*
X19239Y-25690D02*
X19239Y-25410D01*
X19239Y-25442D02*
X19194Y-25504D01*
X21300Y-23016D02*
X21000Y-23016D01*
X21000Y-23054D02*
X21000Y-22829D01*
X21000Y-22829D02*
X21034Y-22791D01*
X21034Y-22791D02*
X21267Y-22791D01*
X21267Y-22791D02*
X21300Y-22829D01*
X21300Y-22829D02*
X21300Y-23054D01*
X21000Y-22671D02*
X21000Y-22408D01*
X21000Y-22408D02*
X21300Y-22671D01*
X21750Y-23016D02*
X21717Y-23054D01*
X21717Y-23054D02*
X21484Y-23054D01*
X21484Y-23054D02*
X21450Y-23016D01*
X21450Y-23016D02*
X21450Y-22829D01*
X21450Y-22829D02*
X21484Y-22791D01*
X21484Y-22791D02*
X21717Y-22791D01*
X21717Y-22791D02*
X21750Y-22829D01*
X21750Y-22829D02*
X21750Y-23016D01*
X21750Y-22671D02*
X21450Y-22671D01*
X21450Y-22671D02*
X21750Y-22408D01*
X21750Y-22408D02*
X21450Y-22408D01*
X28659Y-25117D02*
X28621Y-25150D01*
X28621Y-25150D02*
X28434Y-25150D01*
X28434Y-25150D02*
X28396Y-25117D01*
X28396Y-25117D02*
X28396Y-24884D01*
X28396Y-24884D02*
X28434Y-24850D01*
X28434Y-24850D02*
X28621Y-24850D01*
X28621Y-24850D02*
X28659Y-24884D01*
X28817Y-25150D02*
X29004Y-25150D01*
X29004Y-25150D02*
X29042Y-25117D01*
X29042Y-25117D02*
X29042Y-24884D01*
X29042Y-24884D02*
X29004Y-24850D01*
X29004Y-24850D02*
X28817Y-24850D01*
X28817Y-24850D02*
X28779Y-24884D01*
X28779Y-24884D02*
X28779Y-24984D01*
X28779Y-24984D02*
X28817Y-25017D01*
X28817Y-25017D02*
X29004Y-25017D01*
X29004Y-25017D02*
X29042Y-24984D01*
X29321Y-25750D02*
X29471Y-25750D01*
X29396Y-25750D02*
X29396Y-25450D01*
X29396Y-25484D02*
X29321Y-25550D01*
X29629Y-25550D02*
X29629Y-25684D01*
X29629Y-25684D02*
X29704Y-25750D01*
X29704Y-25750D02*
X29817Y-25750D01*
X29817Y-25750D02*
X29892Y-25684D01*
X29892Y-25684D02*
X29892Y-25550D01*
X27509Y-25117D02*
X27471Y-25150D01*
X27471Y-25150D02*
X27284Y-25150D01*
X27284Y-25150D02*
X27246Y-25117D01*
X27246Y-25117D02*
X27246Y-24884D01*
X27246Y-24884D02*
X27284Y-24850D01*
X27284Y-24850D02*
X27471Y-24850D01*
X27471Y-24850D02*
X27509Y-24884D01*
X27667Y-25150D02*
X27629Y-25117D01*
X27629Y-25117D02*
X27629Y-25017D01*
X27629Y-25017D02*
X27667Y-24984D01*
X27667Y-24984D02*
X27854Y-24984D01*
X27854Y-24984D02*
X27892Y-24950D01*
X27892Y-24950D02*
X27892Y-24884D01*
X27892Y-24884D02*
X27854Y-24850D01*
X27854Y-24850D02*
X27667Y-24850D01*
X27667Y-24850D02*
X27629Y-24884D01*
X27629Y-24884D02*
X27629Y-24950D01*
X27629Y-24950D02*
X27667Y-24984D01*
X27854Y-24984D02*
X27892Y-25017D01*
X27892Y-25017D02*
X27892Y-25117D01*
X27892Y-25117D02*
X27854Y-25150D01*
X27854Y-25150D02*
X27667Y-25150D01*
X26421Y-26100D02*
X26571Y-26100D01*
X26496Y-26100D02*
X26496Y-25800D01*
X26496Y-25834D02*
X26421Y-25900D01*
X26729Y-25900D02*
X26729Y-26034D01*
X26729Y-26034D02*
X26804Y-26100D01*
X26804Y-26100D02*
X26917Y-26100D01*
X26917Y-26100D02*
X26992Y-26034D01*
X26992Y-26034D02*
X26992Y-25900D01*
X31318Y-23767D02*
X31280Y-23800D01*
X31280Y-23800D02*
X31093Y-23800D01*
X31093Y-23800D02*
X31055Y-23767D01*
X31055Y-23767D02*
X31055Y-23534D01*
X31055Y-23534D02*
X31093Y-23500D01*
X31093Y-23500D02*
X31280Y-23500D01*
X31280Y-23500D02*
X31318Y-23534D01*
X31513Y-23800D02*
X31663Y-23800D01*
X31588Y-23800D02*
X31588Y-23500D01*
X31588Y-23534D02*
X31513Y-23600D01*
X31821Y-23800D02*
X32084Y-23500D01*
X31821Y-23767D02*
X31821Y-23534D01*
X31821Y-23534D02*
X31859Y-23500D01*
X31859Y-23500D02*
X32046Y-23500D01*
X32046Y-23500D02*
X32084Y-23534D01*
X32084Y-23534D02*
X32084Y-23767D01*
X32084Y-23767D02*
X32046Y-23800D01*
X32046Y-23800D02*
X31859Y-23800D01*
X31859Y-23800D02*
X31821Y-23767D01*
X31030Y-23250D02*
X31180Y-23250D01*
X31105Y-23250D02*
X31105Y-22950D01*
X31105Y-22984D02*
X31030Y-23050D01*
X31338Y-23250D02*
X31601Y-22950D01*
X31338Y-23217D02*
X31338Y-22984D01*
X31338Y-22984D02*
X31376Y-22950D01*
X31376Y-22950D02*
X31563Y-22950D01*
X31563Y-22950D02*
X31601Y-22984D01*
X31601Y-22984D02*
X31601Y-23217D01*
X31601Y-23217D02*
X31563Y-23250D01*
X31563Y-23250D02*
X31376Y-23250D01*
X31376Y-23250D02*
X31338Y-23217D01*
X31721Y-23050D02*
X31721Y-23184D01*
X31721Y-23184D02*
X31796Y-23250D01*
X31796Y-23250D02*
X31909Y-23250D01*
X31909Y-23250D02*
X31984Y-23184D01*
X31984Y-23184D02*
X31984Y-23050D01*
X22550Y-23016D02*
X22250Y-23016D01*
X22250Y-23054D02*
X22250Y-22829D01*
X22250Y-22829D02*
X22284Y-22791D01*
X22284Y-22791D02*
X22517Y-22791D01*
X22517Y-22791D02*
X22550Y-22829D01*
X22550Y-22829D02*
X22550Y-23054D01*
X22284Y-22408D02*
X22250Y-22446D01*
X22250Y-22446D02*
X22250Y-22633D01*
X22250Y-22633D02*
X22284Y-22671D01*
X22284Y-22671D02*
X22517Y-22671D01*
X22517Y-22671D02*
X22550Y-22633D01*
X22550Y-22633D02*
X22550Y-22446D01*
X22550Y-22446D02*
X22517Y-22408D01*
X22517Y-22408D02*
X22417Y-22408D01*
X22417Y-22408D02*
X22384Y-22446D01*
X22384Y-22446D02*
X22384Y-22633D01*
X22384Y-22633D02*
X22417Y-22671D01*
X23100Y-23054D02*
X22800Y-23054D01*
X22800Y-23054D02*
X22800Y-22829D01*
X22800Y-22829D02*
X22834Y-22791D01*
X22834Y-22791D02*
X22934Y-22791D01*
X22934Y-22791D02*
X22967Y-22829D01*
X22967Y-22829D02*
X22967Y-23054D01*
X22967Y-22941D02*
X23100Y-22791D01*
X23100Y-22633D02*
X22800Y-22633D01*
X22800Y-22671D02*
X22800Y-22446D01*
X22800Y-22446D02*
X22834Y-22408D01*
X22834Y-22408D02*
X23067Y-22408D01*
X23067Y-22408D02*
X23100Y-22446D01*
X23100Y-22446D02*
X23100Y-22671D01*
X23800Y-23016D02*
X23500Y-23016D01*
X23500Y-23054D02*
X23500Y-22829D01*
X23500Y-22829D02*
X23534Y-22791D01*
X23534Y-22791D02*
X23767Y-22791D01*
X23767Y-22791D02*
X23800Y-22829D01*
X23800Y-22829D02*
X23800Y-23054D01*
X23734Y-22671D02*
X23767Y-22671D01*
X23767Y-22671D02*
X23800Y-22633D01*
X23800Y-22633D02*
X23800Y-22446D01*
X23800Y-22446D02*
X23767Y-22408D01*
X23767Y-22408D02*
X23667Y-22408D01*
X23667Y-22408D02*
X23600Y-22483D01*
X23600Y-22483D02*
X23600Y-22671D01*
X23600Y-22671D02*
X23500Y-22671D01*
X23500Y-22671D02*
X23500Y-22408D01*
X24050Y-23054D02*
X24350Y-22979D01*
X24350Y-22979D02*
X24250Y-22904D01*
X24250Y-22904D02*
X24350Y-22829D01*
X24350Y-22829D02*
X24050Y-22754D01*
X24350Y-22671D02*
X24050Y-22671D01*
X24050Y-22671D02*
X24050Y-22446D01*
X24050Y-22446D02*
X24084Y-22408D01*
X24084Y-22408D02*
X24184Y-22408D01*
X24184Y-22408D02*
X24217Y-22446D01*
X24217Y-22446D02*
X24217Y-22671D01*
X24217Y-22558D02*
X24350Y-22408D01*
G54D19*
X21479Y-25600D02*
X21479Y-26134D01*
X21479Y-26134D02*
X21554Y-26200D01*
X21554Y-26200D02*
X21929Y-26200D01*
X21929Y-26200D02*
X22004Y-26134D01*
X22004Y-26134D02*
X22004Y-25600D01*
X22355Y-26200D02*
X22655Y-26200D01*
X22505Y-26200D02*
X22505Y-25600D01*
X22505Y-25667D02*
X22355Y-25800D01*
X20525Y-28300D02*
X20525Y-27700D01*
X20525Y-27700D02*
X20975Y-27700D01*
X20975Y-27700D02*
X21050Y-27767D01*
X21050Y-27767D02*
X21050Y-27967D01*
X21050Y-27967D02*
X20975Y-28034D01*
X20975Y-28034D02*
X20525Y-28034D01*
X21326Y-28300D02*
X21626Y-28300D01*
X21476Y-28300D02*
X21476Y-27700D01*
X21326Y-27700D02*
X21626Y-27700D01*
X22502Y-28234D02*
X22427Y-28300D01*
X22427Y-28300D02*
X22052Y-28300D01*
X22052Y-28300D02*
X21977Y-28234D01*
X21977Y-28234D02*
X21977Y-27767D01*
X21977Y-27767D02*
X22052Y-27700D01*
X22052Y-27700D02*
X22427Y-27700D01*
X22427Y-27700D02*
X22502Y-27767D01*
X22853Y-28300D02*
X23153Y-28300D01*
X23003Y-28300D02*
X23003Y-27700D01*
X23003Y-27767D02*
X22853Y-27900D01*
X23504Y-28300D02*
X23429Y-28234D01*
X23429Y-28234D02*
X23429Y-28034D01*
X23429Y-28034D02*
X23504Y-27967D01*
X23504Y-27967D02*
X23879Y-27967D01*
X23879Y-27967D02*
X23954Y-27900D01*
X23954Y-27900D02*
X23954Y-27767D01*
X23954Y-27767D02*
X23879Y-27700D01*
X23879Y-27700D02*
X23504Y-27700D01*
X23504Y-27700D02*
X23429Y-27767D01*
X23429Y-27767D02*
X23429Y-27900D01*
X23429Y-27900D02*
X23504Y-27967D01*
X23879Y-27967D02*
X23954Y-28034D01*
X23954Y-28034D02*
X23954Y-28234D01*
X23954Y-28234D02*
X23879Y-28300D01*
X23879Y-28300D02*
X23504Y-28300D01*
X24155Y-28300D02*
X24155Y-27700D01*
X24155Y-27700D02*
X24680Y-27700D01*
X24155Y-27967D02*
X24455Y-27967D01*
X25406Y-28300D02*
X24881Y-28300D01*
X24881Y-28300D02*
X24881Y-28100D01*
X24881Y-28100D02*
X24956Y-28034D01*
X24956Y-28034D02*
X25331Y-28034D01*
X25331Y-28034D02*
X25406Y-27967D01*
X25406Y-27967D02*
X25406Y-27767D01*
X25406Y-27767D02*
X25331Y-27700D01*
X25331Y-27700D02*
X24956Y-27700D01*
X24956Y-27700D02*
X24881Y-27767D01*
X25607Y-28167D02*
X25607Y-28234D01*
X25607Y-28234D02*
X25682Y-28300D01*
X25682Y-28300D02*
X26057Y-28300D01*
X26057Y-28300D02*
X26132Y-28234D01*
X26132Y-28234D02*
X26132Y-28034D01*
X26132Y-28034D02*
X25982Y-27900D01*
X25982Y-27900D02*
X25607Y-27900D01*
X25607Y-27900D02*
X25607Y-27700D01*
X25607Y-27700D02*
X26132Y-27700D01*
X26333Y-28167D02*
X26333Y-28234D01*
X26333Y-28234D02*
X26408Y-28300D01*
X26408Y-28300D02*
X26783Y-28300D01*
X26783Y-28300D02*
X26858Y-28234D01*
X26858Y-28234D02*
X26858Y-28034D01*
X26858Y-28034D02*
X26708Y-27900D01*
X26708Y-27900D02*
X26333Y-27900D01*
X26333Y-27900D02*
X26333Y-27700D01*
X26333Y-27700D02*
X26858Y-27700D01*
X27059Y-28300D02*
X27584Y-27700D01*
X27059Y-28234D02*
X27059Y-27767D01*
X27059Y-27767D02*
X27134Y-27700D01*
X27134Y-27700D02*
X27509Y-27700D01*
X27509Y-27700D02*
X27584Y-27767D01*
X27584Y-27767D02*
X27584Y-28234D01*
X27584Y-28234D02*
X27509Y-28300D01*
X27509Y-28300D02*
X27134Y-28300D01*
X27134Y-28300D02*
X27059Y-28234D01*
G54D31*
X31467Y-31431D02*
X31234Y-31431D01*
X31234Y-31431D02*
X31200Y-31393D01*
X31200Y-31393D02*
X31200Y-31206D01*
X31200Y-31206D02*
X31234Y-31168D01*
X31234Y-31168D02*
X31467Y-31168D01*
X31467Y-31168D02*
X31500Y-31206D01*
X31500Y-31206D02*
X31500Y-31393D01*
X31500Y-31393D02*
X31467Y-31431D01*
X31367Y-31243D02*
X31500Y-31168D01*
X31500Y-30943D02*
X31500Y-30793D01*
X31500Y-30868D02*
X31200Y-30868D01*
X31234Y-30868D02*
X31300Y-30943D01*
X30150Y-32350D02*
X29850Y-32350D01*
X29850Y-32350D02*
X29850Y-32125D01*
X29850Y-32125D02*
X29884Y-32087D01*
X29884Y-32087D02*
X29950Y-32087D01*
X29950Y-32087D02*
X29984Y-32125D01*
X29984Y-32125D02*
X29984Y-32350D01*
X29984Y-32125D02*
X30050Y-32087D01*
X30050Y-32087D02*
X30117Y-32087D01*
X30117Y-32087D02*
X30150Y-32125D01*
X30150Y-32125D02*
X30150Y-32350D01*
X30117Y-31937D02*
X30150Y-31899D01*
X30150Y-31899D02*
X30150Y-31712D01*
X30150Y-31712D02*
X30117Y-31674D01*
X30117Y-31674D02*
X30017Y-31674D01*
X30017Y-31674D02*
X29984Y-31712D01*
X29984Y-31712D02*
X29984Y-31899D01*
X29984Y-31899D02*
X29950Y-31937D01*
X29950Y-31937D02*
X29884Y-31937D01*
X29884Y-31937D02*
X29850Y-31899D01*
X29850Y-31899D02*
X29850Y-31712D01*
X29850Y-31712D02*
X29884Y-31674D01*
X30150Y-31449D02*
X30150Y-31299D01*
X30150Y-31374D02*
X29850Y-31374D01*
X29884Y-31374D02*
X29950Y-31449D01*
X29850Y-31111D02*
X29850Y-30848D01*
X29850Y-30848D02*
X30150Y-31111D01*
X30150Y-30698D02*
X29850Y-30435D01*
X30117Y-30698D02*
X29884Y-30698D01*
X29884Y-30698D02*
X29850Y-30660D01*
X29850Y-30660D02*
X29850Y-30473D01*
X29850Y-30473D02*
X29884Y-30435D01*
X29884Y-30435D02*
X30117Y-30435D01*
X30117Y-30435D02*
X30150Y-30473D01*
X30150Y-30473D02*
X30150Y-30660D01*
X30150Y-30660D02*
X30117Y-30698D01*
X33367Y-32231D02*
X33134Y-32231D01*
X33134Y-32231D02*
X33100Y-32193D01*
X33100Y-32193D02*
X33100Y-32006D01*
X33100Y-32006D02*
X33134Y-31968D01*
X33134Y-31968D02*
X33367Y-31968D01*
X33367Y-31968D02*
X33400Y-32006D01*
X33400Y-32006D02*
X33400Y-32193D01*
X33400Y-32193D02*
X33367Y-32231D01*
X33267Y-32043D02*
X33400Y-31968D01*
X33400Y-31555D02*
X33400Y-31818D01*
X33400Y-31818D02*
X33300Y-31818D01*
X33300Y-31818D02*
X33267Y-31780D01*
X33267Y-31780D02*
X33267Y-31593D01*
X33267Y-31593D02*
X33234Y-31555D01*
X33234Y-31555D02*
X33134Y-31555D01*
X33134Y-31555D02*
X33100Y-31593D01*
X33100Y-31593D02*
X33100Y-31780D01*
X33100Y-31780D02*
X33134Y-31818D01*
X33800Y-32450D02*
X33500Y-32450D01*
X33500Y-32450D02*
X33500Y-32225D01*
X33500Y-32225D02*
X33534Y-32187D01*
X33534Y-32187D02*
X33600Y-32187D01*
X33600Y-32187D02*
X33634Y-32225D01*
X33634Y-32225D02*
X33634Y-32450D01*
X33634Y-32225D02*
X33700Y-32187D01*
X33700Y-32187D02*
X33767Y-32187D01*
X33767Y-32187D02*
X33800Y-32225D01*
X33800Y-32225D02*
X33800Y-32450D01*
X33767Y-32037D02*
X33800Y-31999D01*
X33800Y-31999D02*
X33800Y-31812D01*
X33800Y-31812D02*
X33767Y-31774D01*
X33767Y-31774D02*
X33667Y-31774D01*
X33667Y-31774D02*
X33634Y-31812D01*
X33634Y-31812D02*
X33634Y-31999D01*
X33634Y-31999D02*
X33600Y-32037D01*
X33600Y-32037D02*
X33534Y-32037D01*
X33534Y-32037D02*
X33500Y-31999D01*
X33500Y-31999D02*
X33500Y-31812D01*
X33500Y-31812D02*
X33534Y-31774D01*
X33800Y-31549D02*
X33800Y-31399D01*
X33800Y-31474D02*
X33500Y-31474D01*
X33534Y-31474D02*
X33600Y-31549D01*
X33500Y-31211D02*
X33500Y-30948D01*
X33500Y-30948D02*
X33800Y-31211D01*
X33800Y-30798D02*
X33500Y-30535D01*
X33767Y-30798D02*
X33534Y-30798D01*
X33534Y-30798D02*
X33500Y-30760D01*
X33500Y-30760D02*
X33500Y-30573D01*
X33500Y-30573D02*
X33534Y-30535D01*
X33534Y-30535D02*
X33767Y-30535D01*
X33767Y-30535D02*
X33800Y-30573D01*
X33800Y-30573D02*
X33800Y-30760D01*
X33800Y-30760D02*
X33767Y-30798D01*
G54D18*
X20132Y-25359D02*
X20109Y-25390D01*
X20109Y-25390D02*
X19997Y-25390D01*
X19997Y-25390D02*
X19974Y-25359D01*
X19974Y-25359D02*
X19974Y-25142D01*
X19974Y-25142D02*
X19997Y-25110D01*
X19997Y-25110D02*
X20109Y-25110D01*
X20109Y-25110D02*
X20132Y-25142D01*
X20269Y-25390D02*
X20359Y-25390D01*
X20314Y-25390D02*
X20314Y-25110D01*
X20314Y-25142D02*
X20269Y-25204D01*
X20519Y-25390D02*
X20609Y-25390D01*
X20564Y-25390D02*
X20564Y-25110D01*
X20564Y-25142D02*
X20519Y-25204D01*
X33700Y-29266D02*
X33400Y-29266D01*
X33400Y-29304D02*
X33400Y-29079D01*
X33400Y-29079D02*
X33434Y-29041D01*
X33434Y-29041D02*
X33667Y-29041D01*
X33667Y-29041D02*
X33700Y-29079D01*
X33700Y-29079D02*
X33700Y-29304D01*
X33700Y-28883D02*
X33700Y-28696D01*
X33700Y-28696D02*
X33667Y-28658D01*
X33667Y-28658D02*
X33434Y-28658D01*
X33434Y-28658D02*
X33400Y-28696D01*
X33400Y-28696D02*
X33400Y-28883D01*
X33400Y-28883D02*
X33434Y-28921D01*
X33434Y-28921D02*
X33534Y-28921D01*
X33534Y-28921D02*
X33567Y-28883D01*
X33567Y-28883D02*
X33567Y-28696D01*
X33567Y-28696D02*
X33534Y-28658D01*
G54D31*
X30519Y-29817D02*
X30519Y-29584D01*
X30519Y-29584D02*
X30557Y-29550D01*
X30557Y-29550D02*
X30744Y-29550D01*
X30744Y-29550D02*
X30782Y-29584D01*
X30782Y-29584D02*
X30782Y-29817D01*
X30782Y-29817D02*
X30744Y-29850D01*
X30744Y-29850D02*
X30557Y-29850D01*
X30557Y-29850D02*
X30519Y-29817D01*
X30707Y-29717D02*
X30782Y-29850D01*
X30932Y-29550D02*
X31195Y-29550D01*
X31195Y-29550D02*
X31195Y-29584D01*
X31195Y-29584D02*
X31045Y-29684D01*
X31045Y-29684D02*
X31157Y-29684D01*
X31157Y-29684D02*
X31195Y-29717D01*
X31195Y-29717D02*
X31195Y-29817D01*
X31195Y-29817D02*
X31157Y-29850D01*
X31157Y-29850D02*
X30970Y-29850D01*
X30970Y-29850D02*
X30932Y-29817D01*
X29774Y-30000D02*
X30074Y-30000D01*
X29924Y-30000D02*
X29924Y-30300D01*
X30187Y-30267D02*
X30225Y-30300D01*
X30225Y-30300D02*
X30412Y-30300D01*
X30412Y-30300D02*
X30450Y-30267D01*
X30450Y-30267D02*
X30450Y-30167D01*
X30450Y-30167D02*
X30412Y-30134D01*
X30412Y-30134D02*
X30225Y-30134D01*
X30225Y-30134D02*
X30187Y-30100D01*
X30187Y-30100D02*
X30187Y-30034D01*
X30187Y-30034D02*
X30225Y-30000D01*
X30225Y-30000D02*
X30412Y-30000D01*
X30412Y-30000D02*
X30450Y-30034D01*
X30600Y-30300D02*
X30600Y-30000D01*
X30600Y-30000D02*
X30750Y-30134D01*
X30750Y-30134D02*
X30900Y-30000D01*
X30900Y-30000D02*
X30900Y-30300D01*
X31276Y-30300D02*
X31013Y-30300D01*
X31013Y-30300D02*
X31013Y-30200D01*
X31013Y-30200D02*
X31051Y-30167D01*
X31051Y-30167D02*
X31238Y-30167D01*
X31238Y-30167D02*
X31276Y-30134D01*
X31276Y-30134D02*
X31276Y-30034D01*
X31276Y-30034D02*
X31238Y-30000D01*
X31238Y-30000D02*
X31051Y-30000D01*
X31051Y-30000D02*
X31013Y-30034D01*
X31426Y-30000D02*
X31689Y-30000D01*
X31689Y-30000D02*
X31689Y-30034D01*
X31689Y-30034D02*
X31539Y-30134D01*
X31539Y-30134D02*
X31651Y-30134D01*
X31651Y-30134D02*
X31689Y-30167D01*
X31689Y-30167D02*
X31689Y-30267D01*
X31689Y-30267D02*
X31651Y-30300D01*
X31651Y-30300D02*
X31464Y-30300D01*
X31464Y-30300D02*
X31426Y-30267D01*
X31839Y-30300D02*
X32102Y-30000D01*
X31839Y-30267D02*
X31839Y-30034D01*
X31839Y-30034D02*
X31877Y-30000D01*
X31877Y-30000D02*
X32064Y-30000D01*
X32064Y-30000D02*
X32102Y-30034D01*
X32102Y-30034D02*
X32102Y-30267D01*
X32102Y-30267D02*
X32064Y-30300D01*
X32064Y-30300D02*
X31877Y-30300D01*
X31877Y-30300D02*
X31839Y-30267D01*
X32327Y-30300D02*
X32477Y-30300D01*
X32402Y-30300D02*
X32402Y-30000D01*
X32402Y-30034D02*
X32327Y-30100D01*
X32928Y-30267D02*
X32890Y-30300D01*
X32890Y-30300D02*
X32703Y-30300D01*
X32703Y-30300D02*
X32665Y-30267D01*
X32665Y-30267D02*
X32665Y-30034D01*
X32665Y-30034D02*
X32703Y-30000D01*
X32703Y-30000D02*
X32890Y-30000D01*
X32890Y-30000D02*
X32928Y-30034D01*
X33078Y-30300D02*
X33341Y-30000D01*
X33078Y-30000D02*
X33341Y-30300D01*
G54D18*
X28934Y-22950D02*
X28934Y-22650D01*
X28896Y-22650D02*
X29121Y-22650D01*
X29121Y-22650D02*
X29159Y-22684D01*
X29159Y-22684D02*
X29159Y-22917D01*
X29159Y-22917D02*
X29121Y-22950D01*
X29121Y-22950D02*
X28896Y-22950D01*
X29279Y-22650D02*
X29542Y-22650D01*
X29542Y-22650D02*
X29542Y-22684D01*
X29542Y-22684D02*
X29392Y-22784D01*
X29392Y-22784D02*
X29504Y-22784D01*
X29504Y-22784D02*
X29542Y-22817D01*
X29542Y-22817D02*
X29542Y-22917D01*
X29542Y-22917D02*
X29504Y-22950D01*
X29504Y-22950D02*
X29317Y-22950D01*
X29317Y-22950D02*
X29279Y-22917D01*
X28284Y-22650D02*
X28284Y-22350D01*
X28246Y-22350D02*
X28471Y-22350D01*
X28471Y-22350D02*
X28509Y-22384D01*
X28509Y-22384D02*
X28509Y-22617D01*
X28509Y-22617D02*
X28471Y-22650D01*
X28471Y-22650D02*
X28246Y-22650D01*
X28892Y-22650D02*
X28629Y-22650D01*
X28629Y-22650D02*
X28629Y-22550D01*
X28629Y-22550D02*
X28667Y-22517D01*
X28667Y-22517D02*
X28854Y-22517D01*
X28854Y-22517D02*
X28892Y-22484D01*
X28892Y-22484D02*
X28892Y-22384D01*
X28892Y-22384D02*
X28854Y-22350D01*
X28854Y-22350D02*
X28667Y-22350D01*
X28667Y-22350D02*
X28629Y-22384D01*
X25584Y-22300D02*
X25584Y-22000D01*
X25546Y-22000D02*
X25771Y-22000D01*
X25771Y-22000D02*
X25809Y-22034D01*
X25809Y-22034D02*
X25809Y-22267D01*
X25809Y-22267D02*
X25771Y-22300D01*
X25771Y-22300D02*
X25546Y-22300D01*
X26004Y-22300D02*
X26154Y-22300D01*
X26079Y-22300D02*
X26079Y-22000D01*
X26079Y-22034D02*
X26004Y-22100D01*
X31000Y-27216D02*
X30700Y-27216D01*
X30700Y-27254D02*
X30700Y-27029D01*
X30700Y-27029D02*
X30734Y-26991D01*
X30734Y-26991D02*
X30967Y-26991D01*
X30967Y-26991D02*
X31000Y-27029D01*
X31000Y-27029D02*
X31000Y-27254D01*
X31000Y-26683D02*
X30700Y-26683D01*
X30700Y-26683D02*
X30934Y-26871D01*
X30934Y-26871D02*
X30934Y-26608D01*
X33750Y-24666D02*
X33450Y-24666D01*
X33450Y-24704D02*
X33450Y-24479D01*
X33450Y-24479D02*
X33484Y-24441D01*
X33484Y-24441D02*
X33717Y-24441D01*
X33717Y-24441D02*
X33750Y-24479D01*
X33750Y-24479D02*
X33750Y-24704D01*
X33750Y-24283D02*
X33717Y-24321D01*
X33717Y-24321D02*
X33617Y-24321D01*
X33617Y-24321D02*
X33584Y-24283D01*
X33584Y-24283D02*
X33584Y-24096D01*
X33584Y-24096D02*
X33550Y-24058D01*
X33550Y-24058D02*
X33484Y-24058D01*
X33484Y-24058D02*
X33450Y-24096D01*
X33450Y-24096D02*
X33450Y-24283D01*
X33450Y-24283D02*
X33484Y-24321D01*
X33484Y-24321D02*
X33550Y-24321D01*
X33550Y-24321D02*
X33584Y-24283D01*
X33584Y-24096D02*
X33617Y-24058D01*
X33617Y-24058D02*
X33717Y-24058D01*
X33717Y-24058D02*
X33750Y-24096D01*
X33750Y-24096D02*
X33750Y-24283D01*
X27740Y-27276D02*
X27460Y-27276D01*
X27460Y-27276D02*
X27460Y-27141D01*
X27460Y-27141D02*
X27492Y-27118D01*
X27492Y-27118D02*
X27585Y-27118D01*
X27585Y-27118D02*
X27616Y-27141D01*
X27616Y-27141D02*
X27616Y-27276D01*
X27616Y-27208D02*
X27740Y-27118D01*
X27740Y-26981D02*
X27740Y-26891D01*
X27740Y-26936D02*
X27460Y-26936D01*
X27492Y-26936D02*
X27554Y-26981D01*
X27740Y-26776D02*
X27460Y-26618D01*
X27709Y-26776D02*
X27492Y-26776D01*
X27492Y-26776D02*
X27460Y-26753D01*
X27460Y-26753D02*
X27460Y-26641D01*
X27460Y-26641D02*
X27492Y-26618D01*
X27492Y-26618D02*
X27709Y-26618D01*
X27709Y-26618D02*
X27740Y-26641D01*
X27740Y-26641D02*
X27740Y-26753D01*
X27740Y-26753D02*
X27709Y-26776D01*
X28699Y-29490D02*
X28699Y-29210D01*
X28699Y-29210D02*
X28834Y-29210D01*
X28834Y-29210D02*
X28857Y-29242D01*
X28857Y-29242D02*
X28857Y-29335D01*
X28857Y-29335D02*
X28834Y-29366D01*
X28834Y-29366D02*
X28699Y-29366D01*
X28767Y-29366D02*
X28857Y-29490D01*
X28972Y-29490D02*
X29084Y-29490D01*
X29084Y-29490D02*
X29107Y-29459D01*
X29107Y-29459D02*
X29107Y-29242D01*
X29107Y-29242D02*
X29084Y-29210D01*
X29084Y-29210D02*
X28972Y-29210D01*
X28972Y-29210D02*
X28949Y-29242D01*
X28949Y-29242D02*
X28949Y-29335D01*
X28949Y-29335D02*
X28972Y-29366D01*
X28972Y-29366D02*
X29084Y-29366D01*
X29084Y-29366D02*
X29107Y-29335D01*
X27740Y-28026D02*
X27460Y-28026D01*
X27460Y-28026D02*
X27460Y-27891D01*
X27460Y-27891D02*
X27492Y-27868D01*
X27492Y-27868D02*
X27585Y-27868D01*
X27585Y-27868D02*
X27616Y-27891D01*
X27616Y-27891D02*
X27616Y-28026D01*
X27616Y-27958D02*
X27740Y-27868D01*
X27740Y-27731D02*
X27740Y-27641D01*
X27740Y-27686D02*
X27460Y-27686D01*
X27492Y-27686D02*
X27554Y-27731D01*
X27740Y-27481D02*
X27740Y-27391D01*
X27740Y-27436D02*
X27460Y-27436D01*
X27492Y-27436D02*
X27554Y-27481D01*
X27074Y-26440D02*
X27074Y-26160D01*
X27074Y-26160D02*
X27209Y-26160D01*
X27209Y-26160D02*
X27232Y-26192D01*
X27232Y-26192D02*
X27232Y-26285D01*
X27232Y-26285D02*
X27209Y-26316D01*
X27209Y-26316D02*
X27074Y-26316D01*
X27142Y-26316D02*
X27232Y-26440D01*
X27369Y-26440D02*
X27459Y-26440D01*
X27414Y-26440D02*
X27414Y-26160D01*
X27414Y-26192D02*
X27369Y-26254D01*
X27687Y-26440D02*
X27687Y-26160D01*
X27687Y-26160D02*
X27574Y-26378D01*
X27574Y-26378D02*
X27732Y-26378D01*
X34340Y-26226D02*
X34060Y-26226D01*
X34060Y-26226D02*
X34060Y-26091D01*
X34060Y-26091D02*
X34092Y-26068D01*
X34092Y-26068D02*
X34185Y-26068D01*
X34185Y-26068D02*
X34216Y-26091D01*
X34216Y-26091D02*
X34216Y-26226D01*
X34216Y-26158D02*
X34340Y-26068D01*
X34340Y-25931D02*
X34340Y-25841D01*
X34340Y-25886D02*
X34060Y-25886D01*
X34092Y-25886D02*
X34154Y-25931D01*
X34060Y-25726D02*
X34060Y-25568D01*
X34060Y-25568D02*
X34092Y-25568D01*
X34092Y-25568D02*
X34185Y-25658D01*
X34185Y-25658D02*
X34185Y-25591D01*
X34185Y-25591D02*
X34216Y-25568D01*
X34216Y-25568D02*
X34309Y-25568D01*
X34309Y-25568D02*
X34340Y-25591D01*
X34340Y-25591D02*
X34340Y-25703D01*
X34340Y-25703D02*
X34309Y-25726D01*
X28824Y-28090D02*
X28824Y-27810D01*
X28824Y-27810D02*
X28959Y-27810D01*
X28959Y-27810D02*
X28982Y-27842D01*
X28982Y-27842D02*
X28982Y-27935D01*
X28982Y-27935D02*
X28959Y-27966D01*
X28959Y-27966D02*
X28824Y-27966D01*
X28892Y-27966D02*
X28982Y-28090D01*
X29119Y-28090D02*
X29209Y-28090D01*
X29164Y-28090D02*
X29164Y-27810D01*
X29164Y-27842D02*
X29119Y-27904D01*
X29482Y-28090D02*
X29324Y-28090D01*
X29324Y-28090D02*
X29324Y-27997D01*
X29324Y-27997D02*
X29347Y-27966D01*
X29347Y-27966D02*
X29459Y-27966D01*
X29459Y-27966D02*
X29482Y-27935D01*
X29482Y-27935D02*
X29482Y-27842D01*
X29482Y-27842D02*
X29459Y-27810D01*
X29459Y-27810D02*
X29347Y-27810D01*
X29347Y-27810D02*
X29324Y-27842D01*
G54D31*
X30219Y-27917D02*
X30219Y-27684D01*
X30219Y-27684D02*
X30257Y-27650D01*
X30257Y-27650D02*
X30444Y-27650D01*
X30444Y-27650D02*
X30482Y-27684D01*
X30482Y-27684D02*
X30482Y-27917D01*
X30482Y-27917D02*
X30444Y-27950D01*
X30444Y-27950D02*
X30257Y-27950D01*
X30257Y-27950D02*
X30219Y-27917D01*
X30407Y-27817D02*
X30482Y-27950D01*
X30820Y-27950D02*
X30820Y-27650D01*
X30820Y-27650D02*
X30632Y-27884D01*
X30632Y-27884D02*
X30895Y-27884D01*
X28950Y-28350D02*
X28950Y-28050D01*
X28950Y-28050D02*
X29175Y-28050D01*
X29175Y-28050D02*
X29213Y-28084D01*
X29213Y-28084D02*
X29213Y-28150D01*
X29213Y-28150D02*
X29175Y-28184D01*
X29175Y-28184D02*
X28950Y-28184D01*
X29175Y-28184D02*
X29213Y-28250D01*
X29213Y-28250D02*
X29213Y-28317D01*
X29213Y-28317D02*
X29175Y-28350D01*
X29175Y-28350D02*
X28950Y-28350D01*
X29363Y-28317D02*
X29401Y-28350D01*
X29401Y-28350D02*
X29588Y-28350D01*
X29588Y-28350D02*
X29626Y-28317D01*
X29626Y-28317D02*
X29626Y-28217D01*
X29626Y-28217D02*
X29588Y-28184D01*
X29588Y-28184D02*
X29401Y-28184D01*
X29401Y-28184D02*
X29363Y-28150D01*
X29363Y-28150D02*
X29363Y-28084D01*
X29363Y-28084D02*
X29401Y-28050D01*
X29401Y-28050D02*
X29588Y-28050D01*
X29588Y-28050D02*
X29626Y-28084D01*
X29851Y-28350D02*
X30001Y-28350D01*
X29926Y-28350D02*
X29926Y-28050D01*
X29926Y-28084D02*
X29851Y-28150D01*
X30189Y-28050D02*
X30452Y-28050D01*
X30452Y-28050D02*
X30189Y-28350D01*
X30602Y-28350D02*
X30865Y-28050D01*
X30602Y-28317D02*
X30602Y-28084D01*
X30602Y-28084D02*
X30640Y-28050D01*
X30640Y-28050D02*
X30827Y-28050D01*
X30827Y-28050D02*
X30865Y-28084D01*
X30865Y-28084D02*
X30865Y-28317D01*
X30865Y-28317D02*
X30827Y-28350D01*
X30827Y-28350D02*
X30640Y-28350D01*
X30640Y-28350D02*
X30602Y-28317D01*
G54D18*
X33524Y-23490D02*
X33524Y-23210D01*
X33524Y-23210D02*
X33659Y-23210D01*
X33659Y-23210D02*
X33682Y-23242D01*
X33682Y-23242D02*
X33682Y-23335D01*
X33682Y-23335D02*
X33659Y-23366D01*
X33659Y-23366D02*
X33524Y-23366D01*
X33592Y-23366D02*
X33682Y-23490D01*
X33819Y-23490D02*
X33909Y-23490D01*
X33864Y-23490D02*
X33864Y-23210D01*
X33864Y-23242D02*
X33819Y-23304D01*
X34182Y-23242D02*
X34159Y-23210D01*
X34159Y-23210D02*
X34047Y-23210D01*
X34047Y-23210D02*
X34024Y-23242D01*
X34024Y-23242D02*
X34024Y-23459D01*
X34024Y-23459D02*
X34047Y-23490D01*
X34047Y-23490D02*
X34159Y-23490D01*
X34159Y-23490D02*
X34182Y-23459D01*
X34182Y-23459D02*
X34182Y-23366D01*
X34182Y-23366D02*
X34159Y-23335D01*
X34159Y-23335D02*
X34047Y-23335D01*
X34047Y-23335D02*
X34024Y-23366D01*
X33524Y-22740D02*
X33524Y-22460D01*
X33524Y-22460D02*
X33659Y-22460D01*
X33659Y-22460D02*
X33682Y-22492D01*
X33682Y-22492D02*
X33682Y-22585D01*
X33682Y-22585D02*
X33659Y-22616D01*
X33659Y-22616D02*
X33524Y-22616D01*
X33592Y-22616D02*
X33682Y-22740D01*
X33819Y-22740D02*
X33909Y-22740D01*
X33864Y-22740D02*
X33864Y-22460D01*
X33864Y-22492D02*
X33819Y-22554D01*
X34024Y-22678D02*
X34024Y-22709D01*
X34024Y-22709D02*
X34047Y-22740D01*
X34047Y-22740D02*
X34159Y-22740D01*
X34159Y-22740D02*
X34182Y-22709D01*
X34182Y-22709D02*
X34182Y-22616D01*
X34182Y-22616D02*
X34137Y-22554D01*
X34137Y-22554D02*
X34024Y-22554D01*
X34024Y-22554D02*
X34024Y-22460D01*
X34024Y-22460D02*
X34182Y-22460D01*
X29943Y-25750D02*
X29943Y-25450D01*
X29905Y-25450D02*
X30130Y-25450D01*
X30130Y-25450D02*
X30168Y-25484D01*
X30168Y-25484D02*
X30168Y-25717D01*
X30168Y-25717D02*
X30130Y-25750D01*
X30130Y-25750D02*
X29905Y-25750D01*
X30363Y-25750D02*
X30513Y-25750D01*
X30438Y-25750D02*
X30438Y-25450D01*
X30438Y-25484D02*
X30363Y-25550D01*
X30671Y-25750D02*
X30934Y-25450D01*
X30671Y-25717D02*
X30671Y-25484D01*
X30671Y-25484D02*
X30709Y-25450D01*
X30709Y-25450D02*
X30896Y-25450D01*
X30896Y-25450D02*
X30934Y-25484D01*
X30934Y-25484D02*
X30934Y-25717D01*
X30934Y-25717D02*
X30896Y-25750D01*
X30896Y-25750D02*
X30709Y-25750D01*
X30709Y-25750D02*
X30671Y-25717D01*
M02*
