G04 (created by PCBNEW-RS274X (2010-05-05 BZR 2356)-stable) date Fri 25 Feb 2011 10:53:11 AM CET*
G01*
G70*
G90*
%MOIN*%
G04 Gerber Fmt 3.4, Leading zero omitted, Abs format*
%FSLAX34Y34*%
G04 APERTURE LIST*
%ADD10C,0.006000*%
%ADD11C,0.001000*%
%ADD12R,0.070000X0.070000*%
%ADD13C,0.070000*%
%ADD14C,0.169300*%
%ADD15C,0.059100*%
%ADD16C,0.045000*%
%ADD17C,0.012000*%
%ADD18C,0.030000*%
%ADD19C,0.010000*%
G04 APERTURE END LIST*
G54D10*
G54D11*
X16650Y-21650D02*
X34600Y-21650D01*
X16650Y-32600D02*
X16650Y-21650D01*
X34600Y-32600D02*
X16650Y-32600D01*
X34600Y-21650D02*
X34600Y-32600D01*
G54D12*
X31850Y-29550D03*
G54D13*
X31850Y-28550D03*
X31850Y-27550D03*
X31850Y-26550D03*
X31850Y-25550D03*
G54D12*
X24750Y-31450D03*
G54D13*
X25750Y-31450D03*
X26750Y-31450D03*
X27750Y-31450D03*
X28750Y-31450D03*
X24000Y-25500D03*
X26000Y-25500D03*
G54D14*
X17898Y-30114D03*
X17898Y-25382D03*
G54D15*
X19750Y-27258D03*
X18960Y-27258D03*
X18960Y-28242D03*
X19750Y-28242D03*
G54D16*
X26800Y-27400D03*
X30600Y-31000D03*
X30700Y-28300D03*
X29800Y-30250D03*
X23900Y-31100D03*
X19650Y-24650D03*
X26750Y-24750D03*
X31950Y-23600D03*
X33450Y-31800D03*
X23000Y-32000D03*
X32000Y-30500D03*
X21500Y-29500D03*
X21000Y-29000D03*
X21000Y-28000D03*
X22500Y-28000D03*
X23500Y-28500D03*
X34000Y-24750D03*
X34000Y-23250D03*
X34000Y-22250D03*
X18250Y-22250D03*
X17250Y-22250D03*
X17250Y-24250D03*
X21750Y-32000D03*
X17250Y-31500D03*
X19250Y-31500D03*
X21250Y-31500D03*
G54D17*
X27800Y-30500D02*
X28750Y-31450D01*
X27100Y-30500D02*
X27800Y-30500D01*
X26800Y-30200D02*
X27100Y-30500D01*
X26800Y-27400D02*
X26800Y-30200D01*
X30200Y-28500D02*
X30200Y-30700D01*
X30200Y-30700D02*
X30400Y-30900D01*
X30400Y-30900D02*
X30500Y-30900D01*
X30500Y-30900D02*
X30600Y-31000D01*
X30700Y-28300D02*
X30400Y-28300D01*
X30400Y-28300D02*
X30200Y-28500D01*
G54D18*
X29800Y-27400D02*
X29803Y-30256D01*
X28200Y-26850D02*
X26250Y-26850D01*
X28750Y-27400D02*
X28200Y-26850D01*
X29300Y-27400D02*
X28750Y-27400D01*
X29800Y-27400D02*
X29300Y-27400D01*
X29800Y-30250D02*
X29803Y-30256D01*
X27750Y-30950D02*
X27750Y-31450D01*
X27600Y-30800D02*
X27750Y-30950D01*
X24200Y-30800D02*
X25650Y-30800D01*
X25650Y-30800D02*
X26900Y-30800D01*
X26900Y-30800D02*
X27600Y-30800D01*
X23900Y-31100D02*
X24200Y-30800D01*
X19650Y-24650D02*
X19750Y-24750D01*
X19750Y-24750D02*
X19750Y-27258D01*
X20158Y-26850D02*
X19750Y-27258D01*
X26250Y-26850D02*
X20158Y-26850D01*
X26900Y-30800D02*
X26500Y-30400D01*
X26250Y-27550D02*
X26250Y-26850D01*
X26500Y-27800D02*
X26250Y-27550D01*
X26500Y-30400D02*
X26500Y-27800D01*
X19830Y-23450D02*
X17898Y-25382D01*
X26750Y-24750D02*
X25450Y-23450D01*
X25450Y-23450D02*
X19830Y-23450D01*
X30800Y-24750D02*
X26750Y-24750D01*
X31950Y-23600D02*
X30800Y-24750D01*
X31950Y-23600D02*
X31950Y-23600D01*
X31950Y-23550D02*
X31950Y-23600D01*
X32950Y-24550D02*
X31950Y-23550D01*
X32950Y-31300D02*
X32950Y-25000D01*
X32950Y-25000D02*
X32950Y-24900D01*
X32950Y-24900D02*
X32950Y-24550D01*
X33450Y-31800D02*
X32950Y-31300D01*
X31850Y-29550D02*
X31850Y-30350D01*
X31850Y-30350D02*
X32000Y-30500D01*
X21000Y-28000D02*
X21000Y-29000D01*
X23000Y-28000D02*
X22500Y-28000D01*
X23500Y-28500D02*
X23000Y-28000D01*
G54D17*
X32950Y-25000D02*
X32950Y-23300D01*
X34000Y-23250D02*
X34000Y-24750D01*
X32950Y-23300D02*
X34000Y-22250D01*
X17250Y-24250D02*
X17250Y-22250D01*
X17898Y-30114D02*
X17898Y-30852D01*
X17898Y-30852D02*
X17250Y-31500D01*
X19250Y-31500D02*
X21250Y-31500D01*
G54D19*
X16805Y-21805D02*
X34445Y-21805D01*
X16805Y-21885D02*
X34445Y-21885D01*
X16805Y-21965D02*
X34445Y-21965D01*
X16805Y-22045D02*
X34445Y-22045D01*
X16805Y-22125D02*
X34445Y-22125D01*
X16805Y-22205D02*
X34445Y-22205D01*
X16805Y-22285D02*
X34445Y-22285D01*
X16805Y-22365D02*
X34445Y-22365D01*
X16805Y-22445D02*
X34445Y-22445D01*
X16805Y-22525D02*
X34445Y-22525D01*
X16805Y-22605D02*
X34445Y-22605D01*
X16805Y-22685D02*
X34445Y-22685D01*
X16805Y-22765D02*
X34445Y-22765D01*
X16805Y-22845D02*
X34445Y-22845D01*
X16805Y-22925D02*
X34445Y-22925D01*
X16805Y-23005D02*
X34445Y-23005D01*
X16805Y-23085D02*
X34445Y-23085D01*
X16805Y-23165D02*
X34445Y-23165D01*
X16805Y-23245D02*
X34445Y-23245D01*
X16805Y-23325D02*
X34445Y-23325D01*
X16805Y-23405D02*
X34445Y-23405D01*
X16805Y-23485D02*
X34445Y-23485D01*
X16805Y-23565D02*
X34445Y-23565D01*
X16805Y-23645D02*
X34445Y-23645D01*
X16805Y-23725D02*
X34445Y-23725D01*
X16805Y-23805D02*
X34445Y-23805D01*
X16805Y-23885D02*
X34445Y-23885D01*
X16805Y-23965D02*
X34445Y-23965D01*
X16805Y-24045D02*
X34445Y-24045D01*
X16805Y-24125D02*
X34445Y-24125D01*
X16805Y-24205D02*
X34445Y-24205D01*
X16805Y-24285D02*
X19420Y-24285D01*
X19879Y-24285D02*
X34445Y-24285D01*
X16805Y-24365D02*
X19334Y-24365D01*
X19966Y-24365D02*
X34445Y-24365D01*
X16805Y-24445D02*
X19275Y-24445D01*
X20026Y-24445D02*
X34445Y-24445D01*
X16805Y-24525D02*
X19242Y-24525D01*
X20059Y-24525D02*
X34445Y-24525D01*
X16805Y-24605D02*
X19225Y-24605D01*
X20075Y-24605D02*
X34445Y-24605D01*
X16805Y-24685D02*
X19225Y-24685D01*
X20087Y-24685D02*
X34445Y-24685D01*
X16805Y-24765D02*
X19237Y-24765D01*
X20100Y-24765D02*
X34445Y-24765D01*
X16805Y-24845D02*
X19270Y-24845D01*
X20100Y-24845D02*
X34445Y-24845D01*
X16805Y-24925D02*
X19324Y-24925D01*
X20100Y-24925D02*
X34445Y-24925D01*
X16805Y-25005D02*
X19400Y-25005D01*
X20100Y-25005D02*
X23762Y-25005D01*
X24239Y-25005D02*
X25762Y-25005D01*
X26239Y-25005D02*
X31732Y-25005D01*
X31969Y-25005D02*
X34445Y-25005D01*
X16805Y-25085D02*
X19400Y-25085D01*
X20100Y-25085D02*
X23639Y-25085D01*
X24361Y-25085D02*
X25639Y-25085D01*
X26361Y-25085D02*
X31539Y-25085D01*
X32161Y-25085D02*
X34445Y-25085D01*
X16805Y-25165D02*
X19400Y-25165D01*
X20100Y-25165D02*
X23559Y-25165D01*
X24441Y-25165D02*
X25559Y-25165D01*
X26441Y-25165D02*
X31459Y-25165D01*
X32241Y-25165D02*
X34445Y-25165D01*
X16805Y-25245D02*
X19400Y-25245D01*
X20100Y-25245D02*
X23512Y-25245D01*
X24489Y-25245D02*
X25512Y-25245D01*
X26489Y-25245D02*
X31383Y-25245D01*
X32318Y-25245D02*
X34445Y-25245D01*
X16805Y-25325D02*
X19400Y-25325D01*
X20100Y-25325D02*
X23479Y-25325D01*
X24522Y-25325D02*
X25479Y-25325D01*
X26522Y-25325D02*
X31350Y-25325D01*
X32351Y-25325D02*
X34445Y-25325D01*
X16805Y-25405D02*
X19400Y-25405D01*
X20100Y-25405D02*
X23451Y-25405D01*
X24549Y-25405D02*
X25451Y-25405D01*
X26549Y-25405D02*
X31316Y-25405D01*
X32385Y-25405D02*
X34445Y-25405D01*
X16805Y-25485D02*
X19400Y-25485D01*
X20100Y-25485D02*
X23451Y-25485D01*
X24549Y-25485D02*
X25451Y-25485D01*
X26549Y-25485D02*
X31301Y-25485D01*
X32399Y-25485D02*
X34445Y-25485D01*
X16805Y-25565D02*
X19400Y-25565D01*
X20100Y-25565D02*
X23451Y-25565D01*
X24549Y-25565D02*
X25451Y-25565D01*
X26549Y-25565D02*
X31301Y-25565D01*
X32399Y-25565D02*
X34445Y-25565D01*
X16805Y-25645D02*
X19400Y-25645D01*
X20100Y-25645D02*
X23465Y-25645D01*
X24534Y-25645D02*
X25465Y-25645D01*
X26534Y-25645D02*
X31301Y-25645D01*
X32399Y-25645D02*
X34445Y-25645D01*
X16805Y-25725D02*
X19400Y-25725D01*
X20100Y-25725D02*
X23499Y-25725D01*
X24500Y-25725D02*
X25499Y-25725D01*
X26500Y-25725D02*
X31328Y-25725D01*
X32371Y-25725D02*
X34445Y-25725D01*
X16805Y-25805D02*
X19400Y-25805D01*
X20100Y-25805D02*
X23532Y-25805D01*
X24467Y-25805D02*
X25532Y-25805D01*
X26467Y-25805D02*
X31361Y-25805D01*
X32338Y-25805D02*
X34445Y-25805D01*
X16805Y-25885D02*
X19400Y-25885D01*
X20100Y-25885D02*
X23609Y-25885D01*
X24391Y-25885D02*
X25609Y-25885D01*
X26391Y-25885D02*
X31409Y-25885D01*
X32291Y-25885D02*
X34445Y-25885D01*
X16805Y-25965D02*
X19400Y-25965D01*
X20100Y-25965D02*
X23689Y-25965D01*
X24311Y-25965D02*
X25689Y-25965D01*
X26311Y-25965D02*
X31489Y-25965D01*
X32211Y-25965D02*
X34445Y-25965D01*
X16805Y-26045D02*
X19400Y-26045D01*
X20100Y-26045D02*
X23881Y-26045D01*
X24118Y-26045D02*
X25881Y-26045D01*
X26118Y-26045D02*
X31611Y-26045D01*
X32086Y-26045D02*
X34445Y-26045D01*
X16805Y-26125D02*
X19400Y-26125D01*
X20100Y-26125D02*
X31499Y-26125D01*
X32201Y-26125D02*
X34445Y-26125D01*
X16805Y-26205D02*
X19400Y-26205D01*
X20100Y-26205D02*
X31419Y-26205D01*
X32281Y-26205D02*
X34445Y-26205D01*
X16805Y-26285D02*
X19400Y-26285D01*
X20100Y-26285D02*
X31366Y-26285D01*
X32335Y-26285D02*
X34445Y-26285D01*
X16805Y-26365D02*
X19400Y-26365D01*
X20100Y-26365D02*
X31333Y-26365D01*
X32368Y-26365D02*
X34445Y-26365D01*
X16805Y-26445D02*
X19400Y-26445D01*
X20100Y-26445D02*
X31301Y-26445D01*
X32399Y-26445D02*
X34445Y-26445D01*
X16805Y-26525D02*
X19400Y-26525D01*
X28325Y-26525D02*
X31301Y-26525D01*
X32399Y-26525D02*
X34445Y-26525D01*
X16805Y-26605D02*
X19400Y-26605D01*
X28449Y-26605D02*
X31301Y-26605D01*
X32399Y-26605D02*
X34445Y-26605D01*
X16805Y-26685D02*
X19400Y-26685D01*
X28529Y-26685D02*
X31311Y-26685D01*
X32388Y-26685D02*
X34445Y-26685D01*
X16805Y-26765D02*
X19400Y-26765D01*
X28609Y-26765D02*
X31345Y-26765D01*
X32354Y-26765D02*
X34445Y-26765D01*
X16805Y-26845D02*
X19400Y-26845D01*
X28689Y-26845D02*
X31378Y-26845D01*
X32321Y-26845D02*
X34445Y-26845D01*
X16805Y-26925D02*
X19384Y-26925D01*
X28769Y-26925D02*
X31449Y-26925D01*
X32251Y-26925D02*
X34445Y-26925D01*
X16805Y-27005D02*
X19320Y-27005D01*
X28849Y-27005D02*
X31529Y-27005D01*
X32171Y-27005D02*
X34445Y-27005D01*
X16805Y-27085D02*
X19287Y-27085D01*
X29946Y-27085D02*
X31539Y-27085D01*
X32161Y-27085D02*
X34445Y-27085D01*
X16805Y-27165D02*
X19256Y-27165D01*
X30056Y-27165D02*
X31459Y-27165D01*
X32241Y-27165D02*
X34445Y-27165D01*
X16805Y-27245D02*
X19256Y-27245D01*
X20257Y-27245D02*
X25900Y-27245D01*
X27196Y-27245D02*
X28100Y-27245D01*
X30110Y-27245D02*
X31383Y-27245D01*
X32318Y-27245D02*
X34445Y-27245D01*
X16805Y-27325D02*
X19256Y-27325D01*
X20244Y-27325D02*
X25900Y-27325D01*
X27225Y-27325D02*
X28180Y-27325D01*
X30136Y-27325D02*
X31350Y-27325D01*
X32351Y-27325D02*
X34445Y-27325D01*
X16805Y-27405D02*
X19276Y-27405D01*
X20224Y-27405D02*
X25900Y-27405D01*
X27225Y-27405D02*
X28260Y-27405D01*
X30151Y-27405D02*
X31316Y-27405D01*
X32385Y-27405D02*
X34445Y-27405D01*
X16805Y-27485D02*
X19309Y-27485D01*
X20190Y-27485D02*
X25900Y-27485D01*
X27225Y-27485D02*
X28340Y-27485D01*
X30151Y-27485D02*
X31301Y-27485D01*
X32399Y-27485D02*
X34445Y-27485D01*
X16805Y-27565D02*
X19358Y-27565D01*
X20142Y-27565D02*
X25903Y-27565D01*
X27191Y-27565D02*
X28420Y-27565D01*
X30151Y-27565D02*
X31301Y-27565D01*
X32399Y-27565D02*
X34445Y-27565D01*
X16805Y-27645D02*
X19438Y-27645D01*
X20062Y-27645D02*
X25919Y-27645D01*
X27156Y-27645D02*
X28500Y-27645D01*
X30151Y-27645D02*
X31301Y-27645D01*
X32399Y-27645D02*
X34445Y-27645D01*
X16805Y-27725D02*
X19585Y-27725D01*
X19912Y-27725D02*
X25954Y-27725D01*
X27076Y-27725D02*
X28625Y-27725D01*
X30151Y-27725D02*
X31328Y-27725D01*
X32371Y-27725D02*
X34445Y-27725D01*
X16805Y-27805D02*
X18724Y-27805D01*
X19197Y-27805D02*
X19514Y-27805D01*
X19987Y-27805D02*
X26011Y-27805D01*
X27060Y-27805D02*
X29450Y-27805D01*
X30151Y-27805D02*
X31361Y-27805D01*
X32338Y-27805D02*
X34445Y-27805D01*
X16805Y-27885D02*
X18618Y-27885D01*
X19302Y-27885D02*
X19407Y-27885D01*
X20092Y-27885D02*
X26091Y-27885D01*
X27060Y-27885D02*
X29450Y-27885D01*
X30151Y-27885D02*
X30592Y-27885D01*
X30809Y-27885D02*
X31409Y-27885D01*
X32291Y-27885D02*
X34445Y-27885D01*
X16805Y-27965D02*
X18540Y-27965D01*
X20171Y-27965D02*
X26150Y-27965D01*
X27060Y-27965D02*
X29450Y-27965D01*
X30151Y-27965D02*
X30434Y-27965D01*
X30966Y-27965D02*
X31489Y-27965D01*
X32211Y-27965D02*
X34445Y-27965D01*
X16805Y-28045D02*
X18507Y-28045D01*
X20204Y-28045D02*
X26150Y-28045D01*
X27060Y-28045D02*
X29450Y-28045D01*
X30151Y-28045D02*
X30354Y-28045D01*
X31046Y-28045D02*
X31611Y-28045D01*
X32088Y-28045D02*
X34445Y-28045D01*
X16805Y-28125D02*
X18474Y-28125D01*
X20237Y-28125D02*
X26150Y-28125D01*
X27060Y-28125D02*
X29450Y-28125D01*
X30151Y-28125D02*
X30207Y-28125D01*
X31088Y-28125D02*
X31499Y-28125D01*
X32201Y-28125D02*
X34445Y-28125D01*
X16805Y-28205D02*
X18466Y-28205D01*
X20244Y-28205D02*
X26150Y-28205D01*
X27060Y-28205D02*
X29450Y-28205D01*
X31121Y-28205D02*
X31419Y-28205D01*
X32281Y-28205D02*
X34445Y-28205D01*
X16805Y-28285D02*
X18466Y-28285D01*
X20244Y-28285D02*
X26150Y-28285D01*
X27060Y-28285D02*
X29450Y-28285D01*
X31125Y-28285D02*
X31366Y-28285D01*
X32335Y-28285D02*
X34445Y-28285D01*
X16805Y-28365D02*
X18476Y-28365D01*
X20234Y-28365D02*
X26150Y-28365D01*
X27060Y-28365D02*
X29451Y-28365D01*
X31125Y-28365D02*
X31333Y-28365D01*
X32368Y-28365D02*
X34445Y-28365D01*
X16805Y-28445D02*
X18509Y-28445D01*
X20200Y-28445D02*
X26150Y-28445D01*
X27060Y-28445D02*
X29451Y-28445D01*
X31100Y-28445D02*
X31301Y-28445D01*
X32399Y-28445D02*
X34445Y-28445D01*
X16805Y-28525D02*
X18544Y-28525D01*
X20166Y-28525D02*
X26150Y-28525D01*
X27060Y-28525D02*
X29451Y-28525D01*
X31066Y-28525D02*
X31301Y-28525D01*
X32399Y-28525D02*
X34445Y-28525D01*
X16805Y-28605D02*
X18624Y-28605D01*
X19295Y-28605D02*
X19414Y-28605D01*
X20086Y-28605D02*
X26150Y-28605D01*
X27060Y-28605D02*
X29451Y-28605D01*
X30996Y-28605D02*
X31301Y-28605D01*
X32399Y-28605D02*
X34445Y-28605D01*
X16805Y-28685D02*
X18737Y-28685D01*
X19181Y-28685D02*
X19527Y-28685D01*
X19971Y-28685D02*
X26150Y-28685D01*
X27060Y-28685D02*
X29451Y-28685D01*
X30460Y-28685D02*
X30519Y-28685D01*
X30881Y-28685D02*
X31311Y-28685D01*
X32388Y-28685D02*
X34445Y-28685D01*
X16805Y-28765D02*
X26150Y-28765D01*
X27060Y-28765D02*
X29451Y-28765D01*
X30460Y-28765D02*
X31345Y-28765D01*
X32354Y-28765D02*
X34445Y-28765D01*
X16805Y-28845D02*
X26150Y-28845D01*
X27060Y-28845D02*
X29451Y-28845D01*
X30460Y-28845D02*
X31378Y-28845D01*
X32321Y-28845D02*
X34445Y-28845D01*
X16805Y-28925D02*
X26150Y-28925D01*
X27060Y-28925D02*
X29452Y-28925D01*
X30460Y-28925D02*
X31449Y-28925D01*
X32251Y-28925D02*
X34445Y-28925D01*
X16805Y-29005D02*
X26150Y-29005D01*
X27060Y-29005D02*
X29452Y-29005D01*
X30460Y-29005D02*
X31529Y-29005D01*
X32171Y-29005D02*
X34445Y-29005D01*
X16805Y-29085D02*
X26150Y-29085D01*
X27060Y-29085D02*
X29452Y-29085D01*
X30460Y-29085D02*
X31707Y-29085D01*
X31992Y-29085D02*
X34445Y-29085D01*
X16805Y-29165D02*
X26150Y-29165D01*
X27060Y-29165D02*
X29452Y-29165D01*
X30460Y-29165D02*
X34445Y-29165D01*
X16805Y-29245D02*
X26150Y-29245D01*
X27060Y-29245D02*
X29452Y-29245D01*
X30460Y-29245D02*
X34445Y-29245D01*
X16805Y-29325D02*
X26150Y-29325D01*
X27060Y-29325D02*
X29452Y-29325D01*
X30460Y-29325D02*
X34445Y-29325D01*
X16805Y-29405D02*
X26150Y-29405D01*
X27060Y-29405D02*
X29452Y-29405D01*
X30460Y-29405D02*
X34445Y-29405D01*
X16805Y-29485D02*
X26150Y-29485D01*
X27060Y-29485D02*
X29453Y-29485D01*
X30460Y-29485D02*
X34445Y-29485D01*
X16805Y-29565D02*
X26150Y-29565D01*
X27060Y-29565D02*
X29453Y-29565D01*
X30460Y-29565D02*
X34445Y-29565D01*
X16805Y-29645D02*
X26150Y-29645D01*
X27060Y-29645D02*
X29453Y-29645D01*
X30460Y-29645D02*
X34445Y-29645D01*
X16805Y-29725D02*
X26150Y-29725D01*
X27060Y-29725D02*
X29453Y-29725D01*
X30460Y-29725D02*
X34445Y-29725D01*
X16805Y-29805D02*
X26150Y-29805D01*
X27060Y-29805D02*
X29453Y-29805D01*
X30460Y-29805D02*
X34445Y-29805D01*
X16805Y-29885D02*
X26150Y-29885D01*
X27060Y-29885D02*
X29453Y-29885D01*
X30460Y-29885D02*
X34445Y-29885D01*
X16805Y-29965D02*
X26150Y-29965D01*
X27060Y-29965D02*
X29453Y-29965D01*
X30460Y-29965D02*
X34445Y-29965D01*
X16805Y-30045D02*
X26150Y-30045D01*
X27060Y-30045D02*
X29425Y-30045D01*
X30460Y-30045D02*
X34445Y-30045D01*
X16805Y-30125D02*
X26150Y-30125D01*
X27093Y-30125D02*
X29392Y-30125D01*
X30460Y-30125D02*
X34445Y-30125D01*
X16805Y-30205D02*
X26150Y-30205D01*
X27173Y-30205D02*
X29375Y-30205D01*
X30460Y-30205D02*
X34445Y-30205D01*
X16805Y-30285D02*
X26150Y-30285D01*
X27938Y-30285D02*
X29375Y-30285D01*
X30460Y-30285D02*
X34445Y-30285D01*
X16805Y-30365D02*
X26150Y-30365D01*
X28033Y-30365D02*
X29387Y-30365D01*
X30460Y-30365D02*
X34445Y-30365D01*
X16805Y-30445D02*
X26159Y-30445D01*
X28113Y-30445D02*
X29420Y-30445D01*
X30460Y-30445D02*
X34445Y-30445D01*
X16805Y-30525D02*
X23994Y-30525D01*
X28193Y-30525D02*
X29474Y-30525D01*
X30460Y-30525D02*
X34445Y-30525D01*
X16805Y-30605D02*
X23900Y-30605D01*
X28273Y-30605D02*
X29554Y-30605D01*
X30757Y-30605D02*
X34445Y-30605D01*
X16805Y-30685D02*
X23792Y-30685D01*
X28353Y-30685D02*
X29940Y-30685D01*
X30886Y-30685D02*
X34445Y-30685D01*
X16805Y-30765D02*
X23634Y-30765D01*
X28433Y-30765D02*
X29953Y-30765D01*
X30964Y-30765D02*
X34445Y-30765D01*
X16805Y-30845D02*
X23554Y-30845D01*
X28513Y-30845D02*
X29990Y-30845D01*
X30996Y-30845D02*
X34445Y-30845D01*
X16805Y-30925D02*
X23513Y-30925D01*
X28917Y-30925D02*
X30057Y-30925D01*
X31025Y-30925D02*
X34445Y-30925D01*
X16805Y-31005D02*
X23480Y-31005D01*
X29081Y-31005D02*
X30137Y-31005D01*
X31025Y-31005D02*
X34445Y-31005D01*
X16805Y-31085D02*
X23475Y-31085D01*
X29161Y-31085D02*
X30175Y-31085D01*
X31025Y-31085D02*
X34445Y-31085D01*
X16805Y-31165D02*
X23475Y-31165D01*
X24329Y-31165D02*
X25274Y-31165D01*
X29226Y-31165D02*
X30208Y-31165D01*
X30991Y-31165D02*
X34445Y-31165D01*
X16805Y-31245D02*
X23500Y-31245D01*
X24300Y-31245D02*
X25241Y-31245D01*
X29260Y-31245D02*
X30244Y-31245D01*
X30956Y-31245D02*
X34445Y-31245D01*
X16805Y-31325D02*
X23532Y-31325D01*
X24266Y-31325D02*
X25208Y-31325D01*
X29293Y-31325D02*
X30324Y-31325D01*
X30876Y-31325D02*
X34445Y-31325D01*
X16805Y-31405D02*
X23604Y-31405D01*
X24196Y-31405D02*
X25201Y-31405D01*
X29299Y-31405D02*
X30467Y-31405D01*
X30732Y-31405D02*
X34445Y-31405D01*
X16805Y-31485D02*
X23719Y-31485D01*
X24081Y-31485D02*
X25201Y-31485D01*
X29299Y-31485D02*
X34445Y-31485D01*
X16805Y-31565D02*
X25203Y-31565D01*
X29296Y-31565D02*
X34445Y-31565D01*
X16805Y-31645D02*
X25236Y-31645D01*
X29263Y-31645D02*
X34445Y-31645D01*
X16805Y-31725D02*
X25270Y-31725D01*
X26229Y-31725D02*
X26269Y-31725D01*
X27229Y-31725D02*
X27270Y-31725D01*
X28229Y-31725D02*
X28270Y-31725D01*
X29229Y-31725D02*
X34445Y-31725D01*
X16805Y-31805D02*
X25329Y-31805D01*
X26171Y-31805D02*
X26329Y-31805D01*
X27171Y-31805D02*
X27329Y-31805D01*
X28171Y-31805D02*
X28329Y-31805D01*
X29171Y-31805D02*
X34445Y-31805D01*
X16805Y-31885D02*
X25409Y-31885D01*
X26091Y-31885D02*
X26409Y-31885D01*
X27091Y-31885D02*
X27409Y-31885D01*
X28091Y-31885D02*
X28409Y-31885D01*
X29091Y-31885D02*
X34445Y-31885D01*
X16805Y-31965D02*
X25559Y-31965D01*
X25940Y-31965D02*
X26559Y-31965D01*
X26940Y-31965D02*
X27559Y-31965D01*
X27940Y-31965D02*
X28559Y-31965D01*
X28940Y-31965D02*
X34445Y-31965D01*
X16805Y-32045D02*
X34445Y-32045D01*
X16805Y-32125D02*
X34445Y-32125D01*
X16805Y-32205D02*
X34445Y-32205D01*
X16805Y-32285D02*
X34445Y-32285D01*
X16805Y-32365D02*
X34445Y-32365D01*
X34445Y-32445D02*
X34445Y-21805D01*
X16805Y-21805D01*
X16805Y-32445D01*
X28641Y-32445D01*
X28641Y-31999D01*
X28439Y-31915D01*
X28285Y-31761D01*
X28250Y-31676D01*
X28215Y-31761D01*
X28061Y-31915D01*
X27859Y-31999D01*
X27641Y-31999D01*
X27439Y-31915D01*
X27285Y-31761D01*
X27250Y-31676D01*
X27215Y-31761D01*
X27061Y-31915D01*
X26859Y-31999D01*
X26641Y-31999D01*
X26439Y-31915D01*
X26285Y-31761D01*
X26249Y-31676D01*
X26215Y-31761D01*
X26061Y-31915D01*
X25859Y-31999D01*
X25641Y-31999D01*
X25439Y-31915D01*
X25285Y-31761D01*
X25201Y-31559D01*
X25201Y-31341D01*
X25280Y-31149D01*
X24344Y-31150D01*
X24325Y-31169D01*
X24325Y-31185D01*
X24260Y-31341D01*
X24140Y-31461D01*
X23984Y-31525D01*
X23815Y-31525D01*
X23659Y-31460D01*
X23539Y-31340D01*
X23475Y-31184D01*
X23475Y-31015D01*
X23540Y-30859D01*
X23660Y-30739D01*
X23816Y-30675D01*
X23830Y-30675D01*
X23952Y-30553D01*
X24066Y-30477D01*
X24200Y-30450D01*
X25650Y-30450D01*
X26160Y-30450D01*
X26150Y-30400D01*
X26150Y-27944D01*
X26003Y-27797D01*
X25927Y-27684D01*
X25900Y-27550D01*
X25900Y-27200D01*
X20302Y-27200D01*
X20244Y-27258D01*
X20244Y-27357D01*
X20169Y-27538D01*
X20030Y-27677D01*
X19853Y-27749D01*
X20030Y-27823D01*
X20169Y-27962D01*
X20244Y-28144D01*
X20244Y-28341D01*
X20169Y-28522D01*
X20030Y-28661D01*
X19848Y-28736D01*
X19651Y-28736D01*
X19470Y-28661D01*
X19354Y-28545D01*
X19240Y-28661D01*
X19058Y-28736D01*
X18861Y-28736D01*
X18680Y-28661D01*
X18541Y-28522D01*
X18466Y-28340D01*
X18466Y-28143D01*
X18541Y-27962D01*
X18680Y-27823D01*
X18862Y-27748D01*
X19059Y-27748D01*
X19240Y-27823D01*
X19354Y-27937D01*
X19470Y-27823D01*
X19646Y-27750D01*
X19470Y-27677D01*
X19331Y-27538D01*
X19256Y-27356D01*
X19256Y-27159D01*
X19331Y-26978D01*
X19400Y-26909D01*
X19400Y-25001D01*
X19289Y-24890D01*
X19225Y-24734D01*
X19225Y-24565D01*
X19290Y-24409D01*
X19410Y-24289D01*
X19566Y-24225D01*
X19735Y-24225D01*
X19891Y-24290D01*
X20011Y-24410D01*
X20075Y-24566D01*
X20075Y-24625D01*
X20100Y-24750D01*
X20100Y-26511D01*
X20158Y-26500D01*
X23891Y-26500D01*
X23891Y-26049D01*
X23689Y-25965D01*
X23535Y-25811D01*
X23451Y-25609D01*
X23451Y-25391D01*
X23535Y-25189D01*
X23689Y-25035D01*
X23891Y-24951D01*
X24109Y-24951D01*
X24311Y-25035D01*
X24465Y-25189D01*
X24549Y-25391D01*
X24549Y-25609D01*
X24465Y-25811D01*
X24311Y-25965D01*
X24109Y-26049D01*
X23891Y-26049D01*
X23891Y-26500D01*
X25891Y-26500D01*
X25891Y-26049D01*
X25689Y-25965D01*
X25535Y-25811D01*
X25451Y-25609D01*
X25451Y-25391D01*
X25535Y-25189D01*
X25689Y-25035D01*
X25891Y-24951D01*
X26109Y-24951D01*
X26311Y-25035D01*
X26465Y-25189D01*
X26549Y-25391D01*
X26549Y-25609D01*
X26465Y-25811D01*
X26311Y-25965D01*
X26109Y-26049D01*
X25891Y-26049D01*
X25891Y-26500D01*
X26250Y-26500D01*
X28200Y-26500D01*
X28334Y-26527D01*
X28447Y-26603D01*
X28894Y-27050D01*
X29300Y-27050D01*
X29799Y-27050D01*
X29800Y-27050D01*
X29934Y-27077D01*
X30047Y-27153D01*
X30123Y-27265D01*
X30150Y-27399D01*
X30151Y-28181D01*
X30214Y-28118D01*
X30216Y-28116D01*
X30301Y-28060D01*
X30348Y-28050D01*
X30460Y-27939D01*
X30616Y-27875D01*
X30785Y-27875D01*
X30941Y-27940D01*
X31061Y-28060D01*
X31125Y-28216D01*
X31125Y-28385D01*
X31060Y-28541D01*
X30940Y-28661D01*
X30784Y-28725D01*
X30615Y-28725D01*
X30460Y-28660D01*
X30460Y-30592D01*
X30463Y-30596D01*
X30516Y-30575D01*
X30685Y-30575D01*
X30841Y-30640D01*
X30961Y-30760D01*
X31025Y-30916D01*
X31025Y-31085D01*
X30960Y-31241D01*
X30840Y-31361D01*
X30684Y-31425D01*
X30515Y-31425D01*
X30359Y-31360D01*
X30239Y-31240D01*
X30175Y-31084D01*
X30175Y-31042D01*
X30016Y-30884D01*
X29960Y-30800D01*
X29940Y-30700D01*
X29940Y-30652D01*
X29884Y-30675D01*
X29715Y-30675D01*
X29559Y-30610D01*
X29439Y-30490D01*
X29375Y-30334D01*
X29375Y-30165D01*
X29440Y-30009D01*
X29454Y-29994D01*
X29450Y-27750D01*
X29300Y-27750D01*
X28750Y-27750D01*
X28616Y-27723D01*
X28502Y-27647D01*
X28055Y-27200D01*
X27177Y-27200D01*
X27225Y-27316D01*
X27225Y-27485D01*
X27160Y-27641D01*
X27060Y-27741D01*
X27060Y-30092D01*
X27207Y-30240D01*
X27800Y-30240D01*
X27900Y-30260D01*
X27984Y-30316D01*
X28589Y-30922D01*
X28641Y-30901D01*
X28859Y-30901D01*
X29061Y-30985D01*
X29215Y-31139D01*
X29299Y-31341D01*
X29299Y-31559D01*
X29215Y-31761D01*
X29061Y-31915D01*
X28859Y-31999D01*
X28641Y-31999D01*
X28641Y-32445D01*
X31741Y-32445D01*
X31741Y-29099D01*
X31539Y-29015D01*
X31385Y-28861D01*
X31301Y-28659D01*
X31301Y-28441D01*
X31385Y-28239D01*
X31539Y-28085D01*
X31623Y-28050D01*
X31539Y-28015D01*
X31385Y-27861D01*
X31301Y-27659D01*
X31301Y-27441D01*
X31385Y-27239D01*
X31539Y-27085D01*
X31623Y-27050D01*
X31539Y-27015D01*
X31385Y-26861D01*
X31301Y-26659D01*
X31301Y-26441D01*
X31385Y-26239D01*
X31539Y-26085D01*
X31623Y-26050D01*
X31539Y-26015D01*
X31385Y-25861D01*
X31301Y-25659D01*
X31301Y-25441D01*
X31385Y-25239D01*
X31539Y-25085D01*
X31741Y-25001D01*
X31959Y-25001D01*
X32161Y-25085D01*
X32315Y-25239D01*
X32399Y-25441D01*
X32399Y-25659D01*
X32315Y-25861D01*
X32161Y-26015D01*
X32076Y-26049D01*
X32161Y-26085D01*
X32315Y-26239D01*
X32399Y-26441D01*
X32399Y-26659D01*
X32315Y-26861D01*
X32161Y-27015D01*
X32076Y-27050D01*
X32161Y-27085D01*
X32315Y-27239D01*
X32399Y-27441D01*
X32399Y-27659D01*
X32315Y-27861D01*
X32161Y-28015D01*
X32076Y-28050D01*
X32161Y-28085D01*
X32315Y-28239D01*
X32399Y-28441D01*
X32399Y-28659D01*
X32315Y-28861D01*
X32161Y-29015D01*
X31959Y-29099D01*
X31741Y-29099D01*
X31741Y-32445D01*
X34445Y-32445D01*
M02*
