G04 (created by PCBNEW-RS274X (2010-05-05 BZR 2356)-stable) date Fri 25 Feb 2011 10:54:22 AM CET*
G01*
G70*
G90*
%MOIN*%
G04 Gerber Fmt 3.4, Leading zero omitted, Abs format*
%FSLAX34Y34*%
G04 APERTURE LIST*
%ADD10C,0.006000*%
%ADD11C,0.012000*%
%ADD12C,0.015000*%
%ADD13C,0.005000*%
%ADD14C,0.008000*%
%ADD15C,0.011300*%
%ADD16C,0.007500*%
%ADD17C,0.010700*%
%ADD18C,0.011800*%
G04 APERTURE END LIST*
G54D10*
G54D11*
X15250Y-36540D02*
X15250Y-37074D01*
X14993Y-36540D02*
X14993Y-36960D01*
X15021Y-37036D01*
X15079Y-37074D01*
X15164Y-37074D01*
X15221Y-37036D01*
X15250Y-36998D01*
X15507Y-37036D02*
X15564Y-37074D01*
X15679Y-37074D01*
X15736Y-37036D01*
X15764Y-36960D01*
X15764Y-36921D01*
X15736Y-36845D01*
X15679Y-36807D01*
X15593Y-36807D01*
X15536Y-36769D01*
X15507Y-36693D01*
X15507Y-36655D01*
X15536Y-36579D01*
X15593Y-36540D01*
X15679Y-36540D01*
X15736Y-36579D01*
X16022Y-37074D02*
X16022Y-36274D01*
X16022Y-36579D02*
X16079Y-36540D01*
X16193Y-36540D01*
X16250Y-36579D01*
X16279Y-36617D01*
X16308Y-36693D01*
X16308Y-36921D01*
X16279Y-36998D01*
X16250Y-37036D01*
X16193Y-37074D01*
X16079Y-37074D01*
X16022Y-37036D01*
X16565Y-36540D02*
X16565Y-37340D01*
X16565Y-36579D02*
X16622Y-36540D01*
X16736Y-36540D01*
X16793Y-36579D01*
X16822Y-36617D01*
X16851Y-36693D01*
X16851Y-36921D01*
X16822Y-36998D01*
X16793Y-37036D01*
X16736Y-37074D01*
X16622Y-37074D01*
X16565Y-37036D01*
X17108Y-37074D02*
X17108Y-36540D01*
X17108Y-36274D02*
X17079Y-36312D01*
X17108Y-36350D01*
X17136Y-36312D01*
X17108Y-36274D01*
X17108Y-36350D01*
X17651Y-37036D02*
X17594Y-37074D01*
X17480Y-37074D01*
X17422Y-37036D01*
X17394Y-36998D01*
X17365Y-36921D01*
X17365Y-36693D01*
X17394Y-36617D01*
X17422Y-36579D01*
X17480Y-36540D01*
X17594Y-36540D01*
X17651Y-36579D01*
X17908Y-36540D02*
X17908Y-37340D01*
X17908Y-36579D02*
X17965Y-36540D01*
X18079Y-36540D01*
X18136Y-36579D01*
X18165Y-36617D01*
X18194Y-36693D01*
X18194Y-36921D01*
X18165Y-36998D01*
X18136Y-37036D01*
X18079Y-37074D01*
X17965Y-37074D01*
X17908Y-37036D01*
X18451Y-37074D02*
X18451Y-36540D01*
X18451Y-36693D02*
X18479Y-36617D01*
X18508Y-36579D01*
X18565Y-36540D01*
X18622Y-36540D01*
X18908Y-37074D02*
X18850Y-37036D01*
X18822Y-36998D01*
X18793Y-36921D01*
X18793Y-36693D01*
X18822Y-36617D01*
X18850Y-36579D01*
X18908Y-36540D01*
X18993Y-36540D01*
X19050Y-36579D01*
X19079Y-36617D01*
X19108Y-36693D01*
X19108Y-36921D01*
X19079Y-36998D01*
X19050Y-37036D01*
X18993Y-37074D01*
X18908Y-37074D01*
X19622Y-36540D02*
X19622Y-37188D01*
X19593Y-37264D01*
X19565Y-37302D01*
X19508Y-37340D01*
X19422Y-37340D01*
X19365Y-37302D01*
X19622Y-37036D02*
X19565Y-37074D01*
X19451Y-37074D01*
X19393Y-37036D01*
X19365Y-36998D01*
X19336Y-36921D01*
X19336Y-36693D01*
X19365Y-36617D01*
X19393Y-36579D01*
X19451Y-36540D01*
X19565Y-36540D01*
X19622Y-36579D01*
X20479Y-36274D02*
X20536Y-36274D01*
X20593Y-36312D01*
X20622Y-36350D01*
X20651Y-36426D01*
X20679Y-36579D01*
X20679Y-36769D01*
X20651Y-36921D01*
X20622Y-36998D01*
X20593Y-37036D01*
X20536Y-37074D01*
X20479Y-37074D01*
X20422Y-37036D01*
X20393Y-36998D01*
X20365Y-36921D01*
X20336Y-36769D01*
X20336Y-36579D01*
X20365Y-36426D01*
X20393Y-36350D01*
X20422Y-36312D01*
X20479Y-36274D01*
X20936Y-36998D02*
X20964Y-37036D01*
X20936Y-37074D01*
X20907Y-37036D01*
X20936Y-36998D01*
X20936Y-37074D01*
X21165Y-36274D02*
X21536Y-36274D01*
X21336Y-36579D01*
X21422Y-36579D01*
X21479Y-36617D01*
X21508Y-36655D01*
X21536Y-36731D01*
X21536Y-36921D01*
X21508Y-36998D01*
X21479Y-37036D01*
X21422Y-37074D01*
X21250Y-37074D01*
X21193Y-37036D01*
X21165Y-36998D01*
X48694Y-26676D02*
X48160Y-26676D01*
X48998Y-26533D02*
X48427Y-26390D01*
X48427Y-26762D01*
X48960Y-27276D02*
X48960Y-26990D01*
X48579Y-26961D01*
X48617Y-26990D01*
X48655Y-27047D01*
X48655Y-27190D01*
X48617Y-27247D01*
X48579Y-27276D01*
X48503Y-27304D01*
X48313Y-27304D01*
X48236Y-27276D01*
X48198Y-27247D01*
X48160Y-27190D01*
X48160Y-27047D01*
X48198Y-26990D01*
X48236Y-26961D01*
X48236Y-27561D02*
X48198Y-27589D01*
X48160Y-27561D01*
X48198Y-27532D01*
X48236Y-27561D01*
X48160Y-27561D01*
X48960Y-27961D02*
X48960Y-28018D01*
X48922Y-28075D01*
X48884Y-28104D01*
X48808Y-28133D01*
X48655Y-28161D01*
X48465Y-28161D01*
X48313Y-28133D01*
X48236Y-28104D01*
X48198Y-28075D01*
X48160Y-28018D01*
X48160Y-27961D01*
X48198Y-27904D01*
X48236Y-27875D01*
X48313Y-27847D01*
X48465Y-27818D01*
X48655Y-27818D01*
X48808Y-27847D01*
X48884Y-27875D01*
X48922Y-27904D01*
X48960Y-27961D01*
X48617Y-28504D02*
X48655Y-28446D01*
X48694Y-28418D01*
X48770Y-28389D01*
X48808Y-28389D01*
X48884Y-28418D01*
X48922Y-28446D01*
X48960Y-28504D01*
X48960Y-28618D01*
X48922Y-28675D01*
X48884Y-28704D01*
X48808Y-28732D01*
X48770Y-28732D01*
X48694Y-28704D01*
X48655Y-28675D01*
X48617Y-28618D01*
X48617Y-28504D01*
X48579Y-28446D01*
X48541Y-28418D01*
X48465Y-28389D01*
X48313Y-28389D01*
X48236Y-28418D01*
X48198Y-28446D01*
X48160Y-28504D01*
X48160Y-28618D01*
X48198Y-28675D01*
X48236Y-28704D01*
X48313Y-28732D01*
X48465Y-28732D01*
X48541Y-28704D01*
X48579Y-28675D01*
X48617Y-28618D01*
X48960Y-29275D02*
X48960Y-28989D01*
X48579Y-28960D01*
X48617Y-28989D01*
X48655Y-29046D01*
X48655Y-29189D01*
X48617Y-29246D01*
X48579Y-29275D01*
X48503Y-29303D01*
X48313Y-29303D01*
X48236Y-29275D01*
X48198Y-29246D01*
X48160Y-29189D01*
X48160Y-29046D01*
X48198Y-28989D01*
X48236Y-28960D01*
X48160Y-30017D02*
X48694Y-30017D01*
X48617Y-30017D02*
X48655Y-30045D01*
X48694Y-30103D01*
X48694Y-30188D01*
X48655Y-30245D01*
X48579Y-30274D01*
X48160Y-30274D01*
X48579Y-30274D02*
X48655Y-30303D01*
X48694Y-30360D01*
X48694Y-30445D01*
X48655Y-30503D01*
X48579Y-30531D01*
X48160Y-30531D01*
X48160Y-30817D02*
X48694Y-30817D01*
X48617Y-30817D02*
X48655Y-30845D01*
X48694Y-30903D01*
X48694Y-30988D01*
X48655Y-31045D01*
X48579Y-31074D01*
X48160Y-31074D01*
X48579Y-31074D02*
X48655Y-31103D01*
X48694Y-31160D01*
X48694Y-31245D01*
X48655Y-31303D01*
X48579Y-31331D01*
X48160Y-31331D01*
G54D12*
X47799Y-20000D02*
X47799Y-37750D01*
X46200Y-20000D02*
X49169Y-20000D01*
X46200Y-37750D02*
X49169Y-37750D01*
X47799Y-37750D02*
X47569Y-37307D01*
X47799Y-37750D02*
X48029Y-37307D01*
X47799Y-20000D02*
X47569Y-20443D01*
X47799Y-20000D02*
X48029Y-20443D01*
G54D11*
X26730Y-17733D02*
X26672Y-17695D01*
X26644Y-17656D01*
X26615Y-17580D01*
X26615Y-17542D01*
X26644Y-17466D01*
X26672Y-17428D01*
X26730Y-17390D01*
X26844Y-17390D01*
X26901Y-17428D01*
X26930Y-17466D01*
X26958Y-17542D01*
X26958Y-17580D01*
X26930Y-17656D01*
X26901Y-17695D01*
X26844Y-17733D01*
X26730Y-17733D01*
X26672Y-17771D01*
X26644Y-17809D01*
X26615Y-17885D01*
X26615Y-18037D01*
X26644Y-18114D01*
X26672Y-18152D01*
X26730Y-18190D01*
X26844Y-18190D01*
X26901Y-18152D01*
X26930Y-18114D01*
X26958Y-18037D01*
X26958Y-17885D01*
X26930Y-17809D01*
X26901Y-17771D01*
X26844Y-17733D01*
X27472Y-17390D02*
X27358Y-17390D01*
X27301Y-17428D01*
X27272Y-17466D01*
X27215Y-17580D01*
X27186Y-17733D01*
X27186Y-18037D01*
X27215Y-18114D01*
X27243Y-18152D01*
X27301Y-18190D01*
X27415Y-18190D01*
X27472Y-18152D01*
X27501Y-18114D01*
X27529Y-18037D01*
X27529Y-17847D01*
X27501Y-17771D01*
X27472Y-17733D01*
X27415Y-17695D01*
X27301Y-17695D01*
X27243Y-17733D01*
X27215Y-17771D01*
X27186Y-17847D01*
X27786Y-18114D02*
X27814Y-18152D01*
X27786Y-18190D01*
X27757Y-18152D01*
X27786Y-18114D01*
X27786Y-18190D01*
X28158Y-17733D02*
X28100Y-17695D01*
X28072Y-17656D01*
X28043Y-17580D01*
X28043Y-17542D01*
X28072Y-17466D01*
X28100Y-17428D01*
X28158Y-17390D01*
X28272Y-17390D01*
X28329Y-17428D01*
X28358Y-17466D01*
X28386Y-17542D01*
X28386Y-17580D01*
X28358Y-17656D01*
X28329Y-17695D01*
X28272Y-17733D01*
X28158Y-17733D01*
X28100Y-17771D01*
X28072Y-17809D01*
X28043Y-17885D01*
X28043Y-18037D01*
X28072Y-18114D01*
X28100Y-18152D01*
X28158Y-18190D01*
X28272Y-18190D01*
X28329Y-18152D01*
X28358Y-18114D01*
X28386Y-18037D01*
X28386Y-17885D01*
X28358Y-17809D01*
X28329Y-17771D01*
X28272Y-17733D01*
X28900Y-17390D02*
X28786Y-17390D01*
X28729Y-17428D01*
X28700Y-17466D01*
X28643Y-17580D01*
X28614Y-17733D01*
X28614Y-18037D01*
X28643Y-18114D01*
X28671Y-18152D01*
X28729Y-18190D01*
X28843Y-18190D01*
X28900Y-18152D01*
X28929Y-18114D01*
X28957Y-18037D01*
X28957Y-17847D01*
X28929Y-17771D01*
X28900Y-17733D01*
X28843Y-17695D01*
X28729Y-17695D01*
X28671Y-17733D01*
X28643Y-17771D01*
X28614Y-17847D01*
X29300Y-17733D02*
X29242Y-17695D01*
X29214Y-17656D01*
X29185Y-17580D01*
X29185Y-17542D01*
X29214Y-17466D01*
X29242Y-17428D01*
X29300Y-17390D01*
X29414Y-17390D01*
X29471Y-17428D01*
X29500Y-17466D01*
X29528Y-17542D01*
X29528Y-17580D01*
X29500Y-17656D01*
X29471Y-17695D01*
X29414Y-17733D01*
X29300Y-17733D01*
X29242Y-17771D01*
X29214Y-17809D01*
X29185Y-17885D01*
X29185Y-18037D01*
X29214Y-18114D01*
X29242Y-18152D01*
X29300Y-18190D01*
X29414Y-18190D01*
X29471Y-18152D01*
X29500Y-18114D01*
X29528Y-18037D01*
X29528Y-17885D01*
X29500Y-17809D01*
X29471Y-17771D01*
X29414Y-17733D01*
X30242Y-18190D02*
X30242Y-17656D01*
X30242Y-17733D02*
X30270Y-17695D01*
X30328Y-17656D01*
X30413Y-17656D01*
X30470Y-17695D01*
X30499Y-17771D01*
X30499Y-18190D01*
X30499Y-17771D02*
X30528Y-17695D01*
X30585Y-17656D01*
X30670Y-17656D01*
X30728Y-17695D01*
X30756Y-17771D01*
X30756Y-18190D01*
X31042Y-18190D02*
X31042Y-17656D01*
X31042Y-17733D02*
X31070Y-17695D01*
X31128Y-17656D01*
X31213Y-17656D01*
X31270Y-17695D01*
X31299Y-17771D01*
X31299Y-18190D01*
X31299Y-17771D02*
X31328Y-17695D01*
X31385Y-17656D01*
X31470Y-17656D01*
X31528Y-17695D01*
X31556Y-17771D01*
X31556Y-18190D01*
G54D12*
X12000Y-18551D02*
X46200Y-18551D01*
X12000Y-20000D02*
X12000Y-17181D01*
X46200Y-20000D02*
X46200Y-17181D01*
X46200Y-18551D02*
X45757Y-18781D01*
X46200Y-18551D02*
X45757Y-18321D01*
X12000Y-18551D02*
X12443Y-18781D01*
X12000Y-18551D02*
X12443Y-18321D01*
X45000Y-37750D02*
X46200Y-37750D01*
X46200Y-20000D02*
X46200Y-20050D01*
X45000Y-20000D02*
X46200Y-20000D01*
G54D11*
X44050Y-22274D02*
X44250Y-23074D01*
X44450Y-22274D01*
X44650Y-23074D02*
X44650Y-22274D01*
X44878Y-22274D01*
X44936Y-22312D01*
X44964Y-22350D01*
X44993Y-22426D01*
X44993Y-22540D01*
X44964Y-22617D01*
X44936Y-22655D01*
X44878Y-22693D01*
X44650Y-22693D01*
X45250Y-23074D02*
X45250Y-22274D01*
X45478Y-22274D01*
X45536Y-22312D01*
X45564Y-22350D01*
X45593Y-22426D01*
X45593Y-22540D01*
X45564Y-22617D01*
X45536Y-22655D01*
X45478Y-22693D01*
X45250Y-22693D01*
X44050Y-23274D02*
X44250Y-24074D01*
X44450Y-23274D01*
X44650Y-24074D02*
X44650Y-23274D01*
X44793Y-23274D01*
X44878Y-23312D01*
X44936Y-23388D01*
X44964Y-23464D01*
X44993Y-23617D01*
X44993Y-23731D01*
X44964Y-23883D01*
X44936Y-23960D01*
X44878Y-24036D01*
X44793Y-24074D01*
X44650Y-24074D01*
X45250Y-24074D02*
X45250Y-23274D01*
X45393Y-23274D01*
X45478Y-23312D01*
X45536Y-23388D01*
X45564Y-23464D01*
X45593Y-23617D01*
X45593Y-23731D01*
X45564Y-23883D01*
X45536Y-23960D01*
X45478Y-24036D01*
X45393Y-24074D01*
X45250Y-24074D01*
X44093Y-25074D02*
X44093Y-24274D01*
X44321Y-24274D01*
X44379Y-24312D01*
X44407Y-24350D01*
X44436Y-24426D01*
X44436Y-24540D01*
X44407Y-24617D01*
X44379Y-24655D01*
X44321Y-24693D01*
X44093Y-24693D01*
X45007Y-24312D02*
X44950Y-24274D01*
X44864Y-24274D01*
X44779Y-24312D01*
X44721Y-24388D01*
X44693Y-24464D01*
X44664Y-24617D01*
X44664Y-24731D01*
X44693Y-24883D01*
X44721Y-24960D01*
X44779Y-25036D01*
X44864Y-25074D01*
X44921Y-25074D01*
X45007Y-25036D01*
X45036Y-24998D01*
X45036Y-24731D01*
X44921Y-24731D01*
X45293Y-25074D02*
X45293Y-24274D01*
X45436Y-24274D01*
X45521Y-24312D01*
X45579Y-24388D01*
X45607Y-24464D01*
X45636Y-24617D01*
X45636Y-24731D01*
X45607Y-24883D01*
X45579Y-24960D01*
X45521Y-25036D01*
X45436Y-25074D01*
X45293Y-25074D01*
X44093Y-26074D02*
X44093Y-25274D01*
X44321Y-25274D01*
X44379Y-25312D01*
X44407Y-25350D01*
X44436Y-25426D01*
X44436Y-25540D01*
X44407Y-25617D01*
X44379Y-25655D01*
X44321Y-25693D01*
X44093Y-25693D01*
X45007Y-25312D02*
X44950Y-25274D01*
X44864Y-25274D01*
X44779Y-25312D01*
X44721Y-25388D01*
X44693Y-25464D01*
X44664Y-25617D01*
X44664Y-25731D01*
X44693Y-25883D01*
X44721Y-25960D01*
X44779Y-26036D01*
X44864Y-26074D01*
X44921Y-26074D01*
X45007Y-26036D01*
X45036Y-25998D01*
X45036Y-25731D01*
X44921Y-25731D01*
X45636Y-25998D02*
X45607Y-26036D01*
X45521Y-26074D01*
X45464Y-26074D01*
X45379Y-26036D01*
X45321Y-25960D01*
X45293Y-25883D01*
X45264Y-25731D01*
X45264Y-25617D01*
X45293Y-25464D01*
X45321Y-25388D01*
X45379Y-25312D01*
X45464Y-25274D01*
X45521Y-25274D01*
X45607Y-25312D01*
X45636Y-25350D01*
X44393Y-26312D02*
X44336Y-26274D01*
X44250Y-26274D01*
X44165Y-26312D01*
X44107Y-26388D01*
X44079Y-26464D01*
X44050Y-26617D01*
X44050Y-26731D01*
X44079Y-26883D01*
X44107Y-26960D01*
X44165Y-27036D01*
X44250Y-27074D01*
X44307Y-27074D01*
X44393Y-27036D01*
X44422Y-26998D01*
X44422Y-26731D01*
X44307Y-26731D01*
X44679Y-27074D02*
X44679Y-26274D01*
X45022Y-27074D01*
X45022Y-26274D01*
X45308Y-27074D02*
X45308Y-26274D01*
X45451Y-26274D01*
X45536Y-26312D01*
X45594Y-26388D01*
X45622Y-26464D01*
X45651Y-26617D01*
X45651Y-26731D01*
X45622Y-26883D01*
X45594Y-26960D01*
X45536Y-27036D01*
X45451Y-27074D01*
X45308Y-27074D01*
G54D12*
X44250Y-37750D02*
X45000Y-37750D01*
X44250Y-20000D02*
X45000Y-20000D01*
X46200Y-37750D02*
X46200Y-20000D01*
X12000Y-37750D02*
X44250Y-37750D01*
X12000Y-20000D02*
X12000Y-37750D01*
X44250Y-20000D02*
X12000Y-20000D01*
X37550Y-31950D02*
X38050Y-32200D01*
X38050Y-32200D02*
X38050Y-34700D01*
X38050Y-34700D02*
X37550Y-34950D01*
X36050Y-33450D02*
X36056Y-33580D01*
X36073Y-33710D01*
X36102Y-33838D01*
X36141Y-33963D01*
X36191Y-34083D01*
X36251Y-34199D01*
X36322Y-34310D01*
X36401Y-34414D01*
X36490Y-34510D01*
X36586Y-34599D01*
X36690Y-34678D01*
X36801Y-34749D01*
X36917Y-34809D01*
X37037Y-34859D01*
X37162Y-34898D01*
X37290Y-34927D01*
X37420Y-34944D01*
X37550Y-34950D01*
X37550Y-31950D02*
X37420Y-31956D01*
X37290Y-31973D01*
X37162Y-32002D01*
X37037Y-32041D01*
X36917Y-32091D01*
X36801Y-32151D01*
X36690Y-32222D01*
X36586Y-32301D01*
X36490Y-32390D01*
X36401Y-32486D01*
X36322Y-32590D01*
X36251Y-32701D01*
X36191Y-32817D01*
X36141Y-32937D01*
X36102Y-33062D01*
X36073Y-33190D01*
X36056Y-33320D01*
X36050Y-33450D01*
X35900Y-35850D02*
X36150Y-35350D01*
X36150Y-35350D02*
X38650Y-35350D01*
X38650Y-35350D02*
X38900Y-35850D01*
X37400Y-37350D02*
X37530Y-37344D01*
X37660Y-37327D01*
X37788Y-37298D01*
X37913Y-37259D01*
X38033Y-37209D01*
X38150Y-37149D01*
X38260Y-37078D01*
X38364Y-36999D01*
X38460Y-36910D01*
X38549Y-36814D01*
X38628Y-36710D01*
X38699Y-36599D01*
X38759Y-36483D01*
X38809Y-36363D01*
X38848Y-36238D01*
X38877Y-36110D01*
X38894Y-35980D01*
X38900Y-35850D01*
X35900Y-35850D02*
X35906Y-35980D01*
X35923Y-36110D01*
X35952Y-36238D01*
X35991Y-36363D01*
X36041Y-36483D01*
X36101Y-36599D01*
X36172Y-36710D01*
X36251Y-36814D01*
X36340Y-36910D01*
X36436Y-36999D01*
X36540Y-37078D01*
X36651Y-37149D01*
X36767Y-37209D01*
X36887Y-37259D01*
X37012Y-37298D01*
X37140Y-37327D01*
X37270Y-37344D01*
X37400Y-37350D01*
X42500Y-27600D02*
X43000Y-27850D01*
X43000Y-27850D02*
X43000Y-30350D01*
X43000Y-30350D02*
X42500Y-30600D01*
X41000Y-29100D02*
X41006Y-29230D01*
X41023Y-29360D01*
X41052Y-29488D01*
X41091Y-29613D01*
X41141Y-29733D01*
X41201Y-29849D01*
X41272Y-29960D01*
X41351Y-30064D01*
X41440Y-30160D01*
X41536Y-30249D01*
X41640Y-30328D01*
X41751Y-30399D01*
X41867Y-30459D01*
X41987Y-30509D01*
X42112Y-30548D01*
X42240Y-30577D01*
X42370Y-30594D01*
X42500Y-30600D01*
X42500Y-27600D02*
X42370Y-27606D01*
X42240Y-27623D01*
X42112Y-27652D01*
X41987Y-27691D01*
X41867Y-27741D01*
X41751Y-27801D01*
X41640Y-27872D01*
X41536Y-27951D01*
X41440Y-28040D01*
X41351Y-28136D01*
X41272Y-28240D01*
X41201Y-28351D01*
X41141Y-28467D01*
X41091Y-28587D01*
X41052Y-28712D01*
X41023Y-28840D01*
X41006Y-28970D01*
X41000Y-29100D01*
X33250Y-30000D02*
X18250Y-30000D01*
X18250Y-30000D02*
X18250Y-28000D01*
X18250Y-28000D02*
X33250Y-28000D01*
X33250Y-28000D02*
X33250Y-30000D01*
X33250Y-29500D02*
X32750Y-29500D01*
X32750Y-29500D02*
X32750Y-28500D01*
X32750Y-28500D02*
X33250Y-28500D01*
G54D13*
X38551Y-24100D02*
X38531Y-24294D01*
X38475Y-24481D01*
X38383Y-24653D01*
X38260Y-24805D01*
X38109Y-24929D01*
X37937Y-25022D01*
X37751Y-25080D01*
X37556Y-25100D01*
X37363Y-25083D01*
X37176Y-25028D01*
X37002Y-24937D01*
X36850Y-24815D01*
X36725Y-24665D01*
X36630Y-24494D01*
X36571Y-24308D01*
X36550Y-24113D01*
X36566Y-23920D01*
X36620Y-23732D01*
X36709Y-23558D01*
X36830Y-23405D01*
X36979Y-23279D01*
X37150Y-23183D01*
X37336Y-23123D01*
X37530Y-23100D01*
X37723Y-23115D01*
X37911Y-23167D01*
X38086Y-23255D01*
X38240Y-23376D01*
X38367Y-23523D01*
X38464Y-23693D01*
X38526Y-23879D01*
X38550Y-24073D01*
X38551Y-24100D01*
X32251Y-25500D02*
X32231Y-25694D01*
X32175Y-25881D01*
X32083Y-26053D01*
X31960Y-26205D01*
X31809Y-26329D01*
X31637Y-26422D01*
X31451Y-26480D01*
X31256Y-26500D01*
X31063Y-26483D01*
X30876Y-26428D01*
X30702Y-26337D01*
X30550Y-26215D01*
X30425Y-26065D01*
X30330Y-25894D01*
X30271Y-25708D01*
X30250Y-25513D01*
X30266Y-25320D01*
X30320Y-25132D01*
X30409Y-24958D01*
X30530Y-24805D01*
X30679Y-24679D01*
X30850Y-24583D01*
X31036Y-24523D01*
X31230Y-24500D01*
X31423Y-24515D01*
X31611Y-24567D01*
X31786Y-24655D01*
X31940Y-24776D01*
X32067Y-24923D01*
X32164Y-25093D01*
X32226Y-25279D01*
X32250Y-25473D01*
X32251Y-25500D01*
X30251Y-25500D02*
X30231Y-25694D01*
X30175Y-25881D01*
X30083Y-26053D01*
X29960Y-26205D01*
X29809Y-26329D01*
X29637Y-26422D01*
X29451Y-26480D01*
X29256Y-26500D01*
X29063Y-26483D01*
X28876Y-26428D01*
X28702Y-26337D01*
X28550Y-26215D01*
X28425Y-26065D01*
X28330Y-25894D01*
X28271Y-25708D01*
X28250Y-25513D01*
X28266Y-25320D01*
X28320Y-25132D01*
X28409Y-24958D01*
X28530Y-24805D01*
X28679Y-24679D01*
X28850Y-24583D01*
X29036Y-24523D01*
X29230Y-24500D01*
X29423Y-24515D01*
X29611Y-24567D01*
X29786Y-24655D01*
X29940Y-24776D01*
X30067Y-24923D01*
X30164Y-25093D01*
X30226Y-25279D01*
X30250Y-25473D01*
X30251Y-25500D01*
G54D10*
X22750Y-25000D02*
X23250Y-24500D01*
X27750Y-24500D02*
X28250Y-25000D01*
X28250Y-26000D02*
X27750Y-26500D01*
X22750Y-26000D02*
X23250Y-26500D01*
X23250Y-24500D02*
X27750Y-24500D01*
X22750Y-25000D02*
X22750Y-26000D01*
X23250Y-26500D02*
X27750Y-26500D01*
X28250Y-26000D02*
X28250Y-25000D01*
G54D11*
X30200Y-32500D02*
X30200Y-31500D01*
X30200Y-31500D02*
X35200Y-31500D01*
X35200Y-31500D02*
X35200Y-32500D01*
X35200Y-32500D02*
X30200Y-32500D01*
X31200Y-32500D02*
X31200Y-31500D01*
X43600Y-27250D02*
X42600Y-27250D01*
X42600Y-27250D02*
X42600Y-22250D01*
X42600Y-22250D02*
X43600Y-22250D01*
X43600Y-22250D02*
X43600Y-27250D01*
X43600Y-26250D02*
X42600Y-26250D01*
G54D12*
X31985Y-23213D02*
X36315Y-23213D01*
X36315Y-23213D02*
X36315Y-24787D01*
X36315Y-24787D02*
X31985Y-24787D01*
X31985Y-24787D02*
X31985Y-23213D01*
X34915Y-34187D02*
X30585Y-34187D01*
X30585Y-34187D02*
X30585Y-32613D01*
X30585Y-32613D02*
X34915Y-32613D01*
X34915Y-32613D02*
X34915Y-34187D01*
X18915Y-34787D02*
X14585Y-34787D01*
X14585Y-34787D02*
X14585Y-33213D01*
X14585Y-33213D02*
X18915Y-33213D01*
X18915Y-33213D02*
X18915Y-34787D01*
X22173Y-33037D02*
X17843Y-33037D01*
X17843Y-33037D02*
X17843Y-31463D01*
X17843Y-31463D02*
X22173Y-31463D01*
X22173Y-31463D02*
X22173Y-33037D01*
X43465Y-22037D02*
X39135Y-22037D01*
X39135Y-22037D02*
X39135Y-20463D01*
X39135Y-20463D02*
X43465Y-20463D01*
X43465Y-20463D02*
X43465Y-22037D01*
X16335Y-25213D02*
X20665Y-25213D01*
X20665Y-25213D02*
X20665Y-26787D01*
X20665Y-26787D02*
X16335Y-26787D01*
X16335Y-26787D02*
X16335Y-25213D01*
X29025Y-20900D02*
X29025Y-21700D01*
X26472Y-20591D02*
X26472Y-20709D01*
X26472Y-20591D02*
X26472Y-20473D01*
X26433Y-20591D02*
X26354Y-20591D01*
X26433Y-20591D02*
X26590Y-20591D01*
G54D11*
X25850Y-21300D02*
X26250Y-21300D01*
X26250Y-21300D02*
X26250Y-20900D01*
X26250Y-20900D02*
X29450Y-20900D01*
X29450Y-20900D02*
X29450Y-21700D01*
X29450Y-21700D02*
X26250Y-21700D01*
X26250Y-21700D02*
X26250Y-21300D01*
X29850Y-21300D02*
X29450Y-21300D01*
G54D12*
X32025Y-22100D02*
X32025Y-22900D01*
X29472Y-21791D02*
X29472Y-21909D01*
X29472Y-21791D02*
X29472Y-21673D01*
X29433Y-21791D02*
X29354Y-21791D01*
X29433Y-21791D02*
X29590Y-21791D01*
G54D11*
X28850Y-22500D02*
X29250Y-22500D01*
X29250Y-22500D02*
X29250Y-22100D01*
X29250Y-22100D02*
X32450Y-22100D01*
X32450Y-22100D02*
X32450Y-22900D01*
X32450Y-22900D02*
X29250Y-22900D01*
X29250Y-22900D02*
X29250Y-22500D01*
X32850Y-22500D02*
X32450Y-22500D01*
G54D12*
X37475Y-22050D02*
X37475Y-22850D01*
X34922Y-21741D02*
X34922Y-21859D01*
X34922Y-21741D02*
X34922Y-21623D01*
X34883Y-21741D02*
X34804Y-21741D01*
X34883Y-21741D02*
X35040Y-21741D01*
G54D11*
X34300Y-22450D02*
X34700Y-22450D01*
X34700Y-22450D02*
X34700Y-22050D01*
X34700Y-22050D02*
X37900Y-22050D01*
X37900Y-22050D02*
X37900Y-22850D01*
X37900Y-22850D02*
X34700Y-22850D01*
X34700Y-22850D02*
X34700Y-22450D01*
X38300Y-22450D02*
X37900Y-22450D01*
G54D12*
X41925Y-33000D02*
X41925Y-32200D01*
X44478Y-33309D02*
X44478Y-33191D01*
X44478Y-33309D02*
X44478Y-33427D01*
X44517Y-33309D02*
X44596Y-33309D01*
X44517Y-33309D02*
X44360Y-33309D01*
G54D11*
X45100Y-32600D02*
X44700Y-32600D01*
X44700Y-32600D02*
X44700Y-33000D01*
X44700Y-33000D02*
X41500Y-33000D01*
X41500Y-33000D02*
X41500Y-32200D01*
X41500Y-32200D02*
X44700Y-32200D01*
X44700Y-32200D02*
X44700Y-32600D01*
X41100Y-32600D02*
X41500Y-32600D01*
G54D12*
X22931Y-23750D02*
X22908Y-23979D01*
X22841Y-24200D01*
X22733Y-24403D01*
X22588Y-24582D01*
X22410Y-24729D01*
X22207Y-24838D01*
X21987Y-24906D01*
X21758Y-24930D01*
X21529Y-24910D01*
X21308Y-24845D01*
X21104Y-24738D01*
X20924Y-24593D01*
X20776Y-24417D01*
X20665Y-24215D01*
X20595Y-23995D01*
X20570Y-23766D01*
X20589Y-23537D01*
X20652Y-23316D01*
X20758Y-23111D01*
X20901Y-22930D01*
X21076Y-22781D01*
X21278Y-22668D01*
X21497Y-22597D01*
X21726Y-22570D01*
X21955Y-22587D01*
X22177Y-22649D01*
X22382Y-22753D01*
X22564Y-22895D01*
X22715Y-23070D01*
X22828Y-23270D01*
X22901Y-23489D01*
X22930Y-23718D01*
X22931Y-23750D01*
X22548Y-22253D02*
X22548Y-22653D01*
X22748Y-22453D02*
X22348Y-22453D01*
X20431Y-23750D02*
X20408Y-23979D01*
X20341Y-24200D01*
X20233Y-24403D01*
X20088Y-24582D01*
X19910Y-24729D01*
X19707Y-24838D01*
X19487Y-24906D01*
X19258Y-24930D01*
X19029Y-24910D01*
X18808Y-24845D01*
X18604Y-24738D01*
X18424Y-24593D01*
X18276Y-24417D01*
X18165Y-24215D01*
X18095Y-23995D01*
X18070Y-23766D01*
X18089Y-23537D01*
X18152Y-23316D01*
X18258Y-23111D01*
X18401Y-22930D01*
X18576Y-22781D01*
X18778Y-22668D01*
X18997Y-22597D01*
X19226Y-22570D01*
X19455Y-22587D01*
X19677Y-22649D01*
X19882Y-22753D01*
X20064Y-22895D01*
X20215Y-23070D01*
X20328Y-23270D01*
X20401Y-23489D01*
X20430Y-23718D01*
X20431Y-23750D01*
X17753Y-22952D02*
X18153Y-22952D01*
X17953Y-22752D02*
X17953Y-23152D01*
X17931Y-23750D02*
X17908Y-23979D01*
X17841Y-24200D01*
X17733Y-24403D01*
X17588Y-24582D01*
X17410Y-24729D01*
X17207Y-24838D01*
X16987Y-24906D01*
X16758Y-24930D01*
X16529Y-24910D01*
X16308Y-24845D01*
X16104Y-24738D01*
X15924Y-24593D01*
X15776Y-24417D01*
X15665Y-24215D01*
X15595Y-23995D01*
X15570Y-23766D01*
X15589Y-23537D01*
X15652Y-23316D01*
X15758Y-23111D01*
X15901Y-22930D01*
X16076Y-22781D01*
X16278Y-22668D01*
X16497Y-22597D01*
X16726Y-22570D01*
X16955Y-22587D01*
X17177Y-22649D01*
X17382Y-22753D01*
X17564Y-22895D01*
X17715Y-23070D01*
X17828Y-23270D01*
X17901Y-23489D01*
X17930Y-23718D01*
X17931Y-23750D01*
X17548Y-22253D02*
X17548Y-22653D01*
X17748Y-22453D02*
X17348Y-22453D01*
X41550Y-23525D02*
X42350Y-23525D01*
X41241Y-26078D02*
X41359Y-26078D01*
X41241Y-26078D02*
X41123Y-26078D01*
X41241Y-26117D02*
X41241Y-26196D01*
X41241Y-26117D02*
X41241Y-25960D01*
G54D11*
X41950Y-26700D02*
X41950Y-26300D01*
X41950Y-26300D02*
X41550Y-26300D01*
X41550Y-26300D02*
X41550Y-23100D01*
X41550Y-23100D02*
X42350Y-23100D01*
X42350Y-23100D02*
X42350Y-26300D01*
X42350Y-26300D02*
X41950Y-26300D01*
X41950Y-22700D02*
X41950Y-23100D01*
G54D12*
X40500Y-23875D02*
X41300Y-23875D01*
X40191Y-26428D02*
X40309Y-26428D01*
X40191Y-26428D02*
X40073Y-26428D01*
X40191Y-26467D02*
X40191Y-26546D01*
X40191Y-26467D02*
X40191Y-26310D01*
G54D11*
X40900Y-27050D02*
X40900Y-26650D01*
X40900Y-26650D02*
X40500Y-26650D01*
X40500Y-26650D02*
X40500Y-23450D01*
X40500Y-23450D02*
X41300Y-23450D01*
X41300Y-23450D02*
X41300Y-26650D01*
X41300Y-26650D02*
X40900Y-26650D01*
X40900Y-23050D02*
X40900Y-23450D01*
X11000Y-27322D02*
X11004Y-31186D01*
X11004Y-31186D02*
X17504Y-31186D01*
X17520Y-31154D02*
X17520Y-27330D01*
X17520Y-27330D02*
X10992Y-27330D01*
X24980Y-24250D02*
X23000Y-24250D01*
X23000Y-24250D02*
X23000Y-23250D01*
X23000Y-23250D02*
X25000Y-23250D01*
X25000Y-23250D02*
X25000Y-24250D01*
X25000Y-24000D02*
X24750Y-24250D01*
X25020Y-23250D02*
X27000Y-23250D01*
X27000Y-23250D02*
X27000Y-24250D01*
X27000Y-24250D02*
X25000Y-24250D01*
X25000Y-24250D02*
X25000Y-23250D01*
X25000Y-23500D02*
X25250Y-23250D01*
X39400Y-22350D02*
X39400Y-22750D01*
X39400Y-22750D02*
X39800Y-22750D01*
X39800Y-22750D02*
X39800Y-25950D01*
X39800Y-25950D02*
X39000Y-25950D01*
X39000Y-25950D02*
X39000Y-22750D01*
X39000Y-22750D02*
X39400Y-22750D01*
X39600Y-22750D02*
X39800Y-22950D01*
X39400Y-26350D02*
X39400Y-25950D01*
X28250Y-31850D02*
X28250Y-32250D01*
X28250Y-32250D02*
X28650Y-32250D01*
X28650Y-32250D02*
X28650Y-35450D01*
X28650Y-35450D02*
X27850Y-35450D01*
X27850Y-35450D02*
X27850Y-32250D01*
X27850Y-32250D02*
X28250Y-32250D01*
X28450Y-32250D02*
X28650Y-32450D01*
X28250Y-35850D02*
X28250Y-35450D01*
X29500Y-31850D02*
X29500Y-32250D01*
X29500Y-32250D02*
X29900Y-32250D01*
X29900Y-32250D02*
X29900Y-35450D01*
X29900Y-35450D02*
X29100Y-35450D01*
X29100Y-35450D02*
X29100Y-32250D01*
X29100Y-32250D02*
X29500Y-32250D01*
X29700Y-32250D02*
X29900Y-32450D01*
X29500Y-35850D02*
X29500Y-35450D01*
X24650Y-35900D02*
X24650Y-35500D01*
X24650Y-35500D02*
X24250Y-35500D01*
X24250Y-35500D02*
X24250Y-32300D01*
X24250Y-32300D02*
X25050Y-32300D01*
X25050Y-32300D02*
X25050Y-35500D01*
X25050Y-35500D02*
X24650Y-35500D01*
X24450Y-35500D02*
X24250Y-35300D01*
X24650Y-31900D02*
X24650Y-32300D01*
X25850Y-35900D02*
X25850Y-35500D01*
X25850Y-35500D02*
X25450Y-35500D01*
X25450Y-35500D02*
X25450Y-32300D01*
X25450Y-32300D02*
X26250Y-32300D01*
X26250Y-32300D02*
X26250Y-35500D01*
X26250Y-35500D02*
X25850Y-35500D01*
X25650Y-35500D02*
X25450Y-35300D01*
X25850Y-31900D02*
X25850Y-32300D01*
X27500Y-22250D02*
X27100Y-22250D01*
X27100Y-22250D02*
X27100Y-22650D01*
X27100Y-22650D02*
X23900Y-22650D01*
X23900Y-22650D02*
X23900Y-21850D01*
X23900Y-21850D02*
X27100Y-21850D01*
X27100Y-21850D02*
X27100Y-22250D01*
X27100Y-22450D02*
X26900Y-22650D01*
X23500Y-22250D02*
X23900Y-22250D01*
X19500Y-22000D02*
X19100Y-22000D01*
X19100Y-22000D02*
X19100Y-22400D01*
X19100Y-22400D02*
X15900Y-22400D01*
X15900Y-22400D02*
X15900Y-21600D01*
X15900Y-21600D02*
X19100Y-21600D01*
X19100Y-21600D02*
X19100Y-22000D01*
X19100Y-22200D02*
X18900Y-22400D01*
X15500Y-22000D02*
X15900Y-22000D01*
X13750Y-26000D02*
X13750Y-25600D01*
X13750Y-25600D02*
X13350Y-25600D01*
X13350Y-25600D02*
X13350Y-22400D01*
X13350Y-22400D02*
X14150Y-22400D01*
X14150Y-22400D02*
X14150Y-25600D01*
X14150Y-25600D02*
X13750Y-25600D01*
X13550Y-25600D02*
X13350Y-25400D01*
X13750Y-22000D02*
X13750Y-22400D01*
X27050Y-31850D02*
X27050Y-32250D01*
X27050Y-32250D02*
X27450Y-32250D01*
X27450Y-32250D02*
X27450Y-35450D01*
X27450Y-35450D02*
X26650Y-35450D01*
X26650Y-35450D02*
X26650Y-32250D01*
X26650Y-32250D02*
X27050Y-32250D01*
X27250Y-32250D02*
X27450Y-32450D01*
X27050Y-35850D02*
X27050Y-35450D01*
X34000Y-29550D02*
X34400Y-29550D01*
X34400Y-29550D02*
X34400Y-29150D01*
X34400Y-29150D02*
X37600Y-29150D01*
X37600Y-29150D02*
X37600Y-29950D01*
X37600Y-29950D02*
X34400Y-29950D01*
X34400Y-29950D02*
X34400Y-29550D01*
X34400Y-29350D02*
X34600Y-29150D01*
X38000Y-29550D02*
X37600Y-29550D01*
X34000Y-30750D02*
X34400Y-30750D01*
X34400Y-30750D02*
X34400Y-30350D01*
X34400Y-30350D02*
X37600Y-30350D01*
X37600Y-30350D02*
X37600Y-31150D01*
X37600Y-31150D02*
X34400Y-31150D01*
X34400Y-31150D02*
X34400Y-30750D01*
X34400Y-30550D02*
X34600Y-30350D01*
X38000Y-30750D02*
X37600Y-30750D01*
G54D12*
X40500Y-31775D02*
X39700Y-31775D01*
X40809Y-29222D02*
X40691Y-29222D01*
X40809Y-29222D02*
X40927Y-29222D01*
X40809Y-29183D02*
X40809Y-29104D01*
X40809Y-29183D02*
X40809Y-29340D01*
G54D11*
X40100Y-28600D02*
X40100Y-29000D01*
X40100Y-29000D02*
X40500Y-29000D01*
X40500Y-29000D02*
X40500Y-32200D01*
X40500Y-32200D02*
X39700Y-32200D01*
X39700Y-32200D02*
X39700Y-29000D01*
X39700Y-29000D02*
X40100Y-29000D01*
X40100Y-32600D02*
X40100Y-32200D01*
X38050Y-25850D02*
X37650Y-25850D01*
X37650Y-25850D02*
X37650Y-26250D01*
X37650Y-26250D02*
X34450Y-26250D01*
X34450Y-26250D02*
X34450Y-25450D01*
X34450Y-25450D02*
X37650Y-25450D01*
X37650Y-25450D02*
X37650Y-25850D01*
X37650Y-26050D02*
X37450Y-26250D01*
X34050Y-25850D02*
X34450Y-25850D01*
X34050Y-27100D02*
X34450Y-27100D01*
X34450Y-27100D02*
X34450Y-26700D01*
X34450Y-26700D02*
X37650Y-26700D01*
X37650Y-26700D02*
X37650Y-27500D01*
X37650Y-27500D02*
X34450Y-27500D01*
X34450Y-27500D02*
X34450Y-27100D01*
X34450Y-26900D02*
X34650Y-26700D01*
X38050Y-27100D02*
X37650Y-27100D01*
X34050Y-28400D02*
X34450Y-28400D01*
X34450Y-28400D02*
X34450Y-28000D01*
X34450Y-28000D02*
X37650Y-28000D01*
X37650Y-28000D02*
X37650Y-28800D01*
X37650Y-28800D02*
X34450Y-28800D01*
X34450Y-28800D02*
X34450Y-28400D01*
X34450Y-28200D02*
X34650Y-28000D01*
X38050Y-28400D02*
X37650Y-28400D01*
X44150Y-26650D02*
X44150Y-27050D01*
X44150Y-27050D02*
X44550Y-27050D01*
X44550Y-27050D02*
X44550Y-30250D01*
X44550Y-30250D02*
X43750Y-30250D01*
X43750Y-30250D02*
X43750Y-27050D01*
X43750Y-27050D02*
X44150Y-27050D01*
X44350Y-27050D02*
X44550Y-27250D01*
X44150Y-30650D02*
X44150Y-30250D01*
X39750Y-36950D02*
X40150Y-36950D01*
X40150Y-36950D02*
X40150Y-36550D01*
X40150Y-36550D02*
X43350Y-36550D01*
X43350Y-36550D02*
X43350Y-37350D01*
X43350Y-37350D02*
X40150Y-37350D01*
X40150Y-37350D02*
X40150Y-36950D01*
X40150Y-36750D02*
X40350Y-36550D01*
X43750Y-36950D02*
X43350Y-36950D01*
G54D12*
X45050Y-33550D02*
X45550Y-33800D01*
X45550Y-33800D02*
X45550Y-36300D01*
X45550Y-36300D02*
X45050Y-36550D01*
X43550Y-35050D02*
X43556Y-35180D01*
X43573Y-35310D01*
X43602Y-35438D01*
X43641Y-35563D01*
X43691Y-35683D01*
X43751Y-35799D01*
X43822Y-35910D01*
X43901Y-36014D01*
X43990Y-36110D01*
X44086Y-36199D01*
X44190Y-36278D01*
X44301Y-36349D01*
X44417Y-36409D01*
X44537Y-36459D01*
X44662Y-36498D01*
X44790Y-36527D01*
X44920Y-36544D01*
X45050Y-36550D01*
X45050Y-33550D02*
X44920Y-33556D01*
X44790Y-33573D01*
X44662Y-33602D01*
X44537Y-33641D01*
X44417Y-33691D01*
X44301Y-33751D01*
X44190Y-33822D01*
X44086Y-33901D01*
X43990Y-33990D01*
X43901Y-34086D01*
X43822Y-34190D01*
X43751Y-34301D01*
X43691Y-34417D01*
X43641Y-34537D01*
X43602Y-34662D01*
X43573Y-34790D01*
X43556Y-34920D01*
X43550Y-35050D01*
G54D10*
X37265Y-33915D02*
X37265Y-34485D01*
X37835Y-34485D01*
X37835Y-33915D01*
X37265Y-33915D01*
X37085Y-33450D02*
X37079Y-33505D01*
X37063Y-33558D01*
X37037Y-33607D01*
X37002Y-33650D01*
X36959Y-33686D01*
X36910Y-33712D01*
X36857Y-33729D01*
X36801Y-33734D01*
X36747Y-33729D01*
X36694Y-33714D01*
X36644Y-33688D01*
X36601Y-33653D01*
X36565Y-33611D01*
X36539Y-33562D01*
X36522Y-33509D01*
X36516Y-33453D01*
X36520Y-33399D01*
X36536Y-33346D01*
X36561Y-33296D01*
X36595Y-33253D01*
X36638Y-33216D01*
X36686Y-33189D01*
X36739Y-33172D01*
X36795Y-33166D01*
X36849Y-33170D01*
X36903Y-33185D01*
X36952Y-33210D01*
X36996Y-33244D01*
X37032Y-33286D01*
X37060Y-33335D01*
X37077Y-33387D01*
X37084Y-33443D01*
X37085Y-33450D01*
X37835Y-32700D02*
X37829Y-32755D01*
X37813Y-32808D01*
X37787Y-32857D01*
X37752Y-32900D01*
X37709Y-32936D01*
X37660Y-32962D01*
X37607Y-32979D01*
X37551Y-32984D01*
X37497Y-32979D01*
X37444Y-32964D01*
X37394Y-32938D01*
X37351Y-32903D01*
X37315Y-32861D01*
X37289Y-32812D01*
X37272Y-32759D01*
X37266Y-32703D01*
X37270Y-32649D01*
X37286Y-32596D01*
X37311Y-32546D01*
X37345Y-32503D01*
X37388Y-32466D01*
X37436Y-32439D01*
X37489Y-32422D01*
X37545Y-32416D01*
X37599Y-32420D01*
X37653Y-32435D01*
X37702Y-32460D01*
X37746Y-32494D01*
X37782Y-32536D01*
X37810Y-32585D01*
X37827Y-32637D01*
X37834Y-32693D01*
X37835Y-32700D01*
X38435Y-35850D02*
X38429Y-35905D01*
X38413Y-35958D01*
X38387Y-36007D01*
X38352Y-36050D01*
X38309Y-36086D01*
X38260Y-36112D01*
X38207Y-36129D01*
X38151Y-36134D01*
X38097Y-36129D01*
X38044Y-36114D01*
X37994Y-36088D01*
X37951Y-36053D01*
X37915Y-36011D01*
X37889Y-35962D01*
X37872Y-35909D01*
X37866Y-35853D01*
X37870Y-35799D01*
X37886Y-35746D01*
X37911Y-35696D01*
X37945Y-35653D01*
X37988Y-35616D01*
X38036Y-35589D01*
X38089Y-35572D01*
X38145Y-35566D01*
X38199Y-35570D01*
X38253Y-35585D01*
X38302Y-35610D01*
X38346Y-35644D01*
X38382Y-35686D01*
X38410Y-35735D01*
X38427Y-35787D01*
X38434Y-35843D01*
X38435Y-35850D01*
X37685Y-36600D02*
X37679Y-36655D01*
X37663Y-36708D01*
X37637Y-36757D01*
X37602Y-36800D01*
X37559Y-36836D01*
X37510Y-36862D01*
X37457Y-36879D01*
X37401Y-36884D01*
X37347Y-36879D01*
X37294Y-36864D01*
X37244Y-36838D01*
X37201Y-36803D01*
X37165Y-36761D01*
X37139Y-36712D01*
X37122Y-36659D01*
X37116Y-36603D01*
X37120Y-36549D01*
X37136Y-36496D01*
X37161Y-36446D01*
X37195Y-36403D01*
X37238Y-36366D01*
X37286Y-36339D01*
X37339Y-36322D01*
X37395Y-36316D01*
X37449Y-36320D01*
X37503Y-36335D01*
X37552Y-36360D01*
X37596Y-36394D01*
X37632Y-36436D01*
X37660Y-36485D01*
X37677Y-36537D01*
X37684Y-36593D01*
X37685Y-36600D01*
X36935Y-35850D02*
X36929Y-35905D01*
X36913Y-35958D01*
X36887Y-36007D01*
X36852Y-36050D01*
X36809Y-36086D01*
X36760Y-36112D01*
X36707Y-36129D01*
X36651Y-36134D01*
X36597Y-36129D01*
X36544Y-36114D01*
X36494Y-36088D01*
X36451Y-36053D01*
X36415Y-36011D01*
X36389Y-35962D01*
X36372Y-35909D01*
X36366Y-35853D01*
X36370Y-35799D01*
X36386Y-35746D01*
X36411Y-35696D01*
X36445Y-35653D01*
X36488Y-35616D01*
X36536Y-35589D01*
X36589Y-35572D01*
X36645Y-35566D01*
X36699Y-35570D01*
X36753Y-35585D01*
X36802Y-35610D01*
X36846Y-35644D01*
X36882Y-35686D01*
X36910Y-35735D01*
X36927Y-35787D01*
X36934Y-35843D01*
X36935Y-35850D01*
X42215Y-29565D02*
X42215Y-30135D01*
X42785Y-30135D01*
X42785Y-29565D01*
X42215Y-29565D01*
X42035Y-29100D02*
X42029Y-29155D01*
X42013Y-29208D01*
X41987Y-29257D01*
X41952Y-29300D01*
X41909Y-29336D01*
X41860Y-29362D01*
X41807Y-29379D01*
X41751Y-29384D01*
X41697Y-29379D01*
X41644Y-29364D01*
X41594Y-29338D01*
X41551Y-29303D01*
X41515Y-29261D01*
X41489Y-29212D01*
X41472Y-29159D01*
X41466Y-29103D01*
X41470Y-29049D01*
X41486Y-28996D01*
X41511Y-28946D01*
X41545Y-28903D01*
X41588Y-28866D01*
X41636Y-28839D01*
X41689Y-28822D01*
X41745Y-28816D01*
X41799Y-28820D01*
X41853Y-28835D01*
X41902Y-28860D01*
X41946Y-28894D01*
X41982Y-28936D01*
X42010Y-28985D01*
X42027Y-29037D01*
X42034Y-29093D01*
X42035Y-29100D01*
X42785Y-28350D02*
X42779Y-28405D01*
X42763Y-28458D01*
X42737Y-28507D01*
X42702Y-28550D01*
X42659Y-28586D01*
X42610Y-28612D01*
X42557Y-28629D01*
X42501Y-28634D01*
X42447Y-28629D01*
X42394Y-28614D01*
X42344Y-28588D01*
X42301Y-28553D01*
X42265Y-28511D01*
X42239Y-28462D01*
X42222Y-28409D01*
X42216Y-28353D01*
X42220Y-28299D01*
X42236Y-28246D01*
X42261Y-28196D01*
X42295Y-28153D01*
X42338Y-28116D01*
X42386Y-28089D01*
X42439Y-28072D01*
X42495Y-28066D01*
X42549Y-28070D01*
X42603Y-28085D01*
X42652Y-28110D01*
X42696Y-28144D01*
X42732Y-28186D01*
X42760Y-28235D01*
X42777Y-28287D01*
X42784Y-28343D01*
X42785Y-28350D01*
X31530Y-27640D02*
X31530Y-27360D01*
X30970Y-27640D02*
X30970Y-27360D01*
X31530Y-27360D02*
X31528Y-27336D01*
X31525Y-27312D01*
X31520Y-27288D01*
X31513Y-27265D01*
X31503Y-27242D01*
X31492Y-27220D01*
X31479Y-27200D01*
X31464Y-27181D01*
X31447Y-27163D01*
X31429Y-27146D01*
X31410Y-27131D01*
X31390Y-27118D01*
X31368Y-27107D01*
X31345Y-27097D01*
X31322Y-27090D01*
X31298Y-27085D01*
X31274Y-27082D01*
X31250Y-27080D01*
X31226Y-27082D01*
X31202Y-27085D01*
X31178Y-27090D01*
X31155Y-27097D01*
X31132Y-27107D01*
X31111Y-27118D01*
X31090Y-27131D01*
X31071Y-27146D01*
X31053Y-27163D01*
X31036Y-27181D01*
X31021Y-27200D01*
X31008Y-27221D01*
X30997Y-27242D01*
X30987Y-27265D01*
X30980Y-27288D01*
X30975Y-27312D01*
X30972Y-27336D01*
X30970Y-27360D01*
X30970Y-27640D02*
X30972Y-27664D01*
X30975Y-27688D01*
X30980Y-27712D01*
X30987Y-27735D01*
X30997Y-27758D01*
X31008Y-27779D01*
X31021Y-27800D01*
X31036Y-27819D01*
X31053Y-27837D01*
X31071Y-27854D01*
X31090Y-27869D01*
X31110Y-27882D01*
X31132Y-27893D01*
X31155Y-27903D01*
X31178Y-27910D01*
X31202Y-27915D01*
X31226Y-27918D01*
X31250Y-27920D01*
X31274Y-27918D01*
X31298Y-27915D01*
X31322Y-27910D01*
X31345Y-27903D01*
X31368Y-27893D01*
X31390Y-27882D01*
X31410Y-27869D01*
X31429Y-27854D01*
X31447Y-27837D01*
X31464Y-27819D01*
X31479Y-27800D01*
X31492Y-27780D01*
X31503Y-27758D01*
X31513Y-27735D01*
X31520Y-27712D01*
X31525Y-27688D01*
X31528Y-27664D01*
X31530Y-27640D01*
X30530Y-27640D02*
X30530Y-27360D01*
X29970Y-27640D02*
X29970Y-27360D01*
X30530Y-27360D02*
X30528Y-27336D01*
X30525Y-27312D01*
X30520Y-27288D01*
X30513Y-27265D01*
X30503Y-27242D01*
X30492Y-27220D01*
X30479Y-27200D01*
X30464Y-27181D01*
X30447Y-27163D01*
X30429Y-27146D01*
X30410Y-27131D01*
X30390Y-27118D01*
X30368Y-27107D01*
X30345Y-27097D01*
X30322Y-27090D01*
X30298Y-27085D01*
X30274Y-27082D01*
X30250Y-27080D01*
X30226Y-27082D01*
X30202Y-27085D01*
X30178Y-27090D01*
X30155Y-27097D01*
X30132Y-27107D01*
X30111Y-27118D01*
X30090Y-27131D01*
X30071Y-27146D01*
X30053Y-27163D01*
X30036Y-27181D01*
X30021Y-27200D01*
X30008Y-27221D01*
X29997Y-27242D01*
X29987Y-27265D01*
X29980Y-27288D01*
X29975Y-27312D01*
X29972Y-27336D01*
X29970Y-27360D01*
X29970Y-27640D02*
X29972Y-27664D01*
X29975Y-27688D01*
X29980Y-27712D01*
X29987Y-27735D01*
X29997Y-27758D01*
X30008Y-27779D01*
X30021Y-27800D01*
X30036Y-27819D01*
X30053Y-27837D01*
X30071Y-27854D01*
X30090Y-27869D01*
X30110Y-27882D01*
X30132Y-27893D01*
X30155Y-27903D01*
X30178Y-27910D01*
X30202Y-27915D01*
X30226Y-27918D01*
X30250Y-27920D01*
X30274Y-27918D01*
X30298Y-27915D01*
X30322Y-27910D01*
X30345Y-27903D01*
X30368Y-27893D01*
X30390Y-27882D01*
X30410Y-27869D01*
X30429Y-27854D01*
X30447Y-27837D01*
X30464Y-27819D01*
X30479Y-27800D01*
X30492Y-27780D01*
X30503Y-27758D01*
X30513Y-27735D01*
X30520Y-27712D01*
X30525Y-27688D01*
X30528Y-27664D01*
X30530Y-27640D01*
X29530Y-27640D02*
X29530Y-27360D01*
X28970Y-27640D02*
X28970Y-27360D01*
X29530Y-27360D02*
X29528Y-27336D01*
X29525Y-27312D01*
X29520Y-27288D01*
X29513Y-27265D01*
X29503Y-27242D01*
X29492Y-27220D01*
X29479Y-27200D01*
X29464Y-27181D01*
X29447Y-27163D01*
X29429Y-27146D01*
X29410Y-27131D01*
X29390Y-27118D01*
X29368Y-27107D01*
X29345Y-27097D01*
X29322Y-27090D01*
X29298Y-27085D01*
X29274Y-27082D01*
X29250Y-27080D01*
X29226Y-27082D01*
X29202Y-27085D01*
X29178Y-27090D01*
X29155Y-27097D01*
X29132Y-27107D01*
X29111Y-27118D01*
X29090Y-27131D01*
X29071Y-27146D01*
X29053Y-27163D01*
X29036Y-27181D01*
X29021Y-27200D01*
X29008Y-27221D01*
X28997Y-27242D01*
X28987Y-27265D01*
X28980Y-27288D01*
X28975Y-27312D01*
X28972Y-27336D01*
X28970Y-27360D01*
X28970Y-27640D02*
X28972Y-27664D01*
X28975Y-27688D01*
X28980Y-27712D01*
X28987Y-27735D01*
X28997Y-27758D01*
X29008Y-27779D01*
X29021Y-27800D01*
X29036Y-27819D01*
X29053Y-27837D01*
X29071Y-27854D01*
X29090Y-27869D01*
X29110Y-27882D01*
X29132Y-27893D01*
X29155Y-27903D01*
X29178Y-27910D01*
X29202Y-27915D01*
X29226Y-27918D01*
X29250Y-27920D01*
X29274Y-27918D01*
X29298Y-27915D01*
X29322Y-27910D01*
X29345Y-27903D01*
X29368Y-27893D01*
X29390Y-27882D01*
X29410Y-27869D01*
X29429Y-27854D01*
X29447Y-27837D01*
X29464Y-27819D01*
X29479Y-27800D01*
X29492Y-27780D01*
X29503Y-27758D01*
X29513Y-27735D01*
X29520Y-27712D01*
X29525Y-27688D01*
X29528Y-27664D01*
X29530Y-27640D01*
X28530Y-27640D02*
X28530Y-27360D01*
X27970Y-27640D02*
X27970Y-27360D01*
X28530Y-27360D02*
X28528Y-27336D01*
X28525Y-27312D01*
X28520Y-27288D01*
X28513Y-27265D01*
X28503Y-27242D01*
X28492Y-27220D01*
X28479Y-27200D01*
X28464Y-27181D01*
X28447Y-27163D01*
X28429Y-27146D01*
X28410Y-27131D01*
X28390Y-27118D01*
X28368Y-27107D01*
X28345Y-27097D01*
X28322Y-27090D01*
X28298Y-27085D01*
X28274Y-27082D01*
X28250Y-27080D01*
X28226Y-27082D01*
X28202Y-27085D01*
X28178Y-27090D01*
X28155Y-27097D01*
X28132Y-27107D01*
X28111Y-27118D01*
X28090Y-27131D01*
X28071Y-27146D01*
X28053Y-27163D01*
X28036Y-27181D01*
X28021Y-27200D01*
X28008Y-27221D01*
X27997Y-27242D01*
X27987Y-27265D01*
X27980Y-27288D01*
X27975Y-27312D01*
X27972Y-27336D01*
X27970Y-27360D01*
X27970Y-27640D02*
X27972Y-27664D01*
X27975Y-27688D01*
X27980Y-27712D01*
X27987Y-27735D01*
X27997Y-27758D01*
X28008Y-27779D01*
X28021Y-27800D01*
X28036Y-27819D01*
X28053Y-27837D01*
X28071Y-27854D01*
X28090Y-27869D01*
X28110Y-27882D01*
X28132Y-27893D01*
X28155Y-27903D01*
X28178Y-27910D01*
X28202Y-27915D01*
X28226Y-27918D01*
X28250Y-27920D01*
X28274Y-27918D01*
X28298Y-27915D01*
X28322Y-27910D01*
X28345Y-27903D01*
X28368Y-27893D01*
X28390Y-27882D01*
X28410Y-27869D01*
X28429Y-27854D01*
X28447Y-27837D01*
X28464Y-27819D01*
X28479Y-27800D01*
X28492Y-27780D01*
X28503Y-27758D01*
X28513Y-27735D01*
X28520Y-27712D01*
X28525Y-27688D01*
X28528Y-27664D01*
X28530Y-27640D01*
X27530Y-27640D02*
X27530Y-27360D01*
X26970Y-27640D02*
X26970Y-27360D01*
X27530Y-27360D02*
X27528Y-27336D01*
X27525Y-27312D01*
X27520Y-27288D01*
X27513Y-27265D01*
X27503Y-27242D01*
X27492Y-27220D01*
X27479Y-27200D01*
X27464Y-27181D01*
X27447Y-27163D01*
X27429Y-27146D01*
X27410Y-27131D01*
X27390Y-27118D01*
X27368Y-27107D01*
X27345Y-27097D01*
X27322Y-27090D01*
X27298Y-27085D01*
X27274Y-27082D01*
X27250Y-27080D01*
X27226Y-27082D01*
X27202Y-27085D01*
X27178Y-27090D01*
X27155Y-27097D01*
X27132Y-27107D01*
X27111Y-27118D01*
X27090Y-27131D01*
X27071Y-27146D01*
X27053Y-27163D01*
X27036Y-27181D01*
X27021Y-27200D01*
X27008Y-27221D01*
X26997Y-27242D01*
X26987Y-27265D01*
X26980Y-27288D01*
X26975Y-27312D01*
X26972Y-27336D01*
X26970Y-27360D01*
X26970Y-27640D02*
X26972Y-27664D01*
X26975Y-27688D01*
X26980Y-27712D01*
X26987Y-27735D01*
X26997Y-27758D01*
X27008Y-27779D01*
X27021Y-27800D01*
X27036Y-27819D01*
X27053Y-27837D01*
X27071Y-27854D01*
X27090Y-27869D01*
X27110Y-27882D01*
X27132Y-27893D01*
X27155Y-27903D01*
X27178Y-27910D01*
X27202Y-27915D01*
X27226Y-27918D01*
X27250Y-27920D01*
X27274Y-27918D01*
X27298Y-27915D01*
X27322Y-27910D01*
X27345Y-27903D01*
X27368Y-27893D01*
X27390Y-27882D01*
X27410Y-27869D01*
X27429Y-27854D01*
X27447Y-27837D01*
X27464Y-27819D01*
X27479Y-27800D01*
X27492Y-27780D01*
X27503Y-27758D01*
X27513Y-27735D01*
X27520Y-27712D01*
X27525Y-27688D01*
X27528Y-27664D01*
X27530Y-27640D01*
X26530Y-27640D02*
X26530Y-27360D01*
X25970Y-27640D02*
X25970Y-27360D01*
X26530Y-27360D02*
X26528Y-27336D01*
X26525Y-27312D01*
X26520Y-27288D01*
X26513Y-27265D01*
X26503Y-27242D01*
X26492Y-27220D01*
X26479Y-27200D01*
X26464Y-27181D01*
X26447Y-27163D01*
X26429Y-27146D01*
X26410Y-27131D01*
X26390Y-27118D01*
X26368Y-27107D01*
X26345Y-27097D01*
X26322Y-27090D01*
X26298Y-27085D01*
X26274Y-27082D01*
X26250Y-27080D01*
X26226Y-27082D01*
X26202Y-27085D01*
X26178Y-27090D01*
X26155Y-27097D01*
X26132Y-27107D01*
X26111Y-27118D01*
X26090Y-27131D01*
X26071Y-27146D01*
X26053Y-27163D01*
X26036Y-27181D01*
X26021Y-27200D01*
X26008Y-27221D01*
X25997Y-27242D01*
X25987Y-27265D01*
X25980Y-27288D01*
X25975Y-27312D01*
X25972Y-27336D01*
X25970Y-27360D01*
X25970Y-27640D02*
X25972Y-27664D01*
X25975Y-27688D01*
X25980Y-27712D01*
X25987Y-27735D01*
X25997Y-27758D01*
X26008Y-27779D01*
X26021Y-27800D01*
X26036Y-27819D01*
X26053Y-27837D01*
X26071Y-27854D01*
X26090Y-27869D01*
X26110Y-27882D01*
X26132Y-27893D01*
X26155Y-27903D01*
X26178Y-27910D01*
X26202Y-27915D01*
X26226Y-27918D01*
X26250Y-27920D01*
X26274Y-27918D01*
X26298Y-27915D01*
X26322Y-27910D01*
X26345Y-27903D01*
X26368Y-27893D01*
X26390Y-27882D01*
X26410Y-27869D01*
X26429Y-27854D01*
X26447Y-27837D01*
X26464Y-27819D01*
X26479Y-27800D01*
X26492Y-27780D01*
X26503Y-27758D01*
X26513Y-27735D01*
X26520Y-27712D01*
X26525Y-27688D01*
X26528Y-27664D01*
X26530Y-27640D01*
X25530Y-27640D02*
X25530Y-27360D01*
X24970Y-27640D02*
X24970Y-27360D01*
X25530Y-27360D02*
X25528Y-27336D01*
X25525Y-27312D01*
X25520Y-27288D01*
X25513Y-27265D01*
X25503Y-27242D01*
X25492Y-27220D01*
X25479Y-27200D01*
X25464Y-27181D01*
X25447Y-27163D01*
X25429Y-27146D01*
X25410Y-27131D01*
X25390Y-27118D01*
X25368Y-27107D01*
X25345Y-27097D01*
X25322Y-27090D01*
X25298Y-27085D01*
X25274Y-27082D01*
X25250Y-27080D01*
X25226Y-27082D01*
X25202Y-27085D01*
X25178Y-27090D01*
X25155Y-27097D01*
X25132Y-27107D01*
X25111Y-27118D01*
X25090Y-27131D01*
X25071Y-27146D01*
X25053Y-27163D01*
X25036Y-27181D01*
X25021Y-27200D01*
X25008Y-27221D01*
X24997Y-27242D01*
X24987Y-27265D01*
X24980Y-27288D01*
X24975Y-27312D01*
X24972Y-27336D01*
X24970Y-27360D01*
X24970Y-27640D02*
X24972Y-27664D01*
X24975Y-27688D01*
X24980Y-27712D01*
X24987Y-27735D01*
X24997Y-27758D01*
X25008Y-27779D01*
X25021Y-27800D01*
X25036Y-27819D01*
X25053Y-27837D01*
X25071Y-27854D01*
X25090Y-27869D01*
X25110Y-27882D01*
X25132Y-27893D01*
X25155Y-27903D01*
X25178Y-27910D01*
X25202Y-27915D01*
X25226Y-27918D01*
X25250Y-27920D01*
X25274Y-27918D01*
X25298Y-27915D01*
X25322Y-27910D01*
X25345Y-27903D01*
X25368Y-27893D01*
X25390Y-27882D01*
X25410Y-27869D01*
X25429Y-27854D01*
X25447Y-27837D01*
X25464Y-27819D01*
X25479Y-27800D01*
X25492Y-27780D01*
X25503Y-27758D01*
X25513Y-27735D01*
X25520Y-27712D01*
X25525Y-27688D01*
X25528Y-27664D01*
X25530Y-27640D01*
X24530Y-27640D02*
X24530Y-27360D01*
X23970Y-27640D02*
X23970Y-27360D01*
X24530Y-27360D02*
X24528Y-27336D01*
X24525Y-27312D01*
X24520Y-27288D01*
X24513Y-27265D01*
X24503Y-27242D01*
X24492Y-27220D01*
X24479Y-27200D01*
X24464Y-27181D01*
X24447Y-27163D01*
X24429Y-27146D01*
X24410Y-27131D01*
X24390Y-27118D01*
X24368Y-27107D01*
X24345Y-27097D01*
X24322Y-27090D01*
X24298Y-27085D01*
X24274Y-27082D01*
X24250Y-27080D01*
X24226Y-27082D01*
X24202Y-27085D01*
X24178Y-27090D01*
X24155Y-27097D01*
X24132Y-27107D01*
X24111Y-27118D01*
X24090Y-27131D01*
X24071Y-27146D01*
X24053Y-27163D01*
X24036Y-27181D01*
X24021Y-27200D01*
X24008Y-27221D01*
X23997Y-27242D01*
X23987Y-27265D01*
X23980Y-27288D01*
X23975Y-27312D01*
X23972Y-27336D01*
X23970Y-27360D01*
X23970Y-27640D02*
X23972Y-27664D01*
X23975Y-27688D01*
X23980Y-27712D01*
X23987Y-27735D01*
X23997Y-27758D01*
X24008Y-27779D01*
X24021Y-27800D01*
X24036Y-27819D01*
X24053Y-27837D01*
X24071Y-27854D01*
X24090Y-27869D01*
X24110Y-27882D01*
X24132Y-27893D01*
X24155Y-27903D01*
X24178Y-27910D01*
X24202Y-27915D01*
X24226Y-27918D01*
X24250Y-27920D01*
X24274Y-27918D01*
X24298Y-27915D01*
X24322Y-27910D01*
X24345Y-27903D01*
X24368Y-27893D01*
X24390Y-27882D01*
X24410Y-27869D01*
X24429Y-27854D01*
X24447Y-27837D01*
X24464Y-27819D01*
X24479Y-27800D01*
X24492Y-27780D01*
X24503Y-27758D01*
X24513Y-27735D01*
X24520Y-27712D01*
X24525Y-27688D01*
X24528Y-27664D01*
X24530Y-27640D01*
X23530Y-27640D02*
X23530Y-27360D01*
X22970Y-27640D02*
X22970Y-27360D01*
X23530Y-27360D02*
X23528Y-27336D01*
X23525Y-27312D01*
X23520Y-27288D01*
X23513Y-27265D01*
X23503Y-27242D01*
X23492Y-27220D01*
X23479Y-27200D01*
X23464Y-27181D01*
X23447Y-27163D01*
X23429Y-27146D01*
X23410Y-27131D01*
X23390Y-27118D01*
X23368Y-27107D01*
X23345Y-27097D01*
X23322Y-27090D01*
X23298Y-27085D01*
X23274Y-27082D01*
X23250Y-27080D01*
X23226Y-27082D01*
X23202Y-27085D01*
X23178Y-27090D01*
X23155Y-27097D01*
X23132Y-27107D01*
X23111Y-27118D01*
X23090Y-27131D01*
X23071Y-27146D01*
X23053Y-27163D01*
X23036Y-27181D01*
X23021Y-27200D01*
X23008Y-27221D01*
X22997Y-27242D01*
X22987Y-27265D01*
X22980Y-27288D01*
X22975Y-27312D01*
X22972Y-27336D01*
X22970Y-27360D01*
X22970Y-27640D02*
X22972Y-27664D01*
X22975Y-27688D01*
X22980Y-27712D01*
X22987Y-27735D01*
X22997Y-27758D01*
X23008Y-27779D01*
X23021Y-27800D01*
X23036Y-27819D01*
X23053Y-27837D01*
X23071Y-27854D01*
X23090Y-27869D01*
X23110Y-27882D01*
X23132Y-27893D01*
X23155Y-27903D01*
X23178Y-27910D01*
X23202Y-27915D01*
X23226Y-27918D01*
X23250Y-27920D01*
X23274Y-27918D01*
X23298Y-27915D01*
X23322Y-27910D01*
X23345Y-27903D01*
X23368Y-27893D01*
X23390Y-27882D01*
X23410Y-27869D01*
X23429Y-27854D01*
X23447Y-27837D01*
X23464Y-27819D01*
X23479Y-27800D01*
X23492Y-27780D01*
X23503Y-27758D01*
X23513Y-27735D01*
X23520Y-27712D01*
X23525Y-27688D01*
X23528Y-27664D01*
X23530Y-27640D01*
X22530Y-27640D02*
X22530Y-27360D01*
X21970Y-27640D02*
X21970Y-27360D01*
X22530Y-27360D02*
X22528Y-27336D01*
X22525Y-27312D01*
X22520Y-27288D01*
X22513Y-27265D01*
X22503Y-27242D01*
X22492Y-27220D01*
X22479Y-27200D01*
X22464Y-27181D01*
X22447Y-27163D01*
X22429Y-27146D01*
X22410Y-27131D01*
X22390Y-27118D01*
X22368Y-27107D01*
X22345Y-27097D01*
X22322Y-27090D01*
X22298Y-27085D01*
X22274Y-27082D01*
X22250Y-27080D01*
X22226Y-27082D01*
X22202Y-27085D01*
X22178Y-27090D01*
X22155Y-27097D01*
X22132Y-27107D01*
X22111Y-27118D01*
X22090Y-27131D01*
X22071Y-27146D01*
X22053Y-27163D01*
X22036Y-27181D01*
X22021Y-27200D01*
X22008Y-27221D01*
X21997Y-27242D01*
X21987Y-27265D01*
X21980Y-27288D01*
X21975Y-27312D01*
X21972Y-27336D01*
X21970Y-27360D01*
X21970Y-27640D02*
X21972Y-27664D01*
X21975Y-27688D01*
X21980Y-27712D01*
X21987Y-27735D01*
X21997Y-27758D01*
X22008Y-27779D01*
X22021Y-27800D01*
X22036Y-27819D01*
X22053Y-27837D01*
X22071Y-27854D01*
X22090Y-27869D01*
X22110Y-27882D01*
X22132Y-27893D01*
X22155Y-27903D01*
X22178Y-27910D01*
X22202Y-27915D01*
X22226Y-27918D01*
X22250Y-27920D01*
X22274Y-27918D01*
X22298Y-27915D01*
X22322Y-27910D01*
X22345Y-27903D01*
X22368Y-27893D01*
X22390Y-27882D01*
X22410Y-27869D01*
X22429Y-27854D01*
X22447Y-27837D01*
X22464Y-27819D01*
X22479Y-27800D01*
X22492Y-27780D01*
X22503Y-27758D01*
X22513Y-27735D01*
X22520Y-27712D01*
X22525Y-27688D01*
X22528Y-27664D01*
X22530Y-27640D01*
X21530Y-27640D02*
X21530Y-27360D01*
X20970Y-27640D02*
X20970Y-27360D01*
X21530Y-27360D02*
X21528Y-27336D01*
X21525Y-27312D01*
X21520Y-27288D01*
X21513Y-27265D01*
X21503Y-27242D01*
X21492Y-27220D01*
X21479Y-27200D01*
X21464Y-27181D01*
X21447Y-27163D01*
X21429Y-27146D01*
X21410Y-27131D01*
X21390Y-27118D01*
X21368Y-27107D01*
X21345Y-27097D01*
X21322Y-27090D01*
X21298Y-27085D01*
X21274Y-27082D01*
X21250Y-27080D01*
X21226Y-27082D01*
X21202Y-27085D01*
X21178Y-27090D01*
X21155Y-27097D01*
X21132Y-27107D01*
X21111Y-27118D01*
X21090Y-27131D01*
X21071Y-27146D01*
X21053Y-27163D01*
X21036Y-27181D01*
X21021Y-27200D01*
X21008Y-27221D01*
X20997Y-27242D01*
X20987Y-27265D01*
X20980Y-27288D01*
X20975Y-27312D01*
X20972Y-27336D01*
X20970Y-27360D01*
X20970Y-27640D02*
X20972Y-27664D01*
X20975Y-27688D01*
X20980Y-27712D01*
X20987Y-27735D01*
X20997Y-27758D01*
X21008Y-27779D01*
X21021Y-27800D01*
X21036Y-27819D01*
X21053Y-27837D01*
X21071Y-27854D01*
X21090Y-27869D01*
X21110Y-27882D01*
X21132Y-27893D01*
X21155Y-27903D01*
X21178Y-27910D01*
X21202Y-27915D01*
X21226Y-27918D01*
X21250Y-27920D01*
X21274Y-27918D01*
X21298Y-27915D01*
X21322Y-27910D01*
X21345Y-27903D01*
X21368Y-27893D01*
X21390Y-27882D01*
X21410Y-27869D01*
X21429Y-27854D01*
X21447Y-27837D01*
X21464Y-27819D01*
X21479Y-27800D01*
X21492Y-27780D01*
X21503Y-27758D01*
X21513Y-27735D01*
X21520Y-27712D01*
X21525Y-27688D01*
X21528Y-27664D01*
X21530Y-27640D01*
X20530Y-27640D02*
X20530Y-27360D01*
X19970Y-27640D02*
X19970Y-27360D01*
X20530Y-27360D02*
X20528Y-27336D01*
X20525Y-27312D01*
X20520Y-27288D01*
X20513Y-27265D01*
X20503Y-27242D01*
X20492Y-27220D01*
X20479Y-27200D01*
X20464Y-27181D01*
X20447Y-27163D01*
X20429Y-27146D01*
X20410Y-27131D01*
X20390Y-27118D01*
X20368Y-27107D01*
X20345Y-27097D01*
X20322Y-27090D01*
X20298Y-27085D01*
X20274Y-27082D01*
X20250Y-27080D01*
X20226Y-27082D01*
X20202Y-27085D01*
X20178Y-27090D01*
X20155Y-27097D01*
X20132Y-27107D01*
X20111Y-27118D01*
X20090Y-27131D01*
X20071Y-27146D01*
X20053Y-27163D01*
X20036Y-27181D01*
X20021Y-27200D01*
X20008Y-27221D01*
X19997Y-27242D01*
X19987Y-27265D01*
X19980Y-27288D01*
X19975Y-27312D01*
X19972Y-27336D01*
X19970Y-27360D01*
X19970Y-27640D02*
X19972Y-27664D01*
X19975Y-27688D01*
X19980Y-27712D01*
X19987Y-27735D01*
X19997Y-27758D01*
X20008Y-27779D01*
X20021Y-27800D01*
X20036Y-27819D01*
X20053Y-27837D01*
X20071Y-27854D01*
X20090Y-27869D01*
X20110Y-27882D01*
X20132Y-27893D01*
X20155Y-27903D01*
X20178Y-27910D01*
X20202Y-27915D01*
X20226Y-27918D01*
X20250Y-27920D01*
X20274Y-27918D01*
X20298Y-27915D01*
X20322Y-27910D01*
X20345Y-27903D01*
X20368Y-27893D01*
X20390Y-27882D01*
X20410Y-27869D01*
X20429Y-27854D01*
X20447Y-27837D01*
X20464Y-27819D01*
X20479Y-27800D01*
X20492Y-27780D01*
X20503Y-27758D01*
X20513Y-27735D01*
X20520Y-27712D01*
X20525Y-27688D01*
X20528Y-27664D01*
X20530Y-27640D01*
X19530Y-27640D02*
X19530Y-27360D01*
X18970Y-27640D02*
X18970Y-27360D01*
X19530Y-27360D02*
X19528Y-27336D01*
X19525Y-27312D01*
X19520Y-27288D01*
X19513Y-27265D01*
X19503Y-27242D01*
X19492Y-27220D01*
X19479Y-27200D01*
X19464Y-27181D01*
X19447Y-27163D01*
X19429Y-27146D01*
X19410Y-27131D01*
X19390Y-27118D01*
X19368Y-27107D01*
X19345Y-27097D01*
X19322Y-27090D01*
X19298Y-27085D01*
X19274Y-27082D01*
X19250Y-27080D01*
X19226Y-27082D01*
X19202Y-27085D01*
X19178Y-27090D01*
X19155Y-27097D01*
X19132Y-27107D01*
X19111Y-27118D01*
X19090Y-27131D01*
X19071Y-27146D01*
X19053Y-27163D01*
X19036Y-27181D01*
X19021Y-27200D01*
X19008Y-27221D01*
X18997Y-27242D01*
X18987Y-27265D01*
X18980Y-27288D01*
X18975Y-27312D01*
X18972Y-27336D01*
X18970Y-27360D01*
X18970Y-27640D02*
X18972Y-27664D01*
X18975Y-27688D01*
X18980Y-27712D01*
X18987Y-27735D01*
X18997Y-27758D01*
X19008Y-27779D01*
X19021Y-27800D01*
X19036Y-27819D01*
X19053Y-27837D01*
X19071Y-27854D01*
X19090Y-27869D01*
X19110Y-27882D01*
X19132Y-27893D01*
X19155Y-27903D01*
X19178Y-27910D01*
X19202Y-27915D01*
X19226Y-27918D01*
X19250Y-27920D01*
X19274Y-27918D01*
X19298Y-27915D01*
X19322Y-27910D01*
X19345Y-27903D01*
X19368Y-27893D01*
X19390Y-27882D01*
X19410Y-27869D01*
X19429Y-27854D01*
X19447Y-27837D01*
X19464Y-27819D01*
X19479Y-27800D01*
X19492Y-27780D01*
X19503Y-27758D01*
X19513Y-27735D01*
X19520Y-27712D01*
X19525Y-27688D01*
X19528Y-27664D01*
X19530Y-27640D01*
X31970Y-27080D02*
X31970Y-27920D01*
X32530Y-27920D01*
X32530Y-27080D01*
X31970Y-27080D01*
X19530Y-30640D02*
X19530Y-30360D01*
X18970Y-30640D02*
X18970Y-30360D01*
X19530Y-30360D02*
X19528Y-30336D01*
X19525Y-30312D01*
X19520Y-30288D01*
X19513Y-30265D01*
X19503Y-30242D01*
X19492Y-30220D01*
X19479Y-30200D01*
X19464Y-30181D01*
X19447Y-30163D01*
X19429Y-30146D01*
X19410Y-30131D01*
X19390Y-30118D01*
X19368Y-30107D01*
X19345Y-30097D01*
X19322Y-30090D01*
X19298Y-30085D01*
X19274Y-30082D01*
X19250Y-30080D01*
X19226Y-30082D01*
X19202Y-30085D01*
X19178Y-30090D01*
X19155Y-30097D01*
X19132Y-30107D01*
X19111Y-30118D01*
X19090Y-30131D01*
X19071Y-30146D01*
X19053Y-30163D01*
X19036Y-30181D01*
X19021Y-30200D01*
X19008Y-30221D01*
X18997Y-30242D01*
X18987Y-30265D01*
X18980Y-30288D01*
X18975Y-30312D01*
X18972Y-30336D01*
X18970Y-30360D01*
X18970Y-30640D02*
X18972Y-30664D01*
X18975Y-30688D01*
X18980Y-30712D01*
X18987Y-30735D01*
X18997Y-30758D01*
X19008Y-30779D01*
X19021Y-30800D01*
X19036Y-30819D01*
X19053Y-30837D01*
X19071Y-30854D01*
X19090Y-30869D01*
X19110Y-30882D01*
X19132Y-30893D01*
X19155Y-30903D01*
X19178Y-30910D01*
X19202Y-30915D01*
X19226Y-30918D01*
X19250Y-30920D01*
X19274Y-30918D01*
X19298Y-30915D01*
X19322Y-30910D01*
X19345Y-30903D01*
X19368Y-30893D01*
X19390Y-30882D01*
X19410Y-30869D01*
X19429Y-30854D01*
X19447Y-30837D01*
X19464Y-30819D01*
X19479Y-30800D01*
X19492Y-30780D01*
X19503Y-30758D01*
X19513Y-30735D01*
X19520Y-30712D01*
X19525Y-30688D01*
X19528Y-30664D01*
X19530Y-30640D01*
X20530Y-30640D02*
X20530Y-30360D01*
X19970Y-30640D02*
X19970Y-30360D01*
X20530Y-30360D02*
X20528Y-30336D01*
X20525Y-30312D01*
X20520Y-30288D01*
X20513Y-30265D01*
X20503Y-30242D01*
X20492Y-30220D01*
X20479Y-30200D01*
X20464Y-30181D01*
X20447Y-30163D01*
X20429Y-30146D01*
X20410Y-30131D01*
X20390Y-30118D01*
X20368Y-30107D01*
X20345Y-30097D01*
X20322Y-30090D01*
X20298Y-30085D01*
X20274Y-30082D01*
X20250Y-30080D01*
X20226Y-30082D01*
X20202Y-30085D01*
X20178Y-30090D01*
X20155Y-30097D01*
X20132Y-30107D01*
X20111Y-30118D01*
X20090Y-30131D01*
X20071Y-30146D01*
X20053Y-30163D01*
X20036Y-30181D01*
X20021Y-30200D01*
X20008Y-30221D01*
X19997Y-30242D01*
X19987Y-30265D01*
X19980Y-30288D01*
X19975Y-30312D01*
X19972Y-30336D01*
X19970Y-30360D01*
X19970Y-30640D02*
X19972Y-30664D01*
X19975Y-30688D01*
X19980Y-30712D01*
X19987Y-30735D01*
X19997Y-30758D01*
X20008Y-30779D01*
X20021Y-30800D01*
X20036Y-30819D01*
X20053Y-30837D01*
X20071Y-30854D01*
X20090Y-30869D01*
X20110Y-30882D01*
X20132Y-30893D01*
X20155Y-30903D01*
X20178Y-30910D01*
X20202Y-30915D01*
X20226Y-30918D01*
X20250Y-30920D01*
X20274Y-30918D01*
X20298Y-30915D01*
X20322Y-30910D01*
X20345Y-30903D01*
X20368Y-30893D01*
X20390Y-30882D01*
X20410Y-30869D01*
X20429Y-30854D01*
X20447Y-30837D01*
X20464Y-30819D01*
X20479Y-30800D01*
X20492Y-30780D01*
X20503Y-30758D01*
X20513Y-30735D01*
X20520Y-30712D01*
X20525Y-30688D01*
X20528Y-30664D01*
X20530Y-30640D01*
X21530Y-30640D02*
X21530Y-30360D01*
X20970Y-30640D02*
X20970Y-30360D01*
X21530Y-30360D02*
X21528Y-30336D01*
X21525Y-30312D01*
X21520Y-30288D01*
X21513Y-30265D01*
X21503Y-30242D01*
X21492Y-30220D01*
X21479Y-30200D01*
X21464Y-30181D01*
X21447Y-30163D01*
X21429Y-30146D01*
X21410Y-30131D01*
X21390Y-30118D01*
X21368Y-30107D01*
X21345Y-30097D01*
X21322Y-30090D01*
X21298Y-30085D01*
X21274Y-30082D01*
X21250Y-30080D01*
X21226Y-30082D01*
X21202Y-30085D01*
X21178Y-30090D01*
X21155Y-30097D01*
X21132Y-30107D01*
X21111Y-30118D01*
X21090Y-30131D01*
X21071Y-30146D01*
X21053Y-30163D01*
X21036Y-30181D01*
X21021Y-30200D01*
X21008Y-30221D01*
X20997Y-30242D01*
X20987Y-30265D01*
X20980Y-30288D01*
X20975Y-30312D01*
X20972Y-30336D01*
X20970Y-30360D01*
X20970Y-30640D02*
X20972Y-30664D01*
X20975Y-30688D01*
X20980Y-30712D01*
X20987Y-30735D01*
X20997Y-30758D01*
X21008Y-30779D01*
X21021Y-30800D01*
X21036Y-30819D01*
X21053Y-30837D01*
X21071Y-30854D01*
X21090Y-30869D01*
X21110Y-30882D01*
X21132Y-30893D01*
X21155Y-30903D01*
X21178Y-30910D01*
X21202Y-30915D01*
X21226Y-30918D01*
X21250Y-30920D01*
X21274Y-30918D01*
X21298Y-30915D01*
X21322Y-30910D01*
X21345Y-30903D01*
X21368Y-30893D01*
X21390Y-30882D01*
X21410Y-30869D01*
X21429Y-30854D01*
X21447Y-30837D01*
X21464Y-30819D01*
X21479Y-30800D01*
X21492Y-30780D01*
X21503Y-30758D01*
X21513Y-30735D01*
X21520Y-30712D01*
X21525Y-30688D01*
X21528Y-30664D01*
X21530Y-30640D01*
X22530Y-30640D02*
X22530Y-30360D01*
X21970Y-30640D02*
X21970Y-30360D01*
X22530Y-30360D02*
X22528Y-30336D01*
X22525Y-30312D01*
X22520Y-30288D01*
X22513Y-30265D01*
X22503Y-30242D01*
X22492Y-30220D01*
X22479Y-30200D01*
X22464Y-30181D01*
X22447Y-30163D01*
X22429Y-30146D01*
X22410Y-30131D01*
X22390Y-30118D01*
X22368Y-30107D01*
X22345Y-30097D01*
X22322Y-30090D01*
X22298Y-30085D01*
X22274Y-30082D01*
X22250Y-30080D01*
X22226Y-30082D01*
X22202Y-30085D01*
X22178Y-30090D01*
X22155Y-30097D01*
X22132Y-30107D01*
X22111Y-30118D01*
X22090Y-30131D01*
X22071Y-30146D01*
X22053Y-30163D01*
X22036Y-30181D01*
X22021Y-30200D01*
X22008Y-30221D01*
X21997Y-30242D01*
X21987Y-30265D01*
X21980Y-30288D01*
X21975Y-30312D01*
X21972Y-30336D01*
X21970Y-30360D01*
X21970Y-30640D02*
X21972Y-30664D01*
X21975Y-30688D01*
X21980Y-30712D01*
X21987Y-30735D01*
X21997Y-30758D01*
X22008Y-30779D01*
X22021Y-30800D01*
X22036Y-30819D01*
X22053Y-30837D01*
X22071Y-30854D01*
X22090Y-30869D01*
X22110Y-30882D01*
X22132Y-30893D01*
X22155Y-30903D01*
X22178Y-30910D01*
X22202Y-30915D01*
X22226Y-30918D01*
X22250Y-30920D01*
X22274Y-30918D01*
X22298Y-30915D01*
X22322Y-30910D01*
X22345Y-30903D01*
X22368Y-30893D01*
X22390Y-30882D01*
X22410Y-30869D01*
X22429Y-30854D01*
X22447Y-30837D01*
X22464Y-30819D01*
X22479Y-30800D01*
X22492Y-30780D01*
X22503Y-30758D01*
X22513Y-30735D01*
X22520Y-30712D01*
X22525Y-30688D01*
X22528Y-30664D01*
X22530Y-30640D01*
X23530Y-30640D02*
X23530Y-30360D01*
X22970Y-30640D02*
X22970Y-30360D01*
X23530Y-30360D02*
X23528Y-30336D01*
X23525Y-30312D01*
X23520Y-30288D01*
X23513Y-30265D01*
X23503Y-30242D01*
X23492Y-30220D01*
X23479Y-30200D01*
X23464Y-30181D01*
X23447Y-30163D01*
X23429Y-30146D01*
X23410Y-30131D01*
X23390Y-30118D01*
X23368Y-30107D01*
X23345Y-30097D01*
X23322Y-30090D01*
X23298Y-30085D01*
X23274Y-30082D01*
X23250Y-30080D01*
X23226Y-30082D01*
X23202Y-30085D01*
X23178Y-30090D01*
X23155Y-30097D01*
X23132Y-30107D01*
X23111Y-30118D01*
X23090Y-30131D01*
X23071Y-30146D01*
X23053Y-30163D01*
X23036Y-30181D01*
X23021Y-30200D01*
X23008Y-30221D01*
X22997Y-30242D01*
X22987Y-30265D01*
X22980Y-30288D01*
X22975Y-30312D01*
X22972Y-30336D01*
X22970Y-30360D01*
X22970Y-30640D02*
X22972Y-30664D01*
X22975Y-30688D01*
X22980Y-30712D01*
X22987Y-30735D01*
X22997Y-30758D01*
X23008Y-30779D01*
X23021Y-30800D01*
X23036Y-30819D01*
X23053Y-30837D01*
X23071Y-30854D01*
X23090Y-30869D01*
X23110Y-30882D01*
X23132Y-30893D01*
X23155Y-30903D01*
X23178Y-30910D01*
X23202Y-30915D01*
X23226Y-30918D01*
X23250Y-30920D01*
X23274Y-30918D01*
X23298Y-30915D01*
X23322Y-30910D01*
X23345Y-30903D01*
X23368Y-30893D01*
X23390Y-30882D01*
X23410Y-30869D01*
X23429Y-30854D01*
X23447Y-30837D01*
X23464Y-30819D01*
X23479Y-30800D01*
X23492Y-30780D01*
X23503Y-30758D01*
X23513Y-30735D01*
X23520Y-30712D01*
X23525Y-30688D01*
X23528Y-30664D01*
X23530Y-30640D01*
X24530Y-30640D02*
X24530Y-30360D01*
X23970Y-30640D02*
X23970Y-30360D01*
X24530Y-30360D02*
X24528Y-30336D01*
X24525Y-30312D01*
X24520Y-30288D01*
X24513Y-30265D01*
X24503Y-30242D01*
X24492Y-30220D01*
X24479Y-30200D01*
X24464Y-30181D01*
X24447Y-30163D01*
X24429Y-30146D01*
X24410Y-30131D01*
X24390Y-30118D01*
X24368Y-30107D01*
X24345Y-30097D01*
X24322Y-30090D01*
X24298Y-30085D01*
X24274Y-30082D01*
X24250Y-30080D01*
X24226Y-30082D01*
X24202Y-30085D01*
X24178Y-30090D01*
X24155Y-30097D01*
X24132Y-30107D01*
X24111Y-30118D01*
X24090Y-30131D01*
X24071Y-30146D01*
X24053Y-30163D01*
X24036Y-30181D01*
X24021Y-30200D01*
X24008Y-30221D01*
X23997Y-30242D01*
X23987Y-30265D01*
X23980Y-30288D01*
X23975Y-30312D01*
X23972Y-30336D01*
X23970Y-30360D01*
X23970Y-30640D02*
X23972Y-30664D01*
X23975Y-30688D01*
X23980Y-30712D01*
X23987Y-30735D01*
X23997Y-30758D01*
X24008Y-30779D01*
X24021Y-30800D01*
X24036Y-30819D01*
X24053Y-30837D01*
X24071Y-30854D01*
X24090Y-30869D01*
X24110Y-30882D01*
X24132Y-30893D01*
X24155Y-30903D01*
X24178Y-30910D01*
X24202Y-30915D01*
X24226Y-30918D01*
X24250Y-30920D01*
X24274Y-30918D01*
X24298Y-30915D01*
X24322Y-30910D01*
X24345Y-30903D01*
X24368Y-30893D01*
X24390Y-30882D01*
X24410Y-30869D01*
X24429Y-30854D01*
X24447Y-30837D01*
X24464Y-30819D01*
X24479Y-30800D01*
X24492Y-30780D01*
X24503Y-30758D01*
X24513Y-30735D01*
X24520Y-30712D01*
X24525Y-30688D01*
X24528Y-30664D01*
X24530Y-30640D01*
X25530Y-30640D02*
X25530Y-30360D01*
X24970Y-30640D02*
X24970Y-30360D01*
X25530Y-30360D02*
X25528Y-30336D01*
X25525Y-30312D01*
X25520Y-30288D01*
X25513Y-30265D01*
X25503Y-30242D01*
X25492Y-30220D01*
X25479Y-30200D01*
X25464Y-30181D01*
X25447Y-30163D01*
X25429Y-30146D01*
X25410Y-30131D01*
X25390Y-30118D01*
X25368Y-30107D01*
X25345Y-30097D01*
X25322Y-30090D01*
X25298Y-30085D01*
X25274Y-30082D01*
X25250Y-30080D01*
X25226Y-30082D01*
X25202Y-30085D01*
X25178Y-30090D01*
X25155Y-30097D01*
X25132Y-30107D01*
X25111Y-30118D01*
X25090Y-30131D01*
X25071Y-30146D01*
X25053Y-30163D01*
X25036Y-30181D01*
X25021Y-30200D01*
X25008Y-30221D01*
X24997Y-30242D01*
X24987Y-30265D01*
X24980Y-30288D01*
X24975Y-30312D01*
X24972Y-30336D01*
X24970Y-30360D01*
X24970Y-30640D02*
X24972Y-30664D01*
X24975Y-30688D01*
X24980Y-30712D01*
X24987Y-30735D01*
X24997Y-30758D01*
X25008Y-30779D01*
X25021Y-30800D01*
X25036Y-30819D01*
X25053Y-30837D01*
X25071Y-30854D01*
X25090Y-30869D01*
X25110Y-30882D01*
X25132Y-30893D01*
X25155Y-30903D01*
X25178Y-30910D01*
X25202Y-30915D01*
X25226Y-30918D01*
X25250Y-30920D01*
X25274Y-30918D01*
X25298Y-30915D01*
X25322Y-30910D01*
X25345Y-30903D01*
X25368Y-30893D01*
X25390Y-30882D01*
X25410Y-30869D01*
X25429Y-30854D01*
X25447Y-30837D01*
X25464Y-30819D01*
X25479Y-30800D01*
X25492Y-30780D01*
X25503Y-30758D01*
X25513Y-30735D01*
X25520Y-30712D01*
X25525Y-30688D01*
X25528Y-30664D01*
X25530Y-30640D01*
X26530Y-30640D02*
X26530Y-30360D01*
X25970Y-30640D02*
X25970Y-30360D01*
X26530Y-30360D02*
X26528Y-30336D01*
X26525Y-30312D01*
X26520Y-30288D01*
X26513Y-30265D01*
X26503Y-30242D01*
X26492Y-30220D01*
X26479Y-30200D01*
X26464Y-30181D01*
X26447Y-30163D01*
X26429Y-30146D01*
X26410Y-30131D01*
X26390Y-30118D01*
X26368Y-30107D01*
X26345Y-30097D01*
X26322Y-30090D01*
X26298Y-30085D01*
X26274Y-30082D01*
X26250Y-30080D01*
X26226Y-30082D01*
X26202Y-30085D01*
X26178Y-30090D01*
X26155Y-30097D01*
X26132Y-30107D01*
X26111Y-30118D01*
X26090Y-30131D01*
X26071Y-30146D01*
X26053Y-30163D01*
X26036Y-30181D01*
X26021Y-30200D01*
X26008Y-30221D01*
X25997Y-30242D01*
X25987Y-30265D01*
X25980Y-30288D01*
X25975Y-30312D01*
X25972Y-30336D01*
X25970Y-30360D01*
X25970Y-30640D02*
X25972Y-30664D01*
X25975Y-30688D01*
X25980Y-30712D01*
X25987Y-30735D01*
X25997Y-30758D01*
X26008Y-30779D01*
X26021Y-30800D01*
X26036Y-30819D01*
X26053Y-30837D01*
X26071Y-30854D01*
X26090Y-30869D01*
X26110Y-30882D01*
X26132Y-30893D01*
X26155Y-30903D01*
X26178Y-30910D01*
X26202Y-30915D01*
X26226Y-30918D01*
X26250Y-30920D01*
X26274Y-30918D01*
X26298Y-30915D01*
X26322Y-30910D01*
X26345Y-30903D01*
X26368Y-30893D01*
X26390Y-30882D01*
X26410Y-30869D01*
X26429Y-30854D01*
X26447Y-30837D01*
X26464Y-30819D01*
X26479Y-30800D01*
X26492Y-30780D01*
X26503Y-30758D01*
X26513Y-30735D01*
X26520Y-30712D01*
X26525Y-30688D01*
X26528Y-30664D01*
X26530Y-30640D01*
X27530Y-30640D02*
X27530Y-30360D01*
X26970Y-30640D02*
X26970Y-30360D01*
X27530Y-30360D02*
X27528Y-30336D01*
X27525Y-30312D01*
X27520Y-30288D01*
X27513Y-30265D01*
X27503Y-30242D01*
X27492Y-30220D01*
X27479Y-30200D01*
X27464Y-30181D01*
X27447Y-30163D01*
X27429Y-30146D01*
X27410Y-30131D01*
X27390Y-30118D01*
X27368Y-30107D01*
X27345Y-30097D01*
X27322Y-30090D01*
X27298Y-30085D01*
X27274Y-30082D01*
X27250Y-30080D01*
X27226Y-30082D01*
X27202Y-30085D01*
X27178Y-30090D01*
X27155Y-30097D01*
X27132Y-30107D01*
X27111Y-30118D01*
X27090Y-30131D01*
X27071Y-30146D01*
X27053Y-30163D01*
X27036Y-30181D01*
X27021Y-30200D01*
X27008Y-30221D01*
X26997Y-30242D01*
X26987Y-30265D01*
X26980Y-30288D01*
X26975Y-30312D01*
X26972Y-30336D01*
X26970Y-30360D01*
X26970Y-30640D02*
X26972Y-30664D01*
X26975Y-30688D01*
X26980Y-30712D01*
X26987Y-30735D01*
X26997Y-30758D01*
X27008Y-30779D01*
X27021Y-30800D01*
X27036Y-30819D01*
X27053Y-30837D01*
X27071Y-30854D01*
X27090Y-30869D01*
X27110Y-30882D01*
X27132Y-30893D01*
X27155Y-30903D01*
X27178Y-30910D01*
X27202Y-30915D01*
X27226Y-30918D01*
X27250Y-30920D01*
X27274Y-30918D01*
X27298Y-30915D01*
X27322Y-30910D01*
X27345Y-30903D01*
X27368Y-30893D01*
X27390Y-30882D01*
X27410Y-30869D01*
X27429Y-30854D01*
X27447Y-30837D01*
X27464Y-30819D01*
X27479Y-30800D01*
X27492Y-30780D01*
X27503Y-30758D01*
X27513Y-30735D01*
X27520Y-30712D01*
X27525Y-30688D01*
X27528Y-30664D01*
X27530Y-30640D01*
X28530Y-30640D02*
X28530Y-30360D01*
X27970Y-30640D02*
X27970Y-30360D01*
X28530Y-30360D02*
X28528Y-30336D01*
X28525Y-30312D01*
X28520Y-30288D01*
X28513Y-30265D01*
X28503Y-30242D01*
X28492Y-30220D01*
X28479Y-30200D01*
X28464Y-30181D01*
X28447Y-30163D01*
X28429Y-30146D01*
X28410Y-30131D01*
X28390Y-30118D01*
X28368Y-30107D01*
X28345Y-30097D01*
X28322Y-30090D01*
X28298Y-30085D01*
X28274Y-30082D01*
X28250Y-30080D01*
X28226Y-30082D01*
X28202Y-30085D01*
X28178Y-30090D01*
X28155Y-30097D01*
X28132Y-30107D01*
X28111Y-30118D01*
X28090Y-30131D01*
X28071Y-30146D01*
X28053Y-30163D01*
X28036Y-30181D01*
X28021Y-30200D01*
X28008Y-30221D01*
X27997Y-30242D01*
X27987Y-30265D01*
X27980Y-30288D01*
X27975Y-30312D01*
X27972Y-30336D01*
X27970Y-30360D01*
X27970Y-30640D02*
X27972Y-30664D01*
X27975Y-30688D01*
X27980Y-30712D01*
X27987Y-30735D01*
X27997Y-30758D01*
X28008Y-30779D01*
X28021Y-30800D01*
X28036Y-30819D01*
X28053Y-30837D01*
X28071Y-30854D01*
X28090Y-30869D01*
X28110Y-30882D01*
X28132Y-30893D01*
X28155Y-30903D01*
X28178Y-30910D01*
X28202Y-30915D01*
X28226Y-30918D01*
X28250Y-30920D01*
X28274Y-30918D01*
X28298Y-30915D01*
X28322Y-30910D01*
X28345Y-30903D01*
X28368Y-30893D01*
X28390Y-30882D01*
X28410Y-30869D01*
X28429Y-30854D01*
X28447Y-30837D01*
X28464Y-30819D01*
X28479Y-30800D01*
X28492Y-30780D01*
X28503Y-30758D01*
X28513Y-30735D01*
X28520Y-30712D01*
X28525Y-30688D01*
X28528Y-30664D01*
X28530Y-30640D01*
X29530Y-30640D02*
X29530Y-30360D01*
X28970Y-30640D02*
X28970Y-30360D01*
X29530Y-30360D02*
X29528Y-30336D01*
X29525Y-30312D01*
X29520Y-30288D01*
X29513Y-30265D01*
X29503Y-30242D01*
X29492Y-30220D01*
X29479Y-30200D01*
X29464Y-30181D01*
X29447Y-30163D01*
X29429Y-30146D01*
X29410Y-30131D01*
X29390Y-30118D01*
X29368Y-30107D01*
X29345Y-30097D01*
X29322Y-30090D01*
X29298Y-30085D01*
X29274Y-30082D01*
X29250Y-30080D01*
X29226Y-30082D01*
X29202Y-30085D01*
X29178Y-30090D01*
X29155Y-30097D01*
X29132Y-30107D01*
X29111Y-30118D01*
X29090Y-30131D01*
X29071Y-30146D01*
X29053Y-30163D01*
X29036Y-30181D01*
X29021Y-30200D01*
X29008Y-30221D01*
X28997Y-30242D01*
X28987Y-30265D01*
X28980Y-30288D01*
X28975Y-30312D01*
X28972Y-30336D01*
X28970Y-30360D01*
X28970Y-30640D02*
X28972Y-30664D01*
X28975Y-30688D01*
X28980Y-30712D01*
X28987Y-30735D01*
X28997Y-30758D01*
X29008Y-30779D01*
X29021Y-30800D01*
X29036Y-30819D01*
X29053Y-30837D01*
X29071Y-30854D01*
X29090Y-30869D01*
X29110Y-30882D01*
X29132Y-30893D01*
X29155Y-30903D01*
X29178Y-30910D01*
X29202Y-30915D01*
X29226Y-30918D01*
X29250Y-30920D01*
X29274Y-30918D01*
X29298Y-30915D01*
X29322Y-30910D01*
X29345Y-30903D01*
X29368Y-30893D01*
X29390Y-30882D01*
X29410Y-30869D01*
X29429Y-30854D01*
X29447Y-30837D01*
X29464Y-30819D01*
X29479Y-30800D01*
X29492Y-30780D01*
X29503Y-30758D01*
X29513Y-30735D01*
X29520Y-30712D01*
X29525Y-30688D01*
X29528Y-30664D01*
X29530Y-30640D01*
X30530Y-30640D02*
X30530Y-30360D01*
X29970Y-30640D02*
X29970Y-30360D01*
X30530Y-30360D02*
X30528Y-30336D01*
X30525Y-30312D01*
X30520Y-30288D01*
X30513Y-30265D01*
X30503Y-30242D01*
X30492Y-30220D01*
X30479Y-30200D01*
X30464Y-30181D01*
X30447Y-30163D01*
X30429Y-30146D01*
X30410Y-30131D01*
X30390Y-30118D01*
X30368Y-30107D01*
X30345Y-30097D01*
X30322Y-30090D01*
X30298Y-30085D01*
X30274Y-30082D01*
X30250Y-30080D01*
X30226Y-30082D01*
X30202Y-30085D01*
X30178Y-30090D01*
X30155Y-30097D01*
X30132Y-30107D01*
X30111Y-30118D01*
X30090Y-30131D01*
X30071Y-30146D01*
X30053Y-30163D01*
X30036Y-30181D01*
X30021Y-30200D01*
X30008Y-30221D01*
X29997Y-30242D01*
X29987Y-30265D01*
X29980Y-30288D01*
X29975Y-30312D01*
X29972Y-30336D01*
X29970Y-30360D01*
X29970Y-30640D02*
X29972Y-30664D01*
X29975Y-30688D01*
X29980Y-30712D01*
X29987Y-30735D01*
X29997Y-30758D01*
X30008Y-30779D01*
X30021Y-30800D01*
X30036Y-30819D01*
X30053Y-30837D01*
X30071Y-30854D01*
X30090Y-30869D01*
X30110Y-30882D01*
X30132Y-30893D01*
X30155Y-30903D01*
X30178Y-30910D01*
X30202Y-30915D01*
X30226Y-30918D01*
X30250Y-30920D01*
X30274Y-30918D01*
X30298Y-30915D01*
X30322Y-30910D01*
X30345Y-30903D01*
X30368Y-30893D01*
X30390Y-30882D01*
X30410Y-30869D01*
X30429Y-30854D01*
X30447Y-30837D01*
X30464Y-30819D01*
X30479Y-30800D01*
X30492Y-30780D01*
X30503Y-30758D01*
X30513Y-30735D01*
X30520Y-30712D01*
X30525Y-30688D01*
X30528Y-30664D01*
X30530Y-30640D01*
X31530Y-30640D02*
X31530Y-30360D01*
X30970Y-30640D02*
X30970Y-30360D01*
X31530Y-30360D02*
X31528Y-30336D01*
X31525Y-30312D01*
X31520Y-30288D01*
X31513Y-30265D01*
X31503Y-30242D01*
X31492Y-30220D01*
X31479Y-30200D01*
X31464Y-30181D01*
X31447Y-30163D01*
X31429Y-30146D01*
X31410Y-30131D01*
X31390Y-30118D01*
X31368Y-30107D01*
X31345Y-30097D01*
X31322Y-30090D01*
X31298Y-30085D01*
X31274Y-30082D01*
X31250Y-30080D01*
X31226Y-30082D01*
X31202Y-30085D01*
X31178Y-30090D01*
X31155Y-30097D01*
X31132Y-30107D01*
X31111Y-30118D01*
X31090Y-30131D01*
X31071Y-30146D01*
X31053Y-30163D01*
X31036Y-30181D01*
X31021Y-30200D01*
X31008Y-30221D01*
X30997Y-30242D01*
X30987Y-30265D01*
X30980Y-30288D01*
X30975Y-30312D01*
X30972Y-30336D01*
X30970Y-30360D01*
X30970Y-30640D02*
X30972Y-30664D01*
X30975Y-30688D01*
X30980Y-30712D01*
X30987Y-30735D01*
X30997Y-30758D01*
X31008Y-30779D01*
X31021Y-30800D01*
X31036Y-30819D01*
X31053Y-30837D01*
X31071Y-30854D01*
X31090Y-30869D01*
X31110Y-30882D01*
X31132Y-30893D01*
X31155Y-30903D01*
X31178Y-30910D01*
X31202Y-30915D01*
X31226Y-30918D01*
X31250Y-30920D01*
X31274Y-30918D01*
X31298Y-30915D01*
X31322Y-30910D01*
X31345Y-30903D01*
X31368Y-30893D01*
X31390Y-30882D01*
X31410Y-30869D01*
X31429Y-30854D01*
X31447Y-30837D01*
X31464Y-30819D01*
X31479Y-30800D01*
X31492Y-30780D01*
X31503Y-30758D01*
X31513Y-30735D01*
X31520Y-30712D01*
X31525Y-30688D01*
X31528Y-30664D01*
X31530Y-30640D01*
X32530Y-30640D02*
X32530Y-30360D01*
X31970Y-30640D02*
X31970Y-30360D01*
X32530Y-30360D02*
X32528Y-30336D01*
X32525Y-30312D01*
X32520Y-30288D01*
X32513Y-30265D01*
X32503Y-30242D01*
X32492Y-30220D01*
X32479Y-30200D01*
X32464Y-30181D01*
X32447Y-30163D01*
X32429Y-30146D01*
X32410Y-30131D01*
X32390Y-30118D01*
X32368Y-30107D01*
X32345Y-30097D01*
X32322Y-30090D01*
X32298Y-30085D01*
X32274Y-30082D01*
X32250Y-30080D01*
X32226Y-30082D01*
X32202Y-30085D01*
X32178Y-30090D01*
X32155Y-30097D01*
X32132Y-30107D01*
X32111Y-30118D01*
X32090Y-30131D01*
X32071Y-30146D01*
X32053Y-30163D01*
X32036Y-30181D01*
X32021Y-30200D01*
X32008Y-30221D01*
X31997Y-30242D01*
X31987Y-30265D01*
X31980Y-30288D01*
X31975Y-30312D01*
X31972Y-30336D01*
X31970Y-30360D01*
X31970Y-30640D02*
X31972Y-30664D01*
X31975Y-30688D01*
X31980Y-30712D01*
X31987Y-30735D01*
X31997Y-30758D01*
X32008Y-30779D01*
X32021Y-30800D01*
X32036Y-30819D01*
X32053Y-30837D01*
X32071Y-30854D01*
X32090Y-30869D01*
X32110Y-30882D01*
X32132Y-30893D01*
X32155Y-30903D01*
X32178Y-30910D01*
X32202Y-30915D01*
X32226Y-30918D01*
X32250Y-30920D01*
X32274Y-30918D01*
X32298Y-30915D01*
X32322Y-30910D01*
X32345Y-30903D01*
X32368Y-30893D01*
X32390Y-30882D01*
X32410Y-30869D01*
X32429Y-30854D01*
X32447Y-30837D01*
X32464Y-30819D01*
X32479Y-30800D01*
X32492Y-30780D01*
X32503Y-30758D01*
X32513Y-30735D01*
X32520Y-30712D01*
X32525Y-30688D01*
X32528Y-30664D01*
X32530Y-30640D01*
X37305Y-23355D02*
X37305Y-23845D01*
X37795Y-23845D01*
X37795Y-23355D01*
X37305Y-23355D01*
X37795Y-24600D02*
X37790Y-24647D01*
X37776Y-24693D01*
X37754Y-24735D01*
X37723Y-24772D01*
X37687Y-24803D01*
X37644Y-24825D01*
X37599Y-24839D01*
X37551Y-24844D01*
X37505Y-24840D01*
X37459Y-24827D01*
X37416Y-24805D01*
X37379Y-24775D01*
X37348Y-24738D01*
X37325Y-24696D01*
X37311Y-24650D01*
X37306Y-24603D01*
X37310Y-24556D01*
X37323Y-24510D01*
X37345Y-24468D01*
X37374Y-24430D01*
X37411Y-24399D01*
X37452Y-24376D01*
X37498Y-24361D01*
X37545Y-24356D01*
X37592Y-24359D01*
X37638Y-24372D01*
X37681Y-24394D01*
X37718Y-24423D01*
X37750Y-24459D01*
X37773Y-24501D01*
X37788Y-24546D01*
X37794Y-24594D01*
X37795Y-24600D01*
X31005Y-24755D02*
X31005Y-25245D01*
X31495Y-25245D01*
X31495Y-24755D01*
X31005Y-24755D01*
X31495Y-26000D02*
X31490Y-26047D01*
X31476Y-26093D01*
X31454Y-26135D01*
X31423Y-26172D01*
X31387Y-26203D01*
X31344Y-26225D01*
X31299Y-26239D01*
X31251Y-26244D01*
X31205Y-26240D01*
X31159Y-26227D01*
X31116Y-26205D01*
X31079Y-26175D01*
X31048Y-26138D01*
X31025Y-26096D01*
X31011Y-26050D01*
X31006Y-26003D01*
X31010Y-25956D01*
X31023Y-25910D01*
X31045Y-25868D01*
X31074Y-25830D01*
X31111Y-25799D01*
X31152Y-25776D01*
X31198Y-25761D01*
X31245Y-25756D01*
X31292Y-25759D01*
X31338Y-25772D01*
X31381Y-25794D01*
X31418Y-25823D01*
X31450Y-25859D01*
X31473Y-25901D01*
X31488Y-25946D01*
X31494Y-25994D01*
X31495Y-26000D01*
X29005Y-24755D02*
X29005Y-25245D01*
X29495Y-25245D01*
X29495Y-24755D01*
X29005Y-24755D01*
X29495Y-26000D02*
X29490Y-26047D01*
X29476Y-26093D01*
X29454Y-26135D01*
X29423Y-26172D01*
X29387Y-26203D01*
X29344Y-26225D01*
X29299Y-26239D01*
X29251Y-26244D01*
X29205Y-26240D01*
X29159Y-26227D01*
X29116Y-26205D01*
X29079Y-26175D01*
X29048Y-26138D01*
X29025Y-26096D01*
X29011Y-26050D01*
X29006Y-26003D01*
X29010Y-25956D01*
X29023Y-25910D01*
X29045Y-25868D01*
X29074Y-25830D01*
X29111Y-25799D01*
X29152Y-25776D01*
X29198Y-25761D01*
X29245Y-25756D01*
X29292Y-25759D01*
X29338Y-25772D01*
X29381Y-25794D01*
X29418Y-25823D01*
X29450Y-25859D01*
X29473Y-25901D01*
X29488Y-25946D01*
X29494Y-25994D01*
X29495Y-26000D01*
X24820Y-25500D02*
X24813Y-25562D01*
X24795Y-25621D01*
X24766Y-25677D01*
X24727Y-25725D01*
X24678Y-25765D01*
X24624Y-25794D01*
X24564Y-25813D01*
X24502Y-25819D01*
X24441Y-25814D01*
X24381Y-25796D01*
X24325Y-25767D01*
X24277Y-25728D01*
X24236Y-25680D01*
X24206Y-25626D01*
X24187Y-25566D01*
X24181Y-25504D01*
X24186Y-25443D01*
X24203Y-25383D01*
X24232Y-25327D01*
X24270Y-25278D01*
X24318Y-25238D01*
X24372Y-25207D01*
X24432Y-25188D01*
X24494Y-25181D01*
X24555Y-25185D01*
X24615Y-25202D01*
X24671Y-25230D01*
X24720Y-25269D01*
X24761Y-25316D01*
X24792Y-25370D01*
X24812Y-25430D01*
X24819Y-25492D01*
X24820Y-25500D01*
X26820Y-25500D02*
X26813Y-25562D01*
X26795Y-25621D01*
X26766Y-25677D01*
X26727Y-25725D01*
X26678Y-25765D01*
X26624Y-25794D01*
X26564Y-25813D01*
X26502Y-25819D01*
X26441Y-25814D01*
X26381Y-25796D01*
X26325Y-25767D01*
X26277Y-25728D01*
X26236Y-25680D01*
X26206Y-25626D01*
X26187Y-25566D01*
X26181Y-25504D01*
X26186Y-25443D01*
X26203Y-25383D01*
X26232Y-25327D01*
X26270Y-25278D01*
X26318Y-25238D01*
X26372Y-25207D01*
X26432Y-25188D01*
X26494Y-25181D01*
X26555Y-25185D01*
X26615Y-25202D01*
X26671Y-25230D01*
X26720Y-25269D01*
X26761Y-25316D01*
X26792Y-25370D01*
X26812Y-25430D01*
X26819Y-25492D01*
X26820Y-25500D01*
X30455Y-31755D02*
X30455Y-32245D01*
X30945Y-32245D01*
X30945Y-31755D01*
X30455Y-31755D01*
X31945Y-32000D02*
X31940Y-32047D01*
X31926Y-32093D01*
X31904Y-32135D01*
X31873Y-32172D01*
X31837Y-32203D01*
X31794Y-32225D01*
X31749Y-32239D01*
X31701Y-32244D01*
X31655Y-32240D01*
X31609Y-32227D01*
X31566Y-32205D01*
X31529Y-32175D01*
X31498Y-32138D01*
X31475Y-32096D01*
X31461Y-32050D01*
X31456Y-32003D01*
X31460Y-31956D01*
X31473Y-31910D01*
X31495Y-31868D01*
X31524Y-31830D01*
X31561Y-31799D01*
X31602Y-31776D01*
X31648Y-31761D01*
X31695Y-31756D01*
X31742Y-31759D01*
X31788Y-31772D01*
X31831Y-31794D01*
X31868Y-31823D01*
X31900Y-31859D01*
X31923Y-31901D01*
X31938Y-31946D01*
X31944Y-31994D01*
X31945Y-32000D01*
X32945Y-32000D02*
X32940Y-32047D01*
X32926Y-32093D01*
X32904Y-32135D01*
X32873Y-32172D01*
X32837Y-32203D01*
X32794Y-32225D01*
X32749Y-32239D01*
X32701Y-32244D01*
X32655Y-32240D01*
X32609Y-32227D01*
X32566Y-32205D01*
X32529Y-32175D01*
X32498Y-32138D01*
X32475Y-32096D01*
X32461Y-32050D01*
X32456Y-32003D01*
X32460Y-31956D01*
X32473Y-31910D01*
X32495Y-31868D01*
X32524Y-31830D01*
X32561Y-31799D01*
X32602Y-31776D01*
X32648Y-31761D01*
X32695Y-31756D01*
X32742Y-31759D01*
X32788Y-31772D01*
X32831Y-31794D01*
X32868Y-31823D01*
X32900Y-31859D01*
X32923Y-31901D01*
X32938Y-31946D01*
X32944Y-31994D01*
X32945Y-32000D01*
X33945Y-32000D02*
X33940Y-32047D01*
X33926Y-32093D01*
X33904Y-32135D01*
X33873Y-32172D01*
X33837Y-32203D01*
X33794Y-32225D01*
X33749Y-32239D01*
X33701Y-32244D01*
X33655Y-32240D01*
X33609Y-32227D01*
X33566Y-32205D01*
X33529Y-32175D01*
X33498Y-32138D01*
X33475Y-32096D01*
X33461Y-32050D01*
X33456Y-32003D01*
X33460Y-31956D01*
X33473Y-31910D01*
X33495Y-31868D01*
X33524Y-31830D01*
X33561Y-31799D01*
X33602Y-31776D01*
X33648Y-31761D01*
X33695Y-31756D01*
X33742Y-31759D01*
X33788Y-31772D01*
X33831Y-31794D01*
X33868Y-31823D01*
X33900Y-31859D01*
X33923Y-31901D01*
X33938Y-31946D01*
X33944Y-31994D01*
X33945Y-32000D01*
X34945Y-32000D02*
X34940Y-32047D01*
X34926Y-32093D01*
X34904Y-32135D01*
X34873Y-32172D01*
X34837Y-32203D01*
X34794Y-32225D01*
X34749Y-32239D01*
X34701Y-32244D01*
X34655Y-32240D01*
X34609Y-32227D01*
X34566Y-32205D01*
X34529Y-32175D01*
X34498Y-32138D01*
X34475Y-32096D01*
X34461Y-32050D01*
X34456Y-32003D01*
X34460Y-31956D01*
X34473Y-31910D01*
X34495Y-31868D01*
X34524Y-31830D01*
X34561Y-31799D01*
X34602Y-31776D01*
X34648Y-31761D01*
X34695Y-31756D01*
X34742Y-31759D01*
X34788Y-31772D01*
X34831Y-31794D01*
X34868Y-31823D01*
X34900Y-31859D01*
X34923Y-31901D01*
X34938Y-31946D01*
X34944Y-31994D01*
X34945Y-32000D01*
X42855Y-26505D02*
X42855Y-26995D01*
X43345Y-26995D01*
X43345Y-26505D01*
X42855Y-26505D01*
X43345Y-25750D02*
X43340Y-25797D01*
X43326Y-25843D01*
X43304Y-25885D01*
X43273Y-25922D01*
X43237Y-25953D01*
X43194Y-25975D01*
X43149Y-25989D01*
X43101Y-25994D01*
X43055Y-25990D01*
X43009Y-25977D01*
X42966Y-25955D01*
X42929Y-25925D01*
X42898Y-25888D01*
X42875Y-25846D01*
X42861Y-25800D01*
X42856Y-25753D01*
X42860Y-25706D01*
X42873Y-25660D01*
X42895Y-25618D01*
X42924Y-25580D01*
X42961Y-25549D01*
X43002Y-25526D01*
X43048Y-25511D01*
X43095Y-25506D01*
X43142Y-25509D01*
X43188Y-25522D01*
X43231Y-25544D01*
X43268Y-25573D01*
X43300Y-25609D01*
X43323Y-25651D01*
X43338Y-25696D01*
X43344Y-25744D01*
X43345Y-25750D01*
X43345Y-24750D02*
X43340Y-24797D01*
X43326Y-24843D01*
X43304Y-24885D01*
X43273Y-24922D01*
X43237Y-24953D01*
X43194Y-24975D01*
X43149Y-24989D01*
X43101Y-24994D01*
X43055Y-24990D01*
X43009Y-24977D01*
X42966Y-24955D01*
X42929Y-24925D01*
X42898Y-24888D01*
X42875Y-24846D01*
X42861Y-24800D01*
X42856Y-24753D01*
X42860Y-24706D01*
X42873Y-24660D01*
X42895Y-24618D01*
X42924Y-24580D01*
X42961Y-24549D01*
X43002Y-24526D01*
X43048Y-24511D01*
X43095Y-24506D01*
X43142Y-24509D01*
X43188Y-24522D01*
X43231Y-24544D01*
X43268Y-24573D01*
X43300Y-24609D01*
X43323Y-24651D01*
X43338Y-24696D01*
X43344Y-24744D01*
X43345Y-24750D01*
X43345Y-23750D02*
X43340Y-23797D01*
X43326Y-23843D01*
X43304Y-23885D01*
X43273Y-23922D01*
X43237Y-23953D01*
X43194Y-23975D01*
X43149Y-23989D01*
X43101Y-23994D01*
X43055Y-23990D01*
X43009Y-23977D01*
X42966Y-23955D01*
X42929Y-23925D01*
X42898Y-23888D01*
X42875Y-23846D01*
X42861Y-23800D01*
X42856Y-23753D01*
X42860Y-23706D01*
X42873Y-23660D01*
X42895Y-23618D01*
X42924Y-23580D01*
X42961Y-23549D01*
X43002Y-23526D01*
X43048Y-23511D01*
X43095Y-23506D01*
X43142Y-23509D01*
X43188Y-23522D01*
X43231Y-23544D01*
X43268Y-23573D01*
X43300Y-23609D01*
X43323Y-23651D01*
X43338Y-23696D01*
X43344Y-23744D01*
X43345Y-23750D01*
X43345Y-22750D02*
X43340Y-22797D01*
X43326Y-22843D01*
X43304Y-22885D01*
X43273Y-22922D01*
X43237Y-22953D01*
X43194Y-22975D01*
X43149Y-22989D01*
X43101Y-22994D01*
X43055Y-22990D01*
X43009Y-22977D01*
X42966Y-22955D01*
X42929Y-22925D01*
X42898Y-22888D01*
X42875Y-22846D01*
X42861Y-22800D01*
X42856Y-22753D01*
X42860Y-22706D01*
X42873Y-22660D01*
X42895Y-22618D01*
X42924Y-22580D01*
X42961Y-22549D01*
X43002Y-22526D01*
X43048Y-22511D01*
X43095Y-22506D01*
X43142Y-22509D01*
X43188Y-22522D01*
X43231Y-22544D01*
X43268Y-22573D01*
X43300Y-22609D01*
X43323Y-22651D01*
X43338Y-22696D01*
X43344Y-22744D01*
X43345Y-22750D01*
X32261Y-23587D02*
X32261Y-24413D01*
X33087Y-24413D01*
X33087Y-23587D01*
X32261Y-23587D01*
X36039Y-24000D02*
X36031Y-24080D01*
X36007Y-24157D01*
X35969Y-24228D01*
X35919Y-24291D01*
X35856Y-24342D01*
X35786Y-24380D01*
X35709Y-24404D01*
X35628Y-24412D01*
X35549Y-24405D01*
X35472Y-24382D01*
X35400Y-24345D01*
X35338Y-24295D01*
X35286Y-24233D01*
X35247Y-24162D01*
X35223Y-24085D01*
X35214Y-24005D01*
X35220Y-23926D01*
X35243Y-23848D01*
X35279Y-23777D01*
X35329Y-23714D01*
X35391Y-23661D01*
X35461Y-23622D01*
X35538Y-23597D01*
X35618Y-23588D01*
X35697Y-23594D01*
X35775Y-23615D01*
X35847Y-23652D01*
X35910Y-23701D01*
X35963Y-23762D01*
X36003Y-23833D01*
X36028Y-23909D01*
X36038Y-23989D01*
X36039Y-24000D01*
X35055Y-24000D02*
X35047Y-24080D01*
X35023Y-24157D01*
X34985Y-24228D01*
X34935Y-24291D01*
X34872Y-24342D01*
X34802Y-24380D01*
X34725Y-24404D01*
X34644Y-24412D01*
X34565Y-24405D01*
X34488Y-24382D01*
X34416Y-24345D01*
X34354Y-24295D01*
X34302Y-24233D01*
X34263Y-24162D01*
X34239Y-24085D01*
X34230Y-24005D01*
X34236Y-23926D01*
X34259Y-23848D01*
X34295Y-23777D01*
X34345Y-23714D01*
X34407Y-23661D01*
X34477Y-23622D01*
X34554Y-23597D01*
X34634Y-23588D01*
X34713Y-23594D01*
X34791Y-23615D01*
X34863Y-23652D01*
X34926Y-23701D01*
X34979Y-23762D01*
X35019Y-23833D01*
X35044Y-23909D01*
X35054Y-23989D01*
X35055Y-24000D01*
X33813Y-32987D02*
X33813Y-33813D01*
X34639Y-33813D01*
X34639Y-32987D01*
X33813Y-32987D01*
X31687Y-33400D02*
X31679Y-33480D01*
X31655Y-33557D01*
X31617Y-33628D01*
X31567Y-33691D01*
X31504Y-33742D01*
X31434Y-33780D01*
X31357Y-33804D01*
X31276Y-33812D01*
X31197Y-33805D01*
X31120Y-33782D01*
X31048Y-33745D01*
X30986Y-33695D01*
X30934Y-33633D01*
X30895Y-33562D01*
X30871Y-33485D01*
X30862Y-33405D01*
X30868Y-33326D01*
X30891Y-33248D01*
X30927Y-33177D01*
X30977Y-33114D01*
X31039Y-33061D01*
X31109Y-33022D01*
X31186Y-32997D01*
X31266Y-32988D01*
X31345Y-32994D01*
X31423Y-33015D01*
X31495Y-33052D01*
X31558Y-33101D01*
X31611Y-33162D01*
X31651Y-33233D01*
X31676Y-33309D01*
X31686Y-33389D01*
X31687Y-33400D01*
X32671Y-33400D02*
X32663Y-33480D01*
X32639Y-33557D01*
X32601Y-33628D01*
X32551Y-33691D01*
X32488Y-33742D01*
X32418Y-33780D01*
X32341Y-33804D01*
X32260Y-33812D01*
X32181Y-33805D01*
X32104Y-33782D01*
X32032Y-33745D01*
X31970Y-33695D01*
X31918Y-33633D01*
X31879Y-33562D01*
X31855Y-33485D01*
X31846Y-33405D01*
X31852Y-33326D01*
X31875Y-33248D01*
X31911Y-33177D01*
X31961Y-33114D01*
X32023Y-33061D01*
X32093Y-33022D01*
X32170Y-32997D01*
X32250Y-32988D01*
X32329Y-32994D01*
X32407Y-33015D01*
X32479Y-33052D01*
X32542Y-33101D01*
X32595Y-33162D01*
X32635Y-33233D01*
X32660Y-33309D01*
X32670Y-33389D01*
X32671Y-33400D01*
X17813Y-33587D02*
X17813Y-34413D01*
X18639Y-34413D01*
X18639Y-33587D01*
X17813Y-33587D01*
X15687Y-34000D02*
X15679Y-34080D01*
X15655Y-34157D01*
X15617Y-34228D01*
X15567Y-34291D01*
X15504Y-34342D01*
X15434Y-34380D01*
X15357Y-34404D01*
X15276Y-34412D01*
X15197Y-34405D01*
X15120Y-34382D01*
X15048Y-34345D01*
X14986Y-34295D01*
X14934Y-34233D01*
X14895Y-34162D01*
X14871Y-34085D01*
X14862Y-34005D01*
X14868Y-33926D01*
X14891Y-33848D01*
X14927Y-33777D01*
X14977Y-33714D01*
X15039Y-33661D01*
X15109Y-33622D01*
X15186Y-33597D01*
X15266Y-33588D01*
X15345Y-33594D01*
X15423Y-33615D01*
X15495Y-33652D01*
X15558Y-33701D01*
X15611Y-33762D01*
X15651Y-33833D01*
X15676Y-33909D01*
X15686Y-33989D01*
X15687Y-34000D01*
X16671Y-34000D02*
X16663Y-34080D01*
X16639Y-34157D01*
X16601Y-34228D01*
X16551Y-34291D01*
X16488Y-34342D01*
X16418Y-34380D01*
X16341Y-34404D01*
X16260Y-34412D01*
X16181Y-34405D01*
X16104Y-34382D01*
X16032Y-34345D01*
X15970Y-34295D01*
X15918Y-34233D01*
X15879Y-34162D01*
X15855Y-34085D01*
X15846Y-34005D01*
X15852Y-33926D01*
X15875Y-33848D01*
X15911Y-33777D01*
X15961Y-33714D01*
X16023Y-33661D01*
X16093Y-33622D01*
X16170Y-33597D01*
X16250Y-33588D01*
X16329Y-33594D01*
X16407Y-33615D01*
X16479Y-33652D01*
X16542Y-33701D01*
X16595Y-33762D01*
X16635Y-33833D01*
X16660Y-33909D01*
X16670Y-33989D01*
X16671Y-34000D01*
X21071Y-31837D02*
X21071Y-32663D01*
X21897Y-32663D01*
X21897Y-31837D01*
X21071Y-31837D01*
X18945Y-32250D02*
X18937Y-32330D01*
X18913Y-32407D01*
X18875Y-32478D01*
X18825Y-32541D01*
X18762Y-32592D01*
X18692Y-32630D01*
X18615Y-32654D01*
X18534Y-32662D01*
X18455Y-32655D01*
X18378Y-32632D01*
X18306Y-32595D01*
X18244Y-32545D01*
X18192Y-32483D01*
X18153Y-32412D01*
X18129Y-32335D01*
X18120Y-32255D01*
X18126Y-32176D01*
X18149Y-32098D01*
X18185Y-32027D01*
X18235Y-31964D01*
X18297Y-31911D01*
X18367Y-31872D01*
X18444Y-31847D01*
X18524Y-31838D01*
X18603Y-31844D01*
X18681Y-31865D01*
X18753Y-31902D01*
X18816Y-31951D01*
X18869Y-32012D01*
X18909Y-32083D01*
X18934Y-32159D01*
X18944Y-32239D01*
X18945Y-32250D01*
X19929Y-32250D02*
X19921Y-32330D01*
X19897Y-32407D01*
X19859Y-32478D01*
X19809Y-32541D01*
X19746Y-32592D01*
X19676Y-32630D01*
X19599Y-32654D01*
X19518Y-32662D01*
X19439Y-32655D01*
X19362Y-32632D01*
X19290Y-32595D01*
X19228Y-32545D01*
X19176Y-32483D01*
X19137Y-32412D01*
X19113Y-32335D01*
X19104Y-32255D01*
X19110Y-32176D01*
X19133Y-32098D01*
X19169Y-32027D01*
X19219Y-31964D01*
X19281Y-31911D01*
X19351Y-31872D01*
X19428Y-31847D01*
X19508Y-31838D01*
X19587Y-31844D01*
X19665Y-31865D01*
X19737Y-31902D01*
X19800Y-31951D01*
X19853Y-32012D01*
X19893Y-32083D01*
X19918Y-32159D01*
X19928Y-32239D01*
X19929Y-32250D01*
X42363Y-20837D02*
X42363Y-21663D01*
X43189Y-21663D01*
X43189Y-20837D01*
X42363Y-20837D01*
X40237Y-21250D02*
X40229Y-21330D01*
X40205Y-21407D01*
X40167Y-21478D01*
X40117Y-21541D01*
X40054Y-21592D01*
X39984Y-21630D01*
X39907Y-21654D01*
X39826Y-21662D01*
X39747Y-21655D01*
X39670Y-21632D01*
X39598Y-21595D01*
X39536Y-21545D01*
X39484Y-21483D01*
X39445Y-21412D01*
X39421Y-21335D01*
X39412Y-21255D01*
X39418Y-21176D01*
X39441Y-21098D01*
X39477Y-21027D01*
X39527Y-20964D01*
X39589Y-20911D01*
X39659Y-20872D01*
X39736Y-20847D01*
X39816Y-20838D01*
X39895Y-20844D01*
X39973Y-20865D01*
X40045Y-20902D01*
X40108Y-20951D01*
X40161Y-21012D01*
X40201Y-21083D01*
X40226Y-21159D01*
X40236Y-21239D01*
X40237Y-21250D01*
X41221Y-21250D02*
X41213Y-21330D01*
X41189Y-21407D01*
X41151Y-21478D01*
X41101Y-21541D01*
X41038Y-21592D01*
X40968Y-21630D01*
X40891Y-21654D01*
X40810Y-21662D01*
X40731Y-21655D01*
X40654Y-21632D01*
X40582Y-21595D01*
X40520Y-21545D01*
X40468Y-21483D01*
X40429Y-21412D01*
X40405Y-21335D01*
X40396Y-21255D01*
X40402Y-21176D01*
X40425Y-21098D01*
X40461Y-21027D01*
X40511Y-20964D01*
X40573Y-20911D01*
X40643Y-20872D01*
X40720Y-20847D01*
X40800Y-20838D01*
X40879Y-20844D01*
X40957Y-20865D01*
X41029Y-20902D01*
X41092Y-20951D01*
X41145Y-21012D01*
X41185Y-21083D01*
X41210Y-21159D01*
X41220Y-21239D01*
X41221Y-21250D01*
X16611Y-25587D02*
X16611Y-26413D01*
X17437Y-26413D01*
X17437Y-25587D01*
X16611Y-25587D01*
X20389Y-26000D02*
X20381Y-26080D01*
X20357Y-26157D01*
X20319Y-26228D01*
X20269Y-26291D01*
X20206Y-26342D01*
X20136Y-26380D01*
X20059Y-26404D01*
X19978Y-26412D01*
X19899Y-26405D01*
X19822Y-26382D01*
X19750Y-26345D01*
X19688Y-26295D01*
X19636Y-26233D01*
X19597Y-26162D01*
X19573Y-26085D01*
X19564Y-26005D01*
X19570Y-25926D01*
X19593Y-25848D01*
X19629Y-25777D01*
X19679Y-25714D01*
X19741Y-25661D01*
X19811Y-25622D01*
X19888Y-25597D01*
X19968Y-25588D01*
X20047Y-25594D01*
X20125Y-25615D01*
X20197Y-25652D01*
X20260Y-25701D01*
X20313Y-25762D01*
X20353Y-25833D01*
X20378Y-25909D01*
X20388Y-25989D01*
X20389Y-26000D01*
X19405Y-26000D02*
X19397Y-26080D01*
X19373Y-26157D01*
X19335Y-26228D01*
X19285Y-26291D01*
X19222Y-26342D01*
X19152Y-26380D01*
X19075Y-26404D01*
X18994Y-26412D01*
X18915Y-26405D01*
X18838Y-26382D01*
X18766Y-26345D01*
X18704Y-26295D01*
X18652Y-26233D01*
X18613Y-26162D01*
X18589Y-26085D01*
X18580Y-26005D01*
X18586Y-25926D01*
X18609Y-25848D01*
X18645Y-25777D01*
X18695Y-25714D01*
X18757Y-25661D01*
X18827Y-25622D01*
X18904Y-25597D01*
X18984Y-25588D01*
X19063Y-25594D01*
X19141Y-25615D01*
X19213Y-25652D01*
X19276Y-25701D01*
X19329Y-25762D01*
X19369Y-25833D01*
X19394Y-25909D01*
X19404Y-25989D01*
X19405Y-26000D01*
X25437Y-20887D02*
X25437Y-21713D01*
X26263Y-21713D01*
X26263Y-20887D01*
X25437Y-20887D01*
X30263Y-21300D02*
X30255Y-21380D01*
X30231Y-21457D01*
X30193Y-21528D01*
X30143Y-21591D01*
X30080Y-21642D01*
X30010Y-21680D01*
X29933Y-21704D01*
X29852Y-21712D01*
X29773Y-21705D01*
X29696Y-21682D01*
X29624Y-21645D01*
X29562Y-21595D01*
X29510Y-21533D01*
X29471Y-21462D01*
X29447Y-21385D01*
X29438Y-21305D01*
X29444Y-21226D01*
X29467Y-21148D01*
X29503Y-21077D01*
X29553Y-21014D01*
X29615Y-20961D01*
X29685Y-20922D01*
X29762Y-20897D01*
X29842Y-20888D01*
X29921Y-20894D01*
X29999Y-20915D01*
X30071Y-20952D01*
X30134Y-21001D01*
X30187Y-21062D01*
X30227Y-21133D01*
X30252Y-21209D01*
X30262Y-21289D01*
X30263Y-21300D01*
X28437Y-22087D02*
X28437Y-22913D01*
X29263Y-22913D01*
X29263Y-22087D01*
X28437Y-22087D01*
X33263Y-22500D02*
X33255Y-22580D01*
X33231Y-22657D01*
X33193Y-22728D01*
X33143Y-22791D01*
X33080Y-22842D01*
X33010Y-22880D01*
X32933Y-22904D01*
X32852Y-22912D01*
X32773Y-22905D01*
X32696Y-22882D01*
X32624Y-22845D01*
X32562Y-22795D01*
X32510Y-22733D01*
X32471Y-22662D01*
X32447Y-22585D01*
X32438Y-22505D01*
X32444Y-22426D01*
X32467Y-22348D01*
X32503Y-22277D01*
X32553Y-22214D01*
X32615Y-22161D01*
X32685Y-22122D01*
X32762Y-22097D01*
X32842Y-22088D01*
X32921Y-22094D01*
X32999Y-22115D01*
X33071Y-22152D01*
X33134Y-22201D01*
X33187Y-22262D01*
X33227Y-22333D01*
X33252Y-22409D01*
X33262Y-22489D01*
X33263Y-22500D01*
X33887Y-22037D02*
X33887Y-22863D01*
X34713Y-22863D01*
X34713Y-22037D01*
X33887Y-22037D01*
X38713Y-22450D02*
X38705Y-22530D01*
X38681Y-22607D01*
X38643Y-22678D01*
X38593Y-22741D01*
X38530Y-22792D01*
X38460Y-22830D01*
X38383Y-22854D01*
X38302Y-22862D01*
X38223Y-22855D01*
X38146Y-22832D01*
X38074Y-22795D01*
X38012Y-22745D01*
X37960Y-22683D01*
X37921Y-22612D01*
X37897Y-22535D01*
X37888Y-22455D01*
X37894Y-22376D01*
X37917Y-22298D01*
X37953Y-22227D01*
X38003Y-22164D01*
X38065Y-22111D01*
X38135Y-22072D01*
X38212Y-22047D01*
X38292Y-22038D01*
X38371Y-22044D01*
X38449Y-22065D01*
X38521Y-22102D01*
X38584Y-22151D01*
X38637Y-22212D01*
X38677Y-22283D01*
X38702Y-22359D01*
X38712Y-22439D01*
X38713Y-22450D01*
X44687Y-32187D02*
X44687Y-33013D01*
X45513Y-33013D01*
X45513Y-32187D01*
X44687Y-32187D01*
X41513Y-32600D02*
X41505Y-32680D01*
X41481Y-32757D01*
X41443Y-32828D01*
X41393Y-32891D01*
X41330Y-32942D01*
X41260Y-32980D01*
X41183Y-33004D01*
X41102Y-33012D01*
X41023Y-33005D01*
X40946Y-32982D01*
X40874Y-32945D01*
X40812Y-32895D01*
X40760Y-32833D01*
X40721Y-32762D01*
X40697Y-32685D01*
X40688Y-32605D01*
X40694Y-32526D01*
X40717Y-32448D01*
X40753Y-32377D01*
X40803Y-32314D01*
X40865Y-32261D01*
X40935Y-32222D01*
X41012Y-32197D01*
X41092Y-32188D01*
X41171Y-32194D01*
X41249Y-32215D01*
X41321Y-32252D01*
X41384Y-32301D01*
X41437Y-32362D01*
X41477Y-32433D01*
X41502Y-32509D01*
X41512Y-32589D01*
X41513Y-32600D01*
X21337Y-22837D02*
X21337Y-23663D01*
X22163Y-23663D01*
X22163Y-22837D01*
X21337Y-22837D01*
X22163Y-24341D02*
X22155Y-24421D01*
X22131Y-24498D01*
X22093Y-24569D01*
X22043Y-24632D01*
X21980Y-24683D01*
X21910Y-24721D01*
X21833Y-24745D01*
X21752Y-24753D01*
X21673Y-24746D01*
X21596Y-24723D01*
X21524Y-24686D01*
X21462Y-24636D01*
X21410Y-24574D01*
X21371Y-24503D01*
X21347Y-24426D01*
X21338Y-24346D01*
X21344Y-24267D01*
X21367Y-24189D01*
X21403Y-24118D01*
X21453Y-24055D01*
X21515Y-24002D01*
X21585Y-23963D01*
X21662Y-23938D01*
X21742Y-23929D01*
X21821Y-23935D01*
X21899Y-23956D01*
X21971Y-23993D01*
X22034Y-24042D01*
X22087Y-24103D01*
X22127Y-24174D01*
X22152Y-24250D01*
X22162Y-24330D01*
X22163Y-24341D01*
X18337Y-23337D02*
X18337Y-24163D01*
X19163Y-24163D01*
X19163Y-23337D01*
X18337Y-23337D01*
X20254Y-23750D02*
X20246Y-23830D01*
X20222Y-23907D01*
X20184Y-23978D01*
X20134Y-24041D01*
X20071Y-24092D01*
X20001Y-24130D01*
X19924Y-24154D01*
X19843Y-24162D01*
X19764Y-24155D01*
X19687Y-24132D01*
X19615Y-24095D01*
X19553Y-24045D01*
X19501Y-23983D01*
X19462Y-23912D01*
X19438Y-23835D01*
X19429Y-23755D01*
X19435Y-23676D01*
X19458Y-23598D01*
X19494Y-23527D01*
X19544Y-23464D01*
X19606Y-23411D01*
X19676Y-23372D01*
X19753Y-23347D01*
X19833Y-23338D01*
X19912Y-23344D01*
X19990Y-23365D01*
X20062Y-23402D01*
X20125Y-23451D01*
X20178Y-23512D01*
X20218Y-23583D01*
X20243Y-23659D01*
X20253Y-23739D01*
X20254Y-23750D01*
X16337Y-22837D02*
X16337Y-23663D01*
X17163Y-23663D01*
X17163Y-22837D01*
X16337Y-22837D01*
X17163Y-24341D02*
X17155Y-24421D01*
X17131Y-24498D01*
X17093Y-24569D01*
X17043Y-24632D01*
X16980Y-24683D01*
X16910Y-24721D01*
X16833Y-24745D01*
X16752Y-24753D01*
X16673Y-24746D01*
X16596Y-24723D01*
X16524Y-24686D01*
X16462Y-24636D01*
X16410Y-24574D01*
X16371Y-24503D01*
X16347Y-24426D01*
X16338Y-24346D01*
X16344Y-24267D01*
X16367Y-24189D01*
X16403Y-24118D01*
X16453Y-24055D01*
X16515Y-24002D01*
X16585Y-23963D01*
X16662Y-23938D01*
X16742Y-23929D01*
X16821Y-23935D01*
X16899Y-23956D01*
X16971Y-23993D01*
X17034Y-24042D01*
X17087Y-24103D01*
X17127Y-24174D01*
X17152Y-24250D01*
X17162Y-24330D01*
X17163Y-24341D01*
X41537Y-26287D02*
X41537Y-27113D01*
X42363Y-27113D01*
X42363Y-26287D01*
X41537Y-26287D01*
X42363Y-22700D02*
X42355Y-22780D01*
X42331Y-22857D01*
X42293Y-22928D01*
X42243Y-22991D01*
X42180Y-23042D01*
X42110Y-23080D01*
X42033Y-23104D01*
X41952Y-23112D01*
X41873Y-23105D01*
X41796Y-23082D01*
X41724Y-23045D01*
X41662Y-22995D01*
X41610Y-22933D01*
X41571Y-22862D01*
X41547Y-22785D01*
X41538Y-22705D01*
X41544Y-22626D01*
X41567Y-22548D01*
X41603Y-22477D01*
X41653Y-22414D01*
X41715Y-22361D01*
X41785Y-22322D01*
X41862Y-22297D01*
X41942Y-22288D01*
X42021Y-22294D01*
X42099Y-22315D01*
X42171Y-22352D01*
X42234Y-22401D01*
X42287Y-22462D01*
X42327Y-22533D01*
X42352Y-22609D01*
X42362Y-22689D01*
X42363Y-22700D01*
X40487Y-26637D02*
X40487Y-27463D01*
X41313Y-27463D01*
X41313Y-26637D01*
X40487Y-26637D01*
X41313Y-23050D02*
X41305Y-23130D01*
X41281Y-23207D01*
X41243Y-23278D01*
X41193Y-23341D01*
X41130Y-23392D01*
X41060Y-23430D01*
X40983Y-23454D01*
X40902Y-23462D01*
X40823Y-23455D01*
X40746Y-23432D01*
X40674Y-23395D01*
X40612Y-23345D01*
X40560Y-23283D01*
X40521Y-23212D01*
X40497Y-23135D01*
X40488Y-23055D01*
X40494Y-22976D01*
X40517Y-22898D01*
X40553Y-22827D01*
X40603Y-22764D01*
X40665Y-22711D01*
X40735Y-22672D01*
X40812Y-22647D01*
X40892Y-22638D01*
X40971Y-22644D01*
X41049Y-22665D01*
X41121Y-22702D01*
X41184Y-22751D01*
X41237Y-22812D01*
X41277Y-22883D01*
X41302Y-22959D01*
X41312Y-23039D01*
X41313Y-23050D01*
X15964Y-26886D02*
X15948Y-27044D01*
X15902Y-27196D01*
X15827Y-27337D01*
X15727Y-27460D01*
X15604Y-27562D01*
X15464Y-27638D01*
X15312Y-27685D01*
X15153Y-27701D01*
X14996Y-27687D01*
X14843Y-27642D01*
X14702Y-27568D01*
X14578Y-27469D01*
X14475Y-27347D01*
X14398Y-27207D01*
X14350Y-27055D01*
X14333Y-26897D01*
X14346Y-26739D01*
X14390Y-26586D01*
X14463Y-26444D01*
X14562Y-26320D01*
X14683Y-26216D01*
X14822Y-26139D01*
X14973Y-26090D01*
X15131Y-26071D01*
X15289Y-26083D01*
X15443Y-26126D01*
X15585Y-26198D01*
X15710Y-26296D01*
X15814Y-26416D01*
X15893Y-26555D01*
X15943Y-26706D01*
X15963Y-26864D01*
X15964Y-26886D01*
X15964Y-31618D02*
X15948Y-31776D01*
X15902Y-31928D01*
X15827Y-32069D01*
X15727Y-32192D01*
X15604Y-32294D01*
X15464Y-32370D01*
X15312Y-32417D01*
X15153Y-32433D01*
X14996Y-32419D01*
X14843Y-32374D01*
X14702Y-32300D01*
X14578Y-32201D01*
X14475Y-32079D01*
X14398Y-31939D01*
X14350Y-31787D01*
X14333Y-31629D01*
X14346Y-31471D01*
X14390Y-31318D01*
X14463Y-31176D01*
X14562Y-31052D01*
X14683Y-30948D01*
X14822Y-30871D01*
X14973Y-30822D01*
X15131Y-30803D01*
X15289Y-30815D01*
X15443Y-30858D01*
X15585Y-30930D01*
X15710Y-31028D01*
X15814Y-31148D01*
X15893Y-31287D01*
X15943Y-31438D01*
X15963Y-31596D01*
X15964Y-31618D01*
X17265Y-29742D02*
X17259Y-29793D01*
X17245Y-29842D01*
X17220Y-29888D01*
X17188Y-29928D01*
X17148Y-29961D01*
X17102Y-29986D01*
X17053Y-30001D01*
X17001Y-30006D01*
X16951Y-30002D01*
X16901Y-29987D01*
X16855Y-29963D01*
X16815Y-29931D01*
X16782Y-29891D01*
X16757Y-29846D01*
X16741Y-29797D01*
X16736Y-29745D01*
X16740Y-29695D01*
X16754Y-29645D01*
X16778Y-29599D01*
X16810Y-29558D01*
X16849Y-29525D01*
X16894Y-29500D01*
X16944Y-29484D01*
X16995Y-29478D01*
X17046Y-29482D01*
X17095Y-29495D01*
X17141Y-29519D01*
X17182Y-29551D01*
X17216Y-29590D01*
X17242Y-29635D01*
X17258Y-29684D01*
X17264Y-29735D01*
X17265Y-29742D01*
X16475Y-29742D02*
X16469Y-29793D01*
X16455Y-29842D01*
X16430Y-29888D01*
X16398Y-29928D01*
X16358Y-29961D01*
X16312Y-29986D01*
X16263Y-30001D01*
X16211Y-30006D01*
X16161Y-30002D01*
X16111Y-29987D01*
X16065Y-29963D01*
X16025Y-29931D01*
X15992Y-29891D01*
X15967Y-29846D01*
X15951Y-29797D01*
X15946Y-29745D01*
X15950Y-29695D01*
X15964Y-29645D01*
X15988Y-29599D01*
X16020Y-29558D01*
X16059Y-29525D01*
X16104Y-29500D01*
X16154Y-29484D01*
X16205Y-29478D01*
X16256Y-29482D01*
X16305Y-29495D01*
X16351Y-29519D01*
X16392Y-29551D01*
X16426Y-29590D01*
X16452Y-29635D01*
X16468Y-29684D01*
X16474Y-29735D01*
X16475Y-29742D01*
X16475Y-28758D02*
X16469Y-28809D01*
X16455Y-28858D01*
X16430Y-28904D01*
X16398Y-28944D01*
X16358Y-28977D01*
X16312Y-29002D01*
X16263Y-29017D01*
X16211Y-29022D01*
X16161Y-29018D01*
X16111Y-29003D01*
X16065Y-28979D01*
X16025Y-28947D01*
X15992Y-28907D01*
X15967Y-28862D01*
X15951Y-28813D01*
X15946Y-28761D01*
X15950Y-28711D01*
X15964Y-28661D01*
X15988Y-28615D01*
X16020Y-28574D01*
X16059Y-28541D01*
X16104Y-28516D01*
X16154Y-28500D01*
X16205Y-28494D01*
X16256Y-28498D01*
X16305Y-28511D01*
X16351Y-28535D01*
X16392Y-28567D01*
X16426Y-28606D01*
X16452Y-28651D01*
X16468Y-28700D01*
X16474Y-28751D01*
X16475Y-28758D01*
X17265Y-28758D02*
X17259Y-28809D01*
X17245Y-28858D01*
X17220Y-28904D01*
X17188Y-28944D01*
X17148Y-28977D01*
X17102Y-29002D01*
X17053Y-29017D01*
X17001Y-29022D01*
X16951Y-29018D01*
X16901Y-29003D01*
X16855Y-28979D01*
X16815Y-28947D01*
X16782Y-28907D01*
X16757Y-28862D01*
X16741Y-28813D01*
X16736Y-28761D01*
X16740Y-28711D01*
X16754Y-28661D01*
X16778Y-28615D01*
X16810Y-28574D01*
X16849Y-28541D01*
X16894Y-28516D01*
X16944Y-28500D01*
X16995Y-28494D01*
X17046Y-28498D01*
X17095Y-28511D01*
X17141Y-28535D01*
X17182Y-28567D01*
X17216Y-28606D01*
X17242Y-28651D01*
X17258Y-28700D01*
X17264Y-28751D01*
X17265Y-28758D01*
X24745Y-23750D02*
X24740Y-23797D01*
X24726Y-23843D01*
X24704Y-23885D01*
X24673Y-23922D01*
X24637Y-23953D01*
X24594Y-23975D01*
X24549Y-23989D01*
X24501Y-23994D01*
X24455Y-23990D01*
X24409Y-23977D01*
X24366Y-23955D01*
X24329Y-23925D01*
X24298Y-23888D01*
X24275Y-23846D01*
X24261Y-23800D01*
X24256Y-23753D01*
X24260Y-23706D01*
X24273Y-23660D01*
X24295Y-23618D01*
X24324Y-23580D01*
X24361Y-23549D01*
X24402Y-23526D01*
X24448Y-23511D01*
X24495Y-23506D01*
X24542Y-23509D01*
X24588Y-23522D01*
X24631Y-23544D01*
X24668Y-23573D01*
X24700Y-23609D01*
X24723Y-23651D01*
X24738Y-23696D01*
X24744Y-23744D01*
X24745Y-23750D01*
X23745Y-23750D02*
X23740Y-23797D01*
X23726Y-23843D01*
X23704Y-23885D01*
X23673Y-23922D01*
X23637Y-23953D01*
X23594Y-23975D01*
X23549Y-23989D01*
X23501Y-23994D01*
X23455Y-23990D01*
X23409Y-23977D01*
X23366Y-23955D01*
X23329Y-23925D01*
X23298Y-23888D01*
X23275Y-23846D01*
X23261Y-23800D01*
X23256Y-23753D01*
X23260Y-23706D01*
X23273Y-23660D01*
X23295Y-23618D01*
X23324Y-23580D01*
X23361Y-23549D01*
X23402Y-23526D01*
X23448Y-23511D01*
X23495Y-23506D01*
X23542Y-23509D01*
X23588Y-23522D01*
X23631Y-23544D01*
X23668Y-23573D01*
X23700Y-23609D01*
X23723Y-23651D01*
X23738Y-23696D01*
X23744Y-23744D01*
X23745Y-23750D01*
X25745Y-23750D02*
X25740Y-23797D01*
X25726Y-23843D01*
X25704Y-23885D01*
X25673Y-23922D01*
X25637Y-23953D01*
X25594Y-23975D01*
X25549Y-23989D01*
X25501Y-23994D01*
X25455Y-23990D01*
X25409Y-23977D01*
X25366Y-23955D01*
X25329Y-23925D01*
X25298Y-23888D01*
X25275Y-23846D01*
X25261Y-23800D01*
X25256Y-23753D01*
X25260Y-23706D01*
X25273Y-23660D01*
X25295Y-23618D01*
X25324Y-23580D01*
X25361Y-23549D01*
X25402Y-23526D01*
X25448Y-23511D01*
X25495Y-23506D01*
X25542Y-23509D01*
X25588Y-23522D01*
X25631Y-23544D01*
X25668Y-23573D01*
X25700Y-23609D01*
X25723Y-23651D01*
X25738Y-23696D01*
X25744Y-23744D01*
X25745Y-23750D01*
X26745Y-23750D02*
X26740Y-23797D01*
X26726Y-23843D01*
X26704Y-23885D01*
X26673Y-23922D01*
X26637Y-23953D01*
X26594Y-23975D01*
X26549Y-23989D01*
X26501Y-23994D01*
X26455Y-23990D01*
X26409Y-23977D01*
X26366Y-23955D01*
X26329Y-23925D01*
X26298Y-23888D01*
X26275Y-23846D01*
X26261Y-23800D01*
X26256Y-23753D01*
X26260Y-23706D01*
X26273Y-23660D01*
X26295Y-23618D01*
X26324Y-23580D01*
X26361Y-23549D01*
X26402Y-23526D01*
X26448Y-23511D01*
X26495Y-23506D01*
X26542Y-23509D01*
X26588Y-23522D01*
X26631Y-23544D01*
X26668Y-23573D01*
X26700Y-23609D01*
X26723Y-23651D01*
X26738Y-23696D01*
X26744Y-23744D01*
X26745Y-23750D01*
X39813Y-22350D02*
X39805Y-22430D01*
X39781Y-22507D01*
X39743Y-22578D01*
X39693Y-22641D01*
X39630Y-22692D01*
X39560Y-22730D01*
X39483Y-22754D01*
X39402Y-22762D01*
X39323Y-22755D01*
X39246Y-22732D01*
X39174Y-22695D01*
X39112Y-22645D01*
X39060Y-22583D01*
X39021Y-22512D01*
X38997Y-22435D01*
X38988Y-22355D01*
X38994Y-22276D01*
X39017Y-22198D01*
X39053Y-22127D01*
X39103Y-22064D01*
X39165Y-22011D01*
X39235Y-21972D01*
X39312Y-21947D01*
X39392Y-21938D01*
X39471Y-21944D01*
X39549Y-21965D01*
X39621Y-22002D01*
X39684Y-22051D01*
X39737Y-22112D01*
X39777Y-22183D01*
X39802Y-22259D01*
X39812Y-22339D01*
X39813Y-22350D01*
X39813Y-26350D02*
X39805Y-26430D01*
X39781Y-26507D01*
X39743Y-26578D01*
X39693Y-26641D01*
X39630Y-26692D01*
X39560Y-26730D01*
X39483Y-26754D01*
X39402Y-26762D01*
X39323Y-26755D01*
X39246Y-26732D01*
X39174Y-26695D01*
X39112Y-26645D01*
X39060Y-26583D01*
X39021Y-26512D01*
X38997Y-26435D01*
X38988Y-26355D01*
X38994Y-26276D01*
X39017Y-26198D01*
X39053Y-26127D01*
X39103Y-26064D01*
X39165Y-26011D01*
X39235Y-25972D01*
X39312Y-25947D01*
X39392Y-25938D01*
X39471Y-25944D01*
X39549Y-25965D01*
X39621Y-26002D01*
X39684Y-26051D01*
X39737Y-26112D01*
X39777Y-26183D01*
X39802Y-26259D01*
X39812Y-26339D01*
X39813Y-26350D01*
X28663Y-31850D02*
X28655Y-31930D01*
X28631Y-32007D01*
X28593Y-32078D01*
X28543Y-32141D01*
X28480Y-32192D01*
X28410Y-32230D01*
X28333Y-32254D01*
X28252Y-32262D01*
X28173Y-32255D01*
X28096Y-32232D01*
X28024Y-32195D01*
X27962Y-32145D01*
X27910Y-32083D01*
X27871Y-32012D01*
X27847Y-31935D01*
X27838Y-31855D01*
X27844Y-31776D01*
X27867Y-31698D01*
X27903Y-31627D01*
X27953Y-31564D01*
X28015Y-31511D01*
X28085Y-31472D01*
X28162Y-31447D01*
X28242Y-31438D01*
X28321Y-31444D01*
X28399Y-31465D01*
X28471Y-31502D01*
X28534Y-31551D01*
X28587Y-31612D01*
X28627Y-31683D01*
X28652Y-31759D01*
X28662Y-31839D01*
X28663Y-31850D01*
X28663Y-35850D02*
X28655Y-35930D01*
X28631Y-36007D01*
X28593Y-36078D01*
X28543Y-36141D01*
X28480Y-36192D01*
X28410Y-36230D01*
X28333Y-36254D01*
X28252Y-36262D01*
X28173Y-36255D01*
X28096Y-36232D01*
X28024Y-36195D01*
X27962Y-36145D01*
X27910Y-36083D01*
X27871Y-36012D01*
X27847Y-35935D01*
X27838Y-35855D01*
X27844Y-35776D01*
X27867Y-35698D01*
X27903Y-35627D01*
X27953Y-35564D01*
X28015Y-35511D01*
X28085Y-35472D01*
X28162Y-35447D01*
X28242Y-35438D01*
X28321Y-35444D01*
X28399Y-35465D01*
X28471Y-35502D01*
X28534Y-35551D01*
X28587Y-35612D01*
X28627Y-35683D01*
X28652Y-35759D01*
X28662Y-35839D01*
X28663Y-35850D01*
X29913Y-31850D02*
X29905Y-31930D01*
X29881Y-32007D01*
X29843Y-32078D01*
X29793Y-32141D01*
X29730Y-32192D01*
X29660Y-32230D01*
X29583Y-32254D01*
X29502Y-32262D01*
X29423Y-32255D01*
X29346Y-32232D01*
X29274Y-32195D01*
X29212Y-32145D01*
X29160Y-32083D01*
X29121Y-32012D01*
X29097Y-31935D01*
X29088Y-31855D01*
X29094Y-31776D01*
X29117Y-31698D01*
X29153Y-31627D01*
X29203Y-31564D01*
X29265Y-31511D01*
X29335Y-31472D01*
X29412Y-31447D01*
X29492Y-31438D01*
X29571Y-31444D01*
X29649Y-31465D01*
X29721Y-31502D01*
X29784Y-31551D01*
X29837Y-31612D01*
X29877Y-31683D01*
X29902Y-31759D01*
X29912Y-31839D01*
X29913Y-31850D01*
X29913Y-35850D02*
X29905Y-35930D01*
X29881Y-36007D01*
X29843Y-36078D01*
X29793Y-36141D01*
X29730Y-36192D01*
X29660Y-36230D01*
X29583Y-36254D01*
X29502Y-36262D01*
X29423Y-36255D01*
X29346Y-36232D01*
X29274Y-36195D01*
X29212Y-36145D01*
X29160Y-36083D01*
X29121Y-36012D01*
X29097Y-35935D01*
X29088Y-35855D01*
X29094Y-35776D01*
X29117Y-35698D01*
X29153Y-35627D01*
X29203Y-35564D01*
X29265Y-35511D01*
X29335Y-35472D01*
X29412Y-35447D01*
X29492Y-35438D01*
X29571Y-35444D01*
X29649Y-35465D01*
X29721Y-35502D01*
X29784Y-35551D01*
X29837Y-35612D01*
X29877Y-35683D01*
X29902Y-35759D01*
X29912Y-35839D01*
X29913Y-35850D01*
X25063Y-35900D02*
X25055Y-35980D01*
X25031Y-36057D01*
X24993Y-36128D01*
X24943Y-36191D01*
X24880Y-36242D01*
X24810Y-36280D01*
X24733Y-36304D01*
X24652Y-36312D01*
X24573Y-36305D01*
X24496Y-36282D01*
X24424Y-36245D01*
X24362Y-36195D01*
X24310Y-36133D01*
X24271Y-36062D01*
X24247Y-35985D01*
X24238Y-35905D01*
X24244Y-35826D01*
X24267Y-35748D01*
X24303Y-35677D01*
X24353Y-35614D01*
X24415Y-35561D01*
X24485Y-35522D01*
X24562Y-35497D01*
X24642Y-35488D01*
X24721Y-35494D01*
X24799Y-35515D01*
X24871Y-35552D01*
X24934Y-35601D01*
X24987Y-35662D01*
X25027Y-35733D01*
X25052Y-35809D01*
X25062Y-35889D01*
X25063Y-35900D01*
X25063Y-31900D02*
X25055Y-31980D01*
X25031Y-32057D01*
X24993Y-32128D01*
X24943Y-32191D01*
X24880Y-32242D01*
X24810Y-32280D01*
X24733Y-32304D01*
X24652Y-32312D01*
X24573Y-32305D01*
X24496Y-32282D01*
X24424Y-32245D01*
X24362Y-32195D01*
X24310Y-32133D01*
X24271Y-32062D01*
X24247Y-31985D01*
X24238Y-31905D01*
X24244Y-31826D01*
X24267Y-31748D01*
X24303Y-31677D01*
X24353Y-31614D01*
X24415Y-31561D01*
X24485Y-31522D01*
X24562Y-31497D01*
X24642Y-31488D01*
X24721Y-31494D01*
X24799Y-31515D01*
X24871Y-31552D01*
X24934Y-31601D01*
X24987Y-31662D01*
X25027Y-31733D01*
X25052Y-31809D01*
X25062Y-31889D01*
X25063Y-31900D01*
X26263Y-35900D02*
X26255Y-35980D01*
X26231Y-36057D01*
X26193Y-36128D01*
X26143Y-36191D01*
X26080Y-36242D01*
X26010Y-36280D01*
X25933Y-36304D01*
X25852Y-36312D01*
X25773Y-36305D01*
X25696Y-36282D01*
X25624Y-36245D01*
X25562Y-36195D01*
X25510Y-36133D01*
X25471Y-36062D01*
X25447Y-35985D01*
X25438Y-35905D01*
X25444Y-35826D01*
X25467Y-35748D01*
X25503Y-35677D01*
X25553Y-35614D01*
X25615Y-35561D01*
X25685Y-35522D01*
X25762Y-35497D01*
X25842Y-35488D01*
X25921Y-35494D01*
X25999Y-35515D01*
X26071Y-35552D01*
X26134Y-35601D01*
X26187Y-35662D01*
X26227Y-35733D01*
X26252Y-35809D01*
X26262Y-35889D01*
X26263Y-35900D01*
X26263Y-31900D02*
X26255Y-31980D01*
X26231Y-32057D01*
X26193Y-32128D01*
X26143Y-32191D01*
X26080Y-32242D01*
X26010Y-32280D01*
X25933Y-32304D01*
X25852Y-32312D01*
X25773Y-32305D01*
X25696Y-32282D01*
X25624Y-32245D01*
X25562Y-32195D01*
X25510Y-32133D01*
X25471Y-32062D01*
X25447Y-31985D01*
X25438Y-31905D01*
X25444Y-31826D01*
X25467Y-31748D01*
X25503Y-31677D01*
X25553Y-31614D01*
X25615Y-31561D01*
X25685Y-31522D01*
X25762Y-31497D01*
X25842Y-31488D01*
X25921Y-31494D01*
X25999Y-31515D01*
X26071Y-31552D01*
X26134Y-31601D01*
X26187Y-31662D01*
X26227Y-31733D01*
X26252Y-31809D01*
X26262Y-31889D01*
X26263Y-31900D01*
X27913Y-22250D02*
X27905Y-22330D01*
X27881Y-22407D01*
X27843Y-22478D01*
X27793Y-22541D01*
X27730Y-22592D01*
X27660Y-22630D01*
X27583Y-22654D01*
X27502Y-22662D01*
X27423Y-22655D01*
X27346Y-22632D01*
X27274Y-22595D01*
X27212Y-22545D01*
X27160Y-22483D01*
X27121Y-22412D01*
X27097Y-22335D01*
X27088Y-22255D01*
X27094Y-22176D01*
X27117Y-22098D01*
X27153Y-22027D01*
X27203Y-21964D01*
X27265Y-21911D01*
X27335Y-21872D01*
X27412Y-21847D01*
X27492Y-21838D01*
X27571Y-21844D01*
X27649Y-21865D01*
X27721Y-21902D01*
X27784Y-21951D01*
X27837Y-22012D01*
X27877Y-22083D01*
X27902Y-22159D01*
X27912Y-22239D01*
X27913Y-22250D01*
X23913Y-22250D02*
X23905Y-22330D01*
X23881Y-22407D01*
X23843Y-22478D01*
X23793Y-22541D01*
X23730Y-22592D01*
X23660Y-22630D01*
X23583Y-22654D01*
X23502Y-22662D01*
X23423Y-22655D01*
X23346Y-22632D01*
X23274Y-22595D01*
X23212Y-22545D01*
X23160Y-22483D01*
X23121Y-22412D01*
X23097Y-22335D01*
X23088Y-22255D01*
X23094Y-22176D01*
X23117Y-22098D01*
X23153Y-22027D01*
X23203Y-21964D01*
X23265Y-21911D01*
X23335Y-21872D01*
X23412Y-21847D01*
X23492Y-21838D01*
X23571Y-21844D01*
X23649Y-21865D01*
X23721Y-21902D01*
X23784Y-21951D01*
X23837Y-22012D01*
X23877Y-22083D01*
X23902Y-22159D01*
X23912Y-22239D01*
X23913Y-22250D01*
X19913Y-22000D02*
X19905Y-22080D01*
X19881Y-22157D01*
X19843Y-22228D01*
X19793Y-22291D01*
X19730Y-22342D01*
X19660Y-22380D01*
X19583Y-22404D01*
X19502Y-22412D01*
X19423Y-22405D01*
X19346Y-22382D01*
X19274Y-22345D01*
X19212Y-22295D01*
X19160Y-22233D01*
X19121Y-22162D01*
X19097Y-22085D01*
X19088Y-22005D01*
X19094Y-21926D01*
X19117Y-21848D01*
X19153Y-21777D01*
X19203Y-21714D01*
X19265Y-21661D01*
X19335Y-21622D01*
X19412Y-21597D01*
X19492Y-21588D01*
X19571Y-21594D01*
X19649Y-21615D01*
X19721Y-21652D01*
X19784Y-21701D01*
X19837Y-21762D01*
X19877Y-21833D01*
X19902Y-21909D01*
X19912Y-21989D01*
X19913Y-22000D01*
X15913Y-22000D02*
X15905Y-22080D01*
X15881Y-22157D01*
X15843Y-22228D01*
X15793Y-22291D01*
X15730Y-22342D01*
X15660Y-22380D01*
X15583Y-22404D01*
X15502Y-22412D01*
X15423Y-22405D01*
X15346Y-22382D01*
X15274Y-22345D01*
X15212Y-22295D01*
X15160Y-22233D01*
X15121Y-22162D01*
X15097Y-22085D01*
X15088Y-22005D01*
X15094Y-21926D01*
X15117Y-21848D01*
X15153Y-21777D01*
X15203Y-21714D01*
X15265Y-21661D01*
X15335Y-21622D01*
X15412Y-21597D01*
X15492Y-21588D01*
X15571Y-21594D01*
X15649Y-21615D01*
X15721Y-21652D01*
X15784Y-21701D01*
X15837Y-21762D01*
X15877Y-21833D01*
X15902Y-21909D01*
X15912Y-21989D01*
X15913Y-22000D01*
X14163Y-26000D02*
X14155Y-26080D01*
X14131Y-26157D01*
X14093Y-26228D01*
X14043Y-26291D01*
X13980Y-26342D01*
X13910Y-26380D01*
X13833Y-26404D01*
X13752Y-26412D01*
X13673Y-26405D01*
X13596Y-26382D01*
X13524Y-26345D01*
X13462Y-26295D01*
X13410Y-26233D01*
X13371Y-26162D01*
X13347Y-26085D01*
X13338Y-26005D01*
X13344Y-25926D01*
X13367Y-25848D01*
X13403Y-25777D01*
X13453Y-25714D01*
X13515Y-25661D01*
X13585Y-25622D01*
X13662Y-25597D01*
X13742Y-25588D01*
X13821Y-25594D01*
X13899Y-25615D01*
X13971Y-25652D01*
X14034Y-25701D01*
X14087Y-25762D01*
X14127Y-25833D01*
X14152Y-25909D01*
X14162Y-25989D01*
X14163Y-26000D01*
X14163Y-22000D02*
X14155Y-22080D01*
X14131Y-22157D01*
X14093Y-22228D01*
X14043Y-22291D01*
X13980Y-22342D01*
X13910Y-22380D01*
X13833Y-22404D01*
X13752Y-22412D01*
X13673Y-22405D01*
X13596Y-22382D01*
X13524Y-22345D01*
X13462Y-22295D01*
X13410Y-22233D01*
X13371Y-22162D01*
X13347Y-22085D01*
X13338Y-22005D01*
X13344Y-21926D01*
X13367Y-21848D01*
X13403Y-21777D01*
X13453Y-21714D01*
X13515Y-21661D01*
X13585Y-21622D01*
X13662Y-21597D01*
X13742Y-21588D01*
X13821Y-21594D01*
X13899Y-21615D01*
X13971Y-21652D01*
X14034Y-21701D01*
X14087Y-21762D01*
X14127Y-21833D01*
X14152Y-21909D01*
X14162Y-21989D01*
X14163Y-22000D01*
X27463Y-31850D02*
X27455Y-31930D01*
X27431Y-32007D01*
X27393Y-32078D01*
X27343Y-32141D01*
X27280Y-32192D01*
X27210Y-32230D01*
X27133Y-32254D01*
X27052Y-32262D01*
X26973Y-32255D01*
X26896Y-32232D01*
X26824Y-32195D01*
X26762Y-32145D01*
X26710Y-32083D01*
X26671Y-32012D01*
X26647Y-31935D01*
X26638Y-31855D01*
X26644Y-31776D01*
X26667Y-31698D01*
X26703Y-31627D01*
X26753Y-31564D01*
X26815Y-31511D01*
X26885Y-31472D01*
X26962Y-31447D01*
X27042Y-31438D01*
X27121Y-31444D01*
X27199Y-31465D01*
X27271Y-31502D01*
X27334Y-31551D01*
X27387Y-31612D01*
X27427Y-31683D01*
X27452Y-31759D01*
X27462Y-31839D01*
X27463Y-31850D01*
X27463Y-35850D02*
X27455Y-35930D01*
X27431Y-36007D01*
X27393Y-36078D01*
X27343Y-36141D01*
X27280Y-36192D01*
X27210Y-36230D01*
X27133Y-36254D01*
X27052Y-36262D01*
X26973Y-36255D01*
X26896Y-36232D01*
X26824Y-36195D01*
X26762Y-36145D01*
X26710Y-36083D01*
X26671Y-36012D01*
X26647Y-35935D01*
X26638Y-35855D01*
X26644Y-35776D01*
X26667Y-35698D01*
X26703Y-35627D01*
X26753Y-35564D01*
X26815Y-35511D01*
X26885Y-35472D01*
X26962Y-35447D01*
X27042Y-35438D01*
X27121Y-35444D01*
X27199Y-35465D01*
X27271Y-35502D01*
X27334Y-35551D01*
X27387Y-35612D01*
X27427Y-35683D01*
X27452Y-35759D01*
X27462Y-35839D01*
X27463Y-35850D01*
X34413Y-29550D02*
X34405Y-29630D01*
X34381Y-29707D01*
X34343Y-29778D01*
X34293Y-29841D01*
X34230Y-29892D01*
X34160Y-29930D01*
X34083Y-29954D01*
X34002Y-29962D01*
X33923Y-29955D01*
X33846Y-29932D01*
X33774Y-29895D01*
X33712Y-29845D01*
X33660Y-29783D01*
X33621Y-29712D01*
X33597Y-29635D01*
X33588Y-29555D01*
X33594Y-29476D01*
X33617Y-29398D01*
X33653Y-29327D01*
X33703Y-29264D01*
X33765Y-29211D01*
X33835Y-29172D01*
X33912Y-29147D01*
X33992Y-29138D01*
X34071Y-29144D01*
X34149Y-29165D01*
X34221Y-29202D01*
X34284Y-29251D01*
X34337Y-29312D01*
X34377Y-29383D01*
X34402Y-29459D01*
X34412Y-29539D01*
X34413Y-29550D01*
X38413Y-29550D02*
X38405Y-29630D01*
X38381Y-29707D01*
X38343Y-29778D01*
X38293Y-29841D01*
X38230Y-29892D01*
X38160Y-29930D01*
X38083Y-29954D01*
X38002Y-29962D01*
X37923Y-29955D01*
X37846Y-29932D01*
X37774Y-29895D01*
X37712Y-29845D01*
X37660Y-29783D01*
X37621Y-29712D01*
X37597Y-29635D01*
X37588Y-29555D01*
X37594Y-29476D01*
X37617Y-29398D01*
X37653Y-29327D01*
X37703Y-29264D01*
X37765Y-29211D01*
X37835Y-29172D01*
X37912Y-29147D01*
X37992Y-29138D01*
X38071Y-29144D01*
X38149Y-29165D01*
X38221Y-29202D01*
X38284Y-29251D01*
X38337Y-29312D01*
X38377Y-29383D01*
X38402Y-29459D01*
X38412Y-29539D01*
X38413Y-29550D01*
X34413Y-30750D02*
X34405Y-30830D01*
X34381Y-30907D01*
X34343Y-30978D01*
X34293Y-31041D01*
X34230Y-31092D01*
X34160Y-31130D01*
X34083Y-31154D01*
X34002Y-31162D01*
X33923Y-31155D01*
X33846Y-31132D01*
X33774Y-31095D01*
X33712Y-31045D01*
X33660Y-30983D01*
X33621Y-30912D01*
X33597Y-30835D01*
X33588Y-30755D01*
X33594Y-30676D01*
X33617Y-30598D01*
X33653Y-30527D01*
X33703Y-30464D01*
X33765Y-30411D01*
X33835Y-30372D01*
X33912Y-30347D01*
X33992Y-30338D01*
X34071Y-30344D01*
X34149Y-30365D01*
X34221Y-30402D01*
X34284Y-30451D01*
X34337Y-30512D01*
X34377Y-30583D01*
X34402Y-30659D01*
X34412Y-30739D01*
X34413Y-30750D01*
X38413Y-30750D02*
X38405Y-30830D01*
X38381Y-30907D01*
X38343Y-30978D01*
X38293Y-31041D01*
X38230Y-31092D01*
X38160Y-31130D01*
X38083Y-31154D01*
X38002Y-31162D01*
X37923Y-31155D01*
X37846Y-31132D01*
X37774Y-31095D01*
X37712Y-31045D01*
X37660Y-30983D01*
X37621Y-30912D01*
X37597Y-30835D01*
X37588Y-30755D01*
X37594Y-30676D01*
X37617Y-30598D01*
X37653Y-30527D01*
X37703Y-30464D01*
X37765Y-30411D01*
X37835Y-30372D01*
X37912Y-30347D01*
X37992Y-30338D01*
X38071Y-30344D01*
X38149Y-30365D01*
X38221Y-30402D01*
X38284Y-30451D01*
X38337Y-30512D01*
X38377Y-30583D01*
X38402Y-30659D01*
X38412Y-30739D01*
X38413Y-30750D01*
X39687Y-28187D02*
X39687Y-29013D01*
X40513Y-29013D01*
X40513Y-28187D01*
X39687Y-28187D01*
X40513Y-32600D02*
X40505Y-32680D01*
X40481Y-32757D01*
X40443Y-32828D01*
X40393Y-32891D01*
X40330Y-32942D01*
X40260Y-32980D01*
X40183Y-33004D01*
X40102Y-33012D01*
X40023Y-33005D01*
X39946Y-32982D01*
X39874Y-32945D01*
X39812Y-32895D01*
X39760Y-32833D01*
X39721Y-32762D01*
X39697Y-32685D01*
X39688Y-32605D01*
X39694Y-32526D01*
X39717Y-32448D01*
X39753Y-32377D01*
X39803Y-32314D01*
X39865Y-32261D01*
X39935Y-32222D01*
X40012Y-32197D01*
X40092Y-32188D01*
X40171Y-32194D01*
X40249Y-32215D01*
X40321Y-32252D01*
X40384Y-32301D01*
X40437Y-32362D01*
X40477Y-32433D01*
X40502Y-32509D01*
X40512Y-32589D01*
X40513Y-32600D01*
X38463Y-25850D02*
X38455Y-25930D01*
X38431Y-26007D01*
X38393Y-26078D01*
X38343Y-26141D01*
X38280Y-26192D01*
X38210Y-26230D01*
X38133Y-26254D01*
X38052Y-26262D01*
X37973Y-26255D01*
X37896Y-26232D01*
X37824Y-26195D01*
X37762Y-26145D01*
X37710Y-26083D01*
X37671Y-26012D01*
X37647Y-25935D01*
X37638Y-25855D01*
X37644Y-25776D01*
X37667Y-25698D01*
X37703Y-25627D01*
X37753Y-25564D01*
X37815Y-25511D01*
X37885Y-25472D01*
X37962Y-25447D01*
X38042Y-25438D01*
X38121Y-25444D01*
X38199Y-25465D01*
X38271Y-25502D01*
X38334Y-25551D01*
X38387Y-25612D01*
X38427Y-25683D01*
X38452Y-25759D01*
X38462Y-25839D01*
X38463Y-25850D01*
X34463Y-25850D02*
X34455Y-25930D01*
X34431Y-26007D01*
X34393Y-26078D01*
X34343Y-26141D01*
X34280Y-26192D01*
X34210Y-26230D01*
X34133Y-26254D01*
X34052Y-26262D01*
X33973Y-26255D01*
X33896Y-26232D01*
X33824Y-26195D01*
X33762Y-26145D01*
X33710Y-26083D01*
X33671Y-26012D01*
X33647Y-25935D01*
X33638Y-25855D01*
X33644Y-25776D01*
X33667Y-25698D01*
X33703Y-25627D01*
X33753Y-25564D01*
X33815Y-25511D01*
X33885Y-25472D01*
X33962Y-25447D01*
X34042Y-25438D01*
X34121Y-25444D01*
X34199Y-25465D01*
X34271Y-25502D01*
X34334Y-25551D01*
X34387Y-25612D01*
X34427Y-25683D01*
X34452Y-25759D01*
X34462Y-25839D01*
X34463Y-25850D01*
X34463Y-27100D02*
X34455Y-27180D01*
X34431Y-27257D01*
X34393Y-27328D01*
X34343Y-27391D01*
X34280Y-27442D01*
X34210Y-27480D01*
X34133Y-27504D01*
X34052Y-27512D01*
X33973Y-27505D01*
X33896Y-27482D01*
X33824Y-27445D01*
X33762Y-27395D01*
X33710Y-27333D01*
X33671Y-27262D01*
X33647Y-27185D01*
X33638Y-27105D01*
X33644Y-27026D01*
X33667Y-26948D01*
X33703Y-26877D01*
X33753Y-26814D01*
X33815Y-26761D01*
X33885Y-26722D01*
X33962Y-26697D01*
X34042Y-26688D01*
X34121Y-26694D01*
X34199Y-26715D01*
X34271Y-26752D01*
X34334Y-26801D01*
X34387Y-26862D01*
X34427Y-26933D01*
X34452Y-27009D01*
X34462Y-27089D01*
X34463Y-27100D01*
X38463Y-27100D02*
X38455Y-27180D01*
X38431Y-27257D01*
X38393Y-27328D01*
X38343Y-27391D01*
X38280Y-27442D01*
X38210Y-27480D01*
X38133Y-27504D01*
X38052Y-27512D01*
X37973Y-27505D01*
X37896Y-27482D01*
X37824Y-27445D01*
X37762Y-27395D01*
X37710Y-27333D01*
X37671Y-27262D01*
X37647Y-27185D01*
X37638Y-27105D01*
X37644Y-27026D01*
X37667Y-26948D01*
X37703Y-26877D01*
X37753Y-26814D01*
X37815Y-26761D01*
X37885Y-26722D01*
X37962Y-26697D01*
X38042Y-26688D01*
X38121Y-26694D01*
X38199Y-26715D01*
X38271Y-26752D01*
X38334Y-26801D01*
X38387Y-26862D01*
X38427Y-26933D01*
X38452Y-27009D01*
X38462Y-27089D01*
X38463Y-27100D01*
X34463Y-28400D02*
X34455Y-28480D01*
X34431Y-28557D01*
X34393Y-28628D01*
X34343Y-28691D01*
X34280Y-28742D01*
X34210Y-28780D01*
X34133Y-28804D01*
X34052Y-28812D01*
X33973Y-28805D01*
X33896Y-28782D01*
X33824Y-28745D01*
X33762Y-28695D01*
X33710Y-28633D01*
X33671Y-28562D01*
X33647Y-28485D01*
X33638Y-28405D01*
X33644Y-28326D01*
X33667Y-28248D01*
X33703Y-28177D01*
X33753Y-28114D01*
X33815Y-28061D01*
X33885Y-28022D01*
X33962Y-27997D01*
X34042Y-27988D01*
X34121Y-27994D01*
X34199Y-28015D01*
X34271Y-28052D01*
X34334Y-28101D01*
X34387Y-28162D01*
X34427Y-28233D01*
X34452Y-28309D01*
X34462Y-28389D01*
X34463Y-28400D01*
X38463Y-28400D02*
X38455Y-28480D01*
X38431Y-28557D01*
X38393Y-28628D01*
X38343Y-28691D01*
X38280Y-28742D01*
X38210Y-28780D01*
X38133Y-28804D01*
X38052Y-28812D01*
X37973Y-28805D01*
X37896Y-28782D01*
X37824Y-28745D01*
X37762Y-28695D01*
X37710Y-28633D01*
X37671Y-28562D01*
X37647Y-28485D01*
X37638Y-28405D01*
X37644Y-28326D01*
X37667Y-28248D01*
X37703Y-28177D01*
X37753Y-28114D01*
X37815Y-28061D01*
X37885Y-28022D01*
X37962Y-27997D01*
X38042Y-27988D01*
X38121Y-27994D01*
X38199Y-28015D01*
X38271Y-28052D01*
X38334Y-28101D01*
X38387Y-28162D01*
X38427Y-28233D01*
X38452Y-28309D01*
X38462Y-28389D01*
X38463Y-28400D01*
X44563Y-26650D02*
X44555Y-26730D01*
X44531Y-26807D01*
X44493Y-26878D01*
X44443Y-26941D01*
X44380Y-26992D01*
X44310Y-27030D01*
X44233Y-27054D01*
X44152Y-27062D01*
X44073Y-27055D01*
X43996Y-27032D01*
X43924Y-26995D01*
X43862Y-26945D01*
X43810Y-26883D01*
X43771Y-26812D01*
X43747Y-26735D01*
X43738Y-26655D01*
X43744Y-26576D01*
X43767Y-26498D01*
X43803Y-26427D01*
X43853Y-26364D01*
X43915Y-26311D01*
X43985Y-26272D01*
X44062Y-26247D01*
X44142Y-26238D01*
X44221Y-26244D01*
X44299Y-26265D01*
X44371Y-26302D01*
X44434Y-26351D01*
X44487Y-26412D01*
X44527Y-26483D01*
X44552Y-26559D01*
X44562Y-26639D01*
X44563Y-26650D01*
X44563Y-30650D02*
X44555Y-30730D01*
X44531Y-30807D01*
X44493Y-30878D01*
X44443Y-30941D01*
X44380Y-30992D01*
X44310Y-31030D01*
X44233Y-31054D01*
X44152Y-31062D01*
X44073Y-31055D01*
X43996Y-31032D01*
X43924Y-30995D01*
X43862Y-30945D01*
X43810Y-30883D01*
X43771Y-30812D01*
X43747Y-30735D01*
X43738Y-30655D01*
X43744Y-30576D01*
X43767Y-30498D01*
X43803Y-30427D01*
X43853Y-30364D01*
X43915Y-30311D01*
X43985Y-30272D01*
X44062Y-30247D01*
X44142Y-30238D01*
X44221Y-30244D01*
X44299Y-30265D01*
X44371Y-30302D01*
X44434Y-30351D01*
X44487Y-30412D01*
X44527Y-30483D01*
X44552Y-30559D01*
X44562Y-30639D01*
X44563Y-30650D01*
X40163Y-36950D02*
X40155Y-37030D01*
X40131Y-37107D01*
X40093Y-37178D01*
X40043Y-37241D01*
X39980Y-37292D01*
X39910Y-37330D01*
X39833Y-37354D01*
X39752Y-37362D01*
X39673Y-37355D01*
X39596Y-37332D01*
X39524Y-37295D01*
X39462Y-37245D01*
X39410Y-37183D01*
X39371Y-37112D01*
X39347Y-37035D01*
X39338Y-36955D01*
X39344Y-36876D01*
X39367Y-36798D01*
X39403Y-36727D01*
X39453Y-36664D01*
X39515Y-36611D01*
X39585Y-36572D01*
X39662Y-36547D01*
X39742Y-36538D01*
X39821Y-36544D01*
X39899Y-36565D01*
X39971Y-36602D01*
X40034Y-36651D01*
X40087Y-36712D01*
X40127Y-36783D01*
X40152Y-36859D01*
X40162Y-36939D01*
X40163Y-36950D01*
X44163Y-36950D02*
X44155Y-37030D01*
X44131Y-37107D01*
X44093Y-37178D01*
X44043Y-37241D01*
X43980Y-37292D01*
X43910Y-37330D01*
X43833Y-37354D01*
X43752Y-37362D01*
X43673Y-37355D01*
X43596Y-37332D01*
X43524Y-37295D01*
X43462Y-37245D01*
X43410Y-37183D01*
X43371Y-37112D01*
X43347Y-37035D01*
X43338Y-36955D01*
X43344Y-36876D01*
X43367Y-36798D01*
X43403Y-36727D01*
X43453Y-36664D01*
X43515Y-36611D01*
X43585Y-36572D01*
X43662Y-36547D01*
X43742Y-36538D01*
X43821Y-36544D01*
X43899Y-36565D01*
X43971Y-36602D01*
X44034Y-36651D01*
X44087Y-36712D01*
X44127Y-36783D01*
X44152Y-36859D01*
X44162Y-36939D01*
X44163Y-36950D01*
X44765Y-35515D02*
X44765Y-36085D01*
X45335Y-36085D01*
X45335Y-35515D01*
X44765Y-35515D01*
X44585Y-35050D02*
X44579Y-35105D01*
X44563Y-35158D01*
X44537Y-35207D01*
X44502Y-35250D01*
X44459Y-35286D01*
X44410Y-35312D01*
X44357Y-35329D01*
X44301Y-35334D01*
X44247Y-35329D01*
X44194Y-35314D01*
X44144Y-35288D01*
X44101Y-35253D01*
X44065Y-35211D01*
X44039Y-35162D01*
X44022Y-35109D01*
X44016Y-35053D01*
X44020Y-34999D01*
X44036Y-34946D01*
X44061Y-34896D01*
X44095Y-34853D01*
X44138Y-34816D01*
X44186Y-34789D01*
X44239Y-34772D01*
X44295Y-34766D01*
X44349Y-34770D01*
X44403Y-34785D01*
X44452Y-34810D01*
X44496Y-34844D01*
X44532Y-34886D01*
X44560Y-34935D01*
X44577Y-34987D01*
X44584Y-35043D01*
X44585Y-35050D01*
X45335Y-34300D02*
X45329Y-34355D01*
X45313Y-34408D01*
X45287Y-34457D01*
X45252Y-34500D01*
X45209Y-34536D01*
X45160Y-34562D01*
X45107Y-34579D01*
X45051Y-34584D01*
X44997Y-34579D01*
X44944Y-34564D01*
X44894Y-34538D01*
X44851Y-34503D01*
X44815Y-34461D01*
X44789Y-34412D01*
X44772Y-34359D01*
X44766Y-34303D01*
X44770Y-34249D01*
X44786Y-34196D01*
X44811Y-34146D01*
X44845Y-34103D01*
X44888Y-34066D01*
X44936Y-34039D01*
X44989Y-34022D01*
X45045Y-34016D01*
X45099Y-34020D01*
X45153Y-34035D01*
X45202Y-34060D01*
X45246Y-34094D01*
X45282Y-34136D01*
X45310Y-34185D01*
X45327Y-34237D01*
X45334Y-34293D01*
X45335Y-34300D01*
G54D14*
X38600Y-34438D02*
X38581Y-34476D01*
X38543Y-34514D01*
X38486Y-34571D01*
X38467Y-34610D01*
X38467Y-34648D01*
X38562Y-34629D02*
X38543Y-34667D01*
X38505Y-34705D01*
X38429Y-34724D01*
X38295Y-34724D01*
X38219Y-34705D01*
X38181Y-34667D01*
X38162Y-34629D01*
X38162Y-34552D01*
X38181Y-34514D01*
X38219Y-34476D01*
X38295Y-34457D01*
X38429Y-34457D01*
X38505Y-34476D01*
X38543Y-34514D01*
X38562Y-34552D01*
X38562Y-34629D01*
X38162Y-34324D02*
X38162Y-34076D01*
X38314Y-34210D01*
X38314Y-34152D01*
X38333Y-34114D01*
X38352Y-34095D01*
X38390Y-34076D01*
X38486Y-34076D01*
X38524Y-34095D01*
X38543Y-34114D01*
X38562Y-34152D01*
X38562Y-34267D01*
X38543Y-34305D01*
X38524Y-34324D01*
X38352Y-33333D02*
X38371Y-33276D01*
X38390Y-33257D01*
X38429Y-33238D01*
X38486Y-33238D01*
X38524Y-33257D01*
X38543Y-33276D01*
X38562Y-33314D01*
X38562Y-33467D01*
X38162Y-33467D01*
X38162Y-33333D01*
X38181Y-33295D01*
X38200Y-33276D01*
X38238Y-33257D01*
X38276Y-33257D01*
X38314Y-33276D01*
X38333Y-33295D01*
X38352Y-33333D01*
X38352Y-33467D01*
X38543Y-33086D02*
X38562Y-33029D01*
X38562Y-32933D01*
X38543Y-32895D01*
X38524Y-32876D01*
X38486Y-32857D01*
X38448Y-32857D01*
X38410Y-32876D01*
X38390Y-32895D01*
X38371Y-32933D01*
X38352Y-33010D01*
X38333Y-33048D01*
X38314Y-33067D01*
X38276Y-33086D01*
X38238Y-33086D01*
X38200Y-33067D01*
X38181Y-33048D01*
X38162Y-33010D01*
X38162Y-32914D01*
X38181Y-32857D01*
X38200Y-32705D02*
X38181Y-32686D01*
X38162Y-32648D01*
X38162Y-32552D01*
X38181Y-32514D01*
X38200Y-32495D01*
X38238Y-32476D01*
X38276Y-32476D01*
X38333Y-32495D01*
X38562Y-32724D01*
X38562Y-32476D01*
X38162Y-32114D02*
X38162Y-32305D01*
X38352Y-32324D01*
X38333Y-32305D01*
X38314Y-32267D01*
X38314Y-32171D01*
X38333Y-32133D01*
X38352Y-32114D01*
X38390Y-32095D01*
X38486Y-32095D01*
X38524Y-32114D01*
X38543Y-32133D01*
X38562Y-32171D01*
X38562Y-32267D01*
X38543Y-32305D01*
X38524Y-32324D01*
X38162Y-31848D02*
X38162Y-31809D01*
X38181Y-31771D01*
X38200Y-31752D01*
X38238Y-31733D01*
X38314Y-31714D01*
X38410Y-31714D01*
X38486Y-31733D01*
X38524Y-31752D01*
X38543Y-31771D01*
X38562Y-31809D01*
X38562Y-31848D01*
X38543Y-31886D01*
X38524Y-31905D01*
X38486Y-31924D01*
X38410Y-31943D01*
X38314Y-31943D01*
X38238Y-31924D01*
X38200Y-31905D01*
X38181Y-31886D01*
X38162Y-31848D01*
X35312Y-35950D02*
X35274Y-35931D01*
X35236Y-35893D01*
X35179Y-35836D01*
X35140Y-35817D01*
X35102Y-35817D01*
X35121Y-35912D02*
X35083Y-35893D01*
X35045Y-35855D01*
X35026Y-35779D01*
X35026Y-35645D01*
X35045Y-35569D01*
X35083Y-35531D01*
X35121Y-35512D01*
X35198Y-35512D01*
X35236Y-35531D01*
X35274Y-35569D01*
X35293Y-35645D01*
X35293Y-35779D01*
X35274Y-35855D01*
X35236Y-35893D01*
X35198Y-35912D01*
X35121Y-35912D01*
X35674Y-35912D02*
X35445Y-35912D01*
X35559Y-35912D02*
X35559Y-35512D01*
X35521Y-35569D01*
X35483Y-35607D01*
X35445Y-35626D01*
X34317Y-37052D02*
X34374Y-37071D01*
X34393Y-37090D01*
X34412Y-37129D01*
X34412Y-37186D01*
X34393Y-37224D01*
X34374Y-37243D01*
X34336Y-37262D01*
X34183Y-37262D01*
X34183Y-36862D01*
X34317Y-36862D01*
X34355Y-36881D01*
X34374Y-36900D01*
X34393Y-36938D01*
X34393Y-36976D01*
X34374Y-37014D01*
X34355Y-37033D01*
X34317Y-37052D01*
X34183Y-37052D01*
X34564Y-37243D02*
X34621Y-37262D01*
X34717Y-37262D01*
X34755Y-37243D01*
X34774Y-37224D01*
X34793Y-37186D01*
X34793Y-37148D01*
X34774Y-37110D01*
X34755Y-37090D01*
X34717Y-37071D01*
X34640Y-37052D01*
X34602Y-37033D01*
X34583Y-37014D01*
X34564Y-36976D01*
X34564Y-36938D01*
X34583Y-36900D01*
X34602Y-36881D01*
X34640Y-36862D01*
X34736Y-36862D01*
X34793Y-36881D01*
X35174Y-37262D02*
X34945Y-37262D01*
X35059Y-37262D02*
X35059Y-36862D01*
X35021Y-36919D01*
X34983Y-36957D01*
X34945Y-36976D01*
X35307Y-36862D02*
X35574Y-36862D01*
X35402Y-37262D01*
X35802Y-36862D02*
X35841Y-36862D01*
X35879Y-36881D01*
X35898Y-36900D01*
X35917Y-36938D01*
X35936Y-37014D01*
X35936Y-37110D01*
X35917Y-37186D01*
X35898Y-37224D01*
X35879Y-37243D01*
X35841Y-37262D01*
X35802Y-37262D01*
X35764Y-37243D01*
X35745Y-37224D01*
X35726Y-37186D01*
X35707Y-37110D01*
X35707Y-37014D01*
X35726Y-36938D01*
X35745Y-36900D01*
X35764Y-36881D01*
X35802Y-36862D01*
X41162Y-30800D02*
X41124Y-30781D01*
X41086Y-30743D01*
X41029Y-30686D01*
X40990Y-30667D01*
X40952Y-30667D01*
X40971Y-30762D02*
X40933Y-30743D01*
X40895Y-30705D01*
X40876Y-30629D01*
X40876Y-30495D01*
X40895Y-30419D01*
X40933Y-30381D01*
X40971Y-30362D01*
X41048Y-30362D01*
X41086Y-30381D01*
X41124Y-30419D01*
X41143Y-30495D01*
X41143Y-30629D01*
X41124Y-30705D01*
X41086Y-30743D01*
X41048Y-30762D01*
X40971Y-30762D01*
X41295Y-30400D02*
X41314Y-30381D01*
X41352Y-30362D01*
X41448Y-30362D01*
X41486Y-30381D01*
X41505Y-30400D01*
X41524Y-30438D01*
X41524Y-30476D01*
X41505Y-30533D01*
X41276Y-30762D01*
X41524Y-30762D01*
X41167Y-31052D02*
X41224Y-31071D01*
X41243Y-31090D01*
X41262Y-31129D01*
X41262Y-31186D01*
X41243Y-31224D01*
X41224Y-31243D01*
X41186Y-31262D01*
X41033Y-31262D01*
X41033Y-30862D01*
X41167Y-30862D01*
X41205Y-30881D01*
X41224Y-30900D01*
X41243Y-30938D01*
X41243Y-30976D01*
X41224Y-31014D01*
X41205Y-31033D01*
X41167Y-31052D01*
X41033Y-31052D01*
X41414Y-31243D02*
X41471Y-31262D01*
X41567Y-31262D01*
X41605Y-31243D01*
X41624Y-31224D01*
X41643Y-31186D01*
X41643Y-31148D01*
X41624Y-31110D01*
X41605Y-31090D01*
X41567Y-31071D01*
X41490Y-31052D01*
X41452Y-31033D01*
X41433Y-31014D01*
X41414Y-30976D01*
X41414Y-30938D01*
X41433Y-30900D01*
X41452Y-30881D01*
X41490Y-30862D01*
X41586Y-30862D01*
X41643Y-30881D01*
X42024Y-31262D02*
X41795Y-31262D01*
X41909Y-31262D02*
X41909Y-30862D01*
X41871Y-30919D01*
X41833Y-30957D01*
X41795Y-30976D01*
X42157Y-30862D02*
X42424Y-30862D01*
X42252Y-31262D01*
X42652Y-30862D02*
X42691Y-30862D01*
X42729Y-30881D01*
X42748Y-30900D01*
X42767Y-30938D01*
X42786Y-31014D01*
X42786Y-31110D01*
X42767Y-31186D01*
X42748Y-31224D01*
X42729Y-31243D01*
X42691Y-31262D01*
X42652Y-31262D01*
X42614Y-31243D01*
X42595Y-31224D01*
X42576Y-31186D01*
X42557Y-31110D01*
X42557Y-31014D01*
X42576Y-30938D01*
X42595Y-30900D01*
X42614Y-30881D01*
X42652Y-30862D01*
G54D15*
X29907Y-28643D02*
X29907Y-29129D01*
X29929Y-29186D01*
X29950Y-29214D01*
X29993Y-29243D01*
X30079Y-29243D01*
X30121Y-29214D01*
X30143Y-29186D01*
X30164Y-29129D01*
X30164Y-28643D01*
X30614Y-29243D02*
X30357Y-29243D01*
X30485Y-29243D02*
X30485Y-28643D01*
X30442Y-28729D01*
X30400Y-28786D01*
X30357Y-28814D01*
X21070Y-29243D02*
X21070Y-28643D01*
X21242Y-28643D01*
X21284Y-28671D01*
X21306Y-28700D01*
X21327Y-28757D01*
X21327Y-28843D01*
X21306Y-28900D01*
X21284Y-28929D01*
X21242Y-28957D01*
X21070Y-28957D01*
X21520Y-29243D02*
X21520Y-28643D01*
X21991Y-29186D02*
X21970Y-29214D01*
X21906Y-29243D01*
X21863Y-29243D01*
X21798Y-29214D01*
X21756Y-29157D01*
X21734Y-29100D01*
X21713Y-28986D01*
X21713Y-28900D01*
X21734Y-28786D01*
X21756Y-28729D01*
X21798Y-28671D01*
X21863Y-28643D01*
X21906Y-28643D01*
X21970Y-28671D01*
X21991Y-28700D01*
X22420Y-29243D02*
X22163Y-29243D01*
X22291Y-29243D02*
X22291Y-28643D01*
X22248Y-28729D01*
X22206Y-28786D01*
X22163Y-28814D01*
X22677Y-28900D02*
X22635Y-28871D01*
X22613Y-28843D01*
X22592Y-28786D01*
X22592Y-28757D01*
X22613Y-28700D01*
X22635Y-28671D01*
X22677Y-28643D01*
X22763Y-28643D01*
X22806Y-28671D01*
X22827Y-28700D01*
X22849Y-28757D01*
X22849Y-28786D01*
X22827Y-28843D01*
X22806Y-28871D01*
X22763Y-28900D01*
X22677Y-28900D01*
X22635Y-28929D01*
X22613Y-28957D01*
X22592Y-29014D01*
X22592Y-29129D01*
X22613Y-29186D01*
X22635Y-29214D01*
X22677Y-29243D01*
X22763Y-29243D01*
X22806Y-29214D01*
X22827Y-29186D01*
X22849Y-29129D01*
X22849Y-29014D01*
X22827Y-28957D01*
X22806Y-28929D01*
X22763Y-28900D01*
X23192Y-28929D02*
X23042Y-28929D01*
X23042Y-29243D02*
X23042Y-28643D01*
X23256Y-28643D01*
X23407Y-28700D02*
X23428Y-28671D01*
X23471Y-28643D01*
X23578Y-28643D01*
X23621Y-28671D01*
X23642Y-28700D01*
X23664Y-28757D01*
X23664Y-28814D01*
X23642Y-28900D01*
X23385Y-29243D01*
X23664Y-29243D01*
X24071Y-28643D02*
X23857Y-28643D01*
X23836Y-28929D01*
X23857Y-28900D01*
X23900Y-28871D01*
X24007Y-28871D01*
X24050Y-28900D01*
X24071Y-28929D01*
X24093Y-28986D01*
X24093Y-29129D01*
X24071Y-29186D01*
X24050Y-29214D01*
X24007Y-29243D01*
X23900Y-29243D01*
X23857Y-29214D01*
X23836Y-29186D01*
X24500Y-28643D02*
X24286Y-28643D01*
X24265Y-28929D01*
X24286Y-28900D01*
X24329Y-28871D01*
X24436Y-28871D01*
X24479Y-28900D01*
X24500Y-28929D01*
X24522Y-28986D01*
X24522Y-29129D01*
X24500Y-29186D01*
X24479Y-29214D01*
X24436Y-29243D01*
X24329Y-29243D01*
X24286Y-29214D01*
X24265Y-29186D01*
X24801Y-28643D02*
X24844Y-28643D01*
X24887Y-28671D01*
X24908Y-28700D01*
X24929Y-28757D01*
X24951Y-28871D01*
X24951Y-29014D01*
X24929Y-29129D01*
X24908Y-29186D01*
X24887Y-29214D01*
X24844Y-29243D01*
X24801Y-29243D01*
X24758Y-29214D01*
X24737Y-29186D01*
X24715Y-29129D01*
X24694Y-29014D01*
X24694Y-28871D01*
X24715Y-28757D01*
X24737Y-28700D01*
X24758Y-28671D01*
X24801Y-28643D01*
G54D13*
X36607Y-25243D02*
X36593Y-25257D01*
X36550Y-25271D01*
X36521Y-25271D01*
X36478Y-25257D01*
X36450Y-25229D01*
X36435Y-25200D01*
X36421Y-25143D01*
X36421Y-25100D01*
X36435Y-25043D01*
X36450Y-25014D01*
X36478Y-24986D01*
X36521Y-24971D01*
X36550Y-24971D01*
X36593Y-24986D01*
X36607Y-25000D01*
X36893Y-25271D02*
X36721Y-25271D01*
X36807Y-25271D02*
X36807Y-24971D01*
X36778Y-25014D01*
X36750Y-25043D01*
X36721Y-25057D01*
X37079Y-24971D02*
X37107Y-24971D01*
X37136Y-24986D01*
X37150Y-25000D01*
X37164Y-25029D01*
X37179Y-25086D01*
X37179Y-25157D01*
X37164Y-25214D01*
X37150Y-25243D01*
X37136Y-25257D01*
X37107Y-25271D01*
X37079Y-25271D01*
X37050Y-25257D01*
X37036Y-25243D01*
X37021Y-25214D01*
X37007Y-25157D01*
X37007Y-25086D01*
X37021Y-25029D01*
X37036Y-25000D01*
X37050Y-24986D01*
X37079Y-24971D01*
X36989Y-24721D02*
X36847Y-24721D01*
X36918Y-24721D02*
X36918Y-24421D01*
X36894Y-24464D01*
X36870Y-24493D01*
X36847Y-24507D01*
X37144Y-24421D02*
X37168Y-24421D01*
X37192Y-24436D01*
X37204Y-24450D01*
X37216Y-24479D01*
X37227Y-24536D01*
X37227Y-24607D01*
X37216Y-24664D01*
X37204Y-24693D01*
X37192Y-24707D01*
X37168Y-24721D01*
X37144Y-24721D01*
X37120Y-24707D01*
X37108Y-24693D01*
X37097Y-24664D01*
X37085Y-24607D01*
X37085Y-24536D01*
X37097Y-24479D01*
X37108Y-24450D01*
X37120Y-24436D01*
X37144Y-24421D01*
X37442Y-24521D02*
X37442Y-24721D01*
X37335Y-24521D02*
X37335Y-24679D01*
X37346Y-24707D01*
X37370Y-24721D01*
X37406Y-24721D01*
X37430Y-24707D01*
X37442Y-24693D01*
G54D16*
X37557Y-23314D02*
X37557Y-23085D01*
X37671Y-23199D02*
X37443Y-23199D01*
G54D13*
X30700Y-26593D02*
X30686Y-26607D01*
X30643Y-26621D01*
X30614Y-26621D01*
X30571Y-26607D01*
X30543Y-26579D01*
X30528Y-26550D01*
X30514Y-26493D01*
X30514Y-26450D01*
X30528Y-26393D01*
X30543Y-26364D01*
X30571Y-26336D01*
X30614Y-26321D01*
X30643Y-26321D01*
X30686Y-26336D01*
X30700Y-26350D01*
X30843Y-26621D02*
X30900Y-26621D01*
X30928Y-26607D01*
X30943Y-26593D01*
X30971Y-26550D01*
X30986Y-26493D01*
X30986Y-26379D01*
X30971Y-26350D01*
X30957Y-26336D01*
X30928Y-26321D01*
X30871Y-26321D01*
X30843Y-26336D01*
X30828Y-26350D01*
X30814Y-26379D01*
X30814Y-26450D01*
X30828Y-26479D01*
X30843Y-26493D01*
X30871Y-26507D01*
X30928Y-26507D01*
X30957Y-26493D01*
X30971Y-26479D01*
X30986Y-26450D01*
X31708Y-26621D02*
X31566Y-26621D01*
X31637Y-26621D02*
X31637Y-26321D01*
X31613Y-26364D01*
X31589Y-26393D01*
X31566Y-26407D01*
X31923Y-26421D02*
X31923Y-26621D01*
X31816Y-26421D02*
X31816Y-26579D01*
X31827Y-26607D01*
X31851Y-26621D01*
X31887Y-26621D01*
X31911Y-26607D01*
X31923Y-26593D01*
G54D16*
X31257Y-24714D02*
X31257Y-24485D01*
X31371Y-24599D02*
X31143Y-24599D01*
G54D13*
X28700Y-26593D02*
X28686Y-26607D01*
X28643Y-26621D01*
X28614Y-26621D01*
X28571Y-26607D01*
X28543Y-26579D01*
X28528Y-26550D01*
X28514Y-26493D01*
X28514Y-26450D01*
X28528Y-26393D01*
X28543Y-26364D01*
X28571Y-26336D01*
X28614Y-26321D01*
X28643Y-26321D01*
X28686Y-26336D01*
X28700Y-26350D01*
X28871Y-26450D02*
X28843Y-26436D01*
X28828Y-26421D01*
X28814Y-26393D01*
X28814Y-26379D01*
X28828Y-26350D01*
X28843Y-26336D01*
X28871Y-26321D01*
X28928Y-26321D01*
X28957Y-26336D01*
X28971Y-26350D01*
X28986Y-26379D01*
X28986Y-26393D01*
X28971Y-26421D01*
X28957Y-26436D01*
X28928Y-26450D01*
X28871Y-26450D01*
X28843Y-26464D01*
X28828Y-26479D01*
X28814Y-26507D01*
X28814Y-26564D01*
X28828Y-26593D01*
X28843Y-26607D01*
X28871Y-26621D01*
X28928Y-26621D01*
X28957Y-26607D01*
X28971Y-26593D01*
X28986Y-26564D01*
X28986Y-26507D01*
X28971Y-26479D01*
X28957Y-26464D01*
X28928Y-26450D01*
X29708Y-26621D02*
X29566Y-26621D01*
X29637Y-26621D02*
X29637Y-26321D01*
X29613Y-26364D01*
X29589Y-26393D01*
X29566Y-26407D01*
X29923Y-26421D02*
X29923Y-26621D01*
X29816Y-26421D02*
X29816Y-26579D01*
X29827Y-26607D01*
X29851Y-26621D01*
X29887Y-26621D01*
X29911Y-26607D01*
X29923Y-26593D01*
G54D16*
X29257Y-24714D02*
X29257Y-24485D01*
X29371Y-24599D02*
X29143Y-24599D01*
G54D10*
X25045Y-24532D02*
X25379Y-24982D01*
X25379Y-24532D02*
X25045Y-24982D01*
X25831Y-24982D02*
X25545Y-24982D01*
X25688Y-24982D02*
X25688Y-24532D01*
X25640Y-24596D01*
X25593Y-24639D01*
X25545Y-24661D01*
X24702Y-26075D02*
X24655Y-26054D01*
X24631Y-26032D01*
X24607Y-25989D01*
X24607Y-25968D01*
X24631Y-25925D01*
X24655Y-25904D01*
X24702Y-25882D01*
X24798Y-25882D01*
X24845Y-25904D01*
X24869Y-25925D01*
X24893Y-25968D01*
X24893Y-25989D01*
X24869Y-26032D01*
X24845Y-26054D01*
X24798Y-26075D01*
X24702Y-26075D01*
X24655Y-26096D01*
X24631Y-26118D01*
X24607Y-26161D01*
X24607Y-26246D01*
X24631Y-26289D01*
X24655Y-26311D01*
X24702Y-26332D01*
X24798Y-26332D01*
X24845Y-26311D01*
X24869Y-26289D01*
X24893Y-26246D01*
X24893Y-26161D01*
X24869Y-26118D01*
X24845Y-26096D01*
X24798Y-26075D01*
X25107Y-26332D02*
X25107Y-25882D01*
X25274Y-26204D01*
X25440Y-25882D01*
X25440Y-26332D01*
X25678Y-26332D02*
X25678Y-25882D01*
X25678Y-26096D02*
X25964Y-26096D01*
X25964Y-26332D02*
X25964Y-25882D01*
X26154Y-26032D02*
X26416Y-26032D01*
X26154Y-26332D01*
X26416Y-26332D01*
G54D17*
X36025Y-32266D02*
X35344Y-32266D01*
X35344Y-32103D01*
X35377Y-32062D01*
X35409Y-32042D01*
X35474Y-32022D01*
X35571Y-32022D01*
X35636Y-32042D01*
X35668Y-32062D01*
X35701Y-32103D01*
X35701Y-32266D01*
X35409Y-31858D02*
X35377Y-31838D01*
X35344Y-31797D01*
X35344Y-31695D01*
X35377Y-31655D01*
X35409Y-31634D01*
X35474Y-31614D01*
X35539Y-31614D01*
X35636Y-31634D01*
X36025Y-31879D01*
X36025Y-31614D01*
X43375Y-28066D02*
X42694Y-28066D01*
X42694Y-27903D01*
X42727Y-27862D01*
X42759Y-27842D01*
X42824Y-27822D01*
X42921Y-27822D01*
X42986Y-27842D01*
X43018Y-27862D01*
X43051Y-27903D01*
X43051Y-28066D01*
X43375Y-27414D02*
X43375Y-27658D01*
X43375Y-27536D02*
X42694Y-27536D01*
X42791Y-27577D01*
X42856Y-27618D01*
X42889Y-27658D01*
G54D18*
X33051Y-25436D02*
X33022Y-25464D01*
X32936Y-25493D01*
X32879Y-25493D01*
X32794Y-25464D01*
X32736Y-25407D01*
X32708Y-25350D01*
X32679Y-25236D01*
X32679Y-25150D01*
X32708Y-25036D01*
X32736Y-24979D01*
X32794Y-24921D01*
X32879Y-24893D01*
X32936Y-24893D01*
X33022Y-24921D01*
X33051Y-24950D01*
X33622Y-25493D02*
X33279Y-25493D01*
X33451Y-25493D02*
X33451Y-24893D01*
X33394Y-24979D01*
X33336Y-25036D01*
X33279Y-25064D01*
X31151Y-34836D02*
X31122Y-34864D01*
X31036Y-34893D01*
X30979Y-34893D01*
X30894Y-34864D01*
X30836Y-34807D01*
X30808Y-34750D01*
X30779Y-34636D01*
X30779Y-34550D01*
X30808Y-34436D01*
X30836Y-34379D01*
X30894Y-34321D01*
X30979Y-34293D01*
X31036Y-34293D01*
X31122Y-34321D01*
X31151Y-34350D01*
X31665Y-34493D02*
X31665Y-34893D01*
X31522Y-34264D02*
X31379Y-34693D01*
X31751Y-34693D01*
X14901Y-35686D02*
X14872Y-35714D01*
X14786Y-35743D01*
X14729Y-35743D01*
X14644Y-35714D01*
X14586Y-35657D01*
X14558Y-35600D01*
X14529Y-35486D01*
X14529Y-35400D01*
X14558Y-35286D01*
X14586Y-35229D01*
X14644Y-35171D01*
X14729Y-35143D01*
X14786Y-35143D01*
X14872Y-35171D01*
X14901Y-35200D01*
X15444Y-35143D02*
X15158Y-35143D01*
X15129Y-35429D01*
X15158Y-35400D01*
X15215Y-35371D01*
X15358Y-35371D01*
X15415Y-35400D01*
X15444Y-35429D01*
X15472Y-35486D01*
X15472Y-35629D01*
X15444Y-35686D01*
X15415Y-35714D01*
X15358Y-35743D01*
X15215Y-35743D01*
X15158Y-35714D01*
X15129Y-35686D01*
X19651Y-33686D02*
X19622Y-33714D01*
X19536Y-33743D01*
X19479Y-33743D01*
X19394Y-33714D01*
X19336Y-33657D01*
X19308Y-33600D01*
X19279Y-33486D01*
X19279Y-33400D01*
X19308Y-33286D01*
X19336Y-33229D01*
X19394Y-33171D01*
X19479Y-33143D01*
X19536Y-33143D01*
X19622Y-33171D01*
X19651Y-33200D01*
X20165Y-33143D02*
X20051Y-33143D01*
X19994Y-33171D01*
X19965Y-33200D01*
X19908Y-33286D01*
X19879Y-33400D01*
X19879Y-33629D01*
X19908Y-33686D01*
X19936Y-33714D01*
X19994Y-33743D01*
X20108Y-33743D01*
X20165Y-33714D01*
X20194Y-33686D01*
X20222Y-33629D01*
X20222Y-33486D01*
X20194Y-33429D01*
X20165Y-33400D01*
X20108Y-33371D01*
X19994Y-33371D01*
X19936Y-33400D01*
X19908Y-33429D01*
X19879Y-33486D01*
X38351Y-21136D02*
X38322Y-21164D01*
X38236Y-21193D01*
X38179Y-21193D01*
X38094Y-21164D01*
X38036Y-21107D01*
X38008Y-21050D01*
X37979Y-20936D01*
X37979Y-20850D01*
X38008Y-20736D01*
X38036Y-20679D01*
X38094Y-20621D01*
X38179Y-20593D01*
X38236Y-20593D01*
X38322Y-20621D01*
X38351Y-20650D01*
X38551Y-20593D02*
X38951Y-20593D01*
X38694Y-21193D01*
X21365Y-25686D02*
X21336Y-25714D01*
X21250Y-25743D01*
X21193Y-25743D01*
X21108Y-25714D01*
X21050Y-25657D01*
X21022Y-25600D01*
X20993Y-25486D01*
X20993Y-25400D01*
X21022Y-25286D01*
X21050Y-25229D01*
X21108Y-25171D01*
X21193Y-25143D01*
X21250Y-25143D01*
X21336Y-25171D01*
X21365Y-25200D01*
X21936Y-25743D02*
X21593Y-25743D01*
X21765Y-25743D02*
X21765Y-25143D01*
X21708Y-25229D01*
X21650Y-25286D01*
X21593Y-25314D01*
X22507Y-25743D02*
X22164Y-25743D01*
X22336Y-25743D02*
X22336Y-25143D01*
X22279Y-25229D01*
X22221Y-25286D01*
X22164Y-25314D01*
G54D14*
X29781Y-23523D02*
X29781Y-22973D01*
X29900Y-22973D01*
X29972Y-22999D01*
X30019Y-23051D01*
X30043Y-23104D01*
X30067Y-23208D01*
X30067Y-23287D01*
X30043Y-23392D01*
X30019Y-23444D01*
X29972Y-23496D01*
X29900Y-23523D01*
X29781Y-23523D01*
X30543Y-23523D02*
X30257Y-23523D01*
X30400Y-23523D02*
X30400Y-22973D01*
X30352Y-23051D01*
X30305Y-23104D01*
X30257Y-23130D01*
X30781Y-21523D02*
X30781Y-20973D01*
X30900Y-20973D01*
X30972Y-20999D01*
X31019Y-21051D01*
X31043Y-21104D01*
X31067Y-21208D01*
X31067Y-21287D01*
X31043Y-21392D01*
X31019Y-21444D01*
X30972Y-21496D01*
X30900Y-21523D01*
X30781Y-21523D01*
X31257Y-21025D02*
X31281Y-20999D01*
X31329Y-20973D01*
X31448Y-20973D01*
X31495Y-20999D01*
X31519Y-21025D01*
X31543Y-21077D01*
X31543Y-21130D01*
X31519Y-21208D01*
X31233Y-21523D01*
X31543Y-21523D01*
X34931Y-21923D02*
X34931Y-21373D01*
X35050Y-21373D01*
X35122Y-21399D01*
X35169Y-21451D01*
X35193Y-21504D01*
X35217Y-21608D01*
X35217Y-21687D01*
X35193Y-21792D01*
X35169Y-21844D01*
X35122Y-21896D01*
X35050Y-21923D01*
X34931Y-21923D01*
X35383Y-21373D02*
X35693Y-21373D01*
X35526Y-21582D01*
X35598Y-21582D01*
X35645Y-21608D01*
X35669Y-21635D01*
X35693Y-21687D01*
X35693Y-21818D01*
X35669Y-21870D01*
X35645Y-21896D01*
X35598Y-21923D01*
X35455Y-21923D01*
X35407Y-21896D01*
X35383Y-21870D01*
X41481Y-32073D02*
X41481Y-31523D01*
X41600Y-31523D01*
X41672Y-31549D01*
X41719Y-31601D01*
X41743Y-31654D01*
X41767Y-31758D01*
X41767Y-31837D01*
X41743Y-31942D01*
X41719Y-31994D01*
X41672Y-32046D01*
X41600Y-32073D01*
X41481Y-32073D01*
X42195Y-31706D02*
X42195Y-32073D01*
X42076Y-31496D02*
X41957Y-31889D01*
X42267Y-31889D01*
G54D11*
X22058Y-21743D02*
X22058Y-21143D01*
X22201Y-21143D01*
X22286Y-21171D01*
X22344Y-21229D01*
X22372Y-21286D01*
X22401Y-21400D01*
X22401Y-21486D01*
X22372Y-21600D01*
X22344Y-21657D01*
X22286Y-21714D01*
X22201Y-21743D01*
X22058Y-21743D01*
X22944Y-21143D02*
X22658Y-21143D01*
X22629Y-21429D01*
X22658Y-21400D01*
X22715Y-21371D01*
X22858Y-21371D01*
X22915Y-21400D01*
X22944Y-21429D01*
X22972Y-21486D01*
X22972Y-21629D01*
X22944Y-21686D01*
X22915Y-21714D01*
X22858Y-21743D01*
X22715Y-21743D01*
X22658Y-21714D01*
X22629Y-21686D01*
X20308Y-21743D02*
X20308Y-21143D01*
X20451Y-21143D01*
X20536Y-21171D01*
X20594Y-21229D01*
X20622Y-21286D01*
X20651Y-21400D01*
X20651Y-21486D01*
X20622Y-21600D01*
X20594Y-21657D01*
X20536Y-21714D01*
X20451Y-21743D01*
X20308Y-21743D01*
X21165Y-21143D02*
X21051Y-21143D01*
X20994Y-21171D01*
X20965Y-21200D01*
X20908Y-21286D01*
X20879Y-21400D01*
X20879Y-21629D01*
X20908Y-21686D01*
X20936Y-21714D01*
X20994Y-21743D01*
X21108Y-21743D01*
X21165Y-21714D01*
X21194Y-21686D01*
X21222Y-21629D01*
X21222Y-21486D01*
X21194Y-21429D01*
X21165Y-21400D01*
X21108Y-21371D01*
X20994Y-21371D01*
X20936Y-21400D01*
X20908Y-21429D01*
X20879Y-21486D01*
X15493Y-25192D02*
X14893Y-25192D01*
X14893Y-25049D01*
X14921Y-24964D01*
X14979Y-24906D01*
X15036Y-24878D01*
X15150Y-24849D01*
X15236Y-24849D01*
X15350Y-24878D01*
X15407Y-24906D01*
X15464Y-24964D01*
X15493Y-25049D01*
X15493Y-25192D01*
X14893Y-24649D02*
X14893Y-24249D01*
X15493Y-24506D01*
G54D14*
X42223Y-26069D02*
X41673Y-26069D01*
X41673Y-25950D01*
X41699Y-25878D01*
X41751Y-25831D01*
X41804Y-25807D01*
X41908Y-25783D01*
X41987Y-25783D01*
X42092Y-25807D01*
X42144Y-25831D01*
X42196Y-25878D01*
X42223Y-25950D01*
X42223Y-26069D01*
X41908Y-25498D02*
X41882Y-25545D01*
X41856Y-25569D01*
X41804Y-25593D01*
X41777Y-25593D01*
X41725Y-25569D01*
X41699Y-25545D01*
X41673Y-25498D01*
X41673Y-25402D01*
X41699Y-25355D01*
X41725Y-25331D01*
X41777Y-25307D01*
X41804Y-25307D01*
X41856Y-25331D01*
X41882Y-25355D01*
X41908Y-25402D01*
X41908Y-25498D01*
X41935Y-25545D01*
X41961Y-25569D01*
X42013Y-25593D01*
X42118Y-25593D01*
X42170Y-25569D01*
X42196Y-25545D01*
X42223Y-25498D01*
X42223Y-25402D01*
X42196Y-25355D01*
X42170Y-25331D01*
X42118Y-25307D01*
X42013Y-25307D01*
X41961Y-25331D01*
X41935Y-25355D01*
X41908Y-25402D01*
X41123Y-26169D02*
X40573Y-26169D01*
X40573Y-26050D01*
X40599Y-25978D01*
X40651Y-25931D01*
X40704Y-25907D01*
X40808Y-25883D01*
X40887Y-25883D01*
X40992Y-25907D01*
X41044Y-25931D01*
X41096Y-25978D01*
X41123Y-26050D01*
X41123Y-26169D01*
X41123Y-25645D02*
X41123Y-25550D01*
X41096Y-25502D01*
X41070Y-25478D01*
X40992Y-25431D01*
X40887Y-25407D01*
X40677Y-25407D01*
X40625Y-25431D01*
X40599Y-25455D01*
X40573Y-25502D01*
X40573Y-25598D01*
X40599Y-25645D01*
X40625Y-25669D01*
X40677Y-25693D01*
X40808Y-25693D01*
X40861Y-25669D01*
X40887Y-25645D01*
X40913Y-25598D01*
X40913Y-25502D01*
X40887Y-25455D01*
X40861Y-25431D01*
X40808Y-25407D01*
G54D11*
X12554Y-31398D02*
X12554Y-31820D01*
X12525Y-31904D01*
X12469Y-31961D01*
X12385Y-31989D01*
X12328Y-31989D01*
X13144Y-31989D02*
X12807Y-31989D01*
X12975Y-31989D02*
X12975Y-31398D01*
X12919Y-31482D01*
X12863Y-31538D01*
X12807Y-31567D01*
X09995Y-31431D02*
X10481Y-31431D01*
X10538Y-31403D01*
X10566Y-31374D01*
X10595Y-31317D01*
X10595Y-31203D01*
X10566Y-31145D01*
X10538Y-31117D01*
X10481Y-31088D01*
X09995Y-31088D01*
X10566Y-30831D02*
X10595Y-30745D01*
X10595Y-30602D01*
X10566Y-30545D01*
X10538Y-30516D01*
X10481Y-30488D01*
X10423Y-30488D01*
X10366Y-30516D01*
X10338Y-30545D01*
X10309Y-30602D01*
X10281Y-30716D01*
X10252Y-30774D01*
X10223Y-30802D01*
X10166Y-30831D01*
X10109Y-30831D01*
X10052Y-30802D01*
X10023Y-30774D01*
X09995Y-30716D01*
X09995Y-30574D01*
X10023Y-30488D01*
X10281Y-30031D02*
X10309Y-29945D01*
X10338Y-29917D01*
X10395Y-29888D01*
X10481Y-29888D01*
X10538Y-29917D01*
X10566Y-29945D01*
X10595Y-30003D01*
X10595Y-30231D01*
X09995Y-30231D01*
X09995Y-30031D01*
X10023Y-29974D01*
X10052Y-29945D01*
X10109Y-29917D01*
X10166Y-29917D01*
X10223Y-29945D01*
X10252Y-29974D01*
X10281Y-30031D01*
X10281Y-30231D01*
X10652Y-29774D02*
X10652Y-29317D01*
X10538Y-28831D02*
X10566Y-28860D01*
X10595Y-28946D01*
X10595Y-29003D01*
X10566Y-29088D01*
X10509Y-29146D01*
X10452Y-29174D01*
X10338Y-29203D01*
X10252Y-29203D01*
X10138Y-29174D01*
X10081Y-29146D01*
X10023Y-29088D01*
X09995Y-29003D01*
X09995Y-28946D01*
X10023Y-28860D01*
X10052Y-28831D01*
X09995Y-28460D02*
X09995Y-28346D01*
X10023Y-28288D01*
X10081Y-28231D01*
X10195Y-28203D01*
X10395Y-28203D01*
X10509Y-28231D01*
X10566Y-28288D01*
X10595Y-28346D01*
X10595Y-28460D01*
X10566Y-28517D01*
X10509Y-28574D01*
X10395Y-28603D01*
X10195Y-28603D01*
X10081Y-28574D01*
X10023Y-28517D01*
X09995Y-28460D01*
X10595Y-27945D02*
X09995Y-27945D01*
X10595Y-27602D01*
X09995Y-27602D01*
X10595Y-27316D02*
X09995Y-27316D01*
X10595Y-26973D01*
X09995Y-26973D01*
G54D14*
X23184Y-23124D02*
X23165Y-23143D01*
X23108Y-23162D01*
X23070Y-23162D01*
X23012Y-23143D01*
X22974Y-23105D01*
X22955Y-23067D01*
X22936Y-22990D01*
X22936Y-22933D01*
X22955Y-22857D01*
X22974Y-22819D01*
X23012Y-22781D01*
X23070Y-22762D01*
X23108Y-22762D01*
X23165Y-22781D01*
X23184Y-22800D01*
X23336Y-22800D02*
X23355Y-22781D01*
X23393Y-22762D01*
X23489Y-22762D01*
X23527Y-22781D01*
X23546Y-22800D01*
X23565Y-22838D01*
X23565Y-22876D01*
X23546Y-22933D01*
X23317Y-23162D01*
X23565Y-23162D01*
X25434Y-23124D02*
X25415Y-23143D01*
X25358Y-23162D01*
X25320Y-23162D01*
X25262Y-23143D01*
X25224Y-23105D01*
X25205Y-23067D01*
X25186Y-22990D01*
X25186Y-22933D01*
X25205Y-22857D01*
X25224Y-22819D01*
X25262Y-22781D01*
X25320Y-22762D01*
X25358Y-22762D01*
X25415Y-22781D01*
X25434Y-22800D01*
X25567Y-22762D02*
X25815Y-22762D01*
X25681Y-22914D01*
X25739Y-22914D01*
X25777Y-22933D01*
X25796Y-22952D01*
X25815Y-22990D01*
X25815Y-23086D01*
X25796Y-23124D01*
X25777Y-23143D01*
X25739Y-23162D01*
X25624Y-23162D01*
X25586Y-23143D01*
X25567Y-23124D01*
X38823Y-25233D02*
X38561Y-25400D01*
X38823Y-25519D02*
X38273Y-25519D01*
X38273Y-25328D01*
X38299Y-25281D01*
X38325Y-25257D01*
X38377Y-25233D01*
X38456Y-25233D01*
X38508Y-25257D01*
X38535Y-25281D01*
X38561Y-25328D01*
X38561Y-25519D01*
X38823Y-24757D02*
X38823Y-25043D01*
X38823Y-24900D02*
X38273Y-24900D01*
X38351Y-24948D01*
X38404Y-24995D01*
X38430Y-25043D01*
X28373Y-37083D02*
X28111Y-37250D01*
X28373Y-37369D02*
X27823Y-37369D01*
X27823Y-37178D01*
X27849Y-37131D01*
X27875Y-37107D01*
X27927Y-37083D01*
X28006Y-37083D01*
X28058Y-37107D01*
X28085Y-37131D01*
X28111Y-37178D01*
X28111Y-37369D01*
X27875Y-36893D02*
X27849Y-36869D01*
X27823Y-36821D01*
X27823Y-36702D01*
X27849Y-36655D01*
X27875Y-36631D01*
X27927Y-36607D01*
X27980Y-36607D01*
X28058Y-36631D01*
X28373Y-36917D01*
X28373Y-36607D01*
X29773Y-37083D02*
X29511Y-37250D01*
X29773Y-37369D02*
X29223Y-37369D01*
X29223Y-37178D01*
X29249Y-37131D01*
X29275Y-37107D01*
X29327Y-37083D01*
X29406Y-37083D01*
X29458Y-37107D01*
X29485Y-37131D01*
X29511Y-37178D01*
X29511Y-37369D01*
X29223Y-36917D02*
X29223Y-36607D01*
X29432Y-36774D01*
X29432Y-36702D01*
X29458Y-36655D01*
X29485Y-36631D01*
X29537Y-36607D01*
X29668Y-36607D01*
X29720Y-36631D01*
X29746Y-36655D01*
X29773Y-36702D01*
X29773Y-36845D01*
X29746Y-36893D01*
X29720Y-36917D01*
X24923Y-37083D02*
X24661Y-37250D01*
X24923Y-37369D02*
X24373Y-37369D01*
X24373Y-37178D01*
X24399Y-37131D01*
X24425Y-37107D01*
X24477Y-37083D01*
X24556Y-37083D01*
X24608Y-37107D01*
X24635Y-37131D01*
X24661Y-37178D01*
X24661Y-37369D01*
X24556Y-36655D02*
X24923Y-36655D01*
X24346Y-36774D02*
X24739Y-36893D01*
X24739Y-36583D01*
X26023Y-37133D02*
X25761Y-37300D01*
X26023Y-37419D02*
X25473Y-37419D01*
X25473Y-37228D01*
X25499Y-37181D01*
X25525Y-37157D01*
X25577Y-37133D01*
X25656Y-37133D01*
X25708Y-37157D01*
X25735Y-37181D01*
X25761Y-37228D01*
X25761Y-37419D01*
X25473Y-36681D02*
X25473Y-36919D01*
X25735Y-36943D01*
X25708Y-36919D01*
X25682Y-36871D01*
X25682Y-36752D01*
X25708Y-36705D01*
X25735Y-36681D01*
X25787Y-36657D01*
X25918Y-36657D01*
X25970Y-36681D01*
X25996Y-36705D01*
X26023Y-36752D01*
X26023Y-36871D01*
X25996Y-36919D01*
X25970Y-36943D01*
X24417Y-21723D02*
X24250Y-21461D01*
X24131Y-21723D02*
X24131Y-21173D01*
X24322Y-21173D01*
X24369Y-21199D01*
X24393Y-21225D01*
X24417Y-21277D01*
X24417Y-21356D01*
X24393Y-21408D01*
X24369Y-21435D01*
X24322Y-21461D01*
X24131Y-21461D01*
X24845Y-21173D02*
X24750Y-21173D01*
X24702Y-21199D01*
X24679Y-21225D01*
X24631Y-21304D01*
X24607Y-21408D01*
X24607Y-21618D01*
X24631Y-21670D01*
X24655Y-21696D01*
X24702Y-21723D01*
X24798Y-21723D01*
X24845Y-21696D01*
X24869Y-21670D01*
X24893Y-21618D01*
X24893Y-21487D01*
X24869Y-21435D01*
X24845Y-21408D01*
X24798Y-21382D01*
X24702Y-21382D01*
X24655Y-21408D01*
X24631Y-21435D01*
X24607Y-21487D01*
X16417Y-21473D02*
X16250Y-21211D01*
X16131Y-21473D02*
X16131Y-20923D01*
X16322Y-20923D01*
X16369Y-20949D01*
X16393Y-20975D01*
X16417Y-21027D01*
X16417Y-21106D01*
X16393Y-21158D01*
X16369Y-21185D01*
X16322Y-21211D01*
X16131Y-21211D01*
X16583Y-20923D02*
X16917Y-20923D01*
X16702Y-21473D01*
X14723Y-24583D02*
X14461Y-24750D01*
X14723Y-24869D02*
X14173Y-24869D01*
X14173Y-24678D01*
X14199Y-24631D01*
X14225Y-24607D01*
X14277Y-24583D01*
X14356Y-24583D01*
X14408Y-24607D01*
X14435Y-24631D01*
X14461Y-24678D01*
X14461Y-24869D01*
X14408Y-24298D02*
X14382Y-24345D01*
X14356Y-24369D01*
X14304Y-24393D01*
X14277Y-24393D01*
X14225Y-24369D01*
X14199Y-24345D01*
X14173Y-24298D01*
X14173Y-24202D01*
X14199Y-24155D01*
X14225Y-24131D01*
X14277Y-24107D01*
X14304Y-24107D01*
X14356Y-24131D01*
X14382Y-24155D01*
X14408Y-24202D01*
X14408Y-24298D01*
X14435Y-24345D01*
X14461Y-24369D01*
X14513Y-24393D01*
X14618Y-24393D01*
X14670Y-24369D01*
X14696Y-24345D01*
X14723Y-24298D01*
X14723Y-24202D01*
X14696Y-24155D01*
X14670Y-24131D01*
X14618Y-24107D01*
X14513Y-24107D01*
X14461Y-24131D01*
X14435Y-24155D01*
X14408Y-24202D01*
X27323Y-37033D02*
X27061Y-37200D01*
X27323Y-37319D02*
X26773Y-37319D01*
X26773Y-37128D01*
X26799Y-37081D01*
X26825Y-37057D01*
X26877Y-37033D01*
X26956Y-37033D01*
X27008Y-37057D01*
X27035Y-37081D01*
X27061Y-37128D01*
X27061Y-37319D01*
X27323Y-36795D02*
X27323Y-36700D01*
X27296Y-36652D01*
X27270Y-36628D01*
X27192Y-36581D01*
X27087Y-36557D01*
X26877Y-36557D01*
X26825Y-36581D01*
X26799Y-36605D01*
X26773Y-36652D01*
X26773Y-36748D01*
X26799Y-36795D01*
X26825Y-36819D01*
X26877Y-36843D01*
X27008Y-36843D01*
X27061Y-36819D01*
X27087Y-36795D01*
X27113Y-36748D01*
X27113Y-36652D01*
X27087Y-36605D01*
X27061Y-36581D01*
X27008Y-36557D01*
X35679Y-29773D02*
X35512Y-29511D01*
X35393Y-29773D02*
X35393Y-29223D01*
X35584Y-29223D01*
X35631Y-29249D01*
X35655Y-29275D01*
X35679Y-29327D01*
X35679Y-29406D01*
X35655Y-29458D01*
X35631Y-29485D01*
X35584Y-29511D01*
X35393Y-29511D01*
X36155Y-29773D02*
X35869Y-29773D01*
X36012Y-29773D02*
X36012Y-29223D01*
X35964Y-29301D01*
X35917Y-29354D01*
X35869Y-29380D01*
X36464Y-29223D02*
X36512Y-29223D01*
X36560Y-29249D01*
X36583Y-29275D01*
X36607Y-29327D01*
X36631Y-29432D01*
X36631Y-29563D01*
X36607Y-29668D01*
X36583Y-29720D01*
X36560Y-29746D01*
X36512Y-29773D01*
X36464Y-29773D01*
X36417Y-29746D01*
X36393Y-29720D01*
X36369Y-29668D01*
X36345Y-29563D01*
X36345Y-29432D01*
X36369Y-29327D01*
X36393Y-29275D01*
X36417Y-29249D01*
X36464Y-29223D01*
X35679Y-30973D02*
X35512Y-30711D01*
X35393Y-30973D02*
X35393Y-30423D01*
X35584Y-30423D01*
X35631Y-30449D01*
X35655Y-30475D01*
X35679Y-30527D01*
X35679Y-30606D01*
X35655Y-30658D01*
X35631Y-30685D01*
X35584Y-30711D01*
X35393Y-30711D01*
X36155Y-30973D02*
X35869Y-30973D01*
X36012Y-30973D02*
X36012Y-30423D01*
X35964Y-30501D01*
X35917Y-30554D01*
X35869Y-30580D01*
X36631Y-30973D02*
X36345Y-30973D01*
X36488Y-30973D02*
X36488Y-30423D01*
X36440Y-30501D01*
X36393Y-30554D01*
X36345Y-30580D01*
X40323Y-31207D02*
X39773Y-31207D01*
X39773Y-31088D01*
X39799Y-31016D01*
X39851Y-30969D01*
X39904Y-30945D01*
X40008Y-30921D01*
X40087Y-30921D01*
X40192Y-30945D01*
X40244Y-30969D01*
X40296Y-31016D01*
X40323Y-31088D01*
X40323Y-31207D01*
X40323Y-30445D02*
X40323Y-30731D01*
X40323Y-30588D02*
X39773Y-30588D01*
X39851Y-30636D01*
X39904Y-30683D01*
X39930Y-30731D01*
X39773Y-30136D02*
X39773Y-30088D01*
X39799Y-30040D01*
X39825Y-30017D01*
X39877Y-29993D01*
X39982Y-29969D01*
X40113Y-29969D01*
X40218Y-29993D01*
X40270Y-30017D01*
X40296Y-30040D01*
X40323Y-30088D01*
X40323Y-30136D01*
X40296Y-30183D01*
X40270Y-30207D01*
X40218Y-30231D01*
X40113Y-30255D01*
X39982Y-30255D01*
X39877Y-30231D01*
X39825Y-30207D01*
X39799Y-30183D01*
X39773Y-30136D01*
X35729Y-26073D02*
X35562Y-25811D01*
X35443Y-26073D02*
X35443Y-25523D01*
X35634Y-25523D01*
X35681Y-25549D01*
X35705Y-25575D01*
X35729Y-25627D01*
X35729Y-25706D01*
X35705Y-25758D01*
X35681Y-25785D01*
X35634Y-25811D01*
X35443Y-25811D01*
X36205Y-26073D02*
X35919Y-26073D01*
X36062Y-26073D02*
X36062Y-25523D01*
X36014Y-25601D01*
X35967Y-25654D01*
X35919Y-25680D01*
X36633Y-25523D02*
X36538Y-25523D01*
X36490Y-25549D01*
X36467Y-25575D01*
X36419Y-25654D01*
X36395Y-25758D01*
X36395Y-25968D01*
X36419Y-26020D01*
X36443Y-26046D01*
X36490Y-26073D01*
X36586Y-26073D01*
X36633Y-26046D01*
X36657Y-26020D01*
X36681Y-25968D01*
X36681Y-25837D01*
X36657Y-25785D01*
X36633Y-25758D01*
X36586Y-25732D01*
X36490Y-25732D01*
X36443Y-25758D01*
X36419Y-25785D01*
X36395Y-25837D01*
X35729Y-27323D02*
X35562Y-27061D01*
X35443Y-27323D02*
X35443Y-26773D01*
X35634Y-26773D01*
X35681Y-26799D01*
X35705Y-26825D01*
X35729Y-26877D01*
X35729Y-26956D01*
X35705Y-27008D01*
X35681Y-27035D01*
X35634Y-27061D01*
X35443Y-27061D01*
X36205Y-27323D02*
X35919Y-27323D01*
X36062Y-27323D02*
X36062Y-26773D01*
X36014Y-26851D01*
X35967Y-26904D01*
X35919Y-26930D01*
X36657Y-26773D02*
X36419Y-26773D01*
X36395Y-27035D01*
X36419Y-27008D01*
X36467Y-26982D01*
X36586Y-26982D01*
X36633Y-27008D01*
X36657Y-27035D01*
X36681Y-27087D01*
X36681Y-27218D01*
X36657Y-27270D01*
X36633Y-27296D01*
X36586Y-27323D01*
X36467Y-27323D01*
X36419Y-27296D01*
X36395Y-27270D01*
X35729Y-28623D02*
X35562Y-28361D01*
X35443Y-28623D02*
X35443Y-28073D01*
X35634Y-28073D01*
X35681Y-28099D01*
X35705Y-28125D01*
X35729Y-28177D01*
X35729Y-28256D01*
X35705Y-28308D01*
X35681Y-28335D01*
X35634Y-28361D01*
X35443Y-28361D01*
X36205Y-28623D02*
X35919Y-28623D01*
X36062Y-28623D02*
X36062Y-28073D01*
X36014Y-28151D01*
X35967Y-28204D01*
X35919Y-28230D01*
X36633Y-28256D02*
X36633Y-28623D01*
X36514Y-28046D02*
X36395Y-28439D01*
X36705Y-28439D01*
X44373Y-28971D02*
X44111Y-29138D01*
X44373Y-29257D02*
X43823Y-29257D01*
X43823Y-29066D01*
X43849Y-29019D01*
X43875Y-28995D01*
X43927Y-28971D01*
X44006Y-28971D01*
X44058Y-28995D01*
X44085Y-29019D01*
X44111Y-29066D01*
X44111Y-29257D01*
X44373Y-28495D02*
X44373Y-28781D01*
X44373Y-28638D02*
X43823Y-28638D01*
X43901Y-28686D01*
X43954Y-28733D01*
X43980Y-28781D01*
X43823Y-28329D02*
X43823Y-28019D01*
X44032Y-28186D01*
X44032Y-28114D01*
X44058Y-28067D01*
X44085Y-28043D01*
X44137Y-28019D01*
X44268Y-28019D01*
X44320Y-28043D01*
X44346Y-28067D01*
X44373Y-28114D01*
X44373Y-28257D01*
X44346Y-28305D01*
X44320Y-28329D01*
X40629Y-36323D02*
X40462Y-36061D01*
X40343Y-36323D02*
X40343Y-35773D01*
X40534Y-35773D01*
X40581Y-35799D01*
X40605Y-35825D01*
X40629Y-35877D01*
X40629Y-35956D01*
X40605Y-36008D01*
X40581Y-36035D01*
X40534Y-36061D01*
X40343Y-36061D01*
X41105Y-36323D02*
X40819Y-36323D01*
X40962Y-36323D02*
X40962Y-35773D01*
X40914Y-35851D01*
X40867Y-35904D01*
X40819Y-35930D01*
X41295Y-35825D02*
X41319Y-35799D01*
X41367Y-35773D01*
X41486Y-35773D01*
X41533Y-35799D01*
X41557Y-35825D01*
X41581Y-35877D01*
X41581Y-35930D01*
X41557Y-36008D01*
X41271Y-36323D01*
X41581Y-36323D01*
X42850Y-35688D02*
X42831Y-35726D01*
X42793Y-35764D01*
X42736Y-35821D01*
X42717Y-35860D01*
X42717Y-35898D01*
X42812Y-35879D02*
X42793Y-35917D01*
X42755Y-35955D01*
X42679Y-35974D01*
X42545Y-35974D01*
X42469Y-35955D01*
X42431Y-35917D01*
X42412Y-35879D01*
X42412Y-35802D01*
X42431Y-35764D01*
X42469Y-35726D01*
X42545Y-35707D01*
X42679Y-35707D01*
X42755Y-35726D01*
X42793Y-35764D01*
X42812Y-35802D01*
X42812Y-35879D01*
X42545Y-35364D02*
X42812Y-35364D01*
X42393Y-35460D02*
X42679Y-35555D01*
X42679Y-35307D01*
X43202Y-35692D02*
X43221Y-35635D01*
X43240Y-35616D01*
X43279Y-35597D01*
X43336Y-35597D01*
X43374Y-35616D01*
X43393Y-35635D01*
X43412Y-35673D01*
X43412Y-35826D01*
X43012Y-35826D01*
X43012Y-35692D01*
X43031Y-35654D01*
X43050Y-35635D01*
X43088Y-35616D01*
X43126Y-35616D01*
X43164Y-35635D01*
X43183Y-35654D01*
X43202Y-35692D01*
X43202Y-35826D01*
X43374Y-35197D02*
X43393Y-35216D01*
X43412Y-35273D01*
X43412Y-35311D01*
X43393Y-35369D01*
X43355Y-35407D01*
X43317Y-35426D01*
X43240Y-35445D01*
X43183Y-35445D01*
X43107Y-35426D01*
X43069Y-35407D01*
X43031Y-35369D01*
X43012Y-35311D01*
X43012Y-35273D01*
X43031Y-35216D01*
X43050Y-35197D01*
X43012Y-34835D02*
X43012Y-35026D01*
X43202Y-35045D01*
X43183Y-35026D01*
X43164Y-34988D01*
X43164Y-34892D01*
X43183Y-34854D01*
X43202Y-34835D01*
X43240Y-34816D01*
X43336Y-34816D01*
X43374Y-34835D01*
X43393Y-34854D01*
X43412Y-34892D01*
X43412Y-34988D01*
X43393Y-35026D01*
X43374Y-35045D01*
X43145Y-34473D02*
X43412Y-34473D01*
X42993Y-34569D02*
X43279Y-34664D01*
X43279Y-34416D01*
X43012Y-34302D02*
X43012Y-34035D01*
X43412Y-34207D01*
M02*
