G04 (Genere par PCBnew (20080912)) le 20/5/2009-12:15:52*
G01*
G70*
G90*
%MOIN*%
G04 Gerber Fmt 3.4, Leading zero omitted, Abs format*
%FSLAX34Y34*%
G04 APERTURE LIST*
%ADD10C,0.012000*%
%ADD11R,0.070000X0.070000*%
%ADD12C,0.070000*%
%ADD13C,0.169300*%
%ADD14C,0.059100*%
%ADD15C,0.045000*%
%ADD16C,0.030000*%
%ADD17C,0.012000*%
%ADD18C,0.005000*%
%ADD19C,0.006000*%
%ADD20R,0.025000X0.045000*%
%ADD21R,0.045000X0.025000*%
%ADD22R,0.100000X0.050000*%
%ADD23R,0.050000X0.100000*%
%ADD24R,0.020000X0.050000*%
%ADD25R,0.036000X0.036000*%
%ADD26R,0.080000X0.060000*%
%ADD27R,0.060000X0.080000*%
%ADD28C,0.017000*%
%ADD29C,0.001000*%
%ADD30C,0.010000*%
%ADD31C,0.008000*%
%ADD32C,0.015000*%
%ADD33R,0.090000X0.090000*%
%ADD34C,0.090000*%
%ADD35C,0.189300*%
%ADD36C,0.079100*%
%ADD37R,0.045000X0.065000*%
%ADD38R,0.065000X0.045000*%
%ADD39R,0.120000X0.070000*%
%ADD40R,0.070000X0.120000*%
%ADD41R,0.040000X0.070000*%
%ADD42R,0.056000X0.056000*%
%ADD43R,0.100000X0.080000*%
%ADD44R,0.080000X0.100000*%
G04 APERTURE END LIST*
G54D10*
X26146Y-30712D02*
X26071Y-30800D01*
X26071Y-30800D02*
X25696Y-30800D01*
X25696Y-30800D02*
X25621Y-30712D01*
X25621Y-30712D02*
X25621Y-30445D01*
X25621Y-30445D02*
X25696Y-30356D01*
X25696Y-30356D02*
X26071Y-30356D01*
X26071Y-30356D02*
X26146Y-30267D01*
X26146Y-30267D02*
X26146Y-30089D01*
X26146Y-30089D02*
X26071Y-30000D01*
X26071Y-30000D02*
X25696Y-30000D01*
X25696Y-30000D02*
X25621Y-30089D01*
X25360Y-30534D02*
X24835Y-30534D01*
X24835Y-30534D02*
X24835Y-30356D01*
X24835Y-30356D02*
X24910Y-30267D01*
X24910Y-30267D02*
X25285Y-30267D01*
X25285Y-30267D02*
X25360Y-30356D01*
X25360Y-30356D02*
X25360Y-30712D01*
X25360Y-30712D02*
X25285Y-30800D01*
X25285Y-30800D02*
X24910Y-30800D01*
X24910Y-30800D02*
X24835Y-30712D01*
X24424Y-30000D02*
X24349Y-30000D01*
X24349Y-30000D02*
X24349Y-30800D01*
X24424Y-30800D02*
X24274Y-30800D01*
X23788Y-30534D02*
X23263Y-30534D01*
X23263Y-30534D02*
X23263Y-30356D01*
X23263Y-30356D02*
X23338Y-30267D01*
X23338Y-30267D02*
X23713Y-30267D01*
X23713Y-30267D02*
X23788Y-30356D01*
X23788Y-30356D02*
X23788Y-30712D01*
X23788Y-30712D02*
X23713Y-30800D01*
X23713Y-30800D02*
X23338Y-30800D01*
X23338Y-30800D02*
X23263Y-30712D01*
X22477Y-30712D02*
X22552Y-30800D01*
X22552Y-30800D02*
X22927Y-30800D01*
X22927Y-30800D02*
X23002Y-30712D01*
X23002Y-30712D02*
X23002Y-30356D01*
X23002Y-30356D02*
X22927Y-30267D01*
X22927Y-30267D02*
X22552Y-30267D01*
X22552Y-30267D02*
X22477Y-30356D01*
X21766Y-30712D02*
X21841Y-30800D01*
X21841Y-30800D02*
X22066Y-30800D01*
X22066Y-30800D02*
X22141Y-30712D01*
X22141Y-30712D02*
X22141Y-30000D01*
X22141Y-30267D02*
X21916Y-30267D01*
X29167Y-30900D02*
X29167Y-30100D01*
X29167Y-30100D02*
X28717Y-30100D01*
X28717Y-30100D02*
X28642Y-30189D01*
X28642Y-30189D02*
X28642Y-30456D01*
X28642Y-30456D02*
X28717Y-30545D01*
X28717Y-30545D02*
X29167Y-30545D01*
X28942Y-30545D02*
X28642Y-30900D01*
X28381Y-30367D02*
X28381Y-30723D01*
X28381Y-30723D02*
X28231Y-30900D01*
X28231Y-30900D02*
X28006Y-30900D01*
X28006Y-30900D02*
X27856Y-30723D01*
X27856Y-30723D02*
X27856Y-30367D01*
X27595Y-30900D02*
X27595Y-30367D01*
X27595Y-30456D02*
X27520Y-30367D01*
X27520Y-30367D02*
X27220Y-30367D01*
X27220Y-30367D02*
X27145Y-30456D01*
X27145Y-30456D02*
X27145Y-30900D01*
G54D29*
X16650Y-21650D02*
X34600Y-21650D01*
X16650Y-32600D02*
X16650Y-21650D01*
X34600Y-32600D02*
X16650Y-32600D01*
X34600Y-21650D02*
X34600Y-32600D01*
G54D30*
X34348Y-26150D02*
X34098Y-26850D01*
X34098Y-26850D02*
X33848Y-26150D01*
X33630Y-26850D02*
X33630Y-26150D01*
X33693Y-26150D02*
X33318Y-26150D01*
X33318Y-26150D02*
X33255Y-26228D01*
X33255Y-26228D02*
X33255Y-26773D01*
X33255Y-26773D02*
X33318Y-26850D01*
X33318Y-26850D02*
X33693Y-26850D01*
X32975Y-26850D02*
X32975Y-26150D01*
X33038Y-26150D02*
X32663Y-26150D01*
X32663Y-26150D02*
X32600Y-26228D01*
X32600Y-26228D02*
X32600Y-26773D01*
X32600Y-26773D02*
X32663Y-26850D01*
X32663Y-26850D02*
X33038Y-26850D01*
X34348Y-27850D02*
X34348Y-27150D01*
X34348Y-27150D02*
X33973Y-27150D01*
X33973Y-27150D02*
X33910Y-27228D01*
X33910Y-27228D02*
X33910Y-27462D01*
X33910Y-27462D02*
X33973Y-27539D01*
X33973Y-27539D02*
X34348Y-27539D01*
X33318Y-27228D02*
X33318Y-27150D01*
X33318Y-27150D02*
X33630Y-27150D01*
X33630Y-27150D02*
X33693Y-27228D01*
X33693Y-27228D02*
X33693Y-27773D01*
X33693Y-27773D02*
X33630Y-27850D01*
X33630Y-27850D02*
X33318Y-27850D01*
X33318Y-27850D02*
X33255Y-27773D01*
X33255Y-27773D02*
X33255Y-27539D01*
X33255Y-27539D02*
X33443Y-27539D01*
X32975Y-27850D02*
X32975Y-27150D01*
X33038Y-27150D02*
X32663Y-27150D01*
X32663Y-27150D02*
X32600Y-27228D01*
X32600Y-27228D02*
X32600Y-27773D01*
X32600Y-27773D02*
X32663Y-27850D01*
X32663Y-27850D02*
X33038Y-27850D01*
X34348Y-25150D02*
X34098Y-25850D01*
X34098Y-25850D02*
X33848Y-25150D01*
X33693Y-25850D02*
X33693Y-25150D01*
X33693Y-25150D02*
X33318Y-25150D01*
X33318Y-25150D02*
X33255Y-25228D01*
X33255Y-25228D02*
X33255Y-25462D01*
X33255Y-25462D02*
X33318Y-25539D01*
X33318Y-25539D02*
X33693Y-25539D01*
X33038Y-25850D02*
X33038Y-25150D01*
X33038Y-25150D02*
X32663Y-25150D01*
X32663Y-25150D02*
X32600Y-25228D01*
X32600Y-25228D02*
X32600Y-25462D01*
X32600Y-25462D02*
X32663Y-25539D01*
X32663Y-25539D02*
X33038Y-25539D01*
X34348Y-28850D02*
X34348Y-28150D01*
X34348Y-28150D02*
X33973Y-28150D01*
X33973Y-28150D02*
X33910Y-28228D01*
X33910Y-28228D02*
X33910Y-28462D01*
X33910Y-28462D02*
X33973Y-28539D01*
X33973Y-28539D02*
X34348Y-28539D01*
X33318Y-28228D02*
X33318Y-28150D01*
X33318Y-28150D02*
X33630Y-28150D01*
X33630Y-28150D02*
X33693Y-28228D01*
X33693Y-28228D02*
X33693Y-28773D01*
X33693Y-28773D02*
X33630Y-28850D01*
X33630Y-28850D02*
X33318Y-28850D01*
X33318Y-28850D02*
X33255Y-28773D01*
X33255Y-28773D02*
X33255Y-28539D01*
X33255Y-28539D02*
X33443Y-28539D01*
X32600Y-28773D02*
X32663Y-28850D01*
X32663Y-28850D02*
X32975Y-28850D01*
X32975Y-28850D02*
X33038Y-28773D01*
X33038Y-28773D02*
X33038Y-28228D01*
X33038Y-28228D02*
X32975Y-28150D01*
X32975Y-28150D02*
X32663Y-28150D01*
X32663Y-28150D02*
X32600Y-28228D01*
X33973Y-29228D02*
X33973Y-29150D01*
X33973Y-29150D02*
X34285Y-29150D01*
X34285Y-29150D02*
X34348Y-29228D01*
X34348Y-29228D02*
X34348Y-29773D01*
X34348Y-29773D02*
X34285Y-29850D01*
X34285Y-29850D02*
X33973Y-29850D01*
X33973Y-29850D02*
X33910Y-29773D01*
X33910Y-29773D02*
X33910Y-29539D01*
X33910Y-29539D02*
X34098Y-29539D01*
X33693Y-29850D02*
X33693Y-29150D01*
X33693Y-29150D02*
X33255Y-29850D01*
X33255Y-29850D02*
X33255Y-29150D01*
X32975Y-29850D02*
X32975Y-29150D01*
X33038Y-29150D02*
X32663Y-29150D01*
X32663Y-29150D02*
X32600Y-29228D01*
X32600Y-29228D02*
X32600Y-29773D01*
X32600Y-29773D02*
X32663Y-29850D01*
X32663Y-29850D02*
X33038Y-29850D01*
G54D10*
X32350Y-30050D02*
X31350Y-30050D01*
X31350Y-25050D02*
X32350Y-25050D01*
X32350Y-30050D02*
X32350Y-25050D01*
X31350Y-25050D02*
X31350Y-30050D01*
X24250Y-31950D02*
X24250Y-30950D01*
X29250Y-30950D02*
X29250Y-31950D01*
X24250Y-31950D02*
X29250Y-31950D01*
X29250Y-30950D02*
X24250Y-30950D01*
G54D19*
X22250Y-26000D02*
X22750Y-26500D01*
X27250Y-26500D02*
X27750Y-26000D01*
X27750Y-25000D02*
X27250Y-24500D01*
X22250Y-25000D02*
X22750Y-24500D01*
X22750Y-26500D02*
X27250Y-26500D01*
X22250Y-26000D02*
X22250Y-25000D01*
X22750Y-24500D02*
X27250Y-24500D01*
X27750Y-25000D02*
X27750Y-26000D01*
G54D10*
X13750Y-29678D02*
X13754Y-25814D01*
X13754Y-25814D02*
X20254Y-25814D01*
X20270Y-25846D02*
X20270Y-29670D01*
X20270Y-29670D02*
X13742Y-29670D01*
G54D31*
X31200Y-27234D02*
X30800Y-27234D01*
X30800Y-27234D02*
X30800Y-27534D01*
X30800Y-27534D02*
X30845Y-27584D01*
X30845Y-27584D02*
X30978Y-27584D01*
X30978Y-27584D02*
X31023Y-27534D01*
X31023Y-27534D02*
X31023Y-27234D01*
X31200Y-27858D02*
X31200Y-28058D01*
X31200Y-27958D02*
X30800Y-27958D01*
X30845Y-27958D02*
X30934Y-27858D01*
X27166Y-30650D02*
X27166Y-30250D01*
X27166Y-30250D02*
X26866Y-30250D01*
X26866Y-30250D02*
X26816Y-30295D01*
X26816Y-30295D02*
X26816Y-30428D01*
X26816Y-30428D02*
X26866Y-30473D01*
X26866Y-30473D02*
X27166Y-30473D01*
X26292Y-30650D02*
X26642Y-30650D01*
X26642Y-30650D02*
X26642Y-30517D01*
X26642Y-30517D02*
X26592Y-30473D01*
X26592Y-30473D02*
X26342Y-30473D01*
X26342Y-30473D02*
X26292Y-30428D01*
X26292Y-30428D02*
X26292Y-30295D01*
X26292Y-30295D02*
X26342Y-30250D01*
X26342Y-30250D02*
X26592Y-30250D01*
X26592Y-30250D02*
X26642Y-30295D01*
G54D19*
X26735Y-26975D02*
X26297Y-26525D01*
X26735Y-26525D02*
X26297Y-26975D01*
X25995Y-26975D02*
X25745Y-26975D01*
X25870Y-26975D02*
X25870Y-26525D01*
X25870Y-26575D02*
X25995Y-26675D01*
X24737Y-27025D02*
X24800Y-26975D01*
X24800Y-26975D02*
X24800Y-26825D01*
X24800Y-26825D02*
X24737Y-26775D01*
X24737Y-26775D02*
X24425Y-26775D01*
X24425Y-26775D02*
X24362Y-26725D01*
X24362Y-26725D02*
X24362Y-26625D01*
X24362Y-26625D02*
X24425Y-26575D01*
X24425Y-26575D02*
X24737Y-26575D01*
X24737Y-26575D02*
X24800Y-26625D01*
X24800Y-26625D02*
X24800Y-26725D01*
X24800Y-26725D02*
X24737Y-26775D01*
X24425Y-26775D02*
X24362Y-26825D01*
X24362Y-26825D02*
X24362Y-26975D01*
X24362Y-26975D02*
X24425Y-27025D01*
X24425Y-27025D02*
X24737Y-27025D01*
X24185Y-27025D02*
X24185Y-26575D01*
X24185Y-26575D02*
X23935Y-26775D01*
X23935Y-26775D02*
X23685Y-26575D01*
X23685Y-26575D02*
X23685Y-27025D01*
X23570Y-27025D02*
X23570Y-26575D01*
X23132Y-27025D02*
X23132Y-26575D01*
X23570Y-26825D02*
X23132Y-26825D01*
X22955Y-26725D02*
X22517Y-26725D01*
X22517Y-26725D02*
X22955Y-27025D01*
X22955Y-27025D02*
X22517Y-27025D01*
G54D10*
X20047Y-25160D02*
X19998Y-25247D01*
X19998Y-25247D02*
X19899Y-25247D01*
X19899Y-25247D02*
X19850Y-25204D01*
X19850Y-25204D02*
X19850Y-24853D01*
X19949Y-24853D02*
X19752Y-24853D01*
X19392Y-25247D02*
X19195Y-25247D01*
X19293Y-25247D02*
X19293Y-24853D01*
X19293Y-24897D02*
X19392Y-24985D01*
X20450Y-25018D02*
X20984Y-25018D01*
X20984Y-25018D02*
X21050Y-25093D01*
X21050Y-25093D02*
X21050Y-25468D01*
X21050Y-25468D02*
X20984Y-25543D01*
X20984Y-25543D02*
X20450Y-25543D01*
X20984Y-25804D02*
X21050Y-25879D01*
X21050Y-25879D02*
X21050Y-26254D01*
X21050Y-26254D02*
X20984Y-26329D01*
X20984Y-26329D02*
X20784Y-26329D01*
X20784Y-26329D02*
X20717Y-26254D01*
X20717Y-26254D02*
X20717Y-25879D01*
X20717Y-25879D02*
X20650Y-25804D01*
X20650Y-25804D02*
X20517Y-25804D01*
X20517Y-25804D02*
X20450Y-25879D01*
X20450Y-25879D02*
X20450Y-26254D01*
X20450Y-26254D02*
X20517Y-26329D01*
X21050Y-26590D02*
X20450Y-26590D01*
X20450Y-26590D02*
X20450Y-27040D01*
X20450Y-27040D02*
X20517Y-27115D01*
X20517Y-27115D02*
X20650Y-27115D01*
X20650Y-27115D02*
X20717Y-27040D01*
X20717Y-27040D02*
X20717Y-26590D01*
X20717Y-27040D02*
X20850Y-27115D01*
X20850Y-27115D02*
X20984Y-27115D01*
X20984Y-27115D02*
X21050Y-27040D01*
X21050Y-27040D02*
X21050Y-26590D01*
X21050Y-27376D02*
X21050Y-27901D01*
X20984Y-28687D02*
X21050Y-28612D01*
X21050Y-28612D02*
X21050Y-28237D01*
X21050Y-28237D02*
X20984Y-28162D01*
X20984Y-28162D02*
X20517Y-28162D01*
X20517Y-28162D02*
X20450Y-28237D01*
X20450Y-28237D02*
X20450Y-28612D01*
X20450Y-28612D02*
X20517Y-28687D01*
X21050Y-29023D02*
X20984Y-28948D01*
X20984Y-28948D02*
X20517Y-28948D01*
X20517Y-28948D02*
X20450Y-29023D01*
X20450Y-29023D02*
X20450Y-29398D01*
X20450Y-29398D02*
X20517Y-29473D01*
X20517Y-29473D02*
X20984Y-29473D01*
X20984Y-29473D02*
X21050Y-29398D01*
X21050Y-29398D02*
X21050Y-29023D01*
X21050Y-29734D02*
X20450Y-29734D01*
X20450Y-29734D02*
X21050Y-30259D01*
X21050Y-30259D02*
X20450Y-30259D01*
X21050Y-30520D02*
X20450Y-30520D01*
X20450Y-30520D02*
X21050Y-31045D01*
X21050Y-31045D02*
X20450Y-31045D01*
M02*
