G04 (Genere par PCBNEW (2007-07-09)) le 14/8/2008-14:27:18*
G01*
G70*
G90*
%MOIN*%
G04 Gerber Fmt 3.4, Leading zero omitted, Abs format*
%FSLAX34Y34*%
G04 APERTURE LIST*
%ADD10C,0.015000*%
%ADD11C,0.015000*%
%ADD12R,0.063000X0.063000*%
%ADD13C,0.063000*%
%ADD14O,0.062000X0.090000*%
%ADD15R,0.062000X0.090000*%
%ADD16R,0.055000X0.055000*%
%ADD17C,0.055000*%
%ADD18C,0.070000*%
%ADD19R,0.088600X0.088600*%
%ADD20C,0.088600*%
%ADD21C,0.169300*%
%ADD22C,0.059100*%
%ADD23C,0.030000*%
%ADD24C,0.005000*%
%ADD25C,0.006000*%
%ADD26C,0.012000*%
%ADD27C,0.001000*%
%ADD28C,0.008000*%
%ADD29C,0.011800*%
%ADD30R,0.083000X0.083000*%
%ADD31C,0.083000*%
%ADD32O,0.082000X0.110000*%
%ADD33R,0.082000X0.110000*%
%ADD34R,0.075000X0.075000*%
%ADD35C,0.075000*%
%ADD36C,0.090000*%
%ADD37R,0.108600X0.108600*%
%ADD38C,0.108600*%
%ADD39C,0.189300*%
%ADD40C,0.079100*%
G04 APERTURE END LIST*
G54D10*
X44250Y-37500D02*
X44250Y-19750D01*
X12000Y-37500D02*
X44250Y-37500D01*
X12000Y-19750D02*
X12000Y-37500D01*
X44250Y-19750D02*
X12000Y-19750D01*
G54D30*
X37250Y-31500D03*
G54D31*
X36500Y-30750D03*
X37250Y-30000D03*
G54D30*
X40750Y-34750D03*
G54D31*
X40000Y-34000D03*
X40750Y-33250D03*
G54D30*
X36500Y-33750D03*
G54D31*
X37250Y-33000D03*
X38000Y-33750D03*
G54D32*
X31250Y-27500D03*
X30250Y-27500D03*
X29250Y-27500D03*
X28250Y-27500D03*
X27250Y-27500D03*
X26250Y-27500D03*
X25250Y-27500D03*
X24250Y-27500D03*
X23250Y-27500D03*
X22250Y-27500D03*
X21250Y-27500D03*
X20250Y-27500D03*
X19250Y-27500D03*
G54D33*
X32250Y-27500D03*
G54D32*
X19250Y-30500D03*
X20250Y-30500D03*
X21250Y-30500D03*
X22250Y-30500D03*
X23250Y-30500D03*
X24250Y-30500D03*
X25250Y-30500D03*
X26250Y-30500D03*
X27250Y-30500D03*
X28250Y-30500D03*
X29250Y-30500D03*
X30250Y-30500D03*
X31250Y-30500D03*
X32250Y-30500D03*
G54D34*
X33750Y-25750D03*
G54D35*
X33750Y-26750D03*
G54D34*
X31250Y-25000D03*
G54D35*
X31250Y-26000D03*
G54D34*
X29250Y-25000D03*
G54D35*
X29250Y-26000D03*
G54D36*
X24500Y-25500D03*
X26500Y-25500D03*
G54D34*
X29000Y-32750D03*
G54D35*
X30000Y-32750D03*
X31000Y-32750D03*
X32000Y-32750D03*
X33000Y-32750D03*
G54D34*
X41500Y-30750D03*
G54D35*
X41500Y-29750D03*
X41500Y-28750D03*
X41500Y-27750D03*
X41500Y-26750D03*
G54D37*
X36000Y-24774D03*
G54D38*
X36000Y-27726D03*
X36000Y-26742D03*
G54D37*
X32476Y-34250D03*
G54D38*
X29524Y-34250D03*
X30508Y-34250D03*
G54D37*
X18226Y-34000D03*
G54D38*
X15274Y-34000D03*
X16258Y-34000D03*
G54D37*
X21484Y-32250D03*
G54D38*
X18532Y-32250D03*
X19516Y-32250D03*
G54D37*
X41226Y-22750D03*
G54D38*
X38274Y-22750D03*
X39258Y-22750D03*
G54D37*
X17024Y-26000D03*
G54D38*
X19976Y-26000D03*
X18992Y-26000D03*
G54D37*
X27750Y-23750D03*
G54D38*
X31750Y-23750D03*
G54D37*
X29000Y-22500D03*
G54D38*
X33000Y-22500D03*
G54D37*
X33000Y-23750D03*
G54D38*
X37000Y-23750D03*
G54D37*
X43000Y-25750D03*
G54D38*
X39000Y-25750D03*
G54D37*
X21750Y-23250D03*
G54D38*
X21750Y-24341D03*
G54D37*
X18750Y-23750D03*
G54D38*
X19841Y-23750D03*
G54D37*
X16750Y-23250D03*
G54D38*
X16750Y-24341D03*
G54D37*
X40250Y-30750D03*
G54D38*
X40250Y-26750D03*
G54D37*
X38500Y-31750D03*
G54D38*
X38500Y-27750D03*
G54D39*
X15148Y-26886D03*
X15148Y-31618D03*
G54D40*
X17000Y-29742D03*
X16210Y-29742D03*
X16210Y-28758D03*
X17000Y-28758D03*
G54D35*
X24500Y-23750D03*
X23500Y-23750D03*
X25500Y-23750D03*
X26500Y-23750D03*
G54D38*
X42750Y-24250D03*
X38750Y-24250D03*
X23750Y-34500D03*
X27750Y-34500D03*
X34000Y-30250D03*
X34000Y-34250D03*
X27500Y-32750D03*
X23500Y-32750D03*
X29750Y-31750D03*
X25750Y-31750D03*
X27500Y-22250D03*
X23500Y-22250D03*
X19500Y-22000D03*
X15500Y-22000D03*
X13750Y-26000D03*
X13750Y-22000D03*
X35000Y-29250D03*
X35000Y-33250D03*
M02*
