M48
;DRILL file {PCBNEW (2007-05-25)} date 7/11/2007-12:59:52
;FORMAT={2:4 / absolute / inches / decimal format}
R,T
VER,1
FMAT,2
INCH,TZ
TCST,OFF
ICI,OFF
ATC,ON
T1C0.025
T2C0.032
T3C0.035
T4C0.091
%
M47
G05
M72
T1
X2.005Y-3.115
X2.225Y-3.115
X3.115Y-2.975
X3.115Y-3.170
X2.890Y-2.245
X1.790Y-2.245
X2.050Y-2.245
X2.295Y-2.245
X2.550Y-2.245
X3.375Y-3.090
X2.185Y-2.945
X2.485Y-2.755
X2.375Y-2.955
X2.280Y-2.895
X2.675Y-2.895
T2
X3.185Y-2.955
X3.185Y-2.855
X3.185Y-2.755
X3.185Y-2.655
X3.185Y-2.555
X2.475Y-3.145
X2.575Y-3.145
X2.675Y-3.145
X2.775Y-3.145
X2.875Y-3.145
X2.400Y-2.550
X2.600Y-2.550
T3
X1.975Y-2.726
X1.896Y-2.726
X1.896Y-2.824
X1.975Y-2.824
T4
X1.790Y-3.011
X1.790Y-2.538
T0
M30
