G04 (created by PCBNEW-RS274X (2010-05-05 BZR 2356)-stable) date Fri 25 Feb 2011 10:53:11 AM CET*
G01*
G70*
G90*
%MOIN*%
G04 Gerber Fmt 3.4, Leading zero omitted, Abs format*
%FSLAX34Y34*%
G04 APERTURE LIST*
%ADD10C,0.006000*%
%ADD11C,0.001000*%
%ADD12C,0.005000*%
%ADD13R,0.070000X0.070000*%
%ADD14C,0.070000*%
%ADD15R,0.025000X0.045000*%
%ADD16R,0.045000X0.025000*%
%ADD17R,0.100000X0.050000*%
%ADD18R,0.050000X0.100000*%
%ADD19R,0.020000X0.050000*%
%ADD20R,0.036000X0.036000*%
%ADD21C,0.169300*%
%ADD22C,0.059100*%
%ADD23R,0.080000X0.060000*%
%ADD24R,0.060000X0.080000*%
%ADD25C,0.045000*%
%ADD26C,0.012000*%
%ADD27C,0.017000*%
%ADD28C,0.030000*%
%ADD29C,0.010000*%
G04 APERTURE END LIST*
G54D10*
G54D11*
X16650Y-21650D02*
X34600Y-21650D01*
X16650Y-32600D02*
X16650Y-21650D01*
X34600Y-32600D02*
X16650Y-32600D01*
X34600Y-21650D02*
X34600Y-32600D01*
G54D12*
X17825Y-31862D02*
X17825Y-32186D01*
X17834Y-32224D01*
X17844Y-32243D01*
X17863Y-32262D01*
X17901Y-32262D01*
X17920Y-32243D01*
X17929Y-32224D01*
X17939Y-32186D01*
X17939Y-31862D01*
X18025Y-32243D02*
X18044Y-32262D01*
X18082Y-32262D01*
X18101Y-32243D01*
X18111Y-32205D01*
X18111Y-32186D01*
X18101Y-32148D01*
X18082Y-32129D01*
X18054Y-32129D01*
X18035Y-32110D01*
X18025Y-32071D01*
X18025Y-32052D01*
X18035Y-32014D01*
X18054Y-31995D01*
X18082Y-31995D01*
X18101Y-32014D01*
X18197Y-32262D02*
X18197Y-31862D01*
X18197Y-32014D02*
X18216Y-31995D01*
X18254Y-31995D01*
X18273Y-32014D01*
X18282Y-32033D01*
X18292Y-32071D01*
X18292Y-32186D01*
X18282Y-32224D01*
X18273Y-32243D01*
X18254Y-32262D01*
X18216Y-32262D01*
X18197Y-32243D01*
X18378Y-31995D02*
X18378Y-32395D01*
X18378Y-32014D02*
X18397Y-31995D01*
X18435Y-31995D01*
X18454Y-32014D01*
X18463Y-32033D01*
X18473Y-32071D01*
X18473Y-32186D01*
X18463Y-32224D01*
X18454Y-32243D01*
X18435Y-32262D01*
X18397Y-32262D01*
X18378Y-32243D01*
X18559Y-32262D02*
X18559Y-31995D01*
X18559Y-31862D02*
X18549Y-31881D01*
X18559Y-31900D01*
X18568Y-31881D01*
X18559Y-31862D01*
X18559Y-31900D01*
X18739Y-32243D02*
X18720Y-32262D01*
X18682Y-32262D01*
X18663Y-32243D01*
X18654Y-32224D01*
X18644Y-32186D01*
X18644Y-32071D01*
X18654Y-32033D01*
X18663Y-32014D01*
X18682Y-31995D01*
X18720Y-31995D01*
X18739Y-32014D01*
X18825Y-31995D02*
X18825Y-32395D01*
X18825Y-32014D02*
X18844Y-31995D01*
X18882Y-31995D01*
X18901Y-32014D01*
X18910Y-32033D01*
X18920Y-32071D01*
X18920Y-32186D01*
X18910Y-32224D01*
X18901Y-32243D01*
X18882Y-32262D01*
X18844Y-32262D01*
X18825Y-32243D01*
X19006Y-32262D02*
X19006Y-31995D01*
X19006Y-32071D02*
X19015Y-32033D01*
X19025Y-32014D01*
X19044Y-31995D01*
X19063Y-31995D01*
X19158Y-32262D02*
X19139Y-32243D01*
X19130Y-32224D01*
X19120Y-32186D01*
X19120Y-32071D01*
X19130Y-32033D01*
X19139Y-32014D01*
X19158Y-31995D01*
X19187Y-31995D01*
X19206Y-32014D01*
X19215Y-32033D01*
X19225Y-32071D01*
X19225Y-32186D01*
X19215Y-32224D01*
X19206Y-32243D01*
X19187Y-32262D01*
X19158Y-32262D01*
X19396Y-31995D02*
X19396Y-32319D01*
X19387Y-32357D01*
X19377Y-32376D01*
X19358Y-32395D01*
X19330Y-32395D01*
X19311Y-32376D01*
X19396Y-32243D02*
X19377Y-32262D01*
X19339Y-32262D01*
X19320Y-32243D01*
X19311Y-32224D01*
X19301Y-32186D01*
X19301Y-32071D01*
X19311Y-32033D01*
X19320Y-32014D01*
X19339Y-31995D01*
X19377Y-31995D01*
X19396Y-32014D01*
X19625Y-31995D02*
X19672Y-32262D01*
X19720Y-31995D01*
X19834Y-31862D02*
X19853Y-31862D01*
X19872Y-31881D01*
X19881Y-31900D01*
X19891Y-31938D01*
X19900Y-32014D01*
X19900Y-32110D01*
X19891Y-32186D01*
X19881Y-32224D01*
X19872Y-32243D01*
X19853Y-32262D01*
X19834Y-32262D01*
X19815Y-32243D01*
X19805Y-32224D01*
X19796Y-32186D01*
X19786Y-32110D01*
X19786Y-32014D01*
X19796Y-31938D01*
X19805Y-31900D01*
X19815Y-31881D01*
X19834Y-31862D01*
X19986Y-32224D02*
X19995Y-32243D01*
X19986Y-32262D01*
X19976Y-32243D01*
X19986Y-32224D01*
X19986Y-32262D01*
X20062Y-31862D02*
X20185Y-31862D01*
X20119Y-32014D01*
X20147Y-32014D01*
X20166Y-32033D01*
X20176Y-32052D01*
X20185Y-32090D01*
X20185Y-32186D01*
X20176Y-32224D01*
X20166Y-32243D01*
X20147Y-32262D01*
X20090Y-32262D01*
X20071Y-32243D01*
X20062Y-32224D01*
G54D13*
X31850Y-29550D03*
G54D14*
X31850Y-28550D03*
X31850Y-27550D03*
X31850Y-26550D03*
X31850Y-25550D03*
G54D13*
X24750Y-31450D03*
G54D14*
X25750Y-31450D03*
X26750Y-31450D03*
X27750Y-31450D03*
X28750Y-31450D03*
X24000Y-25500D03*
X26000Y-25500D03*
G54D15*
X23400Y-31100D03*
X22800Y-31100D03*
X27900Y-30100D03*
X28500Y-30100D03*
X27900Y-30700D03*
X28500Y-30700D03*
X28500Y-28300D03*
X27900Y-28300D03*
X28500Y-28900D03*
X27900Y-28900D03*
G54D16*
X30000Y-24900D03*
X30000Y-24300D03*
G54D15*
X20550Y-23500D03*
X19950Y-23500D03*
X19300Y-23500D03*
X18700Y-23500D03*
X25550Y-23250D03*
X24950Y-23250D03*
X25450Y-24750D03*
X26050Y-24750D03*
X25100Y-24200D03*
X25700Y-24200D03*
X30900Y-30500D03*
X31500Y-30500D03*
G54D16*
X26250Y-23650D03*
X26250Y-24250D03*
X32750Y-26850D03*
X32750Y-26250D03*
G54D15*
X19600Y-26400D03*
X19000Y-26400D03*
G54D17*
X21500Y-23400D03*
X21500Y-24600D03*
X28750Y-24400D03*
X28750Y-25600D03*
X27550Y-24400D03*
X27550Y-25600D03*
G54D18*
X30750Y-24500D03*
X31950Y-24500D03*
G54D17*
X22750Y-23400D03*
X22750Y-24600D03*
X24000Y-23400D03*
X24000Y-24600D03*
G54D19*
X27250Y-26700D03*
X26750Y-26700D03*
X26250Y-26700D03*
X25750Y-26700D03*
X25250Y-26700D03*
X24750Y-26700D03*
X24250Y-26700D03*
X23750Y-26700D03*
X23250Y-26700D03*
X22750Y-26700D03*
X22250Y-26700D03*
X21750Y-26700D03*
X21250Y-26700D03*
X20750Y-26700D03*
X20750Y-30300D03*
X21250Y-30300D03*
X21750Y-30300D03*
X22250Y-30300D03*
X22750Y-30300D03*
X23250Y-30300D03*
X23750Y-30300D03*
X24250Y-30300D03*
X24750Y-30300D03*
X25250Y-30300D03*
X25750Y-30300D03*
X26250Y-30300D03*
X26750Y-30300D03*
X27250Y-30300D03*
G54D20*
X31250Y-32000D03*
X30550Y-32000D03*
X30900Y-31200D03*
X32850Y-32000D03*
X32150Y-32000D03*
X32500Y-31200D03*
G54D21*
X17898Y-30114D03*
X17898Y-25382D03*
G54D22*
X19750Y-27258D03*
X18960Y-27258D03*
X18960Y-28242D03*
X19750Y-28242D03*
G54D15*
X20200Y-26000D03*
X20800Y-26000D03*
G54D23*
X32850Y-29000D03*
X32850Y-27700D03*
G54D20*
X29500Y-30200D03*
X29500Y-29500D03*
X30300Y-29850D03*
G54D24*
X29250Y-23450D03*
X30550Y-23450D03*
X27250Y-23650D03*
X28550Y-23650D03*
X26500Y-22650D03*
X27800Y-22650D03*
G54D23*
X30900Y-27650D03*
X30900Y-26350D03*
X32850Y-24350D03*
X32850Y-25650D03*
G54D15*
X27900Y-27100D03*
X28500Y-27100D03*
X27900Y-29500D03*
X28500Y-29500D03*
X27900Y-27700D03*
X28500Y-27700D03*
X27900Y-26500D03*
X28500Y-26500D03*
G54D16*
X33700Y-26300D03*
X33700Y-25700D03*
G54D15*
X29100Y-27500D03*
X29700Y-27500D03*
X33300Y-23350D03*
X32700Y-23350D03*
X32700Y-22600D03*
X33300Y-22600D03*
G54D24*
X29750Y-25600D03*
X31050Y-25600D03*
G54D20*
X30250Y-28600D03*
X29550Y-28600D03*
X29900Y-27800D03*
G54D25*
X26800Y-27400D03*
X30600Y-31000D03*
X30700Y-28300D03*
X29800Y-30250D03*
X23900Y-31100D03*
X19650Y-24650D03*
X26750Y-24750D03*
X31950Y-23600D03*
X33450Y-31800D03*
X23000Y-32000D03*
X32000Y-30500D03*
X21500Y-29500D03*
X21000Y-29000D03*
X21000Y-28000D03*
X22500Y-28000D03*
X23500Y-28500D03*
X34000Y-24750D03*
X34000Y-23250D03*
X34000Y-22250D03*
X18250Y-22250D03*
X17250Y-22250D03*
X17250Y-24250D03*
X21750Y-32000D03*
X17250Y-31500D03*
X19250Y-31500D03*
X21250Y-31500D03*
G54D26*
X18960Y-28242D02*
X18960Y-28260D01*
X21250Y-30850D02*
X21250Y-30300D01*
X21200Y-30900D02*
X21250Y-30850D01*
X20500Y-30900D02*
X21200Y-30900D01*
X20400Y-30800D02*
X20500Y-30900D01*
X20400Y-29700D02*
X20400Y-30800D01*
X18960Y-28260D02*
X20400Y-29700D01*
X20750Y-29750D02*
X19750Y-28750D01*
X20750Y-30300D02*
X20750Y-29750D01*
X19750Y-28750D02*
X19750Y-28242D01*
X24000Y-24600D02*
X23900Y-24600D01*
X22250Y-26250D02*
X22250Y-26700D01*
X23900Y-24600D02*
X22250Y-26250D01*
X21750Y-26050D02*
X22750Y-25050D01*
X21750Y-26700D02*
X21750Y-26050D01*
X22750Y-25050D02*
X22750Y-24600D01*
X21500Y-25500D02*
X21250Y-25750D01*
X21500Y-24600D02*
X21500Y-25500D01*
X21250Y-25750D02*
X21250Y-26700D01*
X24700Y-29300D02*
X24250Y-29750D01*
X27200Y-29300D02*
X24700Y-29300D01*
X27600Y-28900D02*
X27200Y-29300D01*
X27900Y-28900D02*
X27600Y-28900D01*
X24250Y-29750D02*
X24250Y-30300D01*
X26750Y-30300D02*
X26750Y-30450D01*
X26750Y-30450D02*
X25750Y-31450D01*
X23750Y-30300D02*
X23750Y-29850D01*
X27700Y-28300D02*
X27900Y-28300D01*
X27500Y-28500D02*
X27700Y-28300D01*
X27500Y-28700D02*
X27500Y-28500D01*
X27100Y-29100D02*
X27500Y-28700D01*
X24500Y-29100D02*
X27100Y-29100D01*
X23750Y-29850D02*
X24500Y-29100D01*
X27250Y-30300D02*
X27250Y-30950D01*
X27250Y-30950D02*
X26750Y-31450D01*
X27750Y-25600D02*
X27750Y-25650D01*
X26250Y-26600D02*
X26250Y-26700D01*
X26600Y-26250D02*
X26250Y-26600D01*
X26750Y-26250D02*
X26600Y-26250D01*
X26950Y-26050D02*
X26750Y-26250D01*
X27350Y-26050D02*
X26950Y-26050D01*
X27750Y-25650D02*
X27400Y-26000D01*
X27400Y-26000D02*
X27350Y-26050D01*
X27550Y-25600D02*
X27550Y-25850D01*
X27550Y-25850D02*
X27400Y-26000D01*
X26750Y-26700D02*
X26750Y-26550D01*
X28550Y-26050D02*
X29000Y-25600D01*
X27650Y-26050D02*
X28550Y-26050D01*
X27450Y-26250D02*
X27650Y-26050D01*
X27050Y-26250D02*
X27450Y-26250D01*
X26750Y-26550D02*
X27050Y-26250D01*
X28750Y-25600D02*
X28750Y-25850D01*
X28750Y-25850D02*
X28550Y-26050D01*
X25100Y-29500D02*
X24750Y-29850D01*
X27900Y-29500D02*
X25100Y-29500D01*
X24750Y-29850D02*
X24750Y-30300D01*
G54D27*
X31850Y-25550D02*
X32750Y-25550D01*
X32750Y-25550D02*
X32850Y-25650D01*
X32850Y-25650D02*
X33650Y-25650D01*
X33650Y-25650D02*
X33700Y-25700D01*
G54D26*
X32500Y-31200D02*
X32550Y-31200D01*
X32750Y-25650D02*
X32850Y-25650D01*
X32350Y-26050D02*
X32750Y-25650D01*
X32350Y-26500D02*
X32350Y-26050D01*
X32450Y-26600D02*
X32350Y-26500D01*
X32800Y-26600D02*
X32450Y-26600D01*
X32550Y-31200D02*
X33400Y-30350D01*
X33400Y-30350D02*
X33400Y-26800D01*
X33400Y-26800D02*
X33200Y-26600D01*
X33200Y-26600D02*
X32800Y-26600D01*
X33300Y-22600D02*
X33500Y-22600D01*
X33650Y-24850D02*
X32850Y-25650D01*
X33650Y-22750D02*
X33650Y-24850D01*
X33500Y-22600D02*
X33650Y-22750D01*
X30900Y-26350D02*
X30900Y-25750D01*
X30900Y-25750D02*
X31050Y-25600D01*
X31050Y-25600D02*
X31800Y-25600D01*
X31800Y-25600D02*
X31850Y-25550D01*
X25500Y-29700D02*
X25250Y-29950D01*
X27500Y-29700D02*
X25500Y-29700D01*
X27700Y-29900D02*
X27500Y-29700D01*
X27700Y-30000D02*
X27700Y-29900D01*
X27800Y-30100D02*
X27700Y-30000D01*
X27900Y-30100D02*
X27800Y-30100D01*
X25250Y-29950D02*
X25250Y-30300D01*
X26400Y-29900D02*
X26250Y-30050D01*
X27400Y-29900D02*
X26400Y-29900D01*
X27500Y-30000D02*
X27400Y-29900D01*
X27500Y-30500D02*
X27500Y-30000D01*
X27700Y-30700D02*
X27500Y-30500D01*
X27900Y-30700D02*
X27700Y-30700D01*
X26250Y-30050D02*
X26250Y-30300D01*
X27250Y-26700D02*
X27250Y-26950D01*
X27250Y-26950D02*
X26800Y-27400D01*
X24800Y-23400D02*
X24950Y-23250D01*
G54D27*
X24800Y-23400D02*
X24950Y-23250D01*
G54D26*
X24000Y-23400D02*
X24800Y-23400D01*
X19300Y-23500D02*
X19300Y-23800D01*
X22750Y-23850D02*
X22750Y-23400D01*
X22600Y-24000D02*
X22750Y-23850D01*
X19500Y-24000D02*
X22600Y-24000D01*
X19300Y-23800D02*
X19500Y-24000D01*
X20550Y-23500D02*
X21400Y-23500D01*
X21400Y-23500D02*
X21500Y-23400D01*
X23250Y-26700D02*
X23250Y-26250D01*
X24800Y-25500D02*
X26000Y-25500D01*
X24200Y-26100D02*
X24800Y-25500D01*
X23400Y-26100D02*
X24200Y-26100D01*
X23250Y-26250D02*
X23400Y-26100D01*
X25450Y-24750D02*
X25450Y-24950D01*
X25450Y-24950D02*
X26000Y-25500D01*
G54D27*
X31850Y-26550D02*
X31950Y-26550D01*
X32250Y-26850D02*
X32750Y-26850D01*
X31950Y-26550D02*
X32250Y-26850D01*
X32850Y-27700D02*
X32850Y-26950D01*
X32850Y-26950D02*
X32750Y-26850D01*
G54D26*
X30550Y-32000D02*
X30550Y-31450D01*
X28700Y-30100D02*
X28500Y-30100D01*
X29400Y-30800D02*
X28700Y-30100D01*
X29900Y-30800D02*
X29400Y-30800D01*
X30550Y-31450D02*
X29900Y-30800D01*
X28500Y-30700D02*
X29000Y-30700D01*
X31750Y-32400D02*
X32150Y-32000D01*
X30400Y-32400D02*
X31750Y-32400D01*
X30200Y-32200D02*
X30400Y-32400D01*
X30200Y-31400D02*
X30200Y-32200D01*
X29800Y-31000D02*
X30200Y-31400D01*
X29300Y-31000D02*
X29800Y-31000D01*
X29000Y-30700D02*
X29300Y-31000D01*
X22750Y-26350D02*
X23600Y-25500D01*
X25100Y-24200D02*
X25100Y-24800D01*
X24400Y-25500D02*
X24000Y-25500D01*
X25100Y-24800D02*
X24400Y-25500D01*
X22750Y-26700D02*
X22750Y-26350D01*
X23600Y-25500D02*
X24000Y-25500D01*
X27800Y-22500D02*
X27800Y-22600D01*
X27250Y-23150D02*
X27250Y-23650D01*
X27800Y-22600D02*
X27400Y-23000D01*
X27400Y-23000D02*
X27250Y-23150D01*
X27800Y-22650D02*
X27750Y-22650D01*
X27750Y-22650D02*
X27400Y-23000D01*
X27250Y-23650D02*
X27250Y-24100D01*
X27250Y-24100D02*
X27550Y-24400D01*
X30900Y-27650D02*
X30900Y-27700D01*
X30368Y-28718D02*
X30250Y-28600D01*
X30782Y-28718D02*
X30368Y-28718D01*
X31176Y-28324D02*
X30782Y-28718D01*
X31176Y-27976D02*
X31176Y-28324D01*
X30900Y-27700D02*
X31176Y-27976D01*
G54D27*
X20750Y-26700D02*
X20750Y-26050D01*
X20750Y-26050D02*
X20800Y-26000D01*
X30550Y-23650D02*
X30750Y-23850D01*
X30000Y-24300D02*
X30550Y-24300D01*
X30550Y-24300D02*
X30750Y-24500D01*
X30550Y-23450D02*
X30550Y-23650D01*
X30750Y-23850D02*
X30750Y-24500D01*
G54D26*
X28550Y-23650D02*
X29050Y-23650D01*
X29050Y-23650D02*
X29250Y-23450D01*
X29000Y-24400D02*
X29000Y-24100D01*
X29000Y-24100D02*
X29000Y-23700D01*
X29000Y-23700D02*
X29250Y-23450D01*
X28750Y-24400D02*
X29000Y-24150D01*
X29000Y-24150D02*
X29000Y-24100D01*
X27900Y-27100D02*
X27600Y-27400D01*
X27600Y-27500D02*
X27600Y-27400D01*
X27400Y-27800D02*
X27600Y-27600D01*
X27600Y-27600D02*
X27600Y-27500D01*
X27400Y-27800D02*
X27300Y-27900D01*
X24750Y-27750D02*
X24750Y-26700D01*
X25000Y-28000D02*
X24750Y-27750D01*
X27200Y-28000D02*
X25000Y-28000D01*
X27300Y-27900D02*
X27200Y-28000D01*
X31850Y-27550D02*
X31850Y-27750D01*
X28600Y-28300D02*
X28500Y-28300D01*
X28850Y-28550D02*
X28600Y-28300D01*
X31400Y-28200D02*
X31400Y-28300D01*
X31850Y-27750D02*
X31400Y-28200D01*
X28500Y-28300D02*
X28700Y-28300D01*
X28700Y-27100D02*
X28500Y-27100D01*
X28800Y-27200D02*
X28700Y-27100D01*
X28800Y-28200D02*
X28800Y-27200D01*
X28700Y-28300D02*
X28800Y-28200D01*
X31400Y-28300D02*
X31400Y-28400D01*
X31400Y-28400D02*
X31025Y-28775D01*
X31025Y-28775D02*
X30832Y-28968D01*
X28850Y-28650D02*
X28850Y-28550D01*
X29168Y-28968D02*
X28850Y-28650D01*
X30832Y-28968D02*
X29168Y-28968D01*
X30900Y-31200D02*
X30800Y-31200D01*
X30600Y-31000D02*
X30800Y-31200D01*
X29550Y-28550D02*
X29550Y-28600D01*
X29550Y-28550D02*
X29900Y-28200D01*
X29900Y-28200D02*
X30200Y-28200D01*
X29550Y-28600D02*
X29300Y-28600D01*
X29100Y-28400D02*
X29100Y-27500D01*
X29300Y-28600D02*
X29100Y-28400D01*
X30200Y-28200D02*
X30600Y-28200D01*
X30600Y-28200D02*
X30700Y-28300D01*
X28500Y-29500D02*
X29200Y-29500D01*
X29200Y-29500D02*
X29450Y-29500D01*
X29450Y-29500D02*
X29500Y-29450D01*
X29200Y-29500D02*
X29500Y-29500D01*
X27600Y-27100D02*
X27600Y-26800D01*
X27400Y-27300D02*
X27600Y-27100D01*
X25250Y-26700D02*
X25250Y-27650D01*
X27100Y-27800D02*
X27400Y-27500D01*
X25400Y-27800D02*
X27100Y-27800D01*
X25250Y-27650D02*
X25400Y-27800D01*
X27600Y-26800D02*
X27900Y-26500D01*
X27400Y-27500D02*
X27400Y-27300D01*
X25750Y-26700D02*
X25750Y-26450D01*
X32650Y-22550D02*
X32700Y-22600D01*
X30150Y-22550D02*
X32650Y-22550D01*
X29850Y-22850D02*
X30150Y-22550D01*
X29850Y-23850D02*
X29850Y-22850D01*
X29650Y-24050D02*
X29850Y-23850D01*
X29600Y-24050D02*
X29650Y-24050D01*
X29500Y-24150D02*
X29600Y-24050D01*
X29500Y-24900D02*
X29500Y-24150D01*
X29400Y-25000D02*
X29500Y-24900D01*
X25750Y-26450D02*
X25950Y-26250D01*
X25950Y-26250D02*
X26300Y-26250D01*
X26300Y-26250D02*
X26850Y-25700D01*
X26850Y-25700D02*
X26850Y-25300D01*
X26850Y-25300D02*
X27150Y-25000D01*
X27150Y-25000D02*
X29400Y-25000D01*
X32700Y-23350D02*
X32700Y-22600D01*
X29750Y-25600D02*
X29750Y-26050D01*
X29300Y-26500D02*
X28500Y-26500D01*
X29750Y-26050D02*
X29300Y-26500D01*
X29900Y-27800D02*
X29900Y-27700D01*
X29900Y-27700D02*
X29700Y-27500D01*
X30000Y-24900D02*
X30200Y-25100D01*
X29700Y-27200D02*
X29700Y-27500D01*
X30200Y-26700D02*
X29700Y-27200D01*
X30200Y-25100D02*
X30200Y-26700D01*
X31400Y-29050D02*
X32800Y-29050D01*
X30650Y-29800D02*
X31400Y-29050D01*
X30300Y-29800D02*
X30500Y-29800D01*
X30500Y-29800D02*
X30650Y-29800D01*
X32800Y-29050D02*
X32850Y-29000D01*
X30300Y-29850D02*
X30450Y-29850D01*
X30450Y-29850D02*
X30500Y-29800D01*
X27900Y-27700D02*
X27800Y-27700D01*
X24250Y-27600D02*
X24250Y-27500D01*
X24250Y-27500D02*
X24250Y-26700D01*
X27800Y-27700D02*
X27500Y-28000D01*
X24250Y-27600D02*
X24250Y-27950D01*
X27300Y-28200D02*
X27500Y-28000D01*
X24500Y-28200D02*
X27300Y-28200D01*
X24250Y-27950D02*
X24500Y-28200D01*
X28500Y-28900D02*
X28700Y-28900D01*
X31550Y-28550D02*
X31850Y-28550D01*
X31100Y-29000D02*
X31550Y-28550D01*
X28700Y-28900D02*
X28850Y-29050D01*
X28500Y-27700D02*
X28300Y-27700D01*
X28300Y-28900D02*
X28500Y-28900D01*
X28200Y-28800D02*
X28300Y-28900D01*
X28200Y-27800D02*
X28200Y-28800D01*
X28300Y-27700D02*
X28200Y-27800D01*
X28850Y-29050D02*
X28950Y-29150D01*
X30950Y-29150D02*
X31100Y-29000D01*
X28950Y-29150D02*
X30950Y-29150D01*
G54D28*
X29700Y-30500D02*
X29500Y-30300D01*
X29800Y-30500D02*
X29800Y-30250D01*
X30900Y-30500D02*
X29800Y-30500D01*
X19750Y-27258D02*
X19750Y-26550D01*
X19750Y-26550D02*
X19600Y-26400D01*
X18700Y-23500D02*
X18700Y-22800D01*
X19000Y-22500D02*
X19100Y-22500D01*
X19100Y-22500D02*
X20000Y-22500D01*
X20000Y-22500D02*
X25800Y-22500D01*
X25800Y-22500D02*
X25900Y-22500D01*
X25900Y-22500D02*
X26500Y-22500D01*
X18700Y-22800D02*
X19000Y-22500D01*
X19950Y-23500D02*
X19950Y-22550D01*
X19950Y-22550D02*
X20000Y-22500D01*
G54D27*
X23250Y-30300D02*
X23250Y-30950D01*
X23250Y-30950D02*
X23400Y-31100D01*
G54D28*
X23400Y-31100D02*
X23900Y-31100D01*
G54D26*
X26050Y-23250D02*
X26200Y-23400D01*
X26200Y-23400D02*
X26250Y-23450D01*
G54D27*
X26250Y-23650D02*
X26250Y-23450D01*
X25550Y-23250D02*
X26050Y-23250D01*
X26050Y-23250D02*
X26250Y-23450D01*
X26250Y-23450D02*
X26250Y-23650D01*
X26500Y-22500D02*
X26500Y-23100D01*
X26500Y-23100D02*
X26200Y-23400D01*
G54D28*
X25900Y-22500D02*
X26350Y-22500D01*
X26350Y-22500D02*
X26500Y-22650D01*
X18700Y-23500D02*
X18700Y-23800D01*
X18700Y-23800D02*
X19600Y-24700D01*
X19600Y-24700D02*
X19650Y-24650D01*
X29800Y-30500D02*
X29700Y-30500D01*
X29700Y-30500D02*
X29500Y-30300D01*
X29500Y-30300D02*
X29500Y-30200D01*
X18960Y-27258D02*
X18960Y-26440D01*
X18960Y-26440D02*
X19000Y-26400D01*
X17898Y-25382D02*
X17982Y-25382D01*
X17982Y-25382D02*
X19000Y-26400D01*
X19682Y-25382D02*
X17898Y-25382D01*
X19800Y-25500D02*
X19682Y-25382D01*
X20000Y-25700D02*
X19800Y-25500D01*
G54D27*
X20200Y-25900D02*
X20000Y-25700D01*
X20200Y-26000D02*
X20200Y-25900D01*
X20200Y-25900D02*
X19800Y-25500D01*
G54D26*
X25700Y-24200D02*
X26200Y-24200D01*
X26200Y-24200D02*
X26250Y-24250D01*
X26050Y-24750D02*
X26050Y-24450D01*
X26050Y-24450D02*
X26250Y-24250D01*
X23750Y-26700D02*
X23750Y-26450D01*
X23750Y-26450D02*
X23900Y-26300D01*
X23900Y-26300D02*
X24700Y-26300D01*
X26500Y-25200D02*
X26050Y-24750D01*
X23750Y-26700D02*
X23750Y-27500D01*
X23750Y-27500D02*
X23750Y-28250D01*
X23750Y-28250D02*
X22750Y-29250D01*
X23750Y-27500D02*
X20600Y-27500D01*
X20200Y-27100D02*
X20200Y-26000D01*
X20600Y-27500D02*
X20200Y-27100D01*
G54D27*
X22750Y-30300D02*
X22750Y-31050D01*
X22750Y-31050D02*
X22800Y-31100D01*
G54D28*
X17898Y-30114D02*
X17898Y-25382D01*
G54D26*
X26200Y-26000D02*
X26500Y-25700D01*
X26500Y-25700D02*
X26500Y-25200D01*
G54D28*
X31850Y-29550D02*
X31850Y-30450D01*
X31800Y-30500D02*
X31500Y-30500D01*
X31850Y-30450D02*
X31800Y-30500D01*
X31500Y-30500D02*
X31500Y-31600D01*
X31500Y-31600D02*
X31500Y-31750D01*
X31500Y-31750D02*
X31250Y-32000D01*
X32850Y-32000D02*
X32850Y-31850D01*
X32850Y-31850D02*
X32600Y-31600D01*
X32600Y-31600D02*
X31500Y-31600D01*
X32850Y-24350D02*
X32100Y-24350D01*
X32100Y-24350D02*
X31950Y-24500D01*
X33700Y-26300D02*
X33250Y-26300D01*
X33700Y-26300D02*
X33700Y-31600D01*
X33300Y-32000D02*
X32850Y-32000D01*
X33700Y-31600D02*
X33500Y-31800D01*
X33500Y-31800D02*
X33300Y-32000D01*
G54D26*
X32750Y-26250D02*
X33200Y-26250D01*
X33200Y-26250D02*
X33250Y-26300D01*
G54D28*
X26050Y-24750D02*
X26750Y-24750D01*
X31950Y-24500D02*
X31950Y-23600D01*
X22800Y-31100D02*
X22800Y-31600D01*
X24500Y-31700D02*
X24750Y-31450D01*
X22900Y-31700D02*
X24500Y-31700D01*
X22800Y-31600D02*
X22900Y-31700D01*
X33500Y-31800D02*
X33450Y-31800D01*
X22750Y-30300D02*
X22750Y-29250D01*
X22800Y-31100D02*
X22800Y-31800D01*
X22800Y-31800D02*
X23000Y-32000D01*
G54D26*
X26200Y-26000D02*
X25000Y-26000D01*
X25000Y-26000D02*
X24700Y-26300D01*
X33300Y-23350D02*
X33300Y-23900D01*
X33300Y-23900D02*
X32850Y-24350D01*
G54D28*
X22750Y-29250D02*
X23500Y-28500D01*
X21000Y-29000D02*
X21500Y-29500D01*
X22500Y-28000D02*
X21000Y-28000D01*
G54D26*
X34000Y-22250D02*
X34000Y-23250D01*
X17898Y-25382D02*
X17898Y-24898D01*
X17250Y-22250D02*
X18250Y-22250D01*
X17898Y-24898D02*
X17250Y-24250D01*
X21250Y-31500D02*
X21750Y-32000D01*
X17250Y-31500D02*
X19250Y-31500D01*
G54D29*
X16805Y-21805D02*
X34445Y-21805D01*
X16805Y-21885D02*
X34445Y-21885D01*
X16805Y-21965D02*
X34445Y-21965D01*
X16805Y-22045D02*
X34445Y-22045D01*
X16805Y-22125D02*
X26044Y-22125D01*
X26956Y-22125D02*
X27344Y-22125D01*
X28256Y-22125D02*
X34445Y-22125D01*
X16805Y-22205D02*
X18824Y-22205D01*
X26997Y-22205D02*
X27304Y-22205D01*
X28297Y-22205D02*
X32466Y-22205D01*
X32934Y-22205D02*
X33066Y-22205D01*
X33534Y-22205D02*
X34445Y-22205D01*
X16805Y-22285D02*
X18721Y-22285D01*
X26999Y-22285D02*
X27301Y-22285D01*
X28299Y-22285D02*
X32398Y-22285D01*
X33604Y-22285D02*
X34445Y-22285D01*
X16805Y-22365D02*
X18641Y-22365D01*
X26999Y-22365D02*
X27301Y-22365D01*
X28299Y-22365D02*
X29968Y-22365D01*
X33624Y-22365D02*
X34445Y-22365D01*
X16805Y-22445D02*
X18561Y-22445D01*
X26999Y-22445D02*
X27301Y-22445D01*
X28299Y-22445D02*
X29887Y-22445D01*
X33713Y-22445D02*
X34445Y-22445D01*
X16805Y-22525D02*
X18481Y-22525D01*
X26999Y-22525D02*
X27301Y-22525D01*
X28299Y-22525D02*
X29807Y-22525D01*
X33793Y-22525D02*
X34445Y-22525D01*
X16805Y-22605D02*
X18419Y-22605D01*
X26999Y-22605D02*
X27301Y-22605D01*
X28299Y-22605D02*
X29727Y-22605D01*
X33860Y-22605D02*
X34445Y-22605D01*
X16805Y-22685D02*
X18374Y-22685D01*
X26999Y-22685D02*
X27301Y-22685D01*
X28299Y-22685D02*
X29654Y-22685D01*
X33897Y-22685D02*
X34445Y-22685D01*
X16805Y-22765D02*
X18358Y-22765D01*
X26999Y-22765D02*
X27267Y-22765D01*
X28299Y-22765D02*
X29607Y-22765D01*
X33909Y-22765D02*
X34445Y-22765D01*
X16805Y-22845D02*
X18350Y-22845D01*
X26999Y-22845D02*
X27186Y-22845D01*
X28299Y-22845D02*
X29591Y-22845D01*
X33909Y-22845D02*
X34445Y-22845D01*
X16805Y-22925D02*
X18350Y-22925D01*
X26999Y-22925D02*
X27107Y-22925D01*
X28299Y-22925D02*
X28794Y-22925D01*
X33909Y-22925D02*
X34445Y-22925D01*
X16805Y-23005D02*
X18350Y-23005D01*
X26999Y-23005D02*
X27040Y-23005D01*
X28299Y-23005D02*
X28754Y-23005D01*
X33909Y-23005D02*
X34445Y-23005D01*
X16805Y-23085D02*
X18350Y-23085D01*
X33909Y-23085D02*
X34445Y-23085D01*
X16805Y-23165D02*
X18350Y-23165D01*
X33909Y-23165D02*
X34445Y-23165D01*
X16805Y-23245D02*
X18350Y-23245D01*
X33909Y-23245D02*
X34445Y-23245D01*
X16805Y-23325D02*
X18350Y-23325D01*
X33909Y-23325D02*
X34445Y-23325D01*
X16805Y-23405D02*
X18350Y-23405D01*
X33909Y-23405D02*
X34445Y-23405D01*
X16805Y-23485D02*
X18350Y-23485D01*
X33909Y-23485D02*
X34445Y-23485D01*
X16805Y-23565D02*
X18350Y-23565D01*
X33909Y-23565D02*
X34445Y-23565D01*
X16805Y-23645D02*
X18350Y-23645D01*
X33909Y-23645D02*
X34445Y-23645D01*
X16805Y-23725D02*
X18350Y-23725D01*
X33909Y-23725D02*
X34445Y-23725D01*
X16805Y-23805D02*
X18351Y-23805D01*
X33909Y-23805D02*
X34445Y-23805D01*
X16805Y-23885D02*
X18367Y-23885D01*
X33909Y-23885D02*
X34445Y-23885D01*
X16805Y-23965D02*
X18397Y-23965D01*
X33909Y-23965D02*
X34445Y-23965D01*
X16805Y-24045D02*
X18451Y-24045D01*
X33909Y-24045D02*
X34445Y-24045D01*
X16805Y-24125D02*
X18530Y-24125D01*
X33909Y-24125D02*
X34445Y-24125D01*
X16805Y-24205D02*
X18610Y-24205D01*
X33909Y-24205D02*
X34445Y-24205D01*
X16805Y-24285D02*
X18690Y-24285D01*
X19880Y-24285D02*
X20812Y-24285D01*
X33909Y-24285D02*
X34445Y-24285D01*
X16805Y-24365D02*
X18770Y-24365D01*
X19966Y-24365D02*
X20801Y-24365D01*
X33909Y-24365D02*
X34445Y-24365D01*
X16805Y-24445D02*
X18850Y-24445D01*
X20026Y-24445D02*
X20801Y-24445D01*
X33909Y-24445D02*
X34445Y-24445D01*
X16805Y-24525D02*
X18930Y-24525D01*
X20059Y-24525D02*
X20801Y-24525D01*
X33909Y-24525D02*
X34445Y-24525D01*
X16805Y-24605D02*
X19010Y-24605D01*
X20075Y-24605D02*
X20801Y-24605D01*
X33909Y-24605D02*
X34445Y-24605D01*
X16805Y-24685D02*
X19090Y-24685D01*
X20075Y-24685D02*
X20801Y-24685D01*
X33909Y-24685D02*
X34445Y-24685D01*
X16805Y-24765D02*
X19170Y-24765D01*
X20062Y-24765D02*
X20801Y-24765D01*
X33909Y-24765D02*
X34445Y-24765D01*
X16805Y-24845D02*
X19250Y-24845D01*
X20029Y-24845D02*
X20801Y-24845D01*
X33909Y-24845D02*
X34445Y-24845D01*
X16805Y-24925D02*
X19324Y-24925D01*
X19976Y-24925D02*
X20815Y-24925D01*
X33894Y-24925D02*
X34445Y-24925D01*
X16805Y-25005D02*
X19404Y-25005D01*
X19896Y-25005D02*
X20874Y-25005D01*
X33853Y-25005D02*
X34445Y-25005D01*
X16805Y-25085D02*
X21240Y-25085D01*
X33782Y-25085D02*
X34445Y-25085D01*
X16805Y-25165D02*
X21240Y-25165D01*
X33702Y-25165D02*
X34445Y-25165D01*
X16805Y-25245D02*
X21240Y-25245D01*
X33622Y-25245D02*
X34445Y-25245D01*
X16805Y-25325D02*
X21240Y-25325D01*
X33542Y-25325D02*
X34445Y-25325D01*
X16805Y-25405D02*
X21227Y-25405D01*
X34034Y-25405D02*
X34445Y-25405D01*
X16805Y-25485D02*
X21147Y-25485D01*
X34104Y-25485D02*
X34445Y-25485D01*
X16805Y-25565D02*
X21067Y-25565D01*
X34124Y-25565D02*
X34445Y-25565D01*
X16805Y-25645D02*
X20524Y-25645D01*
X34124Y-25645D02*
X34445Y-25645D01*
X16805Y-25725D02*
X20481Y-25725D01*
X34124Y-25725D02*
X34445Y-25725D01*
X16805Y-25805D02*
X20476Y-25805D01*
X34124Y-25805D02*
X34445Y-25805D01*
X16805Y-25885D02*
X20476Y-25885D01*
X34115Y-25885D02*
X34445Y-25885D01*
X16805Y-25965D02*
X20476Y-25965D01*
X34066Y-25965D02*
X34445Y-25965D01*
X16805Y-26045D02*
X19324Y-26045D01*
X19876Y-26045D02*
X20466Y-26045D01*
X33425Y-26045D02*
X34445Y-26045D01*
X16805Y-26125D02*
X19281Y-26125D01*
X19920Y-26125D02*
X20465Y-26125D01*
X33347Y-26125D02*
X34445Y-26125D01*
X16805Y-26205D02*
X19276Y-26205D01*
X19924Y-26205D02*
X20465Y-26205D01*
X32610Y-26205D02*
X34445Y-26205D01*
X16805Y-26285D02*
X19274Y-26285D01*
X19980Y-26285D02*
X20465Y-26285D01*
X32610Y-26285D02*
X34445Y-26285D01*
X16805Y-26365D02*
X19258Y-26365D01*
X20039Y-26365D02*
X20465Y-26365D01*
X23531Y-26365D02*
X23970Y-26365D01*
X33308Y-26365D02*
X34445Y-26365D01*
X16805Y-26445D02*
X19259Y-26445D01*
X20079Y-26445D02*
X20451Y-26445D01*
X23549Y-26445D02*
X23951Y-26445D01*
X33413Y-26445D02*
X34445Y-26445D01*
X16805Y-26525D02*
X19275Y-26525D01*
X20095Y-26525D02*
X20451Y-26525D01*
X23549Y-26525D02*
X23951Y-26525D01*
X33493Y-26525D02*
X34445Y-26525D01*
X16805Y-26605D02*
X19276Y-26605D01*
X20100Y-26605D02*
X20451Y-26605D01*
X23549Y-26605D02*
X23951Y-26605D01*
X33573Y-26605D02*
X34445Y-26605D01*
X16805Y-26685D02*
X19284Y-26685D01*
X20100Y-26685D02*
X20451Y-26685D01*
X23549Y-26685D02*
X23951Y-26685D01*
X33630Y-26685D02*
X34445Y-26685D01*
X16805Y-26765D02*
X19334Y-26765D01*
X20100Y-26765D02*
X20451Y-26765D01*
X23549Y-26765D02*
X23951Y-26765D01*
X33653Y-26765D02*
X34445Y-26765D01*
X16805Y-26845D02*
X19400Y-26845D01*
X20100Y-26845D02*
X20451Y-26845D01*
X23549Y-26845D02*
X23951Y-26845D01*
X33660Y-26845D02*
X34445Y-26845D01*
X16805Y-26925D02*
X19384Y-26925D01*
X20116Y-26925D02*
X20451Y-26925D01*
X23549Y-26925D02*
X23951Y-26925D01*
X33660Y-26925D02*
X34445Y-26925D01*
X16805Y-27005D02*
X19320Y-27005D01*
X20181Y-27005D02*
X20457Y-27005D01*
X23542Y-27005D02*
X23957Y-27005D01*
X33660Y-27005D02*
X34445Y-27005D01*
X16805Y-27085D02*
X19287Y-27085D01*
X20214Y-27085D02*
X20504Y-27085D01*
X20994Y-27085D02*
X21004Y-27085D01*
X21494Y-27085D02*
X21504Y-27085D01*
X21994Y-27085D02*
X22004Y-27085D01*
X22494Y-27085D02*
X22504Y-27085D01*
X22994Y-27085D02*
X23004Y-27085D01*
X23496Y-27085D02*
X23990Y-27085D01*
X33660Y-27085D02*
X34445Y-27085D01*
X16805Y-27165D02*
X19256Y-27165D01*
X20244Y-27165D02*
X23990Y-27165D01*
X33660Y-27165D02*
X34445Y-27165D01*
X16805Y-27245D02*
X19256Y-27245D01*
X20244Y-27245D02*
X23990Y-27245D01*
X33660Y-27245D02*
X34445Y-27245D01*
X16805Y-27325D02*
X19256Y-27325D01*
X20244Y-27325D02*
X23990Y-27325D01*
X33660Y-27325D02*
X34445Y-27325D01*
X16805Y-27405D02*
X19276Y-27405D01*
X20224Y-27405D02*
X23990Y-27405D01*
X33660Y-27405D02*
X34445Y-27405D01*
X16805Y-27485D02*
X19309Y-27485D01*
X20190Y-27485D02*
X23990Y-27485D01*
X33660Y-27485D02*
X34445Y-27485D01*
X16805Y-27565D02*
X19358Y-27565D01*
X20142Y-27565D02*
X23990Y-27565D01*
X33660Y-27565D02*
X34445Y-27565D01*
X16805Y-27645D02*
X19438Y-27645D01*
X20062Y-27645D02*
X23990Y-27645D01*
X33660Y-27645D02*
X34445Y-27645D01*
X16805Y-27725D02*
X19585Y-27725D01*
X19912Y-27725D02*
X23990Y-27725D01*
X33660Y-27725D02*
X34445Y-27725D01*
X16805Y-27805D02*
X18724Y-27805D01*
X19197Y-27805D02*
X19514Y-27805D01*
X19987Y-27805D02*
X23990Y-27805D01*
X33660Y-27805D02*
X34445Y-27805D01*
X16805Y-27885D02*
X18618Y-27885D01*
X19302Y-27885D02*
X19407Y-27885D01*
X20092Y-27885D02*
X23990Y-27885D01*
X33660Y-27885D02*
X34445Y-27885D01*
X16805Y-27965D02*
X18540Y-27965D01*
X20171Y-27965D02*
X23993Y-27965D01*
X33660Y-27965D02*
X34445Y-27965D01*
X16805Y-28045D02*
X18507Y-28045D01*
X20204Y-28045D02*
X24009Y-28045D01*
X33660Y-28045D02*
X34445Y-28045D01*
X16805Y-28125D02*
X18474Y-28125D01*
X20237Y-28125D02*
X24060Y-28125D01*
X33660Y-28125D02*
X34445Y-28125D01*
X16805Y-28205D02*
X18466Y-28205D01*
X20244Y-28205D02*
X24137Y-28205D01*
X33660Y-28205D02*
X34445Y-28205D01*
X16805Y-28285D02*
X18466Y-28285D01*
X20244Y-28285D02*
X24217Y-28285D01*
X33660Y-28285D02*
X34445Y-28285D01*
X16805Y-28365D02*
X18476Y-28365D01*
X20234Y-28365D02*
X24297Y-28365D01*
X33660Y-28365D02*
X34445Y-28365D01*
X16805Y-28445D02*
X18509Y-28445D01*
X20200Y-28445D02*
X24425Y-28445D01*
X33660Y-28445D02*
X34445Y-28445D01*
X16805Y-28525D02*
X18544Y-28525D01*
X20166Y-28525D02*
X27240Y-28525D01*
X33660Y-28525D02*
X34445Y-28525D01*
X16805Y-28605D02*
X18624Y-28605D01*
X20086Y-28605D02*
X27227Y-28605D01*
X33660Y-28605D02*
X34445Y-28605D01*
X16805Y-28685D02*
X18737Y-28685D01*
X20053Y-28685D02*
X27147Y-28685D01*
X33660Y-28685D02*
X34445Y-28685D01*
X16805Y-28765D02*
X19097Y-28765D01*
X20133Y-28765D02*
X27067Y-28765D01*
X33660Y-28765D02*
X34445Y-28765D01*
X16805Y-28845D02*
X19177Y-28845D01*
X20213Y-28845D02*
X24476Y-28845D01*
X33660Y-28845D02*
X34445Y-28845D01*
X16805Y-28925D02*
X19257Y-28925D01*
X20293Y-28925D02*
X24307Y-28925D01*
X33660Y-28925D02*
X34445Y-28925D01*
X16805Y-29005D02*
X19337Y-29005D01*
X20373Y-29005D02*
X24227Y-29005D01*
X33660Y-29005D02*
X34445Y-29005D01*
X16805Y-29085D02*
X19417Y-29085D01*
X20453Y-29085D02*
X24147Y-29085D01*
X33660Y-29085D02*
X34445Y-29085D01*
X16805Y-29165D02*
X19497Y-29165D01*
X20533Y-29165D02*
X24067Y-29165D01*
X33660Y-29165D02*
X34445Y-29165D01*
X16805Y-29245D02*
X19577Y-29245D01*
X20613Y-29245D02*
X23987Y-29245D01*
X33660Y-29245D02*
X34445Y-29245D01*
X16805Y-29325D02*
X19657Y-29325D01*
X20693Y-29325D02*
X23907Y-29325D01*
X31492Y-29325D02*
X32251Y-29325D01*
X33660Y-29325D02*
X34445Y-29325D01*
X16805Y-29405D02*
X19737Y-29405D01*
X20773Y-29405D02*
X23827Y-29405D01*
X31412Y-29405D02*
X32278Y-29405D01*
X33660Y-29405D02*
X34445Y-29405D01*
X16805Y-29485D02*
X19817Y-29485D01*
X20853Y-29485D02*
X23747Y-29485D01*
X31332Y-29485D02*
X32377Y-29485D01*
X33660Y-29485D02*
X34445Y-29485D01*
X16805Y-29565D02*
X19897Y-29565D01*
X20933Y-29565D02*
X23667Y-29565D01*
X31252Y-29565D02*
X33140Y-29565D01*
X33660Y-29565D02*
X34445Y-29565D01*
X16805Y-29645D02*
X19977Y-29645D01*
X20987Y-29645D02*
X23587Y-29645D01*
X31172Y-29645D02*
X33140Y-29645D01*
X33660Y-29645D02*
X34445Y-29645D01*
X16805Y-29725D02*
X20057Y-29725D01*
X21005Y-29725D02*
X23527Y-29725D01*
X31092Y-29725D02*
X33140Y-29725D01*
X33660Y-29725D02*
X34445Y-29725D01*
X16805Y-29805D02*
X20137Y-29805D01*
X21010Y-29805D02*
X23499Y-29805D01*
X31012Y-29805D02*
X33140Y-29805D01*
X33660Y-29805D02*
X34445Y-29805D01*
X16805Y-29885D02*
X20140Y-29885D01*
X21010Y-29885D02*
X21034Y-29885D01*
X21466Y-29885D02*
X21534Y-29885D01*
X21966Y-29885D02*
X22034Y-29885D01*
X22466Y-29885D02*
X23034Y-29885D01*
X23466Y-29885D02*
X23490Y-29885D01*
X30932Y-29885D02*
X33140Y-29885D01*
X33660Y-29885D02*
X34445Y-29885D01*
X16805Y-29965D02*
X20140Y-29965D01*
X22531Y-29965D02*
X22971Y-29965D01*
X30852Y-29965D02*
X33140Y-29965D01*
X33660Y-29965D02*
X34445Y-29965D01*
X16805Y-30045D02*
X20140Y-30045D01*
X22549Y-30045D02*
X22951Y-30045D01*
X30724Y-30045D02*
X33140Y-30045D01*
X33660Y-30045D02*
X34445Y-30045D01*
X16805Y-30125D02*
X20140Y-30125D01*
X22549Y-30125D02*
X22951Y-30125D01*
X31156Y-30125D02*
X33140Y-30125D01*
X33660Y-30125D02*
X34445Y-30125D01*
X16805Y-30205D02*
X20140Y-30205D01*
X22549Y-30205D02*
X22951Y-30205D01*
X31212Y-30205D02*
X33140Y-30205D01*
X33660Y-30205D02*
X34445Y-30205D01*
X16805Y-30285D02*
X20140Y-30285D01*
X22549Y-30285D02*
X22951Y-30285D01*
X31224Y-30285D02*
X33097Y-30285D01*
X33660Y-30285D02*
X34445Y-30285D01*
X16805Y-30365D02*
X20140Y-30365D01*
X22549Y-30365D02*
X22951Y-30365D01*
X31224Y-30365D02*
X33017Y-30365D01*
X33657Y-30365D02*
X34445Y-30365D01*
X16805Y-30445D02*
X20140Y-30445D01*
X22549Y-30445D02*
X22951Y-30445D01*
X31239Y-30445D02*
X32937Y-30445D01*
X33641Y-30445D02*
X34445Y-30445D01*
X16805Y-30525D02*
X20140Y-30525D01*
X22549Y-30525D02*
X22951Y-30525D01*
X31244Y-30525D02*
X32857Y-30525D01*
X33590Y-30525D02*
X34445Y-30525D01*
X16805Y-30605D02*
X20140Y-30605D01*
X22542Y-30605D02*
X22957Y-30605D01*
X31228Y-30605D02*
X32777Y-30605D01*
X33513Y-30605D02*
X34445Y-30605D01*
X16805Y-30685D02*
X20140Y-30685D01*
X21994Y-30685D02*
X22004Y-30685D01*
X22496Y-30685D02*
X22965Y-30685D01*
X24494Y-30685D02*
X24504Y-30685D01*
X24994Y-30685D02*
X25004Y-30685D01*
X25494Y-30685D02*
X25504Y-30685D01*
X25994Y-30685D02*
X26004Y-30685D01*
X31224Y-30685D02*
X32697Y-30685D01*
X33433Y-30685D02*
X34445Y-30685D01*
X16805Y-30765D02*
X20140Y-30765D01*
X21510Y-30765D02*
X22965Y-30765D01*
X24166Y-30765D02*
X26066Y-30765D01*
X31224Y-30765D02*
X32617Y-30765D01*
X33353Y-30765D02*
X34445Y-30765D01*
X16805Y-30845D02*
X20149Y-30845D01*
X21510Y-30845D02*
X22965Y-30845D01*
X24246Y-30845D02*
X25986Y-30845D01*
X31185Y-30845D02*
X32223Y-30845D01*
X33273Y-30845D02*
X34445Y-30845D01*
X16805Y-30925D02*
X20176Y-30925D01*
X21494Y-30925D02*
X22965Y-30925D01*
X24288Y-30925D02*
X25584Y-30925D01*
X31256Y-30925D02*
X32145Y-30925D01*
X33193Y-30925D02*
X34445Y-30925D01*
X16805Y-31005D02*
X20237Y-31005D01*
X21453Y-31005D02*
X22975Y-31005D01*
X24321Y-31005D02*
X25419Y-31005D01*
X31279Y-31005D02*
X32121Y-31005D01*
X33113Y-31005D02*
X34445Y-31005D01*
X16805Y-31085D02*
X20317Y-31085D01*
X21382Y-31085D02*
X23004Y-31085D01*
X24325Y-31085D02*
X25339Y-31085D01*
X31279Y-31085D02*
X32121Y-31085D01*
X33033Y-31085D02*
X34445Y-31085D01*
X16805Y-31165D02*
X23061Y-31165D01*
X24325Y-31165D02*
X25275Y-31165D01*
X31279Y-31165D02*
X32121Y-31165D01*
X32953Y-31165D02*
X34445Y-31165D01*
X16805Y-31245D02*
X23076Y-31245D01*
X24300Y-31245D02*
X25241Y-31245D01*
X31279Y-31245D02*
X32121Y-31245D01*
X32879Y-31245D02*
X34445Y-31245D01*
X16805Y-31325D02*
X23076Y-31325D01*
X24266Y-31325D02*
X25208Y-31325D01*
X29293Y-31325D02*
X29757Y-31325D01*
X31279Y-31325D02*
X32121Y-31325D01*
X32879Y-31325D02*
X34445Y-31325D01*
X16805Y-31405D02*
X23092Y-31405D01*
X24196Y-31405D02*
X25201Y-31405D01*
X29299Y-31405D02*
X29837Y-31405D01*
X31279Y-31405D02*
X32121Y-31405D01*
X32879Y-31405D02*
X34445Y-31405D01*
X16805Y-31485D02*
X23154Y-31485D01*
X23645Y-31485D02*
X23719Y-31485D01*
X24081Y-31485D02*
X25201Y-31485D01*
X29299Y-31485D02*
X29917Y-31485D01*
X31251Y-31485D02*
X32148Y-31485D01*
X32851Y-31485D02*
X34445Y-31485D01*
X16805Y-31565D02*
X25203Y-31565D01*
X29296Y-31565D02*
X29940Y-31565D01*
X31153Y-31565D02*
X32247Y-31565D01*
X32753Y-31565D02*
X34445Y-31565D01*
X16805Y-31645D02*
X17537Y-31645D01*
X20403Y-31645D02*
X25236Y-31645D01*
X29263Y-31645D02*
X29940Y-31645D01*
X30828Y-31645D02*
X31873Y-31645D01*
X32427Y-31645D02*
X34445Y-31645D01*
X16805Y-31725D02*
X17537Y-31725D01*
X20403Y-31725D02*
X25270Y-31725D01*
X26229Y-31725D02*
X26269Y-31725D01*
X27229Y-31725D02*
X27270Y-31725D01*
X28229Y-31725D02*
X28270Y-31725D01*
X29229Y-31725D02*
X29940Y-31725D01*
X30906Y-31725D02*
X31795Y-31725D01*
X32506Y-31725D02*
X34445Y-31725D01*
X16805Y-31805D02*
X17537Y-31805D01*
X20403Y-31805D02*
X25329Y-31805D01*
X26171Y-31805D02*
X26329Y-31805D01*
X27171Y-31805D02*
X27329Y-31805D01*
X28171Y-31805D02*
X28329Y-31805D01*
X29171Y-31805D02*
X29940Y-31805D01*
X30929Y-31805D02*
X31771Y-31805D01*
X32529Y-31805D02*
X34445Y-31805D01*
X16805Y-31885D02*
X17537Y-31885D01*
X20403Y-31885D02*
X25409Y-31885D01*
X26091Y-31885D02*
X26409Y-31885D01*
X27091Y-31885D02*
X27409Y-31885D01*
X28091Y-31885D02*
X28409Y-31885D01*
X29091Y-31885D02*
X29940Y-31885D01*
X30929Y-31885D02*
X31771Y-31885D01*
X32529Y-31885D02*
X34445Y-31885D01*
X16805Y-31965D02*
X17537Y-31965D01*
X20403Y-31965D02*
X25559Y-31965D01*
X25940Y-31965D02*
X26559Y-31965D01*
X26940Y-31965D02*
X27559Y-31965D01*
X27940Y-31965D02*
X28559Y-31965D01*
X28940Y-31965D02*
X29940Y-31965D01*
X30929Y-31965D02*
X31771Y-31965D01*
X32529Y-31965D02*
X34445Y-31965D01*
X16805Y-32045D02*
X17537Y-32045D01*
X20403Y-32045D02*
X29940Y-32045D01*
X30929Y-32045D02*
X31737Y-32045D01*
X32529Y-32045D02*
X34445Y-32045D01*
X16805Y-32125D02*
X17537Y-32125D01*
X20403Y-32125D02*
X29940Y-32125D01*
X30929Y-32125D02*
X31657Y-32125D01*
X32529Y-32125D02*
X34445Y-32125D01*
X16805Y-32205D02*
X17537Y-32205D01*
X20403Y-32205D02*
X29941Y-32205D01*
X32529Y-32205D02*
X34445Y-32205D01*
X16805Y-32285D02*
X17537Y-32285D01*
X20403Y-32285D02*
X29957Y-32285D01*
X32501Y-32285D02*
X34445Y-32285D01*
X16805Y-32365D02*
X17537Y-32365D01*
X20403Y-32365D02*
X30003Y-32365D01*
X32403Y-32365D02*
X34445Y-32365D01*
X24907Y-25759D02*
X24907Y-25759D01*
X24827Y-25839D02*
X25563Y-25839D01*
X24747Y-25919D02*
X25643Y-25919D01*
X24667Y-25999D02*
X25771Y-25999D01*
X24587Y-26079D02*
X25753Y-26079D01*
X24507Y-26159D02*
X25673Y-26159D01*
X24427Y-26239D02*
X25593Y-26239D01*
X26736Y-23249D02*
X26751Y-23249D01*
X26673Y-23329D02*
X26751Y-23329D01*
X26640Y-23409D02*
X26751Y-23409D01*
X26674Y-23489D02*
X26751Y-23489D01*
X26674Y-23569D02*
X26751Y-23569D01*
X25174Y-23649D02*
X25326Y-23649D01*
X25774Y-23649D02*
X25826Y-23649D01*
X26674Y-23649D02*
X26751Y-23649D01*
X24682Y-23729D02*
X25826Y-23729D01*
X26674Y-23729D02*
X26751Y-23729D01*
X23370Y-23809D02*
X23378Y-23809D01*
X24622Y-23809D02*
X24860Y-23809D01*
X25340Y-23809D02*
X25826Y-23809D01*
X26674Y-23809D02*
X26751Y-23809D01*
X23002Y-23889D02*
X24796Y-23889D01*
X25405Y-23889D02*
X25858Y-23889D01*
X26642Y-23889D02*
X26751Y-23889D01*
X22977Y-23969D02*
X24776Y-23969D01*
X25424Y-23969D02*
X25973Y-23969D01*
X26526Y-23969D02*
X26751Y-23969D01*
X22918Y-24049D02*
X24776Y-24049D01*
X25424Y-24049D02*
X26751Y-24049D01*
X22838Y-24129D02*
X24776Y-24129D01*
X25424Y-24129D02*
X26767Y-24129D01*
X24640Y-24209D02*
X24776Y-24209D01*
X25424Y-24209D02*
X26828Y-24209D01*
X24690Y-24289D02*
X24776Y-24289D01*
X25424Y-24289D02*
X26851Y-24289D01*
X24699Y-24369D02*
X24776Y-24369D01*
X25700Y-24369D02*
X26851Y-24369D01*
X24699Y-24449D02*
X24776Y-24449D01*
X25759Y-24449D02*
X26851Y-24449D01*
X24699Y-24529D02*
X24802Y-24529D01*
X25774Y-24529D02*
X26851Y-24529D01*
X24699Y-24609D02*
X24840Y-24609D01*
X25774Y-24609D02*
X26851Y-24609D01*
X24699Y-24689D02*
X24840Y-24689D01*
X25774Y-24689D02*
X26851Y-24689D01*
X24699Y-24769D02*
X24763Y-24769D01*
X25774Y-24769D02*
X26888Y-24769D01*
X25774Y-24849D02*
X26933Y-24849D01*
X25797Y-24929D02*
X26853Y-24929D01*
X26249Y-25009D02*
X26773Y-25009D01*
X26365Y-25089D02*
X26693Y-25089D01*
X26445Y-25169D02*
X26631Y-25169D01*
X26490Y-25249D02*
X26601Y-25249D01*
X26524Y-25329D02*
X26590Y-25329D01*
X26549Y-25409D02*
X26590Y-25409D01*
X26549Y-25489D02*
X26590Y-25489D01*
X26549Y-25569D02*
X26590Y-25569D01*
X26531Y-25649D02*
X26533Y-25649D01*
X30257Y-22810D02*
X32376Y-22810D01*
X30971Y-22890D02*
X32386Y-22890D01*
X31033Y-22970D02*
X32439Y-22970D01*
X32961Y-22970D02*
X33039Y-22970D01*
X31049Y-23050D02*
X32391Y-23050D01*
X33010Y-23050D02*
X33390Y-23050D01*
X31049Y-23130D02*
X32376Y-23130D01*
X33024Y-23130D02*
X33390Y-23130D01*
X31049Y-23210D02*
X32376Y-23210D01*
X33024Y-23210D02*
X33390Y-23210D01*
X31049Y-23290D02*
X32376Y-23290D01*
X33024Y-23290D02*
X33390Y-23290D01*
X31049Y-23370D02*
X32376Y-23370D01*
X33024Y-23370D02*
X33390Y-23370D01*
X31049Y-23450D02*
X32376Y-23450D01*
X33024Y-23450D02*
X33390Y-23450D01*
X31049Y-23530D02*
X32376Y-23530D01*
X33024Y-23530D02*
X33390Y-23530D01*
X31049Y-23610D02*
X32376Y-23610D01*
X33024Y-23610D02*
X33390Y-23610D01*
X31049Y-23690D02*
X32409Y-23690D01*
X32991Y-23690D02*
X33390Y-23690D01*
X31049Y-23770D02*
X32525Y-23770D01*
X32873Y-23770D02*
X33390Y-23770D01*
X31131Y-23850D02*
X33390Y-23850D01*
X31187Y-23930D02*
X33390Y-23930D01*
X31199Y-24010D02*
X33390Y-24010D01*
X31199Y-24090D02*
X33390Y-24090D01*
X31199Y-24170D02*
X33390Y-24170D01*
X31199Y-24250D02*
X33390Y-24250D01*
X31199Y-24330D02*
X33390Y-24330D01*
X31199Y-24410D02*
X33390Y-24410D01*
X31199Y-24490D02*
X33390Y-24490D01*
X31199Y-24570D02*
X33390Y-24570D01*
X31199Y-24650D02*
X33390Y-24650D01*
X31199Y-24730D02*
X33390Y-24730D01*
X31199Y-24810D02*
X33322Y-24810D01*
X31199Y-24890D02*
X33242Y-24890D01*
X31199Y-24970D02*
X33162Y-24970D01*
X31481Y-25050D02*
X31624Y-25050D01*
X32077Y-25050D02*
X33082Y-25050D01*
X32206Y-25130D02*
X33002Y-25130D01*
X32286Y-25210D02*
X32309Y-25210D01*
X34445Y-32445D02*
X34445Y-21805D01*
X16805Y-21805D01*
X16805Y-32445D01*
X17537Y-32445D01*
X17537Y-31580D01*
X20403Y-31580D01*
X20403Y-32445D01*
X20500Y-32445D01*
X20500Y-31160D01*
X20401Y-31140D01*
X20316Y-31084D01*
X20216Y-30984D01*
X20160Y-30900D01*
X20140Y-30800D01*
X20140Y-29808D01*
X19065Y-28733D01*
X19058Y-28736D01*
X18861Y-28736D01*
X18680Y-28661D01*
X18541Y-28522D01*
X18466Y-28340D01*
X18466Y-28143D01*
X18541Y-27962D01*
X18680Y-27823D01*
X18862Y-27748D01*
X19059Y-27748D01*
X19240Y-27823D01*
X19354Y-27937D01*
X19470Y-27823D01*
X19646Y-27750D01*
X19470Y-27677D01*
X19331Y-27538D01*
X19256Y-27356D01*
X19256Y-27159D01*
X19331Y-26978D01*
X19400Y-26909D01*
X19400Y-26809D01*
X19362Y-26793D01*
X19306Y-26737D01*
X19276Y-26664D01*
X19276Y-26528D01*
X19251Y-26400D01*
X19276Y-26271D01*
X19276Y-26135D01*
X19307Y-26062D01*
X19363Y-26006D01*
X19436Y-25976D01*
X19765Y-25976D01*
X19838Y-26007D01*
X19894Y-26063D01*
X19924Y-26136D01*
X19924Y-26229D01*
X19997Y-26302D01*
X20073Y-26416D01*
X20100Y-26550D01*
X20100Y-26909D01*
X20169Y-26978D01*
X20244Y-27160D01*
X20244Y-27357D01*
X20169Y-27538D01*
X20030Y-27677D01*
X19853Y-27749D01*
X20030Y-27823D01*
X20169Y-27962D01*
X20244Y-28144D01*
X20244Y-28341D01*
X20169Y-28522D01*
X20030Y-28661D01*
X20029Y-28661D01*
X20934Y-29566D01*
X20990Y-29650D01*
X21010Y-29750D01*
X21010Y-29909D01*
X21038Y-29881D01*
X21111Y-29851D01*
X21390Y-29851D01*
X21463Y-29882D01*
X21499Y-29918D01*
X21538Y-29881D01*
X21611Y-29851D01*
X21890Y-29851D01*
X21963Y-29882D01*
X21999Y-29918D01*
X22038Y-29881D01*
X22111Y-29851D01*
X22390Y-29851D01*
X22463Y-29882D01*
X22519Y-29938D01*
X22549Y-30011D01*
X22549Y-30590D01*
X22518Y-30663D01*
X22462Y-30719D01*
X22389Y-30749D01*
X22110Y-30749D01*
X22037Y-30718D01*
X21999Y-30680D01*
X21962Y-30719D01*
X21889Y-30749D01*
X21610Y-30749D01*
X21537Y-30718D01*
X21510Y-30691D01*
X21510Y-30850D01*
X21509Y-30850D01*
X21510Y-30851D01*
X21505Y-30870D01*
X21490Y-30949D01*
X21434Y-31034D01*
X21431Y-31035D01*
X21384Y-31084D01*
X21300Y-31140D01*
X21200Y-31160D01*
X20500Y-31160D01*
X20500Y-32445D01*
X30077Y-32445D01*
X30016Y-32384D01*
X29960Y-32300D01*
X29940Y-32200D01*
X29940Y-31507D01*
X29692Y-31260D01*
X29300Y-31260D01*
X29262Y-31252D01*
X29299Y-31341D01*
X29299Y-31559D01*
X29215Y-31761D01*
X29061Y-31915D01*
X28859Y-31999D01*
X28641Y-31999D01*
X28439Y-31915D01*
X28285Y-31761D01*
X28250Y-31676D01*
X28215Y-31761D01*
X28061Y-31915D01*
X27859Y-31999D01*
X27641Y-31999D01*
X27439Y-31915D01*
X27285Y-31761D01*
X27250Y-31676D01*
X27215Y-31761D01*
X27061Y-31915D01*
X26859Y-31999D01*
X26641Y-31999D01*
X26439Y-31915D01*
X26285Y-31761D01*
X26249Y-31676D01*
X26215Y-31761D01*
X26061Y-31915D01*
X25859Y-31999D01*
X25641Y-31999D01*
X25439Y-31915D01*
X25285Y-31761D01*
X25201Y-31559D01*
X25201Y-31341D01*
X25285Y-31139D01*
X25439Y-30985D01*
X25641Y-30901D01*
X25859Y-30901D01*
X25909Y-30922D01*
X26091Y-30740D01*
X26037Y-30718D01*
X25999Y-30680D01*
X25962Y-30719D01*
X25889Y-30749D01*
X25610Y-30749D01*
X25537Y-30718D01*
X25499Y-30680D01*
X25462Y-30719D01*
X25389Y-30749D01*
X25110Y-30749D01*
X25037Y-30718D01*
X24999Y-30680D01*
X24962Y-30719D01*
X24889Y-30749D01*
X24610Y-30749D01*
X24537Y-30718D01*
X24499Y-30680D01*
X24462Y-30719D01*
X24389Y-30749D01*
X24150Y-30749D01*
X24261Y-30860D01*
X24325Y-31016D01*
X24325Y-31185D01*
X24260Y-31341D01*
X24140Y-31461D01*
X23984Y-31525D01*
X23815Y-31525D01*
X23667Y-31463D01*
X23637Y-31494D01*
X23564Y-31524D01*
X23235Y-31524D01*
X23162Y-31493D01*
X23106Y-31437D01*
X23076Y-31364D01*
X23076Y-31229D01*
X23063Y-31167D01*
X23048Y-31152D01*
X22987Y-31059D01*
X22964Y-30950D01*
X22965Y-30945D01*
X22965Y-30623D01*
X22951Y-30589D01*
X22951Y-30010D01*
X22982Y-29937D01*
X23038Y-29881D01*
X23111Y-29851D01*
X23390Y-29851D01*
X23463Y-29882D01*
X23490Y-29909D01*
X23490Y-29850D01*
X23510Y-29750D01*
X23566Y-29666D01*
X24314Y-28918D01*
X24316Y-28916D01*
X24401Y-28860D01*
X24500Y-28840D01*
X26992Y-28840D01*
X27240Y-28592D01*
X27240Y-28500D01*
X27247Y-28460D01*
X24500Y-28460D01*
X24401Y-28440D01*
X24316Y-28384D01*
X24314Y-28381D01*
X24066Y-28134D01*
X24010Y-28050D01*
X23990Y-27950D01*
X23990Y-27600D01*
X23990Y-27500D01*
X23990Y-27071D01*
X23981Y-27062D01*
X23951Y-26989D01*
X23951Y-26410D01*
X23972Y-26360D01*
X23528Y-26360D01*
X23549Y-26411D01*
X23549Y-26990D01*
X23518Y-27063D01*
X23462Y-27119D01*
X23389Y-27149D01*
X23110Y-27149D01*
X23037Y-27118D01*
X22999Y-27080D01*
X22962Y-27119D01*
X22889Y-27149D01*
X22610Y-27149D01*
X22537Y-27118D01*
X22499Y-27080D01*
X22462Y-27119D01*
X22389Y-27149D01*
X22110Y-27149D01*
X22037Y-27118D01*
X21999Y-27080D01*
X21962Y-27119D01*
X21889Y-27149D01*
X21610Y-27149D01*
X21537Y-27118D01*
X21499Y-27080D01*
X21462Y-27119D01*
X21389Y-27149D01*
X21110Y-27149D01*
X21037Y-27118D01*
X20999Y-27080D01*
X20962Y-27119D01*
X20889Y-27149D01*
X20610Y-27149D01*
X20537Y-27118D01*
X20481Y-27062D01*
X20451Y-26989D01*
X20451Y-26410D01*
X20465Y-26377D01*
X20465Y-26054D01*
X20464Y-26050D01*
X20476Y-25993D01*
X20476Y-25735D01*
X20507Y-25662D01*
X20563Y-25606D01*
X20636Y-25576D01*
X20965Y-25576D01*
X21038Y-25607D01*
X21038Y-25607D01*
X21066Y-25566D01*
X21240Y-25392D01*
X21240Y-25049D01*
X20960Y-25049D01*
X20887Y-25018D01*
X20831Y-24962D01*
X20801Y-24889D01*
X20801Y-24310D01*
X20822Y-24260D01*
X19819Y-24259D01*
X19891Y-24290D01*
X20011Y-24410D01*
X20075Y-24566D01*
X20075Y-24735D01*
X20010Y-24891D01*
X19890Y-25011D01*
X19734Y-25075D01*
X19565Y-25075D01*
X19409Y-25010D01*
X19289Y-24890D01*
X19284Y-24879D01*
X18453Y-24047D01*
X18377Y-23934D01*
X18350Y-23800D01*
X18350Y-23500D01*
X18350Y-22800D01*
X18377Y-22666D01*
X18453Y-22553D01*
X18752Y-22253D01*
X18866Y-22177D01*
X19000Y-22150D01*
X19100Y-22150D01*
X20000Y-22150D01*
X25800Y-22150D01*
X25900Y-22150D01*
X26026Y-22150D01*
X26032Y-22137D01*
X26088Y-22081D01*
X26161Y-22051D01*
X26840Y-22051D01*
X26913Y-22082D01*
X26969Y-22138D01*
X26999Y-22211D01*
X26999Y-23051D01*
X27009Y-23051D01*
X27010Y-23050D01*
X27066Y-22966D01*
X27215Y-22815D01*
X27301Y-22731D01*
X27301Y-22210D01*
X27332Y-22137D01*
X27388Y-22081D01*
X27461Y-22051D01*
X28140Y-22051D01*
X28213Y-22082D01*
X28269Y-22138D01*
X28299Y-22211D01*
X28299Y-23051D01*
X28751Y-23051D01*
X28751Y-23010D01*
X28782Y-22937D01*
X28838Y-22881D01*
X28911Y-22851D01*
X29590Y-22851D01*
X29590Y-22850D01*
X29610Y-22750D01*
X29666Y-22666D01*
X29966Y-22366D01*
X30050Y-22310D01*
X30150Y-22290D01*
X32395Y-22290D01*
X32407Y-22262D01*
X32463Y-22206D01*
X32536Y-22176D01*
X32865Y-22176D01*
X32938Y-22207D01*
X32994Y-22263D01*
X33000Y-22278D01*
X33007Y-22262D01*
X33063Y-22206D01*
X33136Y-22176D01*
X33465Y-22176D01*
X33538Y-22207D01*
X33594Y-22263D01*
X33624Y-22336D01*
X33624Y-22376D01*
X33684Y-22416D01*
X33834Y-22566D01*
X33890Y-22650D01*
X33910Y-22750D01*
X33909Y-24850D01*
X33890Y-24949D01*
X33834Y-25034D01*
X33503Y-25364D01*
X33645Y-25364D01*
X33650Y-25364D01*
X33706Y-25376D01*
X33965Y-25376D01*
X34038Y-25407D01*
X34094Y-25463D01*
X34124Y-25536D01*
X34124Y-25865D01*
X34093Y-25938D01*
X34037Y-25994D01*
X33964Y-26024D01*
X33435Y-26024D01*
X33434Y-26023D01*
X33418Y-26063D01*
X33362Y-26119D01*
X33289Y-26149D01*
X32618Y-26149D01*
X32610Y-26157D01*
X32610Y-26340D01*
X32800Y-26340D01*
X33200Y-26340D01*
X33300Y-26360D01*
X33384Y-26416D01*
X33581Y-26614D01*
X33584Y-26616D01*
X33640Y-26701D01*
X33655Y-26779D01*
X33660Y-26799D01*
X33659Y-26799D01*
X33660Y-26800D01*
X33660Y-30350D01*
X33640Y-30450D01*
X33584Y-30534D01*
X32879Y-31239D01*
X32879Y-31420D01*
X32848Y-31493D01*
X32792Y-31549D01*
X32719Y-31579D01*
X32280Y-31579D01*
X32207Y-31548D01*
X32151Y-31492D01*
X32121Y-31419D01*
X32121Y-30980D01*
X32152Y-30907D01*
X32208Y-30851D01*
X32281Y-30821D01*
X32560Y-30821D01*
X33140Y-30242D01*
X33140Y-29499D01*
X32410Y-29499D01*
X32337Y-29468D01*
X32281Y-29412D01*
X32251Y-29339D01*
X32251Y-29310D01*
X31507Y-29310D01*
X30834Y-29984D01*
X30750Y-30040D01*
X30679Y-30054D01*
X30679Y-30070D01*
X30663Y-30105D01*
X30736Y-30076D01*
X31065Y-30076D01*
X31138Y-30107D01*
X31194Y-30163D01*
X31224Y-30236D01*
X31224Y-30370D01*
X31250Y-30500D01*
X31224Y-30629D01*
X31224Y-30765D01*
X31193Y-30838D01*
X31183Y-30847D01*
X31193Y-30852D01*
X31249Y-30908D01*
X31279Y-30981D01*
X31279Y-31420D01*
X31248Y-31493D01*
X31192Y-31549D01*
X31119Y-31579D01*
X30810Y-31579D01*
X30810Y-31637D01*
X30843Y-31652D01*
X30899Y-31708D01*
X30929Y-31781D01*
X30929Y-32140D01*
X31642Y-32140D01*
X31771Y-32011D01*
X31771Y-31780D01*
X31802Y-31707D01*
X31858Y-31651D01*
X31931Y-31621D01*
X32370Y-31621D01*
X32443Y-31652D01*
X32499Y-31708D01*
X32529Y-31781D01*
X32529Y-32220D01*
X32498Y-32293D01*
X32442Y-32349D01*
X32369Y-32379D01*
X32138Y-32379D01*
X32072Y-32445D01*
X34445Y-32445D01*
X16805Y-21805D02*
X34445Y-21805D01*
X16805Y-21885D02*
X34445Y-21885D01*
X16805Y-21965D02*
X34445Y-21965D01*
X16805Y-22045D02*
X34445Y-22045D01*
X16805Y-22125D02*
X26044Y-22125D01*
X26956Y-22125D02*
X27344Y-22125D01*
X28256Y-22125D02*
X34445Y-22125D01*
X16805Y-22205D02*
X18824Y-22205D01*
X26997Y-22205D02*
X27304Y-22205D01*
X28297Y-22205D02*
X32466Y-22205D01*
X32934Y-22205D02*
X33066Y-22205D01*
X33534Y-22205D02*
X34445Y-22205D01*
X16805Y-22285D02*
X18721Y-22285D01*
X26999Y-22285D02*
X27301Y-22285D01*
X28299Y-22285D02*
X32398Y-22285D01*
X33604Y-22285D02*
X34445Y-22285D01*
X16805Y-22365D02*
X18641Y-22365D01*
X26999Y-22365D02*
X27301Y-22365D01*
X28299Y-22365D02*
X29968Y-22365D01*
X33624Y-22365D02*
X34445Y-22365D01*
X16805Y-22445D02*
X18561Y-22445D01*
X26999Y-22445D02*
X27301Y-22445D01*
X28299Y-22445D02*
X29887Y-22445D01*
X33713Y-22445D02*
X34445Y-22445D01*
X16805Y-22525D02*
X18481Y-22525D01*
X26999Y-22525D02*
X27301Y-22525D01*
X28299Y-22525D02*
X29807Y-22525D01*
X33793Y-22525D02*
X34445Y-22525D01*
X16805Y-22605D02*
X18419Y-22605D01*
X26999Y-22605D02*
X27301Y-22605D01*
X28299Y-22605D02*
X29727Y-22605D01*
X33860Y-22605D02*
X34445Y-22605D01*
X16805Y-22685D02*
X18374Y-22685D01*
X26999Y-22685D02*
X27301Y-22685D01*
X28299Y-22685D02*
X29654Y-22685D01*
X33897Y-22685D02*
X34445Y-22685D01*
X16805Y-22765D02*
X18358Y-22765D01*
X26999Y-22765D02*
X27267Y-22765D01*
X28299Y-22765D02*
X29607Y-22765D01*
X33909Y-22765D02*
X34445Y-22765D01*
X16805Y-22845D02*
X18350Y-22845D01*
X26999Y-22845D02*
X27186Y-22845D01*
X28299Y-22845D02*
X29591Y-22845D01*
X33909Y-22845D02*
X34445Y-22845D01*
X16805Y-22925D02*
X18350Y-22925D01*
X26999Y-22925D02*
X27107Y-22925D01*
X28299Y-22925D02*
X28794Y-22925D01*
X33909Y-22925D02*
X34445Y-22925D01*
X16805Y-23005D02*
X18350Y-23005D01*
X26999Y-23005D02*
X27040Y-23005D01*
X28299Y-23005D02*
X28754Y-23005D01*
X33909Y-23005D02*
X34445Y-23005D01*
X16805Y-23085D02*
X18350Y-23085D01*
X33909Y-23085D02*
X34445Y-23085D01*
X16805Y-23165D02*
X18350Y-23165D01*
X33909Y-23165D02*
X34445Y-23165D01*
X16805Y-23245D02*
X18350Y-23245D01*
X33909Y-23245D02*
X34445Y-23245D01*
X16805Y-23325D02*
X18350Y-23325D01*
X33909Y-23325D02*
X34445Y-23325D01*
X16805Y-23405D02*
X18350Y-23405D01*
X33909Y-23405D02*
X34445Y-23405D01*
X16805Y-23485D02*
X18350Y-23485D01*
X33909Y-23485D02*
X34445Y-23485D01*
X16805Y-23565D02*
X18350Y-23565D01*
X33909Y-23565D02*
X34445Y-23565D01*
X16805Y-23645D02*
X18350Y-23645D01*
X33909Y-23645D02*
X34445Y-23645D01*
X16805Y-23725D02*
X18350Y-23725D01*
X33909Y-23725D02*
X34445Y-23725D01*
X16805Y-23805D02*
X18351Y-23805D01*
X33909Y-23805D02*
X34445Y-23805D01*
X16805Y-23885D02*
X18367Y-23885D01*
X33909Y-23885D02*
X34445Y-23885D01*
X16805Y-23965D02*
X18397Y-23965D01*
X33909Y-23965D02*
X34445Y-23965D01*
X16805Y-24045D02*
X18451Y-24045D01*
X33909Y-24045D02*
X34445Y-24045D01*
X16805Y-24125D02*
X18530Y-24125D01*
X33909Y-24125D02*
X34445Y-24125D01*
X16805Y-24205D02*
X18610Y-24205D01*
X33909Y-24205D02*
X34445Y-24205D01*
X16805Y-24285D02*
X18690Y-24285D01*
X19880Y-24285D02*
X20812Y-24285D01*
X33909Y-24285D02*
X34445Y-24285D01*
X16805Y-24365D02*
X18770Y-24365D01*
X19966Y-24365D02*
X20801Y-24365D01*
X33909Y-24365D02*
X34445Y-24365D01*
X16805Y-24445D02*
X18850Y-24445D01*
X20026Y-24445D02*
X20801Y-24445D01*
X33909Y-24445D02*
X34445Y-24445D01*
X16805Y-24525D02*
X18930Y-24525D01*
X20059Y-24525D02*
X20801Y-24525D01*
X33909Y-24525D02*
X34445Y-24525D01*
X16805Y-24605D02*
X19010Y-24605D01*
X20075Y-24605D02*
X20801Y-24605D01*
X33909Y-24605D02*
X34445Y-24605D01*
X16805Y-24685D02*
X19090Y-24685D01*
X20075Y-24685D02*
X20801Y-24685D01*
X33909Y-24685D02*
X34445Y-24685D01*
X16805Y-24765D02*
X19170Y-24765D01*
X20062Y-24765D02*
X20801Y-24765D01*
X33909Y-24765D02*
X34445Y-24765D01*
X16805Y-24845D02*
X19250Y-24845D01*
X20029Y-24845D02*
X20801Y-24845D01*
X33909Y-24845D02*
X34445Y-24845D01*
X16805Y-24925D02*
X19324Y-24925D01*
X19976Y-24925D02*
X20815Y-24925D01*
X33894Y-24925D02*
X34445Y-24925D01*
X16805Y-25005D02*
X19404Y-25005D01*
X19896Y-25005D02*
X20874Y-25005D01*
X33853Y-25005D02*
X34445Y-25005D01*
X16805Y-25085D02*
X21240Y-25085D01*
X33782Y-25085D02*
X34445Y-25085D01*
X16805Y-25165D02*
X21240Y-25165D01*
X33702Y-25165D02*
X34445Y-25165D01*
X16805Y-25245D02*
X21240Y-25245D01*
X33622Y-25245D02*
X34445Y-25245D01*
X16805Y-25325D02*
X21240Y-25325D01*
X33542Y-25325D02*
X34445Y-25325D01*
X16805Y-25405D02*
X21227Y-25405D01*
X34034Y-25405D02*
X34445Y-25405D01*
X16805Y-25485D02*
X21147Y-25485D01*
X34104Y-25485D02*
X34445Y-25485D01*
X16805Y-25565D02*
X21067Y-25565D01*
X34124Y-25565D02*
X34445Y-25565D01*
X16805Y-25645D02*
X20524Y-25645D01*
X34124Y-25645D02*
X34445Y-25645D01*
X16805Y-25725D02*
X20481Y-25725D01*
X34124Y-25725D02*
X34445Y-25725D01*
X16805Y-25805D02*
X20476Y-25805D01*
X34124Y-25805D02*
X34445Y-25805D01*
X16805Y-25885D02*
X20476Y-25885D01*
X34115Y-25885D02*
X34445Y-25885D01*
X16805Y-25965D02*
X20476Y-25965D01*
X34066Y-25965D02*
X34445Y-25965D01*
X16805Y-26045D02*
X19324Y-26045D01*
X19876Y-26045D02*
X20466Y-26045D01*
X33425Y-26045D02*
X34445Y-26045D01*
X16805Y-26125D02*
X19281Y-26125D01*
X19920Y-26125D02*
X20465Y-26125D01*
X33347Y-26125D02*
X34445Y-26125D01*
X16805Y-26205D02*
X19276Y-26205D01*
X19924Y-26205D02*
X20465Y-26205D01*
X32610Y-26205D02*
X34445Y-26205D01*
X16805Y-26285D02*
X19274Y-26285D01*
X19980Y-26285D02*
X20465Y-26285D01*
X32610Y-26285D02*
X34445Y-26285D01*
X16805Y-26365D02*
X19258Y-26365D01*
X20039Y-26365D02*
X20465Y-26365D01*
X23531Y-26365D02*
X23970Y-26365D01*
X33308Y-26365D02*
X34445Y-26365D01*
X16805Y-26445D02*
X19259Y-26445D01*
X20079Y-26445D02*
X20451Y-26445D01*
X23549Y-26445D02*
X23951Y-26445D01*
X33413Y-26445D02*
X34445Y-26445D01*
X16805Y-26525D02*
X19275Y-26525D01*
X20095Y-26525D02*
X20451Y-26525D01*
X23549Y-26525D02*
X23951Y-26525D01*
X33493Y-26525D02*
X34445Y-26525D01*
X16805Y-26605D02*
X19276Y-26605D01*
X20100Y-26605D02*
X20451Y-26605D01*
X23549Y-26605D02*
X23951Y-26605D01*
X33573Y-26605D02*
X34445Y-26605D01*
X16805Y-26685D02*
X19284Y-26685D01*
X20100Y-26685D02*
X20451Y-26685D01*
X23549Y-26685D02*
X23951Y-26685D01*
X33630Y-26685D02*
X34445Y-26685D01*
X16805Y-26765D02*
X19334Y-26765D01*
X20100Y-26765D02*
X20451Y-26765D01*
X23549Y-26765D02*
X23951Y-26765D01*
X33653Y-26765D02*
X34445Y-26765D01*
X16805Y-26845D02*
X19400Y-26845D01*
X20100Y-26845D02*
X20451Y-26845D01*
X23549Y-26845D02*
X23951Y-26845D01*
X33660Y-26845D02*
X34445Y-26845D01*
X16805Y-26925D02*
X19384Y-26925D01*
X20116Y-26925D02*
X20451Y-26925D01*
X23549Y-26925D02*
X23951Y-26925D01*
X33660Y-26925D02*
X34445Y-26925D01*
X16805Y-27005D02*
X19320Y-27005D01*
X20181Y-27005D02*
X20457Y-27005D01*
X23542Y-27005D02*
X23957Y-27005D01*
X33660Y-27005D02*
X34445Y-27005D01*
X16805Y-27085D02*
X19287Y-27085D01*
X20214Y-27085D02*
X20504Y-27085D01*
X20994Y-27085D02*
X21004Y-27085D01*
X21494Y-27085D02*
X21504Y-27085D01*
X21994Y-27085D02*
X22004Y-27085D01*
X22494Y-27085D02*
X22504Y-27085D01*
X22994Y-27085D02*
X23004Y-27085D01*
X23496Y-27085D02*
X23990Y-27085D01*
X33660Y-27085D02*
X34445Y-27085D01*
X16805Y-27165D02*
X19256Y-27165D01*
X20244Y-27165D02*
X23990Y-27165D01*
X33660Y-27165D02*
X34445Y-27165D01*
X16805Y-27245D02*
X19256Y-27245D01*
X20244Y-27245D02*
X23990Y-27245D01*
X33660Y-27245D02*
X34445Y-27245D01*
X16805Y-27325D02*
X19256Y-27325D01*
X20244Y-27325D02*
X23990Y-27325D01*
X33660Y-27325D02*
X34445Y-27325D01*
X16805Y-27405D02*
X19276Y-27405D01*
X20224Y-27405D02*
X23990Y-27405D01*
X33660Y-27405D02*
X34445Y-27405D01*
X16805Y-27485D02*
X19309Y-27485D01*
X20190Y-27485D02*
X23990Y-27485D01*
X33660Y-27485D02*
X34445Y-27485D01*
X16805Y-27565D02*
X19358Y-27565D01*
X20142Y-27565D02*
X23990Y-27565D01*
X33660Y-27565D02*
X34445Y-27565D01*
X16805Y-27645D02*
X19438Y-27645D01*
X20062Y-27645D02*
X23990Y-27645D01*
X33660Y-27645D02*
X34445Y-27645D01*
X16805Y-27725D02*
X19585Y-27725D01*
X19912Y-27725D02*
X23990Y-27725D01*
X33660Y-27725D02*
X34445Y-27725D01*
X16805Y-27805D02*
X18724Y-27805D01*
X19197Y-27805D02*
X19514Y-27805D01*
X19987Y-27805D02*
X23990Y-27805D01*
X33660Y-27805D02*
X34445Y-27805D01*
X16805Y-27885D02*
X18618Y-27885D01*
X19302Y-27885D02*
X19407Y-27885D01*
X20092Y-27885D02*
X23990Y-27885D01*
X33660Y-27885D02*
X34445Y-27885D01*
X16805Y-27965D02*
X18540Y-27965D01*
X20171Y-27965D02*
X23993Y-27965D01*
X33660Y-27965D02*
X34445Y-27965D01*
X16805Y-28045D02*
X18507Y-28045D01*
X20204Y-28045D02*
X24009Y-28045D01*
X33660Y-28045D02*
X34445Y-28045D01*
X16805Y-28125D02*
X18474Y-28125D01*
X20237Y-28125D02*
X24060Y-28125D01*
X33660Y-28125D02*
X34445Y-28125D01*
X16805Y-28205D02*
X18466Y-28205D01*
X20244Y-28205D02*
X24137Y-28205D01*
X33660Y-28205D02*
X34445Y-28205D01*
X16805Y-28285D02*
X18466Y-28285D01*
X20244Y-28285D02*
X24217Y-28285D01*
X33660Y-28285D02*
X34445Y-28285D01*
X16805Y-28365D02*
X18476Y-28365D01*
X20234Y-28365D02*
X24297Y-28365D01*
X33660Y-28365D02*
X34445Y-28365D01*
X16805Y-28445D02*
X18509Y-28445D01*
X20200Y-28445D02*
X24425Y-28445D01*
X33660Y-28445D02*
X34445Y-28445D01*
X16805Y-28525D02*
X18544Y-28525D01*
X20166Y-28525D02*
X27240Y-28525D01*
X33660Y-28525D02*
X34445Y-28525D01*
X16805Y-28605D02*
X18624Y-28605D01*
X20086Y-28605D02*
X27227Y-28605D01*
X33660Y-28605D02*
X34445Y-28605D01*
X16805Y-28685D02*
X18737Y-28685D01*
X20053Y-28685D02*
X27147Y-28685D01*
X33660Y-28685D02*
X34445Y-28685D01*
X16805Y-28765D02*
X19097Y-28765D01*
X20133Y-28765D02*
X27067Y-28765D01*
X33660Y-28765D02*
X34445Y-28765D01*
X16805Y-28845D02*
X19177Y-28845D01*
X20213Y-28845D02*
X24476Y-28845D01*
X33660Y-28845D02*
X34445Y-28845D01*
X16805Y-28925D02*
X19257Y-28925D01*
X20293Y-28925D02*
X24307Y-28925D01*
X33660Y-28925D02*
X34445Y-28925D01*
X16805Y-29005D02*
X19337Y-29005D01*
X20373Y-29005D02*
X24227Y-29005D01*
X33660Y-29005D02*
X34445Y-29005D01*
X16805Y-29085D02*
X19417Y-29085D01*
X20453Y-29085D02*
X24147Y-29085D01*
X33660Y-29085D02*
X34445Y-29085D01*
X16805Y-29165D02*
X19497Y-29165D01*
X20533Y-29165D02*
X24067Y-29165D01*
X33660Y-29165D02*
X34445Y-29165D01*
X16805Y-29245D02*
X19577Y-29245D01*
X20613Y-29245D02*
X23987Y-29245D01*
X33660Y-29245D02*
X34445Y-29245D01*
X16805Y-29325D02*
X19657Y-29325D01*
X20693Y-29325D02*
X23907Y-29325D01*
X31492Y-29325D02*
X32251Y-29325D01*
X33660Y-29325D02*
X34445Y-29325D01*
X16805Y-29405D02*
X19737Y-29405D01*
X20773Y-29405D02*
X23827Y-29405D01*
X31412Y-29405D02*
X32278Y-29405D01*
X33660Y-29405D02*
X34445Y-29405D01*
X16805Y-29485D02*
X19817Y-29485D01*
X20853Y-29485D02*
X23747Y-29485D01*
X31332Y-29485D02*
X32377Y-29485D01*
X33660Y-29485D02*
X34445Y-29485D01*
X16805Y-29565D02*
X19897Y-29565D01*
X20933Y-29565D02*
X23667Y-29565D01*
X31252Y-29565D02*
X33140Y-29565D01*
X33660Y-29565D02*
X34445Y-29565D01*
X16805Y-29645D02*
X19977Y-29645D01*
X20987Y-29645D02*
X23587Y-29645D01*
X31172Y-29645D02*
X33140Y-29645D01*
X33660Y-29645D02*
X34445Y-29645D01*
X16805Y-29725D02*
X20057Y-29725D01*
X21005Y-29725D02*
X23527Y-29725D01*
X31092Y-29725D02*
X33140Y-29725D01*
X33660Y-29725D02*
X34445Y-29725D01*
X16805Y-29805D02*
X20137Y-29805D01*
X21010Y-29805D02*
X23499Y-29805D01*
X31012Y-29805D02*
X33140Y-29805D01*
X33660Y-29805D02*
X34445Y-29805D01*
X16805Y-29885D02*
X20140Y-29885D01*
X21010Y-29885D02*
X21034Y-29885D01*
X21466Y-29885D02*
X21534Y-29885D01*
X21966Y-29885D02*
X22034Y-29885D01*
X22466Y-29885D02*
X23034Y-29885D01*
X23466Y-29885D02*
X23490Y-29885D01*
X30932Y-29885D02*
X33140Y-29885D01*
X33660Y-29885D02*
X34445Y-29885D01*
X16805Y-29965D02*
X20140Y-29965D01*
X22531Y-29965D02*
X22971Y-29965D01*
X30852Y-29965D02*
X33140Y-29965D01*
X33660Y-29965D02*
X34445Y-29965D01*
X16805Y-30045D02*
X20140Y-30045D01*
X22549Y-30045D02*
X22951Y-30045D01*
X30724Y-30045D02*
X33140Y-30045D01*
X33660Y-30045D02*
X34445Y-30045D01*
X16805Y-30125D02*
X20140Y-30125D01*
X22549Y-30125D02*
X22951Y-30125D01*
X31156Y-30125D02*
X33140Y-30125D01*
X33660Y-30125D02*
X34445Y-30125D01*
X16805Y-30205D02*
X20140Y-30205D01*
X22549Y-30205D02*
X22951Y-30205D01*
X31212Y-30205D02*
X33140Y-30205D01*
X33660Y-30205D02*
X34445Y-30205D01*
X16805Y-30285D02*
X20140Y-30285D01*
X22549Y-30285D02*
X22951Y-30285D01*
X31224Y-30285D02*
X33097Y-30285D01*
X33660Y-30285D02*
X34445Y-30285D01*
X16805Y-30365D02*
X20140Y-30365D01*
X22549Y-30365D02*
X22951Y-30365D01*
X31224Y-30365D02*
X33017Y-30365D01*
X33657Y-30365D02*
X34445Y-30365D01*
X16805Y-30445D02*
X20140Y-30445D01*
X22549Y-30445D02*
X22951Y-30445D01*
X31239Y-30445D02*
X32937Y-30445D01*
X33641Y-30445D02*
X34445Y-30445D01*
X16805Y-30525D02*
X20140Y-30525D01*
X22549Y-30525D02*
X22951Y-30525D01*
X31244Y-30525D02*
X32857Y-30525D01*
X33590Y-30525D02*
X34445Y-30525D01*
X16805Y-30605D02*
X20140Y-30605D01*
X22542Y-30605D02*
X22957Y-30605D01*
X31228Y-30605D02*
X32777Y-30605D01*
X33513Y-30605D02*
X34445Y-30605D01*
X16805Y-30685D02*
X20140Y-30685D01*
X21994Y-30685D02*
X22004Y-30685D01*
X22496Y-30685D02*
X22965Y-30685D01*
X24494Y-30685D02*
X24504Y-30685D01*
X24994Y-30685D02*
X25004Y-30685D01*
X25494Y-30685D02*
X25504Y-30685D01*
X25994Y-30685D02*
X26004Y-30685D01*
X31224Y-30685D02*
X32697Y-30685D01*
X33433Y-30685D02*
X34445Y-30685D01*
X16805Y-30765D02*
X20140Y-30765D01*
X21510Y-30765D02*
X22965Y-30765D01*
X24166Y-30765D02*
X26066Y-30765D01*
X31224Y-30765D02*
X32617Y-30765D01*
X33353Y-30765D02*
X34445Y-30765D01*
X16805Y-30845D02*
X20149Y-30845D01*
X21510Y-30845D02*
X22965Y-30845D01*
X24246Y-30845D02*
X25986Y-30845D01*
X31185Y-30845D02*
X32223Y-30845D01*
X33273Y-30845D02*
X34445Y-30845D01*
X16805Y-30925D02*
X20176Y-30925D01*
X21494Y-30925D02*
X22965Y-30925D01*
X24288Y-30925D02*
X25584Y-30925D01*
X31256Y-30925D02*
X32145Y-30925D01*
X33193Y-30925D02*
X34445Y-30925D01*
X16805Y-31005D02*
X20237Y-31005D01*
X21453Y-31005D02*
X22975Y-31005D01*
X24321Y-31005D02*
X25419Y-31005D01*
X31279Y-31005D02*
X32121Y-31005D01*
X33113Y-31005D02*
X34445Y-31005D01*
X16805Y-31085D02*
X20317Y-31085D01*
X21382Y-31085D02*
X23004Y-31085D01*
X24325Y-31085D02*
X25339Y-31085D01*
X31279Y-31085D02*
X32121Y-31085D01*
X33033Y-31085D02*
X34445Y-31085D01*
X16805Y-31165D02*
X23061Y-31165D01*
X24325Y-31165D02*
X25275Y-31165D01*
X31279Y-31165D02*
X32121Y-31165D01*
X32953Y-31165D02*
X34445Y-31165D01*
X16805Y-31245D02*
X23076Y-31245D01*
X24300Y-31245D02*
X25241Y-31245D01*
X31279Y-31245D02*
X32121Y-31245D01*
X32879Y-31245D02*
X34445Y-31245D01*
X16805Y-31325D02*
X23076Y-31325D01*
X24266Y-31325D02*
X25208Y-31325D01*
X29293Y-31325D02*
X29757Y-31325D01*
X31279Y-31325D02*
X32121Y-31325D01*
X32879Y-31325D02*
X34445Y-31325D01*
X16805Y-31405D02*
X23092Y-31405D01*
X24196Y-31405D02*
X25201Y-31405D01*
X29299Y-31405D02*
X29837Y-31405D01*
X31279Y-31405D02*
X32121Y-31405D01*
X32879Y-31405D02*
X34445Y-31405D01*
X16805Y-31485D02*
X23154Y-31485D01*
X23645Y-31485D02*
X23719Y-31485D01*
X24081Y-31485D02*
X25201Y-31485D01*
X29299Y-31485D02*
X29917Y-31485D01*
X31251Y-31485D02*
X32148Y-31485D01*
X32851Y-31485D02*
X34445Y-31485D01*
X16805Y-31565D02*
X25203Y-31565D01*
X29296Y-31565D02*
X29940Y-31565D01*
X31153Y-31565D02*
X32247Y-31565D01*
X32753Y-31565D02*
X34445Y-31565D01*
X16805Y-31645D02*
X17537Y-31645D01*
X20403Y-31645D02*
X25236Y-31645D01*
X29263Y-31645D02*
X29940Y-31645D01*
X30828Y-31645D02*
X31873Y-31645D01*
X32427Y-31645D02*
X34445Y-31645D01*
X16805Y-31725D02*
X17537Y-31725D01*
X20403Y-31725D02*
X25270Y-31725D01*
X26229Y-31725D02*
X26269Y-31725D01*
X27229Y-31725D02*
X27270Y-31725D01*
X28229Y-31725D02*
X28270Y-31725D01*
X29229Y-31725D02*
X29940Y-31725D01*
X30906Y-31725D02*
X31795Y-31725D01*
X32506Y-31725D02*
X34445Y-31725D01*
X16805Y-31805D02*
X17537Y-31805D01*
X20403Y-31805D02*
X25329Y-31805D01*
X26171Y-31805D02*
X26329Y-31805D01*
X27171Y-31805D02*
X27329Y-31805D01*
X28171Y-31805D02*
X28329Y-31805D01*
X29171Y-31805D02*
X29940Y-31805D01*
X30929Y-31805D02*
X31771Y-31805D01*
X32529Y-31805D02*
X34445Y-31805D01*
X16805Y-31885D02*
X17537Y-31885D01*
X20403Y-31885D02*
X25409Y-31885D01*
X26091Y-31885D02*
X26409Y-31885D01*
X27091Y-31885D02*
X27409Y-31885D01*
X28091Y-31885D02*
X28409Y-31885D01*
X29091Y-31885D02*
X29940Y-31885D01*
X30929Y-31885D02*
X31771Y-31885D01*
X32529Y-31885D02*
X34445Y-31885D01*
X16805Y-31965D02*
X17537Y-31965D01*
X20403Y-31965D02*
X25559Y-31965D01*
X25940Y-31965D02*
X26559Y-31965D01*
X26940Y-31965D02*
X27559Y-31965D01*
X27940Y-31965D02*
X28559Y-31965D01*
X28940Y-31965D02*
X29940Y-31965D01*
X30929Y-31965D02*
X31771Y-31965D01*
X32529Y-31965D02*
X34445Y-31965D01*
X16805Y-32045D02*
X17537Y-32045D01*
X20403Y-32045D02*
X29940Y-32045D01*
X30929Y-32045D02*
X31737Y-32045D01*
X32529Y-32045D02*
X34445Y-32045D01*
X16805Y-32125D02*
X17537Y-32125D01*
X20403Y-32125D02*
X29940Y-32125D01*
X30929Y-32125D02*
X31657Y-32125D01*
X32529Y-32125D02*
X34445Y-32125D01*
X16805Y-32205D02*
X17537Y-32205D01*
X20403Y-32205D02*
X29941Y-32205D01*
X32529Y-32205D02*
X34445Y-32205D01*
X16805Y-32285D02*
X17537Y-32285D01*
X20403Y-32285D02*
X29957Y-32285D01*
X32501Y-32285D02*
X34445Y-32285D01*
X16805Y-32365D02*
X17537Y-32365D01*
X20403Y-32365D02*
X30003Y-32365D01*
X32403Y-32365D02*
X34445Y-32365D01*
X24907Y-25759D02*
X24907Y-25759D01*
X24827Y-25839D02*
X25563Y-25839D01*
X24747Y-25919D02*
X25643Y-25919D01*
X24667Y-25999D02*
X25771Y-25999D01*
X24587Y-26079D02*
X25753Y-26079D01*
X24507Y-26159D02*
X25673Y-26159D01*
X24427Y-26239D02*
X25593Y-26239D01*
X26736Y-23249D02*
X26751Y-23249D01*
X26673Y-23329D02*
X26751Y-23329D01*
X26640Y-23409D02*
X26751Y-23409D01*
X26674Y-23489D02*
X26751Y-23489D01*
X26674Y-23569D02*
X26751Y-23569D01*
X25174Y-23649D02*
X25326Y-23649D01*
X25774Y-23649D02*
X25826Y-23649D01*
X26674Y-23649D02*
X26751Y-23649D01*
X24682Y-23729D02*
X25826Y-23729D01*
X26674Y-23729D02*
X26751Y-23729D01*
X23370Y-23809D02*
X23378Y-23809D01*
X24622Y-23809D02*
X24860Y-23809D01*
X25340Y-23809D02*
X25826Y-23809D01*
X26674Y-23809D02*
X26751Y-23809D01*
X23002Y-23889D02*
X24796Y-23889D01*
X25405Y-23889D02*
X25858Y-23889D01*
X26642Y-23889D02*
X26751Y-23889D01*
X22977Y-23969D02*
X24776Y-23969D01*
X25424Y-23969D02*
X25973Y-23969D01*
X26526Y-23969D02*
X26751Y-23969D01*
X22918Y-24049D02*
X24776Y-24049D01*
X25424Y-24049D02*
X26751Y-24049D01*
X22838Y-24129D02*
X24776Y-24129D01*
X25424Y-24129D02*
X26767Y-24129D01*
X24640Y-24209D02*
X24776Y-24209D01*
X25424Y-24209D02*
X26828Y-24209D01*
X24690Y-24289D02*
X24776Y-24289D01*
X25424Y-24289D02*
X26851Y-24289D01*
X24699Y-24369D02*
X24776Y-24369D01*
X25700Y-24369D02*
X26851Y-24369D01*
X24699Y-24449D02*
X24776Y-24449D01*
X25759Y-24449D02*
X26851Y-24449D01*
X24699Y-24529D02*
X24802Y-24529D01*
X25774Y-24529D02*
X26851Y-24529D01*
X24699Y-24609D02*
X24840Y-24609D01*
X25774Y-24609D02*
X26851Y-24609D01*
X24699Y-24689D02*
X24840Y-24689D01*
X25774Y-24689D02*
X26851Y-24689D01*
X24699Y-24769D02*
X24763Y-24769D01*
X25774Y-24769D02*
X26888Y-24769D01*
X25774Y-24849D02*
X26933Y-24849D01*
X25797Y-24929D02*
X26853Y-24929D01*
X26249Y-25009D02*
X26773Y-25009D01*
X26365Y-25089D02*
X26693Y-25089D01*
X26445Y-25169D02*
X26631Y-25169D01*
X26490Y-25249D02*
X26601Y-25249D01*
X26524Y-25329D02*
X26590Y-25329D01*
X26549Y-25409D02*
X26590Y-25409D01*
X26549Y-25489D02*
X26590Y-25489D01*
X26549Y-25569D02*
X26590Y-25569D01*
X26531Y-25649D02*
X26533Y-25649D01*
X30257Y-22810D02*
X32376Y-22810D01*
X30971Y-22890D02*
X32386Y-22890D01*
X31033Y-22970D02*
X32439Y-22970D01*
X32961Y-22970D02*
X33039Y-22970D01*
X31049Y-23050D02*
X32391Y-23050D01*
X33010Y-23050D02*
X33390Y-23050D01*
X31049Y-23130D02*
X32376Y-23130D01*
X33024Y-23130D02*
X33390Y-23130D01*
X31049Y-23210D02*
X32376Y-23210D01*
X33024Y-23210D02*
X33390Y-23210D01*
X31049Y-23290D02*
X32376Y-23290D01*
X33024Y-23290D02*
X33390Y-23290D01*
X31049Y-23370D02*
X32376Y-23370D01*
X33024Y-23370D02*
X33390Y-23370D01*
X31049Y-23450D02*
X32376Y-23450D01*
X33024Y-23450D02*
X33390Y-23450D01*
X31049Y-23530D02*
X32376Y-23530D01*
X33024Y-23530D02*
X33390Y-23530D01*
X31049Y-23610D02*
X32376Y-23610D01*
X33024Y-23610D02*
X33390Y-23610D01*
X31049Y-23690D02*
X32409Y-23690D01*
X32991Y-23690D02*
X33390Y-23690D01*
X31049Y-23770D02*
X32525Y-23770D01*
X32873Y-23770D02*
X33390Y-23770D01*
X31131Y-23850D02*
X33390Y-23850D01*
X31187Y-23930D02*
X33390Y-23930D01*
X31199Y-24010D02*
X33390Y-24010D01*
X31199Y-24090D02*
X33390Y-24090D01*
X31199Y-24170D02*
X33390Y-24170D01*
X31199Y-24250D02*
X33390Y-24250D01*
X31199Y-24330D02*
X33390Y-24330D01*
X31199Y-24410D02*
X33390Y-24410D01*
X31199Y-24490D02*
X33390Y-24490D01*
X31199Y-24570D02*
X33390Y-24570D01*
X31199Y-24650D02*
X33390Y-24650D01*
X31199Y-24730D02*
X33390Y-24730D01*
X31199Y-24810D02*
X33322Y-24810D01*
X31199Y-24890D02*
X33242Y-24890D01*
X31199Y-24970D02*
X33162Y-24970D01*
X31481Y-25050D02*
X31624Y-25050D01*
X32077Y-25050D02*
X33082Y-25050D01*
X32206Y-25130D02*
X33002Y-25130D01*
X32286Y-25210D02*
X32309Y-25210D01*
X25499Y-26318D02*
X25538Y-26281D01*
X25562Y-26270D01*
X25566Y-26266D01*
X25764Y-26068D01*
X25766Y-26066D01*
X25830Y-26023D01*
X25689Y-25965D01*
X25535Y-25811D01*
X25513Y-25760D01*
X24907Y-25759D01*
X24408Y-26259D01*
X24463Y-26282D01*
X24499Y-26318D01*
X24538Y-26281D01*
X24611Y-26251D01*
X24890Y-26251D01*
X24963Y-26282D01*
X24999Y-26318D01*
X25038Y-26281D01*
X25111Y-26251D01*
X25390Y-26251D01*
X25463Y-26282D01*
X25499Y-26318D01*
X16805Y-21805D02*
X34445Y-21805D01*
X16805Y-21885D02*
X34445Y-21885D01*
X16805Y-21965D02*
X34445Y-21965D01*
X16805Y-22045D02*
X34445Y-22045D01*
X16805Y-22125D02*
X26044Y-22125D01*
X26956Y-22125D02*
X27344Y-22125D01*
X28256Y-22125D02*
X34445Y-22125D01*
X16805Y-22205D02*
X18824Y-22205D01*
X26997Y-22205D02*
X27304Y-22205D01*
X28297Y-22205D02*
X32466Y-22205D01*
X32934Y-22205D02*
X33066Y-22205D01*
X33534Y-22205D02*
X34445Y-22205D01*
X16805Y-22285D02*
X18721Y-22285D01*
X26999Y-22285D02*
X27301Y-22285D01*
X28299Y-22285D02*
X32398Y-22285D01*
X33604Y-22285D02*
X34445Y-22285D01*
X16805Y-22365D02*
X18641Y-22365D01*
X26999Y-22365D02*
X27301Y-22365D01*
X28299Y-22365D02*
X29968Y-22365D01*
X33624Y-22365D02*
X34445Y-22365D01*
X16805Y-22445D02*
X18561Y-22445D01*
X26999Y-22445D02*
X27301Y-22445D01*
X28299Y-22445D02*
X29887Y-22445D01*
X33713Y-22445D02*
X34445Y-22445D01*
X16805Y-22525D02*
X18481Y-22525D01*
X26999Y-22525D02*
X27301Y-22525D01*
X28299Y-22525D02*
X29807Y-22525D01*
X33793Y-22525D02*
X34445Y-22525D01*
X16805Y-22605D02*
X18419Y-22605D01*
X26999Y-22605D02*
X27301Y-22605D01*
X28299Y-22605D02*
X29727Y-22605D01*
X33860Y-22605D02*
X34445Y-22605D01*
X16805Y-22685D02*
X18374Y-22685D01*
X26999Y-22685D02*
X27301Y-22685D01*
X28299Y-22685D02*
X29654Y-22685D01*
X33897Y-22685D02*
X34445Y-22685D01*
X16805Y-22765D02*
X18358Y-22765D01*
X26999Y-22765D02*
X27267Y-22765D01*
X28299Y-22765D02*
X29607Y-22765D01*
X33909Y-22765D02*
X34445Y-22765D01*
X16805Y-22845D02*
X18350Y-22845D01*
X26999Y-22845D02*
X27186Y-22845D01*
X28299Y-22845D02*
X29591Y-22845D01*
X33909Y-22845D02*
X34445Y-22845D01*
X16805Y-22925D02*
X18350Y-22925D01*
X26999Y-22925D02*
X27107Y-22925D01*
X28299Y-22925D02*
X28794Y-22925D01*
X33909Y-22925D02*
X34445Y-22925D01*
X16805Y-23005D02*
X18350Y-23005D01*
X26999Y-23005D02*
X27040Y-23005D01*
X28299Y-23005D02*
X28754Y-23005D01*
X33909Y-23005D02*
X34445Y-23005D01*
X16805Y-23085D02*
X18350Y-23085D01*
X33909Y-23085D02*
X34445Y-23085D01*
X16805Y-23165D02*
X18350Y-23165D01*
X33909Y-23165D02*
X34445Y-23165D01*
X16805Y-23245D02*
X18350Y-23245D01*
X33909Y-23245D02*
X34445Y-23245D01*
X16805Y-23325D02*
X18350Y-23325D01*
X33909Y-23325D02*
X34445Y-23325D01*
X16805Y-23405D02*
X18350Y-23405D01*
X33909Y-23405D02*
X34445Y-23405D01*
X16805Y-23485D02*
X18350Y-23485D01*
X33909Y-23485D02*
X34445Y-23485D01*
X16805Y-23565D02*
X18350Y-23565D01*
X33909Y-23565D02*
X34445Y-23565D01*
X16805Y-23645D02*
X18350Y-23645D01*
X33909Y-23645D02*
X34445Y-23645D01*
X16805Y-23725D02*
X18350Y-23725D01*
X33909Y-23725D02*
X34445Y-23725D01*
X16805Y-23805D02*
X18351Y-23805D01*
X33909Y-23805D02*
X34445Y-23805D01*
X16805Y-23885D02*
X18367Y-23885D01*
X33909Y-23885D02*
X34445Y-23885D01*
X16805Y-23965D02*
X18397Y-23965D01*
X33909Y-23965D02*
X34445Y-23965D01*
X16805Y-24045D02*
X18451Y-24045D01*
X33909Y-24045D02*
X34445Y-24045D01*
X16805Y-24125D02*
X18530Y-24125D01*
X33909Y-24125D02*
X34445Y-24125D01*
X16805Y-24205D02*
X18610Y-24205D01*
X33909Y-24205D02*
X34445Y-24205D01*
X16805Y-24285D02*
X18690Y-24285D01*
X19880Y-24285D02*
X20812Y-24285D01*
X33909Y-24285D02*
X34445Y-24285D01*
X16805Y-24365D02*
X18770Y-24365D01*
X19966Y-24365D02*
X20801Y-24365D01*
X33909Y-24365D02*
X34445Y-24365D01*
X16805Y-24445D02*
X18850Y-24445D01*
X20026Y-24445D02*
X20801Y-24445D01*
X33909Y-24445D02*
X34445Y-24445D01*
X16805Y-24525D02*
X18930Y-24525D01*
X20059Y-24525D02*
X20801Y-24525D01*
X33909Y-24525D02*
X34445Y-24525D01*
X16805Y-24605D02*
X19010Y-24605D01*
X20075Y-24605D02*
X20801Y-24605D01*
X33909Y-24605D02*
X34445Y-24605D01*
X16805Y-24685D02*
X19090Y-24685D01*
X20075Y-24685D02*
X20801Y-24685D01*
X33909Y-24685D02*
X34445Y-24685D01*
X16805Y-24765D02*
X19170Y-24765D01*
X20062Y-24765D02*
X20801Y-24765D01*
X33909Y-24765D02*
X34445Y-24765D01*
X16805Y-24845D02*
X19250Y-24845D01*
X20029Y-24845D02*
X20801Y-24845D01*
X33909Y-24845D02*
X34445Y-24845D01*
X16805Y-24925D02*
X19324Y-24925D01*
X19976Y-24925D02*
X20815Y-24925D01*
X33894Y-24925D02*
X34445Y-24925D01*
X16805Y-25005D02*
X19404Y-25005D01*
X19896Y-25005D02*
X20874Y-25005D01*
X33853Y-25005D02*
X34445Y-25005D01*
X16805Y-25085D02*
X21240Y-25085D01*
X33782Y-25085D02*
X34445Y-25085D01*
X16805Y-25165D02*
X21240Y-25165D01*
X33702Y-25165D02*
X34445Y-25165D01*
X16805Y-25245D02*
X21240Y-25245D01*
X33622Y-25245D02*
X34445Y-25245D01*
X16805Y-25325D02*
X21240Y-25325D01*
X33542Y-25325D02*
X34445Y-25325D01*
X16805Y-25405D02*
X21227Y-25405D01*
X34034Y-25405D02*
X34445Y-25405D01*
X16805Y-25485D02*
X21147Y-25485D01*
X34104Y-25485D02*
X34445Y-25485D01*
X16805Y-25565D02*
X21067Y-25565D01*
X34124Y-25565D02*
X34445Y-25565D01*
X16805Y-25645D02*
X20524Y-25645D01*
X34124Y-25645D02*
X34445Y-25645D01*
X16805Y-25725D02*
X20481Y-25725D01*
X34124Y-25725D02*
X34445Y-25725D01*
X16805Y-25805D02*
X20476Y-25805D01*
X34124Y-25805D02*
X34445Y-25805D01*
X16805Y-25885D02*
X20476Y-25885D01*
X34115Y-25885D02*
X34445Y-25885D01*
X16805Y-25965D02*
X20476Y-25965D01*
X34066Y-25965D02*
X34445Y-25965D01*
X16805Y-26045D02*
X19324Y-26045D01*
X19876Y-26045D02*
X20466Y-26045D01*
X33425Y-26045D02*
X34445Y-26045D01*
X16805Y-26125D02*
X19281Y-26125D01*
X19920Y-26125D02*
X20465Y-26125D01*
X33347Y-26125D02*
X34445Y-26125D01*
X16805Y-26205D02*
X19276Y-26205D01*
X19924Y-26205D02*
X20465Y-26205D01*
X32610Y-26205D02*
X34445Y-26205D01*
X16805Y-26285D02*
X19274Y-26285D01*
X19980Y-26285D02*
X20465Y-26285D01*
X32610Y-26285D02*
X34445Y-26285D01*
X16805Y-26365D02*
X19258Y-26365D01*
X20039Y-26365D02*
X20465Y-26365D01*
X23531Y-26365D02*
X23970Y-26365D01*
X33308Y-26365D02*
X34445Y-26365D01*
X16805Y-26445D02*
X19259Y-26445D01*
X20079Y-26445D02*
X20451Y-26445D01*
X23549Y-26445D02*
X23951Y-26445D01*
X33413Y-26445D02*
X34445Y-26445D01*
X16805Y-26525D02*
X19275Y-26525D01*
X20095Y-26525D02*
X20451Y-26525D01*
X23549Y-26525D02*
X23951Y-26525D01*
X33493Y-26525D02*
X34445Y-26525D01*
X16805Y-26605D02*
X19276Y-26605D01*
X20100Y-26605D02*
X20451Y-26605D01*
X23549Y-26605D02*
X23951Y-26605D01*
X33573Y-26605D02*
X34445Y-26605D01*
X16805Y-26685D02*
X19284Y-26685D01*
X20100Y-26685D02*
X20451Y-26685D01*
X23549Y-26685D02*
X23951Y-26685D01*
X33630Y-26685D02*
X34445Y-26685D01*
X16805Y-26765D02*
X19334Y-26765D01*
X20100Y-26765D02*
X20451Y-26765D01*
X23549Y-26765D02*
X23951Y-26765D01*
X33653Y-26765D02*
X34445Y-26765D01*
X16805Y-26845D02*
X19400Y-26845D01*
X20100Y-26845D02*
X20451Y-26845D01*
X23549Y-26845D02*
X23951Y-26845D01*
X33660Y-26845D02*
X34445Y-26845D01*
X16805Y-26925D02*
X19384Y-26925D01*
X20116Y-26925D02*
X20451Y-26925D01*
X23549Y-26925D02*
X23951Y-26925D01*
X33660Y-26925D02*
X34445Y-26925D01*
X16805Y-27005D02*
X19320Y-27005D01*
X20181Y-27005D02*
X20457Y-27005D01*
X23542Y-27005D02*
X23957Y-27005D01*
X33660Y-27005D02*
X34445Y-27005D01*
X16805Y-27085D02*
X19287Y-27085D01*
X20214Y-27085D02*
X20504Y-27085D01*
X20994Y-27085D02*
X21004Y-27085D01*
X21494Y-27085D02*
X21504Y-27085D01*
X21994Y-27085D02*
X22004Y-27085D01*
X22494Y-27085D02*
X22504Y-27085D01*
X22994Y-27085D02*
X23004Y-27085D01*
X23496Y-27085D02*
X23990Y-27085D01*
X33660Y-27085D02*
X34445Y-27085D01*
X16805Y-27165D02*
X19256Y-27165D01*
X20244Y-27165D02*
X23990Y-27165D01*
X33660Y-27165D02*
X34445Y-27165D01*
X16805Y-27245D02*
X19256Y-27245D01*
X20244Y-27245D02*
X23990Y-27245D01*
X33660Y-27245D02*
X34445Y-27245D01*
X16805Y-27325D02*
X19256Y-27325D01*
X20244Y-27325D02*
X23990Y-27325D01*
X33660Y-27325D02*
X34445Y-27325D01*
X16805Y-27405D02*
X19276Y-27405D01*
X20224Y-27405D02*
X23990Y-27405D01*
X33660Y-27405D02*
X34445Y-27405D01*
X16805Y-27485D02*
X19309Y-27485D01*
X20190Y-27485D02*
X23990Y-27485D01*
X33660Y-27485D02*
X34445Y-27485D01*
X16805Y-27565D02*
X19358Y-27565D01*
X20142Y-27565D02*
X23990Y-27565D01*
X33660Y-27565D02*
X34445Y-27565D01*
X16805Y-27645D02*
X19438Y-27645D01*
X20062Y-27645D02*
X23990Y-27645D01*
X33660Y-27645D02*
X34445Y-27645D01*
X16805Y-27725D02*
X19585Y-27725D01*
X19912Y-27725D02*
X23990Y-27725D01*
X33660Y-27725D02*
X34445Y-27725D01*
X16805Y-27805D02*
X18724Y-27805D01*
X19197Y-27805D02*
X19514Y-27805D01*
X19987Y-27805D02*
X23990Y-27805D01*
X33660Y-27805D02*
X34445Y-27805D01*
X16805Y-27885D02*
X18618Y-27885D01*
X19302Y-27885D02*
X19407Y-27885D01*
X20092Y-27885D02*
X23990Y-27885D01*
X33660Y-27885D02*
X34445Y-27885D01*
X16805Y-27965D02*
X18540Y-27965D01*
X20171Y-27965D02*
X23993Y-27965D01*
X33660Y-27965D02*
X34445Y-27965D01*
X16805Y-28045D02*
X18507Y-28045D01*
X20204Y-28045D02*
X24009Y-28045D01*
X33660Y-28045D02*
X34445Y-28045D01*
X16805Y-28125D02*
X18474Y-28125D01*
X20237Y-28125D02*
X24060Y-28125D01*
X33660Y-28125D02*
X34445Y-28125D01*
X16805Y-28205D02*
X18466Y-28205D01*
X20244Y-28205D02*
X24137Y-28205D01*
X33660Y-28205D02*
X34445Y-28205D01*
X16805Y-28285D02*
X18466Y-28285D01*
X20244Y-28285D02*
X24217Y-28285D01*
X33660Y-28285D02*
X34445Y-28285D01*
X16805Y-28365D02*
X18476Y-28365D01*
X20234Y-28365D02*
X24297Y-28365D01*
X33660Y-28365D02*
X34445Y-28365D01*
X16805Y-28445D02*
X18509Y-28445D01*
X20200Y-28445D02*
X24425Y-28445D01*
X33660Y-28445D02*
X34445Y-28445D01*
X16805Y-28525D02*
X18544Y-28525D01*
X20166Y-28525D02*
X27240Y-28525D01*
X33660Y-28525D02*
X34445Y-28525D01*
X16805Y-28605D02*
X18624Y-28605D01*
X20086Y-28605D02*
X27227Y-28605D01*
X33660Y-28605D02*
X34445Y-28605D01*
X16805Y-28685D02*
X18737Y-28685D01*
X20053Y-28685D02*
X27147Y-28685D01*
X33660Y-28685D02*
X34445Y-28685D01*
X16805Y-28765D02*
X19097Y-28765D01*
X20133Y-28765D02*
X27067Y-28765D01*
X33660Y-28765D02*
X34445Y-28765D01*
X16805Y-28845D02*
X19177Y-28845D01*
X20213Y-28845D02*
X24476Y-28845D01*
X33660Y-28845D02*
X34445Y-28845D01*
X16805Y-28925D02*
X19257Y-28925D01*
X20293Y-28925D02*
X24307Y-28925D01*
X33660Y-28925D02*
X34445Y-28925D01*
X16805Y-29005D02*
X19337Y-29005D01*
X20373Y-29005D02*
X24227Y-29005D01*
X33660Y-29005D02*
X34445Y-29005D01*
X16805Y-29085D02*
X19417Y-29085D01*
X20453Y-29085D02*
X24147Y-29085D01*
X33660Y-29085D02*
X34445Y-29085D01*
X16805Y-29165D02*
X19497Y-29165D01*
X20533Y-29165D02*
X24067Y-29165D01*
X33660Y-29165D02*
X34445Y-29165D01*
X16805Y-29245D02*
X19577Y-29245D01*
X20613Y-29245D02*
X23987Y-29245D01*
X33660Y-29245D02*
X34445Y-29245D01*
X16805Y-29325D02*
X19657Y-29325D01*
X20693Y-29325D02*
X23907Y-29325D01*
X31492Y-29325D02*
X32251Y-29325D01*
X33660Y-29325D02*
X34445Y-29325D01*
X16805Y-29405D02*
X19737Y-29405D01*
X20773Y-29405D02*
X23827Y-29405D01*
X31412Y-29405D02*
X32278Y-29405D01*
X33660Y-29405D02*
X34445Y-29405D01*
X16805Y-29485D02*
X19817Y-29485D01*
X20853Y-29485D02*
X23747Y-29485D01*
X31332Y-29485D02*
X32377Y-29485D01*
X33660Y-29485D02*
X34445Y-29485D01*
X16805Y-29565D02*
X19897Y-29565D01*
X20933Y-29565D02*
X23667Y-29565D01*
X31252Y-29565D02*
X33140Y-29565D01*
X33660Y-29565D02*
X34445Y-29565D01*
X16805Y-29645D02*
X19977Y-29645D01*
X20987Y-29645D02*
X23587Y-29645D01*
X31172Y-29645D02*
X33140Y-29645D01*
X33660Y-29645D02*
X34445Y-29645D01*
X16805Y-29725D02*
X20057Y-29725D01*
X21005Y-29725D02*
X23527Y-29725D01*
X31092Y-29725D02*
X33140Y-29725D01*
X33660Y-29725D02*
X34445Y-29725D01*
X16805Y-29805D02*
X20137Y-29805D01*
X21010Y-29805D02*
X23499Y-29805D01*
X31012Y-29805D02*
X33140Y-29805D01*
X33660Y-29805D02*
X34445Y-29805D01*
X16805Y-29885D02*
X20140Y-29885D01*
X21010Y-29885D02*
X21034Y-29885D01*
X21466Y-29885D02*
X21534Y-29885D01*
X21966Y-29885D02*
X22034Y-29885D01*
X22466Y-29885D02*
X23034Y-29885D01*
X23466Y-29885D02*
X23490Y-29885D01*
X30932Y-29885D02*
X33140Y-29885D01*
X33660Y-29885D02*
X34445Y-29885D01*
X16805Y-29965D02*
X20140Y-29965D01*
X22531Y-29965D02*
X22971Y-29965D01*
X30852Y-29965D02*
X33140Y-29965D01*
X33660Y-29965D02*
X34445Y-29965D01*
X16805Y-30045D02*
X20140Y-30045D01*
X22549Y-30045D02*
X22951Y-30045D01*
X30724Y-30045D02*
X33140Y-30045D01*
X33660Y-30045D02*
X34445Y-30045D01*
X16805Y-30125D02*
X20140Y-30125D01*
X22549Y-30125D02*
X22951Y-30125D01*
X31156Y-30125D02*
X33140Y-30125D01*
X33660Y-30125D02*
X34445Y-30125D01*
X16805Y-30205D02*
X20140Y-30205D01*
X22549Y-30205D02*
X22951Y-30205D01*
X31212Y-30205D02*
X33140Y-30205D01*
X33660Y-30205D02*
X34445Y-30205D01*
X16805Y-30285D02*
X20140Y-30285D01*
X22549Y-30285D02*
X22951Y-30285D01*
X31224Y-30285D02*
X33097Y-30285D01*
X33660Y-30285D02*
X34445Y-30285D01*
X16805Y-30365D02*
X20140Y-30365D01*
X22549Y-30365D02*
X22951Y-30365D01*
X31224Y-30365D02*
X33017Y-30365D01*
X33657Y-30365D02*
X34445Y-30365D01*
X16805Y-30445D02*
X20140Y-30445D01*
X22549Y-30445D02*
X22951Y-30445D01*
X31239Y-30445D02*
X32937Y-30445D01*
X33641Y-30445D02*
X34445Y-30445D01*
X16805Y-30525D02*
X20140Y-30525D01*
X22549Y-30525D02*
X22951Y-30525D01*
X31244Y-30525D02*
X32857Y-30525D01*
X33590Y-30525D02*
X34445Y-30525D01*
X16805Y-30605D02*
X20140Y-30605D01*
X22542Y-30605D02*
X22957Y-30605D01*
X31228Y-30605D02*
X32777Y-30605D01*
X33513Y-30605D02*
X34445Y-30605D01*
X16805Y-30685D02*
X20140Y-30685D01*
X21994Y-30685D02*
X22004Y-30685D01*
X22496Y-30685D02*
X22965Y-30685D01*
X24494Y-30685D02*
X24504Y-30685D01*
X24994Y-30685D02*
X25004Y-30685D01*
X25494Y-30685D02*
X25504Y-30685D01*
X25994Y-30685D02*
X26004Y-30685D01*
X31224Y-30685D02*
X32697Y-30685D01*
X33433Y-30685D02*
X34445Y-30685D01*
X16805Y-30765D02*
X20140Y-30765D01*
X21510Y-30765D02*
X22965Y-30765D01*
X24166Y-30765D02*
X26066Y-30765D01*
X31224Y-30765D02*
X32617Y-30765D01*
X33353Y-30765D02*
X34445Y-30765D01*
X16805Y-30845D02*
X20149Y-30845D01*
X21510Y-30845D02*
X22965Y-30845D01*
X24246Y-30845D02*
X25986Y-30845D01*
X31185Y-30845D02*
X32223Y-30845D01*
X33273Y-30845D02*
X34445Y-30845D01*
X16805Y-30925D02*
X20176Y-30925D01*
X21494Y-30925D02*
X22965Y-30925D01*
X24288Y-30925D02*
X25584Y-30925D01*
X31256Y-30925D02*
X32145Y-30925D01*
X33193Y-30925D02*
X34445Y-30925D01*
X16805Y-31005D02*
X20237Y-31005D01*
X21453Y-31005D02*
X22975Y-31005D01*
X24321Y-31005D02*
X25419Y-31005D01*
X31279Y-31005D02*
X32121Y-31005D01*
X33113Y-31005D02*
X34445Y-31005D01*
X16805Y-31085D02*
X20317Y-31085D01*
X21382Y-31085D02*
X23004Y-31085D01*
X24325Y-31085D02*
X25339Y-31085D01*
X31279Y-31085D02*
X32121Y-31085D01*
X33033Y-31085D02*
X34445Y-31085D01*
X16805Y-31165D02*
X23061Y-31165D01*
X24325Y-31165D02*
X25275Y-31165D01*
X31279Y-31165D02*
X32121Y-31165D01*
X32953Y-31165D02*
X34445Y-31165D01*
X16805Y-31245D02*
X23076Y-31245D01*
X24300Y-31245D02*
X25241Y-31245D01*
X31279Y-31245D02*
X32121Y-31245D01*
X32879Y-31245D02*
X34445Y-31245D01*
X16805Y-31325D02*
X23076Y-31325D01*
X24266Y-31325D02*
X25208Y-31325D01*
X29293Y-31325D02*
X29757Y-31325D01*
X31279Y-31325D02*
X32121Y-31325D01*
X32879Y-31325D02*
X34445Y-31325D01*
X16805Y-31405D02*
X23092Y-31405D01*
X24196Y-31405D02*
X25201Y-31405D01*
X29299Y-31405D02*
X29837Y-31405D01*
X31279Y-31405D02*
X32121Y-31405D01*
X32879Y-31405D02*
X34445Y-31405D01*
X16805Y-31485D02*
X23154Y-31485D01*
X23645Y-31485D02*
X23719Y-31485D01*
X24081Y-31485D02*
X25201Y-31485D01*
X29299Y-31485D02*
X29917Y-31485D01*
X31251Y-31485D02*
X32148Y-31485D01*
X32851Y-31485D02*
X34445Y-31485D01*
X16805Y-31565D02*
X25203Y-31565D01*
X29296Y-31565D02*
X29940Y-31565D01*
X31153Y-31565D02*
X32247Y-31565D01*
X32753Y-31565D02*
X34445Y-31565D01*
X16805Y-31645D02*
X17537Y-31645D01*
X20403Y-31645D02*
X25236Y-31645D01*
X29263Y-31645D02*
X29940Y-31645D01*
X30828Y-31645D02*
X31873Y-31645D01*
X32427Y-31645D02*
X34445Y-31645D01*
X16805Y-31725D02*
X17537Y-31725D01*
X20403Y-31725D02*
X25270Y-31725D01*
X26229Y-31725D02*
X26269Y-31725D01*
X27229Y-31725D02*
X27270Y-31725D01*
X28229Y-31725D02*
X28270Y-31725D01*
X29229Y-31725D02*
X29940Y-31725D01*
X30906Y-31725D02*
X31795Y-31725D01*
X32506Y-31725D02*
X34445Y-31725D01*
X16805Y-31805D02*
X17537Y-31805D01*
X20403Y-31805D02*
X25329Y-31805D01*
X26171Y-31805D02*
X26329Y-31805D01*
X27171Y-31805D02*
X27329Y-31805D01*
X28171Y-31805D02*
X28329Y-31805D01*
X29171Y-31805D02*
X29940Y-31805D01*
X30929Y-31805D02*
X31771Y-31805D01*
X32529Y-31805D02*
X34445Y-31805D01*
X16805Y-31885D02*
X17537Y-31885D01*
X20403Y-31885D02*
X25409Y-31885D01*
X26091Y-31885D02*
X26409Y-31885D01*
X27091Y-31885D02*
X27409Y-31885D01*
X28091Y-31885D02*
X28409Y-31885D01*
X29091Y-31885D02*
X29940Y-31885D01*
X30929Y-31885D02*
X31771Y-31885D01*
X32529Y-31885D02*
X34445Y-31885D01*
X16805Y-31965D02*
X17537Y-31965D01*
X20403Y-31965D02*
X25559Y-31965D01*
X25940Y-31965D02*
X26559Y-31965D01*
X26940Y-31965D02*
X27559Y-31965D01*
X27940Y-31965D02*
X28559Y-31965D01*
X28940Y-31965D02*
X29940Y-31965D01*
X30929Y-31965D02*
X31771Y-31965D01*
X32529Y-31965D02*
X34445Y-31965D01*
X16805Y-32045D02*
X17537Y-32045D01*
X20403Y-32045D02*
X29940Y-32045D01*
X30929Y-32045D02*
X31737Y-32045D01*
X32529Y-32045D02*
X34445Y-32045D01*
X16805Y-32125D02*
X17537Y-32125D01*
X20403Y-32125D02*
X29940Y-32125D01*
X30929Y-32125D02*
X31657Y-32125D01*
X32529Y-32125D02*
X34445Y-32125D01*
X16805Y-32205D02*
X17537Y-32205D01*
X20403Y-32205D02*
X29941Y-32205D01*
X32529Y-32205D02*
X34445Y-32205D01*
X16805Y-32285D02*
X17537Y-32285D01*
X20403Y-32285D02*
X29957Y-32285D01*
X32501Y-32285D02*
X34445Y-32285D01*
X16805Y-32365D02*
X17537Y-32365D01*
X20403Y-32365D02*
X30003Y-32365D01*
X32403Y-32365D02*
X34445Y-32365D01*
X24907Y-25759D02*
X24907Y-25759D01*
X24827Y-25839D02*
X25563Y-25839D01*
X24747Y-25919D02*
X25643Y-25919D01*
X24667Y-25999D02*
X25771Y-25999D01*
X24587Y-26079D02*
X25753Y-26079D01*
X24507Y-26159D02*
X25673Y-26159D01*
X24427Y-26239D02*
X25593Y-26239D01*
X26736Y-23249D02*
X26751Y-23249D01*
X26673Y-23329D02*
X26751Y-23329D01*
X26640Y-23409D02*
X26751Y-23409D01*
X26674Y-23489D02*
X26751Y-23489D01*
X26674Y-23569D02*
X26751Y-23569D01*
X25174Y-23649D02*
X25326Y-23649D01*
X25774Y-23649D02*
X25826Y-23649D01*
X26674Y-23649D02*
X26751Y-23649D01*
X24682Y-23729D02*
X25826Y-23729D01*
X26674Y-23729D02*
X26751Y-23729D01*
X23370Y-23809D02*
X23378Y-23809D01*
X24622Y-23809D02*
X24860Y-23809D01*
X25340Y-23809D02*
X25826Y-23809D01*
X26674Y-23809D02*
X26751Y-23809D01*
X23002Y-23889D02*
X24796Y-23889D01*
X25405Y-23889D02*
X25858Y-23889D01*
X26642Y-23889D02*
X26751Y-23889D01*
X22977Y-23969D02*
X24776Y-23969D01*
X25424Y-23969D02*
X25973Y-23969D01*
X26526Y-23969D02*
X26751Y-23969D01*
X22918Y-24049D02*
X24776Y-24049D01*
X25424Y-24049D02*
X26751Y-24049D01*
X22838Y-24129D02*
X24776Y-24129D01*
X25424Y-24129D02*
X26767Y-24129D01*
X24640Y-24209D02*
X24776Y-24209D01*
X25424Y-24209D02*
X26828Y-24209D01*
X24690Y-24289D02*
X24776Y-24289D01*
X25424Y-24289D02*
X26851Y-24289D01*
X24699Y-24369D02*
X24776Y-24369D01*
X25700Y-24369D02*
X26851Y-24369D01*
X24699Y-24449D02*
X24776Y-24449D01*
X25759Y-24449D02*
X26851Y-24449D01*
X24699Y-24529D02*
X24802Y-24529D01*
X25774Y-24529D02*
X26851Y-24529D01*
X24699Y-24609D02*
X24840Y-24609D01*
X25774Y-24609D02*
X26851Y-24609D01*
X24699Y-24689D02*
X24840Y-24689D01*
X25774Y-24689D02*
X26851Y-24689D01*
X24699Y-24769D02*
X24763Y-24769D01*
X25774Y-24769D02*
X26888Y-24769D01*
X25774Y-24849D02*
X26933Y-24849D01*
X25797Y-24929D02*
X26853Y-24929D01*
X26249Y-25009D02*
X26773Y-25009D01*
X26365Y-25089D02*
X26693Y-25089D01*
X26445Y-25169D02*
X26631Y-25169D01*
X26490Y-25249D02*
X26601Y-25249D01*
X26524Y-25329D02*
X26590Y-25329D01*
X26549Y-25409D02*
X26590Y-25409D01*
X26549Y-25489D02*
X26590Y-25489D01*
X26549Y-25569D02*
X26590Y-25569D01*
X26531Y-25649D02*
X26533Y-25649D01*
X30257Y-22810D02*
X32376Y-22810D01*
X30971Y-22890D02*
X32386Y-22890D01*
X31033Y-22970D02*
X32439Y-22970D01*
X32961Y-22970D02*
X33039Y-22970D01*
X31049Y-23050D02*
X32391Y-23050D01*
X33010Y-23050D02*
X33390Y-23050D01*
X31049Y-23130D02*
X32376Y-23130D01*
X33024Y-23130D02*
X33390Y-23130D01*
X31049Y-23210D02*
X32376Y-23210D01*
X33024Y-23210D02*
X33390Y-23210D01*
X31049Y-23290D02*
X32376Y-23290D01*
X33024Y-23290D02*
X33390Y-23290D01*
X31049Y-23370D02*
X32376Y-23370D01*
X33024Y-23370D02*
X33390Y-23370D01*
X31049Y-23450D02*
X32376Y-23450D01*
X33024Y-23450D02*
X33390Y-23450D01*
X31049Y-23530D02*
X32376Y-23530D01*
X33024Y-23530D02*
X33390Y-23530D01*
X31049Y-23610D02*
X32376Y-23610D01*
X33024Y-23610D02*
X33390Y-23610D01*
X31049Y-23690D02*
X32409Y-23690D01*
X32991Y-23690D02*
X33390Y-23690D01*
X31049Y-23770D02*
X32525Y-23770D01*
X32873Y-23770D02*
X33390Y-23770D01*
X31131Y-23850D02*
X33390Y-23850D01*
X31187Y-23930D02*
X33390Y-23930D01*
X31199Y-24010D02*
X33390Y-24010D01*
X31199Y-24090D02*
X33390Y-24090D01*
X31199Y-24170D02*
X33390Y-24170D01*
X31199Y-24250D02*
X33390Y-24250D01*
X31199Y-24330D02*
X33390Y-24330D01*
X31199Y-24410D02*
X33390Y-24410D01*
X31199Y-24490D02*
X33390Y-24490D01*
X31199Y-24570D02*
X33390Y-24570D01*
X31199Y-24650D02*
X33390Y-24650D01*
X31199Y-24730D02*
X33390Y-24730D01*
X31199Y-24810D02*
X33322Y-24810D01*
X31199Y-24890D02*
X33242Y-24890D01*
X31199Y-24970D02*
X33162Y-24970D01*
X31481Y-25050D02*
X31624Y-25050D01*
X32077Y-25050D02*
X33082Y-25050D01*
X32206Y-25130D02*
X33002Y-25130D01*
X32286Y-25210D02*
X32309Y-25210D01*
X26531Y-25651D02*
X26590Y-25592D01*
X26590Y-25300D01*
X26610Y-25200D01*
X26666Y-25116D01*
X26955Y-24826D01*
X26937Y-24818D01*
X26881Y-24762D01*
X26851Y-24689D01*
X26851Y-24223D01*
X26837Y-24218D01*
X26781Y-24162D01*
X26751Y-24089D01*
X26751Y-23249D01*
X26736Y-23249D01*
X26702Y-23302D01*
X26699Y-23303D01*
X26617Y-23386D01*
X26644Y-23413D01*
X26674Y-23486D01*
X26674Y-23815D01*
X26643Y-23888D01*
X26587Y-23944D01*
X26514Y-23974D01*
X25985Y-23974D01*
X25912Y-23943D01*
X25856Y-23887D01*
X25826Y-23814D01*
X25826Y-23605D01*
X25787Y-23644D01*
X25714Y-23674D01*
X25385Y-23674D01*
X25312Y-23643D01*
X25256Y-23587D01*
X25249Y-23571D01*
X25243Y-23588D01*
X25187Y-23644D01*
X25114Y-23674D01*
X24856Y-23674D01*
X24800Y-23686D01*
X24699Y-23664D01*
X24699Y-23690D01*
X24668Y-23763D01*
X24612Y-23819D01*
X24539Y-23849D01*
X23460Y-23849D01*
X23387Y-23818D01*
X23374Y-23805D01*
X23362Y-23819D01*
X23289Y-23849D01*
X23010Y-23849D01*
X23010Y-23850D01*
X22990Y-23950D01*
X22934Y-24034D01*
X22816Y-24151D01*
X23290Y-24151D01*
X23363Y-24182D01*
X23374Y-24193D01*
X23388Y-24181D01*
X23461Y-24151D01*
X24540Y-24151D01*
X24613Y-24182D01*
X24669Y-24238D01*
X24699Y-24311D01*
X24699Y-24833D01*
X24840Y-24692D01*
X24840Y-24571D01*
X24806Y-24537D01*
X24776Y-24464D01*
X24776Y-23935D01*
X24807Y-23862D01*
X24863Y-23806D01*
X24936Y-23776D01*
X25265Y-23776D01*
X25338Y-23807D01*
X25394Y-23863D01*
X25424Y-23936D01*
X25424Y-24326D01*
X25615Y-24326D01*
X25688Y-24357D01*
X25744Y-24413D01*
X25774Y-24486D01*
X25774Y-24906D01*
X25839Y-24972D01*
X25891Y-24951D01*
X26109Y-24951D01*
X26311Y-25035D01*
X26465Y-25189D01*
X26549Y-25391D01*
X26549Y-25609D01*
X26531Y-25651D01*
X16805Y-21805D02*
X34445Y-21805D01*
X16805Y-21885D02*
X34445Y-21885D01*
X16805Y-21965D02*
X34445Y-21965D01*
X16805Y-22045D02*
X34445Y-22045D01*
X16805Y-22125D02*
X26044Y-22125D01*
X26956Y-22125D02*
X27344Y-22125D01*
X28256Y-22125D02*
X34445Y-22125D01*
X16805Y-22205D02*
X18824Y-22205D01*
X26997Y-22205D02*
X27304Y-22205D01*
X28297Y-22205D02*
X32466Y-22205D01*
X32934Y-22205D02*
X33066Y-22205D01*
X33534Y-22205D02*
X34445Y-22205D01*
X16805Y-22285D02*
X18721Y-22285D01*
X26999Y-22285D02*
X27301Y-22285D01*
X28299Y-22285D02*
X32398Y-22285D01*
X33604Y-22285D02*
X34445Y-22285D01*
X16805Y-22365D02*
X18641Y-22365D01*
X26999Y-22365D02*
X27301Y-22365D01*
X28299Y-22365D02*
X29968Y-22365D01*
X33624Y-22365D02*
X34445Y-22365D01*
X16805Y-22445D02*
X18561Y-22445D01*
X26999Y-22445D02*
X27301Y-22445D01*
X28299Y-22445D02*
X29887Y-22445D01*
X33713Y-22445D02*
X34445Y-22445D01*
X16805Y-22525D02*
X18481Y-22525D01*
X26999Y-22525D02*
X27301Y-22525D01*
X28299Y-22525D02*
X29807Y-22525D01*
X33793Y-22525D02*
X34445Y-22525D01*
X16805Y-22605D02*
X18419Y-22605D01*
X26999Y-22605D02*
X27301Y-22605D01*
X28299Y-22605D02*
X29727Y-22605D01*
X33860Y-22605D02*
X34445Y-22605D01*
X16805Y-22685D02*
X18374Y-22685D01*
X26999Y-22685D02*
X27301Y-22685D01*
X28299Y-22685D02*
X29654Y-22685D01*
X33897Y-22685D02*
X34445Y-22685D01*
X16805Y-22765D02*
X18358Y-22765D01*
X26999Y-22765D02*
X27267Y-22765D01*
X28299Y-22765D02*
X29607Y-22765D01*
X33909Y-22765D02*
X34445Y-22765D01*
X16805Y-22845D02*
X18350Y-22845D01*
X26999Y-22845D02*
X27186Y-22845D01*
X28299Y-22845D02*
X29591Y-22845D01*
X33909Y-22845D02*
X34445Y-22845D01*
X16805Y-22925D02*
X18350Y-22925D01*
X26999Y-22925D02*
X27107Y-22925D01*
X28299Y-22925D02*
X28794Y-22925D01*
X33909Y-22925D02*
X34445Y-22925D01*
X16805Y-23005D02*
X18350Y-23005D01*
X26999Y-23005D02*
X27040Y-23005D01*
X28299Y-23005D02*
X28754Y-23005D01*
X33909Y-23005D02*
X34445Y-23005D01*
X16805Y-23085D02*
X18350Y-23085D01*
X33909Y-23085D02*
X34445Y-23085D01*
X16805Y-23165D02*
X18350Y-23165D01*
X33909Y-23165D02*
X34445Y-23165D01*
X16805Y-23245D02*
X18350Y-23245D01*
X33909Y-23245D02*
X34445Y-23245D01*
X16805Y-23325D02*
X18350Y-23325D01*
X33909Y-23325D02*
X34445Y-23325D01*
X16805Y-23405D02*
X18350Y-23405D01*
X33909Y-23405D02*
X34445Y-23405D01*
X16805Y-23485D02*
X18350Y-23485D01*
X33909Y-23485D02*
X34445Y-23485D01*
X16805Y-23565D02*
X18350Y-23565D01*
X33909Y-23565D02*
X34445Y-23565D01*
X16805Y-23645D02*
X18350Y-23645D01*
X33909Y-23645D02*
X34445Y-23645D01*
X16805Y-23725D02*
X18350Y-23725D01*
X33909Y-23725D02*
X34445Y-23725D01*
X16805Y-23805D02*
X18351Y-23805D01*
X33909Y-23805D02*
X34445Y-23805D01*
X16805Y-23885D02*
X18367Y-23885D01*
X33909Y-23885D02*
X34445Y-23885D01*
X16805Y-23965D02*
X18397Y-23965D01*
X33909Y-23965D02*
X34445Y-23965D01*
X16805Y-24045D02*
X18451Y-24045D01*
X33909Y-24045D02*
X34445Y-24045D01*
X16805Y-24125D02*
X18530Y-24125D01*
X33909Y-24125D02*
X34445Y-24125D01*
X16805Y-24205D02*
X18610Y-24205D01*
X33909Y-24205D02*
X34445Y-24205D01*
X16805Y-24285D02*
X18690Y-24285D01*
X19880Y-24285D02*
X20812Y-24285D01*
X33909Y-24285D02*
X34445Y-24285D01*
X16805Y-24365D02*
X18770Y-24365D01*
X19966Y-24365D02*
X20801Y-24365D01*
X33909Y-24365D02*
X34445Y-24365D01*
X16805Y-24445D02*
X18850Y-24445D01*
X20026Y-24445D02*
X20801Y-24445D01*
X33909Y-24445D02*
X34445Y-24445D01*
X16805Y-24525D02*
X18930Y-24525D01*
X20059Y-24525D02*
X20801Y-24525D01*
X33909Y-24525D02*
X34445Y-24525D01*
X16805Y-24605D02*
X19010Y-24605D01*
X20075Y-24605D02*
X20801Y-24605D01*
X33909Y-24605D02*
X34445Y-24605D01*
X16805Y-24685D02*
X19090Y-24685D01*
X20075Y-24685D02*
X20801Y-24685D01*
X33909Y-24685D02*
X34445Y-24685D01*
X16805Y-24765D02*
X19170Y-24765D01*
X20062Y-24765D02*
X20801Y-24765D01*
X33909Y-24765D02*
X34445Y-24765D01*
X16805Y-24845D02*
X19250Y-24845D01*
X20029Y-24845D02*
X20801Y-24845D01*
X33909Y-24845D02*
X34445Y-24845D01*
X16805Y-24925D02*
X19324Y-24925D01*
X19976Y-24925D02*
X20815Y-24925D01*
X33894Y-24925D02*
X34445Y-24925D01*
X16805Y-25005D02*
X19404Y-25005D01*
X19896Y-25005D02*
X20874Y-25005D01*
X33853Y-25005D02*
X34445Y-25005D01*
X16805Y-25085D02*
X21240Y-25085D01*
X33782Y-25085D02*
X34445Y-25085D01*
X16805Y-25165D02*
X21240Y-25165D01*
X33702Y-25165D02*
X34445Y-25165D01*
X16805Y-25245D02*
X21240Y-25245D01*
X33622Y-25245D02*
X34445Y-25245D01*
X16805Y-25325D02*
X21240Y-25325D01*
X33542Y-25325D02*
X34445Y-25325D01*
X16805Y-25405D02*
X21227Y-25405D01*
X34034Y-25405D02*
X34445Y-25405D01*
X16805Y-25485D02*
X21147Y-25485D01*
X34104Y-25485D02*
X34445Y-25485D01*
X16805Y-25565D02*
X21067Y-25565D01*
X34124Y-25565D02*
X34445Y-25565D01*
X16805Y-25645D02*
X20524Y-25645D01*
X34124Y-25645D02*
X34445Y-25645D01*
X16805Y-25725D02*
X20481Y-25725D01*
X34124Y-25725D02*
X34445Y-25725D01*
X16805Y-25805D02*
X20476Y-25805D01*
X34124Y-25805D02*
X34445Y-25805D01*
X16805Y-25885D02*
X20476Y-25885D01*
X34115Y-25885D02*
X34445Y-25885D01*
X16805Y-25965D02*
X20476Y-25965D01*
X34066Y-25965D02*
X34445Y-25965D01*
X16805Y-26045D02*
X19324Y-26045D01*
X19876Y-26045D02*
X20466Y-26045D01*
X33425Y-26045D02*
X34445Y-26045D01*
X16805Y-26125D02*
X19281Y-26125D01*
X19920Y-26125D02*
X20465Y-26125D01*
X33347Y-26125D02*
X34445Y-26125D01*
X16805Y-26205D02*
X19276Y-26205D01*
X19924Y-26205D02*
X20465Y-26205D01*
X32610Y-26205D02*
X34445Y-26205D01*
X16805Y-26285D02*
X19274Y-26285D01*
X19980Y-26285D02*
X20465Y-26285D01*
X32610Y-26285D02*
X34445Y-26285D01*
X16805Y-26365D02*
X19258Y-26365D01*
X20039Y-26365D02*
X20465Y-26365D01*
X23531Y-26365D02*
X23970Y-26365D01*
X33308Y-26365D02*
X34445Y-26365D01*
X16805Y-26445D02*
X19259Y-26445D01*
X20079Y-26445D02*
X20451Y-26445D01*
X23549Y-26445D02*
X23951Y-26445D01*
X33413Y-26445D02*
X34445Y-26445D01*
X16805Y-26525D02*
X19275Y-26525D01*
X20095Y-26525D02*
X20451Y-26525D01*
X23549Y-26525D02*
X23951Y-26525D01*
X33493Y-26525D02*
X34445Y-26525D01*
X16805Y-26605D02*
X19276Y-26605D01*
X20100Y-26605D02*
X20451Y-26605D01*
X23549Y-26605D02*
X23951Y-26605D01*
X33573Y-26605D02*
X34445Y-26605D01*
X16805Y-26685D02*
X19284Y-26685D01*
X20100Y-26685D02*
X20451Y-26685D01*
X23549Y-26685D02*
X23951Y-26685D01*
X33630Y-26685D02*
X34445Y-26685D01*
X16805Y-26765D02*
X19334Y-26765D01*
X20100Y-26765D02*
X20451Y-26765D01*
X23549Y-26765D02*
X23951Y-26765D01*
X33653Y-26765D02*
X34445Y-26765D01*
X16805Y-26845D02*
X19400Y-26845D01*
X20100Y-26845D02*
X20451Y-26845D01*
X23549Y-26845D02*
X23951Y-26845D01*
X33660Y-26845D02*
X34445Y-26845D01*
X16805Y-26925D02*
X19384Y-26925D01*
X20116Y-26925D02*
X20451Y-26925D01*
X23549Y-26925D02*
X23951Y-26925D01*
X33660Y-26925D02*
X34445Y-26925D01*
X16805Y-27005D02*
X19320Y-27005D01*
X20181Y-27005D02*
X20457Y-27005D01*
X23542Y-27005D02*
X23957Y-27005D01*
X33660Y-27005D02*
X34445Y-27005D01*
X16805Y-27085D02*
X19287Y-27085D01*
X20214Y-27085D02*
X20504Y-27085D01*
X20994Y-27085D02*
X21004Y-27085D01*
X21494Y-27085D02*
X21504Y-27085D01*
X21994Y-27085D02*
X22004Y-27085D01*
X22494Y-27085D02*
X22504Y-27085D01*
X22994Y-27085D02*
X23004Y-27085D01*
X23496Y-27085D02*
X23990Y-27085D01*
X33660Y-27085D02*
X34445Y-27085D01*
X16805Y-27165D02*
X19256Y-27165D01*
X20244Y-27165D02*
X23990Y-27165D01*
X33660Y-27165D02*
X34445Y-27165D01*
X16805Y-27245D02*
X19256Y-27245D01*
X20244Y-27245D02*
X23990Y-27245D01*
X33660Y-27245D02*
X34445Y-27245D01*
X16805Y-27325D02*
X19256Y-27325D01*
X20244Y-27325D02*
X23990Y-27325D01*
X33660Y-27325D02*
X34445Y-27325D01*
X16805Y-27405D02*
X19276Y-27405D01*
X20224Y-27405D02*
X23990Y-27405D01*
X33660Y-27405D02*
X34445Y-27405D01*
X16805Y-27485D02*
X19309Y-27485D01*
X20190Y-27485D02*
X23990Y-27485D01*
X33660Y-27485D02*
X34445Y-27485D01*
X16805Y-27565D02*
X19358Y-27565D01*
X20142Y-27565D02*
X23990Y-27565D01*
X33660Y-27565D02*
X34445Y-27565D01*
X16805Y-27645D02*
X19438Y-27645D01*
X20062Y-27645D02*
X23990Y-27645D01*
X33660Y-27645D02*
X34445Y-27645D01*
X16805Y-27725D02*
X19585Y-27725D01*
X19912Y-27725D02*
X23990Y-27725D01*
X33660Y-27725D02*
X34445Y-27725D01*
X16805Y-27805D02*
X18724Y-27805D01*
X19197Y-27805D02*
X19514Y-27805D01*
X19987Y-27805D02*
X23990Y-27805D01*
X33660Y-27805D02*
X34445Y-27805D01*
X16805Y-27885D02*
X18618Y-27885D01*
X19302Y-27885D02*
X19407Y-27885D01*
X20092Y-27885D02*
X23990Y-27885D01*
X33660Y-27885D02*
X34445Y-27885D01*
X16805Y-27965D02*
X18540Y-27965D01*
X20171Y-27965D02*
X23993Y-27965D01*
X33660Y-27965D02*
X34445Y-27965D01*
X16805Y-28045D02*
X18507Y-28045D01*
X20204Y-28045D02*
X24009Y-28045D01*
X33660Y-28045D02*
X34445Y-28045D01*
X16805Y-28125D02*
X18474Y-28125D01*
X20237Y-28125D02*
X24060Y-28125D01*
X33660Y-28125D02*
X34445Y-28125D01*
X16805Y-28205D02*
X18466Y-28205D01*
X20244Y-28205D02*
X24137Y-28205D01*
X33660Y-28205D02*
X34445Y-28205D01*
X16805Y-28285D02*
X18466Y-28285D01*
X20244Y-28285D02*
X24217Y-28285D01*
X33660Y-28285D02*
X34445Y-28285D01*
X16805Y-28365D02*
X18476Y-28365D01*
X20234Y-28365D02*
X24297Y-28365D01*
X33660Y-28365D02*
X34445Y-28365D01*
X16805Y-28445D02*
X18509Y-28445D01*
X20200Y-28445D02*
X24425Y-28445D01*
X33660Y-28445D02*
X34445Y-28445D01*
X16805Y-28525D02*
X18544Y-28525D01*
X20166Y-28525D02*
X27240Y-28525D01*
X33660Y-28525D02*
X34445Y-28525D01*
X16805Y-28605D02*
X18624Y-28605D01*
X20086Y-28605D02*
X27227Y-28605D01*
X33660Y-28605D02*
X34445Y-28605D01*
X16805Y-28685D02*
X18737Y-28685D01*
X20053Y-28685D02*
X27147Y-28685D01*
X33660Y-28685D02*
X34445Y-28685D01*
X16805Y-28765D02*
X19097Y-28765D01*
X20133Y-28765D02*
X27067Y-28765D01*
X33660Y-28765D02*
X34445Y-28765D01*
X16805Y-28845D02*
X19177Y-28845D01*
X20213Y-28845D02*
X24476Y-28845D01*
X33660Y-28845D02*
X34445Y-28845D01*
X16805Y-28925D02*
X19257Y-28925D01*
X20293Y-28925D02*
X24307Y-28925D01*
X33660Y-28925D02*
X34445Y-28925D01*
X16805Y-29005D02*
X19337Y-29005D01*
X20373Y-29005D02*
X24227Y-29005D01*
X33660Y-29005D02*
X34445Y-29005D01*
X16805Y-29085D02*
X19417Y-29085D01*
X20453Y-29085D02*
X24147Y-29085D01*
X33660Y-29085D02*
X34445Y-29085D01*
X16805Y-29165D02*
X19497Y-29165D01*
X20533Y-29165D02*
X24067Y-29165D01*
X33660Y-29165D02*
X34445Y-29165D01*
X16805Y-29245D02*
X19577Y-29245D01*
X20613Y-29245D02*
X23987Y-29245D01*
X33660Y-29245D02*
X34445Y-29245D01*
X16805Y-29325D02*
X19657Y-29325D01*
X20693Y-29325D02*
X23907Y-29325D01*
X31492Y-29325D02*
X32251Y-29325D01*
X33660Y-29325D02*
X34445Y-29325D01*
X16805Y-29405D02*
X19737Y-29405D01*
X20773Y-29405D02*
X23827Y-29405D01*
X31412Y-29405D02*
X32278Y-29405D01*
X33660Y-29405D02*
X34445Y-29405D01*
X16805Y-29485D02*
X19817Y-29485D01*
X20853Y-29485D02*
X23747Y-29485D01*
X31332Y-29485D02*
X32377Y-29485D01*
X33660Y-29485D02*
X34445Y-29485D01*
X16805Y-29565D02*
X19897Y-29565D01*
X20933Y-29565D02*
X23667Y-29565D01*
X31252Y-29565D02*
X33140Y-29565D01*
X33660Y-29565D02*
X34445Y-29565D01*
X16805Y-29645D02*
X19977Y-29645D01*
X20987Y-29645D02*
X23587Y-29645D01*
X31172Y-29645D02*
X33140Y-29645D01*
X33660Y-29645D02*
X34445Y-29645D01*
X16805Y-29725D02*
X20057Y-29725D01*
X21005Y-29725D02*
X23527Y-29725D01*
X31092Y-29725D02*
X33140Y-29725D01*
X33660Y-29725D02*
X34445Y-29725D01*
X16805Y-29805D02*
X20137Y-29805D01*
X21010Y-29805D02*
X23499Y-29805D01*
X31012Y-29805D02*
X33140Y-29805D01*
X33660Y-29805D02*
X34445Y-29805D01*
X16805Y-29885D02*
X20140Y-29885D01*
X21010Y-29885D02*
X21034Y-29885D01*
X21466Y-29885D02*
X21534Y-29885D01*
X21966Y-29885D02*
X22034Y-29885D01*
X22466Y-29885D02*
X23034Y-29885D01*
X23466Y-29885D02*
X23490Y-29885D01*
X30932Y-29885D02*
X33140Y-29885D01*
X33660Y-29885D02*
X34445Y-29885D01*
X16805Y-29965D02*
X20140Y-29965D01*
X22531Y-29965D02*
X22971Y-29965D01*
X30852Y-29965D02*
X33140Y-29965D01*
X33660Y-29965D02*
X34445Y-29965D01*
X16805Y-30045D02*
X20140Y-30045D01*
X22549Y-30045D02*
X22951Y-30045D01*
X30724Y-30045D02*
X33140Y-30045D01*
X33660Y-30045D02*
X34445Y-30045D01*
X16805Y-30125D02*
X20140Y-30125D01*
X22549Y-30125D02*
X22951Y-30125D01*
X31156Y-30125D02*
X33140Y-30125D01*
X33660Y-30125D02*
X34445Y-30125D01*
X16805Y-30205D02*
X20140Y-30205D01*
X22549Y-30205D02*
X22951Y-30205D01*
X31212Y-30205D02*
X33140Y-30205D01*
X33660Y-30205D02*
X34445Y-30205D01*
X16805Y-30285D02*
X20140Y-30285D01*
X22549Y-30285D02*
X22951Y-30285D01*
X31224Y-30285D02*
X33097Y-30285D01*
X33660Y-30285D02*
X34445Y-30285D01*
X16805Y-30365D02*
X20140Y-30365D01*
X22549Y-30365D02*
X22951Y-30365D01*
X31224Y-30365D02*
X33017Y-30365D01*
X33657Y-30365D02*
X34445Y-30365D01*
X16805Y-30445D02*
X20140Y-30445D01*
X22549Y-30445D02*
X22951Y-30445D01*
X31239Y-30445D02*
X32937Y-30445D01*
X33641Y-30445D02*
X34445Y-30445D01*
X16805Y-30525D02*
X20140Y-30525D01*
X22549Y-30525D02*
X22951Y-30525D01*
X31244Y-30525D02*
X32857Y-30525D01*
X33590Y-30525D02*
X34445Y-30525D01*
X16805Y-30605D02*
X20140Y-30605D01*
X22542Y-30605D02*
X22957Y-30605D01*
X31228Y-30605D02*
X32777Y-30605D01*
X33513Y-30605D02*
X34445Y-30605D01*
X16805Y-30685D02*
X20140Y-30685D01*
X21994Y-30685D02*
X22004Y-30685D01*
X22496Y-30685D02*
X22965Y-30685D01*
X24494Y-30685D02*
X24504Y-30685D01*
X24994Y-30685D02*
X25004Y-30685D01*
X25494Y-30685D02*
X25504Y-30685D01*
X25994Y-30685D02*
X26004Y-30685D01*
X31224Y-30685D02*
X32697Y-30685D01*
X33433Y-30685D02*
X34445Y-30685D01*
X16805Y-30765D02*
X20140Y-30765D01*
X21510Y-30765D02*
X22965Y-30765D01*
X24166Y-30765D02*
X26066Y-30765D01*
X31224Y-30765D02*
X32617Y-30765D01*
X33353Y-30765D02*
X34445Y-30765D01*
X16805Y-30845D02*
X20149Y-30845D01*
X21510Y-30845D02*
X22965Y-30845D01*
X24246Y-30845D02*
X25986Y-30845D01*
X31185Y-30845D02*
X32223Y-30845D01*
X33273Y-30845D02*
X34445Y-30845D01*
X16805Y-30925D02*
X20176Y-30925D01*
X21494Y-30925D02*
X22965Y-30925D01*
X24288Y-30925D02*
X25584Y-30925D01*
X31256Y-30925D02*
X32145Y-30925D01*
X33193Y-30925D02*
X34445Y-30925D01*
X16805Y-31005D02*
X20237Y-31005D01*
X21453Y-31005D02*
X22975Y-31005D01*
X24321Y-31005D02*
X25419Y-31005D01*
X31279Y-31005D02*
X32121Y-31005D01*
X33113Y-31005D02*
X34445Y-31005D01*
X16805Y-31085D02*
X20317Y-31085D01*
X21382Y-31085D02*
X23004Y-31085D01*
X24325Y-31085D02*
X25339Y-31085D01*
X31279Y-31085D02*
X32121Y-31085D01*
X33033Y-31085D02*
X34445Y-31085D01*
X16805Y-31165D02*
X23061Y-31165D01*
X24325Y-31165D02*
X25275Y-31165D01*
X31279Y-31165D02*
X32121Y-31165D01*
X32953Y-31165D02*
X34445Y-31165D01*
X16805Y-31245D02*
X23076Y-31245D01*
X24300Y-31245D02*
X25241Y-31245D01*
X31279Y-31245D02*
X32121Y-31245D01*
X32879Y-31245D02*
X34445Y-31245D01*
X16805Y-31325D02*
X23076Y-31325D01*
X24266Y-31325D02*
X25208Y-31325D01*
X29293Y-31325D02*
X29757Y-31325D01*
X31279Y-31325D02*
X32121Y-31325D01*
X32879Y-31325D02*
X34445Y-31325D01*
X16805Y-31405D02*
X23092Y-31405D01*
X24196Y-31405D02*
X25201Y-31405D01*
X29299Y-31405D02*
X29837Y-31405D01*
X31279Y-31405D02*
X32121Y-31405D01*
X32879Y-31405D02*
X34445Y-31405D01*
X16805Y-31485D02*
X23154Y-31485D01*
X23645Y-31485D02*
X23719Y-31485D01*
X24081Y-31485D02*
X25201Y-31485D01*
X29299Y-31485D02*
X29917Y-31485D01*
X31251Y-31485D02*
X32148Y-31485D01*
X32851Y-31485D02*
X34445Y-31485D01*
X16805Y-31565D02*
X25203Y-31565D01*
X29296Y-31565D02*
X29940Y-31565D01*
X31153Y-31565D02*
X32247Y-31565D01*
X32753Y-31565D02*
X34445Y-31565D01*
X16805Y-31645D02*
X17537Y-31645D01*
X20403Y-31645D02*
X25236Y-31645D01*
X29263Y-31645D02*
X29940Y-31645D01*
X30828Y-31645D02*
X31873Y-31645D01*
X32427Y-31645D02*
X34445Y-31645D01*
X16805Y-31725D02*
X17537Y-31725D01*
X20403Y-31725D02*
X25270Y-31725D01*
X26229Y-31725D02*
X26269Y-31725D01*
X27229Y-31725D02*
X27270Y-31725D01*
X28229Y-31725D02*
X28270Y-31725D01*
X29229Y-31725D02*
X29940Y-31725D01*
X30906Y-31725D02*
X31795Y-31725D01*
X32506Y-31725D02*
X34445Y-31725D01*
X16805Y-31805D02*
X17537Y-31805D01*
X20403Y-31805D02*
X25329Y-31805D01*
X26171Y-31805D02*
X26329Y-31805D01*
X27171Y-31805D02*
X27329Y-31805D01*
X28171Y-31805D02*
X28329Y-31805D01*
X29171Y-31805D02*
X29940Y-31805D01*
X30929Y-31805D02*
X31771Y-31805D01*
X32529Y-31805D02*
X34445Y-31805D01*
X16805Y-31885D02*
X17537Y-31885D01*
X20403Y-31885D02*
X25409Y-31885D01*
X26091Y-31885D02*
X26409Y-31885D01*
X27091Y-31885D02*
X27409Y-31885D01*
X28091Y-31885D02*
X28409Y-31885D01*
X29091Y-31885D02*
X29940Y-31885D01*
X30929Y-31885D02*
X31771Y-31885D01*
X32529Y-31885D02*
X34445Y-31885D01*
X16805Y-31965D02*
X17537Y-31965D01*
X20403Y-31965D02*
X25559Y-31965D01*
X25940Y-31965D02*
X26559Y-31965D01*
X26940Y-31965D02*
X27559Y-31965D01*
X27940Y-31965D02*
X28559Y-31965D01*
X28940Y-31965D02*
X29940Y-31965D01*
X30929Y-31965D02*
X31771Y-31965D01*
X32529Y-31965D02*
X34445Y-31965D01*
X16805Y-32045D02*
X17537Y-32045D01*
X20403Y-32045D02*
X29940Y-32045D01*
X30929Y-32045D02*
X31737Y-32045D01*
X32529Y-32045D02*
X34445Y-32045D01*
X16805Y-32125D02*
X17537Y-32125D01*
X20403Y-32125D02*
X29940Y-32125D01*
X30929Y-32125D02*
X31657Y-32125D01*
X32529Y-32125D02*
X34445Y-32125D01*
X16805Y-32205D02*
X17537Y-32205D01*
X20403Y-32205D02*
X29941Y-32205D01*
X32529Y-32205D02*
X34445Y-32205D01*
X16805Y-32285D02*
X17537Y-32285D01*
X20403Y-32285D02*
X29957Y-32285D01*
X32501Y-32285D02*
X34445Y-32285D01*
X16805Y-32365D02*
X17537Y-32365D01*
X20403Y-32365D02*
X30003Y-32365D01*
X32403Y-32365D02*
X34445Y-32365D01*
X24907Y-25759D02*
X24907Y-25759D01*
X24827Y-25839D02*
X25563Y-25839D01*
X24747Y-25919D02*
X25643Y-25919D01*
X24667Y-25999D02*
X25771Y-25999D01*
X24587Y-26079D02*
X25753Y-26079D01*
X24507Y-26159D02*
X25673Y-26159D01*
X24427Y-26239D02*
X25593Y-26239D01*
X26736Y-23249D02*
X26751Y-23249D01*
X26673Y-23329D02*
X26751Y-23329D01*
X26640Y-23409D02*
X26751Y-23409D01*
X26674Y-23489D02*
X26751Y-23489D01*
X26674Y-23569D02*
X26751Y-23569D01*
X25174Y-23649D02*
X25326Y-23649D01*
X25774Y-23649D02*
X25826Y-23649D01*
X26674Y-23649D02*
X26751Y-23649D01*
X24682Y-23729D02*
X25826Y-23729D01*
X26674Y-23729D02*
X26751Y-23729D01*
X23370Y-23809D02*
X23378Y-23809D01*
X24622Y-23809D02*
X24860Y-23809D01*
X25340Y-23809D02*
X25826Y-23809D01*
X26674Y-23809D02*
X26751Y-23809D01*
X23002Y-23889D02*
X24796Y-23889D01*
X25405Y-23889D02*
X25858Y-23889D01*
X26642Y-23889D02*
X26751Y-23889D01*
X22977Y-23969D02*
X24776Y-23969D01*
X25424Y-23969D02*
X25973Y-23969D01*
X26526Y-23969D02*
X26751Y-23969D01*
X22918Y-24049D02*
X24776Y-24049D01*
X25424Y-24049D02*
X26751Y-24049D01*
X22838Y-24129D02*
X24776Y-24129D01*
X25424Y-24129D02*
X26767Y-24129D01*
X24640Y-24209D02*
X24776Y-24209D01*
X25424Y-24209D02*
X26828Y-24209D01*
X24690Y-24289D02*
X24776Y-24289D01*
X25424Y-24289D02*
X26851Y-24289D01*
X24699Y-24369D02*
X24776Y-24369D01*
X25700Y-24369D02*
X26851Y-24369D01*
X24699Y-24449D02*
X24776Y-24449D01*
X25759Y-24449D02*
X26851Y-24449D01*
X24699Y-24529D02*
X24802Y-24529D01*
X25774Y-24529D02*
X26851Y-24529D01*
X24699Y-24609D02*
X24840Y-24609D01*
X25774Y-24609D02*
X26851Y-24609D01*
X24699Y-24689D02*
X24840Y-24689D01*
X25774Y-24689D02*
X26851Y-24689D01*
X24699Y-24769D02*
X24763Y-24769D01*
X25774Y-24769D02*
X26888Y-24769D01*
X25774Y-24849D02*
X26933Y-24849D01*
X25797Y-24929D02*
X26853Y-24929D01*
X26249Y-25009D02*
X26773Y-25009D01*
X26365Y-25089D02*
X26693Y-25089D01*
X26445Y-25169D02*
X26631Y-25169D01*
X26490Y-25249D02*
X26601Y-25249D01*
X26524Y-25329D02*
X26590Y-25329D01*
X26549Y-25409D02*
X26590Y-25409D01*
X26549Y-25489D02*
X26590Y-25489D01*
X26549Y-25569D02*
X26590Y-25569D01*
X26531Y-25649D02*
X26533Y-25649D01*
X30257Y-22810D02*
X32376Y-22810D01*
X30971Y-22890D02*
X32386Y-22890D01*
X31033Y-22970D02*
X32439Y-22970D01*
X32961Y-22970D02*
X33039Y-22970D01*
X31049Y-23050D02*
X32391Y-23050D01*
X33010Y-23050D02*
X33390Y-23050D01*
X31049Y-23130D02*
X32376Y-23130D01*
X33024Y-23130D02*
X33390Y-23130D01*
X31049Y-23210D02*
X32376Y-23210D01*
X33024Y-23210D02*
X33390Y-23210D01*
X31049Y-23290D02*
X32376Y-23290D01*
X33024Y-23290D02*
X33390Y-23290D01*
X31049Y-23370D02*
X32376Y-23370D01*
X33024Y-23370D02*
X33390Y-23370D01*
X31049Y-23450D02*
X32376Y-23450D01*
X33024Y-23450D02*
X33390Y-23450D01*
X31049Y-23530D02*
X32376Y-23530D01*
X33024Y-23530D02*
X33390Y-23530D01*
X31049Y-23610D02*
X32376Y-23610D01*
X33024Y-23610D02*
X33390Y-23610D01*
X31049Y-23690D02*
X32409Y-23690D01*
X32991Y-23690D02*
X33390Y-23690D01*
X31049Y-23770D02*
X32525Y-23770D01*
X32873Y-23770D02*
X33390Y-23770D01*
X31131Y-23850D02*
X33390Y-23850D01*
X31187Y-23930D02*
X33390Y-23930D01*
X31199Y-24010D02*
X33390Y-24010D01*
X31199Y-24090D02*
X33390Y-24090D01*
X31199Y-24170D02*
X33390Y-24170D01*
X31199Y-24250D02*
X33390Y-24250D01*
X31199Y-24330D02*
X33390Y-24330D01*
X31199Y-24410D02*
X33390Y-24410D01*
X31199Y-24490D02*
X33390Y-24490D01*
X31199Y-24570D02*
X33390Y-24570D01*
X31199Y-24650D02*
X33390Y-24650D01*
X31199Y-24730D02*
X33390Y-24730D01*
X31199Y-24810D02*
X33322Y-24810D01*
X31199Y-24890D02*
X33242Y-24890D01*
X31199Y-24970D02*
X33162Y-24970D01*
X31481Y-25050D02*
X31624Y-25050D01*
X32077Y-25050D02*
X33082Y-25050D01*
X32206Y-25130D02*
X33002Y-25130D01*
X32286Y-25210D02*
X32309Y-25210D01*
X32297Y-25221D02*
X32338Y-25181D01*
X32411Y-25151D01*
X32981Y-25151D01*
X33390Y-24742D01*
X33390Y-23024D01*
X33135Y-23024D01*
X33062Y-22993D01*
X33006Y-22937D01*
X32999Y-22921D01*
X32993Y-22938D01*
X32960Y-22971D01*
X32960Y-22979D01*
X32994Y-23013D01*
X33024Y-23086D01*
X33024Y-23615D01*
X32993Y-23688D01*
X32937Y-23744D01*
X32864Y-23774D01*
X32535Y-23774D01*
X32462Y-23743D01*
X32406Y-23687D01*
X32376Y-23614D01*
X32376Y-23085D01*
X32407Y-23012D01*
X32440Y-22979D01*
X32440Y-22971D01*
X32406Y-22937D01*
X32376Y-22864D01*
X32376Y-22810D01*
X30257Y-22810D01*
X30216Y-22851D01*
X30890Y-22851D01*
X30963Y-22882D01*
X31019Y-22938D01*
X31049Y-23011D01*
X31049Y-23804D01*
X31113Y-23832D01*
X31169Y-23888D01*
X31199Y-23961D01*
X31199Y-25001D01*
X31390Y-25001D01*
X31463Y-25032D01*
X31519Y-25088D01*
X31523Y-25100D01*
X31539Y-25085D01*
X31741Y-25001D01*
X31959Y-25001D01*
X32161Y-25085D01*
X32297Y-25221D01*
M02*
