M48
;DRILL file {PCBNEW (2007-07-09)} date 15/8/2008-09:14:47
;FORMAT={2:4 / absolute / inches / decimal format}
R,T
VER,1
FMAT,2
INCH,TZ
TCST,OFF
ICI,OFF
ATC,ON
T1C0.030
T2C0.032
T3C0.035
T4C0.039
T5C0.091
%
M47
G05
M72
T1
X3.350Y-2.775
X3.650Y-2.775
X3.975Y-2.350
X3.975Y-2.675
T2
X3.725Y-3.150
X3.650Y-3.075
X3.725Y-3.000
X4.175Y-3.425
X4.100Y-3.500
X4.025Y-3.425
X3.775Y-3.400
X3.700Y-3.475
X3.625Y-3.400
X3.125Y-2.750
X3.025Y-2.750
X2.925Y-2.750
X2.825Y-2.750
X2.725Y-2.750
X2.625Y-2.750
X2.525Y-2.750
X2.425Y-2.750
X2.325Y-2.750
X2.225Y-2.750
X2.125Y-2.750
X2.025Y-2.750
X1.925Y-2.750
X3.225Y-2.750
X1.925Y-3.050
X2.025Y-3.050
X2.125Y-3.050
X2.225Y-3.050
X2.325Y-3.050
X2.425Y-3.050
X2.525Y-3.050
X2.625Y-3.050
X2.725Y-3.050
X2.825Y-3.050
X2.925Y-3.050
X3.025Y-3.050
X3.125Y-3.050
X3.225Y-3.050
X3.750Y-2.700
X3.750Y-2.800
X3.125Y-2.500
X3.125Y-2.600
X2.925Y-2.500
X2.925Y-2.600
X2.450Y-2.550
X2.650Y-2.550
X2.900Y-3.275
X3.000Y-3.275
X3.100Y-3.275
X3.200Y-3.275
X3.300Y-3.275
X4.225Y-2.850
X4.225Y-2.750
X4.225Y-2.650
X4.225Y-2.550
X4.225Y-2.450
X2.450Y-2.375
X2.350Y-2.375
X2.550Y-2.375
X2.650Y-2.375
T3
X1.700Y-2.974
X1.621Y-2.974
X1.621Y-2.876
X1.700Y-2.876
T4
X3.327Y-2.600
X3.623Y-2.600
X3.524Y-2.600
X3.248Y-3.425
X2.952Y-3.425
X3.051Y-3.425
X1.823Y-3.400
X1.527Y-3.400
X1.626Y-3.400
X2.148Y-3.225
X1.853Y-3.225
X1.952Y-3.225
X4.173Y-2.225
X3.877Y-2.225
X3.976Y-2.225
X1.702Y-2.600
X1.998Y-2.600
X1.899Y-2.600
X2.775Y-2.375
X3.175Y-2.375
X2.900Y-2.250
X3.300Y-2.250
X3.300Y-2.375
X3.700Y-2.375
X4.275Y-3.300
X3.875Y-3.300
X2.175Y-2.325
X2.175Y-2.434
X1.875Y-2.375
X1.984Y-2.375
X1.675Y-2.325
X1.675Y-2.434
X4.100Y-2.850
X4.100Y-2.450
X3.850Y-2.975
X3.850Y-2.575
X4.275Y-3.150
X3.875Y-3.150
X2.375Y-3.450
X2.775Y-3.450
X3.400Y-3.025
X3.400Y-3.425
X2.750Y-3.275
X2.350Y-3.275
X2.975Y-3.175
X2.575Y-3.175
X2.750Y-2.225
X2.350Y-2.225
X1.950Y-2.200
X1.550Y-2.200
X1.375Y-2.600
X1.375Y-2.200
X3.475Y-2.900
X3.475Y-3.300
T5
X1.515Y-2.689
X1.515Y-3.162
T0
M30
