M48
;DRILL file {PCBnew (20080825c)} date 19/10/2009-07:21:51
;FORMAT={-.-/ absolute / inch / decimal}
R,T
VER,1
FMAT,2
INCH,TZ
TCST,OFF
ICI,OFF
ATC,ON
T1C0.030
T2C0.032
T3C0.035
T4C0.039
T5C0.091
%
M47
G05
M72
T1
X2.305Y-3.305
X2.305Y-3.460
X3.085Y-2.165
X3.490Y-3.295
X3.675Y-3.245
X3.760Y-2.110
X3.890Y-3.490
X3.900Y-2.910
X4.295Y-3.195
X4.365Y-2.800
T2
X1.925Y-2.750
X1.925Y-3.050
X2.025Y-2.750
X2.025Y-3.050
X2.125Y-2.750
X2.125Y-3.050
X2.225Y-2.750
X2.225Y-3.050
X2.325Y-2.750
X2.325Y-3.050
X2.350Y-2.375
X2.425Y-2.750
X2.425Y-3.050
X2.450Y-2.375
X2.450Y-2.550
X2.525Y-2.750
X2.525Y-3.050
X2.550Y-2.375
X2.625Y-2.750
X2.625Y-3.050
X2.650Y-2.375
X2.650Y-2.550
X2.725Y-2.750
X2.725Y-3.050
X2.825Y-2.750
X2.825Y-3.050
X2.925Y-2.500
X2.925Y-2.600
X2.925Y-2.750
X2.925Y-3.050
X3.025Y-2.750
X3.025Y-3.050
X3.070Y-3.200
X3.125Y-2.500
X3.125Y-2.600
X3.125Y-2.750
X3.125Y-3.050
X3.170Y-3.200
X3.225Y-2.750
X3.225Y-3.050
X3.270Y-3.200
X3.370Y-3.200
X3.470Y-3.200
X3.665Y-3.585
X3.680Y-3.345
X3.740Y-3.660
X3.755Y-2.360
X3.755Y-2.460
X3.755Y-3.270
X3.755Y-3.420
X3.815Y-3.585
X4.175Y-2.910
X4.250Y-2.835
X4.250Y-2.985
X4.310Y-2.275
X4.310Y-2.375
X4.310Y-2.475
X4.310Y-2.575
X4.310Y-2.675
X4.430Y-3.505
X4.505Y-3.430
X4.505Y-3.580
T3
X1.621Y-2.876
X1.621Y-2.974
X1.700Y-2.876
X1.700Y-2.974
T4
X1.375Y-2.200
X1.375Y-2.600
X1.527Y-3.400
X1.550Y-2.200
X1.626Y-3.400
X1.675Y-2.325
X1.675Y-2.434
X1.702Y-2.600
X1.823Y-3.400
X1.853Y-3.225
X1.875Y-2.375
X1.899Y-2.600
X1.950Y-2.200
X1.952Y-3.225
X1.984Y-2.375
X1.998Y-2.600
X2.148Y-3.225
X2.175Y-2.325
X2.175Y-2.434
X2.350Y-2.225
X2.465Y-3.190
X2.465Y-3.590
X2.585Y-2.130
X2.585Y-3.190
X2.585Y-3.590
X2.705Y-3.185
X2.705Y-3.585
X2.750Y-2.225
X2.825Y-3.185
X2.825Y-3.585
X2.885Y-2.250
X2.950Y-3.185
X2.950Y-3.585
X2.985Y-2.130
X3.127Y-3.340
X3.226Y-3.340
X3.267Y-2.400
X3.285Y-2.250
X3.400Y-2.955
X3.400Y-3.075
X3.405Y-2.585
X3.405Y-2.710
X3.405Y-2.840
X3.423Y-3.340
X3.430Y-2.245
X3.464Y-2.400
X3.563Y-2.400
X3.800Y-2.955
X3.800Y-3.075
X3.805Y-2.585
X3.805Y-2.710
X3.805Y-2.840
X3.830Y-2.245
X3.940Y-2.235
X3.940Y-2.635
X3.975Y-3.695
X3.982Y-2.125
X4.010Y-2.860
X4.010Y-3.260
X4.081Y-2.125
X4.090Y-2.305
X4.090Y-2.705
X4.110Y-3.260
X4.195Y-2.270
X4.195Y-2.670
X4.278Y-2.125
X4.375Y-3.695
X4.415Y-2.665
X4.415Y-3.065
X4.510Y-3.260
T5
X1.515Y-2.689
X1.515Y-3.162
T0
M30
