G04 (Genere par PCBNEW (2007-11-29-c)) le 18/4/2009-09:47:27*
G01*
G70*
G90*
%MOIN*%
G04 Gerber Fmt 3.4, Leading zero omitted, Abs format*
%FSLAX34Y34*%
G04 APERTURE LIST*
%ADD10C,0.001000*%
%ADD11R,0.070000X0.070000*%
%ADD12C,0.070000*%
%ADD13C,0.169300*%
%ADD14C,0.059100*%
%ADD15C,0.045000*%
%ADD16C,0.030000*%
%ADD17C,0.012000*%
%ADD18C,0.005000*%
%ADD19C,0.006000*%
%ADD20R,0.025000X0.045000*%
%ADD21R,0.045000X0.025000*%
%ADD22R,0.100000X0.050000*%
%ADD23R,0.050000X0.100000*%
%ADD24R,0.020000X0.050000*%
%ADD25R,0.036000X0.036000*%
%ADD26R,0.080000X0.060000*%
%ADD27R,0.060000X0.080000*%
%ADD28C,0.017000*%
%ADD29C,0.010000*%
%ADD30C,0.008000*%
%ADD31C,0.015000*%
G04 APERTURE END LIST*
G54D10*
X16650Y-21650D02*
X34600Y-21650D01*
X16650Y-32600D02*
X16650Y-21650D01*
X34600Y-32600D02*
X16650Y-32600D01*
X34600Y-21650D02*
X34600Y-32600D01*
G54D11*
X31850Y-29550D03*
G54D12*
X31850Y-28550D03*
X31850Y-27550D03*
X31850Y-26550D03*
X31850Y-25550D03*
G54D11*
X24750Y-31450D03*
G54D12*
X25750Y-31450D03*
X26750Y-31450D03*
X27750Y-31450D03*
X28750Y-31450D03*
X24000Y-25500D03*
X26000Y-25500D03*
G54D13*
X17898Y-30114D03*
X17898Y-25382D03*
G54D14*
X19750Y-27258D03*
X18960Y-27258D03*
X18960Y-28242D03*
X19750Y-28242D03*
G54D15*
X17000Y-22000D03*
X17000Y-24500D03*
X17000Y-23500D03*
X17000Y-31000D03*
X34000Y-32000D03*
X34000Y-22000D03*
X34000Y-25000D03*
X34000Y-23500D03*
X32500Y-22000D03*
X31000Y-22000D03*
X29500Y-22000D03*
X17000Y-27000D03*
X17000Y-28500D03*
X22000Y-32000D03*
X26750Y-24750D03*
X31950Y-23600D03*
X33450Y-31800D03*
X23500Y-28500D03*
X22500Y-28000D03*
X21000Y-28000D03*
X21000Y-29000D03*
X21500Y-29500D03*
X23000Y-32000D03*
X32000Y-30500D03*
X23900Y-31100D03*
X29800Y-27400D03*
X29800Y-30250D03*
X19650Y-24650D03*
X26800Y-27400D03*
X30600Y-31000D03*
X30600Y-28100D03*
G54D16*
X17000Y-24500D02*
X17000Y-23500D01*
X34000Y-31000D02*
X34000Y-30500D01*
X34000Y-30500D02*
X34000Y-32000D01*
X34000Y-22000D02*
X34000Y-23500D01*
X32500Y-22000D02*
X31000Y-22000D01*
X19830Y-23450D02*
X17898Y-25382D01*
X26750Y-24750D02*
X25450Y-23450D01*
X25450Y-23450D02*
X19830Y-23450D01*
X30800Y-24750D02*
X26750Y-24750D01*
X31950Y-23600D02*
X30800Y-24750D01*
X31950Y-23600D02*
X31950Y-23600D01*
X31950Y-23550D02*
X31950Y-23600D01*
X32950Y-24550D02*
X31950Y-23550D01*
X32950Y-31300D02*
X32950Y-24550D01*
X33450Y-31800D02*
X32950Y-31300D01*
X23500Y-28500D02*
X23000Y-28000D01*
X23000Y-28000D02*
X22500Y-28000D01*
X21000Y-28000D02*
X21000Y-29000D01*
X31850Y-29550D02*
X31850Y-30350D01*
X31850Y-30350D02*
X32000Y-30500D01*
X27750Y-30950D02*
X27750Y-31450D01*
X27600Y-30800D02*
X27750Y-30950D01*
X24200Y-30800D02*
X25650Y-30800D01*
X25650Y-30800D02*
X26900Y-30800D01*
X26900Y-30800D02*
X27600Y-30800D01*
X23900Y-31100D02*
X24200Y-30800D01*
X29800Y-27400D02*
X29800Y-30450D01*
X29800Y-30250D02*
X29800Y-30450D01*
X19650Y-24650D02*
X19750Y-24750D01*
X19750Y-24750D02*
X19750Y-27258D01*
X29800Y-27400D02*
X28750Y-27400D01*
X28750Y-27400D02*
X28200Y-26850D01*
X28200Y-26850D02*
X26250Y-26850D01*
X20158Y-26850D02*
X19750Y-27258D01*
X26250Y-26850D02*
X20158Y-26850D01*
X26900Y-30800D02*
X26500Y-30400D01*
X26250Y-27550D02*
X26250Y-26850D01*
X26500Y-27800D02*
X26250Y-27550D01*
X26500Y-30400D02*
X26500Y-27800D01*
G54D17*
X27800Y-30500D02*
X28750Y-31450D01*
X27100Y-30500D02*
X27800Y-30500D01*
X26800Y-30200D02*
X27100Y-30500D01*
X26800Y-27400D02*
X26800Y-30200D01*
X30500Y-30900D02*
X30600Y-31000D01*
X30400Y-30900D02*
X30500Y-30900D01*
X30200Y-30700D02*
X30400Y-30900D01*
X30200Y-28500D02*
X30200Y-30700D01*
X30600Y-28100D02*
X30200Y-28500D01*
G54D18*
X34550Y-21700D02*
X34550Y-32550D01*
X34500Y-21700D02*
X34500Y-32550D01*
X34450Y-21700D02*
X34450Y-32550D01*
X34400Y-21700D02*
X34400Y-32550D01*
X34350Y-21700D02*
X34350Y-32550D01*
X34300Y-21700D02*
X34300Y-32550D01*
X34250Y-21700D02*
X34250Y-32550D01*
X34200Y-21700D02*
X34200Y-32550D01*
X34150Y-21700D02*
X34150Y-32550D01*
X34100Y-21700D02*
X34100Y-32550D01*
X34050Y-21700D02*
X34050Y-32550D01*
X34000Y-21700D02*
X34000Y-32550D01*
X33950Y-21700D02*
X33950Y-32550D01*
X33900Y-21700D02*
X33900Y-32550D01*
X33850Y-21700D02*
X33850Y-32550D01*
X33800Y-21700D02*
X33800Y-32550D01*
X33750Y-21700D02*
X33750Y-32550D01*
X33700Y-21700D02*
X33700Y-32550D01*
X33650Y-21700D02*
X33650Y-32550D01*
X33600Y-21700D02*
X33600Y-32550D01*
X33550Y-21700D02*
X33550Y-32550D01*
X33500Y-21700D02*
X33500Y-32550D01*
X33450Y-21700D02*
X33450Y-32550D01*
X33400Y-21700D02*
X33400Y-32550D01*
X33350Y-21700D02*
X33350Y-32550D01*
X33300Y-21700D02*
X33300Y-32550D01*
X33250Y-21700D02*
X33250Y-32550D01*
X33200Y-21700D02*
X33200Y-32550D01*
X33150Y-21700D02*
X33150Y-32550D01*
X33100Y-21700D02*
X33100Y-32550D01*
X33050Y-21700D02*
X33050Y-32550D01*
X33000Y-21700D02*
X33000Y-32550D01*
X32950Y-21700D02*
X32950Y-32550D01*
X32900Y-21700D02*
X32900Y-32550D01*
X32850Y-21700D02*
X32850Y-32550D01*
X32800Y-21700D02*
X32800Y-32550D01*
X32750Y-21700D02*
X32750Y-32550D01*
X32700Y-21700D02*
X32700Y-32550D01*
X32650Y-21700D02*
X32650Y-32550D01*
X32600Y-21700D02*
X32600Y-32550D01*
X32550Y-21700D02*
X32550Y-32550D01*
X32500Y-21700D02*
X32500Y-32550D01*
X32450Y-21700D02*
X32450Y-32550D01*
X32400Y-21700D02*
X32400Y-32550D01*
X32350Y-28800D02*
X32350Y-32550D01*
X32350Y-27800D02*
X32350Y-28300D01*
X32350Y-26800D02*
X32350Y-27300D01*
X32350Y-25800D02*
X32350Y-26300D01*
X32350Y-21700D02*
X32350Y-25300D01*
X32300Y-28900D02*
X32300Y-32550D01*
X32300Y-27900D02*
X32300Y-28200D01*
X32300Y-26900D02*
X32300Y-27200D01*
X32300Y-25900D02*
X32300Y-26200D01*
X32300Y-21700D02*
X32300Y-25200D01*
X32250Y-28950D02*
X32250Y-32550D01*
X32250Y-27950D02*
X32250Y-28150D01*
X32250Y-26950D02*
X32250Y-27150D01*
X32250Y-25950D02*
X32250Y-26150D01*
X32250Y-21700D02*
X32250Y-25150D01*
X32200Y-29000D02*
X32200Y-32550D01*
X32200Y-28000D02*
X32200Y-28100D01*
X32200Y-27000D02*
X32200Y-27100D01*
X32200Y-26000D02*
X32200Y-26100D01*
X32200Y-21700D02*
X32200Y-25100D01*
X32150Y-29050D02*
X32150Y-32550D01*
X32150Y-21700D02*
X32150Y-25050D01*
X32100Y-29050D02*
X32100Y-32550D01*
X32100Y-21700D02*
X32100Y-25050D01*
X32050Y-29100D02*
X32050Y-32550D01*
X32050Y-21700D02*
X32050Y-25000D01*
X32000Y-29100D02*
X32000Y-32550D01*
X32000Y-21700D02*
X32000Y-25000D01*
X31950Y-29100D02*
X31950Y-32550D01*
X31950Y-21700D02*
X31950Y-25000D01*
X31900Y-29100D02*
X31900Y-32550D01*
X31900Y-21700D02*
X31900Y-25000D01*
X31850Y-29100D02*
X31850Y-32550D01*
X31850Y-21700D02*
X31850Y-25000D01*
X31800Y-29100D02*
X31800Y-32550D01*
X31800Y-21700D02*
X31800Y-25000D01*
X31750Y-29100D02*
X31750Y-32550D01*
X31750Y-21700D02*
X31750Y-25000D01*
X31700Y-29100D02*
X31700Y-32550D01*
X31700Y-21700D02*
X31700Y-25000D01*
X31650Y-29100D02*
X31650Y-32550D01*
X31650Y-21700D02*
X31650Y-25000D01*
X31600Y-29050D02*
X31600Y-32550D01*
X31600Y-21700D02*
X31600Y-25050D01*
X31550Y-29050D02*
X31550Y-32550D01*
X31550Y-21700D02*
X31550Y-25050D01*
X31500Y-29000D02*
X31500Y-32550D01*
X31500Y-28000D02*
X31500Y-28100D01*
X31500Y-27000D02*
X31500Y-27100D01*
X31500Y-26000D02*
X31500Y-26100D01*
X31500Y-21700D02*
X31500Y-25100D01*
X31450Y-28950D02*
X31450Y-32550D01*
X31450Y-27950D02*
X31450Y-28150D01*
X31450Y-26950D02*
X31450Y-27150D01*
X31450Y-25950D02*
X31450Y-26150D01*
X31450Y-21700D02*
X31450Y-25150D01*
X31400Y-28900D02*
X31400Y-32550D01*
X31400Y-27900D02*
X31400Y-28200D01*
X31400Y-26900D02*
X31400Y-27200D01*
X31400Y-25900D02*
X31400Y-26200D01*
X31400Y-21700D02*
X31400Y-25200D01*
X31350Y-28800D02*
X31350Y-32550D01*
X31350Y-27800D02*
X31350Y-28300D01*
X31350Y-26800D02*
X31350Y-27300D01*
X31350Y-25800D02*
X31350Y-26300D01*
X31350Y-21700D02*
X31350Y-25300D01*
X31300Y-21700D02*
X31300Y-32550D01*
X31250Y-21700D02*
X31250Y-32550D01*
X31200Y-21700D02*
X31200Y-32550D01*
X31150Y-21700D02*
X31150Y-32550D01*
X31100Y-21700D02*
X31100Y-32550D01*
X31050Y-21700D02*
X31050Y-32550D01*
X31000Y-31150D02*
X31000Y-32550D01*
X31000Y-28250D02*
X31000Y-30850D01*
X31000Y-21700D02*
X31000Y-27950D01*
X30950Y-31250D02*
X30950Y-32550D01*
X30950Y-28350D02*
X30950Y-30750D01*
X30950Y-21700D02*
X30950Y-27850D01*
X30900Y-31350D02*
X30900Y-32550D01*
X30900Y-28450D02*
X30900Y-30650D01*
X30900Y-21700D02*
X30900Y-27750D01*
X30850Y-31350D02*
X30850Y-32550D01*
X30850Y-28450D02*
X30850Y-30650D01*
X30850Y-21700D02*
X30850Y-27750D01*
X30800Y-31400D02*
X30800Y-32550D01*
X30800Y-28500D02*
X30800Y-30600D01*
X30800Y-21700D02*
X30800Y-27700D01*
X30750Y-31400D02*
X30750Y-32550D01*
X30750Y-28500D02*
X30750Y-30600D01*
X30750Y-21700D02*
X30750Y-27700D01*
X30700Y-31450D02*
X30700Y-32550D01*
X30700Y-28550D02*
X30700Y-30550D01*
X30700Y-21700D02*
X30700Y-27650D01*
X30650Y-31450D02*
X30650Y-32550D01*
X30650Y-28550D02*
X30650Y-30550D01*
X30650Y-21700D02*
X30650Y-27650D01*
X30600Y-31450D02*
X30600Y-32550D01*
X30600Y-28550D02*
X30600Y-30550D01*
X30600Y-21700D02*
X30600Y-27650D01*
X30550Y-31450D02*
X30550Y-32550D01*
X30550Y-28550D02*
X30550Y-30550D01*
X30550Y-21700D02*
X30550Y-27650D01*
X30500Y-31450D02*
X30500Y-32550D01*
X30500Y-28600D02*
X30500Y-30550D01*
X30500Y-21700D02*
X30500Y-27650D01*
X30450Y-31400D02*
X30450Y-32550D01*
X30450Y-21700D02*
X30450Y-27700D01*
X30400Y-31400D02*
X30400Y-32550D01*
X30400Y-21700D02*
X30400Y-27700D01*
X30350Y-31350D02*
X30350Y-32550D01*
X30350Y-21700D02*
X30350Y-27750D01*
X30300Y-31350D02*
X30300Y-32550D01*
X30300Y-21700D02*
X30300Y-27750D01*
X30250Y-31250D02*
X30250Y-32550D01*
X30250Y-21700D02*
X30250Y-27850D01*
X30200Y-31150D02*
X30200Y-32550D01*
X30200Y-27550D02*
X30200Y-27950D01*
X30200Y-21700D02*
X30200Y-27250D01*
X30150Y-31050D02*
X30150Y-32550D01*
X30150Y-21700D02*
X30150Y-27150D01*
X30100Y-31000D02*
X30100Y-32550D01*
X30100Y-21700D02*
X30100Y-27050D01*
X30050Y-30950D02*
X30050Y-32550D01*
X30050Y-21700D02*
X30050Y-27050D01*
X30000Y-30900D02*
X30000Y-32550D01*
X30000Y-21700D02*
X30000Y-27000D01*
X29950Y-30800D02*
X29950Y-32550D01*
X29950Y-21700D02*
X29950Y-27000D01*
X29900Y-30800D02*
X29900Y-32550D01*
X29900Y-21700D02*
X29900Y-26950D01*
X29850Y-30800D02*
X29850Y-32550D01*
X29850Y-21700D02*
X29850Y-26950D01*
X29800Y-30850D02*
X29800Y-32550D01*
X29800Y-21700D02*
X29800Y-26950D01*
X29750Y-30800D02*
X29750Y-32550D01*
X29750Y-21700D02*
X29750Y-26950D01*
X29700Y-30800D02*
X29700Y-32550D01*
X29700Y-21700D02*
X29700Y-26950D01*
X29650Y-30800D02*
X29650Y-32550D01*
X29650Y-21700D02*
X29650Y-27000D01*
X29600Y-30750D02*
X29600Y-32550D01*
X29600Y-21700D02*
X29600Y-27000D01*
X29550Y-30700D02*
X29550Y-32550D01*
X29550Y-21700D02*
X29550Y-27000D01*
X29500Y-30650D02*
X29500Y-32550D01*
X29500Y-21700D02*
X29500Y-27000D01*
X29450Y-30500D02*
X29450Y-32550D01*
X29450Y-21700D02*
X29450Y-27000D01*
X29400Y-30400D02*
X29400Y-32550D01*
X29400Y-27800D02*
X29400Y-30100D01*
X29400Y-21700D02*
X29400Y-27000D01*
X29350Y-27800D02*
X29350Y-32550D01*
X29350Y-21700D02*
X29350Y-27000D01*
X29300Y-27800D02*
X29300Y-32550D01*
X29300Y-21700D02*
X29300Y-27000D01*
X29250Y-31700D02*
X29250Y-32550D01*
X29250Y-27800D02*
X29250Y-31200D01*
X29250Y-21700D02*
X29250Y-27000D01*
X29200Y-31800D02*
X29200Y-32550D01*
X29200Y-27800D02*
X29200Y-31100D01*
X29200Y-21700D02*
X29200Y-27000D01*
X29150Y-31850D02*
X29150Y-32550D01*
X29150Y-27800D02*
X29150Y-31050D01*
X29150Y-21700D02*
X29150Y-27000D01*
X29100Y-31900D02*
X29100Y-32550D01*
X29100Y-27800D02*
X29100Y-31000D01*
X29100Y-21700D02*
X29100Y-27000D01*
X29050Y-31950D02*
X29050Y-32550D01*
X29050Y-27800D02*
X29050Y-30950D01*
X29050Y-21700D02*
X29050Y-27000D01*
X29000Y-31950D02*
X29000Y-32550D01*
X29000Y-27800D02*
X29000Y-30950D01*
X29000Y-21700D02*
X29000Y-27000D01*
X28950Y-32000D02*
X28950Y-32550D01*
X28950Y-27800D02*
X28950Y-30900D01*
X28950Y-21700D02*
X28950Y-27000D01*
X28900Y-32000D02*
X28900Y-32550D01*
X28900Y-27800D02*
X28900Y-30900D01*
X28900Y-21700D02*
X28900Y-27000D01*
X28850Y-32000D02*
X28850Y-32550D01*
X28850Y-27800D02*
X28850Y-30900D01*
X28850Y-21700D02*
X28850Y-27000D01*
X28800Y-32000D02*
X28800Y-32550D01*
X28800Y-27800D02*
X28800Y-30900D01*
X28800Y-21700D02*
X28800Y-26950D01*
X28750Y-32000D02*
X28750Y-32550D01*
X28750Y-27800D02*
X28750Y-30900D01*
X28750Y-21700D02*
X28750Y-26900D01*
X28700Y-32000D02*
X28700Y-32550D01*
X28700Y-27750D02*
X28700Y-30900D01*
X28700Y-21700D02*
X28700Y-26850D01*
X28650Y-32000D02*
X28650Y-32550D01*
X28650Y-27750D02*
X28650Y-30900D01*
X28650Y-21700D02*
X28650Y-26800D01*
X28600Y-32000D02*
X28600Y-32550D01*
X28600Y-27750D02*
X28600Y-30900D01*
X28600Y-21700D02*
X28600Y-26750D01*
X28550Y-32000D02*
X28550Y-32550D01*
X28550Y-27700D02*
X28550Y-30850D01*
X28550Y-21700D02*
X28550Y-26700D01*
X28500Y-31950D02*
X28500Y-32550D01*
X28500Y-27650D02*
X28500Y-30800D01*
X28500Y-21700D02*
X28500Y-26650D01*
X28450Y-31950D02*
X28450Y-32550D01*
X28450Y-27600D02*
X28450Y-30750D01*
X28450Y-21700D02*
X28450Y-26600D01*
X28400Y-31900D02*
X28400Y-32550D01*
X28400Y-27550D02*
X28400Y-30700D01*
X28400Y-21700D02*
X28400Y-26550D01*
X28350Y-31850D02*
X28350Y-32550D01*
X28350Y-27500D02*
X28350Y-30650D01*
X28350Y-21700D02*
X28350Y-26500D01*
X28300Y-31800D02*
X28300Y-32550D01*
X28300Y-27450D02*
X28300Y-30600D01*
X28300Y-21700D02*
X28300Y-26500D01*
X28250Y-31700D02*
X28250Y-32550D01*
X28250Y-27400D02*
X28250Y-30550D01*
X28250Y-21700D02*
X28250Y-26500D01*
X28200Y-31800D02*
X28200Y-32550D01*
X28200Y-27350D02*
X28200Y-30500D01*
X28200Y-21700D02*
X28200Y-26450D01*
X28150Y-31850D02*
X28150Y-32550D01*
X28150Y-27300D02*
X28150Y-30450D01*
X28150Y-21700D02*
X28150Y-26450D01*
X28100Y-31900D02*
X28100Y-32550D01*
X28100Y-27250D02*
X28100Y-30400D01*
X28100Y-21700D02*
X28100Y-26450D01*
X28050Y-31950D02*
X28050Y-32550D01*
X28050Y-27250D02*
X28050Y-30350D01*
X28050Y-21700D02*
X28050Y-26450D01*
X28000Y-31950D02*
X28000Y-32550D01*
X28000Y-27250D02*
X28000Y-30300D01*
X28000Y-21700D02*
X28000Y-26450D01*
X27950Y-32000D02*
X27950Y-32550D01*
X27950Y-27250D02*
X27950Y-30250D01*
X27950Y-21700D02*
X27950Y-26450D01*
X27900Y-32000D02*
X27900Y-32550D01*
X27900Y-27250D02*
X27900Y-30250D01*
X27900Y-21700D02*
X27900Y-26450D01*
X27850Y-32000D02*
X27850Y-32550D01*
X27850Y-27250D02*
X27850Y-30200D01*
X27850Y-21700D02*
X27850Y-26450D01*
X27800Y-32000D02*
X27800Y-32550D01*
X27800Y-27250D02*
X27800Y-30200D01*
X27800Y-21700D02*
X27800Y-26450D01*
X27750Y-32000D02*
X27750Y-32550D01*
X27750Y-27250D02*
X27750Y-30200D01*
X27750Y-21700D02*
X27750Y-26450D01*
X27700Y-32000D02*
X27700Y-32550D01*
X27700Y-27250D02*
X27700Y-30200D01*
X27700Y-21700D02*
X27700Y-26450D01*
X27650Y-32000D02*
X27650Y-32550D01*
X27650Y-27250D02*
X27650Y-30200D01*
X27650Y-21700D02*
X27650Y-26450D01*
X27600Y-32000D02*
X27600Y-32550D01*
X27600Y-27250D02*
X27600Y-30200D01*
X27600Y-21700D02*
X27600Y-26450D01*
X27550Y-32000D02*
X27550Y-32550D01*
X27550Y-27250D02*
X27550Y-30200D01*
X27550Y-21700D02*
X27550Y-26450D01*
X27500Y-31950D02*
X27500Y-32550D01*
X27500Y-27250D02*
X27500Y-30200D01*
X27500Y-21700D02*
X27500Y-26450D01*
X27450Y-31950D02*
X27450Y-32550D01*
X27450Y-27250D02*
X27450Y-30200D01*
X27450Y-21700D02*
X27450Y-26450D01*
X27400Y-31900D02*
X27400Y-32550D01*
X27400Y-27250D02*
X27400Y-30200D01*
X27400Y-21700D02*
X27400Y-26450D01*
X27350Y-31850D02*
X27350Y-32550D01*
X27350Y-27250D02*
X27350Y-30200D01*
X27350Y-21700D02*
X27350Y-26450D01*
X27300Y-31800D02*
X27300Y-32550D01*
X27300Y-27250D02*
X27300Y-30200D01*
X27300Y-21700D02*
X27300Y-26450D01*
X27250Y-31700D02*
X27250Y-32550D01*
X27250Y-27250D02*
X27250Y-30200D01*
X27250Y-21700D02*
X27250Y-26450D01*
X27200Y-31800D02*
X27200Y-32550D01*
X27200Y-27550D02*
X27200Y-30200D01*
X27200Y-21700D02*
X27200Y-26450D01*
X27150Y-31850D02*
X27150Y-32550D01*
X27150Y-27650D02*
X27150Y-30150D01*
X27150Y-21700D02*
X27150Y-26450D01*
X27100Y-31900D02*
X27100Y-32550D01*
X27100Y-27750D02*
X27100Y-30100D01*
X27100Y-21700D02*
X27100Y-26450D01*
X27050Y-31950D02*
X27050Y-32550D01*
X27050Y-21700D02*
X27050Y-26450D01*
X27000Y-31950D02*
X27000Y-32550D01*
X27000Y-21700D02*
X27000Y-26450D01*
X26950Y-32000D02*
X26950Y-32550D01*
X26950Y-21700D02*
X26950Y-26450D01*
X26900Y-32000D02*
X26900Y-32550D01*
X26900Y-21700D02*
X26900Y-26450D01*
X26850Y-32000D02*
X26850Y-32550D01*
X26850Y-21700D02*
X26850Y-26450D01*
X26800Y-32000D02*
X26800Y-32550D01*
X26800Y-21700D02*
X26800Y-26450D01*
X26750Y-32000D02*
X26750Y-32550D01*
X26750Y-21700D02*
X26750Y-26450D01*
X26700Y-32000D02*
X26700Y-32550D01*
X26700Y-21700D02*
X26700Y-26450D01*
X26650Y-32000D02*
X26650Y-32550D01*
X26650Y-21700D02*
X26650Y-26450D01*
X26600Y-32000D02*
X26600Y-32550D01*
X26600Y-21700D02*
X26600Y-26450D01*
X26550Y-32000D02*
X26550Y-32550D01*
X26550Y-21700D02*
X26550Y-26450D01*
X26500Y-31950D02*
X26500Y-32550D01*
X26500Y-25750D02*
X26500Y-26450D01*
X26500Y-21700D02*
X26500Y-25250D01*
X26450Y-31950D02*
X26450Y-32550D01*
X26450Y-25850D02*
X26450Y-26450D01*
X26450Y-21700D02*
X26450Y-25150D01*
X26400Y-31900D02*
X26400Y-32550D01*
X26400Y-25900D02*
X26400Y-26450D01*
X26400Y-21700D02*
X26400Y-25100D01*
X26350Y-31850D02*
X26350Y-32550D01*
X26350Y-25950D02*
X26350Y-26450D01*
X26350Y-21700D02*
X26350Y-25050D01*
X26300Y-31800D02*
X26300Y-32550D01*
X26300Y-26000D02*
X26300Y-26450D01*
X26300Y-21700D02*
X26300Y-25000D01*
X26250Y-31700D02*
X26250Y-32550D01*
X26250Y-26000D02*
X26250Y-26450D01*
X26250Y-21700D02*
X26250Y-25000D01*
X26200Y-31800D02*
X26200Y-32550D01*
X26200Y-26050D02*
X26200Y-26450D01*
X26200Y-21700D02*
X26200Y-24950D01*
X26150Y-31850D02*
X26150Y-32550D01*
X26150Y-26050D02*
X26150Y-26450D01*
X26150Y-21700D02*
X26150Y-24950D01*
X26100Y-31900D02*
X26100Y-32550D01*
X26100Y-27900D02*
X26100Y-30400D01*
X26100Y-26050D02*
X26100Y-26450D01*
X26100Y-21700D02*
X26100Y-24950D01*
X26050Y-31950D02*
X26050Y-32550D01*
X26050Y-27850D02*
X26050Y-30400D01*
X26050Y-26050D02*
X26050Y-26450D01*
X26050Y-21700D02*
X26050Y-24950D01*
X26000Y-31950D02*
X26000Y-32550D01*
X26000Y-27800D02*
X26000Y-30400D01*
X26000Y-26050D02*
X26000Y-26450D01*
X26000Y-21700D02*
X26000Y-24950D01*
X25950Y-32000D02*
X25950Y-32550D01*
X25950Y-27750D02*
X25950Y-30400D01*
X25950Y-26050D02*
X25950Y-26450D01*
X25950Y-21700D02*
X25950Y-24950D01*
X25900Y-32000D02*
X25900Y-32550D01*
X25900Y-27600D02*
X25900Y-30400D01*
X25900Y-26050D02*
X25900Y-26450D01*
X25900Y-21700D02*
X25900Y-24950D01*
X25850Y-32000D02*
X25850Y-32550D01*
X25850Y-27250D02*
X25850Y-30400D01*
X25850Y-26050D02*
X25850Y-26450D01*
X25850Y-21700D02*
X25850Y-24950D01*
X25800Y-32000D02*
X25800Y-32550D01*
X25800Y-27250D02*
X25800Y-30400D01*
X25800Y-26050D02*
X25800Y-26450D01*
X25800Y-21700D02*
X25800Y-24950D01*
X25750Y-32000D02*
X25750Y-32550D01*
X25750Y-27250D02*
X25750Y-30400D01*
X25750Y-26000D02*
X25750Y-26450D01*
X25750Y-21700D02*
X25750Y-25000D01*
X25700Y-32000D02*
X25700Y-32550D01*
X25700Y-27250D02*
X25700Y-30400D01*
X25700Y-26000D02*
X25700Y-26450D01*
X25700Y-21700D02*
X25700Y-25000D01*
X25650Y-32000D02*
X25650Y-32550D01*
X25650Y-27250D02*
X25650Y-30400D01*
X25650Y-25950D02*
X25650Y-26450D01*
X25650Y-21700D02*
X25650Y-25050D01*
X25600Y-32000D02*
X25600Y-32550D01*
X25600Y-27250D02*
X25600Y-30400D01*
X25600Y-25900D02*
X25600Y-26450D01*
X25600Y-21700D02*
X25600Y-25100D01*
X25550Y-32000D02*
X25550Y-32550D01*
X25550Y-27250D02*
X25550Y-30400D01*
X25550Y-25850D02*
X25550Y-26450D01*
X25550Y-21700D02*
X25550Y-25150D01*
X25500Y-31950D02*
X25500Y-32550D01*
X25500Y-27250D02*
X25500Y-30400D01*
X25500Y-25750D02*
X25500Y-26450D01*
X25500Y-21700D02*
X25500Y-25250D01*
X25450Y-31950D02*
X25450Y-32550D01*
X25450Y-27250D02*
X25450Y-30400D01*
X25450Y-21700D02*
X25450Y-26450D01*
X25400Y-31900D02*
X25400Y-32550D01*
X25400Y-27250D02*
X25400Y-30400D01*
X25400Y-21700D02*
X25400Y-26450D01*
X25350Y-31850D02*
X25350Y-32550D01*
X25350Y-27250D02*
X25350Y-30400D01*
X25350Y-21700D02*
X25350Y-26450D01*
X25300Y-31800D02*
X25300Y-32550D01*
X25300Y-27250D02*
X25300Y-30400D01*
X25300Y-21700D02*
X25300Y-26450D01*
X25250Y-31700D02*
X25250Y-32550D01*
X25250Y-27250D02*
X25250Y-30400D01*
X25250Y-21700D02*
X25250Y-26450D01*
X25200Y-31200D02*
X25200Y-32550D01*
X25200Y-27250D02*
X25200Y-30400D01*
X25200Y-21700D02*
X25200Y-26450D01*
X25150Y-31200D02*
X25150Y-32550D01*
X25150Y-27250D02*
X25150Y-30400D01*
X25150Y-21700D02*
X25150Y-26450D01*
X25100Y-31200D02*
X25100Y-32550D01*
X25100Y-27250D02*
X25100Y-30400D01*
X25100Y-21700D02*
X25100Y-26450D01*
X25050Y-31200D02*
X25050Y-32550D01*
X25050Y-27250D02*
X25050Y-30400D01*
X25050Y-21700D02*
X25050Y-26450D01*
X25000Y-31200D02*
X25000Y-32550D01*
X25000Y-27250D02*
X25000Y-30400D01*
X25000Y-21700D02*
X25000Y-26450D01*
X24950Y-31200D02*
X24950Y-32550D01*
X24950Y-27250D02*
X24950Y-30400D01*
X24950Y-21700D02*
X24950Y-26450D01*
X24900Y-31200D02*
X24900Y-32550D01*
X24900Y-27250D02*
X24900Y-30400D01*
X24900Y-21700D02*
X24900Y-26450D01*
X24850Y-31200D02*
X24850Y-32550D01*
X24850Y-27250D02*
X24850Y-30400D01*
X24850Y-21700D02*
X24850Y-26450D01*
X24800Y-31200D02*
X24800Y-32550D01*
X24800Y-27250D02*
X24800Y-30400D01*
X24800Y-21700D02*
X24800Y-26450D01*
X24750Y-31200D02*
X24750Y-32550D01*
X24750Y-27250D02*
X24750Y-30400D01*
X24750Y-21700D02*
X24750Y-26450D01*
X24700Y-31200D02*
X24700Y-32550D01*
X24700Y-27250D02*
X24700Y-30400D01*
X24700Y-21700D02*
X24700Y-26450D01*
X24650Y-31200D02*
X24650Y-32550D01*
X24650Y-27250D02*
X24650Y-30400D01*
X24650Y-21700D02*
X24650Y-26450D01*
X24600Y-31200D02*
X24600Y-32550D01*
X24600Y-27250D02*
X24600Y-30400D01*
X24600Y-21700D02*
X24600Y-26450D01*
X24550Y-31200D02*
X24550Y-32550D01*
X24550Y-27250D02*
X24550Y-30400D01*
X24550Y-21700D02*
X24550Y-26450D01*
X24500Y-31200D02*
X24500Y-32550D01*
X24500Y-27250D02*
X24500Y-30400D01*
X24500Y-25750D02*
X24500Y-26450D01*
X24500Y-21700D02*
X24500Y-25250D01*
X24450Y-31200D02*
X24450Y-32550D01*
X24450Y-27250D02*
X24450Y-30400D01*
X24450Y-25850D02*
X24450Y-26450D01*
X24450Y-21700D02*
X24450Y-25150D01*
X24400Y-31200D02*
X24400Y-32550D01*
X24400Y-27250D02*
X24400Y-30400D01*
X24400Y-25900D02*
X24400Y-26450D01*
X24400Y-21700D02*
X24400Y-25100D01*
X24350Y-31200D02*
X24350Y-32550D01*
X24350Y-27250D02*
X24350Y-30400D01*
X24350Y-25950D02*
X24350Y-26450D01*
X24350Y-21700D02*
X24350Y-25050D01*
X24300Y-31250D02*
X24300Y-32550D01*
X24300Y-27250D02*
X24300Y-30400D01*
X24300Y-26000D02*
X24300Y-26450D01*
X24300Y-21700D02*
X24300Y-25000D01*
X24250Y-31350D02*
X24250Y-32550D01*
X24250Y-27250D02*
X24250Y-30400D01*
X24250Y-26000D02*
X24250Y-26450D01*
X24250Y-21700D02*
X24250Y-25000D01*
X24200Y-31450D02*
X24200Y-32550D01*
X24200Y-27250D02*
X24200Y-30400D01*
X24200Y-26050D02*
X24200Y-26450D01*
X24200Y-21700D02*
X24200Y-24950D01*
X24150Y-31450D02*
X24150Y-32550D01*
X24150Y-27250D02*
X24150Y-30450D01*
X24150Y-26050D02*
X24150Y-26450D01*
X24150Y-21700D02*
X24150Y-24950D01*
X24100Y-31500D02*
X24100Y-32550D01*
X24100Y-27250D02*
X24100Y-30450D01*
X24100Y-26050D02*
X24100Y-26450D01*
X24100Y-21700D02*
X24100Y-24950D01*
X24050Y-31500D02*
X24050Y-32550D01*
X24050Y-27250D02*
X24050Y-30450D01*
X24050Y-26050D02*
X24050Y-26450D01*
X24050Y-21700D02*
X24050Y-24950D01*
X24000Y-31550D02*
X24000Y-32550D01*
X24000Y-27250D02*
X24000Y-30500D01*
X24000Y-26050D02*
X24000Y-26450D01*
X24000Y-21700D02*
X24000Y-24950D01*
X23950Y-31550D02*
X23950Y-32550D01*
X23950Y-27250D02*
X23950Y-30550D01*
X23950Y-26050D02*
X23950Y-26450D01*
X23950Y-21700D02*
X23950Y-24950D01*
X23900Y-31550D02*
X23900Y-32550D01*
X23900Y-27250D02*
X23900Y-30600D01*
X23900Y-26050D02*
X23900Y-26450D01*
X23900Y-21700D02*
X23900Y-24950D01*
X23850Y-31550D02*
X23850Y-32550D01*
X23850Y-27250D02*
X23850Y-30650D01*
X23850Y-26050D02*
X23850Y-26450D01*
X23850Y-21700D02*
X23850Y-24950D01*
X23800Y-31550D02*
X23800Y-32550D01*
X23800Y-27250D02*
X23800Y-30650D01*
X23800Y-26050D02*
X23800Y-26450D01*
X23800Y-21700D02*
X23800Y-24950D01*
X23750Y-31500D02*
X23750Y-32550D01*
X23750Y-27250D02*
X23750Y-30700D01*
X23750Y-26000D02*
X23750Y-26450D01*
X23750Y-21700D02*
X23750Y-25000D01*
X23700Y-31500D02*
X23700Y-32550D01*
X23700Y-27250D02*
X23700Y-30700D01*
X23700Y-26000D02*
X23700Y-26450D01*
X23700Y-21700D02*
X23700Y-25000D01*
X23650Y-31450D02*
X23650Y-32550D01*
X23650Y-27250D02*
X23650Y-30750D01*
X23650Y-25950D02*
X23650Y-26450D01*
X23650Y-21700D02*
X23650Y-25050D01*
X23600Y-31450D02*
X23600Y-32550D01*
X23600Y-27250D02*
X23600Y-30750D01*
X23600Y-25900D02*
X23600Y-26450D01*
X23600Y-21700D02*
X23600Y-25100D01*
X23550Y-31350D02*
X23550Y-32550D01*
X23550Y-27250D02*
X23550Y-30850D01*
X23550Y-25850D02*
X23550Y-26450D01*
X23550Y-21700D02*
X23550Y-25150D01*
X23500Y-31250D02*
X23500Y-32550D01*
X23500Y-27250D02*
X23500Y-30950D01*
X23500Y-25750D02*
X23500Y-26450D01*
X23500Y-21700D02*
X23500Y-25250D01*
X23450Y-27250D02*
X23450Y-32550D01*
X23450Y-21700D02*
X23450Y-26450D01*
X23400Y-27250D02*
X23400Y-32550D01*
X23400Y-21700D02*
X23400Y-26450D01*
X23350Y-27250D02*
X23350Y-32550D01*
X23350Y-21700D02*
X23350Y-26450D01*
X23300Y-27250D02*
X23300Y-32550D01*
X23300Y-21700D02*
X23300Y-26450D01*
X23250Y-27250D02*
X23250Y-32550D01*
X23250Y-21700D02*
X23250Y-26450D01*
X23200Y-27250D02*
X23200Y-32550D01*
X23200Y-21700D02*
X23200Y-26450D01*
X23150Y-27250D02*
X23150Y-32550D01*
X23150Y-21700D02*
X23150Y-26450D01*
X23100Y-27250D02*
X23100Y-32550D01*
X23100Y-21700D02*
X23100Y-26450D01*
X23050Y-27250D02*
X23050Y-32550D01*
X23050Y-21700D02*
X23050Y-26450D01*
X23000Y-27250D02*
X23000Y-32550D01*
X23000Y-21700D02*
X23000Y-26450D01*
X22950Y-27250D02*
X22950Y-32550D01*
X22950Y-21700D02*
X22950Y-26450D01*
X22900Y-27250D02*
X22900Y-32550D01*
X22900Y-21700D02*
X22900Y-26450D01*
X22850Y-27250D02*
X22850Y-32550D01*
X22850Y-21700D02*
X22850Y-26450D01*
X22800Y-27250D02*
X22800Y-32550D01*
X22800Y-21700D02*
X22800Y-26450D01*
X22750Y-27250D02*
X22750Y-32550D01*
X22750Y-21700D02*
X22750Y-26450D01*
X22700Y-27250D02*
X22700Y-32550D01*
X22700Y-21700D02*
X22700Y-26450D01*
X22650Y-27250D02*
X22650Y-32550D01*
X22650Y-21700D02*
X22650Y-26450D01*
X22600Y-27250D02*
X22600Y-32550D01*
X22600Y-21700D02*
X22600Y-26450D01*
X22550Y-27250D02*
X22550Y-32550D01*
X22550Y-21700D02*
X22550Y-26450D01*
X22500Y-27250D02*
X22500Y-32550D01*
X22500Y-21700D02*
X22500Y-26450D01*
X22450Y-27250D02*
X22450Y-32550D01*
X22450Y-21700D02*
X22450Y-26450D01*
X22400Y-27250D02*
X22400Y-32550D01*
X22400Y-21700D02*
X22400Y-26450D01*
X22350Y-27250D02*
X22350Y-32550D01*
X22350Y-21700D02*
X22350Y-26450D01*
X22300Y-27250D02*
X22300Y-32550D01*
X22300Y-21700D02*
X22300Y-26450D01*
X22250Y-27250D02*
X22250Y-32550D01*
X22250Y-21700D02*
X22250Y-26450D01*
X22200Y-27250D02*
X22200Y-32550D01*
X22200Y-21700D02*
X22200Y-26450D01*
X22150Y-27250D02*
X22150Y-32550D01*
X22150Y-21700D02*
X22150Y-26450D01*
X22100Y-27250D02*
X22100Y-32550D01*
X22100Y-21700D02*
X22100Y-26450D01*
X22050Y-27250D02*
X22050Y-32550D01*
X22050Y-21700D02*
X22050Y-26450D01*
X22000Y-27250D02*
X22000Y-32550D01*
X22000Y-21700D02*
X22000Y-26450D01*
X21950Y-27250D02*
X21950Y-32550D01*
X21950Y-21700D02*
X21950Y-26450D01*
X21900Y-27250D02*
X21900Y-32550D01*
X21900Y-21700D02*
X21900Y-26450D01*
X21850Y-27250D02*
X21850Y-32550D01*
X21850Y-21700D02*
X21850Y-26450D01*
X21800Y-27250D02*
X21800Y-32550D01*
X21800Y-21700D02*
X21800Y-26450D01*
X21750Y-27250D02*
X21750Y-32550D01*
X21750Y-21700D02*
X21750Y-26450D01*
X21700Y-27250D02*
X21700Y-32550D01*
X21700Y-21700D02*
X21700Y-26450D01*
X21650Y-27250D02*
X21650Y-32550D01*
X21650Y-21700D02*
X21650Y-26450D01*
X21600Y-27250D02*
X21600Y-32550D01*
X21600Y-21700D02*
X21600Y-26450D01*
X21550Y-27250D02*
X21550Y-32550D01*
X21550Y-21700D02*
X21550Y-26450D01*
X21500Y-27250D02*
X21500Y-32550D01*
X21500Y-21700D02*
X21500Y-26450D01*
X21450Y-27250D02*
X21450Y-32550D01*
X21450Y-21700D02*
X21450Y-26450D01*
X21400Y-27250D02*
X21400Y-32550D01*
X21400Y-21700D02*
X21400Y-26450D01*
X21350Y-27250D02*
X21350Y-32550D01*
X21350Y-21700D02*
X21350Y-26450D01*
X21300Y-27250D02*
X21300Y-32550D01*
X21300Y-21700D02*
X21300Y-26450D01*
X21250Y-27250D02*
X21250Y-32550D01*
X21250Y-21700D02*
X21250Y-26450D01*
X21200Y-27250D02*
X21200Y-32550D01*
X21200Y-21700D02*
X21200Y-26450D01*
X21150Y-27250D02*
X21150Y-32550D01*
X21150Y-21700D02*
X21150Y-26450D01*
X21100Y-27250D02*
X21100Y-32550D01*
X21100Y-21700D02*
X21100Y-26450D01*
X21050Y-27250D02*
X21050Y-32550D01*
X21050Y-21700D02*
X21050Y-26450D01*
X21000Y-27250D02*
X21000Y-32550D01*
X21000Y-21700D02*
X21000Y-26450D01*
X20950Y-27250D02*
X20950Y-32550D01*
X20950Y-21700D02*
X20950Y-26450D01*
X20900Y-27250D02*
X20900Y-32550D01*
X20900Y-21700D02*
X20900Y-26450D01*
X20850Y-27250D02*
X20850Y-32550D01*
X20850Y-21700D02*
X20850Y-26450D01*
X20800Y-27250D02*
X20800Y-32550D01*
X20800Y-21700D02*
X20800Y-26450D01*
X20750Y-27250D02*
X20750Y-32550D01*
X20750Y-21700D02*
X20750Y-26450D01*
X20700Y-27250D02*
X20700Y-32550D01*
X20700Y-21700D02*
X20700Y-26450D01*
X20650Y-27250D02*
X20650Y-32550D01*
X20650Y-21700D02*
X20650Y-26450D01*
X20600Y-27250D02*
X20600Y-32550D01*
X20600Y-21700D02*
X20600Y-26450D01*
X20550Y-27250D02*
X20550Y-32550D01*
X20550Y-21700D02*
X20550Y-26450D01*
X20500Y-27250D02*
X20500Y-32550D01*
X20500Y-21700D02*
X20500Y-26450D01*
X20450Y-27250D02*
X20450Y-32550D01*
X20450Y-21700D02*
X20450Y-26450D01*
X20400Y-27250D02*
X20400Y-32550D01*
X20400Y-21700D02*
X20400Y-26450D01*
X20350Y-27250D02*
X20350Y-32550D01*
X20350Y-21700D02*
X20350Y-26450D01*
X20300Y-27250D02*
X20300Y-32550D01*
X20300Y-21700D02*
X20300Y-26450D01*
X20250Y-27300D02*
X20250Y-32550D01*
X20250Y-21700D02*
X20250Y-26450D01*
X20200Y-28450D02*
X20200Y-32550D01*
X20200Y-27500D02*
X20200Y-28000D01*
X20200Y-21700D02*
X20200Y-26450D01*
X20150Y-28550D02*
X20150Y-32550D01*
X20150Y-27550D02*
X20150Y-27950D01*
X20150Y-21700D02*
X20150Y-26500D01*
X20100Y-28600D02*
X20100Y-32550D01*
X20100Y-27650D02*
X20100Y-27850D01*
X20100Y-21700D02*
X20100Y-24700D01*
X20050Y-28650D02*
X20050Y-32550D01*
X20050Y-27700D02*
X20050Y-27800D01*
X20050Y-21700D02*
X20050Y-24500D01*
X20000Y-28700D02*
X20000Y-32550D01*
X20000Y-27700D02*
X20000Y-27800D01*
X20000Y-21700D02*
X20000Y-24400D01*
X19950Y-28700D02*
X19950Y-32550D01*
X19950Y-21700D02*
X19950Y-24300D01*
X19900Y-28750D02*
X19900Y-32550D01*
X19900Y-21700D02*
X19900Y-24300D01*
X19850Y-28750D02*
X19850Y-32550D01*
X19850Y-21700D02*
X19850Y-24250D01*
X19800Y-28750D02*
X19800Y-32550D01*
X19800Y-21700D02*
X19800Y-24250D01*
X19750Y-28750D02*
X19750Y-32550D01*
X19750Y-21700D02*
X19750Y-24200D01*
X19700Y-28750D02*
X19700Y-32550D01*
X19700Y-21700D02*
X19700Y-24200D01*
X19650Y-28750D02*
X19650Y-32550D01*
X19650Y-21700D02*
X19650Y-24200D01*
X19600Y-28750D02*
X19600Y-32550D01*
X19600Y-21700D02*
X19600Y-24200D01*
X19550Y-28700D02*
X19550Y-32550D01*
X19550Y-21700D02*
X19550Y-24200D01*
X19500Y-28700D02*
X19500Y-32550D01*
X19500Y-27700D02*
X19500Y-27800D01*
X19500Y-21700D02*
X19500Y-24250D01*
X19450Y-28650D02*
X19450Y-32550D01*
X19450Y-27700D02*
X19450Y-27800D01*
X19450Y-21700D02*
X19450Y-24250D01*
X19400Y-28600D02*
X19400Y-32550D01*
X19400Y-27650D02*
X19400Y-27850D01*
X19400Y-21700D02*
X19400Y-24300D01*
X19350Y-28550D02*
X19350Y-32550D01*
X19350Y-27550D02*
X19350Y-27900D01*
X19350Y-25000D02*
X19350Y-26950D01*
X19350Y-21700D02*
X19350Y-24300D01*
X19300Y-28650D02*
X19300Y-32550D01*
X19300Y-27500D02*
X19300Y-27850D01*
X19300Y-24900D02*
X19300Y-27050D01*
X19300Y-21700D02*
X19300Y-24400D01*
X19250Y-28650D02*
X19250Y-32550D01*
X19250Y-24800D02*
X19250Y-27800D01*
X19250Y-21700D02*
X19250Y-24500D01*
X19200Y-28700D02*
X19200Y-32550D01*
X19200Y-21700D02*
X19200Y-27800D01*
X19150Y-28700D02*
X19150Y-32550D01*
X19150Y-21700D02*
X19150Y-27750D01*
X19100Y-28750D02*
X19100Y-32550D01*
X19100Y-21700D02*
X19100Y-27750D01*
X19050Y-28750D02*
X19050Y-32550D01*
X19050Y-21700D02*
X19050Y-27750D01*
X19000Y-28750D02*
X19000Y-32550D01*
X19000Y-21700D02*
X19000Y-27700D01*
X18950Y-28750D02*
X18950Y-32550D01*
X18950Y-21700D02*
X18950Y-27700D01*
X18900Y-28750D02*
X18900Y-32550D01*
X18900Y-21700D02*
X18900Y-27750D01*
X18850Y-28750D02*
X18850Y-32550D01*
X18850Y-21700D02*
X18850Y-27750D01*
X18800Y-28750D02*
X18800Y-32550D01*
X18800Y-21700D02*
X18800Y-27750D01*
X18750Y-28700D02*
X18750Y-32550D01*
X18750Y-21700D02*
X18750Y-27750D01*
X18700Y-28700D02*
X18700Y-32550D01*
X18700Y-21700D02*
X18700Y-27800D01*
X18650Y-28650D02*
X18650Y-32550D01*
X18650Y-21700D02*
X18650Y-27850D01*
X18600Y-28600D02*
X18600Y-32550D01*
X18600Y-21700D02*
X18600Y-27900D01*
X18550Y-28550D02*
X18550Y-32550D01*
X18550Y-21700D02*
X18550Y-27950D01*
X18500Y-28450D02*
X18500Y-32550D01*
X18500Y-21700D02*
X18500Y-28050D01*
X18450Y-21700D02*
X18450Y-32550D01*
X18400Y-21700D02*
X18400Y-32550D01*
X18350Y-21700D02*
X18350Y-32550D01*
X18300Y-21700D02*
X18300Y-32550D01*
X18250Y-21700D02*
X18250Y-32550D01*
X18200Y-21700D02*
X18200Y-32550D01*
X18150Y-21700D02*
X18150Y-32550D01*
X18100Y-21700D02*
X18100Y-32550D01*
X18050Y-21700D02*
X18050Y-32550D01*
X18000Y-21700D02*
X18000Y-32550D01*
X17950Y-21700D02*
X17950Y-32550D01*
X17900Y-21700D02*
X17900Y-32550D01*
X17850Y-21700D02*
X17850Y-32550D01*
X17800Y-21700D02*
X17800Y-32550D01*
X17750Y-21700D02*
X17750Y-32550D01*
X17700Y-21700D02*
X17700Y-32550D01*
X17650Y-21700D02*
X17650Y-32550D01*
X17600Y-21700D02*
X17600Y-32550D01*
X17550Y-21700D02*
X17550Y-32550D01*
X17500Y-21700D02*
X17500Y-32550D01*
X17450Y-21700D02*
X17450Y-32550D01*
X17400Y-21700D02*
X17400Y-32550D01*
X17350Y-21700D02*
X17350Y-32550D01*
X17300Y-21700D02*
X17300Y-32550D01*
X17250Y-21700D02*
X17250Y-32550D01*
X17200Y-21700D02*
X17200Y-32550D01*
X17150Y-21700D02*
X17150Y-32550D01*
X17100Y-21700D02*
X17100Y-32550D01*
X17050Y-21700D02*
X17050Y-32550D01*
X17000Y-21700D02*
X17000Y-32550D01*
X16950Y-21700D02*
X16950Y-32550D01*
X16900Y-21700D02*
X16900Y-32550D01*
X16850Y-21700D02*
X16850Y-32550D01*
X16800Y-21700D02*
X16800Y-32550D01*
X16750Y-21700D02*
X16750Y-32550D01*
X16700Y-21700D02*
X16700Y-32550D01*
X16700Y-32550D02*
X34550Y-32550D01*
X16700Y-32500D02*
X34550Y-32500D01*
X16700Y-32450D02*
X34550Y-32450D01*
X16700Y-32400D02*
X34550Y-32400D01*
X16700Y-32350D02*
X34550Y-32350D01*
X16700Y-32300D02*
X34550Y-32300D01*
X16700Y-32250D02*
X34550Y-32250D01*
X16700Y-32200D02*
X34550Y-32200D01*
X16700Y-32150D02*
X34550Y-32150D01*
X16700Y-32100D02*
X34550Y-32100D01*
X16700Y-32050D02*
X34550Y-32050D01*
X16700Y-32000D02*
X34550Y-32000D01*
X29000Y-31950D02*
X34550Y-31950D01*
X28000Y-31950D02*
X28500Y-31950D01*
X27000Y-31950D02*
X27500Y-31950D01*
X26000Y-31950D02*
X26500Y-31950D01*
X16700Y-31950D02*
X25500Y-31950D01*
X29100Y-31900D02*
X34550Y-31900D01*
X28100Y-31900D02*
X28400Y-31900D01*
X27100Y-31900D02*
X27400Y-31900D01*
X26100Y-31900D02*
X26400Y-31900D01*
X16700Y-31900D02*
X25400Y-31900D01*
X29150Y-31850D02*
X34550Y-31850D01*
X28150Y-31850D02*
X28350Y-31850D01*
X27150Y-31850D02*
X27350Y-31850D01*
X26150Y-31850D02*
X26350Y-31850D01*
X16700Y-31850D02*
X25350Y-31850D01*
X29200Y-31800D02*
X34550Y-31800D01*
X28200Y-31800D02*
X28300Y-31800D01*
X27200Y-31800D02*
X27300Y-31800D01*
X26200Y-31800D02*
X26300Y-31800D01*
X16700Y-31800D02*
X25300Y-31800D01*
X29250Y-31750D02*
X34550Y-31750D01*
X16700Y-31750D02*
X25250Y-31750D01*
X29250Y-31700D02*
X34550Y-31700D01*
X16700Y-31700D02*
X25250Y-31700D01*
X29300Y-31650D02*
X34550Y-31650D01*
X16700Y-31650D02*
X25200Y-31650D01*
X29300Y-31600D02*
X34550Y-31600D01*
X16700Y-31600D02*
X25200Y-31600D01*
X29300Y-31550D02*
X34550Y-31550D01*
X16700Y-31550D02*
X25200Y-31550D01*
X29300Y-31500D02*
X34550Y-31500D01*
X24050Y-31500D02*
X25200Y-31500D01*
X16700Y-31500D02*
X23750Y-31500D01*
X29300Y-31450D02*
X34550Y-31450D01*
X24150Y-31450D02*
X25200Y-31450D01*
X16700Y-31450D02*
X23650Y-31450D01*
X30750Y-31400D02*
X34550Y-31400D01*
X29300Y-31400D02*
X30450Y-31400D01*
X24250Y-31400D02*
X25200Y-31400D01*
X16700Y-31400D02*
X23550Y-31400D01*
X30850Y-31350D02*
X34550Y-31350D01*
X29300Y-31350D02*
X30350Y-31350D01*
X24250Y-31350D02*
X25200Y-31350D01*
X16700Y-31350D02*
X23550Y-31350D01*
X30950Y-31300D02*
X34550Y-31300D01*
X29300Y-31300D02*
X30250Y-31300D01*
X24300Y-31300D02*
X25200Y-31300D01*
X16700Y-31300D02*
X23500Y-31300D01*
X30950Y-31250D02*
X34550Y-31250D01*
X29300Y-31250D02*
X30250Y-31250D01*
X24300Y-31250D02*
X25200Y-31250D01*
X16700Y-31250D02*
X23500Y-31250D01*
X31000Y-31200D02*
X34550Y-31200D01*
X29250Y-31200D02*
X30200Y-31200D01*
X24350Y-31200D02*
X25250Y-31200D01*
X16700Y-31200D02*
X23450Y-31200D01*
X31000Y-31150D02*
X34550Y-31150D01*
X29250Y-31150D02*
X30200Y-31150D01*
X16700Y-31150D02*
X23450Y-31150D01*
X31050Y-31100D02*
X34550Y-31100D01*
X29200Y-31100D02*
X30150Y-31100D01*
X16700Y-31100D02*
X23450Y-31100D01*
X31050Y-31050D02*
X34550Y-31050D01*
X29150Y-31050D02*
X30150Y-31050D01*
X16700Y-31050D02*
X23450Y-31050D01*
X31050Y-31000D02*
X34550Y-31000D01*
X29100Y-31000D02*
X30100Y-31000D01*
X16700Y-31000D02*
X23450Y-31000D01*
X31050Y-30950D02*
X34550Y-30950D01*
X29000Y-30950D02*
X30050Y-30950D01*
X16700Y-30950D02*
X23500Y-30950D01*
X31050Y-30900D02*
X34550Y-30900D01*
X28600Y-30900D02*
X30000Y-30900D01*
X16700Y-30900D02*
X23500Y-30900D01*
X31000Y-30850D02*
X34550Y-30850D01*
X28550Y-30850D02*
X29950Y-30850D01*
X16700Y-30850D02*
X23550Y-30850D01*
X31000Y-30800D02*
X34550Y-30800D01*
X29850Y-30800D02*
X29950Y-30800D01*
X28500Y-30800D02*
X29750Y-30800D01*
X16700Y-30800D02*
X23550Y-30800D01*
X30950Y-30750D02*
X34550Y-30750D01*
X28450Y-30750D02*
X29600Y-30750D01*
X16700Y-30750D02*
X23650Y-30750D01*
X30950Y-30700D02*
X34550Y-30700D01*
X28400Y-30700D02*
X29550Y-30700D01*
X16700Y-30700D02*
X23750Y-30700D01*
X30850Y-30650D02*
X34550Y-30650D01*
X28350Y-30650D02*
X29500Y-30650D01*
X16700Y-30650D02*
X23850Y-30650D01*
X30750Y-30600D02*
X34550Y-30600D01*
X28300Y-30600D02*
X29450Y-30600D01*
X16700Y-30600D02*
X23900Y-30600D01*
X30500Y-30550D02*
X34550Y-30550D01*
X28250Y-30550D02*
X29450Y-30550D01*
X16700Y-30550D02*
X23950Y-30550D01*
X30500Y-30500D02*
X34550Y-30500D01*
X28200Y-30500D02*
X29450Y-30500D01*
X16700Y-30500D02*
X24000Y-30500D01*
X30500Y-30450D02*
X34550Y-30450D01*
X28150Y-30450D02*
X29400Y-30450D01*
X16700Y-30450D02*
X24150Y-30450D01*
X30500Y-30400D02*
X34550Y-30400D01*
X28100Y-30400D02*
X29400Y-30400D01*
X16700Y-30400D02*
X26100Y-30400D01*
X30500Y-30350D02*
X34550Y-30350D01*
X28050Y-30350D02*
X29350Y-30350D01*
X16700Y-30350D02*
X26100Y-30350D01*
X30500Y-30300D02*
X34550Y-30300D01*
X28000Y-30300D02*
X29350Y-30300D01*
X16700Y-30300D02*
X26100Y-30300D01*
X30500Y-30250D02*
X34550Y-30250D01*
X27900Y-30250D02*
X29350Y-30250D01*
X16700Y-30250D02*
X26100Y-30250D01*
X30500Y-30200D02*
X34550Y-30200D01*
X27200Y-30200D02*
X29350Y-30200D01*
X16700Y-30200D02*
X26100Y-30200D01*
X30500Y-30150D02*
X34550Y-30150D01*
X27150Y-30150D02*
X29350Y-30150D01*
X16700Y-30150D02*
X26100Y-30150D01*
X30500Y-30100D02*
X34550Y-30100D01*
X27100Y-30100D02*
X29400Y-30100D01*
X16700Y-30100D02*
X26100Y-30100D01*
X30500Y-30050D02*
X34550Y-30050D01*
X27100Y-30050D02*
X29400Y-30050D01*
X16700Y-30050D02*
X26100Y-30050D01*
X30500Y-30000D02*
X34550Y-30000D01*
X27100Y-30000D02*
X29400Y-30000D01*
X16700Y-30000D02*
X26100Y-30000D01*
X30500Y-29950D02*
X34550Y-29950D01*
X27100Y-29950D02*
X29400Y-29950D01*
X16700Y-29950D02*
X26100Y-29950D01*
X30500Y-29900D02*
X34550Y-29900D01*
X27100Y-29900D02*
X29400Y-29900D01*
X16700Y-29900D02*
X26100Y-29900D01*
X30500Y-29850D02*
X34550Y-29850D01*
X27100Y-29850D02*
X29400Y-29850D01*
X16700Y-29850D02*
X26100Y-29850D01*
X30500Y-29800D02*
X34550Y-29800D01*
X27100Y-29800D02*
X29400Y-29800D01*
X16700Y-29800D02*
X26100Y-29800D01*
X30500Y-29750D02*
X34550Y-29750D01*
X27100Y-29750D02*
X29400Y-29750D01*
X16700Y-29750D02*
X26100Y-29750D01*
X30500Y-29700D02*
X34550Y-29700D01*
X27100Y-29700D02*
X29400Y-29700D01*
X16700Y-29700D02*
X26100Y-29700D01*
X30500Y-29650D02*
X34550Y-29650D01*
X27100Y-29650D02*
X29400Y-29650D01*
X16700Y-29650D02*
X26100Y-29650D01*
X30500Y-29600D02*
X34550Y-29600D01*
X27100Y-29600D02*
X29400Y-29600D01*
X16700Y-29600D02*
X26100Y-29600D01*
X30500Y-29550D02*
X34550Y-29550D01*
X27100Y-29550D02*
X29400Y-29550D01*
X16700Y-29550D02*
X26100Y-29550D01*
X30500Y-29500D02*
X34550Y-29500D01*
X27100Y-29500D02*
X29400Y-29500D01*
X16700Y-29500D02*
X26100Y-29500D01*
X30500Y-29450D02*
X34550Y-29450D01*
X27100Y-29450D02*
X29400Y-29450D01*
X16700Y-29450D02*
X26100Y-29450D01*
X30500Y-29400D02*
X34550Y-29400D01*
X27100Y-29400D02*
X29400Y-29400D01*
X16700Y-29400D02*
X26100Y-29400D01*
X30500Y-29350D02*
X34550Y-29350D01*
X27100Y-29350D02*
X29400Y-29350D01*
X16700Y-29350D02*
X26100Y-29350D01*
X30500Y-29300D02*
X34550Y-29300D01*
X27100Y-29300D02*
X29400Y-29300D01*
X16700Y-29300D02*
X26100Y-29300D01*
X30500Y-29250D02*
X34550Y-29250D01*
X27100Y-29250D02*
X29400Y-29250D01*
X16700Y-29250D02*
X26100Y-29250D01*
X30500Y-29200D02*
X34550Y-29200D01*
X27100Y-29200D02*
X29400Y-29200D01*
X16700Y-29200D02*
X26100Y-29200D01*
X30500Y-29150D02*
X34550Y-29150D01*
X27100Y-29150D02*
X29400Y-29150D01*
X16700Y-29150D02*
X26100Y-29150D01*
X30500Y-29100D02*
X34550Y-29100D01*
X27100Y-29100D02*
X29400Y-29100D01*
X16700Y-29100D02*
X26100Y-29100D01*
X32100Y-29050D02*
X34550Y-29050D01*
X30500Y-29050D02*
X31600Y-29050D01*
X27100Y-29050D02*
X29400Y-29050D01*
X16700Y-29050D02*
X26100Y-29050D01*
X32200Y-29000D02*
X34550Y-29000D01*
X30500Y-29000D02*
X31500Y-29000D01*
X27100Y-29000D02*
X29400Y-29000D01*
X16700Y-29000D02*
X26100Y-29000D01*
X32250Y-28950D02*
X34550Y-28950D01*
X30500Y-28950D02*
X31450Y-28950D01*
X27100Y-28950D02*
X29400Y-28950D01*
X16700Y-28950D02*
X26100Y-28950D01*
X32300Y-28900D02*
X34550Y-28900D01*
X30500Y-28900D02*
X31400Y-28900D01*
X27100Y-28900D02*
X29400Y-28900D01*
X16700Y-28900D02*
X26100Y-28900D01*
X32350Y-28850D02*
X34550Y-28850D01*
X30500Y-28850D02*
X31350Y-28850D01*
X27100Y-28850D02*
X29400Y-28850D01*
X16700Y-28850D02*
X26100Y-28850D01*
X32350Y-28800D02*
X34550Y-28800D01*
X30500Y-28800D02*
X31350Y-28800D01*
X27100Y-28800D02*
X29400Y-28800D01*
X16700Y-28800D02*
X26100Y-28800D01*
X32400Y-28750D02*
X34550Y-28750D01*
X30500Y-28750D02*
X31300Y-28750D01*
X27100Y-28750D02*
X29400Y-28750D01*
X16700Y-28750D02*
X26100Y-28750D01*
X32400Y-28700D02*
X34550Y-28700D01*
X30500Y-28700D02*
X31300Y-28700D01*
X27100Y-28700D02*
X29400Y-28700D01*
X19950Y-28700D02*
X26100Y-28700D01*
X19150Y-28700D02*
X19550Y-28700D01*
X16700Y-28700D02*
X18750Y-28700D01*
X32400Y-28650D02*
X34550Y-28650D01*
X30500Y-28650D02*
X31300Y-28650D01*
X27100Y-28650D02*
X29400Y-28650D01*
X20050Y-28650D02*
X26100Y-28650D01*
X19250Y-28650D02*
X19450Y-28650D01*
X16700Y-28650D02*
X18650Y-28650D01*
X32400Y-28600D02*
X34550Y-28600D01*
X30500Y-28600D02*
X31300Y-28600D01*
X27100Y-28600D02*
X29400Y-28600D01*
X20100Y-28600D02*
X26100Y-28600D01*
X19350Y-28600D02*
X19400Y-28600D01*
X16700Y-28600D02*
X18600Y-28600D01*
X32400Y-28550D02*
X34550Y-28550D01*
X30550Y-28550D02*
X31300Y-28550D01*
X27100Y-28550D02*
X29400Y-28550D01*
X20150Y-28550D02*
X26100Y-28550D01*
X16700Y-28550D02*
X18550Y-28550D01*
X32400Y-28500D02*
X34550Y-28500D01*
X30750Y-28500D02*
X31300Y-28500D01*
X27100Y-28500D02*
X29400Y-28500D01*
X20200Y-28500D02*
X26100Y-28500D01*
X16700Y-28500D02*
X18500Y-28500D01*
X32400Y-28450D02*
X34550Y-28450D01*
X30850Y-28450D02*
X31300Y-28450D01*
X27100Y-28450D02*
X29400Y-28450D01*
X20200Y-28450D02*
X26100Y-28450D01*
X16700Y-28450D02*
X18500Y-28450D01*
X32400Y-28400D02*
X34550Y-28400D01*
X30950Y-28400D02*
X31300Y-28400D01*
X27100Y-28400D02*
X29400Y-28400D01*
X20250Y-28400D02*
X26100Y-28400D01*
X16700Y-28400D02*
X18450Y-28400D01*
X32400Y-28350D02*
X34550Y-28350D01*
X30950Y-28350D02*
X31300Y-28350D01*
X27100Y-28350D02*
X29400Y-28350D01*
X20250Y-28350D02*
X26100Y-28350D01*
X16700Y-28350D02*
X18450Y-28350D01*
X32350Y-28300D02*
X34550Y-28300D01*
X31000Y-28300D02*
X31350Y-28300D01*
X27100Y-28300D02*
X29400Y-28300D01*
X20250Y-28300D02*
X26100Y-28300D01*
X16700Y-28300D02*
X18450Y-28300D01*
X32350Y-28250D02*
X34550Y-28250D01*
X31000Y-28250D02*
X31350Y-28250D01*
X27100Y-28250D02*
X29400Y-28250D01*
X20250Y-28250D02*
X26100Y-28250D01*
X16700Y-28250D02*
X18450Y-28250D01*
X32300Y-28200D02*
X34550Y-28200D01*
X31050Y-28200D02*
X31400Y-28200D01*
X27100Y-28200D02*
X29400Y-28200D01*
X20250Y-28200D02*
X26100Y-28200D01*
X16700Y-28200D02*
X18450Y-28200D01*
X32250Y-28150D02*
X34550Y-28150D01*
X31050Y-28150D02*
X31450Y-28150D01*
X27100Y-28150D02*
X29400Y-28150D01*
X20250Y-28150D02*
X26100Y-28150D01*
X16700Y-28150D02*
X18450Y-28150D01*
X32200Y-28100D02*
X34550Y-28100D01*
X31050Y-28100D02*
X31500Y-28100D01*
X27100Y-28100D02*
X29400Y-28100D01*
X20250Y-28100D02*
X26100Y-28100D01*
X16700Y-28100D02*
X18450Y-28100D01*
X32100Y-28050D02*
X34550Y-28050D01*
X31050Y-28050D02*
X31600Y-28050D01*
X27100Y-28050D02*
X29400Y-28050D01*
X20250Y-28050D02*
X26100Y-28050D01*
X16700Y-28050D02*
X18500Y-28050D01*
X32200Y-28000D02*
X34550Y-28000D01*
X31050Y-28000D02*
X31500Y-28000D01*
X27100Y-28000D02*
X29400Y-28000D01*
X20200Y-28000D02*
X26100Y-28000D01*
X16700Y-28000D02*
X18500Y-28000D01*
X32250Y-27950D02*
X34550Y-27950D01*
X31000Y-27950D02*
X31450Y-27950D01*
X27100Y-27950D02*
X29400Y-27950D01*
X20150Y-27950D02*
X26100Y-27950D01*
X16700Y-27950D02*
X18550Y-27950D01*
X32300Y-27900D02*
X34550Y-27900D01*
X31000Y-27900D02*
X31400Y-27900D01*
X27100Y-27900D02*
X29400Y-27900D01*
X20150Y-27900D02*
X26100Y-27900D01*
X16700Y-27900D02*
X18600Y-27900D01*
X32350Y-27850D02*
X34550Y-27850D01*
X30950Y-27850D02*
X31350Y-27850D01*
X30200Y-27850D02*
X30250Y-27850D01*
X27100Y-27850D02*
X29400Y-27850D01*
X20100Y-27850D02*
X26050Y-27850D01*
X19300Y-27850D02*
X19400Y-27850D01*
X16700Y-27850D02*
X18650Y-27850D01*
X32350Y-27800D02*
X34550Y-27800D01*
X30950Y-27800D02*
X31350Y-27800D01*
X30200Y-27800D02*
X30250Y-27800D01*
X27100Y-27800D02*
X29400Y-27800D01*
X20000Y-27800D02*
X26000Y-27800D01*
X19200Y-27800D02*
X19500Y-27800D01*
X16700Y-27800D02*
X18700Y-27800D01*
X32400Y-27750D02*
X34550Y-27750D01*
X30850Y-27750D02*
X31300Y-27750D01*
X30200Y-27750D02*
X30350Y-27750D01*
X27100Y-27750D02*
X28700Y-27750D01*
X19850Y-27750D02*
X25950Y-27750D01*
X19050Y-27750D02*
X19650Y-27750D01*
X16700Y-27750D02*
X18900Y-27750D01*
X32400Y-27700D02*
X34550Y-27700D01*
X30750Y-27700D02*
X31300Y-27700D01*
X30200Y-27700D02*
X30450Y-27700D01*
X27150Y-27700D02*
X28550Y-27700D01*
X20000Y-27700D02*
X25900Y-27700D01*
X16700Y-27700D02*
X19500Y-27700D01*
X32400Y-27650D02*
X34550Y-27650D01*
X30200Y-27650D02*
X31300Y-27650D01*
X27150Y-27650D02*
X28500Y-27650D01*
X20100Y-27650D02*
X25900Y-27650D01*
X16700Y-27650D02*
X19400Y-27650D01*
X32400Y-27600D02*
X34550Y-27600D01*
X30200Y-27600D02*
X31300Y-27600D01*
X27200Y-27600D02*
X28450Y-27600D01*
X20150Y-27600D02*
X25900Y-27600D01*
X16700Y-27600D02*
X19350Y-27600D01*
X32400Y-27550D02*
X34550Y-27550D01*
X30200Y-27550D02*
X31300Y-27550D01*
X27200Y-27550D02*
X28400Y-27550D01*
X20150Y-27550D02*
X25850Y-27550D01*
X16700Y-27550D02*
X19350Y-27550D01*
X32400Y-27500D02*
X34550Y-27500D01*
X30250Y-27500D02*
X31300Y-27500D01*
X27250Y-27500D02*
X28350Y-27500D01*
X20200Y-27500D02*
X25850Y-27500D01*
X16700Y-27500D02*
X19300Y-27500D01*
X32400Y-27450D02*
X34550Y-27450D01*
X30250Y-27450D02*
X31300Y-27450D01*
X27250Y-27450D02*
X28300Y-27450D01*
X20250Y-27450D02*
X25850Y-27450D01*
X16700Y-27450D02*
X19250Y-27450D01*
X32400Y-27400D02*
X34550Y-27400D01*
X30250Y-27400D02*
X31300Y-27400D01*
X27250Y-27400D02*
X28250Y-27400D01*
X20250Y-27400D02*
X25850Y-27400D01*
X16700Y-27400D02*
X19250Y-27400D01*
X32400Y-27350D02*
X34550Y-27350D01*
X30250Y-27350D02*
X31300Y-27350D01*
X27250Y-27350D02*
X28200Y-27350D01*
X20250Y-27350D02*
X25850Y-27350D01*
X16700Y-27350D02*
X19250Y-27350D01*
X32350Y-27300D02*
X34550Y-27300D01*
X30250Y-27300D02*
X31350Y-27300D01*
X27250Y-27300D02*
X28150Y-27300D01*
X20250Y-27300D02*
X25850Y-27300D01*
X16700Y-27300D02*
X19250Y-27300D01*
X32350Y-27250D02*
X34550Y-27250D01*
X30200Y-27250D02*
X31350Y-27250D01*
X27200Y-27250D02*
X28100Y-27250D01*
X20300Y-27250D02*
X25850Y-27250D01*
X16700Y-27250D02*
X19250Y-27250D01*
X32300Y-27200D02*
X34550Y-27200D01*
X30200Y-27200D02*
X31400Y-27200D01*
X16700Y-27200D02*
X19250Y-27200D01*
X32250Y-27150D02*
X34550Y-27150D01*
X30150Y-27150D02*
X31450Y-27150D01*
X16700Y-27150D02*
X19250Y-27150D01*
X32200Y-27100D02*
X34550Y-27100D01*
X30150Y-27100D02*
X31500Y-27100D01*
X16700Y-27100D02*
X19250Y-27100D01*
X32100Y-27050D02*
X34550Y-27050D01*
X30050Y-27050D02*
X31600Y-27050D01*
X16700Y-27050D02*
X19300Y-27050D01*
X32200Y-27000D02*
X34550Y-27000D01*
X29950Y-27000D02*
X31500Y-27000D01*
X28850Y-27000D02*
X29650Y-27000D01*
X16700Y-27000D02*
X19300Y-27000D01*
X32250Y-26950D02*
X34550Y-26950D01*
X28800Y-26950D02*
X31450Y-26950D01*
X16700Y-26950D02*
X19350Y-26950D01*
X32300Y-26900D02*
X34550Y-26900D01*
X28750Y-26900D02*
X31400Y-26900D01*
X16700Y-26900D02*
X19350Y-26900D01*
X32350Y-26850D02*
X34550Y-26850D01*
X28700Y-26850D02*
X31350Y-26850D01*
X16700Y-26850D02*
X19350Y-26850D01*
X32350Y-26800D02*
X34550Y-26800D01*
X28650Y-26800D02*
X31350Y-26800D01*
X16700Y-26800D02*
X19350Y-26800D01*
X32400Y-26750D02*
X34550Y-26750D01*
X28600Y-26750D02*
X31300Y-26750D01*
X16700Y-26750D02*
X19350Y-26750D01*
X32400Y-26700D02*
X34550Y-26700D01*
X28550Y-26700D02*
X31300Y-26700D01*
X16700Y-26700D02*
X19350Y-26700D01*
X32400Y-26650D02*
X34550Y-26650D01*
X28500Y-26650D02*
X31300Y-26650D01*
X16700Y-26650D02*
X19350Y-26650D01*
X32400Y-26600D02*
X34550Y-26600D01*
X28450Y-26600D02*
X31300Y-26600D01*
X16700Y-26600D02*
X19350Y-26600D01*
X32400Y-26550D02*
X34550Y-26550D01*
X28400Y-26550D02*
X31300Y-26550D01*
X16700Y-26550D02*
X19350Y-26550D01*
X32400Y-26500D02*
X34550Y-26500D01*
X28250Y-26500D02*
X31300Y-26500D01*
X16700Y-26500D02*
X19350Y-26500D01*
X32400Y-26450D02*
X34550Y-26450D01*
X20150Y-26450D02*
X31300Y-26450D01*
X16700Y-26450D02*
X19350Y-26450D01*
X32400Y-26400D02*
X34550Y-26400D01*
X20150Y-26400D02*
X31300Y-26400D01*
X16700Y-26400D02*
X19350Y-26400D01*
X32400Y-26350D02*
X34550Y-26350D01*
X20150Y-26350D02*
X31300Y-26350D01*
X16700Y-26350D02*
X19350Y-26350D01*
X32350Y-26300D02*
X34550Y-26300D01*
X20150Y-26300D02*
X31350Y-26300D01*
X16700Y-26300D02*
X19350Y-26300D01*
X32350Y-26250D02*
X34550Y-26250D01*
X20150Y-26250D02*
X31350Y-26250D01*
X16700Y-26250D02*
X19350Y-26250D01*
X32300Y-26200D02*
X34550Y-26200D01*
X20150Y-26200D02*
X31400Y-26200D01*
X16700Y-26200D02*
X19350Y-26200D01*
X32250Y-26150D02*
X34550Y-26150D01*
X20150Y-26150D02*
X31450Y-26150D01*
X16700Y-26150D02*
X19350Y-26150D01*
X32200Y-26100D02*
X34550Y-26100D01*
X20150Y-26100D02*
X31500Y-26100D01*
X16700Y-26100D02*
X19350Y-26100D01*
X32100Y-26050D02*
X34550Y-26050D01*
X20150Y-26050D02*
X31600Y-26050D01*
X16700Y-26050D02*
X19350Y-26050D01*
X32200Y-26000D02*
X34550Y-26000D01*
X26250Y-26000D02*
X31500Y-26000D01*
X24250Y-26000D02*
X25750Y-26000D01*
X20150Y-26000D02*
X23750Y-26000D01*
X16700Y-26000D02*
X19350Y-26000D01*
X32250Y-25950D02*
X34550Y-25950D01*
X26350Y-25950D02*
X31450Y-25950D01*
X24350Y-25950D02*
X25650Y-25950D01*
X20150Y-25950D02*
X23650Y-25950D01*
X16700Y-25950D02*
X19350Y-25950D01*
X32300Y-25900D02*
X34550Y-25900D01*
X26400Y-25900D02*
X31400Y-25900D01*
X24400Y-25900D02*
X25600Y-25900D01*
X20150Y-25900D02*
X23600Y-25900D01*
X16700Y-25900D02*
X19350Y-25900D01*
X32350Y-25850D02*
X34550Y-25850D01*
X26450Y-25850D02*
X31350Y-25850D01*
X24450Y-25850D02*
X25550Y-25850D01*
X20150Y-25850D02*
X23550Y-25850D01*
X16700Y-25850D02*
X19350Y-25850D01*
X32350Y-25800D02*
X34550Y-25800D01*
X26500Y-25800D02*
X31350Y-25800D01*
X24500Y-25800D02*
X25500Y-25800D01*
X20150Y-25800D02*
X23500Y-25800D01*
X16700Y-25800D02*
X19350Y-25800D01*
X32400Y-25750D02*
X34550Y-25750D01*
X26500Y-25750D02*
X31300Y-25750D01*
X24500Y-25750D02*
X25500Y-25750D01*
X20150Y-25750D02*
X23500Y-25750D01*
X16700Y-25750D02*
X19350Y-25750D01*
X32400Y-25700D02*
X34550Y-25700D01*
X26550Y-25700D02*
X31300Y-25700D01*
X24550Y-25700D02*
X25450Y-25700D01*
X20150Y-25700D02*
X23450Y-25700D01*
X16700Y-25700D02*
X19350Y-25700D01*
X32400Y-25650D02*
X34550Y-25650D01*
X26550Y-25650D02*
X31300Y-25650D01*
X24550Y-25650D02*
X25450Y-25650D01*
X20150Y-25650D02*
X23450Y-25650D01*
X16700Y-25650D02*
X19350Y-25650D01*
X32400Y-25600D02*
X34550Y-25600D01*
X26550Y-25600D02*
X31300Y-25600D01*
X24550Y-25600D02*
X25450Y-25600D01*
X20150Y-25600D02*
X23450Y-25600D01*
X16700Y-25600D02*
X19350Y-25600D01*
X32400Y-25550D02*
X34550Y-25550D01*
X26550Y-25550D02*
X31300Y-25550D01*
X24550Y-25550D02*
X25450Y-25550D01*
X20150Y-25550D02*
X23450Y-25550D01*
X16700Y-25550D02*
X19350Y-25550D01*
X32400Y-25500D02*
X34550Y-25500D01*
X26550Y-25500D02*
X31300Y-25500D01*
X24550Y-25500D02*
X25450Y-25500D01*
X20150Y-25500D02*
X23450Y-25500D01*
X16700Y-25500D02*
X19350Y-25500D01*
X32400Y-25450D02*
X34550Y-25450D01*
X26550Y-25450D02*
X31300Y-25450D01*
X24550Y-25450D02*
X25450Y-25450D01*
X20150Y-25450D02*
X23450Y-25450D01*
X16700Y-25450D02*
X19350Y-25450D01*
X32400Y-25400D02*
X34550Y-25400D01*
X26550Y-25400D02*
X31300Y-25400D01*
X24550Y-25400D02*
X25450Y-25400D01*
X20150Y-25400D02*
X23450Y-25400D01*
X16700Y-25400D02*
X19350Y-25400D01*
X32400Y-25350D02*
X34550Y-25350D01*
X26550Y-25350D02*
X31300Y-25350D01*
X24550Y-25350D02*
X25450Y-25350D01*
X20150Y-25350D02*
X23450Y-25350D01*
X16700Y-25350D02*
X19350Y-25350D01*
X32350Y-25300D02*
X34550Y-25300D01*
X26550Y-25300D02*
X31350Y-25300D01*
X24550Y-25300D02*
X25450Y-25300D01*
X20150Y-25300D02*
X23450Y-25300D01*
X16700Y-25300D02*
X19350Y-25300D01*
X32350Y-25250D02*
X34550Y-25250D01*
X26500Y-25250D02*
X31350Y-25250D01*
X24500Y-25250D02*
X25500Y-25250D01*
X20150Y-25250D02*
X23500Y-25250D01*
X16700Y-25250D02*
X19350Y-25250D01*
X32300Y-25200D02*
X34550Y-25200D01*
X26500Y-25200D02*
X31400Y-25200D01*
X24500Y-25200D02*
X25500Y-25200D01*
X20150Y-25200D02*
X23500Y-25200D01*
X16700Y-25200D02*
X19350Y-25200D01*
X32250Y-25150D02*
X34550Y-25150D01*
X26450Y-25150D02*
X31450Y-25150D01*
X24450Y-25150D02*
X25550Y-25150D01*
X20150Y-25150D02*
X23550Y-25150D01*
X16700Y-25150D02*
X19350Y-25150D01*
X32200Y-25100D02*
X34550Y-25100D01*
X26400Y-25100D02*
X31500Y-25100D01*
X24400Y-25100D02*
X25600Y-25100D01*
X20150Y-25100D02*
X23600Y-25100D01*
X16700Y-25100D02*
X19350Y-25100D01*
X32100Y-25050D02*
X34550Y-25050D01*
X26350Y-25050D02*
X31600Y-25050D01*
X24350Y-25050D02*
X25650Y-25050D01*
X20150Y-25050D02*
X23650Y-25050D01*
X16700Y-25050D02*
X19350Y-25050D01*
X26250Y-25000D02*
X34550Y-25000D01*
X24250Y-25000D02*
X25750Y-25000D01*
X20150Y-25000D02*
X23750Y-25000D01*
X16700Y-25000D02*
X19350Y-25000D01*
X20150Y-24950D02*
X34550Y-24950D01*
X16700Y-24950D02*
X19300Y-24950D01*
X20150Y-24900D02*
X34550Y-24900D01*
X16700Y-24900D02*
X19300Y-24900D01*
X20150Y-24850D02*
X34550Y-24850D01*
X16700Y-24850D02*
X19250Y-24850D01*
X20150Y-24800D02*
X34550Y-24800D01*
X16700Y-24800D02*
X19250Y-24800D01*
X20150Y-24750D02*
X34550Y-24750D01*
X16700Y-24750D02*
X19200Y-24750D01*
X20100Y-24700D02*
X34550Y-24700D01*
X16700Y-24700D02*
X19200Y-24700D01*
X20100Y-24650D02*
X34550Y-24650D01*
X16700Y-24650D02*
X19200Y-24650D01*
X20100Y-24600D02*
X34550Y-24600D01*
X16700Y-24600D02*
X19200Y-24600D01*
X20100Y-24550D02*
X34550Y-24550D01*
X16700Y-24550D02*
X19200Y-24550D01*
X20050Y-24500D02*
X34550Y-24500D01*
X16700Y-24500D02*
X19250Y-24500D01*
X20050Y-24450D02*
X34550Y-24450D01*
X16700Y-24450D02*
X19250Y-24450D01*
X20000Y-24400D02*
X34550Y-24400D01*
X16700Y-24400D02*
X19300Y-24400D01*
X20000Y-24350D02*
X34550Y-24350D01*
X16700Y-24350D02*
X19300Y-24350D01*
X19900Y-24300D02*
X34550Y-24300D01*
X16700Y-24300D02*
X19400Y-24300D01*
X19800Y-24250D02*
X34550Y-24250D01*
X16700Y-24250D02*
X19500Y-24250D01*
X16700Y-24200D02*
X34550Y-24200D01*
X16700Y-24150D02*
X34550Y-24150D01*
X16700Y-24100D02*
X34550Y-24100D01*
X16700Y-24050D02*
X34550Y-24050D01*
X16700Y-24000D02*
X34550Y-24000D01*
X16700Y-23950D02*
X34550Y-23950D01*
X16700Y-23900D02*
X34550Y-23900D01*
X16700Y-23850D02*
X34550Y-23850D01*
X16700Y-23800D02*
X34550Y-23800D01*
X16700Y-23750D02*
X34550Y-23750D01*
X16700Y-23700D02*
X34550Y-23700D01*
X16700Y-23650D02*
X34550Y-23650D01*
X16700Y-23600D02*
X34550Y-23600D01*
X16700Y-23550D02*
X34550Y-23550D01*
X16700Y-23500D02*
X34550Y-23500D01*
X16700Y-23450D02*
X34550Y-23450D01*
X16700Y-23400D02*
X34550Y-23400D01*
X16700Y-23350D02*
X34550Y-23350D01*
X16700Y-23300D02*
X34550Y-23300D01*
X16700Y-23250D02*
X34550Y-23250D01*
X16700Y-23200D02*
X34550Y-23200D01*
X16700Y-23150D02*
X34550Y-23150D01*
X16700Y-23100D02*
X34550Y-23100D01*
X16700Y-23050D02*
X34550Y-23050D01*
X16700Y-23000D02*
X34550Y-23000D01*
X16700Y-22950D02*
X34550Y-22950D01*
X16700Y-22900D02*
X34550Y-22900D01*
X16700Y-22850D02*
X34550Y-22850D01*
X16700Y-22800D02*
X34550Y-22800D01*
X16700Y-22750D02*
X34550Y-22750D01*
X16700Y-22700D02*
X34550Y-22700D01*
X16700Y-22650D02*
X34550Y-22650D01*
X16700Y-22600D02*
X34550Y-22600D01*
X16700Y-22550D02*
X34550Y-22550D01*
X16700Y-22500D02*
X34550Y-22500D01*
X16700Y-22450D02*
X34550Y-22450D01*
X16700Y-22400D02*
X34550Y-22400D01*
X16700Y-22350D02*
X34550Y-22350D01*
X16700Y-22300D02*
X34550Y-22300D01*
X16700Y-22250D02*
X34550Y-22250D01*
X16700Y-22200D02*
X34550Y-22200D01*
X16700Y-22150D02*
X34550Y-22150D01*
X16700Y-22100D02*
X34550Y-22100D01*
X16700Y-22050D02*
X34550Y-22050D01*
X16700Y-22000D02*
X34550Y-22000D01*
X16700Y-21950D02*
X34550Y-21950D01*
X16700Y-21900D02*
X34550Y-21900D01*
X16700Y-21850D02*
X34550Y-21850D01*
X16700Y-21800D02*
X34550Y-21800D01*
X16700Y-21750D02*
X34550Y-21750D01*
X16700Y-21700D02*
X34550Y-21700D01*
X34400Y-21850D02*
X34400Y-32400D01*
X34350Y-21850D02*
X34350Y-32400D01*
X34300Y-21850D02*
X34300Y-32400D01*
X34250Y-21850D02*
X34250Y-32400D01*
X34200Y-21850D02*
X34200Y-32400D01*
X34150Y-21850D02*
X34150Y-32400D01*
X34100Y-21850D02*
X34100Y-32400D01*
X34050Y-21850D02*
X34050Y-32400D01*
X34000Y-21850D02*
X34000Y-32400D01*
X33950Y-21850D02*
X33950Y-32400D01*
X33900Y-21850D02*
X33900Y-32400D01*
X33850Y-21850D02*
X33850Y-32400D01*
X33800Y-21850D02*
X33800Y-32400D01*
X33750Y-21850D02*
X33750Y-32400D01*
X33700Y-21850D02*
X33700Y-32400D01*
X33650Y-21850D02*
X33650Y-32400D01*
X33600Y-21850D02*
X33600Y-32400D01*
X33550Y-21850D02*
X33550Y-32400D01*
X33500Y-21850D02*
X33500Y-32400D01*
X33450Y-21850D02*
X33450Y-32400D01*
X33400Y-21850D02*
X33400Y-32400D01*
X33350Y-21850D02*
X33350Y-32400D01*
X33300Y-21850D02*
X33300Y-32400D01*
X33250Y-21850D02*
X33250Y-32400D01*
X33200Y-21850D02*
X33200Y-32400D01*
X33150Y-21850D02*
X33150Y-32400D01*
X33100Y-21850D02*
X33100Y-32400D01*
X33050Y-21850D02*
X33050Y-32400D01*
X33000Y-21850D02*
X33000Y-32400D01*
X32950Y-21850D02*
X32950Y-32400D01*
X32900Y-21850D02*
X32900Y-32400D01*
X32850Y-21850D02*
X32850Y-32400D01*
X32800Y-21850D02*
X32800Y-32400D01*
X32750Y-21850D02*
X32750Y-32400D01*
X32700Y-21850D02*
X32700Y-32400D01*
X32650Y-21850D02*
X32650Y-32400D01*
X32600Y-21850D02*
X32600Y-32400D01*
X32550Y-21850D02*
X32550Y-32400D01*
X32500Y-21850D02*
X32500Y-32400D01*
X32450Y-21850D02*
X32450Y-32400D01*
X32400Y-21850D02*
X32400Y-32400D01*
X32350Y-28800D02*
X32350Y-32400D01*
X32350Y-27800D02*
X32350Y-28300D01*
X32350Y-26800D02*
X32350Y-27300D01*
X32350Y-25800D02*
X32350Y-26300D01*
X32350Y-21850D02*
X32350Y-25300D01*
X32300Y-28900D02*
X32300Y-32400D01*
X32300Y-27900D02*
X32300Y-28200D01*
X32300Y-26900D02*
X32300Y-27200D01*
X32300Y-25900D02*
X32300Y-26200D01*
X32300Y-21850D02*
X32300Y-25200D01*
X32250Y-28950D02*
X32250Y-32400D01*
X32250Y-27950D02*
X32250Y-28150D01*
X32250Y-26950D02*
X32250Y-27150D01*
X32250Y-25950D02*
X32250Y-26150D01*
X32250Y-21850D02*
X32250Y-25150D01*
X32200Y-29000D02*
X32200Y-32400D01*
X32200Y-28000D02*
X32200Y-28100D01*
X32200Y-27000D02*
X32200Y-27100D01*
X32200Y-26000D02*
X32200Y-26100D01*
X32200Y-21850D02*
X32200Y-25100D01*
X32150Y-29050D02*
X32150Y-32400D01*
X32150Y-21850D02*
X32150Y-25050D01*
X32100Y-29050D02*
X32100Y-32400D01*
X32100Y-21850D02*
X32100Y-25050D01*
X32050Y-29100D02*
X32050Y-32400D01*
X32050Y-21850D02*
X32050Y-25000D01*
X32000Y-29100D02*
X32000Y-32400D01*
X32000Y-21850D02*
X32000Y-25000D01*
X31950Y-29100D02*
X31950Y-32400D01*
X31950Y-21850D02*
X31950Y-25000D01*
X31900Y-29100D02*
X31900Y-32400D01*
X31900Y-21850D02*
X31900Y-25000D01*
X31850Y-29100D02*
X31850Y-32400D01*
X31850Y-21850D02*
X31850Y-25000D01*
X31800Y-29100D02*
X31800Y-32400D01*
X31800Y-21850D02*
X31800Y-25000D01*
X31750Y-29100D02*
X31750Y-32400D01*
X31750Y-21850D02*
X31750Y-25000D01*
X31700Y-29100D02*
X31700Y-32400D01*
X31700Y-21850D02*
X31700Y-25000D01*
X31650Y-29100D02*
X31650Y-32400D01*
X31650Y-21850D02*
X31650Y-25000D01*
X31600Y-29050D02*
X31600Y-32400D01*
X31600Y-21850D02*
X31600Y-25050D01*
X31550Y-29050D02*
X31550Y-32400D01*
X31550Y-21850D02*
X31550Y-25050D01*
X31500Y-29000D02*
X31500Y-32400D01*
X31500Y-28000D02*
X31500Y-28100D01*
X31500Y-27000D02*
X31500Y-27100D01*
X31500Y-26000D02*
X31500Y-26100D01*
X31500Y-21850D02*
X31500Y-25100D01*
X31450Y-28950D02*
X31450Y-32400D01*
X31450Y-27950D02*
X31450Y-28150D01*
X31450Y-26950D02*
X31450Y-27150D01*
X31450Y-25950D02*
X31450Y-26150D01*
X31450Y-21850D02*
X31450Y-25150D01*
X31400Y-28900D02*
X31400Y-32400D01*
X31400Y-27900D02*
X31400Y-28200D01*
X31400Y-26900D02*
X31400Y-27200D01*
X31400Y-25900D02*
X31400Y-26200D01*
X31400Y-21850D02*
X31400Y-25200D01*
X31350Y-28800D02*
X31350Y-32400D01*
X31350Y-27800D02*
X31350Y-28300D01*
X31350Y-26800D02*
X31350Y-27300D01*
X31350Y-25800D02*
X31350Y-26300D01*
X31350Y-21850D02*
X31350Y-25300D01*
X31300Y-21850D02*
X31300Y-32400D01*
X31250Y-21850D02*
X31250Y-32400D01*
X31200Y-21850D02*
X31200Y-32400D01*
X31150Y-21850D02*
X31150Y-32400D01*
X31100Y-21850D02*
X31100Y-32400D01*
X31050Y-21850D02*
X31050Y-32400D01*
X31000Y-31150D02*
X31000Y-32400D01*
X31000Y-28250D02*
X31000Y-30850D01*
X31000Y-21850D02*
X31000Y-27950D01*
X30950Y-31250D02*
X30950Y-32400D01*
X30950Y-28350D02*
X30950Y-30750D01*
X30950Y-21850D02*
X30950Y-27850D01*
X30900Y-31350D02*
X30900Y-32400D01*
X30900Y-28450D02*
X30900Y-30650D01*
X30900Y-21850D02*
X30900Y-27750D01*
X30850Y-31350D02*
X30850Y-32400D01*
X30850Y-28450D02*
X30850Y-30650D01*
X30850Y-21850D02*
X30850Y-27750D01*
X30800Y-31400D02*
X30800Y-32400D01*
X30800Y-28500D02*
X30800Y-30600D01*
X30800Y-21850D02*
X30800Y-27700D01*
X30750Y-31400D02*
X30750Y-32400D01*
X30750Y-28500D02*
X30750Y-30600D01*
X30750Y-21850D02*
X30750Y-27700D01*
X30700Y-31450D02*
X30700Y-32400D01*
X30700Y-28550D02*
X30700Y-30550D01*
X30700Y-21850D02*
X30700Y-27650D01*
X30650Y-31450D02*
X30650Y-32400D01*
X30650Y-28550D02*
X30650Y-30550D01*
X30650Y-21850D02*
X30650Y-27650D01*
X30600Y-31450D02*
X30600Y-32400D01*
X30600Y-28550D02*
X30600Y-30550D01*
X30600Y-21850D02*
X30600Y-27650D01*
X30550Y-31450D02*
X30550Y-32400D01*
X30550Y-28550D02*
X30550Y-30550D01*
X30550Y-21850D02*
X30550Y-27650D01*
X30500Y-31450D02*
X30500Y-32400D01*
X30500Y-28600D02*
X30500Y-30550D01*
X30500Y-21850D02*
X30500Y-27650D01*
X30450Y-31400D02*
X30450Y-32400D01*
X30450Y-21850D02*
X30450Y-27700D01*
X30400Y-31400D02*
X30400Y-32400D01*
X30400Y-21850D02*
X30400Y-27700D01*
X30350Y-31350D02*
X30350Y-32400D01*
X30350Y-21850D02*
X30350Y-27750D01*
X30300Y-31350D02*
X30300Y-32400D01*
X30300Y-21850D02*
X30300Y-27750D01*
X30250Y-31250D02*
X30250Y-32400D01*
X30250Y-21850D02*
X30250Y-27850D01*
X30200Y-31150D02*
X30200Y-32400D01*
X30200Y-27550D02*
X30200Y-27950D01*
X30200Y-21850D02*
X30200Y-27250D01*
X30150Y-31050D02*
X30150Y-32400D01*
X30150Y-21850D02*
X30150Y-27150D01*
X30100Y-31000D02*
X30100Y-32400D01*
X30100Y-21850D02*
X30100Y-27050D01*
X30050Y-30950D02*
X30050Y-32400D01*
X30050Y-21850D02*
X30050Y-27050D01*
X30000Y-30900D02*
X30000Y-32400D01*
X30000Y-21850D02*
X30000Y-27000D01*
X29950Y-30800D02*
X29950Y-32400D01*
X29950Y-21850D02*
X29950Y-27000D01*
X29900Y-30800D02*
X29900Y-32400D01*
X29900Y-21850D02*
X29900Y-26950D01*
X29850Y-30800D02*
X29850Y-32400D01*
X29850Y-21850D02*
X29850Y-26950D01*
X29800Y-30850D02*
X29800Y-32400D01*
X29800Y-21850D02*
X29800Y-26950D01*
X29750Y-30800D02*
X29750Y-32400D01*
X29750Y-21850D02*
X29750Y-26950D01*
X29700Y-30800D02*
X29700Y-32400D01*
X29700Y-21850D02*
X29700Y-26950D01*
X29650Y-30800D02*
X29650Y-32400D01*
X29650Y-21850D02*
X29650Y-27000D01*
X29600Y-30750D02*
X29600Y-32400D01*
X29600Y-21850D02*
X29600Y-27000D01*
X29550Y-30700D02*
X29550Y-32400D01*
X29550Y-21850D02*
X29550Y-27000D01*
X29500Y-30650D02*
X29500Y-32400D01*
X29500Y-21850D02*
X29500Y-27000D01*
X29450Y-30500D02*
X29450Y-32400D01*
X29450Y-21850D02*
X29450Y-27000D01*
X29400Y-30400D02*
X29400Y-32400D01*
X29400Y-27800D02*
X29400Y-30100D01*
X29400Y-21850D02*
X29400Y-27000D01*
X29350Y-27800D02*
X29350Y-32400D01*
X29350Y-21850D02*
X29350Y-27000D01*
X29300Y-27800D02*
X29300Y-32400D01*
X29300Y-21850D02*
X29300Y-27000D01*
X29250Y-31700D02*
X29250Y-32400D01*
X29250Y-27800D02*
X29250Y-31200D01*
X29250Y-21850D02*
X29250Y-27000D01*
X29200Y-31800D02*
X29200Y-32400D01*
X29200Y-27800D02*
X29200Y-31100D01*
X29200Y-21850D02*
X29200Y-27000D01*
X29150Y-31850D02*
X29150Y-32400D01*
X29150Y-27800D02*
X29150Y-31050D01*
X29150Y-21850D02*
X29150Y-27000D01*
X29100Y-31900D02*
X29100Y-32400D01*
X29100Y-27800D02*
X29100Y-31000D01*
X29100Y-21850D02*
X29100Y-27000D01*
X29050Y-31950D02*
X29050Y-32400D01*
X29050Y-27800D02*
X29050Y-30950D01*
X29050Y-21850D02*
X29050Y-27000D01*
X29000Y-31950D02*
X29000Y-32400D01*
X29000Y-27800D02*
X29000Y-30950D01*
X29000Y-21850D02*
X29000Y-27000D01*
X28950Y-32000D02*
X28950Y-32400D01*
X28950Y-27800D02*
X28950Y-30900D01*
X28950Y-21850D02*
X28950Y-27000D01*
X28900Y-32000D02*
X28900Y-32400D01*
X28900Y-27800D02*
X28900Y-30900D01*
X28900Y-21850D02*
X28900Y-27000D01*
X28850Y-32000D02*
X28850Y-32400D01*
X28850Y-27800D02*
X28850Y-30900D01*
X28850Y-21850D02*
X28850Y-27000D01*
X28800Y-32000D02*
X28800Y-32400D01*
X28800Y-27800D02*
X28800Y-30900D01*
X28800Y-21850D02*
X28800Y-26950D01*
X28750Y-32000D02*
X28750Y-32400D01*
X28750Y-27800D02*
X28750Y-30900D01*
X28750Y-21850D02*
X28750Y-26900D01*
X28700Y-32000D02*
X28700Y-32400D01*
X28700Y-27750D02*
X28700Y-30900D01*
X28700Y-21850D02*
X28700Y-26850D01*
X28650Y-32000D02*
X28650Y-32400D01*
X28650Y-27750D02*
X28650Y-30900D01*
X28650Y-21850D02*
X28650Y-26800D01*
X28600Y-32000D02*
X28600Y-32400D01*
X28600Y-27750D02*
X28600Y-30900D01*
X28600Y-21850D02*
X28600Y-26750D01*
X28550Y-32000D02*
X28550Y-32400D01*
X28550Y-27700D02*
X28550Y-30850D01*
X28550Y-21850D02*
X28550Y-26700D01*
X28500Y-31950D02*
X28500Y-32400D01*
X28500Y-27650D02*
X28500Y-30800D01*
X28500Y-21850D02*
X28500Y-26650D01*
X28450Y-31950D02*
X28450Y-32400D01*
X28450Y-27600D02*
X28450Y-30750D01*
X28450Y-21850D02*
X28450Y-26600D01*
X28400Y-31900D02*
X28400Y-32400D01*
X28400Y-27550D02*
X28400Y-30700D01*
X28400Y-21850D02*
X28400Y-26550D01*
X28350Y-31850D02*
X28350Y-32400D01*
X28350Y-27500D02*
X28350Y-30650D01*
X28350Y-21850D02*
X28350Y-26500D01*
X28300Y-31800D02*
X28300Y-32400D01*
X28300Y-27450D02*
X28300Y-30600D01*
X28300Y-21850D02*
X28300Y-26500D01*
X28250Y-31700D02*
X28250Y-32400D01*
X28250Y-27400D02*
X28250Y-30550D01*
X28250Y-21850D02*
X28250Y-26500D01*
X28200Y-31800D02*
X28200Y-32400D01*
X28200Y-27350D02*
X28200Y-30500D01*
X28200Y-21850D02*
X28200Y-26450D01*
X28150Y-31850D02*
X28150Y-32400D01*
X28150Y-27300D02*
X28150Y-30450D01*
X28150Y-21850D02*
X28150Y-26450D01*
X28100Y-31900D02*
X28100Y-32400D01*
X28100Y-27250D02*
X28100Y-30400D01*
X28100Y-21850D02*
X28100Y-26450D01*
X28050Y-31950D02*
X28050Y-32400D01*
X28050Y-27250D02*
X28050Y-30350D01*
X28050Y-21850D02*
X28050Y-26450D01*
X28000Y-31950D02*
X28000Y-32400D01*
X28000Y-27250D02*
X28000Y-30300D01*
X28000Y-21850D02*
X28000Y-26450D01*
X27950Y-32000D02*
X27950Y-32400D01*
X27950Y-27250D02*
X27950Y-30250D01*
X27950Y-21850D02*
X27950Y-26450D01*
X27900Y-32000D02*
X27900Y-32400D01*
X27900Y-27250D02*
X27900Y-30250D01*
X27900Y-21850D02*
X27900Y-26450D01*
X27850Y-32000D02*
X27850Y-32400D01*
X27850Y-27250D02*
X27850Y-30200D01*
X27850Y-21850D02*
X27850Y-26450D01*
X27800Y-32000D02*
X27800Y-32400D01*
X27800Y-27250D02*
X27800Y-30200D01*
X27800Y-21850D02*
X27800Y-26450D01*
X27750Y-32000D02*
X27750Y-32400D01*
X27750Y-27250D02*
X27750Y-30200D01*
X27750Y-21850D02*
X27750Y-26450D01*
X27700Y-32000D02*
X27700Y-32400D01*
X27700Y-27250D02*
X27700Y-30200D01*
X27700Y-21850D02*
X27700Y-26450D01*
X27650Y-32000D02*
X27650Y-32400D01*
X27650Y-27250D02*
X27650Y-30200D01*
X27650Y-21850D02*
X27650Y-26450D01*
X27600Y-32000D02*
X27600Y-32400D01*
X27600Y-27250D02*
X27600Y-30200D01*
X27600Y-21850D02*
X27600Y-26450D01*
X27550Y-32000D02*
X27550Y-32400D01*
X27550Y-27250D02*
X27550Y-30200D01*
X27550Y-21850D02*
X27550Y-26450D01*
X27500Y-31950D02*
X27500Y-32400D01*
X27500Y-27250D02*
X27500Y-30200D01*
X27500Y-21850D02*
X27500Y-26450D01*
X27450Y-31950D02*
X27450Y-32400D01*
X27450Y-27250D02*
X27450Y-30200D01*
X27450Y-21850D02*
X27450Y-26450D01*
X27400Y-31900D02*
X27400Y-32400D01*
X27400Y-27250D02*
X27400Y-30200D01*
X27400Y-21850D02*
X27400Y-26450D01*
X27350Y-31850D02*
X27350Y-32400D01*
X27350Y-27250D02*
X27350Y-30200D01*
X27350Y-21850D02*
X27350Y-26450D01*
X27300Y-31800D02*
X27300Y-32400D01*
X27300Y-27250D02*
X27300Y-30200D01*
X27300Y-21850D02*
X27300Y-26450D01*
X27250Y-31700D02*
X27250Y-32400D01*
X27250Y-27250D02*
X27250Y-30200D01*
X27250Y-21850D02*
X27250Y-26450D01*
X27200Y-31800D02*
X27200Y-32400D01*
X27200Y-27550D02*
X27200Y-30200D01*
X27200Y-21850D02*
X27200Y-26450D01*
X27150Y-31850D02*
X27150Y-32400D01*
X27150Y-27650D02*
X27150Y-30150D01*
X27150Y-21850D02*
X27150Y-26450D01*
X27100Y-31900D02*
X27100Y-32400D01*
X27100Y-27750D02*
X27100Y-30100D01*
X27100Y-21850D02*
X27100Y-26450D01*
X27050Y-31950D02*
X27050Y-32400D01*
X27050Y-21850D02*
X27050Y-26450D01*
X27000Y-31950D02*
X27000Y-32400D01*
X27000Y-21850D02*
X27000Y-26450D01*
X26950Y-32000D02*
X26950Y-32400D01*
X26950Y-21850D02*
X26950Y-26450D01*
X26900Y-32000D02*
X26900Y-32400D01*
X26900Y-21850D02*
X26900Y-26450D01*
X26850Y-32000D02*
X26850Y-32400D01*
X26850Y-21850D02*
X26850Y-26450D01*
X26800Y-32000D02*
X26800Y-32400D01*
X26800Y-21850D02*
X26800Y-26450D01*
X26750Y-32000D02*
X26750Y-32400D01*
X26750Y-21850D02*
X26750Y-26450D01*
X26700Y-32000D02*
X26700Y-32400D01*
X26700Y-21850D02*
X26700Y-26450D01*
X26650Y-32000D02*
X26650Y-32400D01*
X26650Y-21850D02*
X26650Y-26450D01*
X26600Y-32000D02*
X26600Y-32400D01*
X26600Y-21850D02*
X26600Y-26450D01*
X26550Y-32000D02*
X26550Y-32400D01*
X26550Y-21850D02*
X26550Y-26450D01*
X26500Y-31950D02*
X26500Y-32400D01*
X26500Y-25750D02*
X26500Y-26450D01*
X26500Y-21850D02*
X26500Y-25250D01*
X26450Y-31950D02*
X26450Y-32400D01*
X26450Y-25850D02*
X26450Y-26450D01*
X26450Y-21850D02*
X26450Y-25150D01*
X26400Y-31900D02*
X26400Y-32400D01*
X26400Y-25900D02*
X26400Y-26450D01*
X26400Y-21850D02*
X26400Y-25100D01*
X26350Y-31850D02*
X26350Y-32400D01*
X26350Y-25950D02*
X26350Y-26450D01*
X26350Y-21850D02*
X26350Y-25050D01*
X26300Y-31800D02*
X26300Y-32400D01*
X26300Y-26000D02*
X26300Y-26450D01*
X26300Y-21850D02*
X26300Y-25000D01*
X26250Y-31700D02*
X26250Y-32400D01*
X26250Y-26000D02*
X26250Y-26450D01*
X26250Y-21850D02*
X26250Y-25000D01*
X26200Y-31800D02*
X26200Y-32400D01*
X26200Y-26050D02*
X26200Y-26450D01*
X26200Y-21850D02*
X26200Y-24950D01*
X26150Y-31850D02*
X26150Y-32400D01*
X26150Y-26050D02*
X26150Y-26450D01*
X26150Y-21850D02*
X26150Y-24950D01*
X26100Y-31900D02*
X26100Y-32400D01*
X26100Y-27900D02*
X26100Y-30400D01*
X26100Y-26050D02*
X26100Y-26450D01*
X26100Y-21850D02*
X26100Y-24950D01*
X26050Y-31950D02*
X26050Y-32400D01*
X26050Y-27850D02*
X26050Y-30400D01*
X26050Y-26050D02*
X26050Y-26450D01*
X26050Y-21850D02*
X26050Y-24950D01*
X26000Y-31950D02*
X26000Y-32400D01*
X26000Y-27800D02*
X26000Y-30400D01*
X26000Y-26050D02*
X26000Y-26450D01*
X26000Y-21850D02*
X26000Y-24950D01*
X25950Y-32000D02*
X25950Y-32400D01*
X25950Y-27750D02*
X25950Y-30400D01*
X25950Y-26050D02*
X25950Y-26450D01*
X25950Y-21850D02*
X25950Y-24950D01*
X25900Y-32000D02*
X25900Y-32400D01*
X25900Y-27600D02*
X25900Y-30400D01*
X25900Y-26050D02*
X25900Y-26450D01*
X25900Y-21850D02*
X25900Y-24950D01*
X25850Y-32000D02*
X25850Y-32400D01*
X25850Y-27250D02*
X25850Y-30400D01*
X25850Y-26050D02*
X25850Y-26450D01*
X25850Y-21850D02*
X25850Y-24950D01*
X25800Y-32000D02*
X25800Y-32400D01*
X25800Y-27250D02*
X25800Y-30400D01*
X25800Y-26050D02*
X25800Y-26450D01*
X25800Y-21850D02*
X25800Y-24950D01*
X25750Y-32000D02*
X25750Y-32400D01*
X25750Y-27250D02*
X25750Y-30400D01*
X25750Y-26000D02*
X25750Y-26450D01*
X25750Y-21850D02*
X25750Y-25000D01*
X25700Y-32000D02*
X25700Y-32400D01*
X25700Y-27250D02*
X25700Y-30400D01*
X25700Y-26000D02*
X25700Y-26450D01*
X25700Y-21850D02*
X25700Y-25000D01*
X25650Y-32000D02*
X25650Y-32400D01*
X25650Y-27250D02*
X25650Y-30400D01*
X25650Y-25950D02*
X25650Y-26450D01*
X25650Y-21850D02*
X25650Y-25050D01*
X25600Y-32000D02*
X25600Y-32400D01*
X25600Y-27250D02*
X25600Y-30400D01*
X25600Y-25900D02*
X25600Y-26450D01*
X25600Y-21850D02*
X25600Y-25100D01*
X25550Y-32000D02*
X25550Y-32400D01*
X25550Y-27250D02*
X25550Y-30400D01*
X25550Y-25850D02*
X25550Y-26450D01*
X25550Y-21850D02*
X25550Y-25150D01*
X25500Y-31950D02*
X25500Y-32400D01*
X25500Y-27250D02*
X25500Y-30400D01*
X25500Y-25750D02*
X25500Y-26450D01*
X25500Y-21850D02*
X25500Y-25250D01*
X25450Y-31950D02*
X25450Y-32400D01*
X25450Y-27250D02*
X25450Y-30400D01*
X25450Y-21850D02*
X25450Y-26450D01*
X25400Y-31900D02*
X25400Y-32400D01*
X25400Y-27250D02*
X25400Y-30400D01*
X25400Y-21850D02*
X25400Y-26450D01*
X25350Y-31850D02*
X25350Y-32400D01*
X25350Y-27250D02*
X25350Y-30400D01*
X25350Y-21850D02*
X25350Y-26450D01*
X25300Y-31800D02*
X25300Y-32400D01*
X25300Y-27250D02*
X25300Y-30400D01*
X25300Y-21850D02*
X25300Y-26450D01*
X25250Y-31700D02*
X25250Y-32400D01*
X25250Y-27250D02*
X25250Y-30400D01*
X25250Y-21850D02*
X25250Y-26450D01*
X25200Y-31200D02*
X25200Y-32400D01*
X25200Y-27250D02*
X25200Y-30400D01*
X25200Y-21850D02*
X25200Y-26450D01*
X25150Y-31200D02*
X25150Y-32400D01*
X25150Y-27250D02*
X25150Y-30400D01*
X25150Y-21850D02*
X25150Y-26450D01*
X25100Y-31200D02*
X25100Y-32400D01*
X25100Y-27250D02*
X25100Y-30400D01*
X25100Y-21850D02*
X25100Y-26450D01*
X25050Y-31200D02*
X25050Y-32400D01*
X25050Y-27250D02*
X25050Y-30400D01*
X25050Y-21850D02*
X25050Y-26450D01*
X25000Y-31200D02*
X25000Y-32400D01*
X25000Y-27250D02*
X25000Y-30400D01*
X25000Y-21850D02*
X25000Y-26450D01*
X24950Y-31200D02*
X24950Y-32400D01*
X24950Y-27250D02*
X24950Y-30400D01*
X24950Y-21850D02*
X24950Y-26450D01*
X24900Y-31200D02*
X24900Y-32400D01*
X24900Y-27250D02*
X24900Y-30400D01*
X24900Y-21850D02*
X24900Y-26450D01*
X24850Y-31200D02*
X24850Y-32400D01*
X24850Y-27250D02*
X24850Y-30400D01*
X24850Y-21850D02*
X24850Y-26450D01*
X24800Y-31200D02*
X24800Y-32400D01*
X24800Y-27250D02*
X24800Y-30400D01*
X24800Y-21850D02*
X24800Y-26450D01*
X24750Y-31200D02*
X24750Y-32400D01*
X24750Y-27250D02*
X24750Y-30400D01*
X24750Y-21850D02*
X24750Y-26450D01*
X24700Y-31200D02*
X24700Y-32400D01*
X24700Y-27250D02*
X24700Y-30400D01*
X24700Y-21850D02*
X24700Y-26450D01*
X24650Y-31200D02*
X24650Y-32400D01*
X24650Y-27250D02*
X24650Y-30400D01*
X24650Y-21850D02*
X24650Y-26450D01*
X24600Y-31200D02*
X24600Y-32400D01*
X24600Y-27250D02*
X24600Y-30400D01*
X24600Y-21850D02*
X24600Y-26450D01*
X24550Y-31200D02*
X24550Y-32400D01*
X24550Y-27250D02*
X24550Y-30400D01*
X24550Y-21850D02*
X24550Y-26450D01*
X24500Y-31200D02*
X24500Y-32400D01*
X24500Y-27250D02*
X24500Y-30400D01*
X24500Y-25750D02*
X24500Y-26450D01*
X24500Y-21850D02*
X24500Y-25250D01*
X24450Y-31200D02*
X24450Y-32400D01*
X24450Y-27250D02*
X24450Y-30400D01*
X24450Y-25850D02*
X24450Y-26450D01*
X24450Y-21850D02*
X24450Y-25150D01*
X24400Y-31200D02*
X24400Y-32400D01*
X24400Y-27250D02*
X24400Y-30400D01*
X24400Y-25900D02*
X24400Y-26450D01*
X24400Y-21850D02*
X24400Y-25100D01*
X24350Y-31200D02*
X24350Y-32400D01*
X24350Y-27250D02*
X24350Y-30400D01*
X24350Y-25950D02*
X24350Y-26450D01*
X24350Y-21850D02*
X24350Y-25050D01*
X24300Y-31250D02*
X24300Y-32400D01*
X24300Y-27250D02*
X24300Y-30400D01*
X24300Y-26000D02*
X24300Y-26450D01*
X24300Y-21850D02*
X24300Y-25000D01*
X24250Y-31350D02*
X24250Y-32400D01*
X24250Y-27250D02*
X24250Y-30400D01*
X24250Y-26000D02*
X24250Y-26450D01*
X24250Y-21850D02*
X24250Y-25000D01*
X24200Y-31450D02*
X24200Y-32400D01*
X24200Y-27250D02*
X24200Y-30400D01*
X24200Y-26050D02*
X24200Y-26450D01*
X24200Y-21850D02*
X24200Y-24950D01*
X24150Y-31450D02*
X24150Y-32400D01*
X24150Y-27250D02*
X24150Y-30450D01*
X24150Y-26050D02*
X24150Y-26450D01*
X24150Y-21850D02*
X24150Y-24950D01*
X24100Y-31500D02*
X24100Y-32400D01*
X24100Y-27250D02*
X24100Y-30450D01*
X24100Y-26050D02*
X24100Y-26450D01*
X24100Y-21850D02*
X24100Y-24950D01*
X24050Y-31500D02*
X24050Y-32400D01*
X24050Y-27250D02*
X24050Y-30450D01*
X24050Y-26050D02*
X24050Y-26450D01*
X24050Y-21850D02*
X24050Y-24950D01*
X24000Y-31550D02*
X24000Y-32400D01*
X24000Y-27250D02*
X24000Y-30500D01*
X24000Y-26050D02*
X24000Y-26450D01*
X24000Y-21850D02*
X24000Y-24950D01*
X23950Y-31550D02*
X23950Y-32400D01*
X23950Y-27250D02*
X23950Y-30550D01*
X23950Y-26050D02*
X23950Y-26450D01*
X23950Y-21850D02*
X23950Y-24950D01*
X23900Y-31550D02*
X23900Y-32400D01*
X23900Y-27250D02*
X23900Y-30600D01*
X23900Y-26050D02*
X23900Y-26450D01*
X23900Y-21850D02*
X23900Y-24950D01*
X23850Y-31550D02*
X23850Y-32400D01*
X23850Y-27250D02*
X23850Y-30650D01*
X23850Y-26050D02*
X23850Y-26450D01*
X23850Y-21850D02*
X23850Y-24950D01*
X23800Y-31550D02*
X23800Y-32400D01*
X23800Y-27250D02*
X23800Y-30650D01*
X23800Y-26050D02*
X23800Y-26450D01*
X23800Y-21850D02*
X23800Y-24950D01*
X23750Y-31500D02*
X23750Y-32400D01*
X23750Y-27250D02*
X23750Y-30700D01*
X23750Y-26000D02*
X23750Y-26450D01*
X23750Y-21850D02*
X23750Y-25000D01*
X23700Y-31500D02*
X23700Y-32400D01*
X23700Y-27250D02*
X23700Y-30700D01*
X23700Y-26000D02*
X23700Y-26450D01*
X23700Y-21850D02*
X23700Y-25000D01*
X23650Y-31450D02*
X23650Y-32400D01*
X23650Y-27250D02*
X23650Y-30750D01*
X23650Y-25950D02*
X23650Y-26450D01*
X23650Y-21850D02*
X23650Y-25050D01*
X23600Y-31450D02*
X23600Y-32400D01*
X23600Y-27250D02*
X23600Y-30750D01*
X23600Y-25900D02*
X23600Y-26450D01*
X23600Y-21850D02*
X23600Y-25100D01*
X23550Y-31350D02*
X23550Y-32400D01*
X23550Y-27250D02*
X23550Y-30850D01*
X23550Y-25850D02*
X23550Y-26450D01*
X23550Y-21850D02*
X23550Y-25150D01*
X23500Y-31250D02*
X23500Y-32400D01*
X23500Y-27250D02*
X23500Y-30950D01*
X23500Y-25750D02*
X23500Y-26450D01*
X23500Y-21850D02*
X23500Y-25250D01*
X23450Y-27250D02*
X23450Y-32400D01*
X23450Y-21850D02*
X23450Y-26450D01*
X23400Y-27250D02*
X23400Y-32400D01*
X23400Y-21850D02*
X23400Y-26450D01*
X23350Y-27250D02*
X23350Y-32400D01*
X23350Y-21850D02*
X23350Y-26450D01*
X23300Y-27250D02*
X23300Y-32400D01*
X23300Y-21850D02*
X23300Y-26450D01*
X23250Y-27250D02*
X23250Y-32400D01*
X23250Y-21850D02*
X23250Y-26450D01*
X23200Y-27250D02*
X23200Y-32400D01*
X23200Y-21850D02*
X23200Y-26450D01*
X23150Y-27250D02*
X23150Y-32400D01*
X23150Y-21850D02*
X23150Y-26450D01*
X23100Y-27250D02*
X23100Y-32400D01*
X23100Y-21850D02*
X23100Y-26450D01*
X23050Y-27250D02*
X23050Y-32400D01*
X23050Y-21850D02*
X23050Y-26450D01*
X23000Y-27250D02*
X23000Y-32400D01*
X23000Y-21850D02*
X23000Y-26450D01*
X22950Y-27250D02*
X22950Y-32400D01*
X22950Y-21850D02*
X22950Y-26450D01*
X22900Y-27250D02*
X22900Y-32400D01*
X22900Y-21850D02*
X22900Y-26450D01*
X22850Y-27250D02*
X22850Y-32400D01*
X22850Y-21850D02*
X22850Y-26450D01*
X22800Y-27250D02*
X22800Y-32400D01*
X22800Y-21850D02*
X22800Y-26450D01*
X22750Y-27250D02*
X22750Y-32400D01*
X22750Y-21850D02*
X22750Y-26450D01*
X22700Y-27250D02*
X22700Y-32400D01*
X22700Y-21850D02*
X22700Y-26450D01*
X22650Y-27250D02*
X22650Y-32400D01*
X22650Y-21850D02*
X22650Y-26450D01*
X22600Y-27250D02*
X22600Y-32400D01*
X22600Y-21850D02*
X22600Y-26450D01*
X22550Y-27250D02*
X22550Y-32400D01*
X22550Y-21850D02*
X22550Y-26450D01*
X22500Y-27250D02*
X22500Y-32400D01*
X22500Y-21850D02*
X22500Y-26450D01*
X22450Y-27250D02*
X22450Y-32400D01*
X22450Y-21850D02*
X22450Y-26450D01*
X22400Y-27250D02*
X22400Y-32400D01*
X22400Y-21850D02*
X22400Y-26450D01*
X22350Y-27250D02*
X22350Y-32400D01*
X22350Y-21850D02*
X22350Y-26450D01*
X22300Y-27250D02*
X22300Y-32400D01*
X22300Y-21850D02*
X22300Y-26450D01*
X22250Y-27250D02*
X22250Y-32400D01*
X22250Y-21850D02*
X22250Y-26450D01*
X22200Y-27250D02*
X22200Y-32400D01*
X22200Y-21850D02*
X22200Y-26450D01*
X22150Y-27250D02*
X22150Y-32400D01*
X22150Y-21850D02*
X22150Y-26450D01*
X22100Y-27250D02*
X22100Y-32400D01*
X22100Y-21850D02*
X22100Y-26450D01*
X22050Y-27250D02*
X22050Y-32400D01*
X22050Y-21850D02*
X22050Y-26450D01*
X22000Y-27250D02*
X22000Y-32400D01*
X22000Y-21850D02*
X22000Y-26450D01*
X21950Y-27250D02*
X21950Y-32400D01*
X21950Y-21850D02*
X21950Y-26450D01*
X21900Y-27250D02*
X21900Y-32400D01*
X21900Y-21850D02*
X21900Y-26450D01*
X21850Y-27250D02*
X21850Y-32400D01*
X21850Y-21850D02*
X21850Y-26450D01*
X21800Y-27250D02*
X21800Y-32400D01*
X21800Y-21850D02*
X21800Y-26450D01*
X21750Y-27250D02*
X21750Y-32400D01*
X21750Y-21850D02*
X21750Y-26450D01*
X21700Y-27250D02*
X21700Y-32400D01*
X21700Y-21850D02*
X21700Y-26450D01*
X21650Y-27250D02*
X21650Y-32400D01*
X21650Y-21850D02*
X21650Y-26450D01*
X21600Y-27250D02*
X21600Y-32400D01*
X21600Y-21850D02*
X21600Y-26450D01*
X21550Y-27250D02*
X21550Y-32400D01*
X21550Y-21850D02*
X21550Y-26450D01*
X21500Y-27250D02*
X21500Y-32400D01*
X21500Y-21850D02*
X21500Y-26450D01*
X21450Y-27250D02*
X21450Y-32400D01*
X21450Y-21850D02*
X21450Y-26450D01*
X21400Y-27250D02*
X21400Y-32400D01*
X21400Y-21850D02*
X21400Y-26450D01*
X21350Y-27250D02*
X21350Y-32400D01*
X21350Y-21850D02*
X21350Y-26450D01*
X21300Y-27250D02*
X21300Y-32400D01*
X21300Y-21850D02*
X21300Y-26450D01*
X21250Y-27250D02*
X21250Y-32400D01*
X21250Y-21850D02*
X21250Y-26450D01*
X21200Y-27250D02*
X21200Y-32400D01*
X21200Y-21850D02*
X21200Y-26450D01*
X21150Y-27250D02*
X21150Y-32400D01*
X21150Y-21850D02*
X21150Y-26450D01*
X21100Y-27250D02*
X21100Y-32400D01*
X21100Y-21850D02*
X21100Y-26450D01*
X21050Y-27250D02*
X21050Y-32400D01*
X21050Y-21850D02*
X21050Y-26450D01*
X21000Y-27250D02*
X21000Y-32400D01*
X21000Y-21850D02*
X21000Y-26450D01*
X20950Y-27250D02*
X20950Y-32400D01*
X20950Y-21850D02*
X20950Y-26450D01*
X20900Y-27250D02*
X20900Y-32400D01*
X20900Y-21850D02*
X20900Y-26450D01*
X20850Y-27250D02*
X20850Y-32400D01*
X20850Y-21850D02*
X20850Y-26450D01*
X20800Y-27250D02*
X20800Y-32400D01*
X20800Y-21850D02*
X20800Y-26450D01*
X20750Y-27250D02*
X20750Y-32400D01*
X20750Y-21850D02*
X20750Y-26450D01*
X20700Y-27250D02*
X20700Y-32400D01*
X20700Y-21850D02*
X20700Y-26450D01*
X20650Y-27250D02*
X20650Y-32400D01*
X20650Y-21850D02*
X20650Y-26450D01*
X20600Y-27250D02*
X20600Y-32400D01*
X20600Y-21850D02*
X20600Y-26450D01*
X20550Y-27250D02*
X20550Y-32400D01*
X20550Y-21850D02*
X20550Y-26450D01*
X20500Y-27250D02*
X20500Y-32400D01*
X20500Y-21850D02*
X20500Y-26450D01*
X20450Y-27250D02*
X20450Y-32400D01*
X20450Y-21850D02*
X20450Y-26450D01*
X20400Y-27250D02*
X20400Y-32400D01*
X20400Y-21850D02*
X20400Y-26450D01*
X20350Y-27250D02*
X20350Y-32400D01*
X20350Y-21850D02*
X20350Y-26450D01*
X20300Y-27250D02*
X20300Y-32400D01*
X20300Y-21850D02*
X20300Y-26450D01*
X20250Y-27300D02*
X20250Y-32400D01*
X20250Y-21850D02*
X20250Y-26450D01*
X20200Y-28450D02*
X20200Y-32400D01*
X20200Y-27500D02*
X20200Y-28000D01*
X20200Y-21850D02*
X20200Y-26450D01*
X20150Y-28550D02*
X20150Y-32400D01*
X20150Y-27550D02*
X20150Y-27950D01*
X20150Y-21850D02*
X20150Y-26500D01*
X20100Y-28600D02*
X20100Y-32400D01*
X20100Y-27650D02*
X20100Y-27850D01*
X20100Y-21850D02*
X20100Y-24700D01*
X20050Y-28650D02*
X20050Y-32400D01*
X20050Y-27700D02*
X20050Y-27800D01*
X20050Y-21850D02*
X20050Y-24500D01*
X20000Y-28700D02*
X20000Y-32400D01*
X20000Y-27700D02*
X20000Y-27800D01*
X20000Y-21850D02*
X20000Y-24400D01*
X19950Y-28700D02*
X19950Y-32400D01*
X19950Y-21850D02*
X19950Y-24300D01*
X19900Y-28750D02*
X19900Y-32400D01*
X19900Y-21850D02*
X19900Y-24300D01*
X19850Y-28750D02*
X19850Y-32400D01*
X19850Y-21850D02*
X19850Y-24250D01*
X19800Y-28750D02*
X19800Y-32400D01*
X19800Y-21850D02*
X19800Y-24250D01*
X19750Y-28750D02*
X19750Y-32400D01*
X19750Y-21850D02*
X19750Y-24200D01*
X19700Y-28750D02*
X19700Y-32400D01*
X19700Y-21850D02*
X19700Y-24200D01*
X19650Y-28750D02*
X19650Y-32400D01*
X19650Y-21850D02*
X19650Y-24200D01*
X19600Y-28750D02*
X19600Y-32400D01*
X19600Y-21850D02*
X19600Y-24200D01*
X19550Y-28700D02*
X19550Y-32400D01*
X19550Y-21850D02*
X19550Y-24200D01*
X19500Y-28700D02*
X19500Y-32400D01*
X19500Y-27700D02*
X19500Y-27800D01*
X19500Y-21850D02*
X19500Y-24250D01*
X19450Y-28650D02*
X19450Y-32400D01*
X19450Y-27700D02*
X19450Y-27800D01*
X19450Y-21850D02*
X19450Y-24250D01*
X19400Y-28600D02*
X19400Y-32400D01*
X19400Y-27650D02*
X19400Y-27850D01*
X19400Y-21850D02*
X19400Y-24300D01*
X19350Y-28550D02*
X19350Y-32400D01*
X19350Y-27550D02*
X19350Y-27900D01*
X19350Y-25000D02*
X19350Y-26950D01*
X19350Y-21850D02*
X19350Y-24300D01*
X19300Y-28650D02*
X19300Y-32400D01*
X19300Y-27500D02*
X19300Y-27850D01*
X19300Y-24900D02*
X19300Y-27050D01*
X19300Y-21850D02*
X19300Y-24400D01*
X19250Y-28650D02*
X19250Y-32400D01*
X19250Y-24800D02*
X19250Y-27800D01*
X19250Y-21850D02*
X19250Y-24500D01*
X19200Y-28700D02*
X19200Y-32400D01*
X19200Y-21850D02*
X19200Y-27800D01*
X19150Y-28700D02*
X19150Y-32400D01*
X19150Y-21850D02*
X19150Y-27750D01*
X19100Y-28750D02*
X19100Y-32400D01*
X19100Y-21850D02*
X19100Y-27750D01*
X19050Y-28750D02*
X19050Y-32400D01*
X19050Y-21850D02*
X19050Y-27750D01*
X19000Y-28750D02*
X19000Y-32400D01*
X19000Y-21850D02*
X19000Y-27700D01*
X18950Y-28750D02*
X18950Y-32400D01*
X18950Y-21850D02*
X18950Y-27700D01*
X18900Y-28750D02*
X18900Y-32400D01*
X18900Y-21850D02*
X18900Y-27750D01*
X18850Y-28750D02*
X18850Y-32400D01*
X18850Y-21850D02*
X18850Y-27750D01*
X18800Y-28750D02*
X18800Y-32400D01*
X18800Y-21850D02*
X18800Y-27750D01*
X18750Y-28700D02*
X18750Y-32400D01*
X18750Y-21850D02*
X18750Y-27750D01*
X18700Y-28700D02*
X18700Y-32400D01*
X18700Y-21850D02*
X18700Y-27800D01*
X18650Y-28650D02*
X18650Y-32400D01*
X18650Y-21850D02*
X18650Y-27850D01*
X18600Y-28600D02*
X18600Y-32400D01*
X18600Y-21850D02*
X18600Y-27900D01*
X18550Y-28550D02*
X18550Y-32400D01*
X18550Y-21850D02*
X18550Y-27950D01*
X18500Y-28450D02*
X18500Y-32400D01*
X18500Y-21850D02*
X18500Y-28050D01*
X18450Y-21850D02*
X18450Y-32400D01*
X18400Y-21850D02*
X18400Y-32400D01*
X18350Y-21850D02*
X18350Y-32400D01*
X18300Y-21850D02*
X18300Y-32400D01*
X18250Y-21850D02*
X18250Y-32400D01*
X18200Y-21850D02*
X18200Y-32400D01*
X18150Y-21850D02*
X18150Y-32400D01*
X18100Y-21850D02*
X18100Y-32400D01*
X18050Y-21850D02*
X18050Y-32400D01*
X18000Y-21850D02*
X18000Y-32400D01*
X17950Y-21850D02*
X17950Y-32400D01*
X17900Y-21850D02*
X17900Y-32400D01*
X17850Y-21850D02*
X17850Y-32400D01*
X17800Y-21850D02*
X17800Y-32400D01*
X17750Y-21850D02*
X17750Y-32400D01*
X17700Y-21850D02*
X17700Y-32400D01*
X17650Y-21850D02*
X17650Y-32400D01*
X17600Y-21850D02*
X17600Y-32400D01*
X17550Y-21850D02*
X17550Y-32400D01*
X17500Y-21850D02*
X17500Y-32400D01*
X17450Y-21850D02*
X17450Y-32400D01*
X17400Y-21850D02*
X17400Y-32400D01*
X17350Y-21850D02*
X17350Y-32400D01*
X17300Y-21850D02*
X17300Y-32400D01*
X17250Y-21850D02*
X17250Y-32400D01*
X17200Y-21850D02*
X17200Y-32400D01*
X17150Y-21850D02*
X17150Y-32400D01*
X17100Y-21850D02*
X17100Y-32400D01*
X17050Y-21850D02*
X17050Y-32400D01*
X17000Y-21850D02*
X17000Y-32400D01*
X16950Y-21850D02*
X16950Y-32400D01*
X16900Y-21850D02*
X16900Y-32400D01*
X16850Y-21850D02*
X16850Y-32400D01*
X16850Y-32400D02*
X34400Y-32400D01*
X16850Y-32350D02*
X34400Y-32350D01*
X16850Y-32300D02*
X34400Y-32300D01*
X16850Y-32250D02*
X34400Y-32250D01*
X16850Y-32200D02*
X34400Y-32200D01*
X16850Y-32150D02*
X34400Y-32150D01*
X16850Y-32100D02*
X34400Y-32100D01*
X16850Y-32050D02*
X34400Y-32050D01*
X16850Y-32000D02*
X34400Y-32000D01*
X29000Y-31950D02*
X34400Y-31950D01*
X28000Y-31950D02*
X28500Y-31950D01*
X27000Y-31950D02*
X27500Y-31950D01*
X26000Y-31950D02*
X26500Y-31950D01*
X16850Y-31950D02*
X25500Y-31950D01*
X29100Y-31900D02*
X34400Y-31900D01*
X28100Y-31900D02*
X28400Y-31900D01*
X27100Y-31900D02*
X27400Y-31900D01*
X26100Y-31900D02*
X26400Y-31900D01*
X16850Y-31900D02*
X25400Y-31900D01*
X29150Y-31850D02*
X34400Y-31850D01*
X28150Y-31850D02*
X28350Y-31850D01*
X27150Y-31850D02*
X27350Y-31850D01*
X26150Y-31850D02*
X26350Y-31850D01*
X16850Y-31850D02*
X25350Y-31850D01*
X29200Y-31800D02*
X34400Y-31800D01*
X28200Y-31800D02*
X28300Y-31800D01*
X27200Y-31800D02*
X27300Y-31800D01*
X26200Y-31800D02*
X26300Y-31800D01*
X16850Y-31800D02*
X25300Y-31800D01*
X29250Y-31750D02*
X34400Y-31750D01*
X16850Y-31750D02*
X25250Y-31750D01*
X29250Y-31700D02*
X34400Y-31700D01*
X16850Y-31700D02*
X25250Y-31700D01*
X29300Y-31650D02*
X34400Y-31650D01*
X16850Y-31650D02*
X25200Y-31650D01*
X29300Y-31600D02*
X34400Y-31600D01*
X16850Y-31600D02*
X25200Y-31600D01*
X29300Y-31550D02*
X34400Y-31550D01*
X16850Y-31550D02*
X25200Y-31550D01*
X29300Y-31500D02*
X34400Y-31500D01*
X24050Y-31500D02*
X25200Y-31500D01*
X16850Y-31500D02*
X23750Y-31500D01*
X29300Y-31450D02*
X34400Y-31450D01*
X24150Y-31450D02*
X25200Y-31450D01*
X16850Y-31450D02*
X23650Y-31450D01*
X30750Y-31400D02*
X34400Y-31400D01*
X29300Y-31400D02*
X30450Y-31400D01*
X24250Y-31400D02*
X25200Y-31400D01*
X16850Y-31400D02*
X23550Y-31400D01*
X30850Y-31350D02*
X34400Y-31350D01*
X29300Y-31350D02*
X30350Y-31350D01*
X24250Y-31350D02*
X25200Y-31350D01*
X16850Y-31350D02*
X23550Y-31350D01*
X30950Y-31300D02*
X34400Y-31300D01*
X29300Y-31300D02*
X30250Y-31300D01*
X24300Y-31300D02*
X25200Y-31300D01*
X16850Y-31300D02*
X23500Y-31300D01*
X30950Y-31250D02*
X34400Y-31250D01*
X29300Y-31250D02*
X30250Y-31250D01*
X24300Y-31250D02*
X25200Y-31250D01*
X16850Y-31250D02*
X23500Y-31250D01*
X31000Y-31200D02*
X34400Y-31200D01*
X29250Y-31200D02*
X30200Y-31200D01*
X24350Y-31200D02*
X25250Y-31200D01*
X16850Y-31200D02*
X23450Y-31200D01*
X31000Y-31150D02*
X34400Y-31150D01*
X29250Y-31150D02*
X30200Y-31150D01*
X16850Y-31150D02*
X23450Y-31150D01*
X31050Y-31100D02*
X34400Y-31100D01*
X29200Y-31100D02*
X30150Y-31100D01*
X16850Y-31100D02*
X23450Y-31100D01*
X31050Y-31050D02*
X34400Y-31050D01*
X29150Y-31050D02*
X30150Y-31050D01*
X16850Y-31050D02*
X23450Y-31050D01*
X31050Y-31000D02*
X34400Y-31000D01*
X29100Y-31000D02*
X30100Y-31000D01*
X16850Y-31000D02*
X23450Y-31000D01*
X31050Y-30950D02*
X34400Y-30950D01*
X29000Y-30950D02*
X30050Y-30950D01*
X16850Y-30950D02*
X23500Y-30950D01*
X31050Y-30900D02*
X34400Y-30900D01*
X28600Y-30900D02*
X30000Y-30900D01*
X16850Y-30900D02*
X23500Y-30900D01*
X31000Y-30850D02*
X34400Y-30850D01*
X28550Y-30850D02*
X29950Y-30850D01*
X16850Y-30850D02*
X23550Y-30850D01*
X31000Y-30800D02*
X34400Y-30800D01*
X29850Y-30800D02*
X29950Y-30800D01*
X28500Y-30800D02*
X29750Y-30800D01*
X16850Y-30800D02*
X23550Y-30800D01*
X30950Y-30750D02*
X34400Y-30750D01*
X28450Y-30750D02*
X29600Y-30750D01*
X16850Y-30750D02*
X23650Y-30750D01*
X30950Y-30700D02*
X34400Y-30700D01*
X28400Y-30700D02*
X29550Y-30700D01*
X16850Y-30700D02*
X23750Y-30700D01*
X30850Y-30650D02*
X34400Y-30650D01*
X28350Y-30650D02*
X29500Y-30650D01*
X16850Y-30650D02*
X23850Y-30650D01*
X30750Y-30600D02*
X34400Y-30600D01*
X28300Y-30600D02*
X29450Y-30600D01*
X16850Y-30600D02*
X23900Y-30600D01*
X30500Y-30550D02*
X34400Y-30550D01*
X28250Y-30550D02*
X29450Y-30550D01*
X16850Y-30550D02*
X23950Y-30550D01*
X30500Y-30500D02*
X34400Y-30500D01*
X28200Y-30500D02*
X29450Y-30500D01*
X16850Y-30500D02*
X24000Y-30500D01*
X30500Y-30450D02*
X34400Y-30450D01*
X28150Y-30450D02*
X29400Y-30450D01*
X16850Y-30450D02*
X24150Y-30450D01*
X30500Y-30400D02*
X34400Y-30400D01*
X28100Y-30400D02*
X29400Y-30400D01*
X16850Y-30400D02*
X26100Y-30400D01*
X30500Y-30350D02*
X34400Y-30350D01*
X28050Y-30350D02*
X29350Y-30350D01*
X16850Y-30350D02*
X26100Y-30350D01*
X30500Y-30300D02*
X34400Y-30300D01*
X28000Y-30300D02*
X29350Y-30300D01*
X16850Y-30300D02*
X26100Y-30300D01*
X30500Y-30250D02*
X34400Y-30250D01*
X27900Y-30250D02*
X29350Y-30250D01*
X16850Y-30250D02*
X26100Y-30250D01*
X30500Y-30200D02*
X34400Y-30200D01*
X27200Y-30200D02*
X29350Y-30200D01*
X16850Y-30200D02*
X26100Y-30200D01*
X30500Y-30150D02*
X34400Y-30150D01*
X27150Y-30150D02*
X29350Y-30150D01*
X16850Y-30150D02*
X26100Y-30150D01*
X30500Y-30100D02*
X34400Y-30100D01*
X27100Y-30100D02*
X29400Y-30100D01*
X16850Y-30100D02*
X26100Y-30100D01*
X30500Y-30050D02*
X34400Y-30050D01*
X27100Y-30050D02*
X29400Y-30050D01*
X16850Y-30050D02*
X26100Y-30050D01*
X30500Y-30000D02*
X34400Y-30000D01*
X27100Y-30000D02*
X29400Y-30000D01*
X16850Y-30000D02*
X26100Y-30000D01*
X30500Y-29950D02*
X34400Y-29950D01*
X27100Y-29950D02*
X29400Y-29950D01*
X16850Y-29950D02*
X26100Y-29950D01*
X30500Y-29900D02*
X34400Y-29900D01*
X27100Y-29900D02*
X29400Y-29900D01*
X16850Y-29900D02*
X26100Y-29900D01*
X30500Y-29850D02*
X34400Y-29850D01*
X27100Y-29850D02*
X29400Y-29850D01*
X16850Y-29850D02*
X26100Y-29850D01*
X30500Y-29800D02*
X34400Y-29800D01*
X27100Y-29800D02*
X29400Y-29800D01*
X16850Y-29800D02*
X26100Y-29800D01*
X30500Y-29750D02*
X34400Y-29750D01*
X27100Y-29750D02*
X29400Y-29750D01*
X16850Y-29750D02*
X26100Y-29750D01*
X30500Y-29700D02*
X34400Y-29700D01*
X27100Y-29700D02*
X29400Y-29700D01*
X16850Y-29700D02*
X26100Y-29700D01*
X30500Y-29650D02*
X34400Y-29650D01*
X27100Y-29650D02*
X29400Y-29650D01*
X16850Y-29650D02*
X26100Y-29650D01*
X30500Y-29600D02*
X34400Y-29600D01*
X27100Y-29600D02*
X29400Y-29600D01*
X16850Y-29600D02*
X26100Y-29600D01*
X30500Y-29550D02*
X34400Y-29550D01*
X27100Y-29550D02*
X29400Y-29550D01*
X16850Y-29550D02*
X26100Y-29550D01*
X30500Y-29500D02*
X34400Y-29500D01*
X27100Y-29500D02*
X29400Y-29500D01*
X16850Y-29500D02*
X26100Y-29500D01*
X30500Y-29450D02*
X34400Y-29450D01*
X27100Y-29450D02*
X29400Y-29450D01*
X16850Y-29450D02*
X26100Y-29450D01*
X30500Y-29400D02*
X34400Y-29400D01*
X27100Y-29400D02*
X29400Y-29400D01*
X16850Y-29400D02*
X26100Y-29400D01*
X30500Y-29350D02*
X34400Y-29350D01*
X27100Y-29350D02*
X29400Y-29350D01*
X16850Y-29350D02*
X26100Y-29350D01*
X30500Y-29300D02*
X34400Y-29300D01*
X27100Y-29300D02*
X29400Y-29300D01*
X16850Y-29300D02*
X26100Y-29300D01*
X30500Y-29250D02*
X34400Y-29250D01*
X27100Y-29250D02*
X29400Y-29250D01*
X16850Y-29250D02*
X26100Y-29250D01*
X30500Y-29200D02*
X34400Y-29200D01*
X27100Y-29200D02*
X29400Y-29200D01*
X16850Y-29200D02*
X26100Y-29200D01*
X30500Y-29150D02*
X34400Y-29150D01*
X27100Y-29150D02*
X29400Y-29150D01*
X16850Y-29150D02*
X26100Y-29150D01*
X30500Y-29100D02*
X34400Y-29100D01*
X27100Y-29100D02*
X29400Y-29100D01*
X16850Y-29100D02*
X26100Y-29100D01*
X32100Y-29050D02*
X34400Y-29050D01*
X30500Y-29050D02*
X31600Y-29050D01*
X27100Y-29050D02*
X29400Y-29050D01*
X16850Y-29050D02*
X26100Y-29050D01*
X32200Y-29000D02*
X34400Y-29000D01*
X30500Y-29000D02*
X31500Y-29000D01*
X27100Y-29000D02*
X29400Y-29000D01*
X16850Y-29000D02*
X26100Y-29000D01*
X32250Y-28950D02*
X34400Y-28950D01*
X30500Y-28950D02*
X31450Y-28950D01*
X27100Y-28950D02*
X29400Y-28950D01*
X16850Y-28950D02*
X26100Y-28950D01*
X32300Y-28900D02*
X34400Y-28900D01*
X30500Y-28900D02*
X31400Y-28900D01*
X27100Y-28900D02*
X29400Y-28900D01*
X16850Y-28900D02*
X26100Y-28900D01*
X32350Y-28850D02*
X34400Y-28850D01*
X30500Y-28850D02*
X31350Y-28850D01*
X27100Y-28850D02*
X29400Y-28850D01*
X16850Y-28850D02*
X26100Y-28850D01*
X32350Y-28800D02*
X34400Y-28800D01*
X30500Y-28800D02*
X31350Y-28800D01*
X27100Y-28800D02*
X29400Y-28800D01*
X16850Y-28800D02*
X26100Y-28800D01*
X32400Y-28750D02*
X34400Y-28750D01*
X30500Y-28750D02*
X31300Y-28750D01*
X27100Y-28750D02*
X29400Y-28750D01*
X16850Y-28750D02*
X26100Y-28750D01*
X32400Y-28700D02*
X34400Y-28700D01*
X30500Y-28700D02*
X31300Y-28700D01*
X27100Y-28700D02*
X29400Y-28700D01*
X19950Y-28700D02*
X26100Y-28700D01*
X19150Y-28700D02*
X19550Y-28700D01*
X16850Y-28700D02*
X18750Y-28700D01*
X32400Y-28650D02*
X34400Y-28650D01*
X30500Y-28650D02*
X31300Y-28650D01*
X27100Y-28650D02*
X29400Y-28650D01*
X20050Y-28650D02*
X26100Y-28650D01*
X19250Y-28650D02*
X19450Y-28650D01*
X16850Y-28650D02*
X18650Y-28650D01*
X32400Y-28600D02*
X34400Y-28600D01*
X30500Y-28600D02*
X31300Y-28600D01*
X27100Y-28600D02*
X29400Y-28600D01*
X20100Y-28600D02*
X26100Y-28600D01*
X19350Y-28600D02*
X19400Y-28600D01*
X16850Y-28600D02*
X18600Y-28600D01*
X32400Y-28550D02*
X34400Y-28550D01*
X30550Y-28550D02*
X31300Y-28550D01*
X27100Y-28550D02*
X29400Y-28550D01*
X20150Y-28550D02*
X26100Y-28550D01*
X16850Y-28550D02*
X18550Y-28550D01*
X32400Y-28500D02*
X34400Y-28500D01*
X30750Y-28500D02*
X31300Y-28500D01*
X27100Y-28500D02*
X29400Y-28500D01*
X20200Y-28500D02*
X26100Y-28500D01*
X16850Y-28500D02*
X18500Y-28500D01*
X32400Y-28450D02*
X34400Y-28450D01*
X30850Y-28450D02*
X31300Y-28450D01*
X27100Y-28450D02*
X29400Y-28450D01*
X20200Y-28450D02*
X26100Y-28450D01*
X16850Y-28450D02*
X18500Y-28450D01*
X32400Y-28400D02*
X34400Y-28400D01*
X30950Y-28400D02*
X31300Y-28400D01*
X27100Y-28400D02*
X29400Y-28400D01*
X20250Y-28400D02*
X26100Y-28400D01*
X16850Y-28400D02*
X18450Y-28400D01*
X32400Y-28350D02*
X34400Y-28350D01*
X30950Y-28350D02*
X31300Y-28350D01*
X27100Y-28350D02*
X29400Y-28350D01*
X20250Y-28350D02*
X26100Y-28350D01*
X16850Y-28350D02*
X18450Y-28350D01*
X32350Y-28300D02*
X34400Y-28300D01*
X31000Y-28300D02*
X31350Y-28300D01*
X27100Y-28300D02*
X29400Y-28300D01*
X20250Y-28300D02*
X26100Y-28300D01*
X16850Y-28300D02*
X18450Y-28300D01*
X32350Y-28250D02*
X34400Y-28250D01*
X31000Y-28250D02*
X31350Y-28250D01*
X27100Y-28250D02*
X29400Y-28250D01*
X20250Y-28250D02*
X26100Y-28250D01*
X16850Y-28250D02*
X18450Y-28250D01*
X32300Y-28200D02*
X34400Y-28200D01*
X31050Y-28200D02*
X31400Y-28200D01*
X27100Y-28200D02*
X29400Y-28200D01*
X20250Y-28200D02*
X26100Y-28200D01*
X16850Y-28200D02*
X18450Y-28200D01*
X32250Y-28150D02*
X34400Y-28150D01*
X31050Y-28150D02*
X31450Y-28150D01*
X27100Y-28150D02*
X29400Y-28150D01*
X20250Y-28150D02*
X26100Y-28150D01*
X16850Y-28150D02*
X18450Y-28150D01*
X32200Y-28100D02*
X34400Y-28100D01*
X31050Y-28100D02*
X31500Y-28100D01*
X27100Y-28100D02*
X29400Y-28100D01*
X20250Y-28100D02*
X26100Y-28100D01*
X16850Y-28100D02*
X18450Y-28100D01*
X32100Y-28050D02*
X34400Y-28050D01*
X31050Y-28050D02*
X31600Y-28050D01*
X27100Y-28050D02*
X29400Y-28050D01*
X20250Y-28050D02*
X26100Y-28050D01*
X16850Y-28050D02*
X18500Y-28050D01*
X32200Y-28000D02*
X34400Y-28000D01*
X31050Y-28000D02*
X31500Y-28000D01*
X27100Y-28000D02*
X29400Y-28000D01*
X20200Y-28000D02*
X26100Y-28000D01*
X16850Y-28000D02*
X18500Y-28000D01*
X32250Y-27950D02*
X34400Y-27950D01*
X31000Y-27950D02*
X31450Y-27950D01*
X27100Y-27950D02*
X29400Y-27950D01*
X20150Y-27950D02*
X26100Y-27950D01*
X16850Y-27950D02*
X18550Y-27950D01*
X32300Y-27900D02*
X34400Y-27900D01*
X31000Y-27900D02*
X31400Y-27900D01*
X27100Y-27900D02*
X29400Y-27900D01*
X20150Y-27900D02*
X26100Y-27900D01*
X16850Y-27900D02*
X18600Y-27900D01*
X32350Y-27850D02*
X34400Y-27850D01*
X30950Y-27850D02*
X31350Y-27850D01*
X30200Y-27850D02*
X30250Y-27850D01*
X27100Y-27850D02*
X29400Y-27850D01*
X20100Y-27850D02*
X26050Y-27850D01*
X19300Y-27850D02*
X19400Y-27850D01*
X16850Y-27850D02*
X18650Y-27850D01*
X32350Y-27800D02*
X34400Y-27800D01*
X30950Y-27800D02*
X31350Y-27800D01*
X30200Y-27800D02*
X30250Y-27800D01*
X27100Y-27800D02*
X29400Y-27800D01*
X20000Y-27800D02*
X26000Y-27800D01*
X19200Y-27800D02*
X19500Y-27800D01*
X16850Y-27800D02*
X18700Y-27800D01*
X32400Y-27750D02*
X34400Y-27750D01*
X30850Y-27750D02*
X31300Y-27750D01*
X30200Y-27750D02*
X30350Y-27750D01*
X27100Y-27750D02*
X28700Y-27750D01*
X19850Y-27750D02*
X25950Y-27750D01*
X19050Y-27750D02*
X19650Y-27750D01*
X16850Y-27750D02*
X18900Y-27750D01*
X32400Y-27700D02*
X34400Y-27700D01*
X30750Y-27700D02*
X31300Y-27700D01*
X30200Y-27700D02*
X30450Y-27700D01*
X27150Y-27700D02*
X28550Y-27700D01*
X20000Y-27700D02*
X25900Y-27700D01*
X16850Y-27700D02*
X19500Y-27700D01*
X32400Y-27650D02*
X34400Y-27650D01*
X30200Y-27650D02*
X31300Y-27650D01*
X27150Y-27650D02*
X28500Y-27650D01*
X20100Y-27650D02*
X25900Y-27650D01*
X16850Y-27650D02*
X19400Y-27650D01*
X32400Y-27600D02*
X34400Y-27600D01*
X30200Y-27600D02*
X31300Y-27600D01*
X27200Y-27600D02*
X28450Y-27600D01*
X20150Y-27600D02*
X25900Y-27600D01*
X16850Y-27600D02*
X19350Y-27600D01*
X32400Y-27550D02*
X34400Y-27550D01*
X30200Y-27550D02*
X31300Y-27550D01*
X27200Y-27550D02*
X28400Y-27550D01*
X20150Y-27550D02*
X25850Y-27550D01*
X16850Y-27550D02*
X19350Y-27550D01*
X32400Y-27500D02*
X34400Y-27500D01*
X30250Y-27500D02*
X31300Y-27500D01*
X27250Y-27500D02*
X28350Y-27500D01*
X20200Y-27500D02*
X25850Y-27500D01*
X16850Y-27500D02*
X19300Y-27500D01*
X32400Y-27450D02*
X34400Y-27450D01*
X30250Y-27450D02*
X31300Y-27450D01*
X27250Y-27450D02*
X28300Y-27450D01*
X20250Y-27450D02*
X25850Y-27450D01*
X16850Y-27450D02*
X19250Y-27450D01*
X32400Y-27400D02*
X34400Y-27400D01*
X30250Y-27400D02*
X31300Y-27400D01*
X27250Y-27400D02*
X28250Y-27400D01*
X20250Y-27400D02*
X25850Y-27400D01*
X16850Y-27400D02*
X19250Y-27400D01*
X32400Y-27350D02*
X34400Y-27350D01*
X30250Y-27350D02*
X31300Y-27350D01*
X27250Y-27350D02*
X28200Y-27350D01*
X20250Y-27350D02*
X25850Y-27350D01*
X16850Y-27350D02*
X19250Y-27350D01*
X32350Y-27300D02*
X34400Y-27300D01*
X30250Y-27300D02*
X31350Y-27300D01*
X27250Y-27300D02*
X28150Y-27300D01*
X20250Y-27300D02*
X25850Y-27300D01*
X16850Y-27300D02*
X19250Y-27300D01*
X32350Y-27250D02*
X34400Y-27250D01*
X30200Y-27250D02*
X31350Y-27250D01*
X27200Y-27250D02*
X28100Y-27250D01*
X20300Y-27250D02*
X25850Y-27250D01*
X16850Y-27250D02*
X19250Y-27250D01*
X32300Y-27200D02*
X34400Y-27200D01*
X30200Y-27200D02*
X31400Y-27200D01*
X16850Y-27200D02*
X19250Y-27200D01*
X32250Y-27150D02*
X34400Y-27150D01*
X30150Y-27150D02*
X31450Y-27150D01*
X16850Y-27150D02*
X19250Y-27150D01*
X32200Y-27100D02*
X34400Y-27100D01*
X30150Y-27100D02*
X31500Y-27100D01*
X16850Y-27100D02*
X19250Y-27100D01*
X32100Y-27050D02*
X34400Y-27050D01*
X30050Y-27050D02*
X31600Y-27050D01*
X16850Y-27050D02*
X19300Y-27050D01*
X32200Y-27000D02*
X34400Y-27000D01*
X29950Y-27000D02*
X31500Y-27000D01*
X28850Y-27000D02*
X29650Y-27000D01*
X16850Y-27000D02*
X19300Y-27000D01*
X32250Y-26950D02*
X34400Y-26950D01*
X28800Y-26950D02*
X31450Y-26950D01*
X16850Y-26950D02*
X19350Y-26950D01*
X32300Y-26900D02*
X34400Y-26900D01*
X28750Y-26900D02*
X31400Y-26900D01*
X16850Y-26900D02*
X19350Y-26900D01*
X32350Y-26850D02*
X34400Y-26850D01*
X28700Y-26850D02*
X31350Y-26850D01*
X16850Y-26850D02*
X19350Y-26850D01*
X32350Y-26800D02*
X34400Y-26800D01*
X28650Y-26800D02*
X31350Y-26800D01*
X16850Y-26800D02*
X19350Y-26800D01*
X32400Y-26750D02*
X34400Y-26750D01*
X28600Y-26750D02*
X31300Y-26750D01*
X16850Y-26750D02*
X19350Y-26750D01*
X32400Y-26700D02*
X34400Y-26700D01*
X28550Y-26700D02*
X31300Y-26700D01*
X16850Y-26700D02*
X19350Y-26700D01*
X32400Y-26650D02*
X34400Y-26650D01*
X28500Y-26650D02*
X31300Y-26650D01*
X16850Y-26650D02*
X19350Y-26650D01*
X32400Y-26600D02*
X34400Y-26600D01*
X28450Y-26600D02*
X31300Y-26600D01*
X16850Y-26600D02*
X19350Y-26600D01*
X32400Y-26550D02*
X34400Y-26550D01*
X28400Y-26550D02*
X31300Y-26550D01*
X16850Y-26550D02*
X19350Y-26550D01*
X32400Y-26500D02*
X34400Y-26500D01*
X28250Y-26500D02*
X31300Y-26500D01*
X16850Y-26500D02*
X19350Y-26500D01*
X32400Y-26450D02*
X34400Y-26450D01*
X20150Y-26450D02*
X31300Y-26450D01*
X16850Y-26450D02*
X19350Y-26450D01*
X32400Y-26400D02*
X34400Y-26400D01*
X20150Y-26400D02*
X31300Y-26400D01*
X16850Y-26400D02*
X19350Y-26400D01*
X32400Y-26350D02*
X34400Y-26350D01*
X20150Y-26350D02*
X31300Y-26350D01*
X16850Y-26350D02*
X19350Y-26350D01*
X32350Y-26300D02*
X34400Y-26300D01*
X20150Y-26300D02*
X31350Y-26300D01*
X16850Y-26300D02*
X19350Y-26300D01*
X32350Y-26250D02*
X34400Y-26250D01*
X20150Y-26250D02*
X31350Y-26250D01*
X16850Y-26250D02*
X19350Y-26250D01*
X32300Y-26200D02*
X34400Y-26200D01*
X20150Y-26200D02*
X31400Y-26200D01*
X16850Y-26200D02*
X19350Y-26200D01*
X32250Y-26150D02*
X34400Y-26150D01*
X20150Y-26150D02*
X31450Y-26150D01*
X16850Y-26150D02*
X19350Y-26150D01*
X32200Y-26100D02*
X34400Y-26100D01*
X20150Y-26100D02*
X31500Y-26100D01*
X16850Y-26100D02*
X19350Y-26100D01*
X32100Y-26050D02*
X34400Y-26050D01*
X20150Y-26050D02*
X31600Y-26050D01*
X16850Y-26050D02*
X19350Y-26050D01*
X32200Y-26000D02*
X34400Y-26000D01*
X26250Y-26000D02*
X31500Y-26000D01*
X24250Y-26000D02*
X25750Y-26000D01*
X20150Y-26000D02*
X23750Y-26000D01*
X16850Y-26000D02*
X19350Y-26000D01*
X32250Y-25950D02*
X34400Y-25950D01*
X26350Y-25950D02*
X31450Y-25950D01*
X24350Y-25950D02*
X25650Y-25950D01*
X20150Y-25950D02*
X23650Y-25950D01*
X16850Y-25950D02*
X19350Y-25950D01*
X32300Y-25900D02*
X34400Y-25900D01*
X26400Y-25900D02*
X31400Y-25900D01*
X24400Y-25900D02*
X25600Y-25900D01*
X20150Y-25900D02*
X23600Y-25900D01*
X16850Y-25900D02*
X19350Y-25900D01*
X32350Y-25850D02*
X34400Y-25850D01*
X26450Y-25850D02*
X31350Y-25850D01*
X24450Y-25850D02*
X25550Y-25850D01*
X20150Y-25850D02*
X23550Y-25850D01*
X16850Y-25850D02*
X19350Y-25850D01*
X32350Y-25800D02*
X34400Y-25800D01*
X26500Y-25800D02*
X31350Y-25800D01*
X24500Y-25800D02*
X25500Y-25800D01*
X20150Y-25800D02*
X23500Y-25800D01*
X16850Y-25800D02*
X19350Y-25800D01*
X32400Y-25750D02*
X34400Y-25750D01*
X26500Y-25750D02*
X31300Y-25750D01*
X24500Y-25750D02*
X25500Y-25750D01*
X20150Y-25750D02*
X23500Y-25750D01*
X16850Y-25750D02*
X19350Y-25750D01*
X32400Y-25700D02*
X34400Y-25700D01*
X26550Y-25700D02*
X31300Y-25700D01*
X24550Y-25700D02*
X25450Y-25700D01*
X20150Y-25700D02*
X23450Y-25700D01*
X16850Y-25700D02*
X19350Y-25700D01*
X32400Y-25650D02*
X34400Y-25650D01*
X26550Y-25650D02*
X31300Y-25650D01*
X24550Y-25650D02*
X25450Y-25650D01*
X20150Y-25650D02*
X23450Y-25650D01*
X16850Y-25650D02*
X19350Y-25650D01*
X32400Y-25600D02*
X34400Y-25600D01*
X26550Y-25600D02*
X31300Y-25600D01*
X24550Y-25600D02*
X25450Y-25600D01*
X20150Y-25600D02*
X23450Y-25600D01*
X16850Y-25600D02*
X19350Y-25600D01*
X32400Y-25550D02*
X34400Y-25550D01*
X26550Y-25550D02*
X31300Y-25550D01*
X24550Y-25550D02*
X25450Y-25550D01*
X20150Y-25550D02*
X23450Y-25550D01*
X16850Y-25550D02*
X19350Y-25550D01*
X32400Y-25500D02*
X34400Y-25500D01*
X26550Y-25500D02*
X31300Y-25500D01*
X24550Y-25500D02*
X25450Y-25500D01*
X20150Y-25500D02*
X23450Y-25500D01*
X16850Y-25500D02*
X19350Y-25500D01*
X32400Y-25450D02*
X34400Y-25450D01*
X26550Y-25450D02*
X31300Y-25450D01*
X24550Y-25450D02*
X25450Y-25450D01*
X20150Y-25450D02*
X23450Y-25450D01*
X16850Y-25450D02*
X19350Y-25450D01*
X32400Y-25400D02*
X34400Y-25400D01*
X26550Y-25400D02*
X31300Y-25400D01*
X24550Y-25400D02*
X25450Y-25400D01*
X20150Y-25400D02*
X23450Y-25400D01*
X16850Y-25400D02*
X19350Y-25400D01*
X32400Y-25350D02*
X34400Y-25350D01*
X26550Y-25350D02*
X31300Y-25350D01*
X24550Y-25350D02*
X25450Y-25350D01*
X20150Y-25350D02*
X23450Y-25350D01*
X16850Y-25350D02*
X19350Y-25350D01*
X32350Y-25300D02*
X34400Y-25300D01*
X26550Y-25300D02*
X31350Y-25300D01*
X24550Y-25300D02*
X25450Y-25300D01*
X20150Y-25300D02*
X23450Y-25300D01*
X16850Y-25300D02*
X19350Y-25300D01*
X32350Y-25250D02*
X34400Y-25250D01*
X26500Y-25250D02*
X31350Y-25250D01*
X24500Y-25250D02*
X25500Y-25250D01*
X20150Y-25250D02*
X23500Y-25250D01*
X16850Y-25250D02*
X19350Y-25250D01*
X32300Y-25200D02*
X34400Y-25200D01*
X26500Y-25200D02*
X31400Y-25200D01*
X24500Y-25200D02*
X25500Y-25200D01*
X20150Y-25200D02*
X23500Y-25200D01*
X16850Y-25200D02*
X19350Y-25200D01*
X32250Y-25150D02*
X34400Y-25150D01*
X26450Y-25150D02*
X31450Y-25150D01*
X24450Y-25150D02*
X25550Y-25150D01*
X20150Y-25150D02*
X23550Y-25150D01*
X16850Y-25150D02*
X19350Y-25150D01*
X32200Y-25100D02*
X34400Y-25100D01*
X26400Y-25100D02*
X31500Y-25100D01*
X24400Y-25100D02*
X25600Y-25100D01*
X20150Y-25100D02*
X23600Y-25100D01*
X16850Y-25100D02*
X19350Y-25100D01*
X32100Y-25050D02*
X34400Y-25050D01*
X26350Y-25050D02*
X31600Y-25050D01*
X24350Y-25050D02*
X25650Y-25050D01*
X20150Y-25050D02*
X23650Y-25050D01*
X16850Y-25050D02*
X19350Y-25050D01*
X26250Y-25000D02*
X34400Y-25000D01*
X24250Y-25000D02*
X25750Y-25000D01*
X20150Y-25000D02*
X23750Y-25000D01*
X16850Y-25000D02*
X19350Y-25000D01*
X20150Y-24950D02*
X34400Y-24950D01*
X16850Y-24950D02*
X19300Y-24950D01*
X20150Y-24900D02*
X34400Y-24900D01*
X16850Y-24900D02*
X19300Y-24900D01*
X20150Y-24850D02*
X34400Y-24850D01*
X16850Y-24850D02*
X19250Y-24850D01*
X20150Y-24800D02*
X34400Y-24800D01*
X16850Y-24800D02*
X19250Y-24800D01*
X20150Y-24750D02*
X34400Y-24750D01*
X16850Y-24750D02*
X19200Y-24750D01*
X20100Y-24700D02*
X34400Y-24700D01*
X16850Y-24700D02*
X19200Y-24700D01*
X20100Y-24650D02*
X34400Y-24650D01*
X16850Y-24650D02*
X19200Y-24650D01*
X20100Y-24600D02*
X34400Y-24600D01*
X16850Y-24600D02*
X19200Y-24600D01*
X20100Y-24550D02*
X34400Y-24550D01*
X16850Y-24550D02*
X19200Y-24550D01*
X20050Y-24500D02*
X34400Y-24500D01*
X16850Y-24500D02*
X19250Y-24500D01*
X20050Y-24450D02*
X34400Y-24450D01*
X16850Y-24450D02*
X19250Y-24450D01*
X20000Y-24400D02*
X34400Y-24400D01*
X16850Y-24400D02*
X19300Y-24400D01*
X20000Y-24350D02*
X34400Y-24350D01*
X16850Y-24350D02*
X19300Y-24350D01*
X19900Y-24300D02*
X34400Y-24300D01*
X16850Y-24300D02*
X19400Y-24300D01*
X19800Y-24250D02*
X34400Y-24250D01*
X16850Y-24250D02*
X19500Y-24250D01*
X16850Y-24200D02*
X34400Y-24200D01*
X16850Y-24150D02*
X34400Y-24150D01*
X16850Y-24100D02*
X34400Y-24100D01*
X16850Y-24050D02*
X34400Y-24050D01*
X16850Y-24000D02*
X34400Y-24000D01*
X16850Y-23950D02*
X34400Y-23950D01*
X16850Y-23900D02*
X34400Y-23900D01*
X16850Y-23850D02*
X34400Y-23850D01*
X16850Y-23800D02*
X34400Y-23800D01*
X16850Y-23750D02*
X34400Y-23750D01*
X16850Y-23700D02*
X34400Y-23700D01*
X16850Y-23650D02*
X34400Y-23650D01*
X16850Y-23600D02*
X34400Y-23600D01*
X16850Y-23550D02*
X34400Y-23550D01*
X16850Y-23500D02*
X34400Y-23500D01*
X16850Y-23450D02*
X34400Y-23450D01*
X16850Y-23400D02*
X34400Y-23400D01*
X16850Y-23350D02*
X34400Y-23350D01*
X16850Y-23300D02*
X34400Y-23300D01*
X16850Y-23250D02*
X34400Y-23250D01*
X16850Y-23200D02*
X34400Y-23200D01*
X16850Y-23150D02*
X34400Y-23150D01*
X16850Y-23100D02*
X34400Y-23100D01*
X16850Y-23050D02*
X34400Y-23050D01*
X16850Y-23000D02*
X34400Y-23000D01*
X16850Y-22950D02*
X34400Y-22950D01*
X16850Y-22900D02*
X34400Y-22900D01*
X16850Y-22850D02*
X34400Y-22850D01*
X16850Y-22800D02*
X34400Y-22800D01*
X16850Y-22750D02*
X34400Y-22750D01*
X16850Y-22700D02*
X34400Y-22700D01*
X16850Y-22650D02*
X34400Y-22650D01*
X16850Y-22600D02*
X34400Y-22600D01*
X16850Y-22550D02*
X34400Y-22550D01*
X16850Y-22500D02*
X34400Y-22500D01*
X16850Y-22450D02*
X34400Y-22450D01*
X16850Y-22400D02*
X34400Y-22400D01*
X16850Y-22350D02*
X34400Y-22350D01*
X16850Y-22300D02*
X34400Y-22300D01*
X16850Y-22250D02*
X34400Y-22250D01*
X16850Y-22200D02*
X34400Y-22200D01*
X16850Y-22150D02*
X34400Y-22150D01*
X16850Y-22100D02*
X34400Y-22100D01*
X16850Y-22050D02*
X34400Y-22050D01*
X16850Y-22000D02*
X34400Y-22000D01*
X16850Y-21950D02*
X34400Y-21950D01*
X16850Y-21900D02*
X34400Y-21900D01*
X16850Y-21850D02*
X34400Y-21850D01*
M02*
