G04 (created by PCBNEW-RS274X (20100308 SVN-R2437)-RC5) date Wed 10 Mar 2010 11:33:35 AM CET*
G01*
G70*
G90*
%MOIN*%
G04 Gerber Fmt 3.4, Leading zero omitted, Abs format*
%FSLAX34Y34*%
G04 APERTURE LIST*
%ADD10C,0.006000*%
%ADD11C,0.015000*%
%ADD12R,0.055000X0.055000*%
%ADD13C,0.055000*%
%ADD14R,0.062000X0.090000*%
%ADD15O,0.062000X0.090000*%
%ADD16R,0.035000X0.055000*%
%ADD17C,0.059100*%
%ADD18C,0.010000*%
G04 APERTURE END LIST*
G54D10*
G54D11*
X41500Y-29000D02*
X41500Y-13250D01*
X63250Y-29000D02*
X41500Y-29000D01*
X63250Y-28750D02*
X63250Y-29000D01*
X63250Y-13250D02*
X63250Y-28750D01*
X41500Y-13250D02*
X63250Y-13250D01*
G54D12*
X44000Y-17500D03*
G54D13*
X45000Y-17500D03*
X46000Y-17500D03*
X47000Y-17500D03*
X48000Y-17500D03*
G54D12*
X44000Y-16500D03*
G54D13*
X45000Y-16500D03*
X46000Y-16500D03*
X47000Y-16500D03*
X48000Y-16500D03*
G54D12*
X54500Y-17500D03*
G54D13*
X55500Y-17500D03*
X56500Y-17500D03*
X57500Y-17500D03*
X58500Y-17500D03*
G54D12*
X44000Y-15500D03*
G54D13*
X45000Y-15500D03*
X46000Y-15500D03*
X47000Y-15500D03*
X48000Y-15500D03*
G54D12*
X54500Y-18500D03*
G54D13*
X55500Y-18500D03*
X56500Y-18500D03*
X57500Y-18500D03*
X58500Y-18500D03*
G54D12*
X54500Y-19500D03*
G54D13*
X55500Y-19500D03*
X56500Y-19500D03*
X57500Y-19500D03*
X58500Y-19500D03*
G54D12*
X44000Y-18500D03*
G54D13*
X45000Y-18500D03*
X46000Y-18500D03*
X47000Y-18500D03*
X48000Y-18500D03*
G54D14*
X43000Y-27500D03*
G54D15*
X44000Y-27500D03*
X45000Y-27500D03*
X46000Y-27500D03*
X47000Y-27500D03*
X48000Y-27500D03*
X49000Y-27500D03*
X50000Y-27500D03*
X51000Y-27500D03*
X52000Y-27500D03*
X53000Y-27500D03*
X54000Y-27500D03*
X55000Y-27500D03*
X56000Y-27500D03*
X57000Y-27500D03*
X58000Y-27500D03*
X59000Y-27500D03*
X60000Y-27500D03*
X61000Y-27500D03*
X62000Y-27500D03*
X62000Y-21500D03*
X61000Y-21500D03*
X60000Y-21500D03*
X59000Y-21500D03*
X58000Y-21500D03*
X57000Y-21500D03*
X56000Y-21500D03*
X55000Y-21500D03*
X54000Y-21500D03*
X53000Y-21500D03*
X52000Y-21500D03*
X51000Y-21500D03*
X50000Y-21500D03*
X49000Y-21500D03*
X48000Y-21500D03*
X47000Y-21500D03*
X46000Y-21500D03*
X45000Y-21500D03*
X44000Y-21500D03*
X43000Y-21500D03*
G54D12*
X44000Y-19500D03*
G54D13*
X45000Y-19500D03*
X46000Y-19500D03*
X47000Y-19500D03*
X48000Y-19500D03*
G54D16*
X45875Y-23500D03*
X45125Y-23500D03*
X46875Y-22750D03*
X46125Y-22750D03*
G54D17*
X44500Y-22750D03*
X49000Y-23000D03*
X48750Y-16000D03*
X48750Y-14500D03*
X48500Y-24000D03*
X43750Y-23250D03*
X45500Y-15000D03*
X48000Y-20500D03*
X52000Y-16250D03*
X52250Y-14750D03*
X47500Y-18000D03*
X43500Y-26000D03*
G54D11*
X42250Y-23250D02*
X42250Y-23750D01*
X42250Y-23750D02*
X44500Y-26000D01*
X46000Y-28750D02*
X45000Y-28750D01*
X47000Y-27500D02*
X47000Y-28500D01*
X46750Y-28750D02*
X46000Y-28750D01*
X47000Y-28500D02*
X46750Y-28750D01*
X45000Y-28750D02*
X44500Y-28250D01*
X44500Y-28250D02*
X44500Y-26000D01*
X43500Y-16500D02*
X44000Y-16500D01*
X42250Y-23250D02*
X42250Y-17750D01*
X42250Y-17750D02*
X43500Y-16500D01*
X54500Y-19500D02*
X54000Y-20000D01*
X52000Y-21250D02*
X52000Y-21500D01*
X53250Y-20000D02*
X52000Y-21250D01*
X54000Y-20000D02*
X53250Y-20000D01*
X54500Y-19500D02*
X54500Y-18500D01*
X54500Y-17500D02*
X54500Y-19500D01*
X44500Y-22750D02*
X44500Y-22250D01*
X48500Y-22500D02*
X49000Y-23000D01*
X48000Y-17500D02*
X48248Y-17500D01*
X48500Y-20500D02*
X48500Y-22500D01*
X48500Y-19500D02*
X48500Y-20500D01*
X48500Y-17752D02*
X48500Y-19500D01*
X48248Y-17500D02*
X48500Y-17752D01*
X48000Y-16500D02*
X48000Y-17500D01*
X44000Y-19500D02*
X44000Y-20000D01*
X44500Y-20500D02*
X44500Y-22250D01*
X44000Y-20000D02*
X44500Y-20500D01*
X44500Y-22250D02*
X44500Y-23000D01*
X46000Y-25500D02*
X46000Y-27500D01*
X44500Y-23000D02*
X44500Y-24000D01*
X44500Y-24000D02*
X46000Y-25500D01*
X44000Y-19500D02*
X45000Y-18500D01*
X42750Y-14250D02*
X42750Y-14750D01*
X42500Y-17000D02*
X41750Y-17750D01*
X42500Y-15000D02*
X42500Y-17000D01*
X42750Y-14750D02*
X42500Y-15000D01*
X58500Y-18500D02*
X58500Y-19500D01*
X43000Y-27500D02*
X43000Y-25000D01*
X43000Y-25000D02*
X41750Y-23750D01*
X41750Y-23750D02*
X41750Y-17750D01*
X53500Y-14750D02*
X53500Y-15500D01*
X52500Y-13750D02*
X53500Y-14750D01*
X43250Y-13750D02*
X52500Y-13750D01*
X42750Y-14250D02*
X43250Y-13750D01*
X47000Y-17500D02*
X47000Y-17250D01*
X47500Y-16000D02*
X48000Y-15500D01*
X47500Y-16750D02*
X47500Y-16000D01*
X47000Y-17250D02*
X47500Y-16750D01*
X58500Y-17500D02*
X58500Y-16000D01*
X58000Y-15500D02*
X53500Y-15500D01*
X53500Y-15500D02*
X48000Y-15500D01*
X58500Y-16000D02*
X58000Y-15500D01*
X58500Y-17500D02*
X58500Y-19500D01*
X45125Y-23500D02*
X45125Y-21625D01*
X45125Y-21625D02*
X45000Y-21500D01*
X45000Y-19500D02*
X45000Y-21500D01*
X45000Y-17500D02*
X45500Y-18000D01*
X45500Y-19000D02*
X45000Y-19500D01*
X45500Y-18000D02*
X45500Y-19000D01*
X45000Y-16000D02*
X44000Y-16000D01*
X49000Y-16250D02*
X49000Y-21500D01*
X48750Y-16000D02*
X49000Y-16250D01*
X43500Y-14500D02*
X48750Y-14500D01*
X43000Y-15000D02*
X43500Y-14500D01*
X43000Y-15750D02*
X43000Y-15000D01*
X43250Y-16000D02*
X43000Y-15750D01*
X44000Y-16000D02*
X43250Y-16000D01*
X45000Y-15500D02*
X45000Y-16000D01*
X45000Y-16000D02*
X45000Y-16500D01*
X55500Y-18500D02*
X55000Y-19000D01*
X53000Y-21000D02*
X53000Y-21500D01*
X53500Y-20500D02*
X53000Y-21000D01*
X54500Y-20500D02*
X53500Y-20500D01*
X55000Y-20000D02*
X54500Y-20500D01*
X55000Y-19000D02*
X55000Y-20000D01*
X55500Y-19500D02*
X55500Y-19750D01*
X57000Y-21250D02*
X57000Y-21500D01*
X55500Y-19750D02*
X57000Y-21250D01*
X46125Y-22750D02*
X46125Y-21625D01*
X46125Y-21625D02*
X46000Y-21500D01*
X46000Y-21500D02*
X46000Y-19500D01*
X46000Y-19500D02*
X46000Y-18500D01*
X44000Y-21500D02*
X44000Y-23000D01*
X44000Y-23000D02*
X43750Y-23250D01*
X48500Y-24000D02*
X48750Y-24000D01*
X55500Y-17500D02*
X55500Y-17250D01*
X48750Y-24000D02*
X48500Y-24000D01*
X50500Y-22250D02*
X48750Y-24000D01*
X50500Y-20750D02*
X50500Y-22250D01*
X51000Y-20250D02*
X50500Y-20750D01*
X52250Y-20250D02*
X51000Y-20250D01*
X53750Y-18750D02*
X52250Y-20250D01*
X53750Y-17250D02*
X53750Y-18750D01*
X54000Y-17000D02*
X53750Y-17250D01*
X55250Y-17000D02*
X54000Y-17000D01*
X55500Y-17250D02*
X55250Y-17000D01*
X46000Y-17500D02*
X45750Y-17250D01*
X44500Y-18000D02*
X44000Y-18500D01*
X44500Y-17250D02*
X44500Y-18000D01*
X44750Y-17000D02*
X44500Y-17250D01*
X45250Y-17000D02*
X44750Y-17000D01*
X45500Y-17250D02*
X45250Y-17000D01*
X45750Y-17250D02*
X45500Y-17250D01*
X44000Y-21500D02*
X44000Y-21000D01*
X43500Y-18500D02*
X44000Y-18500D01*
X43250Y-18750D02*
X43500Y-18500D01*
X43250Y-20250D02*
X43250Y-18750D01*
X44000Y-21000D02*
X43250Y-20250D01*
X48000Y-21500D02*
X48000Y-20500D01*
X45500Y-15000D02*
X45500Y-15250D01*
X44000Y-15500D02*
X44250Y-15500D01*
X45500Y-16000D02*
X46000Y-16500D01*
X45500Y-15250D02*
X45500Y-16000D01*
X45250Y-15000D02*
X45500Y-15250D01*
X44750Y-15000D02*
X45250Y-15000D01*
X44250Y-15500D02*
X44750Y-15000D01*
X45875Y-23500D02*
X46750Y-23500D01*
X46875Y-23375D02*
X46875Y-22750D01*
X46750Y-23500D02*
X46875Y-23375D01*
X46875Y-22750D02*
X47500Y-22750D01*
X46500Y-25250D02*
X49000Y-25250D01*
X57000Y-17000D02*
X56500Y-17500D01*
X57750Y-17000D02*
X57000Y-17000D01*
X58000Y-17250D02*
X57750Y-17000D01*
X58000Y-19750D02*
X58000Y-17250D01*
X58500Y-20250D02*
X58000Y-19750D01*
X58750Y-20250D02*
X58500Y-20250D01*
X59500Y-21000D02*
X58750Y-20250D01*
X59500Y-22500D02*
X59500Y-21000D01*
X58750Y-23250D02*
X59500Y-22500D01*
X51000Y-23250D02*
X58750Y-23250D01*
X49000Y-25250D02*
X51000Y-23250D01*
X43000Y-21500D02*
X43000Y-23500D01*
X43000Y-23500D02*
X45500Y-26000D01*
X46500Y-24750D02*
X46500Y-25250D01*
X46500Y-25250D02*
X46500Y-28000D01*
X46500Y-28000D02*
X46250Y-28250D01*
X46250Y-28250D02*
X45750Y-28250D01*
X45750Y-28250D02*
X45500Y-28000D01*
X45500Y-28000D02*
X45500Y-26000D01*
X47000Y-19500D02*
X47000Y-20000D01*
X47500Y-23750D02*
X46500Y-24750D01*
X47500Y-20500D02*
X47500Y-22750D01*
X47500Y-22750D02*
X47500Y-23750D01*
X47000Y-20000D02*
X47500Y-20500D01*
X44000Y-17500D02*
X43250Y-18250D01*
X43250Y-18250D02*
X43000Y-18500D01*
X43000Y-18500D02*
X42750Y-18750D01*
X42750Y-18750D02*
X42750Y-21250D01*
X42750Y-21250D02*
X43000Y-21500D01*
X47000Y-19500D02*
X48000Y-18500D01*
X46000Y-15500D02*
X46000Y-15250D01*
X50000Y-17500D02*
X50000Y-21500D01*
X51000Y-16500D02*
X50000Y-17500D01*
X51750Y-16500D02*
X51000Y-16500D01*
X52000Y-16250D02*
X51750Y-16500D01*
X49500Y-14750D02*
X52250Y-14750D01*
X49250Y-15000D02*
X49500Y-14750D01*
X48500Y-15000D02*
X49250Y-15000D01*
X46250Y-15000D02*
X48500Y-15000D01*
X46000Y-15250D02*
X46250Y-15000D01*
X57250Y-20750D02*
X57500Y-21000D01*
X56500Y-18500D02*
X56500Y-18750D01*
X54000Y-22000D02*
X54000Y-21500D01*
X54250Y-22250D02*
X54000Y-22000D01*
X57250Y-22250D02*
X54250Y-22250D01*
X57500Y-22000D02*
X57250Y-22250D01*
X57500Y-21000D02*
X57500Y-22000D01*
X57000Y-20750D02*
X57250Y-20750D01*
X56000Y-19750D02*
X57000Y-20750D01*
X56000Y-19250D02*
X56000Y-19750D01*
X56500Y-18750D02*
X56000Y-19250D01*
X56500Y-19500D02*
X56750Y-19500D01*
X58000Y-20750D02*
X58000Y-21500D01*
X56750Y-19500D02*
X58000Y-20750D01*
X47000Y-18500D02*
X47500Y-18000D01*
X43500Y-26000D02*
X44000Y-26500D01*
X44000Y-26500D02*
X44000Y-27500D01*
X47000Y-21500D02*
X47000Y-20750D01*
X46500Y-17000D02*
X47000Y-16500D01*
X46500Y-20250D02*
X46500Y-17000D01*
X47000Y-20750D02*
X46500Y-20250D01*
X47000Y-15500D02*
X47000Y-16500D01*
X57500Y-17500D02*
X57500Y-18500D01*
X57500Y-19500D02*
X57500Y-19750D01*
X51000Y-22500D02*
X51000Y-21500D01*
X51250Y-22750D02*
X51000Y-22500D01*
X57750Y-22750D02*
X51250Y-22750D01*
X58500Y-22000D02*
X57750Y-22750D01*
X58500Y-20750D02*
X58500Y-22000D01*
X57500Y-19750D02*
X58500Y-20750D01*
X57500Y-19500D02*
X57500Y-17500D01*
G54D10*
G36*
X63025Y-28775D02*
X63025Y-13475D01*
X52500Y-13475D01*
X52605Y-13496D01*
X52694Y-13556D01*
X53694Y-14555D01*
X53754Y-14644D01*
X53757Y-14661D01*
X53775Y-14750D01*
X53775Y-15225D01*
X58000Y-15225D01*
X58105Y-15246D01*
X58194Y-15306D01*
X58694Y-15805D01*
X58754Y-15895D01*
X58775Y-16000D01*
X58775Y-17103D01*
X58903Y-17231D01*
X58975Y-17406D01*
X58975Y-17595D01*
X58902Y-17769D01*
X58775Y-17896D01*
X58775Y-18103D01*
X58903Y-18231D01*
X58975Y-18406D01*
X58975Y-18595D01*
X58902Y-18769D01*
X58775Y-18896D01*
X58775Y-19103D01*
X58903Y-19231D01*
X58975Y-19406D01*
X58975Y-19595D01*
X58902Y-19769D01*
X58769Y-19903D01*
X58608Y-19969D01*
X58613Y-19975D01*
X58750Y-19975D01*
X58855Y-19996D01*
X58944Y-20056D01*
X59694Y-20805D01*
X59733Y-20864D01*
X59740Y-20874D01*
X59804Y-20835D01*
X59863Y-20818D01*
X59918Y-20848D01*
X60081Y-20848D01*
X60137Y-20818D01*
X60196Y-20835D01*
X60382Y-20950D01*
X60499Y-21113D01*
X60618Y-20950D01*
X60804Y-20835D01*
X60863Y-20818D01*
X60918Y-20848D01*
X61081Y-20848D01*
X61137Y-20818D01*
X61196Y-20835D01*
X61382Y-20950D01*
X61500Y-21113D01*
X61618Y-20950D01*
X61804Y-20835D01*
X61863Y-20818D01*
X61918Y-20848D01*
X62081Y-20848D01*
X62137Y-20818D01*
X62196Y-20835D01*
X62382Y-20950D01*
X62510Y-21127D01*
X62560Y-21340D01*
X62560Y-21450D01*
X62500Y-21450D01*
X62500Y-21550D01*
X62560Y-21550D01*
X62560Y-21660D01*
X62510Y-21873D01*
X62382Y-22050D01*
X62196Y-22165D01*
X62137Y-22182D01*
X62081Y-22152D01*
X61918Y-22152D01*
X61863Y-22182D01*
X61804Y-22165D01*
X61618Y-22050D01*
X61500Y-21886D01*
X61382Y-22050D01*
X61196Y-22165D01*
X61137Y-22182D01*
X61081Y-22152D01*
X60918Y-22152D01*
X60863Y-22182D01*
X60804Y-22165D01*
X60618Y-22050D01*
X60499Y-21886D01*
X60382Y-22050D01*
X60196Y-22165D01*
X60137Y-22182D01*
X60081Y-22152D01*
X59918Y-22152D01*
X59863Y-22182D01*
X59804Y-22165D01*
X59775Y-22147D01*
X59775Y-22500D01*
X59754Y-22605D01*
X59733Y-22634D01*
X59694Y-22695D01*
X58944Y-23444D01*
X58855Y-23504D01*
X58750Y-23525D01*
X51113Y-23525D01*
X49194Y-25444D01*
X49105Y-25504D01*
X49000Y-25525D01*
X46775Y-25525D01*
X46775Y-26900D01*
X46901Y-26848D01*
X47100Y-26848D01*
X47284Y-26924D01*
X47424Y-27065D01*
X47475Y-27189D01*
X47490Y-27127D01*
X47618Y-26950D01*
X47804Y-26835D01*
X47863Y-26818D01*
X47918Y-26848D01*
X48081Y-26848D01*
X48137Y-26818D01*
X48196Y-26835D01*
X48382Y-26950D01*
X48500Y-27113D01*
X48618Y-26950D01*
X48804Y-26835D01*
X48863Y-26818D01*
X48918Y-26848D01*
X49081Y-26848D01*
X49137Y-26818D01*
X49196Y-26835D01*
X49382Y-26950D01*
X49500Y-27113D01*
X49618Y-26950D01*
X49804Y-26835D01*
X49863Y-26818D01*
X49918Y-26848D01*
X50081Y-26848D01*
X50137Y-26818D01*
X50196Y-26835D01*
X50382Y-26950D01*
X50500Y-27113D01*
X50618Y-26950D01*
X50804Y-26835D01*
X50863Y-26818D01*
X50918Y-26848D01*
X51081Y-26848D01*
X51137Y-26818D01*
X51196Y-26835D01*
X51382Y-26950D01*
X51499Y-27113D01*
X51618Y-26950D01*
X51804Y-26835D01*
X51863Y-26818D01*
X51918Y-26848D01*
X52081Y-26848D01*
X52137Y-26818D01*
X52196Y-26835D01*
X52382Y-26950D01*
X52500Y-27113D01*
X52618Y-26950D01*
X52804Y-26835D01*
X52863Y-26818D01*
X52918Y-26848D01*
X53081Y-26848D01*
X53137Y-26818D01*
X53196Y-26835D01*
X53382Y-26950D01*
X53500Y-27113D01*
X53618Y-26950D01*
X53804Y-26835D01*
X53863Y-26818D01*
X53918Y-26848D01*
X54081Y-26848D01*
X54137Y-26818D01*
X54196Y-26835D01*
X54382Y-26950D01*
X54500Y-27113D01*
X54618Y-26950D01*
X54804Y-26835D01*
X54863Y-26818D01*
X54918Y-26848D01*
X55081Y-26848D01*
X55137Y-26818D01*
X55196Y-26835D01*
X55382Y-26950D01*
X55500Y-27113D01*
X55618Y-26950D01*
X55804Y-26835D01*
X55863Y-26818D01*
X55918Y-26848D01*
X56081Y-26848D01*
X56137Y-26818D01*
X56196Y-26835D01*
X56382Y-26950D01*
X56500Y-27113D01*
X56618Y-26950D01*
X56804Y-26835D01*
X56863Y-26818D01*
X56918Y-26848D01*
X57081Y-26848D01*
X57137Y-26818D01*
X57196Y-26835D01*
X57382Y-26950D01*
X57500Y-27113D01*
X57618Y-26950D01*
X57804Y-26835D01*
X57863Y-26818D01*
X57918Y-26848D01*
X58081Y-26848D01*
X58137Y-26818D01*
X58196Y-26835D01*
X58382Y-26950D01*
X58500Y-27113D01*
X58618Y-26950D01*
X58804Y-26835D01*
X58863Y-26818D01*
X58918Y-26848D01*
X59081Y-26848D01*
X59137Y-26818D01*
X59196Y-26835D01*
X59382Y-26950D01*
X59500Y-27113D01*
X59618Y-26950D01*
X59804Y-26835D01*
X59863Y-26818D01*
X59918Y-26848D01*
X60081Y-26848D01*
X60137Y-26818D01*
X60196Y-26835D01*
X60382Y-26950D01*
X60499Y-27113D01*
X60618Y-26950D01*
X60804Y-26835D01*
X60863Y-26818D01*
X60918Y-26848D01*
X61081Y-26848D01*
X61137Y-26818D01*
X61196Y-26835D01*
X61382Y-26950D01*
X61500Y-27113D01*
X61618Y-26950D01*
X61804Y-26835D01*
X61863Y-26818D01*
X61918Y-26848D01*
X62081Y-26848D01*
X62137Y-26818D01*
X62196Y-26835D01*
X62382Y-26950D01*
X62510Y-27127D01*
X62560Y-27340D01*
X62560Y-27450D01*
X62500Y-27450D01*
X62500Y-27550D01*
X62560Y-27550D01*
X62560Y-27660D01*
X62510Y-27873D01*
X62382Y-28050D01*
X62196Y-28165D01*
X62137Y-28182D01*
X62081Y-28152D01*
X61918Y-28152D01*
X61863Y-28182D01*
X61804Y-28165D01*
X61618Y-28050D01*
X61500Y-27886D01*
X61382Y-28050D01*
X61196Y-28165D01*
X61137Y-28182D01*
X61081Y-28152D01*
X60918Y-28152D01*
X60863Y-28182D01*
X60804Y-28165D01*
X60618Y-28050D01*
X60499Y-27886D01*
X60382Y-28050D01*
X60196Y-28165D01*
X60137Y-28182D01*
X60081Y-28152D01*
X59918Y-28152D01*
X59863Y-28182D01*
X59804Y-28165D01*
X59618Y-28050D01*
X59500Y-27886D01*
X59382Y-28050D01*
X59196Y-28165D01*
X59137Y-28182D01*
X59081Y-28152D01*
X58918Y-28152D01*
X58863Y-28182D01*
X58804Y-28165D01*
X58618Y-28050D01*
X58500Y-27886D01*
X58382Y-28050D01*
X58196Y-28165D01*
X58137Y-28182D01*
X58081Y-28152D01*
X57918Y-28152D01*
X57863Y-28182D01*
X57804Y-28165D01*
X57618Y-28050D01*
X57500Y-27886D01*
X57382Y-28050D01*
X57196Y-28165D01*
X57137Y-28182D01*
X57081Y-28152D01*
X56918Y-28152D01*
X56863Y-28182D01*
X56804Y-28165D01*
X56618Y-28050D01*
X56500Y-27886D01*
X56382Y-28050D01*
X56196Y-28165D01*
X56137Y-28182D01*
X56081Y-28152D01*
X55918Y-28152D01*
X55863Y-28182D01*
X55804Y-28165D01*
X55618Y-28050D01*
X55500Y-27886D01*
X55382Y-28050D01*
X55196Y-28165D01*
X55137Y-28182D01*
X55081Y-28152D01*
X54918Y-28152D01*
X54863Y-28182D01*
X54804Y-28165D01*
X54618Y-28050D01*
X54500Y-27886D01*
X54382Y-28050D01*
X54196Y-28165D01*
X54137Y-28182D01*
X54081Y-28152D01*
X53918Y-28152D01*
X53863Y-28182D01*
X53804Y-28165D01*
X53618Y-28050D01*
X53500Y-27886D01*
X53382Y-28050D01*
X53196Y-28165D01*
X53137Y-28182D01*
X53081Y-28152D01*
X52918Y-28152D01*
X52863Y-28182D01*
X52804Y-28165D01*
X52618Y-28050D01*
X52500Y-27886D01*
X52382Y-28050D01*
X52196Y-28165D01*
X52137Y-28182D01*
X52081Y-28152D01*
X51918Y-28152D01*
X51863Y-28182D01*
X51804Y-28165D01*
X51618Y-28050D01*
X51500Y-27886D01*
X51382Y-28050D01*
X51196Y-28165D01*
X51137Y-28182D01*
X51081Y-28152D01*
X50918Y-28152D01*
X50863Y-28182D01*
X50804Y-28165D01*
X50618Y-28050D01*
X50500Y-27886D01*
X50382Y-28050D01*
X50196Y-28165D01*
X50137Y-28182D01*
X50081Y-28152D01*
X49918Y-28152D01*
X49863Y-28182D01*
X49804Y-28165D01*
X49618Y-28050D01*
X49500Y-27886D01*
X49382Y-28050D01*
X49196Y-28165D01*
X49137Y-28182D01*
X49081Y-28152D01*
X48918Y-28152D01*
X48863Y-28182D01*
X48804Y-28165D01*
X48618Y-28050D01*
X48499Y-27886D01*
X48382Y-28050D01*
X48196Y-28165D01*
X48137Y-28182D01*
X48081Y-28152D01*
X47918Y-28152D01*
X47863Y-28182D01*
X47804Y-28165D01*
X47618Y-28050D01*
X47490Y-27873D01*
X47475Y-27811D01*
X47424Y-27936D01*
X47283Y-28076D01*
X47275Y-28079D01*
X47275Y-28500D01*
X47254Y-28605D01*
X47233Y-28634D01*
X47194Y-28695D01*
X47113Y-28775D01*
X63025Y-28775D01*
X63025Y-28775D01*
G37*
G54D18*
X63025Y-28775D02*
X63025Y-13475D01*
X52500Y-13475D01*
X52605Y-13496D01*
X52694Y-13556D01*
X53694Y-14555D01*
X53754Y-14644D01*
X53757Y-14661D01*
X53775Y-14750D01*
X53775Y-15225D01*
X58000Y-15225D01*
X58105Y-15246D01*
X58194Y-15306D01*
X58694Y-15805D01*
X58754Y-15895D01*
X58775Y-16000D01*
X58775Y-17103D01*
X58903Y-17231D01*
X58975Y-17406D01*
X58975Y-17595D01*
X58902Y-17769D01*
X58775Y-17896D01*
X58775Y-18103D01*
X58903Y-18231D01*
X58975Y-18406D01*
X58975Y-18595D01*
X58902Y-18769D01*
X58775Y-18896D01*
X58775Y-19103D01*
X58903Y-19231D01*
X58975Y-19406D01*
X58975Y-19595D01*
X58902Y-19769D01*
X58769Y-19903D01*
X58608Y-19969D01*
X58613Y-19975D01*
X58750Y-19975D01*
X58855Y-19996D01*
X58944Y-20056D01*
X59694Y-20805D01*
X59733Y-20864D01*
X59740Y-20874D01*
X59804Y-20835D01*
X59863Y-20818D01*
X59918Y-20848D01*
X60081Y-20848D01*
X60137Y-20818D01*
X60196Y-20835D01*
X60382Y-20950D01*
X60499Y-21113D01*
X60618Y-20950D01*
X60804Y-20835D01*
X60863Y-20818D01*
X60918Y-20848D01*
X61081Y-20848D01*
X61137Y-20818D01*
X61196Y-20835D01*
X61382Y-20950D01*
X61500Y-21113D01*
X61618Y-20950D01*
X61804Y-20835D01*
X61863Y-20818D01*
X61918Y-20848D01*
X62081Y-20848D01*
X62137Y-20818D01*
X62196Y-20835D01*
X62382Y-20950D01*
X62510Y-21127D01*
X62560Y-21340D01*
X62560Y-21450D01*
X62500Y-21450D01*
X62500Y-21550D01*
X62560Y-21550D01*
X62560Y-21660D01*
X62510Y-21873D01*
X62382Y-22050D01*
X62196Y-22165D01*
X62137Y-22182D01*
X62081Y-22152D01*
X61918Y-22152D01*
X61863Y-22182D01*
X61804Y-22165D01*
X61618Y-22050D01*
X61500Y-21886D01*
X61382Y-22050D01*
X61196Y-22165D01*
X61137Y-22182D01*
X61081Y-22152D01*
X60918Y-22152D01*
X60863Y-22182D01*
X60804Y-22165D01*
X60618Y-22050D01*
X60499Y-21886D01*
X60382Y-22050D01*
X60196Y-22165D01*
X60137Y-22182D01*
X60081Y-22152D01*
X59918Y-22152D01*
X59863Y-22182D01*
X59804Y-22165D01*
X59775Y-22147D01*
X59775Y-22500D01*
X59754Y-22605D01*
X59733Y-22634D01*
X59694Y-22695D01*
X58944Y-23444D01*
X58855Y-23504D01*
X58750Y-23525D01*
X51113Y-23525D01*
X49194Y-25444D01*
X49105Y-25504D01*
X49000Y-25525D01*
X46775Y-25525D01*
X46775Y-26900D01*
X46901Y-26848D01*
X47100Y-26848D01*
X47284Y-26924D01*
X47424Y-27065D01*
X47475Y-27189D01*
X47490Y-27127D01*
X47618Y-26950D01*
X47804Y-26835D01*
X47863Y-26818D01*
X47918Y-26848D01*
X48081Y-26848D01*
X48137Y-26818D01*
X48196Y-26835D01*
X48382Y-26950D01*
X48500Y-27113D01*
X48618Y-26950D01*
X48804Y-26835D01*
X48863Y-26818D01*
X48918Y-26848D01*
X49081Y-26848D01*
X49137Y-26818D01*
X49196Y-26835D01*
X49382Y-26950D01*
X49500Y-27113D01*
X49618Y-26950D01*
X49804Y-26835D01*
X49863Y-26818D01*
X49918Y-26848D01*
X50081Y-26848D01*
X50137Y-26818D01*
X50196Y-26835D01*
X50382Y-26950D01*
X50500Y-27113D01*
X50618Y-26950D01*
X50804Y-26835D01*
X50863Y-26818D01*
X50918Y-26848D01*
X51081Y-26848D01*
X51137Y-26818D01*
X51196Y-26835D01*
X51382Y-26950D01*
X51499Y-27113D01*
X51618Y-26950D01*
X51804Y-26835D01*
X51863Y-26818D01*
X51918Y-26848D01*
X52081Y-26848D01*
X52137Y-26818D01*
X52196Y-26835D01*
X52382Y-26950D01*
X52500Y-27113D01*
X52618Y-26950D01*
X52804Y-26835D01*
X52863Y-26818D01*
X52918Y-26848D01*
X53081Y-26848D01*
X53137Y-26818D01*
X53196Y-26835D01*
X53382Y-26950D01*
X53500Y-27113D01*
X53618Y-26950D01*
X53804Y-26835D01*
X53863Y-26818D01*
X53918Y-26848D01*
X54081Y-26848D01*
X54137Y-26818D01*
X54196Y-26835D01*
X54382Y-26950D01*
X54500Y-27113D01*
X54618Y-26950D01*
X54804Y-26835D01*
X54863Y-26818D01*
X54918Y-26848D01*
X55081Y-26848D01*
X55137Y-26818D01*
X55196Y-26835D01*
X55382Y-26950D01*
X55500Y-27113D01*
X55618Y-26950D01*
X55804Y-26835D01*
X55863Y-26818D01*
X55918Y-26848D01*
X56081Y-26848D01*
X56137Y-26818D01*
X56196Y-26835D01*
X56382Y-26950D01*
X56500Y-27113D01*
X56618Y-26950D01*
X56804Y-26835D01*
X56863Y-26818D01*
X56918Y-26848D01*
X57081Y-26848D01*
X57137Y-26818D01*
X57196Y-26835D01*
X57382Y-26950D01*
X57500Y-27113D01*
X57618Y-26950D01*
X57804Y-26835D01*
X57863Y-26818D01*
X57918Y-26848D01*
X58081Y-26848D01*
X58137Y-26818D01*
X58196Y-26835D01*
X58382Y-26950D01*
X58500Y-27113D01*
X58618Y-26950D01*
X58804Y-26835D01*
X58863Y-26818D01*
X58918Y-26848D01*
X59081Y-26848D01*
X59137Y-26818D01*
X59196Y-26835D01*
X59382Y-26950D01*
X59500Y-27113D01*
X59618Y-26950D01*
X59804Y-26835D01*
X59863Y-26818D01*
X59918Y-26848D01*
X60081Y-26848D01*
X60137Y-26818D01*
X60196Y-26835D01*
X60382Y-26950D01*
X60499Y-27113D01*
X60618Y-26950D01*
X60804Y-26835D01*
X60863Y-26818D01*
X60918Y-26848D01*
X61081Y-26848D01*
X61137Y-26818D01*
X61196Y-26835D01*
X61382Y-26950D01*
X61500Y-27113D01*
X61618Y-26950D01*
X61804Y-26835D01*
X61863Y-26818D01*
X61918Y-26848D01*
X62081Y-26848D01*
X62137Y-26818D01*
X62196Y-26835D01*
X62382Y-26950D01*
X62510Y-27127D01*
X62560Y-27340D01*
X62560Y-27450D01*
X62500Y-27450D01*
X62500Y-27550D01*
X62560Y-27550D01*
X62560Y-27660D01*
X62510Y-27873D01*
X62382Y-28050D01*
X62196Y-28165D01*
X62137Y-28182D01*
X62081Y-28152D01*
X61918Y-28152D01*
X61863Y-28182D01*
X61804Y-28165D01*
X61618Y-28050D01*
X61500Y-27886D01*
X61382Y-28050D01*
X61196Y-28165D01*
X61137Y-28182D01*
X61081Y-28152D01*
X60918Y-28152D01*
X60863Y-28182D01*
X60804Y-28165D01*
X60618Y-28050D01*
X60499Y-27886D01*
X60382Y-28050D01*
X60196Y-28165D01*
X60137Y-28182D01*
X60081Y-28152D01*
X59918Y-28152D01*
X59863Y-28182D01*
X59804Y-28165D01*
X59618Y-28050D01*
X59500Y-27886D01*
X59382Y-28050D01*
X59196Y-28165D01*
X59137Y-28182D01*
X59081Y-28152D01*
X58918Y-28152D01*
X58863Y-28182D01*
X58804Y-28165D01*
X58618Y-28050D01*
X58500Y-27886D01*
X58382Y-28050D01*
X58196Y-28165D01*
X58137Y-28182D01*
X58081Y-28152D01*
X57918Y-28152D01*
X57863Y-28182D01*
X57804Y-28165D01*
X57618Y-28050D01*
X57500Y-27886D01*
X57382Y-28050D01*
X57196Y-28165D01*
X57137Y-28182D01*
X57081Y-28152D01*
X56918Y-28152D01*
X56863Y-28182D01*
X56804Y-28165D01*
X56618Y-28050D01*
X56500Y-27886D01*
X56382Y-28050D01*
X56196Y-28165D01*
X56137Y-28182D01*
X56081Y-28152D01*
X55918Y-28152D01*
X55863Y-28182D01*
X55804Y-28165D01*
X55618Y-28050D01*
X55500Y-27886D01*
X55382Y-28050D01*
X55196Y-28165D01*
X55137Y-28182D01*
X55081Y-28152D01*
X54918Y-28152D01*
X54863Y-28182D01*
X54804Y-28165D01*
X54618Y-28050D01*
X54500Y-27886D01*
X54382Y-28050D01*
X54196Y-28165D01*
X54137Y-28182D01*
X54081Y-28152D01*
X53918Y-28152D01*
X53863Y-28182D01*
X53804Y-28165D01*
X53618Y-28050D01*
X53500Y-27886D01*
X53382Y-28050D01*
X53196Y-28165D01*
X53137Y-28182D01*
X53081Y-28152D01*
X52918Y-28152D01*
X52863Y-28182D01*
X52804Y-28165D01*
X52618Y-28050D01*
X52500Y-27886D01*
X52382Y-28050D01*
X52196Y-28165D01*
X52137Y-28182D01*
X52081Y-28152D01*
X51918Y-28152D01*
X51863Y-28182D01*
X51804Y-28165D01*
X51618Y-28050D01*
X51500Y-27886D01*
X51382Y-28050D01*
X51196Y-28165D01*
X51137Y-28182D01*
X51081Y-28152D01*
X50918Y-28152D01*
X50863Y-28182D01*
X50804Y-28165D01*
X50618Y-28050D01*
X50500Y-27886D01*
X50382Y-28050D01*
X50196Y-28165D01*
X50137Y-28182D01*
X50081Y-28152D01*
X49918Y-28152D01*
X49863Y-28182D01*
X49804Y-28165D01*
X49618Y-28050D01*
X49500Y-27886D01*
X49382Y-28050D01*
X49196Y-28165D01*
X49137Y-28182D01*
X49081Y-28152D01*
X48918Y-28152D01*
X48863Y-28182D01*
X48804Y-28165D01*
X48618Y-28050D01*
X48499Y-27886D01*
X48382Y-28050D01*
X48196Y-28165D01*
X48137Y-28182D01*
X48081Y-28152D01*
X47918Y-28152D01*
X47863Y-28182D01*
X47804Y-28165D01*
X47618Y-28050D01*
X47490Y-27873D01*
X47475Y-27811D01*
X47424Y-27936D01*
X47283Y-28076D01*
X47275Y-28079D01*
X47275Y-28500D01*
X47254Y-28605D01*
X47233Y-28634D01*
X47194Y-28695D01*
X47113Y-28775D01*
X63025Y-28775D01*
G54D10*
G36*
X44636Y-28775D02*
X44306Y-28444D01*
X44246Y-28355D01*
X44225Y-28250D01*
X44225Y-28099D01*
X44099Y-28152D01*
X43900Y-28152D01*
X43716Y-28076D01*
X43576Y-27935D01*
X43509Y-27772D01*
X43509Y-27990D01*
X43478Y-28063D01*
X43422Y-28119D01*
X43349Y-28149D01*
X42650Y-28149D01*
X42577Y-28118D01*
X42521Y-28062D01*
X42491Y-27989D01*
X42491Y-27010D01*
X42522Y-26937D01*
X42578Y-26881D01*
X42651Y-26851D01*
X42725Y-26851D01*
X42725Y-25113D01*
X41725Y-24113D01*
X41725Y-28775D01*
X44636Y-28775D01*
X44636Y-28775D01*
G37*
G54D18*
X44636Y-28775D02*
X44306Y-28444D01*
X44246Y-28355D01*
X44225Y-28250D01*
X44225Y-28099D01*
X44099Y-28152D01*
X43900Y-28152D01*
X43716Y-28076D01*
X43576Y-27935D01*
X43509Y-27772D01*
X43509Y-27990D01*
X43478Y-28063D01*
X43422Y-28119D01*
X43349Y-28149D01*
X42650Y-28149D01*
X42577Y-28118D01*
X42521Y-28062D01*
X42491Y-27989D01*
X42491Y-27010D01*
X42522Y-26937D01*
X42578Y-26881D01*
X42651Y-26851D01*
X42725Y-26851D01*
X42725Y-25113D01*
X41725Y-24113D01*
X41725Y-28775D01*
X44636Y-28775D01*
G54D10*
G36*
X46636Y-28475D02*
X46725Y-28386D01*
X46725Y-28148D01*
X46694Y-28195D01*
X46444Y-28444D01*
X46398Y-28475D01*
X46636Y-28475D01*
X46636Y-28475D01*
G37*
G54D18*
X46636Y-28475D02*
X46725Y-28386D01*
X46725Y-28148D01*
X46694Y-28195D01*
X46444Y-28444D01*
X46398Y-28475D01*
X46636Y-28475D01*
G54D10*
G36*
X45601Y-28475D02*
X45555Y-28444D01*
X45306Y-28194D01*
X45259Y-28125D01*
X45196Y-28165D01*
X45137Y-28182D01*
X45081Y-28152D01*
X44918Y-28152D01*
X44863Y-28182D01*
X44804Y-28165D01*
X44803Y-28164D01*
X45113Y-28475D01*
X45601Y-28475D01*
X45601Y-28475D01*
G37*
G54D18*
X45601Y-28475D02*
X45555Y-28444D01*
X45306Y-28194D01*
X45259Y-28125D01*
X45196Y-28165D01*
X45137Y-28182D01*
X45081Y-28152D01*
X44918Y-28152D01*
X44863Y-28182D01*
X44804Y-28165D01*
X44803Y-28164D01*
X45113Y-28475D01*
X45601Y-28475D01*
G54D10*
G36*
X43509Y-27226D02*
X43576Y-27064D01*
X43717Y-26924D01*
X43725Y-26920D01*
X43725Y-26613D01*
X43603Y-26491D01*
X43598Y-26494D01*
X43401Y-26494D01*
X43275Y-26441D01*
X43275Y-26851D01*
X43350Y-26851D01*
X43423Y-26882D01*
X43479Y-26938D01*
X43509Y-27011D01*
X43509Y-27226D01*
X43509Y-27226D01*
G37*
G54D18*
X43509Y-27226D02*
X43576Y-27064D01*
X43717Y-26924D01*
X43725Y-26920D01*
X43725Y-26613D01*
X43603Y-26491D01*
X43598Y-26494D01*
X43401Y-26494D01*
X43275Y-26441D01*
X43275Y-26851D01*
X43350Y-26851D01*
X43423Y-26882D01*
X43479Y-26938D01*
X43509Y-27011D01*
X43509Y-27226D01*
G54D10*
G36*
X45225Y-26852D02*
X45225Y-26113D01*
X42806Y-23694D01*
X42746Y-23605D01*
X42725Y-23500D01*
X42725Y-22079D01*
X42716Y-22076D01*
X42576Y-21935D01*
X42525Y-21811D01*
X42525Y-23636D01*
X44694Y-25805D01*
X44733Y-25864D01*
X44754Y-25895D01*
X44775Y-26000D01*
X44775Y-26852D01*
X44804Y-26835D01*
X44863Y-26818D01*
X44918Y-26848D01*
X45081Y-26848D01*
X45137Y-26818D01*
X45196Y-26835D01*
X45225Y-26852D01*
X45225Y-26852D01*
G37*
G54D18*
X45225Y-26852D02*
X45225Y-26113D01*
X42806Y-23694D01*
X42746Y-23605D01*
X42725Y-23500D01*
X42725Y-22079D01*
X42716Y-22076D01*
X42576Y-21935D01*
X42525Y-21811D01*
X42525Y-23636D01*
X44694Y-25805D01*
X44733Y-25864D01*
X44754Y-25895D01*
X44775Y-26000D01*
X44775Y-26852D01*
X44804Y-26835D01*
X44863Y-26818D01*
X44918Y-26848D01*
X45081Y-26848D01*
X45137Y-26818D01*
X45196Y-26835D01*
X45225Y-26852D01*
G54D10*
G36*
X44225Y-26351D02*
X44225Y-26113D01*
X43980Y-25869D01*
X43994Y-25902D01*
X43994Y-26099D01*
X43992Y-26103D01*
X44194Y-26305D01*
X44225Y-26351D01*
X44225Y-26351D01*
G37*
G54D18*
X44225Y-26351D02*
X44225Y-26113D01*
X43980Y-25869D01*
X43994Y-25902D01*
X43994Y-26099D01*
X43992Y-26103D01*
X44194Y-26305D01*
X44225Y-26351D01*
G54D10*
G36*
X45725Y-25851D02*
X45725Y-25613D01*
X44306Y-24194D01*
X44246Y-24105D01*
X44225Y-24000D01*
X44225Y-23394D01*
X44169Y-23530D01*
X44030Y-23669D01*
X43848Y-23744D01*
X43651Y-23744D01*
X43618Y-23730D01*
X45694Y-25805D01*
X45725Y-25851D01*
X45725Y-25851D01*
G37*
G54D18*
X45725Y-25851D02*
X45725Y-25613D01*
X44306Y-24194D01*
X44246Y-24105D01*
X44225Y-24000D01*
X44225Y-23394D01*
X44169Y-23530D01*
X44030Y-23669D01*
X43848Y-23744D01*
X43651Y-23744D01*
X43618Y-23730D01*
X45694Y-25805D01*
X45725Y-25851D01*
G54D10*
G36*
X43275Y-25558D02*
X43402Y-25506D01*
X43599Y-25506D01*
X43630Y-25518D01*
X43275Y-25163D01*
X43275Y-25558D01*
X43275Y-25558D01*
G37*
G54D18*
X43275Y-25558D02*
X43402Y-25506D01*
X43599Y-25506D01*
X43630Y-25518D01*
X43275Y-25163D01*
X43275Y-25558D01*
G54D10*
G36*
X46225Y-25350D02*
X46225Y-24750D01*
X46246Y-24645D01*
X46306Y-24556D01*
X47225Y-23636D01*
X47225Y-23121D01*
X47218Y-23138D01*
X47162Y-23194D01*
X47150Y-23198D01*
X47150Y-23375D01*
X47129Y-23480D01*
X47108Y-23510D01*
X47069Y-23570D01*
X46944Y-23694D01*
X46855Y-23754D01*
X46750Y-23775D01*
X46249Y-23775D01*
X46249Y-23815D01*
X46218Y-23888D01*
X46162Y-23944D01*
X46089Y-23974D01*
X45660Y-23974D01*
X45587Y-23943D01*
X45531Y-23887D01*
X45501Y-23814D01*
X45501Y-23185D01*
X45532Y-23112D01*
X45588Y-23056D01*
X45661Y-23026D01*
X45751Y-23026D01*
X45751Y-22435D01*
X45782Y-22362D01*
X45838Y-22306D01*
X45850Y-22301D01*
X45850Y-22131D01*
X45716Y-22076D01*
X45576Y-21935D01*
X45500Y-21751D01*
X45500Y-21752D01*
X45424Y-21936D01*
X45400Y-21959D01*
X45400Y-23051D01*
X45413Y-23057D01*
X45469Y-23113D01*
X45499Y-23186D01*
X45499Y-23815D01*
X45468Y-23888D01*
X45412Y-23944D01*
X45339Y-23974D01*
X44910Y-23974D01*
X44837Y-23943D01*
X44781Y-23887D01*
X44775Y-23872D01*
X44775Y-23886D01*
X46194Y-25305D01*
X46225Y-25350D01*
X46225Y-25350D01*
G37*
G54D18*
X46225Y-25350D02*
X46225Y-24750D01*
X46246Y-24645D01*
X46306Y-24556D01*
X47225Y-23636D01*
X47225Y-23121D01*
X47218Y-23138D01*
X47162Y-23194D01*
X47150Y-23198D01*
X47150Y-23375D01*
X47129Y-23480D01*
X47108Y-23510D01*
X47069Y-23570D01*
X46944Y-23694D01*
X46855Y-23754D01*
X46750Y-23775D01*
X46249Y-23775D01*
X46249Y-23815D01*
X46218Y-23888D01*
X46162Y-23944D01*
X46089Y-23974D01*
X45660Y-23974D01*
X45587Y-23943D01*
X45531Y-23887D01*
X45501Y-23814D01*
X45501Y-23185D01*
X45532Y-23112D01*
X45588Y-23056D01*
X45661Y-23026D01*
X45751Y-23026D01*
X45751Y-22435D01*
X45782Y-22362D01*
X45838Y-22306D01*
X45850Y-22301D01*
X45850Y-22131D01*
X45716Y-22076D01*
X45576Y-21935D01*
X45500Y-21751D01*
X45500Y-21752D01*
X45424Y-21936D01*
X45400Y-21959D01*
X45400Y-23051D01*
X45413Y-23057D01*
X45469Y-23113D01*
X45499Y-23186D01*
X45499Y-23815D01*
X45468Y-23888D01*
X45412Y-23944D01*
X45339Y-23974D01*
X44910Y-23974D01*
X44837Y-23943D01*
X44781Y-23887D01*
X44775Y-23872D01*
X44775Y-23886D01*
X46194Y-25305D01*
X46225Y-25350D01*
G54D10*
G36*
X48886Y-24975D02*
X50805Y-23056D01*
X50894Y-22996D01*
X50911Y-22992D01*
X51000Y-22975D01*
X51101Y-22975D01*
X51055Y-22944D01*
X50806Y-22694D01*
X50746Y-22605D01*
X50725Y-22500D01*
X50725Y-22398D01*
X50694Y-22445D01*
X48962Y-24175D01*
X48919Y-24280D01*
X48780Y-24419D01*
X48598Y-24494D01*
X48401Y-24494D01*
X48220Y-24419D01*
X48081Y-24280D01*
X48006Y-24098D01*
X48006Y-23901D01*
X48081Y-23720D01*
X48220Y-23581D01*
X48402Y-23506D01*
X48599Y-23506D01*
X48780Y-23581D01*
X48877Y-23484D01*
X48720Y-23419D01*
X48581Y-23280D01*
X48506Y-23098D01*
X48506Y-22901D01*
X48507Y-22896D01*
X48306Y-22694D01*
X48246Y-22605D01*
X48225Y-22500D01*
X48225Y-22099D01*
X48099Y-22152D01*
X47900Y-22152D01*
X47775Y-22100D01*
X47775Y-23750D01*
X47757Y-23838D01*
X47754Y-23856D01*
X47694Y-23945D01*
X46775Y-24863D01*
X46775Y-24975D01*
X48886Y-24975D01*
X48886Y-24975D01*
G37*
G54D18*
X48886Y-24975D02*
X50805Y-23056D01*
X50894Y-22996D01*
X50911Y-22992D01*
X51000Y-22975D01*
X51101Y-22975D01*
X51055Y-22944D01*
X50806Y-22694D01*
X50746Y-22605D01*
X50725Y-22500D01*
X50725Y-22398D01*
X50694Y-22445D01*
X48962Y-24175D01*
X48919Y-24280D01*
X48780Y-24419D01*
X48598Y-24494D01*
X48401Y-24494D01*
X48220Y-24419D01*
X48081Y-24280D01*
X48006Y-24098D01*
X48006Y-23901D01*
X48081Y-23720D01*
X48220Y-23581D01*
X48402Y-23506D01*
X48599Y-23506D01*
X48780Y-23581D01*
X48877Y-23484D01*
X48720Y-23419D01*
X48581Y-23280D01*
X48506Y-23098D01*
X48506Y-22901D01*
X48507Y-22896D01*
X48306Y-22694D01*
X48246Y-22605D01*
X48225Y-22500D01*
X48225Y-22099D01*
X48099Y-22152D01*
X47900Y-22152D01*
X47775Y-22100D01*
X47775Y-23750D01*
X47757Y-23838D01*
X47754Y-23856D01*
X47694Y-23945D01*
X46775Y-24863D01*
X46775Y-24975D01*
X48886Y-24975D01*
G54D10*
G36*
X46600Y-23225D02*
X46600Y-23198D01*
X46587Y-23193D01*
X46531Y-23137D01*
X46501Y-23064D01*
X46501Y-22435D01*
X46532Y-22362D01*
X46588Y-22306D01*
X46661Y-22276D01*
X47090Y-22276D01*
X47163Y-22307D01*
X47219Y-22363D01*
X47225Y-22377D01*
X47225Y-22099D01*
X47099Y-22152D01*
X46900Y-22152D01*
X46716Y-22076D01*
X46576Y-21935D01*
X46500Y-21751D01*
X46500Y-21752D01*
X46424Y-21936D01*
X46400Y-21959D01*
X46400Y-22301D01*
X46413Y-22307D01*
X46469Y-22363D01*
X46499Y-22436D01*
X46499Y-23065D01*
X46468Y-23138D01*
X46412Y-23194D01*
X46339Y-23224D01*
X46249Y-23224D01*
X46249Y-23225D01*
X46600Y-23225D01*
X46600Y-23225D01*
G37*
G54D18*
X46600Y-23225D02*
X46600Y-23198D01*
X46587Y-23193D01*
X46531Y-23137D01*
X46501Y-23064D01*
X46501Y-22435D01*
X46532Y-22362D01*
X46588Y-22306D01*
X46661Y-22276D01*
X47090Y-22276D01*
X47163Y-22307D01*
X47219Y-22363D01*
X47225Y-22377D01*
X47225Y-22099D01*
X47099Y-22152D01*
X46900Y-22152D01*
X46716Y-22076D01*
X46576Y-21935D01*
X46500Y-21751D01*
X46500Y-21752D01*
X46424Y-21936D01*
X46400Y-21959D01*
X46400Y-22301D01*
X46413Y-22307D01*
X46469Y-22363D01*
X46499Y-22436D01*
X46499Y-23065D01*
X46468Y-23138D01*
X46412Y-23194D01*
X46339Y-23224D01*
X46249Y-23224D01*
X46249Y-23225D01*
X46600Y-23225D01*
G54D10*
G36*
X43275Y-23105D02*
X43331Y-22970D01*
X43470Y-22831D01*
X43652Y-22756D01*
X43725Y-22756D01*
X43725Y-22079D01*
X43716Y-22076D01*
X43576Y-21935D01*
X43500Y-21751D01*
X43500Y-21752D01*
X43424Y-21936D01*
X43283Y-22076D01*
X43275Y-22079D01*
X43275Y-23105D01*
X43275Y-23105D01*
G37*
G54D18*
X43275Y-23105D02*
X43331Y-22970D01*
X43470Y-22831D01*
X43652Y-22756D01*
X43725Y-22756D01*
X43725Y-22079D01*
X43716Y-22076D01*
X43576Y-21935D01*
X43500Y-21751D01*
X43500Y-21752D01*
X43424Y-21936D01*
X43283Y-22076D01*
X43275Y-22079D01*
X43275Y-23105D01*
G54D10*
G36*
X58636Y-22975D02*
X59225Y-22386D01*
X59225Y-22147D01*
X59196Y-22165D01*
X59137Y-22182D01*
X59081Y-22152D01*
X58918Y-22152D01*
X58863Y-22182D01*
X58804Y-22165D01*
X58739Y-22125D01*
X58733Y-22134D01*
X58694Y-22195D01*
X57944Y-22944D01*
X57898Y-22975D01*
X58636Y-22975D01*
X58636Y-22975D01*
G37*
G54D18*
X58636Y-22975D02*
X59225Y-22386D01*
X59225Y-22147D01*
X59196Y-22165D01*
X59137Y-22182D01*
X59081Y-22152D01*
X58918Y-22152D01*
X58863Y-22182D01*
X58804Y-22165D01*
X58739Y-22125D01*
X58733Y-22134D01*
X58694Y-22195D01*
X57944Y-22944D01*
X57898Y-22975D01*
X58636Y-22975D01*
G54D10*
G36*
X49483Y-22877D02*
X50225Y-22136D01*
X50225Y-22099D01*
X50099Y-22152D01*
X49900Y-22152D01*
X49716Y-22076D01*
X49576Y-21935D01*
X49500Y-21751D01*
X49500Y-21752D01*
X49424Y-21936D01*
X49283Y-22076D01*
X49099Y-22152D01*
X48900Y-22152D01*
X48775Y-22100D01*
X48775Y-22386D01*
X48896Y-22508D01*
X48902Y-22506D01*
X49099Y-22506D01*
X49280Y-22581D01*
X49419Y-22720D01*
X49483Y-22877D01*
X49483Y-22877D01*
G37*
G54D18*
X49483Y-22877D02*
X50225Y-22136D01*
X50225Y-22099D01*
X50099Y-22152D01*
X49900Y-22152D01*
X49716Y-22076D01*
X49576Y-21935D01*
X49500Y-21751D01*
X49500Y-21752D01*
X49424Y-21936D01*
X49283Y-22076D01*
X49099Y-22152D01*
X48900Y-22152D01*
X48775Y-22100D01*
X48775Y-22386D01*
X48896Y-22508D01*
X48902Y-22506D01*
X49099Y-22506D01*
X49280Y-22581D01*
X49419Y-22720D01*
X49483Y-22877D01*
G54D10*
G36*
X57636Y-22475D02*
X57959Y-22151D01*
X57900Y-22152D01*
X57756Y-22092D01*
X57754Y-22105D01*
X57733Y-22134D01*
X57694Y-22195D01*
X57444Y-22444D01*
X57398Y-22475D01*
X57636Y-22475D01*
X57636Y-22475D01*
G37*
G54D18*
X57636Y-22475D02*
X57959Y-22151D01*
X57900Y-22152D01*
X57756Y-22092D01*
X57754Y-22105D01*
X57733Y-22134D01*
X57694Y-22195D01*
X57444Y-22444D01*
X57398Y-22475D01*
X57636Y-22475D01*
G54D10*
G36*
X54101Y-22475D02*
X54055Y-22444D01*
X53806Y-22194D01*
X53746Y-22105D01*
X53742Y-22086D01*
X53716Y-22076D01*
X53576Y-21935D01*
X53500Y-21751D01*
X53500Y-21752D01*
X53424Y-21936D01*
X53283Y-22076D01*
X53099Y-22152D01*
X52900Y-22152D01*
X52716Y-22076D01*
X52576Y-21935D01*
X52500Y-21751D01*
X52500Y-21752D01*
X52424Y-21936D01*
X52283Y-22076D01*
X52099Y-22152D01*
X51900Y-22152D01*
X51716Y-22076D01*
X51576Y-21935D01*
X51500Y-21751D01*
X51500Y-21752D01*
X51424Y-21936D01*
X51283Y-22076D01*
X51275Y-22079D01*
X51275Y-22386D01*
X51363Y-22474D01*
X54101Y-22475D01*
X54101Y-22475D01*
G37*
G54D18*
X54101Y-22475D02*
X54055Y-22444D01*
X53806Y-22194D01*
X53746Y-22105D01*
X53742Y-22086D01*
X53716Y-22076D01*
X53576Y-21935D01*
X53500Y-21751D01*
X53500Y-21752D01*
X53424Y-21936D01*
X53283Y-22076D01*
X53099Y-22152D01*
X52900Y-22152D01*
X52716Y-22076D01*
X52576Y-21935D01*
X52500Y-21751D01*
X52500Y-21752D01*
X52424Y-21936D01*
X52283Y-22076D01*
X52099Y-22152D01*
X51900Y-22152D01*
X51716Y-22076D01*
X51576Y-21935D01*
X51500Y-21751D01*
X51500Y-21752D01*
X51424Y-21936D01*
X51283Y-22076D01*
X51275Y-22079D01*
X51275Y-22386D01*
X51363Y-22474D01*
X54101Y-22475D01*
G54D10*
G36*
X44850Y-22401D02*
X44850Y-22131D01*
X44775Y-22100D01*
X44775Y-22328D01*
X44780Y-22331D01*
X44850Y-22401D01*
X44850Y-22401D01*
G37*
G54D18*
X44850Y-22401D02*
X44850Y-22131D01*
X44775Y-22100D01*
X44775Y-22328D01*
X44780Y-22331D01*
X44850Y-22401D01*
G54D10*
G36*
X56615Y-21975D02*
X56576Y-21935D01*
X56524Y-21810D01*
X56510Y-21873D01*
X56436Y-21975D01*
X56615Y-21975D01*
X56615Y-21975D01*
G37*
G54D18*
X56615Y-21975D02*
X56576Y-21935D01*
X56524Y-21810D01*
X56510Y-21873D01*
X56436Y-21975D01*
X56615Y-21975D01*
G54D10*
G36*
X55563Y-21975D02*
X55500Y-21886D01*
X55436Y-21975D01*
X55563Y-21975D01*
X55563Y-21975D01*
G37*
G54D18*
X55563Y-21975D02*
X55500Y-21886D01*
X55436Y-21975D01*
X55563Y-21975D01*
G54D10*
G36*
X54563Y-21975D02*
X54490Y-21873D01*
X54475Y-21811D01*
X54424Y-21936D01*
X54384Y-21975D01*
X54563Y-21975D01*
X54563Y-21975D01*
G37*
G54D18*
X54563Y-21975D02*
X54490Y-21873D01*
X54475Y-21811D01*
X54424Y-21936D01*
X54384Y-21975D01*
X54563Y-21975D01*
G54D10*
G36*
X53500Y-21249D02*
X53500Y-21248D01*
X53576Y-21064D01*
X53717Y-20924D01*
X53901Y-20848D01*
X54100Y-20848D01*
X54284Y-20924D01*
X54424Y-21065D01*
X54475Y-21189D01*
X54490Y-21127D01*
X54618Y-20950D01*
X54804Y-20835D01*
X54863Y-20818D01*
X54918Y-20848D01*
X55081Y-20848D01*
X55137Y-20818D01*
X55196Y-20835D01*
X55382Y-20950D01*
X55500Y-21113D01*
X55618Y-20950D01*
X55804Y-20835D01*
X55863Y-20818D01*
X55918Y-20848D01*
X56081Y-20848D01*
X56137Y-20818D01*
X56196Y-20835D01*
X55306Y-19944D01*
X55296Y-19929D01*
X55275Y-19920D01*
X55275Y-20000D01*
X55254Y-20105D01*
X55194Y-20195D01*
X54694Y-20694D01*
X54605Y-20754D01*
X54500Y-20775D01*
X53613Y-20775D01*
X53373Y-21014D01*
X53424Y-21065D01*
X53500Y-21249D01*
X53500Y-21249D01*
G37*
G54D18*
X53500Y-21249D02*
X53500Y-21248D01*
X53576Y-21064D01*
X53717Y-20924D01*
X53901Y-20848D01*
X54100Y-20848D01*
X54284Y-20924D01*
X54424Y-21065D01*
X54475Y-21189D01*
X54490Y-21127D01*
X54618Y-20950D01*
X54804Y-20835D01*
X54863Y-20818D01*
X54918Y-20848D01*
X55081Y-20848D01*
X55137Y-20818D01*
X55196Y-20835D01*
X55382Y-20950D01*
X55500Y-21113D01*
X55618Y-20950D01*
X55804Y-20835D01*
X55863Y-20818D01*
X55918Y-20848D01*
X56081Y-20848D01*
X56137Y-20818D01*
X56196Y-20835D01*
X55306Y-19944D01*
X55296Y-19929D01*
X55275Y-19920D01*
X55275Y-20000D01*
X55254Y-20105D01*
X55194Y-20195D01*
X54694Y-20694D01*
X54605Y-20754D01*
X54500Y-20775D01*
X53613Y-20775D01*
X53373Y-21014D01*
X53424Y-21065D01*
X53500Y-21249D01*
G54D10*
G36*
X52500Y-21249D02*
X52500Y-21248D01*
X52576Y-21064D01*
X52717Y-20924D01*
X52742Y-20913D01*
X52746Y-20895D01*
X52751Y-20887D01*
X52467Y-21170D01*
X52500Y-21249D01*
X52500Y-21249D01*
G37*
G54D18*
X52500Y-21249D02*
X52500Y-21248D01*
X52576Y-21064D01*
X52717Y-20924D01*
X52742Y-20913D01*
X52746Y-20895D01*
X52751Y-20887D01*
X52467Y-21170D01*
X52500Y-21249D01*
G54D10*
G36*
X51500Y-21249D02*
X51500Y-21248D01*
X51576Y-21064D01*
X51717Y-20924D01*
X51901Y-20848D01*
X52013Y-20848D01*
X52362Y-20498D01*
X52355Y-20504D01*
X52250Y-20525D01*
X51113Y-20525D01*
X50775Y-20863D01*
X50775Y-20900D01*
X50901Y-20848D01*
X51100Y-20848D01*
X51284Y-20924D01*
X51424Y-21065D01*
X51500Y-21249D01*
X51500Y-21249D01*
G37*
G54D18*
X51500Y-21249D02*
X51500Y-21248D01*
X51576Y-21064D01*
X51717Y-20924D01*
X51901Y-20848D01*
X52013Y-20848D01*
X52362Y-20498D01*
X52355Y-20504D01*
X52250Y-20525D01*
X51113Y-20525D01*
X50775Y-20863D01*
X50775Y-20900D01*
X50901Y-20848D01*
X51100Y-20848D01*
X51284Y-20924D01*
X51424Y-21065D01*
X51500Y-21249D01*
G54D10*
G36*
X49500Y-21249D02*
X49500Y-21248D01*
X49576Y-21064D01*
X49717Y-20924D01*
X49725Y-20920D01*
X49725Y-17500D01*
X49746Y-17395D01*
X49806Y-17306D01*
X50805Y-16306D01*
X50894Y-16246D01*
X50911Y-16242D01*
X51000Y-16225D01*
X51506Y-16225D01*
X51506Y-16151D01*
X51581Y-15970D01*
X51720Y-15831D01*
X51855Y-15775D01*
X49191Y-15775D01*
X49244Y-15902D01*
X49244Y-16099D01*
X49236Y-16118D01*
X49254Y-16145D01*
X49275Y-16250D01*
X49275Y-20920D01*
X49284Y-20924D01*
X49424Y-21065D01*
X49500Y-21249D01*
X49500Y-21249D01*
G37*
G54D18*
X49500Y-21249D02*
X49500Y-21248D01*
X49576Y-21064D01*
X49717Y-20924D01*
X49725Y-20920D01*
X49725Y-17500D01*
X49746Y-17395D01*
X49806Y-17306D01*
X50805Y-16306D01*
X50894Y-16246D01*
X50911Y-16242D01*
X51000Y-16225D01*
X51506Y-16225D01*
X51506Y-16151D01*
X51581Y-15970D01*
X51720Y-15831D01*
X51855Y-15775D01*
X49191Y-15775D01*
X49244Y-15902D01*
X49244Y-16099D01*
X49236Y-16118D01*
X49254Y-16145D01*
X49275Y-16250D01*
X49275Y-20920D01*
X49284Y-20924D01*
X49424Y-21065D01*
X49500Y-21249D01*
G54D10*
G36*
X46500Y-21249D02*
X46500Y-21248D01*
X46576Y-21064D01*
X46717Y-20924D01*
X46725Y-20920D01*
X46725Y-20863D01*
X46306Y-20444D01*
X46275Y-20398D01*
X46275Y-20920D01*
X46284Y-20924D01*
X46424Y-21065D01*
X46500Y-21249D01*
X46500Y-21249D01*
G37*
G54D18*
X46500Y-21249D02*
X46500Y-21248D01*
X46576Y-21064D01*
X46717Y-20924D01*
X46725Y-20920D01*
X46725Y-20863D01*
X46306Y-20444D01*
X46275Y-20398D01*
X46275Y-20920D01*
X46284Y-20924D01*
X46424Y-21065D01*
X46500Y-21249D01*
G54D10*
G36*
X45500Y-21249D02*
X45500Y-21248D01*
X45576Y-21064D01*
X45717Y-20924D01*
X45725Y-20920D01*
X45725Y-19896D01*
X45597Y-19769D01*
X45525Y-19594D01*
X45525Y-19405D01*
X45554Y-19333D01*
X45475Y-19413D01*
X45475Y-19595D01*
X45402Y-19769D01*
X45275Y-19896D01*
X45275Y-20920D01*
X45284Y-20924D01*
X45424Y-21065D01*
X45500Y-21249D01*
X45500Y-21249D01*
G37*
G54D18*
X45500Y-21249D02*
X45500Y-21248D01*
X45576Y-21064D01*
X45717Y-20924D01*
X45725Y-20920D01*
X45725Y-19896D01*
X45597Y-19769D01*
X45525Y-19594D01*
X45525Y-19405D01*
X45554Y-19333D01*
X45475Y-19413D01*
X45475Y-19595D01*
X45402Y-19769D01*
X45275Y-19896D01*
X45275Y-20920D01*
X45284Y-20924D01*
X45424Y-21065D01*
X45500Y-21249D01*
G54D10*
G36*
X43500Y-21249D02*
X43500Y-21248D01*
X43576Y-21064D01*
X43625Y-21014D01*
X43056Y-20444D01*
X43025Y-20398D01*
X43025Y-20848D01*
X43100Y-20848D01*
X43284Y-20924D01*
X43424Y-21065D01*
X43500Y-21249D01*
X43500Y-21249D01*
G37*
G54D18*
X43500Y-21249D02*
X43500Y-21248D01*
X43576Y-21064D01*
X43625Y-21014D01*
X43056Y-20444D01*
X43025Y-20398D01*
X43025Y-20848D01*
X43100Y-20848D01*
X43284Y-20924D01*
X43424Y-21065D01*
X43500Y-21249D01*
G54D10*
G36*
X56524Y-21187D02*
X56531Y-21170D01*
X56516Y-21155D01*
X56524Y-21187D01*
X56524Y-21187D01*
G37*
G54D18*
X56524Y-21187D02*
X56531Y-21170D01*
X56516Y-21155D01*
X56524Y-21187D01*
G54D10*
G36*
X58775Y-20852D02*
X58804Y-20835D01*
X58863Y-20818D01*
X58918Y-20848D01*
X58959Y-20848D01*
X58750Y-20638D01*
X58754Y-20644D01*
X58757Y-20661D01*
X58775Y-20750D01*
X58775Y-20852D01*
X58775Y-20852D01*
G37*
G54D18*
X58775Y-20852D02*
X58804Y-20835D01*
X58863Y-20818D01*
X58918Y-20848D01*
X58959Y-20848D01*
X58750Y-20638D01*
X58754Y-20644D01*
X58757Y-20661D01*
X58775Y-20750D01*
X58775Y-20852D01*
G54D10*
G36*
X44225Y-20851D02*
X44225Y-20613D01*
X43806Y-20194D01*
X43746Y-20105D01*
X43725Y-20000D01*
X43725Y-19974D01*
X43685Y-19974D01*
X43612Y-19943D01*
X43556Y-19887D01*
X43526Y-19814D01*
X43526Y-19185D01*
X43557Y-19112D01*
X43613Y-19056D01*
X43686Y-19026D01*
X44085Y-19026D01*
X44137Y-18974D01*
X43685Y-18974D01*
X43612Y-18943D01*
X43556Y-18887D01*
X43540Y-18848D01*
X43525Y-18863D01*
X43525Y-20136D01*
X44194Y-20805D01*
X44225Y-20851D01*
X44225Y-20851D01*
G37*
G54D18*
X44225Y-20851D02*
X44225Y-20613D01*
X43806Y-20194D01*
X43746Y-20105D01*
X43725Y-20000D01*
X43725Y-19974D01*
X43685Y-19974D01*
X43612Y-19943D01*
X43556Y-19887D01*
X43526Y-19814D01*
X43526Y-19185D01*
X43557Y-19112D01*
X43613Y-19056D01*
X43686Y-19026D01*
X44085Y-19026D01*
X44137Y-18974D01*
X43685Y-18974D01*
X43612Y-18943D01*
X43556Y-18887D01*
X43540Y-18848D01*
X43525Y-18863D01*
X43525Y-20136D01*
X44194Y-20805D01*
X44225Y-20851D01*
G54D10*
G36*
X50275Y-20601D02*
X50306Y-20556D01*
X50805Y-20056D01*
X50895Y-19996D01*
X51000Y-19975D01*
X52136Y-19975D01*
X53475Y-18636D01*
X53475Y-17250D01*
X53496Y-17145D01*
X53556Y-17056D01*
X53805Y-16806D01*
X53895Y-16746D01*
X54000Y-16725D01*
X55250Y-16725D01*
X55355Y-16746D01*
X55444Y-16806D01*
X55694Y-17055D01*
X55704Y-17070D01*
X55769Y-17098D01*
X55903Y-17231D01*
X55975Y-17406D01*
X55975Y-17595D01*
X55902Y-17769D01*
X55769Y-17903D01*
X55594Y-17975D01*
X55405Y-17975D01*
X55231Y-17902D01*
X55097Y-17769D01*
X55025Y-17594D01*
X55025Y-17405D01*
X55079Y-17275D01*
X54974Y-17275D01*
X54974Y-17815D01*
X54943Y-17888D01*
X54887Y-17944D01*
X54814Y-17974D01*
X54775Y-17974D01*
X54775Y-18026D01*
X54815Y-18026D01*
X54888Y-18057D01*
X54944Y-18113D01*
X54974Y-18186D01*
X54974Y-18637D01*
X55025Y-18586D01*
X55025Y-18405D01*
X55098Y-18231D01*
X55231Y-18097D01*
X55406Y-18025D01*
X55595Y-18025D01*
X55769Y-18098D01*
X55903Y-18231D01*
X55975Y-18406D01*
X55975Y-18595D01*
X55902Y-18769D01*
X55769Y-18903D01*
X55594Y-18975D01*
X55413Y-18975D01*
X55333Y-19054D01*
X55406Y-19025D01*
X55595Y-19025D01*
X55769Y-19098D01*
X55774Y-19103D01*
X55806Y-19056D01*
X56095Y-18765D01*
X56025Y-18594D01*
X56025Y-18405D01*
X56098Y-18231D01*
X56231Y-18097D01*
X56406Y-18025D01*
X56595Y-18025D01*
X56769Y-18098D01*
X56903Y-18231D01*
X56975Y-18406D01*
X56975Y-18595D01*
X56902Y-18769D01*
X56769Y-18903D01*
X56704Y-18929D01*
X56694Y-18945D01*
X56608Y-19030D01*
X56769Y-19098D01*
X56903Y-19231D01*
X56929Y-19296D01*
X56944Y-19306D01*
X57030Y-19392D01*
X57098Y-19231D01*
X57225Y-19103D01*
X57225Y-18896D01*
X57097Y-18769D01*
X57025Y-18594D01*
X57025Y-18405D01*
X57098Y-18231D01*
X57225Y-18103D01*
X57225Y-17896D01*
X57097Y-17769D01*
X57025Y-17594D01*
X57025Y-17405D01*
X57052Y-17333D01*
X56975Y-17413D01*
X56975Y-17595D01*
X56902Y-17769D01*
X56769Y-17903D01*
X56594Y-17975D01*
X56405Y-17975D01*
X56231Y-17902D01*
X56097Y-17769D01*
X56025Y-17594D01*
X56025Y-17405D01*
X56098Y-17231D01*
X56231Y-17097D01*
X56406Y-17025D01*
X56586Y-17025D01*
X56805Y-16806D01*
X56895Y-16746D01*
X57000Y-16725D01*
X57750Y-16725D01*
X57855Y-16746D01*
X57944Y-16806D01*
X58194Y-17055D01*
X58225Y-17101D01*
X58225Y-16113D01*
X57886Y-15775D01*
X52144Y-15775D01*
X52280Y-15831D01*
X52419Y-15970D01*
X52494Y-16152D01*
X52494Y-16349D01*
X52419Y-16530D01*
X52280Y-16669D01*
X52098Y-16744D01*
X51901Y-16744D01*
X51881Y-16736D01*
X51855Y-16754D01*
X51750Y-16775D01*
X51113Y-16775D01*
X50275Y-17613D01*
X50275Y-20601D01*
X50275Y-20601D01*
G37*
G54D18*
X50275Y-20601D02*
X50306Y-20556D01*
X50805Y-20056D01*
X50895Y-19996D01*
X51000Y-19975D01*
X52136Y-19975D01*
X53475Y-18636D01*
X53475Y-17250D01*
X53496Y-17145D01*
X53556Y-17056D01*
X53805Y-16806D01*
X53895Y-16746D01*
X54000Y-16725D01*
X55250Y-16725D01*
X55355Y-16746D01*
X55444Y-16806D01*
X55694Y-17055D01*
X55704Y-17070D01*
X55769Y-17098D01*
X55903Y-17231D01*
X55975Y-17406D01*
X55975Y-17595D01*
X55902Y-17769D01*
X55769Y-17903D01*
X55594Y-17975D01*
X55405Y-17975D01*
X55231Y-17902D01*
X55097Y-17769D01*
X55025Y-17594D01*
X55025Y-17405D01*
X55079Y-17275D01*
X54974Y-17275D01*
X54974Y-17815D01*
X54943Y-17888D01*
X54887Y-17944D01*
X54814Y-17974D01*
X54775Y-17974D01*
X54775Y-18026D01*
X54815Y-18026D01*
X54888Y-18057D01*
X54944Y-18113D01*
X54974Y-18186D01*
X54974Y-18637D01*
X55025Y-18586D01*
X55025Y-18405D01*
X55098Y-18231D01*
X55231Y-18097D01*
X55406Y-18025D01*
X55595Y-18025D01*
X55769Y-18098D01*
X55903Y-18231D01*
X55975Y-18406D01*
X55975Y-18595D01*
X55902Y-18769D01*
X55769Y-18903D01*
X55594Y-18975D01*
X55413Y-18975D01*
X55333Y-19054D01*
X55406Y-19025D01*
X55595Y-19025D01*
X55769Y-19098D01*
X55774Y-19103D01*
X55806Y-19056D01*
X56095Y-18765D01*
X56025Y-18594D01*
X56025Y-18405D01*
X56098Y-18231D01*
X56231Y-18097D01*
X56406Y-18025D01*
X56595Y-18025D01*
X56769Y-18098D01*
X56903Y-18231D01*
X56975Y-18406D01*
X56975Y-18595D01*
X56902Y-18769D01*
X56769Y-18903D01*
X56704Y-18929D01*
X56694Y-18945D01*
X56608Y-19030D01*
X56769Y-19098D01*
X56903Y-19231D01*
X56929Y-19296D01*
X56944Y-19306D01*
X57030Y-19392D01*
X57098Y-19231D01*
X57225Y-19103D01*
X57225Y-18896D01*
X57097Y-18769D01*
X57025Y-18594D01*
X57025Y-18405D01*
X57098Y-18231D01*
X57225Y-18103D01*
X57225Y-17896D01*
X57097Y-17769D01*
X57025Y-17594D01*
X57025Y-17405D01*
X57052Y-17333D01*
X56975Y-17413D01*
X56975Y-17595D01*
X56902Y-17769D01*
X56769Y-17903D01*
X56594Y-17975D01*
X56405Y-17975D01*
X56231Y-17902D01*
X56097Y-17769D01*
X56025Y-17594D01*
X56025Y-17405D01*
X56098Y-17231D01*
X56231Y-17097D01*
X56406Y-17025D01*
X56586Y-17025D01*
X56805Y-16806D01*
X56895Y-16746D01*
X57000Y-16725D01*
X57750Y-16725D01*
X57855Y-16746D01*
X57944Y-16806D01*
X58194Y-17055D01*
X58225Y-17101D01*
X58225Y-16113D01*
X57886Y-15775D01*
X52144Y-15775D01*
X52280Y-15831D01*
X52419Y-15970D01*
X52494Y-16152D01*
X52494Y-16349D01*
X52419Y-16530D01*
X52280Y-16669D01*
X52098Y-16744D01*
X51901Y-16744D01*
X51881Y-16736D01*
X51855Y-16754D01*
X51750Y-16775D01*
X51113Y-16775D01*
X50275Y-17613D01*
X50275Y-20601D01*
G54D10*
G36*
X57355Y-20496D02*
X57362Y-20500D01*
X56766Y-19904D01*
X56607Y-19969D01*
X57113Y-20475D01*
X57250Y-20475D01*
X57355Y-20496D01*
X57355Y-20496D01*
G37*
G54D18*
X57355Y-20496D02*
X57362Y-20500D01*
X56766Y-19904D01*
X56607Y-19969D01*
X57113Y-20475D01*
X57250Y-20475D01*
X57355Y-20496D01*
G54D10*
G36*
X44725Y-20351D02*
X44725Y-19896D01*
X44597Y-19769D01*
X44525Y-19594D01*
X44525Y-19405D01*
X44553Y-19332D01*
X44474Y-19414D01*
X44474Y-19815D01*
X44443Y-19888D01*
X44387Y-19944D01*
X44348Y-19959D01*
X44694Y-20305D01*
X44725Y-20351D01*
X44725Y-20351D01*
G37*
G54D18*
X44725Y-20351D02*
X44725Y-19896D01*
X44597Y-19769D01*
X44525Y-19594D01*
X44525Y-19405D01*
X44553Y-19332D01*
X44474Y-19414D01*
X44474Y-19815D01*
X44443Y-19888D01*
X44387Y-19944D01*
X44348Y-19959D01*
X44694Y-20305D01*
X44725Y-20351D01*
G54D10*
G36*
X54386Y-20225D02*
X54637Y-19974D01*
X54414Y-19974D01*
X54194Y-20194D01*
X54148Y-20225D01*
X54386Y-20225D01*
X54386Y-20225D01*
G37*
G54D18*
X54386Y-20225D02*
X54637Y-19974D01*
X54414Y-19974D01*
X54194Y-20194D01*
X54148Y-20225D01*
X54386Y-20225D01*
G54D10*
G36*
X47594Y-20206D02*
X47720Y-20081D01*
X47895Y-20008D01*
X47733Y-19952D01*
X47716Y-19887D01*
X47611Y-19782D01*
X47548Y-19767D01*
X47492Y-19630D01*
X47481Y-19426D01*
X47491Y-19396D01*
X47475Y-19413D01*
X47475Y-19595D01*
X47402Y-19769D01*
X47280Y-19891D01*
X47594Y-20206D01*
X47594Y-20206D01*
G37*
G54D18*
X47594Y-20206D02*
X47720Y-20081D01*
X47895Y-20008D01*
X47733Y-19952D01*
X47716Y-19887D01*
X47611Y-19782D01*
X47548Y-19767D01*
X47492Y-19630D01*
X47481Y-19426D01*
X47491Y-19396D01*
X47475Y-19413D01*
X47475Y-19595D01*
X47402Y-19769D01*
X47280Y-19891D01*
X47594Y-20206D01*
G54D10*
G36*
X48225Y-20058D02*
X48225Y-19969D01*
X48130Y-20008D01*
X48106Y-20009D01*
X48225Y-20058D01*
X48225Y-20058D01*
G37*
G54D18*
X48225Y-20058D02*
X48225Y-19969D01*
X48130Y-20008D01*
X48106Y-20009D01*
X48225Y-20058D01*
G54D10*
G36*
X53137Y-19751D02*
X53145Y-19746D01*
X53250Y-19725D01*
X53886Y-19724D01*
X54026Y-19585D01*
X54026Y-19185D01*
X54057Y-19112D01*
X54113Y-19056D01*
X54186Y-19026D01*
X54225Y-19026D01*
X54225Y-18974D01*
X54185Y-18974D01*
X54112Y-18943D01*
X54056Y-18887D01*
X54026Y-18814D01*
X54026Y-18185D01*
X54057Y-18112D01*
X54113Y-18056D01*
X54186Y-18026D01*
X54225Y-18026D01*
X54225Y-17974D01*
X54185Y-17974D01*
X54112Y-17943D01*
X54056Y-17887D01*
X54026Y-17814D01*
X54026Y-17362D01*
X54025Y-17363D01*
X54025Y-18750D01*
X54007Y-18838D01*
X54004Y-18856D01*
X53944Y-18945D01*
X53137Y-19751D01*
X53137Y-19751D01*
G37*
G54D18*
X53137Y-19751D02*
X53145Y-19746D01*
X53250Y-19725D01*
X53886Y-19724D01*
X54026Y-19585D01*
X54026Y-19185D01*
X54057Y-19112D01*
X54113Y-19056D01*
X54186Y-19026D01*
X54225Y-19026D01*
X54225Y-18974D01*
X54185Y-18974D01*
X54112Y-18943D01*
X54056Y-18887D01*
X54026Y-18814D01*
X54026Y-18185D01*
X54057Y-18112D01*
X54113Y-18056D01*
X54186Y-18026D01*
X54225Y-18026D01*
X54225Y-17974D01*
X54185Y-17974D01*
X54112Y-17943D01*
X54056Y-17887D01*
X54026Y-17814D01*
X54026Y-17362D01*
X54025Y-17363D01*
X54025Y-18750D01*
X54007Y-18838D01*
X54004Y-18856D01*
X53944Y-18945D01*
X53137Y-19751D01*
G54D10*
G36*
X46775Y-19078D02*
X46906Y-19025D01*
X47086Y-19025D01*
X47166Y-18945D01*
X47094Y-18975D01*
X46905Y-18975D01*
X46775Y-18920D01*
X46775Y-19078D01*
X46775Y-19078D01*
G37*
G54D18*
X46775Y-19078D02*
X46906Y-19025D01*
X47086Y-19025D01*
X47166Y-18945D01*
X47094Y-18975D01*
X46905Y-18975D01*
X46775Y-18920D01*
X46775Y-19078D01*
G54D10*
G36*
X44834Y-19054D02*
X44906Y-19025D01*
X45086Y-19025D01*
X45165Y-18945D01*
X45094Y-18975D01*
X44913Y-18975D01*
X44834Y-19054D01*
X44834Y-19054D01*
G37*
G54D18*
X44834Y-19054D02*
X44906Y-19025D01*
X45086Y-19025D01*
X45165Y-18945D01*
X45094Y-18975D01*
X44913Y-18975D01*
X44834Y-19054D01*
G54D10*
G36*
X48225Y-19033D02*
X48225Y-18921D01*
X48094Y-18975D01*
X47913Y-18975D01*
X47897Y-18990D01*
X48074Y-18981D01*
X48225Y-19033D01*
X48225Y-19033D01*
G37*
G54D18*
X48225Y-19033D02*
X48225Y-18921D01*
X48094Y-18975D01*
X47913Y-18975D01*
X47897Y-18990D01*
X48074Y-18981D01*
X48225Y-19033D01*
G54D10*
G36*
X47445Y-18666D02*
X47525Y-18586D01*
X47525Y-18494D01*
X47475Y-18494D01*
X47475Y-18595D01*
X47445Y-18666D01*
X47445Y-18666D01*
G37*
G54D18*
X47445Y-18666D02*
X47525Y-18586D01*
X47525Y-18494D01*
X47475Y-18494D01*
X47475Y-18595D01*
X47445Y-18666D01*
G54D10*
G36*
X44474Y-18637D02*
X44525Y-18586D01*
X44525Y-18405D01*
X44553Y-18332D01*
X44474Y-18414D01*
X44474Y-18637D01*
X44474Y-18637D01*
G37*
G54D18*
X44474Y-18637D02*
X44525Y-18586D01*
X44525Y-18405D01*
X44553Y-18332D01*
X44474Y-18414D01*
X44474Y-18637D01*
G54D10*
G36*
X42525Y-18601D02*
X42556Y-18556D01*
X42805Y-18306D01*
X43526Y-17585D01*
X43526Y-17185D01*
X43557Y-17112D01*
X43613Y-17056D01*
X43686Y-17026D01*
X44315Y-17026D01*
X44329Y-17032D01*
X44555Y-16806D01*
X44602Y-16774D01*
X44597Y-16769D01*
X44525Y-16594D01*
X44525Y-16405D01*
X44579Y-16274D01*
X44474Y-16275D01*
X44474Y-16815D01*
X44443Y-16888D01*
X44387Y-16944D01*
X44314Y-16974D01*
X43685Y-16974D01*
X43612Y-16943D01*
X43556Y-16887D01*
X43540Y-16848D01*
X42525Y-17863D01*
X42525Y-18601D01*
X42525Y-18601D01*
G37*
G54D18*
X42525Y-18601D02*
X42556Y-18556D01*
X42805Y-18306D01*
X43526Y-17585D01*
X43526Y-17185D01*
X43557Y-17112D01*
X43613Y-17056D01*
X43686Y-17026D01*
X44315Y-17026D01*
X44329Y-17032D01*
X44555Y-16806D01*
X44602Y-16774D01*
X44597Y-16769D01*
X44525Y-16594D01*
X44525Y-16405D01*
X44579Y-16274D01*
X44474Y-16275D01*
X44474Y-16815D01*
X44443Y-16888D01*
X44387Y-16944D01*
X44314Y-16974D01*
X43685Y-16974D01*
X43612Y-16943D01*
X43556Y-16887D01*
X43540Y-16848D01*
X42525Y-17863D01*
X42525Y-18601D01*
G54D10*
G36*
X44757Y-18085D02*
X44906Y-18025D01*
X45095Y-18025D01*
X45166Y-18054D01*
X45086Y-17975D01*
X44905Y-17975D01*
X44775Y-17920D01*
X44775Y-18000D01*
X44757Y-18085D01*
X44757Y-18085D01*
G37*
G54D18*
X44757Y-18085D02*
X44906Y-18025D01*
X45095Y-18025D01*
X45166Y-18054D01*
X45086Y-17975D01*
X44905Y-17975D01*
X44775Y-17920D01*
X44775Y-18000D01*
X44757Y-18085D01*
G54D10*
G36*
X48225Y-18079D02*
X48225Y-17921D01*
X48094Y-17975D01*
X47994Y-17975D01*
X47994Y-18025D01*
X48095Y-18025D01*
X48225Y-18079D01*
X48225Y-18079D01*
G37*
G54D18*
X48225Y-18079D02*
X48225Y-17921D01*
X48094Y-17975D01*
X47994Y-17975D01*
X47994Y-18025D01*
X48095Y-18025D01*
X48225Y-18079D01*
G54D10*
G36*
X46225Y-18079D02*
X46225Y-17921D01*
X46094Y-17975D01*
X45905Y-17975D01*
X45757Y-17913D01*
X45775Y-18000D01*
X45775Y-18078D01*
X45906Y-18025D01*
X46095Y-18025D01*
X46225Y-18079D01*
X46225Y-18079D01*
G37*
G54D18*
X46225Y-18079D02*
X46225Y-17921D01*
X46094Y-17975D01*
X45905Y-17975D01*
X45757Y-17913D01*
X45775Y-18000D01*
X45775Y-18078D01*
X45906Y-18025D01*
X46095Y-18025D01*
X46225Y-18079D01*
G54D10*
G36*
X46775Y-18078D02*
X46906Y-18025D01*
X47006Y-18025D01*
X47006Y-17975D01*
X46905Y-17975D01*
X46775Y-17920D01*
X46775Y-18078D01*
X46775Y-18078D01*
G37*
G54D18*
X46775Y-18078D02*
X46906Y-18025D01*
X47006Y-18025D01*
X47006Y-17975D01*
X46905Y-17975D01*
X46775Y-17920D01*
X46775Y-18078D01*
G54D10*
G36*
X44085Y-18026D02*
X44137Y-17974D01*
X43914Y-17974D01*
X43862Y-18026D01*
X44085Y-18026D01*
X44085Y-18026D01*
G37*
G54D18*
X44085Y-18026D02*
X44137Y-17974D01*
X43914Y-17974D01*
X43862Y-18026D01*
X44085Y-18026D01*
G54D10*
G36*
X45554Y-17665D02*
X45525Y-17594D01*
X45525Y-17525D01*
X45500Y-17525D01*
X45475Y-17520D01*
X45475Y-17586D01*
X45554Y-17665D01*
X45554Y-17665D01*
G37*
G54D18*
X45554Y-17665D02*
X45525Y-17594D01*
X45525Y-17525D01*
X45500Y-17525D01*
X45475Y-17520D01*
X45475Y-17586D01*
X45554Y-17665D01*
G54D10*
G36*
X48725Y-17602D02*
X48725Y-16494D01*
X48651Y-16494D01*
X48475Y-16421D01*
X48475Y-16595D01*
X48402Y-16769D01*
X48275Y-16896D01*
X48275Y-17103D01*
X48403Y-17231D01*
X48430Y-17298D01*
X48442Y-17306D01*
X48694Y-17557D01*
X48725Y-17602D01*
X48725Y-17602D01*
G37*
G54D18*
X48725Y-17602D02*
X48725Y-16494D01*
X48651Y-16494D01*
X48475Y-16421D01*
X48475Y-16595D01*
X48402Y-16769D01*
X48275Y-16896D01*
X48275Y-17103D01*
X48403Y-17231D01*
X48430Y-17298D01*
X48442Y-17306D01*
X48694Y-17557D01*
X48725Y-17602D01*
G54D10*
G36*
X47525Y-17506D02*
X47525Y-17405D01*
X47598Y-17231D01*
X47725Y-17103D01*
X47725Y-16898D01*
X47694Y-16945D01*
X47404Y-17234D01*
X47475Y-17406D01*
X47475Y-17506D01*
X47525Y-17506D01*
X47525Y-17506D01*
G37*
G54D18*
X47525Y-17506D02*
X47525Y-17405D01*
X47598Y-17231D01*
X47725Y-17103D01*
X47725Y-16898D01*
X47694Y-16945D01*
X47404Y-17234D01*
X47475Y-17406D01*
X47475Y-17506D01*
X47525Y-17506D01*
G54D10*
G36*
X41725Y-17386D02*
X42225Y-16886D01*
X42225Y-15000D01*
X42246Y-14895D01*
X42306Y-14806D01*
X42475Y-14636D01*
X42475Y-14250D01*
X42496Y-14145D01*
X42556Y-14056D01*
X43055Y-13556D01*
X43145Y-13496D01*
X43250Y-13475D01*
X41725Y-13475D01*
X41725Y-17386D01*
X41725Y-17386D01*
G37*
G54D18*
X41725Y-17386D02*
X42225Y-16886D01*
X42225Y-15000D01*
X42246Y-14895D01*
X42306Y-14806D01*
X42475Y-14636D01*
X42475Y-14250D01*
X42496Y-14145D01*
X42556Y-14056D01*
X43055Y-13556D01*
X43145Y-13496D01*
X43250Y-13475D01*
X41725Y-13475D01*
X41725Y-17386D01*
G54D10*
G36*
X46225Y-17079D02*
X46225Y-17000D01*
X46242Y-16914D01*
X46094Y-16975D01*
X45905Y-16975D01*
X45731Y-16902D01*
X45597Y-16769D01*
X45525Y-16594D01*
X45525Y-16413D01*
X45445Y-16333D01*
X45475Y-16406D01*
X45475Y-16595D01*
X45402Y-16769D01*
X45396Y-16774D01*
X45444Y-16806D01*
X45613Y-16975D01*
X45750Y-16975D01*
X45855Y-16996D01*
X45901Y-17027D01*
X45906Y-17025D01*
X46095Y-17025D01*
X46225Y-17079D01*
X46225Y-17079D01*
G37*
G54D18*
X46225Y-17079D02*
X46225Y-17000D01*
X46242Y-16914D01*
X46094Y-16975D01*
X45905Y-16975D01*
X45731Y-16902D01*
X45597Y-16769D01*
X45525Y-16594D01*
X45525Y-16413D01*
X45445Y-16333D01*
X45475Y-16406D01*
X45475Y-16595D01*
X45402Y-16769D01*
X45396Y-16774D01*
X45444Y-16806D01*
X45613Y-16975D01*
X45750Y-16975D01*
X45855Y-16996D01*
X45901Y-17027D01*
X45906Y-17025D01*
X46095Y-17025D01*
X46225Y-17079D01*
G54D10*
G36*
X42775Y-16836D02*
X43305Y-16306D01*
X43351Y-16275D01*
X43250Y-16275D01*
X43145Y-16254D01*
X43114Y-16233D01*
X43055Y-16194D01*
X42806Y-15944D01*
X42775Y-15898D01*
X42775Y-16836D01*
X42775Y-16836D01*
G37*
G54D18*
X42775Y-16836D02*
X43305Y-16306D01*
X43351Y-16275D01*
X43250Y-16275D01*
X43145Y-16254D01*
X43114Y-16233D01*
X43055Y-16194D01*
X42806Y-15944D01*
X42775Y-15898D01*
X42775Y-16836D01*
G54D10*
G36*
X46444Y-16666D02*
X46525Y-16586D01*
X46525Y-16405D01*
X46598Y-16231D01*
X46725Y-16103D01*
X46725Y-15896D01*
X46597Y-15769D01*
X46525Y-15594D01*
X46525Y-15405D01*
X46579Y-15275D01*
X46421Y-15275D01*
X46475Y-15406D01*
X46475Y-15595D01*
X46402Y-15769D01*
X46269Y-15903D01*
X46094Y-15975D01*
X45905Y-15975D01*
X45833Y-15944D01*
X45913Y-16025D01*
X46095Y-16025D01*
X46269Y-16098D01*
X46403Y-16231D01*
X46475Y-16406D01*
X46475Y-16595D01*
X46444Y-16666D01*
X46444Y-16666D01*
G37*
G54D18*
X46444Y-16666D02*
X46525Y-16586D01*
X46525Y-16405D01*
X46598Y-16231D01*
X46725Y-16103D01*
X46725Y-15896D01*
X46597Y-15769D01*
X46525Y-15594D01*
X46525Y-15405D01*
X46579Y-15275D01*
X46421Y-15275D01*
X46475Y-15406D01*
X46475Y-15595D01*
X46402Y-15769D01*
X46269Y-15903D01*
X46094Y-15975D01*
X45905Y-15975D01*
X45833Y-15944D01*
X45913Y-16025D01*
X46095Y-16025D01*
X46269Y-16098D01*
X46403Y-16231D01*
X46475Y-16406D01*
X46475Y-16595D01*
X46444Y-16666D01*
G54D10*
G36*
X48256Y-16092D02*
X48256Y-15908D01*
X48094Y-15975D01*
X47913Y-15975D01*
X47833Y-16054D01*
X47906Y-16025D01*
X48095Y-16025D01*
X48256Y-16092D01*
X48256Y-16092D01*
G37*
G54D18*
X48256Y-16092D02*
X48256Y-15908D01*
X48094Y-15975D01*
X47913Y-15975D01*
X47833Y-16054D01*
X47906Y-16025D01*
X48095Y-16025D01*
X48256Y-16092D01*
G54D10*
G36*
X44578Y-15725D02*
X44530Y-15607D01*
X44474Y-15664D01*
X44474Y-15725D01*
X44578Y-15725D01*
X44578Y-15725D01*
G37*
G54D18*
X44578Y-15725D02*
X44530Y-15607D01*
X44474Y-15664D01*
X44474Y-15725D01*
X44578Y-15725D01*
G54D10*
G36*
X43526Y-15725D02*
X43526Y-15185D01*
X43557Y-15112D01*
X43613Y-15056D01*
X43686Y-15026D01*
X44315Y-15026D01*
X44329Y-15032D01*
X44555Y-14806D01*
X44601Y-14775D01*
X43613Y-14775D01*
X43275Y-15113D01*
X43275Y-15636D01*
X43363Y-15725D01*
X43526Y-15725D01*
X43526Y-15725D01*
G37*
G54D18*
X43526Y-15725D02*
X43526Y-15185D01*
X43557Y-15112D01*
X43613Y-15056D01*
X43686Y-15026D01*
X44315Y-15026D01*
X44329Y-15032D01*
X44555Y-14806D01*
X44601Y-14775D01*
X43613Y-14775D01*
X43275Y-15113D01*
X43275Y-15636D01*
X43363Y-15725D01*
X43526Y-15725D01*
G54D10*
G36*
X47444Y-15666D02*
X47525Y-15586D01*
X47525Y-15405D01*
X47579Y-15275D01*
X47421Y-15275D01*
X47475Y-15406D01*
X47475Y-15595D01*
X47444Y-15666D01*
X47444Y-15666D01*
G37*
G54D18*
X47444Y-15666D02*
X47525Y-15586D01*
X47525Y-15405D01*
X47579Y-15275D01*
X47421Y-15275D01*
X47475Y-15406D01*
X47475Y-15595D01*
X47444Y-15666D01*
G54D10*
G36*
X53225Y-15225D02*
X53225Y-14863D01*
X52386Y-14025D01*
X48894Y-14025D01*
X49030Y-14081D01*
X49169Y-14220D01*
X49244Y-14402D01*
X49244Y-14599D01*
X49231Y-14630D01*
X49305Y-14556D01*
X49364Y-14516D01*
X49395Y-14496D01*
X49500Y-14475D01*
X51828Y-14475D01*
X51831Y-14470D01*
X51970Y-14331D01*
X52152Y-14256D01*
X52349Y-14256D01*
X52530Y-14331D01*
X52669Y-14470D01*
X52744Y-14652D01*
X52744Y-14849D01*
X52669Y-15030D01*
X52530Y-15169D01*
X52394Y-15225D01*
X53225Y-15225D01*
X53225Y-15225D01*
G37*
G54D18*
X53225Y-15225D02*
X53225Y-14863D01*
X52386Y-14025D01*
X48894Y-14025D01*
X49030Y-14081D01*
X49169Y-14220D01*
X49244Y-14402D01*
X49244Y-14599D01*
X49231Y-14630D01*
X49305Y-14556D01*
X49364Y-14516D01*
X49395Y-14496D01*
X49500Y-14475D01*
X51828Y-14475D01*
X51831Y-14470D01*
X51970Y-14331D01*
X52152Y-14256D01*
X52349Y-14256D01*
X52530Y-14331D01*
X52669Y-14470D01*
X52744Y-14652D01*
X52744Y-14849D01*
X52669Y-15030D01*
X52530Y-15169D01*
X52394Y-15225D01*
X53225Y-15225D01*
G54D10*
G36*
X52105Y-15225D02*
X51970Y-15169D01*
X51831Y-15030D01*
X51828Y-15025D01*
X49613Y-15025D01*
X49444Y-15194D01*
X49398Y-15225D01*
X52105Y-15225D01*
X52105Y-15225D01*
G37*
G54D18*
X52105Y-15225D02*
X51970Y-15169D01*
X51831Y-15030D01*
X51828Y-15025D01*
X49613Y-15025D01*
X49444Y-15194D01*
X49398Y-15225D01*
X52105Y-15225D01*
G54D10*
G36*
X45983Y-14877D02*
X46055Y-14806D01*
X46101Y-14775D01*
X45941Y-14774D01*
X45983Y-14877D01*
X45983Y-14877D01*
G37*
G54D18*
X45983Y-14877D02*
X46055Y-14806D01*
X46101Y-14775D01*
X45941Y-14774D01*
X45983Y-14877D01*
G54D10*
G36*
X43025Y-14586D02*
X43305Y-14306D01*
X43395Y-14246D01*
X43500Y-14225D01*
X48328Y-14225D01*
X48331Y-14220D01*
X48470Y-14081D01*
X48605Y-14025D01*
X43363Y-14025D01*
X43025Y-14363D01*
X43025Y-14586D01*
X43025Y-14586D01*
G37*
G54D18*
X43025Y-14586D02*
X43305Y-14306D01*
X43395Y-14246D01*
X43500Y-14225D01*
X48328Y-14225D01*
X48331Y-14220D01*
X48470Y-14081D01*
X48605Y-14025D01*
X43363Y-14025D01*
X43025Y-14363D01*
X43025Y-14586D01*
M02*
