G04 (created by PCBNEW-RS274X (20100308 SVN-R2437)-RC5) date Wed 10 Mar 2010 09:54:52 AM CET*
G01*
G70*
G90*
%MOIN*%
G04 Gerber Fmt 3.4, Leading zero omitted, Abs format*
%FSLAX34Y34*%
G04 APERTURE LIST*
%ADD10C,0.006000*%
%ADD11C,0.015000*%
%ADD12C,0.005000*%
%ADD13R,0.055000X0.055000*%
%ADD14C,0.055000*%
%ADD15R,0.062000X0.090000*%
%ADD16O,0.062000X0.090000*%
%ADD17C,0.059100*%
%ADD18C,0.010000*%
G04 APERTURE END LIST*
G54D10*
G54D11*
X41500Y-29000D02*
X41500Y-13250D01*
X63250Y-29000D02*
X41500Y-29000D01*
X63250Y-28750D02*
X63250Y-29000D01*
X63250Y-13250D02*
X63250Y-28750D01*
X41500Y-13250D02*
X63250Y-13250D01*
G54D12*
X48821Y-19743D02*
X48821Y-19143D01*
X48950Y-19200D02*
X48964Y-19171D01*
X48993Y-19143D01*
X49064Y-19143D01*
X49093Y-19171D01*
X49107Y-19200D01*
X49122Y-19257D01*
X49122Y-19314D01*
X49107Y-19400D01*
X48936Y-19743D01*
X49122Y-19743D01*
X49422Y-19686D02*
X49408Y-19714D01*
X49365Y-19743D01*
X49336Y-19743D01*
X49293Y-19714D01*
X49265Y-19657D01*
X49250Y-19600D01*
X49236Y-19486D01*
X49236Y-19400D01*
X49250Y-19286D01*
X49265Y-19229D01*
X49293Y-19171D01*
X49336Y-19143D01*
X49365Y-19143D01*
X49408Y-19171D01*
X49422Y-19200D01*
X49479Y-19800D02*
X49708Y-19800D01*
X49779Y-19429D02*
X49879Y-19429D01*
X49922Y-19743D02*
X49779Y-19743D01*
X49779Y-19143D01*
X49922Y-19143D01*
X50050Y-19429D02*
X50150Y-19429D01*
X50193Y-19743D02*
X50050Y-19743D01*
X50050Y-19143D01*
X50193Y-19143D01*
X59486Y-18743D02*
X59486Y-18143D01*
X59486Y-18714D02*
X59457Y-18743D01*
X59400Y-18743D01*
X59372Y-18714D01*
X59357Y-18686D01*
X59343Y-18629D01*
X59343Y-18457D01*
X59357Y-18400D01*
X59372Y-18371D01*
X59400Y-18343D01*
X59457Y-18343D01*
X59486Y-18371D01*
X59614Y-18714D02*
X59643Y-18743D01*
X59700Y-18743D01*
X59728Y-18714D01*
X59743Y-18657D01*
X59743Y-18629D01*
X59728Y-18571D01*
X59700Y-18543D01*
X59657Y-18543D01*
X59628Y-18514D01*
X59614Y-18457D01*
X59614Y-18429D01*
X59628Y-18371D01*
X59657Y-18343D01*
X59700Y-18343D01*
X59728Y-18371D01*
X59871Y-18743D02*
X59871Y-18143D01*
X59986Y-18143D01*
X60014Y-18171D01*
X60029Y-18200D01*
X60043Y-18257D01*
X60043Y-18343D01*
X60029Y-18400D01*
X60014Y-18429D01*
X59986Y-18457D01*
X59871Y-18457D01*
X60171Y-18743D02*
X60171Y-18143D01*
X60486Y-18686D02*
X60472Y-18714D01*
X60429Y-18743D01*
X60400Y-18743D01*
X60357Y-18714D01*
X60329Y-18657D01*
X60314Y-18600D01*
X60300Y-18486D01*
X60300Y-18400D01*
X60314Y-18286D01*
X60329Y-18229D01*
X60357Y-18171D01*
X60400Y-18143D01*
X60429Y-18143D01*
X60472Y-18171D01*
X60486Y-18200D01*
X60600Y-18200D02*
X60614Y-18171D01*
X60643Y-18143D01*
X60714Y-18143D01*
X60743Y-18171D01*
X60757Y-18200D01*
X60772Y-18257D01*
X60772Y-18314D01*
X60757Y-18400D01*
X60586Y-18743D01*
X60772Y-18743D01*
X60943Y-18400D02*
X60915Y-18371D01*
X60900Y-18343D01*
X60886Y-18286D01*
X60886Y-18257D01*
X60900Y-18200D01*
X60915Y-18171D01*
X60943Y-18143D01*
X61000Y-18143D01*
X61029Y-18171D01*
X61043Y-18200D01*
X61058Y-18257D01*
X61058Y-18286D01*
X61043Y-18343D01*
X61029Y-18371D01*
X61000Y-18400D01*
X60943Y-18400D01*
X60915Y-18429D01*
X60900Y-18457D01*
X60886Y-18514D01*
X60886Y-18629D01*
X60900Y-18686D01*
X60915Y-18714D01*
X60943Y-18743D01*
X61000Y-18743D01*
X61029Y-18714D01*
X61043Y-18686D01*
X61058Y-18629D01*
X61058Y-18514D01*
X61043Y-18457D01*
X61029Y-18429D01*
X61000Y-18400D01*
X61186Y-18743D02*
X61186Y-18143D01*
X61301Y-18143D01*
X61329Y-18171D01*
X61344Y-18200D01*
X61358Y-18257D01*
X61358Y-18343D01*
X61344Y-18400D01*
X61329Y-18429D01*
X61301Y-18457D01*
X61186Y-18457D01*
X59342Y-17743D02*
X59342Y-17143D01*
X59457Y-17143D01*
X59485Y-17171D01*
X59500Y-17200D01*
X59514Y-17257D01*
X59514Y-17343D01*
X59500Y-17400D01*
X59485Y-17429D01*
X59457Y-17457D01*
X59342Y-17457D01*
X59642Y-17743D02*
X59642Y-17143D01*
X59957Y-17686D02*
X59943Y-17714D01*
X59900Y-17743D01*
X59871Y-17743D01*
X59828Y-17714D01*
X59800Y-17657D01*
X59785Y-17600D01*
X59771Y-17486D01*
X59771Y-17400D01*
X59785Y-17286D01*
X59800Y-17229D01*
X59828Y-17171D01*
X59871Y-17143D01*
X59900Y-17143D01*
X59943Y-17171D01*
X59957Y-17200D01*
X60071Y-17200D02*
X60085Y-17171D01*
X60114Y-17143D01*
X60185Y-17143D01*
X60214Y-17171D01*
X60228Y-17200D01*
X60243Y-17257D01*
X60243Y-17314D01*
X60228Y-17400D01*
X60057Y-17743D01*
X60243Y-17743D01*
X60414Y-17400D02*
X60386Y-17371D01*
X60371Y-17343D01*
X60357Y-17286D01*
X60357Y-17257D01*
X60371Y-17200D01*
X60386Y-17171D01*
X60414Y-17143D01*
X60471Y-17143D01*
X60500Y-17171D01*
X60514Y-17200D01*
X60529Y-17257D01*
X60529Y-17286D01*
X60514Y-17343D01*
X60500Y-17371D01*
X60471Y-17400D01*
X60414Y-17400D01*
X60386Y-17429D01*
X60371Y-17457D01*
X60357Y-17514D01*
X60357Y-17629D01*
X60371Y-17686D01*
X60386Y-17714D01*
X60414Y-17743D01*
X60471Y-17743D01*
X60500Y-17714D01*
X60514Y-17686D01*
X60529Y-17629D01*
X60529Y-17514D01*
X60514Y-17457D01*
X60500Y-17429D01*
X60471Y-17400D01*
X60657Y-17514D02*
X60886Y-17514D01*
X61157Y-17343D02*
X61157Y-17743D01*
X61086Y-17114D02*
X61014Y-17543D01*
X61200Y-17543D01*
X61372Y-17143D02*
X61400Y-17143D01*
X61429Y-17171D01*
X61443Y-17200D01*
X61457Y-17257D01*
X61472Y-17371D01*
X61472Y-17514D01*
X61457Y-17629D01*
X61443Y-17686D01*
X61429Y-17714D01*
X61400Y-17743D01*
X61372Y-17743D01*
X61343Y-17714D01*
X61329Y-17686D01*
X61314Y-17629D01*
X61300Y-17514D01*
X61300Y-17371D01*
X61314Y-17257D01*
X61329Y-17200D01*
X61343Y-17171D01*
X61372Y-17143D01*
X61600Y-17743D02*
X61600Y-17143D01*
X61715Y-17143D01*
X61743Y-17171D01*
X61758Y-17200D01*
X61772Y-17257D01*
X61772Y-17343D01*
X61758Y-17400D01*
X61743Y-17429D01*
X61715Y-17457D01*
X61600Y-17457D01*
X59486Y-19993D02*
X59486Y-19393D01*
X59486Y-19964D02*
X59457Y-19993D01*
X59400Y-19993D01*
X59372Y-19964D01*
X59357Y-19936D01*
X59343Y-19879D01*
X59343Y-19707D01*
X59357Y-19650D01*
X59372Y-19621D01*
X59400Y-19593D01*
X59457Y-19593D01*
X59486Y-19621D01*
X59614Y-19964D02*
X59643Y-19993D01*
X59700Y-19993D01*
X59728Y-19964D01*
X59743Y-19907D01*
X59743Y-19879D01*
X59728Y-19821D01*
X59700Y-19793D01*
X59657Y-19793D01*
X59628Y-19764D01*
X59614Y-19707D01*
X59614Y-19679D01*
X59628Y-19621D01*
X59657Y-19593D01*
X59700Y-19593D01*
X59728Y-19621D01*
X59871Y-19993D02*
X59871Y-19393D01*
X59986Y-19393D01*
X60014Y-19421D01*
X60029Y-19450D01*
X60043Y-19507D01*
X60043Y-19593D01*
X60029Y-19650D01*
X60014Y-19679D01*
X59986Y-19707D01*
X59871Y-19707D01*
X60171Y-19993D02*
X60171Y-19393D01*
X60486Y-19936D02*
X60472Y-19964D01*
X60429Y-19993D01*
X60400Y-19993D01*
X60357Y-19964D01*
X60329Y-19907D01*
X60314Y-19850D01*
X60300Y-19736D01*
X60300Y-19650D01*
X60314Y-19536D01*
X60329Y-19479D01*
X60357Y-19421D01*
X60400Y-19393D01*
X60429Y-19393D01*
X60472Y-19421D01*
X60486Y-19450D01*
X60743Y-19593D02*
X60743Y-19993D01*
X60672Y-19364D02*
X60600Y-19793D01*
X60786Y-19793D01*
X60958Y-19393D02*
X60986Y-19393D01*
X61015Y-19421D01*
X61029Y-19450D01*
X61043Y-19507D01*
X61058Y-19621D01*
X61058Y-19764D01*
X61043Y-19879D01*
X61029Y-19936D01*
X61015Y-19964D01*
X60986Y-19993D01*
X60958Y-19993D01*
X60929Y-19964D01*
X60915Y-19936D01*
X60900Y-19879D01*
X60886Y-19764D01*
X60886Y-19621D01*
X60900Y-19507D01*
X60915Y-19450D01*
X60929Y-19421D01*
X60958Y-19393D01*
X61186Y-19993D02*
X61186Y-19393D01*
X61301Y-19393D01*
X61329Y-19421D01*
X61344Y-19450D01*
X61358Y-19507D01*
X61358Y-19593D01*
X61344Y-19650D01*
X61329Y-19679D01*
X61301Y-19707D01*
X61186Y-19707D01*
X48935Y-18743D02*
X48935Y-18143D01*
X49050Y-18143D01*
X49078Y-18171D01*
X49093Y-18200D01*
X49107Y-18257D01*
X49107Y-18343D01*
X49093Y-18400D01*
X49078Y-18429D01*
X49050Y-18457D01*
X48935Y-18457D01*
X49235Y-18743D02*
X49235Y-18143D01*
X49550Y-18686D02*
X49536Y-18714D01*
X49493Y-18743D01*
X49464Y-18743D01*
X49421Y-18714D01*
X49393Y-18657D01*
X49378Y-18600D01*
X49364Y-18486D01*
X49364Y-18400D01*
X49378Y-18286D01*
X49393Y-18229D01*
X49421Y-18171D01*
X49464Y-18143D01*
X49493Y-18143D01*
X49536Y-18171D01*
X49550Y-18200D01*
X49836Y-18743D02*
X49664Y-18743D01*
X49750Y-18743D02*
X49750Y-18143D01*
X49721Y-18229D01*
X49693Y-18286D01*
X49664Y-18314D01*
X50022Y-18143D02*
X50050Y-18143D01*
X50079Y-18171D01*
X50093Y-18200D01*
X50107Y-18257D01*
X50122Y-18371D01*
X50122Y-18514D01*
X50107Y-18629D01*
X50093Y-18686D01*
X50079Y-18714D01*
X50050Y-18743D01*
X50022Y-18743D01*
X49993Y-18714D01*
X49979Y-18686D01*
X49964Y-18629D01*
X49950Y-18514D01*
X49950Y-18371D01*
X49964Y-18257D01*
X49979Y-18200D01*
X49993Y-18171D01*
X50022Y-18143D01*
X50350Y-18429D02*
X50250Y-18429D01*
X50250Y-18743D02*
X50250Y-18143D01*
X50393Y-18143D01*
X49064Y-16743D02*
X49064Y-16143D01*
X49179Y-16143D01*
X49207Y-16171D01*
X49222Y-16200D01*
X49236Y-16257D01*
X49236Y-16343D01*
X49222Y-16400D01*
X49207Y-16429D01*
X49179Y-16457D01*
X49064Y-16457D01*
X49364Y-16743D02*
X49364Y-16143D01*
X49679Y-16686D02*
X49665Y-16714D01*
X49622Y-16743D01*
X49593Y-16743D01*
X49550Y-16714D01*
X49522Y-16657D01*
X49507Y-16600D01*
X49493Y-16486D01*
X49493Y-16400D01*
X49507Y-16286D01*
X49522Y-16229D01*
X49550Y-16171D01*
X49593Y-16143D01*
X49622Y-16143D01*
X49665Y-16171D01*
X49679Y-16200D01*
X49965Y-16743D02*
X49793Y-16743D01*
X49879Y-16743D02*
X49879Y-16143D01*
X49850Y-16229D01*
X49822Y-16286D01*
X49793Y-16314D01*
X50136Y-16400D02*
X50108Y-16371D01*
X50093Y-16343D01*
X50079Y-16286D01*
X50079Y-16257D01*
X50093Y-16200D01*
X50108Y-16171D01*
X50136Y-16143D01*
X50193Y-16143D01*
X50222Y-16171D01*
X50236Y-16200D01*
X50251Y-16257D01*
X50251Y-16286D01*
X50236Y-16343D01*
X50222Y-16371D01*
X50193Y-16400D01*
X50136Y-16400D01*
X50108Y-16429D01*
X50093Y-16457D01*
X50079Y-16514D01*
X50079Y-16629D01*
X50093Y-16686D01*
X50108Y-16714D01*
X50136Y-16743D01*
X50193Y-16743D01*
X50222Y-16714D01*
X50236Y-16686D01*
X50251Y-16629D01*
X50251Y-16514D01*
X50236Y-16457D01*
X50222Y-16429D01*
X50193Y-16400D01*
X50379Y-16743D02*
X50379Y-16143D01*
X50494Y-16143D01*
X50522Y-16171D01*
X50537Y-16200D01*
X50551Y-16257D01*
X50551Y-16343D01*
X50537Y-16400D01*
X50522Y-16429D01*
X50494Y-16457D01*
X50379Y-16457D01*
X49035Y-17743D02*
X49035Y-17143D01*
X49150Y-17143D01*
X49178Y-17171D01*
X49193Y-17200D01*
X49207Y-17257D01*
X49207Y-17343D01*
X49193Y-17400D01*
X49178Y-17429D01*
X49150Y-17457D01*
X49035Y-17457D01*
X49335Y-17743D02*
X49335Y-17143D01*
X49650Y-17686D02*
X49636Y-17714D01*
X49593Y-17743D01*
X49564Y-17743D01*
X49521Y-17714D01*
X49493Y-17657D01*
X49478Y-17600D01*
X49464Y-17486D01*
X49464Y-17400D01*
X49478Y-17286D01*
X49493Y-17229D01*
X49521Y-17171D01*
X49564Y-17143D01*
X49593Y-17143D01*
X49636Y-17171D01*
X49650Y-17200D01*
X49936Y-17743D02*
X49764Y-17743D01*
X49850Y-17743D02*
X49850Y-17143D01*
X49821Y-17229D01*
X49793Y-17286D01*
X49764Y-17314D01*
X50050Y-17200D02*
X50064Y-17171D01*
X50093Y-17143D01*
X50164Y-17143D01*
X50193Y-17171D01*
X50207Y-17200D01*
X50222Y-17257D01*
X50222Y-17314D01*
X50207Y-17400D01*
X50036Y-17743D01*
X50222Y-17743D01*
X50450Y-17429D02*
X50350Y-17429D01*
X50350Y-17743D02*
X50350Y-17143D01*
X50493Y-17143D01*
X49186Y-15743D02*
X49186Y-15143D01*
X49186Y-15714D02*
X49157Y-15743D01*
X49100Y-15743D01*
X49072Y-15714D01*
X49057Y-15686D01*
X49043Y-15629D01*
X49043Y-15457D01*
X49057Y-15400D01*
X49072Y-15371D01*
X49100Y-15343D01*
X49157Y-15343D01*
X49186Y-15371D01*
X49314Y-15714D02*
X49343Y-15743D01*
X49400Y-15743D01*
X49428Y-15714D01*
X49443Y-15657D01*
X49443Y-15629D01*
X49428Y-15571D01*
X49400Y-15543D01*
X49357Y-15543D01*
X49328Y-15514D01*
X49314Y-15457D01*
X49314Y-15429D01*
X49328Y-15371D01*
X49357Y-15343D01*
X49400Y-15343D01*
X49428Y-15371D01*
X49571Y-15743D02*
X49571Y-15143D01*
X49686Y-15143D01*
X49714Y-15171D01*
X49729Y-15200D01*
X49743Y-15257D01*
X49743Y-15343D01*
X49729Y-15400D01*
X49714Y-15429D01*
X49686Y-15457D01*
X49571Y-15457D01*
X49871Y-15743D02*
X49871Y-15143D01*
X50186Y-15686D02*
X50172Y-15714D01*
X50129Y-15743D01*
X50100Y-15743D01*
X50057Y-15714D01*
X50029Y-15657D01*
X50014Y-15600D01*
X50000Y-15486D01*
X50000Y-15400D01*
X50014Y-15286D01*
X50029Y-15229D01*
X50057Y-15171D01*
X50100Y-15143D01*
X50129Y-15143D01*
X50172Y-15171D01*
X50186Y-15200D01*
X50472Y-15743D02*
X50300Y-15743D01*
X50386Y-15743D02*
X50386Y-15143D01*
X50357Y-15229D01*
X50329Y-15286D01*
X50300Y-15314D01*
X50643Y-15400D02*
X50615Y-15371D01*
X50600Y-15343D01*
X50586Y-15286D01*
X50586Y-15257D01*
X50600Y-15200D01*
X50615Y-15171D01*
X50643Y-15143D01*
X50700Y-15143D01*
X50729Y-15171D01*
X50743Y-15200D01*
X50758Y-15257D01*
X50758Y-15286D01*
X50743Y-15343D01*
X50729Y-15371D01*
X50700Y-15400D01*
X50643Y-15400D01*
X50615Y-15429D01*
X50600Y-15457D01*
X50586Y-15514D01*
X50586Y-15629D01*
X50600Y-15686D01*
X50615Y-15714D01*
X50643Y-15743D01*
X50700Y-15743D01*
X50729Y-15714D01*
X50743Y-15686D01*
X50758Y-15629D01*
X50758Y-15514D01*
X50743Y-15457D01*
X50729Y-15429D01*
X50700Y-15400D01*
X50886Y-15743D02*
X50886Y-15143D01*
X51001Y-15143D01*
X51029Y-15171D01*
X51044Y-15200D01*
X51058Y-15257D01*
X51058Y-15343D01*
X51044Y-15400D01*
X51029Y-15429D01*
X51001Y-15457D01*
X50886Y-15457D01*
G54D13*
X44000Y-17500D03*
G54D14*
X45000Y-17500D03*
X46000Y-17500D03*
X47000Y-17500D03*
X48000Y-17500D03*
G54D13*
X44000Y-16500D03*
G54D14*
X45000Y-16500D03*
X46000Y-16500D03*
X47000Y-16500D03*
X48000Y-16500D03*
G54D13*
X54500Y-17500D03*
G54D14*
X55500Y-17500D03*
X56500Y-17500D03*
X57500Y-17500D03*
X58500Y-17500D03*
G54D13*
X44000Y-15500D03*
G54D14*
X45000Y-15500D03*
X46000Y-15500D03*
X47000Y-15500D03*
X48000Y-15500D03*
G54D13*
X54500Y-18500D03*
G54D14*
X55500Y-18500D03*
X56500Y-18500D03*
X57500Y-18500D03*
X58500Y-18500D03*
G54D13*
X54500Y-19500D03*
G54D14*
X55500Y-19500D03*
X56500Y-19500D03*
X57500Y-19500D03*
X58500Y-19500D03*
G54D13*
X44000Y-18500D03*
G54D14*
X45000Y-18500D03*
X46000Y-18500D03*
X47000Y-18500D03*
X48000Y-18500D03*
G54D15*
X43000Y-27500D03*
G54D16*
X44000Y-27500D03*
X45000Y-27500D03*
X46000Y-27500D03*
X47000Y-27500D03*
X48000Y-27500D03*
X49000Y-27500D03*
X50000Y-27500D03*
X51000Y-27500D03*
X52000Y-27500D03*
X53000Y-27500D03*
X54000Y-27500D03*
X55000Y-27500D03*
X56000Y-27500D03*
X57000Y-27500D03*
X58000Y-27500D03*
X59000Y-27500D03*
X60000Y-27500D03*
X61000Y-27500D03*
X62000Y-27500D03*
X62000Y-21500D03*
X61000Y-21500D03*
X60000Y-21500D03*
X59000Y-21500D03*
X58000Y-21500D03*
X57000Y-21500D03*
X56000Y-21500D03*
X55000Y-21500D03*
X54000Y-21500D03*
X53000Y-21500D03*
X52000Y-21500D03*
X51000Y-21500D03*
X50000Y-21500D03*
X49000Y-21500D03*
X48000Y-21500D03*
X47000Y-21500D03*
X46000Y-21500D03*
X45000Y-21500D03*
X44000Y-21500D03*
X43000Y-21500D03*
G54D13*
X44000Y-19500D03*
G54D14*
X45000Y-19500D03*
X46000Y-19500D03*
X47000Y-19500D03*
X48000Y-19500D03*
G54D17*
X49000Y-23000D03*
X46500Y-23000D03*
X48750Y-16000D03*
X48750Y-14500D03*
X48500Y-24000D03*
X43750Y-23250D03*
X45500Y-15000D03*
X48000Y-20500D03*
X52000Y-16250D03*
X52250Y-14750D03*
X47500Y-18000D03*
X43500Y-26000D03*
G54D11*
X49000Y-23000D02*
X46500Y-23000D01*
X48750Y-14500D02*
X48750Y-16000D01*
X44500Y-24000D02*
X48500Y-24000D01*
X43750Y-23250D02*
X44500Y-24000D01*
X45750Y-14750D02*
X45500Y-15000D01*
X46250Y-14750D02*
X45750Y-14750D01*
X46500Y-15000D02*
X46250Y-14750D01*
X46500Y-15500D02*
X46500Y-15000D01*
X46500Y-17000D02*
X46500Y-15500D01*
X48250Y-17000D02*
X46500Y-17000D01*
X48750Y-17500D02*
X48250Y-17000D01*
X48750Y-19750D02*
X48750Y-17500D01*
X48000Y-20500D02*
X48750Y-19750D01*
X52000Y-15000D02*
X52000Y-16250D01*
X52250Y-14750D02*
X52000Y-15000D01*
X43000Y-18500D02*
X43500Y-18000D01*
X43500Y-18000D02*
X43750Y-18000D01*
X47500Y-18000D02*
X44250Y-18000D01*
X44250Y-18000D02*
X43750Y-18000D01*
X43000Y-19750D02*
X42250Y-20500D01*
X42250Y-20500D02*
X42250Y-25000D01*
X42250Y-25000D02*
X43250Y-26000D01*
X43250Y-26000D02*
X43500Y-26000D01*
X43000Y-18500D02*
X43000Y-19750D01*
G54D10*
G36*
X63025Y-28775D02*
X63025Y-13475D01*
X41725Y-13475D01*
X41725Y-28775D01*
X62137Y-28775D01*
X62137Y-28182D01*
X62081Y-28152D01*
X61918Y-28152D01*
X61900Y-28162D01*
X61863Y-28182D01*
X61804Y-28165D01*
X61618Y-28050D01*
X61500Y-27886D01*
X61382Y-28050D01*
X61196Y-28165D01*
X61137Y-28182D01*
X61081Y-28152D01*
X60918Y-28152D01*
X60863Y-28182D01*
X60804Y-28165D01*
X60618Y-28050D01*
X60499Y-27886D01*
X60382Y-28050D01*
X60196Y-28165D01*
X60137Y-28182D01*
X60081Y-28152D01*
X59918Y-28152D01*
X59863Y-28182D01*
X59804Y-28165D01*
X59618Y-28050D01*
X59500Y-27886D01*
X59382Y-28050D01*
X59196Y-28165D01*
X59137Y-28182D01*
X59081Y-28152D01*
X58918Y-28152D01*
X58863Y-28182D01*
X58804Y-28165D01*
X58618Y-28050D01*
X58500Y-27886D01*
X58382Y-28050D01*
X58196Y-28165D01*
X58137Y-28182D01*
X58081Y-28152D01*
X57918Y-28152D01*
X57863Y-28182D01*
X57804Y-28165D01*
X57618Y-28050D01*
X57500Y-27886D01*
X57382Y-28050D01*
X57196Y-28165D01*
X57137Y-28182D01*
X57081Y-28152D01*
X56918Y-28152D01*
X56863Y-28182D01*
X56804Y-28165D01*
X56618Y-28050D01*
X56500Y-27886D01*
X56382Y-28050D01*
X56196Y-28165D01*
X56137Y-28182D01*
X56081Y-28152D01*
X55918Y-28152D01*
X55863Y-28182D01*
X55804Y-28165D01*
X55618Y-28050D01*
X55500Y-27886D01*
X55382Y-28050D01*
X55196Y-28165D01*
X55137Y-28182D01*
X55081Y-28152D01*
X54918Y-28152D01*
X54863Y-28182D01*
X54804Y-28165D01*
X54618Y-28050D01*
X54500Y-27886D01*
X54382Y-28050D01*
X54196Y-28165D01*
X54137Y-28182D01*
X54081Y-28152D01*
X53918Y-28152D01*
X53863Y-28182D01*
X53804Y-28165D01*
X53618Y-28050D01*
X53500Y-27886D01*
X53382Y-28050D01*
X53196Y-28165D01*
X53137Y-28182D01*
X53081Y-28152D01*
X52918Y-28152D01*
X52863Y-28182D01*
X52804Y-28165D01*
X52618Y-28050D01*
X52500Y-27886D01*
X52382Y-28050D01*
X52196Y-28165D01*
X52137Y-28182D01*
X52081Y-28152D01*
X51918Y-28152D01*
X51863Y-28182D01*
X51804Y-28165D01*
X51618Y-28050D01*
X51500Y-27886D01*
X51382Y-28050D01*
X51196Y-28165D01*
X51137Y-28182D01*
X51081Y-28152D01*
X50918Y-28152D01*
X50863Y-28182D01*
X50804Y-28165D01*
X50618Y-28050D01*
X50500Y-27886D01*
X50382Y-28050D01*
X50196Y-28165D01*
X50137Y-28182D01*
X50081Y-28152D01*
X49918Y-28152D01*
X49863Y-28182D01*
X49804Y-28165D01*
X49618Y-28050D01*
X49500Y-27886D01*
X49382Y-28050D01*
X49196Y-28165D01*
X49137Y-28182D01*
X49081Y-28152D01*
X48918Y-28152D01*
X48863Y-28182D01*
X48804Y-28165D01*
X48618Y-28050D01*
X48499Y-27886D01*
X48382Y-28050D01*
X48196Y-28165D01*
X48137Y-28182D01*
X48081Y-28152D01*
X47918Y-28152D01*
X47863Y-28182D01*
X47804Y-28165D01*
X47618Y-28050D01*
X47490Y-27873D01*
X47475Y-27811D01*
X47424Y-27936D01*
X47283Y-28076D01*
X47099Y-28152D01*
X46900Y-28152D01*
X46716Y-28076D01*
X46576Y-27935D01*
X46500Y-27751D01*
X46500Y-27752D01*
X46424Y-27936D01*
X46283Y-28076D01*
X46099Y-28152D01*
X45900Y-28152D01*
X45716Y-28076D01*
X45576Y-27935D01*
X45524Y-27810D01*
X45510Y-27873D01*
X45382Y-28050D01*
X45196Y-28165D01*
X45137Y-28182D01*
X45081Y-28152D01*
X44918Y-28152D01*
X44863Y-28182D01*
X44804Y-28165D01*
X44618Y-28050D01*
X44490Y-27873D01*
X44475Y-27811D01*
X44424Y-27936D01*
X44283Y-28076D01*
X44099Y-28152D01*
X43900Y-28152D01*
X43716Y-28076D01*
X43576Y-27935D01*
X43509Y-27772D01*
X43509Y-27990D01*
X43478Y-28063D01*
X43422Y-28119D01*
X43349Y-28149D01*
X42650Y-28149D01*
X42577Y-28118D01*
X42521Y-28062D01*
X42491Y-27989D01*
X42491Y-27010D01*
X42522Y-26937D01*
X42578Y-26881D01*
X42651Y-26851D01*
X43350Y-26851D01*
X43401Y-26872D01*
X43401Y-26494D01*
X43220Y-26419D01*
X43081Y-26280D01*
X43038Y-26177D01*
X42056Y-25194D01*
X41996Y-25105D01*
X41975Y-25000D01*
X41975Y-20500D01*
X41996Y-20395D01*
X42056Y-20306D01*
X42725Y-19636D01*
X42725Y-18500D01*
X42746Y-18395D01*
X42806Y-18306D01*
X43305Y-17806D01*
X43395Y-17746D01*
X43500Y-17725D01*
X43526Y-17725D01*
X43526Y-17185D01*
X43557Y-17112D01*
X43613Y-17056D01*
X43685Y-17026D01*
X43685Y-16974D01*
X43612Y-16943D01*
X43556Y-16887D01*
X43526Y-16814D01*
X43526Y-16185D01*
X43557Y-16112D01*
X43613Y-16056D01*
X43685Y-16026D01*
X43685Y-15974D01*
X43612Y-15943D01*
X43556Y-15887D01*
X43526Y-15814D01*
X43526Y-15185D01*
X43557Y-15112D01*
X43613Y-15056D01*
X43686Y-15026D01*
X44315Y-15026D01*
X44388Y-15057D01*
X44444Y-15113D01*
X44474Y-15186D01*
X44474Y-15815D01*
X44443Y-15888D01*
X44387Y-15944D01*
X44314Y-15974D01*
X43685Y-15974D01*
X43685Y-16026D01*
X44315Y-16026D01*
X44388Y-16057D01*
X44444Y-16113D01*
X44474Y-16186D01*
X44474Y-16815D01*
X44443Y-16888D01*
X44387Y-16944D01*
X44314Y-16974D01*
X43685Y-16974D01*
X43685Y-17026D01*
X44315Y-17026D01*
X44388Y-17057D01*
X44444Y-17113D01*
X44474Y-17186D01*
X44474Y-17725D01*
X44578Y-17725D01*
X44525Y-17594D01*
X44525Y-17405D01*
X44598Y-17231D01*
X44731Y-17097D01*
X44905Y-17025D01*
X44905Y-16975D01*
X44731Y-16902D01*
X44597Y-16769D01*
X44525Y-16594D01*
X44525Y-16405D01*
X44598Y-16231D01*
X44731Y-16097D01*
X44906Y-16025D01*
X45095Y-16025D01*
X45269Y-16098D01*
X45403Y-16231D01*
X45475Y-16406D01*
X45475Y-16595D01*
X45402Y-16769D01*
X45269Y-16903D01*
X45094Y-16975D01*
X44905Y-16975D01*
X44905Y-17025D01*
X45095Y-17025D01*
X45269Y-17098D01*
X45403Y-17231D01*
X45475Y-17406D01*
X45475Y-17595D01*
X45420Y-17725D01*
X45578Y-17725D01*
X45525Y-17594D01*
X45525Y-17405D01*
X45598Y-17231D01*
X45731Y-17097D01*
X45906Y-17025D01*
X46095Y-17025D01*
X46242Y-17086D01*
X46225Y-17000D01*
X46225Y-16921D01*
X46094Y-16975D01*
X45905Y-16975D01*
X45731Y-16902D01*
X45597Y-16769D01*
X45525Y-16594D01*
X45525Y-16405D01*
X45598Y-16231D01*
X45731Y-16097D01*
X45906Y-16025D01*
X46095Y-16025D01*
X46225Y-16079D01*
X46225Y-15921D01*
X46094Y-15975D01*
X45905Y-15975D01*
X45731Y-15902D01*
X45597Y-15769D01*
X45525Y-15594D01*
X45525Y-15494D01*
X45475Y-15494D01*
X45475Y-15595D01*
X45402Y-15769D01*
X45269Y-15903D01*
X45094Y-15975D01*
X44905Y-15975D01*
X44731Y-15902D01*
X44597Y-15769D01*
X44525Y-15594D01*
X44525Y-15405D01*
X44598Y-15231D01*
X44731Y-15097D01*
X44906Y-15025D01*
X45006Y-15025D01*
X45006Y-14901D01*
X45081Y-14720D01*
X45220Y-14581D01*
X45402Y-14506D01*
X45599Y-14506D01*
X45618Y-14513D01*
X45645Y-14496D01*
X45750Y-14475D01*
X46250Y-14475D01*
X46355Y-14496D01*
X46444Y-14556D01*
X46694Y-14805D01*
X46733Y-14864D01*
X46754Y-14895D01*
X46775Y-15000D01*
X46775Y-15078D01*
X46906Y-15025D01*
X47095Y-15025D01*
X47269Y-15098D01*
X47403Y-15231D01*
X47475Y-15406D01*
X47475Y-15595D01*
X47402Y-15769D01*
X47269Y-15903D01*
X47094Y-15975D01*
X46905Y-15975D01*
X46775Y-15920D01*
X46775Y-16078D01*
X46906Y-16025D01*
X47095Y-16025D01*
X47269Y-16098D01*
X47403Y-16231D01*
X47475Y-16406D01*
X47475Y-16595D01*
X47420Y-16725D01*
X47578Y-16725D01*
X47525Y-16594D01*
X47525Y-16405D01*
X47598Y-16231D01*
X47731Y-16097D01*
X47906Y-16025D01*
X48095Y-16025D01*
X48256Y-16092D01*
X48256Y-15908D01*
X48094Y-15975D01*
X47905Y-15975D01*
X47731Y-15902D01*
X47597Y-15769D01*
X47525Y-15594D01*
X47525Y-15405D01*
X47598Y-15231D01*
X47731Y-15097D01*
X47906Y-15025D01*
X48095Y-15025D01*
X48269Y-15098D01*
X48403Y-15231D01*
X48475Y-15406D01*
X48475Y-14921D01*
X48470Y-14919D01*
X48331Y-14780D01*
X48256Y-14598D01*
X48256Y-14401D01*
X48331Y-14220D01*
X48470Y-14081D01*
X48652Y-14006D01*
X48849Y-14006D01*
X49030Y-14081D01*
X49169Y-14220D01*
X49244Y-14402D01*
X49244Y-14599D01*
X49181Y-14750D01*
X51325Y-14750D01*
X51325Y-16130D01*
X50818Y-16130D01*
X50818Y-17130D01*
X50746Y-17130D01*
X50746Y-18130D01*
X50646Y-18130D01*
X50646Y-19130D01*
X50438Y-19130D01*
X50438Y-20108D01*
X48780Y-20108D01*
X48491Y-20396D01*
X48494Y-20402D01*
X48494Y-20599D01*
X48419Y-20780D01*
X48280Y-20919D01*
X48275Y-20920D01*
X48284Y-20924D01*
X48424Y-21065D01*
X48500Y-21249D01*
X48500Y-21248D01*
X48576Y-21064D01*
X48717Y-20924D01*
X48901Y-20848D01*
X49100Y-20848D01*
X49284Y-20924D01*
X49424Y-21065D01*
X49500Y-21249D01*
X49500Y-21248D01*
X49576Y-21064D01*
X49717Y-20924D01*
X49901Y-20848D01*
X50100Y-20848D01*
X50284Y-20924D01*
X50424Y-21065D01*
X50500Y-21249D01*
X50500Y-21248D01*
X50576Y-21064D01*
X50717Y-20924D01*
X50901Y-20848D01*
X51100Y-20848D01*
X51284Y-20924D01*
X51424Y-21065D01*
X51500Y-21249D01*
X51500Y-21248D01*
X51576Y-21064D01*
X51717Y-20924D01*
X51901Y-20848D01*
X51901Y-16744D01*
X51720Y-16669D01*
X51581Y-16530D01*
X51506Y-16348D01*
X51506Y-16151D01*
X51581Y-15970D01*
X51720Y-15831D01*
X51725Y-15828D01*
X51725Y-15000D01*
X51746Y-14895D01*
X51764Y-14867D01*
X51756Y-14848D01*
X51756Y-14651D01*
X51831Y-14470D01*
X51970Y-14331D01*
X52152Y-14256D01*
X52349Y-14256D01*
X52530Y-14331D01*
X52669Y-14470D01*
X52744Y-14652D01*
X52744Y-14849D01*
X52669Y-15030D01*
X52530Y-15169D01*
X52348Y-15244D01*
X52275Y-15244D01*
X52275Y-15828D01*
X52280Y-15831D01*
X52419Y-15970D01*
X52494Y-16152D01*
X52494Y-16349D01*
X52419Y-16530D01*
X52280Y-16669D01*
X52098Y-16744D01*
X51901Y-16744D01*
X51901Y-20848D01*
X52100Y-20848D01*
X52284Y-20924D01*
X52424Y-21065D01*
X52500Y-21249D01*
X52500Y-21248D01*
X52576Y-21064D01*
X52717Y-20924D01*
X52901Y-20848D01*
X53100Y-20848D01*
X53284Y-20924D01*
X53424Y-21065D01*
X53500Y-21249D01*
X53500Y-21248D01*
X53576Y-21064D01*
X53717Y-20924D01*
X53901Y-20848D01*
X54100Y-20848D01*
X54185Y-20883D01*
X54185Y-19974D01*
X54112Y-19943D01*
X54056Y-19887D01*
X54026Y-19814D01*
X54026Y-19185D01*
X54057Y-19112D01*
X54113Y-19056D01*
X54185Y-19026D01*
X54185Y-18974D01*
X54112Y-18943D01*
X54056Y-18887D01*
X54026Y-18814D01*
X54026Y-18185D01*
X54057Y-18112D01*
X54113Y-18056D01*
X54185Y-18026D01*
X54185Y-17974D01*
X54112Y-17943D01*
X54056Y-17887D01*
X54026Y-17814D01*
X54026Y-17185D01*
X54057Y-17112D01*
X54113Y-17056D01*
X54186Y-17026D01*
X54815Y-17026D01*
X54888Y-17057D01*
X54944Y-17113D01*
X54974Y-17186D01*
X54974Y-17815D01*
X54943Y-17888D01*
X54887Y-17944D01*
X54814Y-17974D01*
X54185Y-17974D01*
X54185Y-18026D01*
X54815Y-18026D01*
X54888Y-18057D01*
X54944Y-18113D01*
X54974Y-18186D01*
X54974Y-18815D01*
X54943Y-18888D01*
X54887Y-18944D01*
X54814Y-18974D01*
X54185Y-18974D01*
X54185Y-19026D01*
X54815Y-19026D01*
X54888Y-19057D01*
X54944Y-19113D01*
X54974Y-19186D01*
X54974Y-19815D01*
X54943Y-19888D01*
X54887Y-19944D01*
X54814Y-19974D01*
X54185Y-19974D01*
X54185Y-20883D01*
X54284Y-20924D01*
X54424Y-21065D01*
X54475Y-21189D01*
X54490Y-21127D01*
X54618Y-20950D01*
X54804Y-20835D01*
X54863Y-20818D01*
X54918Y-20848D01*
X55081Y-20848D01*
X55137Y-20818D01*
X55196Y-20835D01*
X55382Y-20950D01*
X55405Y-20981D01*
X55405Y-19975D01*
X55231Y-19902D01*
X55097Y-19769D01*
X55025Y-19594D01*
X55025Y-19405D01*
X55098Y-19231D01*
X55231Y-19097D01*
X55405Y-19025D01*
X55405Y-18975D01*
X55231Y-18902D01*
X55097Y-18769D01*
X55025Y-18594D01*
X55025Y-18405D01*
X55098Y-18231D01*
X55231Y-18097D01*
X55405Y-18025D01*
X55405Y-17975D01*
X55231Y-17902D01*
X55097Y-17769D01*
X55025Y-17594D01*
X55025Y-17405D01*
X55098Y-17231D01*
X55231Y-17097D01*
X55406Y-17025D01*
X55595Y-17025D01*
X55769Y-17098D01*
X55903Y-17231D01*
X55975Y-17406D01*
X55975Y-17595D01*
X55902Y-17769D01*
X55769Y-17903D01*
X55594Y-17975D01*
X55405Y-17975D01*
X55405Y-18025D01*
X55595Y-18025D01*
X55769Y-18098D01*
X55903Y-18231D01*
X55975Y-18406D01*
X55975Y-18595D01*
X55902Y-18769D01*
X55769Y-18903D01*
X55594Y-18975D01*
X55405Y-18975D01*
X55405Y-19025D01*
X55595Y-19025D01*
X55769Y-19098D01*
X55903Y-19231D01*
X55975Y-19406D01*
X55975Y-19595D01*
X55902Y-19769D01*
X55769Y-19903D01*
X55594Y-19975D01*
X55405Y-19975D01*
X55405Y-20981D01*
X55500Y-21113D01*
X55618Y-20950D01*
X55804Y-20835D01*
X55863Y-20818D01*
X55918Y-20848D01*
X56081Y-20848D01*
X56137Y-20818D01*
X56196Y-20835D01*
X56382Y-20950D01*
X56405Y-20981D01*
X56405Y-19975D01*
X56231Y-19902D01*
X56097Y-19769D01*
X56025Y-19594D01*
X56025Y-19405D01*
X56098Y-19231D01*
X56231Y-19097D01*
X56405Y-19025D01*
X56405Y-18975D01*
X56231Y-18902D01*
X56097Y-18769D01*
X56025Y-18594D01*
X56025Y-18405D01*
X56098Y-18231D01*
X56231Y-18097D01*
X56405Y-18025D01*
X56405Y-17975D01*
X56231Y-17902D01*
X56097Y-17769D01*
X56025Y-17594D01*
X56025Y-17405D01*
X56098Y-17231D01*
X56231Y-17097D01*
X56406Y-17025D01*
X56595Y-17025D01*
X56769Y-17098D01*
X56903Y-17231D01*
X56975Y-17406D01*
X56975Y-17595D01*
X56902Y-17769D01*
X56769Y-17903D01*
X56594Y-17975D01*
X56405Y-17975D01*
X56405Y-18025D01*
X56595Y-18025D01*
X56769Y-18098D01*
X56903Y-18231D01*
X56975Y-18406D01*
X56975Y-18595D01*
X56902Y-18769D01*
X56769Y-18903D01*
X56594Y-18975D01*
X56405Y-18975D01*
X56405Y-19025D01*
X56595Y-19025D01*
X56769Y-19098D01*
X56903Y-19231D01*
X56975Y-19406D01*
X56975Y-19595D01*
X56902Y-19769D01*
X56769Y-19903D01*
X56594Y-19975D01*
X56405Y-19975D01*
X56405Y-20981D01*
X56510Y-21127D01*
X56524Y-21188D01*
X56576Y-21064D01*
X56717Y-20924D01*
X56901Y-20848D01*
X57100Y-20848D01*
X57284Y-20924D01*
X57405Y-21045D01*
X57405Y-19975D01*
X57231Y-19902D01*
X57097Y-19769D01*
X57025Y-19594D01*
X57025Y-19405D01*
X57098Y-19231D01*
X57231Y-19097D01*
X57405Y-19025D01*
X57405Y-18975D01*
X57231Y-18902D01*
X57097Y-18769D01*
X57025Y-18594D01*
X57025Y-18405D01*
X57098Y-18231D01*
X57231Y-18097D01*
X57405Y-18025D01*
X57405Y-17975D01*
X57231Y-17902D01*
X57097Y-17769D01*
X57025Y-17594D01*
X57025Y-17405D01*
X57098Y-17231D01*
X57231Y-17097D01*
X57406Y-17025D01*
X57595Y-17025D01*
X57769Y-17098D01*
X57903Y-17231D01*
X57975Y-17406D01*
X57975Y-17595D01*
X57902Y-17769D01*
X57769Y-17903D01*
X57594Y-17975D01*
X57405Y-17975D01*
X57405Y-18025D01*
X57595Y-18025D01*
X57769Y-18098D01*
X57903Y-18231D01*
X57975Y-18406D01*
X57975Y-18595D01*
X57902Y-18769D01*
X57769Y-18903D01*
X57594Y-18975D01*
X57405Y-18975D01*
X57405Y-19025D01*
X57595Y-19025D01*
X57769Y-19098D01*
X57903Y-19231D01*
X57975Y-19406D01*
X57975Y-19595D01*
X57902Y-19769D01*
X57769Y-19903D01*
X57594Y-19975D01*
X57405Y-19975D01*
X57405Y-21045D01*
X57424Y-21065D01*
X57500Y-21249D01*
X57500Y-21248D01*
X57576Y-21064D01*
X57717Y-20924D01*
X57901Y-20848D01*
X58100Y-20848D01*
X58284Y-20924D01*
X58424Y-21065D01*
X58475Y-21189D01*
X58490Y-21127D01*
X58618Y-20950D01*
X58804Y-20835D01*
X58863Y-20818D01*
X58918Y-20848D01*
X58956Y-20848D01*
X58956Y-20380D01*
X58956Y-19640D01*
X58902Y-19769D01*
X58769Y-19903D01*
X58594Y-19975D01*
X58405Y-19975D01*
X58231Y-19902D01*
X58097Y-19769D01*
X58025Y-19594D01*
X58025Y-19405D01*
X58098Y-19231D01*
X58231Y-19097D01*
X58406Y-19025D01*
X58595Y-19025D01*
X58769Y-19098D01*
X58903Y-19231D01*
X58956Y-19359D01*
X58956Y-18640D01*
X58902Y-18769D01*
X58769Y-18903D01*
X58594Y-18975D01*
X58405Y-18975D01*
X58231Y-18902D01*
X58097Y-18769D01*
X58025Y-18594D01*
X58025Y-18405D01*
X58098Y-18231D01*
X58231Y-18097D01*
X58406Y-18025D01*
X58595Y-18025D01*
X58769Y-18098D01*
X58903Y-18231D01*
X58956Y-18359D01*
X58956Y-18130D01*
X58941Y-18130D01*
X58941Y-17676D01*
X58902Y-17769D01*
X58769Y-17903D01*
X58594Y-17975D01*
X58405Y-17975D01*
X58231Y-17902D01*
X58097Y-17769D01*
X58025Y-17594D01*
X58025Y-17405D01*
X58098Y-17231D01*
X58231Y-17097D01*
X58406Y-17025D01*
X58595Y-17025D01*
X58769Y-17098D01*
X58903Y-17231D01*
X58941Y-17323D01*
X58941Y-16750D01*
X62039Y-16750D01*
X62039Y-18130D01*
X61625Y-18130D01*
X61625Y-20380D01*
X58956Y-20380D01*
X58956Y-20848D01*
X59081Y-20848D01*
X59137Y-20818D01*
X59196Y-20835D01*
X59382Y-20950D01*
X59500Y-21113D01*
X59618Y-20950D01*
X59804Y-20835D01*
X59863Y-20818D01*
X59918Y-20848D01*
X60081Y-20848D01*
X60137Y-20818D01*
X60196Y-20835D01*
X60382Y-20950D01*
X60499Y-21113D01*
X60618Y-20950D01*
X60804Y-20835D01*
X60863Y-20818D01*
X60918Y-20848D01*
X61081Y-20848D01*
X61137Y-20818D01*
X61196Y-20835D01*
X61382Y-20950D01*
X61500Y-21113D01*
X61618Y-20950D01*
X61804Y-20835D01*
X61863Y-20818D01*
X61918Y-20848D01*
X62081Y-20848D01*
X62137Y-20818D01*
X62196Y-20835D01*
X62382Y-20950D01*
X62510Y-21127D01*
X62560Y-21340D01*
X62560Y-21450D01*
X62500Y-21450D01*
X62500Y-21550D01*
X62560Y-21550D01*
X62560Y-21660D01*
X62510Y-21873D01*
X62382Y-22050D01*
X62196Y-22165D01*
X62137Y-22182D01*
X62081Y-22152D01*
X61918Y-22152D01*
X61863Y-22182D01*
X61804Y-22165D01*
X61618Y-22050D01*
X61500Y-21886D01*
X61382Y-22050D01*
X61196Y-22165D01*
X61137Y-22182D01*
X61081Y-22152D01*
X60918Y-22152D01*
X60863Y-22182D01*
X60804Y-22165D01*
X60618Y-22050D01*
X60499Y-21886D01*
X60382Y-22050D01*
X60196Y-22165D01*
X60137Y-22182D01*
X60081Y-22152D01*
X59918Y-22152D01*
X59863Y-22182D01*
X59804Y-22165D01*
X59618Y-22050D01*
X59500Y-21886D01*
X59382Y-22050D01*
X59196Y-22165D01*
X59137Y-22182D01*
X59081Y-22152D01*
X58918Y-22152D01*
X58863Y-22182D01*
X58804Y-22165D01*
X58618Y-22050D01*
X58490Y-21873D01*
X58475Y-21811D01*
X58424Y-21936D01*
X58283Y-22076D01*
X58099Y-22152D01*
X57900Y-22152D01*
X57716Y-22076D01*
X57576Y-21935D01*
X57500Y-21751D01*
X57500Y-21752D01*
X57424Y-21936D01*
X57283Y-22076D01*
X57099Y-22152D01*
X56900Y-22152D01*
X56716Y-22076D01*
X56576Y-21935D01*
X56524Y-21810D01*
X56510Y-21873D01*
X56382Y-22050D01*
X56196Y-22165D01*
X56137Y-22182D01*
X56081Y-22152D01*
X55918Y-22152D01*
X55863Y-22182D01*
X55804Y-22165D01*
X55618Y-22050D01*
X55500Y-21886D01*
X55382Y-22050D01*
X55196Y-22165D01*
X55137Y-22182D01*
X55081Y-22152D01*
X54918Y-22152D01*
X54863Y-22182D01*
X54804Y-22165D01*
X54618Y-22050D01*
X54490Y-21873D01*
X54475Y-21811D01*
X54424Y-21936D01*
X54283Y-22076D01*
X54099Y-22152D01*
X53900Y-22152D01*
X53716Y-22076D01*
X53576Y-21935D01*
X53500Y-21751D01*
X53500Y-21752D01*
X53424Y-21936D01*
X53283Y-22076D01*
X53099Y-22152D01*
X52900Y-22152D01*
X52716Y-22076D01*
X52576Y-21935D01*
X52500Y-21751D01*
X52500Y-21752D01*
X52424Y-21936D01*
X52283Y-22076D01*
X52099Y-22152D01*
X51900Y-22152D01*
X51716Y-22076D01*
X51576Y-21935D01*
X51500Y-21751D01*
X51500Y-21752D01*
X51424Y-21936D01*
X51283Y-22076D01*
X51099Y-22152D01*
X50900Y-22152D01*
X50716Y-22076D01*
X50576Y-21935D01*
X50500Y-21751D01*
X50500Y-21752D01*
X50424Y-21936D01*
X50283Y-22076D01*
X50099Y-22152D01*
X49900Y-22152D01*
X49716Y-22076D01*
X49576Y-21935D01*
X49500Y-21751D01*
X49500Y-21752D01*
X49424Y-21936D01*
X49283Y-22076D01*
X49099Y-22152D01*
X48900Y-22152D01*
X48716Y-22076D01*
X48576Y-21935D01*
X48500Y-21751D01*
X48500Y-21752D01*
X48424Y-21936D01*
X48283Y-22076D01*
X48099Y-22152D01*
X47900Y-22152D01*
X47716Y-22076D01*
X47576Y-21935D01*
X47500Y-21751D01*
X47500Y-21752D01*
X47424Y-21936D01*
X47283Y-22076D01*
X47099Y-22152D01*
X46900Y-22152D01*
X46716Y-22076D01*
X46576Y-21935D01*
X46500Y-21751D01*
X46500Y-21752D01*
X46424Y-21936D01*
X46283Y-22076D01*
X46099Y-22152D01*
X45900Y-22152D01*
X45716Y-22076D01*
X45576Y-21935D01*
X45500Y-21751D01*
X45500Y-21752D01*
X45424Y-21936D01*
X45283Y-22076D01*
X45099Y-22152D01*
X44900Y-22152D01*
X44716Y-22076D01*
X44576Y-21935D01*
X44500Y-21751D01*
X44500Y-21752D01*
X44424Y-21936D01*
X44283Y-22076D01*
X44099Y-22152D01*
X43900Y-22152D01*
X43716Y-22076D01*
X43576Y-21935D01*
X43500Y-21751D01*
X43500Y-21752D01*
X43424Y-21936D01*
X43283Y-22076D01*
X43099Y-22152D01*
X42900Y-22152D01*
X42716Y-22076D01*
X42576Y-21935D01*
X42525Y-21811D01*
X42525Y-24886D01*
X43219Y-25581D01*
X43220Y-25581D01*
X43402Y-25506D01*
X43599Y-25506D01*
X43780Y-25581D01*
X43919Y-25720D01*
X43994Y-25902D01*
X43994Y-26099D01*
X43919Y-26280D01*
X43780Y-26419D01*
X43598Y-26494D01*
X43401Y-26494D01*
X43401Y-26872D01*
X43423Y-26882D01*
X43479Y-26938D01*
X43509Y-27011D01*
X43509Y-27226D01*
X43576Y-27064D01*
X43717Y-26924D01*
X43901Y-26848D01*
X44100Y-26848D01*
X44284Y-26924D01*
X44424Y-27065D01*
X44475Y-27189D01*
X44490Y-27127D01*
X44618Y-26950D01*
X44804Y-26835D01*
X44863Y-26818D01*
X44918Y-26848D01*
X45081Y-26848D01*
X45137Y-26818D01*
X45196Y-26835D01*
X45382Y-26950D01*
X45510Y-27127D01*
X45524Y-27188D01*
X45576Y-27064D01*
X45717Y-26924D01*
X45901Y-26848D01*
X46100Y-26848D01*
X46284Y-26924D01*
X46424Y-27065D01*
X46500Y-27249D01*
X46500Y-27248D01*
X46576Y-27064D01*
X46717Y-26924D01*
X46901Y-26848D01*
X47100Y-26848D01*
X47284Y-26924D01*
X47424Y-27065D01*
X47475Y-27189D01*
X47490Y-27127D01*
X47618Y-26950D01*
X47804Y-26835D01*
X47863Y-26818D01*
X47918Y-26848D01*
X48081Y-26848D01*
X48137Y-26818D01*
X48196Y-26835D01*
X48382Y-26950D01*
X48401Y-26976D01*
X48401Y-24494D01*
X48220Y-24419D01*
X48081Y-24280D01*
X48078Y-24275D01*
X44500Y-24275D01*
X44395Y-24254D01*
X44364Y-24233D01*
X44305Y-24194D01*
X43853Y-23741D01*
X43848Y-23744D01*
X43651Y-23744D01*
X43470Y-23669D01*
X43331Y-23530D01*
X43256Y-23348D01*
X43256Y-23151D01*
X43331Y-22970D01*
X43470Y-22831D01*
X43652Y-22756D01*
X43849Y-22756D01*
X44030Y-22831D01*
X44169Y-22970D01*
X44244Y-23152D01*
X44244Y-23349D01*
X44242Y-23353D01*
X44613Y-23725D01*
X48078Y-23725D01*
X48081Y-23720D01*
X48220Y-23581D01*
X48402Y-23506D01*
X48599Y-23506D01*
X48780Y-23581D01*
X48901Y-23702D01*
X48901Y-23494D01*
X48720Y-23419D01*
X48581Y-23280D01*
X48578Y-23275D01*
X46921Y-23275D01*
X46919Y-23280D01*
X46780Y-23419D01*
X46598Y-23494D01*
X46401Y-23494D01*
X46220Y-23419D01*
X46081Y-23280D01*
X46006Y-23098D01*
X46006Y-22901D01*
X46081Y-22720D01*
X46220Y-22581D01*
X46402Y-22506D01*
X46599Y-22506D01*
X46780Y-22581D01*
X46919Y-22720D01*
X46921Y-22725D01*
X48578Y-22725D01*
X48581Y-22720D01*
X48720Y-22581D01*
X48902Y-22506D01*
X49099Y-22506D01*
X49280Y-22581D01*
X49419Y-22720D01*
X49494Y-22902D01*
X49494Y-23099D01*
X49419Y-23280D01*
X49280Y-23419D01*
X49098Y-23494D01*
X48901Y-23494D01*
X48901Y-23702D01*
X48919Y-23720D01*
X48994Y-23902D01*
X48994Y-24099D01*
X48919Y-24280D01*
X48780Y-24419D01*
X48598Y-24494D01*
X48401Y-24494D01*
X48401Y-26976D01*
X48500Y-27113D01*
X48618Y-26950D01*
X48804Y-26835D01*
X48863Y-26818D01*
X48918Y-26848D01*
X49081Y-26848D01*
X49137Y-26818D01*
X49196Y-26835D01*
X49382Y-26950D01*
X49500Y-27113D01*
X49618Y-26950D01*
X49804Y-26835D01*
X49863Y-26818D01*
X49918Y-26848D01*
X50081Y-26848D01*
X50137Y-26818D01*
X50196Y-26835D01*
X50382Y-26950D01*
X50500Y-27113D01*
X50618Y-26950D01*
X50804Y-26835D01*
X50863Y-26818D01*
X50918Y-26848D01*
X51081Y-26848D01*
X51137Y-26818D01*
X51196Y-26835D01*
X51382Y-26950D01*
X51499Y-27113D01*
X51618Y-26950D01*
X51804Y-26835D01*
X51863Y-26818D01*
X51918Y-26848D01*
X52081Y-26848D01*
X52137Y-26818D01*
X52196Y-26835D01*
X52382Y-26950D01*
X52500Y-27113D01*
X52618Y-26950D01*
X52804Y-26835D01*
X52863Y-26818D01*
X52918Y-26848D01*
X53081Y-26848D01*
X53137Y-26818D01*
X53196Y-26835D01*
X53382Y-26950D01*
X53500Y-27113D01*
X53618Y-26950D01*
X53804Y-26835D01*
X53863Y-26818D01*
X53918Y-26848D01*
X54081Y-26848D01*
X54137Y-26818D01*
X54196Y-26835D01*
X54382Y-26950D01*
X54500Y-27113D01*
X54618Y-26950D01*
X54804Y-26835D01*
X54863Y-26818D01*
X54918Y-26848D01*
X55081Y-26848D01*
X55137Y-26818D01*
X55196Y-26835D01*
X55382Y-26950D01*
X55500Y-27113D01*
X55618Y-26950D01*
X55804Y-26835D01*
X55863Y-26818D01*
X55918Y-26848D01*
X56081Y-26848D01*
X56137Y-26818D01*
X56196Y-26835D01*
X56382Y-26950D01*
X56500Y-27113D01*
X56618Y-26950D01*
X56804Y-26835D01*
X56863Y-26818D01*
X56918Y-26848D01*
X57081Y-26848D01*
X57137Y-26818D01*
X57196Y-26835D01*
X57382Y-26950D01*
X57500Y-27113D01*
X57618Y-26950D01*
X57804Y-26835D01*
X57863Y-26818D01*
X57918Y-26848D01*
X58081Y-26848D01*
X58137Y-26818D01*
X58196Y-26835D01*
X58382Y-26950D01*
X58500Y-27113D01*
X58618Y-26950D01*
X58804Y-26835D01*
X58863Y-26818D01*
X58918Y-26848D01*
X59081Y-26848D01*
X59137Y-26818D01*
X59196Y-26835D01*
X59382Y-26950D01*
X59500Y-27113D01*
X59618Y-26950D01*
X59804Y-26835D01*
X59863Y-26818D01*
X59918Y-26848D01*
X60081Y-26848D01*
X60137Y-26818D01*
X60196Y-26835D01*
X60382Y-26950D01*
X60499Y-27113D01*
X60618Y-26950D01*
X60804Y-26835D01*
X60863Y-26818D01*
X60918Y-26848D01*
X61081Y-26848D01*
X61137Y-26818D01*
X61196Y-26835D01*
X61382Y-26950D01*
X61500Y-27113D01*
X61618Y-26950D01*
X61804Y-26835D01*
X61863Y-26818D01*
X61918Y-26848D01*
X62081Y-26848D01*
X62137Y-26818D01*
X62196Y-26835D01*
X62382Y-26950D01*
X62510Y-27127D01*
X62560Y-27340D01*
X62560Y-27450D01*
X62500Y-27450D01*
X62500Y-27550D01*
X62560Y-27550D01*
X62560Y-27660D01*
X62510Y-27873D01*
X62382Y-28050D01*
X62196Y-28165D01*
X62137Y-28182D01*
X62137Y-28775D01*
X63025Y-28775D01*
X63025Y-28775D01*
G37*
G54D18*
X63025Y-28775D02*
X63025Y-13475D01*
X41725Y-13475D01*
X41725Y-28775D01*
X62137Y-28775D01*
X62137Y-28182D01*
X62081Y-28152D01*
X61918Y-28152D01*
X61900Y-28162D01*
X61863Y-28182D01*
X61804Y-28165D01*
X61618Y-28050D01*
X61500Y-27886D01*
X61382Y-28050D01*
X61196Y-28165D01*
X61137Y-28182D01*
X61081Y-28152D01*
X60918Y-28152D01*
X60863Y-28182D01*
X60804Y-28165D01*
X60618Y-28050D01*
X60499Y-27886D01*
X60382Y-28050D01*
X60196Y-28165D01*
X60137Y-28182D01*
X60081Y-28152D01*
X59918Y-28152D01*
X59863Y-28182D01*
X59804Y-28165D01*
X59618Y-28050D01*
X59500Y-27886D01*
X59382Y-28050D01*
X59196Y-28165D01*
X59137Y-28182D01*
X59081Y-28152D01*
X58918Y-28152D01*
X58863Y-28182D01*
X58804Y-28165D01*
X58618Y-28050D01*
X58500Y-27886D01*
X58382Y-28050D01*
X58196Y-28165D01*
X58137Y-28182D01*
X58081Y-28152D01*
X57918Y-28152D01*
X57863Y-28182D01*
X57804Y-28165D01*
X57618Y-28050D01*
X57500Y-27886D01*
X57382Y-28050D01*
X57196Y-28165D01*
X57137Y-28182D01*
X57081Y-28152D01*
X56918Y-28152D01*
X56863Y-28182D01*
X56804Y-28165D01*
X56618Y-28050D01*
X56500Y-27886D01*
X56382Y-28050D01*
X56196Y-28165D01*
X56137Y-28182D01*
X56081Y-28152D01*
X55918Y-28152D01*
X55863Y-28182D01*
X55804Y-28165D01*
X55618Y-28050D01*
X55500Y-27886D01*
X55382Y-28050D01*
X55196Y-28165D01*
X55137Y-28182D01*
X55081Y-28152D01*
X54918Y-28152D01*
X54863Y-28182D01*
X54804Y-28165D01*
X54618Y-28050D01*
X54500Y-27886D01*
X54382Y-28050D01*
X54196Y-28165D01*
X54137Y-28182D01*
X54081Y-28152D01*
X53918Y-28152D01*
X53863Y-28182D01*
X53804Y-28165D01*
X53618Y-28050D01*
X53500Y-27886D01*
X53382Y-28050D01*
X53196Y-28165D01*
X53137Y-28182D01*
X53081Y-28152D01*
X52918Y-28152D01*
X52863Y-28182D01*
X52804Y-28165D01*
X52618Y-28050D01*
X52500Y-27886D01*
X52382Y-28050D01*
X52196Y-28165D01*
X52137Y-28182D01*
X52081Y-28152D01*
X51918Y-28152D01*
X51863Y-28182D01*
X51804Y-28165D01*
X51618Y-28050D01*
X51500Y-27886D01*
X51382Y-28050D01*
X51196Y-28165D01*
X51137Y-28182D01*
X51081Y-28152D01*
X50918Y-28152D01*
X50863Y-28182D01*
X50804Y-28165D01*
X50618Y-28050D01*
X50500Y-27886D01*
X50382Y-28050D01*
X50196Y-28165D01*
X50137Y-28182D01*
X50081Y-28152D01*
X49918Y-28152D01*
X49863Y-28182D01*
X49804Y-28165D01*
X49618Y-28050D01*
X49500Y-27886D01*
X49382Y-28050D01*
X49196Y-28165D01*
X49137Y-28182D01*
X49081Y-28152D01*
X48918Y-28152D01*
X48863Y-28182D01*
X48804Y-28165D01*
X48618Y-28050D01*
X48499Y-27886D01*
X48382Y-28050D01*
X48196Y-28165D01*
X48137Y-28182D01*
X48081Y-28152D01*
X47918Y-28152D01*
X47863Y-28182D01*
X47804Y-28165D01*
X47618Y-28050D01*
X47490Y-27873D01*
X47475Y-27811D01*
X47424Y-27936D01*
X47283Y-28076D01*
X47099Y-28152D01*
X46900Y-28152D01*
X46716Y-28076D01*
X46576Y-27935D01*
X46500Y-27751D01*
X46500Y-27752D01*
X46424Y-27936D01*
X46283Y-28076D01*
X46099Y-28152D01*
X45900Y-28152D01*
X45716Y-28076D01*
X45576Y-27935D01*
X45524Y-27810D01*
X45510Y-27873D01*
X45382Y-28050D01*
X45196Y-28165D01*
X45137Y-28182D01*
X45081Y-28152D01*
X44918Y-28152D01*
X44863Y-28182D01*
X44804Y-28165D01*
X44618Y-28050D01*
X44490Y-27873D01*
X44475Y-27811D01*
X44424Y-27936D01*
X44283Y-28076D01*
X44099Y-28152D01*
X43900Y-28152D01*
X43716Y-28076D01*
X43576Y-27935D01*
X43509Y-27772D01*
X43509Y-27990D01*
X43478Y-28063D01*
X43422Y-28119D01*
X43349Y-28149D01*
X42650Y-28149D01*
X42577Y-28118D01*
X42521Y-28062D01*
X42491Y-27989D01*
X42491Y-27010D01*
X42522Y-26937D01*
X42578Y-26881D01*
X42651Y-26851D01*
X43350Y-26851D01*
X43401Y-26872D01*
X43401Y-26494D01*
X43220Y-26419D01*
X43081Y-26280D01*
X43038Y-26177D01*
X42056Y-25194D01*
X41996Y-25105D01*
X41975Y-25000D01*
X41975Y-20500D01*
X41996Y-20395D01*
X42056Y-20306D01*
X42725Y-19636D01*
X42725Y-18500D01*
X42746Y-18395D01*
X42806Y-18306D01*
X43305Y-17806D01*
X43395Y-17746D01*
X43500Y-17725D01*
X43526Y-17725D01*
X43526Y-17185D01*
X43557Y-17112D01*
X43613Y-17056D01*
X43685Y-17026D01*
X43685Y-16974D01*
X43612Y-16943D01*
X43556Y-16887D01*
X43526Y-16814D01*
X43526Y-16185D01*
X43557Y-16112D01*
X43613Y-16056D01*
X43685Y-16026D01*
X43685Y-15974D01*
X43612Y-15943D01*
X43556Y-15887D01*
X43526Y-15814D01*
X43526Y-15185D01*
X43557Y-15112D01*
X43613Y-15056D01*
X43686Y-15026D01*
X44315Y-15026D01*
X44388Y-15057D01*
X44444Y-15113D01*
X44474Y-15186D01*
X44474Y-15815D01*
X44443Y-15888D01*
X44387Y-15944D01*
X44314Y-15974D01*
X43685Y-15974D01*
X43685Y-16026D01*
X44315Y-16026D01*
X44388Y-16057D01*
X44444Y-16113D01*
X44474Y-16186D01*
X44474Y-16815D01*
X44443Y-16888D01*
X44387Y-16944D01*
X44314Y-16974D01*
X43685Y-16974D01*
X43685Y-17026D01*
X44315Y-17026D01*
X44388Y-17057D01*
X44444Y-17113D01*
X44474Y-17186D01*
X44474Y-17725D01*
X44578Y-17725D01*
X44525Y-17594D01*
X44525Y-17405D01*
X44598Y-17231D01*
X44731Y-17097D01*
X44905Y-17025D01*
X44905Y-16975D01*
X44731Y-16902D01*
X44597Y-16769D01*
X44525Y-16594D01*
X44525Y-16405D01*
X44598Y-16231D01*
X44731Y-16097D01*
X44906Y-16025D01*
X45095Y-16025D01*
X45269Y-16098D01*
X45403Y-16231D01*
X45475Y-16406D01*
X45475Y-16595D01*
X45402Y-16769D01*
X45269Y-16903D01*
X45094Y-16975D01*
X44905Y-16975D01*
X44905Y-17025D01*
X45095Y-17025D01*
X45269Y-17098D01*
X45403Y-17231D01*
X45475Y-17406D01*
X45475Y-17595D01*
X45420Y-17725D01*
X45578Y-17725D01*
X45525Y-17594D01*
X45525Y-17405D01*
X45598Y-17231D01*
X45731Y-17097D01*
X45906Y-17025D01*
X46095Y-17025D01*
X46242Y-17086D01*
X46225Y-17000D01*
X46225Y-16921D01*
X46094Y-16975D01*
X45905Y-16975D01*
X45731Y-16902D01*
X45597Y-16769D01*
X45525Y-16594D01*
X45525Y-16405D01*
X45598Y-16231D01*
X45731Y-16097D01*
X45906Y-16025D01*
X46095Y-16025D01*
X46225Y-16079D01*
X46225Y-15921D01*
X46094Y-15975D01*
X45905Y-15975D01*
X45731Y-15902D01*
X45597Y-15769D01*
X45525Y-15594D01*
X45525Y-15494D01*
X45475Y-15494D01*
X45475Y-15595D01*
X45402Y-15769D01*
X45269Y-15903D01*
X45094Y-15975D01*
X44905Y-15975D01*
X44731Y-15902D01*
X44597Y-15769D01*
X44525Y-15594D01*
X44525Y-15405D01*
X44598Y-15231D01*
X44731Y-15097D01*
X44906Y-15025D01*
X45006Y-15025D01*
X45006Y-14901D01*
X45081Y-14720D01*
X45220Y-14581D01*
X45402Y-14506D01*
X45599Y-14506D01*
X45618Y-14513D01*
X45645Y-14496D01*
X45750Y-14475D01*
X46250Y-14475D01*
X46355Y-14496D01*
X46444Y-14556D01*
X46694Y-14805D01*
X46733Y-14864D01*
X46754Y-14895D01*
X46775Y-15000D01*
X46775Y-15078D01*
X46906Y-15025D01*
X47095Y-15025D01*
X47269Y-15098D01*
X47403Y-15231D01*
X47475Y-15406D01*
X47475Y-15595D01*
X47402Y-15769D01*
X47269Y-15903D01*
X47094Y-15975D01*
X46905Y-15975D01*
X46775Y-15920D01*
X46775Y-16078D01*
X46906Y-16025D01*
X47095Y-16025D01*
X47269Y-16098D01*
X47403Y-16231D01*
X47475Y-16406D01*
X47475Y-16595D01*
X47420Y-16725D01*
X47578Y-16725D01*
X47525Y-16594D01*
X47525Y-16405D01*
X47598Y-16231D01*
X47731Y-16097D01*
X47906Y-16025D01*
X48095Y-16025D01*
X48256Y-16092D01*
X48256Y-15908D01*
X48094Y-15975D01*
X47905Y-15975D01*
X47731Y-15902D01*
X47597Y-15769D01*
X47525Y-15594D01*
X47525Y-15405D01*
X47598Y-15231D01*
X47731Y-15097D01*
X47906Y-15025D01*
X48095Y-15025D01*
X48269Y-15098D01*
X48403Y-15231D01*
X48475Y-15406D01*
X48475Y-14921D01*
X48470Y-14919D01*
X48331Y-14780D01*
X48256Y-14598D01*
X48256Y-14401D01*
X48331Y-14220D01*
X48470Y-14081D01*
X48652Y-14006D01*
X48849Y-14006D01*
X49030Y-14081D01*
X49169Y-14220D01*
X49244Y-14402D01*
X49244Y-14599D01*
X49181Y-14750D01*
X51325Y-14750D01*
X51325Y-16130D01*
X50818Y-16130D01*
X50818Y-17130D01*
X50746Y-17130D01*
X50746Y-18130D01*
X50646Y-18130D01*
X50646Y-19130D01*
X50438Y-19130D01*
X50438Y-20108D01*
X48780Y-20108D01*
X48491Y-20396D01*
X48494Y-20402D01*
X48494Y-20599D01*
X48419Y-20780D01*
X48280Y-20919D01*
X48275Y-20920D01*
X48284Y-20924D01*
X48424Y-21065D01*
X48500Y-21249D01*
X48500Y-21248D01*
X48576Y-21064D01*
X48717Y-20924D01*
X48901Y-20848D01*
X49100Y-20848D01*
X49284Y-20924D01*
X49424Y-21065D01*
X49500Y-21249D01*
X49500Y-21248D01*
X49576Y-21064D01*
X49717Y-20924D01*
X49901Y-20848D01*
X50100Y-20848D01*
X50284Y-20924D01*
X50424Y-21065D01*
X50500Y-21249D01*
X50500Y-21248D01*
X50576Y-21064D01*
X50717Y-20924D01*
X50901Y-20848D01*
X51100Y-20848D01*
X51284Y-20924D01*
X51424Y-21065D01*
X51500Y-21249D01*
X51500Y-21248D01*
X51576Y-21064D01*
X51717Y-20924D01*
X51901Y-20848D01*
X51901Y-16744D01*
X51720Y-16669D01*
X51581Y-16530D01*
X51506Y-16348D01*
X51506Y-16151D01*
X51581Y-15970D01*
X51720Y-15831D01*
X51725Y-15828D01*
X51725Y-15000D01*
X51746Y-14895D01*
X51764Y-14867D01*
X51756Y-14848D01*
X51756Y-14651D01*
X51831Y-14470D01*
X51970Y-14331D01*
X52152Y-14256D01*
X52349Y-14256D01*
X52530Y-14331D01*
X52669Y-14470D01*
X52744Y-14652D01*
X52744Y-14849D01*
X52669Y-15030D01*
X52530Y-15169D01*
X52348Y-15244D01*
X52275Y-15244D01*
X52275Y-15828D01*
X52280Y-15831D01*
X52419Y-15970D01*
X52494Y-16152D01*
X52494Y-16349D01*
X52419Y-16530D01*
X52280Y-16669D01*
X52098Y-16744D01*
X51901Y-16744D01*
X51901Y-20848D01*
X52100Y-20848D01*
X52284Y-20924D01*
X52424Y-21065D01*
X52500Y-21249D01*
X52500Y-21248D01*
X52576Y-21064D01*
X52717Y-20924D01*
X52901Y-20848D01*
X53100Y-20848D01*
X53284Y-20924D01*
X53424Y-21065D01*
X53500Y-21249D01*
X53500Y-21248D01*
X53576Y-21064D01*
X53717Y-20924D01*
X53901Y-20848D01*
X54100Y-20848D01*
X54185Y-20883D01*
X54185Y-19974D01*
X54112Y-19943D01*
X54056Y-19887D01*
X54026Y-19814D01*
X54026Y-19185D01*
X54057Y-19112D01*
X54113Y-19056D01*
X54185Y-19026D01*
X54185Y-18974D01*
X54112Y-18943D01*
X54056Y-18887D01*
X54026Y-18814D01*
X54026Y-18185D01*
X54057Y-18112D01*
X54113Y-18056D01*
X54185Y-18026D01*
X54185Y-17974D01*
X54112Y-17943D01*
X54056Y-17887D01*
X54026Y-17814D01*
X54026Y-17185D01*
X54057Y-17112D01*
X54113Y-17056D01*
X54186Y-17026D01*
X54815Y-17026D01*
X54888Y-17057D01*
X54944Y-17113D01*
X54974Y-17186D01*
X54974Y-17815D01*
X54943Y-17888D01*
X54887Y-17944D01*
X54814Y-17974D01*
X54185Y-17974D01*
X54185Y-18026D01*
X54815Y-18026D01*
X54888Y-18057D01*
X54944Y-18113D01*
X54974Y-18186D01*
X54974Y-18815D01*
X54943Y-18888D01*
X54887Y-18944D01*
X54814Y-18974D01*
X54185Y-18974D01*
X54185Y-19026D01*
X54815Y-19026D01*
X54888Y-19057D01*
X54944Y-19113D01*
X54974Y-19186D01*
X54974Y-19815D01*
X54943Y-19888D01*
X54887Y-19944D01*
X54814Y-19974D01*
X54185Y-19974D01*
X54185Y-20883D01*
X54284Y-20924D01*
X54424Y-21065D01*
X54475Y-21189D01*
X54490Y-21127D01*
X54618Y-20950D01*
X54804Y-20835D01*
X54863Y-20818D01*
X54918Y-20848D01*
X55081Y-20848D01*
X55137Y-20818D01*
X55196Y-20835D01*
X55382Y-20950D01*
X55405Y-20981D01*
X55405Y-19975D01*
X55231Y-19902D01*
X55097Y-19769D01*
X55025Y-19594D01*
X55025Y-19405D01*
X55098Y-19231D01*
X55231Y-19097D01*
X55405Y-19025D01*
X55405Y-18975D01*
X55231Y-18902D01*
X55097Y-18769D01*
X55025Y-18594D01*
X55025Y-18405D01*
X55098Y-18231D01*
X55231Y-18097D01*
X55405Y-18025D01*
X55405Y-17975D01*
X55231Y-17902D01*
X55097Y-17769D01*
X55025Y-17594D01*
X55025Y-17405D01*
X55098Y-17231D01*
X55231Y-17097D01*
X55406Y-17025D01*
X55595Y-17025D01*
X55769Y-17098D01*
X55903Y-17231D01*
X55975Y-17406D01*
X55975Y-17595D01*
X55902Y-17769D01*
X55769Y-17903D01*
X55594Y-17975D01*
X55405Y-17975D01*
X55405Y-18025D01*
X55595Y-18025D01*
X55769Y-18098D01*
X55903Y-18231D01*
X55975Y-18406D01*
X55975Y-18595D01*
X55902Y-18769D01*
X55769Y-18903D01*
X55594Y-18975D01*
X55405Y-18975D01*
X55405Y-19025D01*
X55595Y-19025D01*
X55769Y-19098D01*
X55903Y-19231D01*
X55975Y-19406D01*
X55975Y-19595D01*
X55902Y-19769D01*
X55769Y-19903D01*
X55594Y-19975D01*
X55405Y-19975D01*
X55405Y-20981D01*
X55500Y-21113D01*
X55618Y-20950D01*
X55804Y-20835D01*
X55863Y-20818D01*
X55918Y-20848D01*
X56081Y-20848D01*
X56137Y-20818D01*
X56196Y-20835D01*
X56382Y-20950D01*
X56405Y-20981D01*
X56405Y-19975D01*
X56231Y-19902D01*
X56097Y-19769D01*
X56025Y-19594D01*
X56025Y-19405D01*
X56098Y-19231D01*
X56231Y-19097D01*
X56405Y-19025D01*
X56405Y-18975D01*
X56231Y-18902D01*
X56097Y-18769D01*
X56025Y-18594D01*
X56025Y-18405D01*
X56098Y-18231D01*
X56231Y-18097D01*
X56405Y-18025D01*
X56405Y-17975D01*
X56231Y-17902D01*
X56097Y-17769D01*
X56025Y-17594D01*
X56025Y-17405D01*
X56098Y-17231D01*
X56231Y-17097D01*
X56406Y-17025D01*
X56595Y-17025D01*
X56769Y-17098D01*
X56903Y-17231D01*
X56975Y-17406D01*
X56975Y-17595D01*
X56902Y-17769D01*
X56769Y-17903D01*
X56594Y-17975D01*
X56405Y-17975D01*
X56405Y-18025D01*
X56595Y-18025D01*
X56769Y-18098D01*
X56903Y-18231D01*
X56975Y-18406D01*
X56975Y-18595D01*
X56902Y-18769D01*
X56769Y-18903D01*
X56594Y-18975D01*
X56405Y-18975D01*
X56405Y-19025D01*
X56595Y-19025D01*
X56769Y-19098D01*
X56903Y-19231D01*
X56975Y-19406D01*
X56975Y-19595D01*
X56902Y-19769D01*
X56769Y-19903D01*
X56594Y-19975D01*
X56405Y-19975D01*
X56405Y-20981D01*
X56510Y-21127D01*
X56524Y-21188D01*
X56576Y-21064D01*
X56717Y-20924D01*
X56901Y-20848D01*
X57100Y-20848D01*
X57284Y-20924D01*
X57405Y-21045D01*
X57405Y-19975D01*
X57231Y-19902D01*
X57097Y-19769D01*
X57025Y-19594D01*
X57025Y-19405D01*
X57098Y-19231D01*
X57231Y-19097D01*
X57405Y-19025D01*
X57405Y-18975D01*
X57231Y-18902D01*
X57097Y-18769D01*
X57025Y-18594D01*
X57025Y-18405D01*
X57098Y-18231D01*
X57231Y-18097D01*
X57405Y-18025D01*
X57405Y-17975D01*
X57231Y-17902D01*
X57097Y-17769D01*
X57025Y-17594D01*
X57025Y-17405D01*
X57098Y-17231D01*
X57231Y-17097D01*
X57406Y-17025D01*
X57595Y-17025D01*
X57769Y-17098D01*
X57903Y-17231D01*
X57975Y-17406D01*
X57975Y-17595D01*
X57902Y-17769D01*
X57769Y-17903D01*
X57594Y-17975D01*
X57405Y-17975D01*
X57405Y-18025D01*
X57595Y-18025D01*
X57769Y-18098D01*
X57903Y-18231D01*
X57975Y-18406D01*
X57975Y-18595D01*
X57902Y-18769D01*
X57769Y-18903D01*
X57594Y-18975D01*
X57405Y-18975D01*
X57405Y-19025D01*
X57595Y-19025D01*
X57769Y-19098D01*
X57903Y-19231D01*
X57975Y-19406D01*
X57975Y-19595D01*
X57902Y-19769D01*
X57769Y-19903D01*
X57594Y-19975D01*
X57405Y-19975D01*
X57405Y-21045D01*
X57424Y-21065D01*
X57500Y-21249D01*
X57500Y-21248D01*
X57576Y-21064D01*
X57717Y-20924D01*
X57901Y-20848D01*
X58100Y-20848D01*
X58284Y-20924D01*
X58424Y-21065D01*
X58475Y-21189D01*
X58490Y-21127D01*
X58618Y-20950D01*
X58804Y-20835D01*
X58863Y-20818D01*
X58918Y-20848D01*
X58956Y-20848D01*
X58956Y-20380D01*
X58956Y-19640D01*
X58902Y-19769D01*
X58769Y-19903D01*
X58594Y-19975D01*
X58405Y-19975D01*
X58231Y-19902D01*
X58097Y-19769D01*
X58025Y-19594D01*
X58025Y-19405D01*
X58098Y-19231D01*
X58231Y-19097D01*
X58406Y-19025D01*
X58595Y-19025D01*
X58769Y-19098D01*
X58903Y-19231D01*
X58956Y-19359D01*
X58956Y-18640D01*
X58902Y-18769D01*
X58769Y-18903D01*
X58594Y-18975D01*
X58405Y-18975D01*
X58231Y-18902D01*
X58097Y-18769D01*
X58025Y-18594D01*
X58025Y-18405D01*
X58098Y-18231D01*
X58231Y-18097D01*
X58406Y-18025D01*
X58595Y-18025D01*
X58769Y-18098D01*
X58903Y-18231D01*
X58956Y-18359D01*
X58956Y-18130D01*
X58941Y-18130D01*
X58941Y-17676D01*
X58902Y-17769D01*
X58769Y-17903D01*
X58594Y-17975D01*
X58405Y-17975D01*
X58231Y-17902D01*
X58097Y-17769D01*
X58025Y-17594D01*
X58025Y-17405D01*
X58098Y-17231D01*
X58231Y-17097D01*
X58406Y-17025D01*
X58595Y-17025D01*
X58769Y-17098D01*
X58903Y-17231D01*
X58941Y-17323D01*
X58941Y-16750D01*
X62039Y-16750D01*
X62039Y-18130D01*
X61625Y-18130D01*
X61625Y-20380D01*
X58956Y-20380D01*
X58956Y-20848D01*
X59081Y-20848D01*
X59137Y-20818D01*
X59196Y-20835D01*
X59382Y-20950D01*
X59500Y-21113D01*
X59618Y-20950D01*
X59804Y-20835D01*
X59863Y-20818D01*
X59918Y-20848D01*
X60081Y-20848D01*
X60137Y-20818D01*
X60196Y-20835D01*
X60382Y-20950D01*
X60499Y-21113D01*
X60618Y-20950D01*
X60804Y-20835D01*
X60863Y-20818D01*
X60918Y-20848D01*
X61081Y-20848D01*
X61137Y-20818D01*
X61196Y-20835D01*
X61382Y-20950D01*
X61500Y-21113D01*
X61618Y-20950D01*
X61804Y-20835D01*
X61863Y-20818D01*
X61918Y-20848D01*
X62081Y-20848D01*
X62137Y-20818D01*
X62196Y-20835D01*
X62382Y-20950D01*
X62510Y-21127D01*
X62560Y-21340D01*
X62560Y-21450D01*
X62500Y-21450D01*
X62500Y-21550D01*
X62560Y-21550D01*
X62560Y-21660D01*
X62510Y-21873D01*
X62382Y-22050D01*
X62196Y-22165D01*
X62137Y-22182D01*
X62081Y-22152D01*
X61918Y-22152D01*
X61863Y-22182D01*
X61804Y-22165D01*
X61618Y-22050D01*
X61500Y-21886D01*
X61382Y-22050D01*
X61196Y-22165D01*
X61137Y-22182D01*
X61081Y-22152D01*
X60918Y-22152D01*
X60863Y-22182D01*
X60804Y-22165D01*
X60618Y-22050D01*
X60499Y-21886D01*
X60382Y-22050D01*
X60196Y-22165D01*
X60137Y-22182D01*
X60081Y-22152D01*
X59918Y-22152D01*
X59863Y-22182D01*
X59804Y-22165D01*
X59618Y-22050D01*
X59500Y-21886D01*
X59382Y-22050D01*
X59196Y-22165D01*
X59137Y-22182D01*
X59081Y-22152D01*
X58918Y-22152D01*
X58863Y-22182D01*
X58804Y-22165D01*
X58618Y-22050D01*
X58490Y-21873D01*
X58475Y-21811D01*
X58424Y-21936D01*
X58283Y-22076D01*
X58099Y-22152D01*
X57900Y-22152D01*
X57716Y-22076D01*
X57576Y-21935D01*
X57500Y-21751D01*
X57500Y-21752D01*
X57424Y-21936D01*
X57283Y-22076D01*
X57099Y-22152D01*
X56900Y-22152D01*
X56716Y-22076D01*
X56576Y-21935D01*
X56524Y-21810D01*
X56510Y-21873D01*
X56382Y-22050D01*
X56196Y-22165D01*
X56137Y-22182D01*
X56081Y-22152D01*
X55918Y-22152D01*
X55863Y-22182D01*
X55804Y-22165D01*
X55618Y-22050D01*
X55500Y-21886D01*
X55382Y-22050D01*
X55196Y-22165D01*
X55137Y-22182D01*
X55081Y-22152D01*
X54918Y-22152D01*
X54863Y-22182D01*
X54804Y-22165D01*
X54618Y-22050D01*
X54490Y-21873D01*
X54475Y-21811D01*
X54424Y-21936D01*
X54283Y-22076D01*
X54099Y-22152D01*
X53900Y-22152D01*
X53716Y-22076D01*
X53576Y-21935D01*
X53500Y-21751D01*
X53500Y-21752D01*
X53424Y-21936D01*
X53283Y-22076D01*
X53099Y-22152D01*
X52900Y-22152D01*
X52716Y-22076D01*
X52576Y-21935D01*
X52500Y-21751D01*
X52500Y-21752D01*
X52424Y-21936D01*
X52283Y-22076D01*
X52099Y-22152D01*
X51900Y-22152D01*
X51716Y-22076D01*
X51576Y-21935D01*
X51500Y-21751D01*
X51500Y-21752D01*
X51424Y-21936D01*
X51283Y-22076D01*
X51099Y-22152D01*
X50900Y-22152D01*
X50716Y-22076D01*
X50576Y-21935D01*
X50500Y-21751D01*
X50500Y-21752D01*
X50424Y-21936D01*
X50283Y-22076D01*
X50099Y-22152D01*
X49900Y-22152D01*
X49716Y-22076D01*
X49576Y-21935D01*
X49500Y-21751D01*
X49500Y-21752D01*
X49424Y-21936D01*
X49283Y-22076D01*
X49099Y-22152D01*
X48900Y-22152D01*
X48716Y-22076D01*
X48576Y-21935D01*
X48500Y-21751D01*
X48500Y-21752D01*
X48424Y-21936D01*
X48283Y-22076D01*
X48099Y-22152D01*
X47900Y-22152D01*
X47716Y-22076D01*
X47576Y-21935D01*
X47500Y-21751D01*
X47500Y-21752D01*
X47424Y-21936D01*
X47283Y-22076D01*
X47099Y-22152D01*
X46900Y-22152D01*
X46716Y-22076D01*
X46576Y-21935D01*
X46500Y-21751D01*
X46500Y-21752D01*
X46424Y-21936D01*
X46283Y-22076D01*
X46099Y-22152D01*
X45900Y-22152D01*
X45716Y-22076D01*
X45576Y-21935D01*
X45500Y-21751D01*
X45500Y-21752D01*
X45424Y-21936D01*
X45283Y-22076D01*
X45099Y-22152D01*
X44900Y-22152D01*
X44716Y-22076D01*
X44576Y-21935D01*
X44500Y-21751D01*
X44500Y-21752D01*
X44424Y-21936D01*
X44283Y-22076D01*
X44099Y-22152D01*
X43900Y-22152D01*
X43716Y-22076D01*
X43576Y-21935D01*
X43500Y-21751D01*
X43500Y-21752D01*
X43424Y-21936D01*
X43283Y-22076D01*
X43099Y-22152D01*
X42900Y-22152D01*
X42716Y-22076D01*
X42576Y-21935D01*
X42525Y-21811D01*
X42525Y-24886D01*
X43219Y-25581D01*
X43220Y-25581D01*
X43402Y-25506D01*
X43599Y-25506D01*
X43780Y-25581D01*
X43919Y-25720D01*
X43994Y-25902D01*
X43994Y-26099D01*
X43919Y-26280D01*
X43780Y-26419D01*
X43598Y-26494D01*
X43401Y-26494D01*
X43401Y-26872D01*
X43423Y-26882D01*
X43479Y-26938D01*
X43509Y-27011D01*
X43509Y-27226D01*
X43576Y-27064D01*
X43717Y-26924D01*
X43901Y-26848D01*
X44100Y-26848D01*
X44284Y-26924D01*
X44424Y-27065D01*
X44475Y-27189D01*
X44490Y-27127D01*
X44618Y-26950D01*
X44804Y-26835D01*
X44863Y-26818D01*
X44918Y-26848D01*
X45081Y-26848D01*
X45137Y-26818D01*
X45196Y-26835D01*
X45382Y-26950D01*
X45510Y-27127D01*
X45524Y-27188D01*
X45576Y-27064D01*
X45717Y-26924D01*
X45901Y-26848D01*
X46100Y-26848D01*
X46284Y-26924D01*
X46424Y-27065D01*
X46500Y-27249D01*
X46500Y-27248D01*
X46576Y-27064D01*
X46717Y-26924D01*
X46901Y-26848D01*
X47100Y-26848D01*
X47284Y-26924D01*
X47424Y-27065D01*
X47475Y-27189D01*
X47490Y-27127D01*
X47618Y-26950D01*
X47804Y-26835D01*
X47863Y-26818D01*
X47918Y-26848D01*
X48081Y-26848D01*
X48137Y-26818D01*
X48196Y-26835D01*
X48382Y-26950D01*
X48401Y-26976D01*
X48401Y-24494D01*
X48220Y-24419D01*
X48081Y-24280D01*
X48078Y-24275D01*
X44500Y-24275D01*
X44395Y-24254D01*
X44364Y-24233D01*
X44305Y-24194D01*
X43853Y-23741D01*
X43848Y-23744D01*
X43651Y-23744D01*
X43470Y-23669D01*
X43331Y-23530D01*
X43256Y-23348D01*
X43256Y-23151D01*
X43331Y-22970D01*
X43470Y-22831D01*
X43652Y-22756D01*
X43849Y-22756D01*
X44030Y-22831D01*
X44169Y-22970D01*
X44244Y-23152D01*
X44244Y-23349D01*
X44242Y-23353D01*
X44613Y-23725D01*
X48078Y-23725D01*
X48081Y-23720D01*
X48220Y-23581D01*
X48402Y-23506D01*
X48599Y-23506D01*
X48780Y-23581D01*
X48901Y-23702D01*
X48901Y-23494D01*
X48720Y-23419D01*
X48581Y-23280D01*
X48578Y-23275D01*
X46921Y-23275D01*
X46919Y-23280D01*
X46780Y-23419D01*
X46598Y-23494D01*
X46401Y-23494D01*
X46220Y-23419D01*
X46081Y-23280D01*
X46006Y-23098D01*
X46006Y-22901D01*
X46081Y-22720D01*
X46220Y-22581D01*
X46402Y-22506D01*
X46599Y-22506D01*
X46780Y-22581D01*
X46919Y-22720D01*
X46921Y-22725D01*
X48578Y-22725D01*
X48581Y-22720D01*
X48720Y-22581D01*
X48902Y-22506D01*
X49099Y-22506D01*
X49280Y-22581D01*
X49419Y-22720D01*
X49494Y-22902D01*
X49494Y-23099D01*
X49419Y-23280D01*
X49280Y-23419D01*
X49098Y-23494D01*
X48901Y-23494D01*
X48901Y-23702D01*
X48919Y-23720D01*
X48994Y-23902D01*
X48994Y-24099D01*
X48919Y-24280D01*
X48780Y-24419D01*
X48598Y-24494D01*
X48401Y-24494D01*
X48401Y-26976D01*
X48500Y-27113D01*
X48618Y-26950D01*
X48804Y-26835D01*
X48863Y-26818D01*
X48918Y-26848D01*
X49081Y-26848D01*
X49137Y-26818D01*
X49196Y-26835D01*
X49382Y-26950D01*
X49500Y-27113D01*
X49618Y-26950D01*
X49804Y-26835D01*
X49863Y-26818D01*
X49918Y-26848D01*
X50081Y-26848D01*
X50137Y-26818D01*
X50196Y-26835D01*
X50382Y-26950D01*
X50500Y-27113D01*
X50618Y-26950D01*
X50804Y-26835D01*
X50863Y-26818D01*
X50918Y-26848D01*
X51081Y-26848D01*
X51137Y-26818D01*
X51196Y-26835D01*
X51382Y-26950D01*
X51499Y-27113D01*
X51618Y-26950D01*
X51804Y-26835D01*
X51863Y-26818D01*
X51918Y-26848D01*
X52081Y-26848D01*
X52137Y-26818D01*
X52196Y-26835D01*
X52382Y-26950D01*
X52500Y-27113D01*
X52618Y-26950D01*
X52804Y-26835D01*
X52863Y-26818D01*
X52918Y-26848D01*
X53081Y-26848D01*
X53137Y-26818D01*
X53196Y-26835D01*
X53382Y-26950D01*
X53500Y-27113D01*
X53618Y-26950D01*
X53804Y-26835D01*
X53863Y-26818D01*
X53918Y-26848D01*
X54081Y-26848D01*
X54137Y-26818D01*
X54196Y-26835D01*
X54382Y-26950D01*
X54500Y-27113D01*
X54618Y-26950D01*
X54804Y-26835D01*
X54863Y-26818D01*
X54918Y-26848D01*
X55081Y-26848D01*
X55137Y-26818D01*
X55196Y-26835D01*
X55382Y-26950D01*
X55500Y-27113D01*
X55618Y-26950D01*
X55804Y-26835D01*
X55863Y-26818D01*
X55918Y-26848D01*
X56081Y-26848D01*
X56137Y-26818D01*
X56196Y-26835D01*
X56382Y-26950D01*
X56500Y-27113D01*
X56618Y-26950D01*
X56804Y-26835D01*
X56863Y-26818D01*
X56918Y-26848D01*
X57081Y-26848D01*
X57137Y-26818D01*
X57196Y-26835D01*
X57382Y-26950D01*
X57500Y-27113D01*
X57618Y-26950D01*
X57804Y-26835D01*
X57863Y-26818D01*
X57918Y-26848D01*
X58081Y-26848D01*
X58137Y-26818D01*
X58196Y-26835D01*
X58382Y-26950D01*
X58500Y-27113D01*
X58618Y-26950D01*
X58804Y-26835D01*
X58863Y-26818D01*
X58918Y-26848D01*
X59081Y-26848D01*
X59137Y-26818D01*
X59196Y-26835D01*
X59382Y-26950D01*
X59500Y-27113D01*
X59618Y-26950D01*
X59804Y-26835D01*
X59863Y-26818D01*
X59918Y-26848D01*
X60081Y-26848D01*
X60137Y-26818D01*
X60196Y-26835D01*
X60382Y-26950D01*
X60499Y-27113D01*
X60618Y-26950D01*
X60804Y-26835D01*
X60863Y-26818D01*
X60918Y-26848D01*
X61081Y-26848D01*
X61137Y-26818D01*
X61196Y-26835D01*
X61382Y-26950D01*
X61500Y-27113D01*
X61618Y-26950D01*
X61804Y-26835D01*
X61863Y-26818D01*
X61918Y-26848D01*
X62081Y-26848D01*
X62137Y-26818D01*
X62196Y-26835D01*
X62382Y-26950D01*
X62510Y-27127D01*
X62560Y-27340D01*
X62560Y-27450D01*
X62500Y-27450D01*
X62500Y-27550D01*
X62560Y-27550D01*
X62560Y-27660D01*
X62510Y-27873D01*
X62382Y-28050D01*
X62196Y-28165D01*
X62137Y-28182D01*
X62137Y-28775D01*
X63025Y-28775D01*
G54D10*
G36*
X47500Y-21249D02*
X47500Y-21248D01*
X47576Y-21064D01*
X47717Y-20924D01*
X47724Y-20920D01*
X47720Y-20919D01*
X47581Y-20780D01*
X47506Y-20598D01*
X47506Y-20401D01*
X47581Y-20220D01*
X47720Y-20081D01*
X47895Y-20008D01*
X47733Y-19952D01*
X47716Y-19887D01*
X47611Y-19782D01*
X47548Y-19767D01*
X47492Y-19630D01*
X47481Y-19426D01*
X47548Y-19233D01*
X47612Y-19216D01*
X47717Y-19111D01*
X47733Y-19048D01*
X47870Y-18992D01*
X48074Y-18981D01*
X48267Y-19048D01*
X48283Y-19112D01*
X48388Y-19217D01*
X48452Y-19233D01*
X48475Y-19289D01*
X48475Y-18595D01*
X48402Y-18769D01*
X48269Y-18903D01*
X48094Y-18975D01*
X47905Y-18975D01*
X47731Y-18902D01*
X47597Y-18769D01*
X47525Y-18594D01*
X47525Y-18494D01*
X47475Y-18494D01*
X47475Y-18595D01*
X47402Y-18769D01*
X47269Y-18903D01*
X47094Y-18975D01*
X46905Y-18975D01*
X46731Y-18902D01*
X46597Y-18769D01*
X46525Y-18594D01*
X46525Y-18405D01*
X46579Y-18275D01*
X46421Y-18275D01*
X46475Y-18406D01*
X46475Y-18595D01*
X46402Y-18769D01*
X46269Y-18903D01*
X46094Y-18975D01*
X45905Y-18975D01*
X45731Y-18902D01*
X45597Y-18769D01*
X45525Y-18594D01*
X45525Y-18405D01*
X45579Y-18275D01*
X45421Y-18275D01*
X45475Y-18406D01*
X45475Y-18595D01*
X45402Y-18769D01*
X45269Y-18903D01*
X45094Y-18975D01*
X44905Y-18975D01*
X44731Y-18902D01*
X44597Y-18769D01*
X44525Y-18594D01*
X44525Y-18405D01*
X44579Y-18275D01*
X44474Y-18275D01*
X44474Y-18815D01*
X44443Y-18888D01*
X44387Y-18944D01*
X44314Y-18974D01*
X43685Y-18974D01*
X43612Y-18943D01*
X43556Y-18887D01*
X43526Y-18814D01*
X43526Y-18362D01*
X43275Y-18613D01*
X43275Y-19750D01*
X43254Y-19855D01*
X43233Y-19884D01*
X43194Y-19945D01*
X42525Y-20613D01*
X42525Y-21187D01*
X42576Y-21064D01*
X42717Y-20924D01*
X42901Y-20848D01*
X43100Y-20848D01*
X43284Y-20924D01*
X43424Y-21065D01*
X43500Y-21249D01*
X43500Y-21248D01*
X43576Y-21064D01*
X43685Y-20955D01*
X43685Y-19974D01*
X43612Y-19943D01*
X43556Y-19887D01*
X43526Y-19814D01*
X43526Y-19185D01*
X43557Y-19112D01*
X43613Y-19056D01*
X43686Y-19026D01*
X44315Y-19026D01*
X44388Y-19057D01*
X44444Y-19113D01*
X44474Y-19186D01*
X44474Y-19815D01*
X44443Y-19888D01*
X44387Y-19944D01*
X44314Y-19974D01*
X43685Y-19974D01*
X43685Y-20955D01*
X43717Y-20924D01*
X43901Y-20848D01*
X44100Y-20848D01*
X44284Y-20924D01*
X44424Y-21065D01*
X44500Y-21249D01*
X44500Y-21248D01*
X44576Y-21064D01*
X44717Y-20924D01*
X44901Y-20848D01*
X44905Y-20848D01*
X44905Y-19975D01*
X44731Y-19902D01*
X44597Y-19769D01*
X44525Y-19594D01*
X44525Y-19405D01*
X44598Y-19231D01*
X44731Y-19097D01*
X44906Y-19025D01*
X45095Y-19025D01*
X45269Y-19098D01*
X45403Y-19231D01*
X45475Y-19406D01*
X45475Y-19595D01*
X45402Y-19769D01*
X45269Y-19903D01*
X45094Y-19975D01*
X44905Y-19975D01*
X44905Y-20848D01*
X45100Y-20848D01*
X45284Y-20924D01*
X45424Y-21065D01*
X45500Y-21249D01*
X45500Y-21248D01*
X45576Y-21064D01*
X45717Y-20924D01*
X45901Y-20848D01*
X45905Y-20848D01*
X45905Y-19975D01*
X45731Y-19902D01*
X45597Y-19769D01*
X45525Y-19594D01*
X45525Y-19405D01*
X45598Y-19231D01*
X45731Y-19097D01*
X45906Y-19025D01*
X46095Y-19025D01*
X46269Y-19098D01*
X46403Y-19231D01*
X46475Y-19406D01*
X46475Y-19595D01*
X46402Y-19769D01*
X46269Y-19903D01*
X46094Y-19975D01*
X45905Y-19975D01*
X45905Y-20848D01*
X46100Y-20848D01*
X46284Y-20924D01*
X46424Y-21065D01*
X46500Y-21249D01*
X46500Y-21248D01*
X46576Y-21064D01*
X46717Y-20924D01*
X46901Y-20848D01*
X46905Y-20848D01*
X46905Y-19975D01*
X46731Y-19902D01*
X46597Y-19769D01*
X46525Y-19594D01*
X46525Y-19405D01*
X46598Y-19231D01*
X46731Y-19097D01*
X46906Y-19025D01*
X47095Y-19025D01*
X47269Y-19098D01*
X47403Y-19231D01*
X47475Y-19406D01*
X47475Y-19595D01*
X47402Y-19769D01*
X47269Y-19903D01*
X47094Y-19975D01*
X46905Y-19975D01*
X46905Y-20848D01*
X47100Y-20848D01*
X47284Y-20924D01*
X47424Y-21065D01*
X47500Y-21249D01*
X47500Y-21249D01*
G37*
G54D18*
X47500Y-21249D02*
X47500Y-21248D01*
X47576Y-21064D01*
X47717Y-20924D01*
X47724Y-20920D01*
X47720Y-20919D01*
X47581Y-20780D01*
X47506Y-20598D01*
X47506Y-20401D01*
X47581Y-20220D01*
X47720Y-20081D01*
X47895Y-20008D01*
X47733Y-19952D01*
X47716Y-19887D01*
X47611Y-19782D01*
X47548Y-19767D01*
X47492Y-19630D01*
X47481Y-19426D01*
X47548Y-19233D01*
X47612Y-19216D01*
X47717Y-19111D01*
X47733Y-19048D01*
X47870Y-18992D01*
X48074Y-18981D01*
X48267Y-19048D01*
X48283Y-19112D01*
X48388Y-19217D01*
X48452Y-19233D01*
X48475Y-19289D01*
X48475Y-18595D01*
X48402Y-18769D01*
X48269Y-18903D01*
X48094Y-18975D01*
X47905Y-18975D01*
X47731Y-18902D01*
X47597Y-18769D01*
X47525Y-18594D01*
X47525Y-18494D01*
X47475Y-18494D01*
X47475Y-18595D01*
X47402Y-18769D01*
X47269Y-18903D01*
X47094Y-18975D01*
X46905Y-18975D01*
X46731Y-18902D01*
X46597Y-18769D01*
X46525Y-18594D01*
X46525Y-18405D01*
X46579Y-18275D01*
X46421Y-18275D01*
X46475Y-18406D01*
X46475Y-18595D01*
X46402Y-18769D01*
X46269Y-18903D01*
X46094Y-18975D01*
X45905Y-18975D01*
X45731Y-18902D01*
X45597Y-18769D01*
X45525Y-18594D01*
X45525Y-18405D01*
X45579Y-18275D01*
X45421Y-18275D01*
X45475Y-18406D01*
X45475Y-18595D01*
X45402Y-18769D01*
X45269Y-18903D01*
X45094Y-18975D01*
X44905Y-18975D01*
X44731Y-18902D01*
X44597Y-18769D01*
X44525Y-18594D01*
X44525Y-18405D01*
X44579Y-18275D01*
X44474Y-18275D01*
X44474Y-18815D01*
X44443Y-18888D01*
X44387Y-18944D01*
X44314Y-18974D01*
X43685Y-18974D01*
X43612Y-18943D01*
X43556Y-18887D01*
X43526Y-18814D01*
X43526Y-18362D01*
X43275Y-18613D01*
X43275Y-19750D01*
X43254Y-19855D01*
X43233Y-19884D01*
X43194Y-19945D01*
X42525Y-20613D01*
X42525Y-21187D01*
X42576Y-21064D01*
X42717Y-20924D01*
X42901Y-20848D01*
X43100Y-20848D01*
X43284Y-20924D01*
X43424Y-21065D01*
X43500Y-21249D01*
X43500Y-21248D01*
X43576Y-21064D01*
X43685Y-20955D01*
X43685Y-19974D01*
X43612Y-19943D01*
X43556Y-19887D01*
X43526Y-19814D01*
X43526Y-19185D01*
X43557Y-19112D01*
X43613Y-19056D01*
X43686Y-19026D01*
X44315Y-19026D01*
X44388Y-19057D01*
X44444Y-19113D01*
X44474Y-19186D01*
X44474Y-19815D01*
X44443Y-19888D01*
X44387Y-19944D01*
X44314Y-19974D01*
X43685Y-19974D01*
X43685Y-20955D01*
X43717Y-20924D01*
X43901Y-20848D01*
X44100Y-20848D01*
X44284Y-20924D01*
X44424Y-21065D01*
X44500Y-21249D01*
X44500Y-21248D01*
X44576Y-21064D01*
X44717Y-20924D01*
X44901Y-20848D01*
X44905Y-20848D01*
X44905Y-19975D01*
X44731Y-19902D01*
X44597Y-19769D01*
X44525Y-19594D01*
X44525Y-19405D01*
X44598Y-19231D01*
X44731Y-19097D01*
X44906Y-19025D01*
X45095Y-19025D01*
X45269Y-19098D01*
X45403Y-19231D01*
X45475Y-19406D01*
X45475Y-19595D01*
X45402Y-19769D01*
X45269Y-19903D01*
X45094Y-19975D01*
X44905Y-19975D01*
X44905Y-20848D01*
X45100Y-20848D01*
X45284Y-20924D01*
X45424Y-21065D01*
X45500Y-21249D01*
X45500Y-21248D01*
X45576Y-21064D01*
X45717Y-20924D01*
X45901Y-20848D01*
X45905Y-20848D01*
X45905Y-19975D01*
X45731Y-19902D01*
X45597Y-19769D01*
X45525Y-19594D01*
X45525Y-19405D01*
X45598Y-19231D01*
X45731Y-19097D01*
X45906Y-19025D01*
X46095Y-19025D01*
X46269Y-19098D01*
X46403Y-19231D01*
X46475Y-19406D01*
X46475Y-19595D01*
X46402Y-19769D01*
X46269Y-19903D01*
X46094Y-19975D01*
X45905Y-19975D01*
X45905Y-20848D01*
X46100Y-20848D01*
X46284Y-20924D01*
X46424Y-21065D01*
X46500Y-21249D01*
X46500Y-21248D01*
X46576Y-21064D01*
X46717Y-20924D01*
X46901Y-20848D01*
X46905Y-20848D01*
X46905Y-19975D01*
X46731Y-19902D01*
X46597Y-19769D01*
X46525Y-19594D01*
X46525Y-19405D01*
X46598Y-19231D01*
X46731Y-19097D01*
X46906Y-19025D01*
X47095Y-19025D01*
X47269Y-19098D01*
X47403Y-19231D01*
X47475Y-19406D01*
X47475Y-19595D01*
X47402Y-19769D01*
X47269Y-19903D01*
X47094Y-19975D01*
X46905Y-19975D01*
X46905Y-20848D01*
X47100Y-20848D01*
X47284Y-20924D01*
X47424Y-21065D01*
X47500Y-21249D01*
G54D10*
G36*
X48475Y-18406D02*
X48475Y-17613D01*
X48469Y-17608D01*
X48402Y-17769D01*
X48269Y-17903D01*
X48094Y-17975D01*
X47994Y-17975D01*
X47994Y-18025D01*
X48095Y-18025D01*
X48269Y-18098D01*
X48403Y-18231D01*
X48475Y-18406D01*
X48475Y-18406D01*
G37*
G54D18*
X48475Y-18406D02*
X48475Y-17613D01*
X48469Y-17608D01*
X48402Y-17769D01*
X48269Y-17903D01*
X48094Y-17975D01*
X47994Y-17975D01*
X47994Y-18025D01*
X48095Y-18025D01*
X48269Y-18098D01*
X48403Y-18231D01*
X48475Y-18406D01*
G54D10*
G36*
X46578Y-17725D02*
X46525Y-17594D01*
X46525Y-17405D01*
X46579Y-17275D01*
X46500Y-17275D01*
X46414Y-17257D01*
X46475Y-17406D01*
X46475Y-17595D01*
X46420Y-17725D01*
X46578Y-17725D01*
X46578Y-17725D01*
G37*
G54D18*
X46578Y-17725D02*
X46525Y-17594D01*
X46525Y-17405D01*
X46579Y-17275D01*
X46500Y-17275D01*
X46414Y-17257D01*
X46475Y-17406D01*
X46475Y-17595D01*
X46420Y-17725D01*
X46578Y-17725D01*
G54D10*
G36*
X47525Y-17506D02*
X47525Y-17405D01*
X47579Y-17275D01*
X47421Y-17275D01*
X47475Y-17406D01*
X47475Y-17506D01*
X47525Y-17506D01*
X47525Y-17506D01*
G37*
G54D18*
X47525Y-17506D02*
X47525Y-17405D01*
X47579Y-17275D01*
X47421Y-17275D01*
X47475Y-17406D01*
X47475Y-17506D01*
X47525Y-17506D01*
G54D10*
G36*
X48634Y-16995D02*
X48634Y-16750D01*
X48663Y-16750D01*
X48663Y-16494D01*
X48651Y-16494D01*
X48475Y-16421D01*
X48475Y-16595D01*
X48402Y-16769D01*
X48396Y-16774D01*
X48444Y-16806D01*
X48634Y-16995D01*
X48634Y-16995D01*
G37*
G54D18*
X48634Y-16995D02*
X48634Y-16750D01*
X48663Y-16750D01*
X48663Y-16494D01*
X48651Y-16494D01*
X48475Y-16421D01*
X48475Y-16595D01*
X48402Y-16769D01*
X48396Y-16774D01*
X48444Y-16806D01*
X48634Y-16995D01*
G54D10*
G36*
X46166Y-15055D02*
X46136Y-15025D01*
X46095Y-15025D01*
X46166Y-15055D01*
X46166Y-15055D01*
G37*
G54D18*
X46166Y-15055D02*
X46136Y-15025D01*
X46095Y-15025D01*
X46166Y-15055D01*
M02*
