G04 (created by PCBNEW-RS274X (20100217 SVN-R2358)-RC3a) date Sun 21 Feb 2010 06:13:46 PM CET*
G01*
G70*
G90*
%MOIN*%
G04 Gerber Fmt 3.4, Leading zero omitted, Abs format*
%FSLAX34Y34*%
G04 APERTURE LIST*
%ADD10C,0.001000*%
%ADD11C,0.005000*%
%ADD12R,0.055000X0.055000*%
%ADD13C,0.055000*%
%ADD14R,0.062000X0.090000*%
%ADD15O,0.062000X0.090000*%
%ADD16C,0.059100*%
%ADD17C,0.015000*%
G04 APERTURE END LIST*
G54D10*
G54D11*
X59486Y-18743D02*
X59486Y-18143D01*
X59486Y-18714D02*
X59457Y-18743D01*
X59400Y-18743D01*
X59372Y-18714D01*
X59357Y-18686D01*
X59343Y-18629D01*
X59343Y-18457D01*
X59357Y-18400D01*
X59372Y-18371D01*
X59400Y-18343D01*
X59457Y-18343D01*
X59486Y-18371D01*
X59614Y-18714D02*
X59643Y-18743D01*
X59700Y-18743D01*
X59728Y-18714D01*
X59743Y-18657D01*
X59743Y-18629D01*
X59728Y-18571D01*
X59700Y-18543D01*
X59657Y-18543D01*
X59628Y-18514D01*
X59614Y-18457D01*
X59614Y-18429D01*
X59628Y-18371D01*
X59657Y-18343D01*
X59700Y-18343D01*
X59728Y-18371D01*
X59871Y-18743D02*
X59871Y-18143D01*
X59986Y-18143D01*
X60014Y-18171D01*
X60029Y-18200D01*
X60043Y-18257D01*
X60043Y-18343D01*
X60029Y-18400D01*
X60014Y-18429D01*
X59986Y-18457D01*
X59871Y-18457D01*
X60171Y-18743D02*
X60171Y-18143D01*
X60486Y-18686D02*
X60472Y-18714D01*
X60429Y-18743D01*
X60400Y-18743D01*
X60357Y-18714D01*
X60329Y-18657D01*
X60314Y-18600D01*
X60300Y-18486D01*
X60300Y-18400D01*
X60314Y-18286D01*
X60329Y-18229D01*
X60357Y-18171D01*
X60400Y-18143D01*
X60429Y-18143D01*
X60472Y-18171D01*
X60486Y-18200D01*
X60600Y-18200D02*
X60614Y-18171D01*
X60643Y-18143D01*
X60714Y-18143D01*
X60743Y-18171D01*
X60757Y-18200D01*
X60772Y-18257D01*
X60772Y-18314D01*
X60757Y-18400D01*
X60586Y-18743D01*
X60772Y-18743D01*
X60943Y-18400D02*
X60915Y-18371D01*
X60900Y-18343D01*
X60886Y-18286D01*
X60886Y-18257D01*
X60900Y-18200D01*
X60915Y-18171D01*
X60943Y-18143D01*
X61000Y-18143D01*
X61029Y-18171D01*
X61043Y-18200D01*
X61058Y-18257D01*
X61058Y-18286D01*
X61043Y-18343D01*
X61029Y-18371D01*
X61000Y-18400D01*
X60943Y-18400D01*
X60915Y-18429D01*
X60900Y-18457D01*
X60886Y-18514D01*
X60886Y-18629D01*
X60900Y-18686D01*
X60915Y-18714D01*
X60943Y-18743D01*
X61000Y-18743D01*
X61029Y-18714D01*
X61043Y-18686D01*
X61058Y-18629D01*
X61058Y-18514D01*
X61043Y-18457D01*
X61029Y-18429D01*
X61000Y-18400D01*
X61186Y-18743D02*
X61186Y-18143D01*
X61301Y-18143D01*
X61329Y-18171D01*
X61344Y-18200D01*
X61358Y-18257D01*
X61358Y-18343D01*
X61344Y-18400D01*
X61329Y-18429D01*
X61301Y-18457D01*
X61186Y-18457D01*
X59342Y-17743D02*
X59342Y-17143D01*
X59457Y-17143D01*
X59485Y-17171D01*
X59500Y-17200D01*
X59514Y-17257D01*
X59514Y-17343D01*
X59500Y-17400D01*
X59485Y-17429D01*
X59457Y-17457D01*
X59342Y-17457D01*
X59642Y-17743D02*
X59642Y-17143D01*
X59957Y-17686D02*
X59943Y-17714D01*
X59900Y-17743D01*
X59871Y-17743D01*
X59828Y-17714D01*
X59800Y-17657D01*
X59785Y-17600D01*
X59771Y-17486D01*
X59771Y-17400D01*
X59785Y-17286D01*
X59800Y-17229D01*
X59828Y-17171D01*
X59871Y-17143D01*
X59900Y-17143D01*
X59943Y-17171D01*
X59957Y-17200D01*
X60071Y-17200D02*
X60085Y-17171D01*
X60114Y-17143D01*
X60185Y-17143D01*
X60214Y-17171D01*
X60228Y-17200D01*
X60243Y-17257D01*
X60243Y-17314D01*
X60228Y-17400D01*
X60057Y-17743D01*
X60243Y-17743D01*
X60414Y-17400D02*
X60386Y-17371D01*
X60371Y-17343D01*
X60357Y-17286D01*
X60357Y-17257D01*
X60371Y-17200D01*
X60386Y-17171D01*
X60414Y-17143D01*
X60471Y-17143D01*
X60500Y-17171D01*
X60514Y-17200D01*
X60529Y-17257D01*
X60529Y-17286D01*
X60514Y-17343D01*
X60500Y-17371D01*
X60471Y-17400D01*
X60414Y-17400D01*
X60386Y-17429D01*
X60371Y-17457D01*
X60357Y-17514D01*
X60357Y-17629D01*
X60371Y-17686D01*
X60386Y-17714D01*
X60414Y-17743D01*
X60471Y-17743D01*
X60500Y-17714D01*
X60514Y-17686D01*
X60529Y-17629D01*
X60529Y-17514D01*
X60514Y-17457D01*
X60500Y-17429D01*
X60471Y-17400D01*
X60657Y-17514D02*
X60886Y-17514D01*
X61157Y-17343D02*
X61157Y-17743D01*
X61086Y-17114D02*
X61014Y-17543D01*
X61200Y-17543D01*
X61372Y-17143D02*
X61400Y-17143D01*
X61429Y-17171D01*
X61443Y-17200D01*
X61457Y-17257D01*
X61472Y-17371D01*
X61472Y-17514D01*
X61457Y-17629D01*
X61443Y-17686D01*
X61429Y-17714D01*
X61400Y-17743D01*
X61372Y-17743D01*
X61343Y-17714D01*
X61329Y-17686D01*
X61314Y-17629D01*
X61300Y-17514D01*
X61300Y-17371D01*
X61314Y-17257D01*
X61329Y-17200D01*
X61343Y-17171D01*
X61372Y-17143D01*
X61600Y-17743D02*
X61600Y-17143D01*
X61715Y-17143D01*
X61743Y-17171D01*
X61758Y-17200D01*
X61772Y-17257D01*
X61772Y-17343D01*
X61758Y-17400D01*
X61743Y-17429D01*
X61715Y-17457D01*
X61600Y-17457D01*
X59486Y-19993D02*
X59486Y-19393D01*
X59486Y-19964D02*
X59457Y-19993D01*
X59400Y-19993D01*
X59372Y-19964D01*
X59357Y-19936D01*
X59343Y-19879D01*
X59343Y-19707D01*
X59357Y-19650D01*
X59372Y-19621D01*
X59400Y-19593D01*
X59457Y-19593D01*
X59486Y-19621D01*
X59614Y-19964D02*
X59643Y-19993D01*
X59700Y-19993D01*
X59728Y-19964D01*
X59743Y-19907D01*
X59743Y-19879D01*
X59728Y-19821D01*
X59700Y-19793D01*
X59657Y-19793D01*
X59628Y-19764D01*
X59614Y-19707D01*
X59614Y-19679D01*
X59628Y-19621D01*
X59657Y-19593D01*
X59700Y-19593D01*
X59728Y-19621D01*
X59871Y-19993D02*
X59871Y-19393D01*
X59986Y-19393D01*
X60014Y-19421D01*
X60029Y-19450D01*
X60043Y-19507D01*
X60043Y-19593D01*
X60029Y-19650D01*
X60014Y-19679D01*
X59986Y-19707D01*
X59871Y-19707D01*
X60171Y-19993D02*
X60171Y-19393D01*
X60486Y-19936D02*
X60472Y-19964D01*
X60429Y-19993D01*
X60400Y-19993D01*
X60357Y-19964D01*
X60329Y-19907D01*
X60314Y-19850D01*
X60300Y-19736D01*
X60300Y-19650D01*
X60314Y-19536D01*
X60329Y-19479D01*
X60357Y-19421D01*
X60400Y-19393D01*
X60429Y-19393D01*
X60472Y-19421D01*
X60486Y-19450D01*
X60743Y-19593D02*
X60743Y-19993D01*
X60672Y-19364D02*
X60600Y-19793D01*
X60786Y-19793D01*
X60958Y-19393D02*
X60986Y-19393D01*
X61015Y-19421D01*
X61029Y-19450D01*
X61043Y-19507D01*
X61058Y-19621D01*
X61058Y-19764D01*
X61043Y-19879D01*
X61029Y-19936D01*
X61015Y-19964D01*
X60986Y-19993D01*
X60958Y-19993D01*
X60929Y-19964D01*
X60915Y-19936D01*
X60900Y-19879D01*
X60886Y-19764D01*
X60886Y-19621D01*
X60900Y-19507D01*
X60915Y-19450D01*
X60929Y-19421D01*
X60958Y-19393D01*
X61186Y-19993D02*
X61186Y-19393D01*
X61301Y-19393D01*
X61329Y-19421D01*
X61344Y-19450D01*
X61358Y-19507D01*
X61358Y-19593D01*
X61344Y-19650D01*
X61329Y-19679D01*
X61301Y-19707D01*
X61186Y-19707D01*
X48935Y-19743D02*
X48935Y-19143D01*
X49050Y-19143D01*
X49078Y-19171D01*
X49093Y-19200D01*
X49107Y-19257D01*
X49107Y-19343D01*
X49093Y-19400D01*
X49078Y-19429D01*
X49050Y-19457D01*
X48935Y-19457D01*
X49235Y-19743D02*
X49235Y-19143D01*
X49550Y-19686D02*
X49536Y-19714D01*
X49493Y-19743D01*
X49464Y-19743D01*
X49421Y-19714D01*
X49393Y-19657D01*
X49378Y-19600D01*
X49364Y-19486D01*
X49364Y-19400D01*
X49378Y-19286D01*
X49393Y-19229D01*
X49421Y-19171D01*
X49464Y-19143D01*
X49493Y-19143D01*
X49536Y-19171D01*
X49550Y-19200D01*
X49836Y-19743D02*
X49664Y-19743D01*
X49750Y-19743D02*
X49750Y-19143D01*
X49721Y-19229D01*
X49693Y-19286D01*
X49664Y-19314D01*
X50022Y-19143D02*
X50050Y-19143D01*
X50079Y-19171D01*
X50093Y-19200D01*
X50107Y-19257D01*
X50122Y-19371D01*
X50122Y-19514D01*
X50107Y-19629D01*
X50093Y-19686D01*
X50079Y-19714D01*
X50050Y-19743D01*
X50022Y-19743D01*
X49993Y-19714D01*
X49979Y-19686D01*
X49964Y-19629D01*
X49950Y-19514D01*
X49950Y-19371D01*
X49964Y-19257D01*
X49979Y-19200D01*
X49993Y-19171D01*
X50022Y-19143D01*
X50350Y-19429D02*
X50250Y-19429D01*
X50250Y-19743D02*
X50250Y-19143D01*
X50393Y-19143D01*
X49064Y-17743D02*
X49064Y-17143D01*
X49179Y-17143D01*
X49207Y-17171D01*
X49222Y-17200D01*
X49236Y-17257D01*
X49236Y-17343D01*
X49222Y-17400D01*
X49207Y-17429D01*
X49179Y-17457D01*
X49064Y-17457D01*
X49364Y-17743D02*
X49364Y-17143D01*
X49679Y-17686D02*
X49665Y-17714D01*
X49622Y-17743D01*
X49593Y-17743D01*
X49550Y-17714D01*
X49522Y-17657D01*
X49507Y-17600D01*
X49493Y-17486D01*
X49493Y-17400D01*
X49507Y-17286D01*
X49522Y-17229D01*
X49550Y-17171D01*
X49593Y-17143D01*
X49622Y-17143D01*
X49665Y-17171D01*
X49679Y-17200D01*
X49965Y-17743D02*
X49793Y-17743D01*
X49879Y-17743D02*
X49879Y-17143D01*
X49850Y-17229D01*
X49822Y-17286D01*
X49793Y-17314D01*
X50136Y-17400D02*
X50108Y-17371D01*
X50093Y-17343D01*
X50079Y-17286D01*
X50079Y-17257D01*
X50093Y-17200D01*
X50108Y-17171D01*
X50136Y-17143D01*
X50193Y-17143D01*
X50222Y-17171D01*
X50236Y-17200D01*
X50251Y-17257D01*
X50251Y-17286D01*
X50236Y-17343D01*
X50222Y-17371D01*
X50193Y-17400D01*
X50136Y-17400D01*
X50108Y-17429D01*
X50093Y-17457D01*
X50079Y-17514D01*
X50079Y-17629D01*
X50093Y-17686D01*
X50108Y-17714D01*
X50136Y-17743D01*
X50193Y-17743D01*
X50222Y-17714D01*
X50236Y-17686D01*
X50251Y-17629D01*
X50251Y-17514D01*
X50236Y-17457D01*
X50222Y-17429D01*
X50193Y-17400D01*
X50379Y-17743D02*
X50379Y-17143D01*
X50494Y-17143D01*
X50522Y-17171D01*
X50537Y-17200D01*
X50551Y-17257D01*
X50551Y-17343D01*
X50537Y-17400D01*
X50522Y-17429D01*
X50494Y-17457D01*
X50379Y-17457D01*
X49035Y-18743D02*
X49035Y-18143D01*
X49150Y-18143D01*
X49178Y-18171D01*
X49193Y-18200D01*
X49207Y-18257D01*
X49207Y-18343D01*
X49193Y-18400D01*
X49178Y-18429D01*
X49150Y-18457D01*
X49035Y-18457D01*
X49335Y-18743D02*
X49335Y-18143D01*
X49650Y-18686D02*
X49636Y-18714D01*
X49593Y-18743D01*
X49564Y-18743D01*
X49521Y-18714D01*
X49493Y-18657D01*
X49478Y-18600D01*
X49464Y-18486D01*
X49464Y-18400D01*
X49478Y-18286D01*
X49493Y-18229D01*
X49521Y-18171D01*
X49564Y-18143D01*
X49593Y-18143D01*
X49636Y-18171D01*
X49650Y-18200D01*
X49936Y-18743D02*
X49764Y-18743D01*
X49850Y-18743D02*
X49850Y-18143D01*
X49821Y-18229D01*
X49793Y-18286D01*
X49764Y-18314D01*
X50050Y-18200D02*
X50064Y-18171D01*
X50093Y-18143D01*
X50164Y-18143D01*
X50193Y-18171D01*
X50207Y-18200D01*
X50222Y-18257D01*
X50222Y-18314D01*
X50207Y-18400D01*
X50036Y-18743D01*
X50222Y-18743D01*
X50450Y-18429D02*
X50350Y-18429D01*
X50350Y-18743D02*
X50350Y-18143D01*
X50493Y-18143D01*
X49186Y-16743D02*
X49186Y-16143D01*
X49186Y-16714D02*
X49157Y-16743D01*
X49100Y-16743D01*
X49072Y-16714D01*
X49057Y-16686D01*
X49043Y-16629D01*
X49043Y-16457D01*
X49057Y-16400D01*
X49072Y-16371D01*
X49100Y-16343D01*
X49157Y-16343D01*
X49186Y-16371D01*
X49314Y-16714D02*
X49343Y-16743D01*
X49400Y-16743D01*
X49428Y-16714D01*
X49443Y-16657D01*
X49443Y-16629D01*
X49428Y-16571D01*
X49400Y-16543D01*
X49357Y-16543D01*
X49328Y-16514D01*
X49314Y-16457D01*
X49314Y-16429D01*
X49328Y-16371D01*
X49357Y-16343D01*
X49400Y-16343D01*
X49428Y-16371D01*
X49571Y-16743D02*
X49571Y-16143D01*
X49686Y-16143D01*
X49714Y-16171D01*
X49729Y-16200D01*
X49743Y-16257D01*
X49743Y-16343D01*
X49729Y-16400D01*
X49714Y-16429D01*
X49686Y-16457D01*
X49571Y-16457D01*
X49871Y-16743D02*
X49871Y-16143D01*
X50186Y-16686D02*
X50172Y-16714D01*
X50129Y-16743D01*
X50100Y-16743D01*
X50057Y-16714D01*
X50029Y-16657D01*
X50014Y-16600D01*
X50000Y-16486D01*
X50000Y-16400D01*
X50014Y-16286D01*
X50029Y-16229D01*
X50057Y-16171D01*
X50100Y-16143D01*
X50129Y-16143D01*
X50172Y-16171D01*
X50186Y-16200D01*
X50472Y-16743D02*
X50300Y-16743D01*
X50386Y-16743D02*
X50386Y-16143D01*
X50357Y-16229D01*
X50329Y-16286D01*
X50300Y-16314D01*
X50643Y-16400D02*
X50615Y-16371D01*
X50600Y-16343D01*
X50586Y-16286D01*
X50586Y-16257D01*
X50600Y-16200D01*
X50615Y-16171D01*
X50643Y-16143D01*
X50700Y-16143D01*
X50729Y-16171D01*
X50743Y-16200D01*
X50758Y-16257D01*
X50758Y-16286D01*
X50743Y-16343D01*
X50729Y-16371D01*
X50700Y-16400D01*
X50643Y-16400D01*
X50615Y-16429D01*
X50600Y-16457D01*
X50586Y-16514D01*
X50586Y-16629D01*
X50600Y-16686D01*
X50615Y-16714D01*
X50643Y-16743D01*
X50700Y-16743D01*
X50729Y-16714D01*
X50743Y-16686D01*
X50758Y-16629D01*
X50758Y-16514D01*
X50743Y-16457D01*
X50729Y-16429D01*
X50700Y-16400D01*
X50886Y-16743D02*
X50886Y-16143D01*
X51001Y-16143D01*
X51029Y-16171D01*
X51044Y-16200D01*
X51058Y-16257D01*
X51058Y-16343D01*
X51044Y-16400D01*
X51029Y-16429D01*
X51001Y-16457D01*
X50886Y-16457D01*
G54D12*
X44000Y-18500D03*
G54D13*
X45000Y-18500D03*
X46000Y-18500D03*
X47000Y-18500D03*
X48000Y-18500D03*
G54D12*
X44000Y-17500D03*
G54D13*
X45000Y-17500D03*
X46000Y-17500D03*
X47000Y-17500D03*
X48000Y-17500D03*
G54D12*
X54500Y-17500D03*
G54D13*
X55500Y-17500D03*
X56500Y-17500D03*
X57500Y-17500D03*
X58500Y-17500D03*
G54D12*
X44000Y-16500D03*
G54D13*
X45000Y-16500D03*
X46000Y-16500D03*
X47000Y-16500D03*
X48000Y-16500D03*
G54D12*
X54500Y-18500D03*
G54D13*
X55500Y-18500D03*
X56500Y-18500D03*
X57500Y-18500D03*
X58500Y-18500D03*
G54D12*
X54500Y-19500D03*
G54D13*
X55500Y-19500D03*
X56500Y-19500D03*
X57500Y-19500D03*
X58500Y-19500D03*
G54D12*
X44000Y-19500D03*
G54D13*
X45000Y-19500D03*
X46000Y-19500D03*
X47000Y-19500D03*
X48000Y-19500D03*
G54D14*
X43000Y-27500D03*
G54D15*
X44000Y-27500D03*
X45000Y-27500D03*
X46000Y-27500D03*
X47000Y-27500D03*
X48000Y-27500D03*
X49000Y-27500D03*
X50000Y-27500D03*
X51000Y-27500D03*
X52000Y-27500D03*
X53000Y-27500D03*
X54000Y-27500D03*
X55000Y-27500D03*
X56000Y-27500D03*
X57000Y-27500D03*
X58000Y-27500D03*
X59000Y-27500D03*
X60000Y-27500D03*
X61000Y-27500D03*
X62000Y-27500D03*
X62000Y-21500D03*
X61000Y-21500D03*
X60000Y-21500D03*
X59000Y-21500D03*
X58000Y-21500D03*
X57000Y-21500D03*
X56000Y-21500D03*
X55000Y-21500D03*
X54000Y-21500D03*
X53000Y-21500D03*
X52000Y-21500D03*
X51000Y-21500D03*
X50000Y-21500D03*
X49000Y-21500D03*
X48000Y-21500D03*
X47000Y-21500D03*
X46000Y-21500D03*
X45000Y-21500D03*
X44000Y-21500D03*
X43000Y-21500D03*
G54D16*
X45500Y-17000D03*
X48500Y-17000D03*
X42500Y-16000D03*
X42000Y-20500D03*
X48000Y-20500D03*
X41000Y-21250D03*
X47500Y-19000D03*
X48500Y-16000D03*
G54D17*
X48000Y-18500D02*
X48500Y-19000D01*
X45000Y-20000D02*
X45000Y-19500D01*
X48500Y-20000D02*
X45000Y-20000D01*
X48500Y-19000D02*
X48500Y-20000D01*
X45000Y-17500D02*
X45500Y-17000D01*
X45500Y-17000D02*
X48500Y-17000D01*
X43500Y-17000D02*
X43500Y-18000D01*
X42500Y-16000D02*
X43500Y-17000D01*
X46000Y-18500D02*
X45500Y-18000D01*
X43500Y-19500D02*
X44000Y-19500D01*
X43000Y-19000D02*
X43500Y-19500D01*
X43000Y-18500D02*
X43000Y-19000D01*
X43500Y-18000D02*
X43000Y-18500D01*
X45500Y-18000D02*
X43500Y-18000D01*
X42500Y-20500D02*
X42000Y-20500D01*
X48000Y-20500D02*
X42500Y-20500D01*
X43000Y-21500D02*
X41250Y-21500D01*
X41250Y-21500D02*
X41000Y-21250D01*
X44500Y-19000D02*
X44000Y-18500D01*
X47500Y-19000D02*
X44500Y-19000D01*
X46000Y-16500D02*
X46500Y-16000D01*
X46500Y-16000D02*
X48500Y-16000D01*
M02*
