M48
;DRILL file {PCBnew (20100217 SVN-R2358)-RC3a} date Sun 21 Feb 2010 06:14:02 PM CET
;FORMAT={-.-/ absolute / inch / decimal}
R,T
VER,1
FMAT,2
INCH,TZ
TCST,OFF
ICI,OFF
ATC,ON
T1C0.025
T2C0.032
%
M47
G05
M72
T1
X4.100Y2.125
X4.200Y2.050
X4.250Y1.600
X4.550Y1.700
X4.750Y1.900
X4.800Y2.050
X4.850Y1.600
X4.850Y1.700
T2
X4.300Y2.150
X4.300Y2.750
X4.400Y1.650
X4.400Y1.750
X4.400Y1.850
X4.400Y1.950
X4.400Y2.150
X4.400Y2.750
X4.500Y1.650
X4.500Y1.750
X4.500Y1.850
X4.500Y1.950
X4.500Y2.150
X4.500Y2.750
X4.600Y1.650
X4.600Y1.750
X4.600Y1.850
X4.600Y1.950
X4.600Y2.150
X4.600Y2.750
X4.700Y1.650
X4.700Y1.750
X4.700Y1.850
X4.700Y1.950
X4.700Y2.150
X4.700Y2.750
X4.800Y1.650
X4.800Y1.750
X4.800Y1.850
X4.800Y1.950
X4.800Y2.150
X4.800Y2.750
X4.900Y2.150
X4.900Y2.750
X5.000Y2.150
X5.000Y2.750
X5.100Y2.150
X5.100Y2.750
X5.200Y2.150
X5.200Y2.750
X5.300Y2.150
X5.300Y2.750
X5.400Y2.150
X5.400Y2.750
X5.450Y1.750
X5.450Y1.850
X5.450Y1.950
X5.500Y2.150
X5.500Y2.750
X5.550Y1.750
X5.550Y1.850
X5.550Y1.950
X5.600Y2.150
X5.600Y2.750
X5.650Y1.750
X5.650Y1.850
X5.650Y1.950
X5.700Y2.150
X5.700Y2.750
X5.750Y1.750
X5.750Y1.850
X5.750Y1.950
X5.800Y2.150
X5.800Y2.750
X5.850Y1.750
X5.850Y1.850
X5.850Y1.950
X5.900Y2.150
X5.900Y2.750
X6.000Y2.150
X6.000Y2.750
X6.100Y2.150
X6.100Y2.750
X6.200Y2.150
X6.200Y2.750
T0
M30
