G04 (created by PCBNEW-RS274X (20100217 SVN-R2358)-RC3a) date Sun 21 Feb 2010 06:13:46 PM CET*
G01*
G70*
G90*
%MOIN*%
G04 Gerber Fmt 3.4, Leading zero omitted, Abs format*
%FSLAX34Y34*%
G04 APERTURE LIST*
%ADD10C,0.001000*%
%ADD11C,0.012000*%
%ADD12C,0.015000*%
%ADD13C,0.007100*%
%ADD14C,0.007500*%
%ADD15C,0.011700*%
G04 APERTURE END LIST*
G54D10*
G54D11*
X43500Y-19000D02*
X43500Y-18000D01*
X43500Y-18000D02*
X48500Y-18000D01*
X48500Y-18000D02*
X48500Y-19000D01*
X48500Y-19000D02*
X43500Y-19000D01*
X44500Y-19000D02*
X44500Y-18000D01*
X43500Y-18000D02*
X43500Y-17000D01*
X43500Y-17000D02*
X48500Y-17000D01*
X48500Y-17000D02*
X48500Y-18000D01*
X48500Y-18000D02*
X43500Y-18000D01*
X44500Y-18000D02*
X44500Y-17000D01*
X54000Y-18000D02*
X54000Y-17000D01*
X54000Y-17000D02*
X59000Y-17000D01*
X59000Y-17000D02*
X59000Y-18000D01*
X59000Y-18000D02*
X54000Y-18000D01*
X55000Y-18000D02*
X55000Y-17000D01*
X43500Y-17000D02*
X43500Y-16000D01*
X43500Y-16000D02*
X48500Y-16000D01*
X48500Y-16000D02*
X48500Y-17000D01*
X48500Y-17000D02*
X43500Y-17000D01*
X44500Y-17000D02*
X44500Y-16000D01*
X54000Y-19000D02*
X54000Y-18000D01*
X54000Y-18000D02*
X59000Y-18000D01*
X59000Y-18000D02*
X59000Y-19000D01*
X59000Y-19000D02*
X54000Y-19000D01*
X55000Y-19000D02*
X55000Y-18000D01*
X54000Y-20000D02*
X54000Y-19000D01*
X54000Y-19000D02*
X59000Y-19000D01*
X59000Y-19000D02*
X59000Y-20000D01*
X59000Y-20000D02*
X54000Y-20000D01*
X55000Y-20000D02*
X55000Y-19000D01*
X43500Y-20000D02*
X43500Y-19000D01*
X43500Y-19000D02*
X48500Y-19000D01*
X48500Y-19000D02*
X48500Y-20000D01*
X48500Y-20000D02*
X43500Y-20000D01*
X44500Y-20000D02*
X44500Y-19000D01*
G54D12*
X42000Y-24000D02*
X42500Y-24000D01*
X42500Y-24000D02*
X42500Y-25000D01*
X42500Y-25000D02*
X42000Y-25000D01*
X42000Y-22000D02*
X63000Y-22000D01*
X63000Y-22000D02*
X63000Y-27000D01*
X63000Y-27000D02*
X42000Y-27000D01*
X42000Y-27000D02*
X42000Y-22000D01*
G54D10*
X43730Y-18230D02*
X43730Y-18770D01*
X44270Y-18770D01*
X44270Y-18230D01*
X43730Y-18230D01*
X45270Y-18500D02*
X45264Y-18552D01*
X45249Y-18602D01*
X45224Y-18649D01*
X45191Y-18690D01*
X45150Y-18723D01*
X45104Y-18748D01*
X45054Y-18764D01*
X45001Y-18769D01*
X44950Y-18765D01*
X44899Y-18750D01*
X44853Y-18725D01*
X44812Y-18692D01*
X44778Y-18652D01*
X44752Y-18606D01*
X44736Y-18556D01*
X44731Y-18503D01*
X44735Y-18452D01*
X44749Y-18401D01*
X44774Y-18354D01*
X44806Y-18313D01*
X44846Y-18279D01*
X44892Y-18253D01*
X44943Y-18237D01*
X44995Y-18231D01*
X45046Y-18235D01*
X45097Y-18249D01*
X45144Y-18273D01*
X45186Y-18305D01*
X45220Y-18345D01*
X45246Y-18391D01*
X45263Y-18441D01*
X45269Y-18493D01*
X45270Y-18500D01*
X46270Y-18500D02*
X46264Y-18552D01*
X46249Y-18602D01*
X46224Y-18649D01*
X46191Y-18690D01*
X46150Y-18723D01*
X46104Y-18748D01*
X46054Y-18764D01*
X46001Y-18769D01*
X45950Y-18765D01*
X45899Y-18750D01*
X45853Y-18725D01*
X45812Y-18692D01*
X45778Y-18652D01*
X45752Y-18606D01*
X45736Y-18556D01*
X45731Y-18503D01*
X45735Y-18452D01*
X45749Y-18401D01*
X45774Y-18354D01*
X45806Y-18313D01*
X45846Y-18279D01*
X45892Y-18253D01*
X45943Y-18237D01*
X45995Y-18231D01*
X46046Y-18235D01*
X46097Y-18249D01*
X46144Y-18273D01*
X46186Y-18305D01*
X46220Y-18345D01*
X46246Y-18391D01*
X46263Y-18441D01*
X46269Y-18493D01*
X46270Y-18500D01*
X47270Y-18500D02*
X47264Y-18552D01*
X47249Y-18602D01*
X47224Y-18649D01*
X47191Y-18690D01*
X47150Y-18723D01*
X47104Y-18748D01*
X47054Y-18764D01*
X47001Y-18769D01*
X46950Y-18765D01*
X46899Y-18750D01*
X46853Y-18725D01*
X46812Y-18692D01*
X46778Y-18652D01*
X46752Y-18606D01*
X46736Y-18556D01*
X46731Y-18503D01*
X46735Y-18452D01*
X46749Y-18401D01*
X46774Y-18354D01*
X46806Y-18313D01*
X46846Y-18279D01*
X46892Y-18253D01*
X46943Y-18237D01*
X46995Y-18231D01*
X47046Y-18235D01*
X47097Y-18249D01*
X47144Y-18273D01*
X47186Y-18305D01*
X47220Y-18345D01*
X47246Y-18391D01*
X47263Y-18441D01*
X47269Y-18493D01*
X47270Y-18500D01*
X48270Y-18500D02*
X48264Y-18552D01*
X48249Y-18602D01*
X48224Y-18649D01*
X48191Y-18690D01*
X48150Y-18723D01*
X48104Y-18748D01*
X48054Y-18764D01*
X48001Y-18769D01*
X47950Y-18765D01*
X47899Y-18750D01*
X47853Y-18725D01*
X47812Y-18692D01*
X47778Y-18652D01*
X47752Y-18606D01*
X47736Y-18556D01*
X47731Y-18503D01*
X47735Y-18452D01*
X47749Y-18401D01*
X47774Y-18354D01*
X47806Y-18313D01*
X47846Y-18279D01*
X47892Y-18253D01*
X47943Y-18237D01*
X47995Y-18231D01*
X48046Y-18235D01*
X48097Y-18249D01*
X48144Y-18273D01*
X48186Y-18305D01*
X48220Y-18345D01*
X48246Y-18391D01*
X48263Y-18441D01*
X48269Y-18493D01*
X48270Y-18500D01*
X43730Y-17230D02*
X43730Y-17770D01*
X44270Y-17770D01*
X44270Y-17230D01*
X43730Y-17230D01*
X45270Y-17500D02*
X45264Y-17552D01*
X45249Y-17602D01*
X45224Y-17649D01*
X45191Y-17690D01*
X45150Y-17723D01*
X45104Y-17748D01*
X45054Y-17764D01*
X45001Y-17769D01*
X44950Y-17765D01*
X44899Y-17750D01*
X44853Y-17725D01*
X44812Y-17692D01*
X44778Y-17652D01*
X44752Y-17606D01*
X44736Y-17556D01*
X44731Y-17503D01*
X44735Y-17452D01*
X44749Y-17401D01*
X44774Y-17354D01*
X44806Y-17313D01*
X44846Y-17279D01*
X44892Y-17253D01*
X44943Y-17237D01*
X44995Y-17231D01*
X45046Y-17235D01*
X45097Y-17249D01*
X45144Y-17273D01*
X45186Y-17305D01*
X45220Y-17345D01*
X45246Y-17391D01*
X45263Y-17441D01*
X45269Y-17493D01*
X45270Y-17500D01*
X46270Y-17500D02*
X46264Y-17552D01*
X46249Y-17602D01*
X46224Y-17649D01*
X46191Y-17690D01*
X46150Y-17723D01*
X46104Y-17748D01*
X46054Y-17764D01*
X46001Y-17769D01*
X45950Y-17765D01*
X45899Y-17750D01*
X45853Y-17725D01*
X45812Y-17692D01*
X45778Y-17652D01*
X45752Y-17606D01*
X45736Y-17556D01*
X45731Y-17503D01*
X45735Y-17452D01*
X45749Y-17401D01*
X45774Y-17354D01*
X45806Y-17313D01*
X45846Y-17279D01*
X45892Y-17253D01*
X45943Y-17237D01*
X45995Y-17231D01*
X46046Y-17235D01*
X46097Y-17249D01*
X46144Y-17273D01*
X46186Y-17305D01*
X46220Y-17345D01*
X46246Y-17391D01*
X46263Y-17441D01*
X46269Y-17493D01*
X46270Y-17500D01*
X47270Y-17500D02*
X47264Y-17552D01*
X47249Y-17602D01*
X47224Y-17649D01*
X47191Y-17690D01*
X47150Y-17723D01*
X47104Y-17748D01*
X47054Y-17764D01*
X47001Y-17769D01*
X46950Y-17765D01*
X46899Y-17750D01*
X46853Y-17725D01*
X46812Y-17692D01*
X46778Y-17652D01*
X46752Y-17606D01*
X46736Y-17556D01*
X46731Y-17503D01*
X46735Y-17452D01*
X46749Y-17401D01*
X46774Y-17354D01*
X46806Y-17313D01*
X46846Y-17279D01*
X46892Y-17253D01*
X46943Y-17237D01*
X46995Y-17231D01*
X47046Y-17235D01*
X47097Y-17249D01*
X47144Y-17273D01*
X47186Y-17305D01*
X47220Y-17345D01*
X47246Y-17391D01*
X47263Y-17441D01*
X47269Y-17493D01*
X47270Y-17500D01*
X48270Y-17500D02*
X48264Y-17552D01*
X48249Y-17602D01*
X48224Y-17649D01*
X48191Y-17690D01*
X48150Y-17723D01*
X48104Y-17748D01*
X48054Y-17764D01*
X48001Y-17769D01*
X47950Y-17765D01*
X47899Y-17750D01*
X47853Y-17725D01*
X47812Y-17692D01*
X47778Y-17652D01*
X47752Y-17606D01*
X47736Y-17556D01*
X47731Y-17503D01*
X47735Y-17452D01*
X47749Y-17401D01*
X47774Y-17354D01*
X47806Y-17313D01*
X47846Y-17279D01*
X47892Y-17253D01*
X47943Y-17237D01*
X47995Y-17231D01*
X48046Y-17235D01*
X48097Y-17249D01*
X48144Y-17273D01*
X48186Y-17305D01*
X48220Y-17345D01*
X48246Y-17391D01*
X48263Y-17441D01*
X48269Y-17493D01*
X48270Y-17500D01*
X54230Y-17230D02*
X54230Y-17770D01*
X54770Y-17770D01*
X54770Y-17230D01*
X54230Y-17230D01*
X55770Y-17500D02*
X55764Y-17552D01*
X55749Y-17602D01*
X55724Y-17649D01*
X55691Y-17690D01*
X55650Y-17723D01*
X55604Y-17748D01*
X55554Y-17764D01*
X55501Y-17769D01*
X55450Y-17765D01*
X55399Y-17750D01*
X55353Y-17725D01*
X55312Y-17692D01*
X55278Y-17652D01*
X55252Y-17606D01*
X55236Y-17556D01*
X55231Y-17503D01*
X55235Y-17452D01*
X55249Y-17401D01*
X55274Y-17354D01*
X55306Y-17313D01*
X55346Y-17279D01*
X55392Y-17253D01*
X55443Y-17237D01*
X55495Y-17231D01*
X55546Y-17235D01*
X55597Y-17249D01*
X55644Y-17273D01*
X55686Y-17305D01*
X55720Y-17345D01*
X55746Y-17391D01*
X55763Y-17441D01*
X55769Y-17493D01*
X55770Y-17500D01*
X56770Y-17500D02*
X56764Y-17552D01*
X56749Y-17602D01*
X56724Y-17649D01*
X56691Y-17690D01*
X56650Y-17723D01*
X56604Y-17748D01*
X56554Y-17764D01*
X56501Y-17769D01*
X56450Y-17765D01*
X56399Y-17750D01*
X56353Y-17725D01*
X56312Y-17692D01*
X56278Y-17652D01*
X56252Y-17606D01*
X56236Y-17556D01*
X56231Y-17503D01*
X56235Y-17452D01*
X56249Y-17401D01*
X56274Y-17354D01*
X56306Y-17313D01*
X56346Y-17279D01*
X56392Y-17253D01*
X56443Y-17237D01*
X56495Y-17231D01*
X56546Y-17235D01*
X56597Y-17249D01*
X56644Y-17273D01*
X56686Y-17305D01*
X56720Y-17345D01*
X56746Y-17391D01*
X56763Y-17441D01*
X56769Y-17493D01*
X56770Y-17500D01*
X57770Y-17500D02*
X57764Y-17552D01*
X57749Y-17602D01*
X57724Y-17649D01*
X57691Y-17690D01*
X57650Y-17723D01*
X57604Y-17748D01*
X57554Y-17764D01*
X57501Y-17769D01*
X57450Y-17765D01*
X57399Y-17750D01*
X57353Y-17725D01*
X57312Y-17692D01*
X57278Y-17652D01*
X57252Y-17606D01*
X57236Y-17556D01*
X57231Y-17503D01*
X57235Y-17452D01*
X57249Y-17401D01*
X57274Y-17354D01*
X57306Y-17313D01*
X57346Y-17279D01*
X57392Y-17253D01*
X57443Y-17237D01*
X57495Y-17231D01*
X57546Y-17235D01*
X57597Y-17249D01*
X57644Y-17273D01*
X57686Y-17305D01*
X57720Y-17345D01*
X57746Y-17391D01*
X57763Y-17441D01*
X57769Y-17493D01*
X57770Y-17500D01*
X58770Y-17500D02*
X58764Y-17552D01*
X58749Y-17602D01*
X58724Y-17649D01*
X58691Y-17690D01*
X58650Y-17723D01*
X58604Y-17748D01*
X58554Y-17764D01*
X58501Y-17769D01*
X58450Y-17765D01*
X58399Y-17750D01*
X58353Y-17725D01*
X58312Y-17692D01*
X58278Y-17652D01*
X58252Y-17606D01*
X58236Y-17556D01*
X58231Y-17503D01*
X58235Y-17452D01*
X58249Y-17401D01*
X58274Y-17354D01*
X58306Y-17313D01*
X58346Y-17279D01*
X58392Y-17253D01*
X58443Y-17237D01*
X58495Y-17231D01*
X58546Y-17235D01*
X58597Y-17249D01*
X58644Y-17273D01*
X58686Y-17305D01*
X58720Y-17345D01*
X58746Y-17391D01*
X58763Y-17441D01*
X58769Y-17493D01*
X58770Y-17500D01*
X43730Y-16230D02*
X43730Y-16770D01*
X44270Y-16770D01*
X44270Y-16230D01*
X43730Y-16230D01*
X45270Y-16500D02*
X45264Y-16552D01*
X45249Y-16602D01*
X45224Y-16649D01*
X45191Y-16690D01*
X45150Y-16723D01*
X45104Y-16748D01*
X45054Y-16764D01*
X45001Y-16769D01*
X44950Y-16765D01*
X44899Y-16750D01*
X44853Y-16725D01*
X44812Y-16692D01*
X44778Y-16652D01*
X44752Y-16606D01*
X44736Y-16556D01*
X44731Y-16503D01*
X44735Y-16452D01*
X44749Y-16401D01*
X44774Y-16354D01*
X44806Y-16313D01*
X44846Y-16279D01*
X44892Y-16253D01*
X44943Y-16237D01*
X44995Y-16231D01*
X45046Y-16235D01*
X45097Y-16249D01*
X45144Y-16273D01*
X45186Y-16305D01*
X45220Y-16345D01*
X45246Y-16391D01*
X45263Y-16441D01*
X45269Y-16493D01*
X45270Y-16500D01*
X46270Y-16500D02*
X46264Y-16552D01*
X46249Y-16602D01*
X46224Y-16649D01*
X46191Y-16690D01*
X46150Y-16723D01*
X46104Y-16748D01*
X46054Y-16764D01*
X46001Y-16769D01*
X45950Y-16765D01*
X45899Y-16750D01*
X45853Y-16725D01*
X45812Y-16692D01*
X45778Y-16652D01*
X45752Y-16606D01*
X45736Y-16556D01*
X45731Y-16503D01*
X45735Y-16452D01*
X45749Y-16401D01*
X45774Y-16354D01*
X45806Y-16313D01*
X45846Y-16279D01*
X45892Y-16253D01*
X45943Y-16237D01*
X45995Y-16231D01*
X46046Y-16235D01*
X46097Y-16249D01*
X46144Y-16273D01*
X46186Y-16305D01*
X46220Y-16345D01*
X46246Y-16391D01*
X46263Y-16441D01*
X46269Y-16493D01*
X46270Y-16500D01*
X47270Y-16500D02*
X47264Y-16552D01*
X47249Y-16602D01*
X47224Y-16649D01*
X47191Y-16690D01*
X47150Y-16723D01*
X47104Y-16748D01*
X47054Y-16764D01*
X47001Y-16769D01*
X46950Y-16765D01*
X46899Y-16750D01*
X46853Y-16725D01*
X46812Y-16692D01*
X46778Y-16652D01*
X46752Y-16606D01*
X46736Y-16556D01*
X46731Y-16503D01*
X46735Y-16452D01*
X46749Y-16401D01*
X46774Y-16354D01*
X46806Y-16313D01*
X46846Y-16279D01*
X46892Y-16253D01*
X46943Y-16237D01*
X46995Y-16231D01*
X47046Y-16235D01*
X47097Y-16249D01*
X47144Y-16273D01*
X47186Y-16305D01*
X47220Y-16345D01*
X47246Y-16391D01*
X47263Y-16441D01*
X47269Y-16493D01*
X47270Y-16500D01*
X48270Y-16500D02*
X48264Y-16552D01*
X48249Y-16602D01*
X48224Y-16649D01*
X48191Y-16690D01*
X48150Y-16723D01*
X48104Y-16748D01*
X48054Y-16764D01*
X48001Y-16769D01*
X47950Y-16765D01*
X47899Y-16750D01*
X47853Y-16725D01*
X47812Y-16692D01*
X47778Y-16652D01*
X47752Y-16606D01*
X47736Y-16556D01*
X47731Y-16503D01*
X47735Y-16452D01*
X47749Y-16401D01*
X47774Y-16354D01*
X47806Y-16313D01*
X47846Y-16279D01*
X47892Y-16253D01*
X47943Y-16237D01*
X47995Y-16231D01*
X48046Y-16235D01*
X48097Y-16249D01*
X48144Y-16273D01*
X48186Y-16305D01*
X48220Y-16345D01*
X48246Y-16391D01*
X48263Y-16441D01*
X48269Y-16493D01*
X48270Y-16500D01*
X54230Y-18230D02*
X54230Y-18770D01*
X54770Y-18770D01*
X54770Y-18230D01*
X54230Y-18230D01*
X55770Y-18500D02*
X55764Y-18552D01*
X55749Y-18602D01*
X55724Y-18649D01*
X55691Y-18690D01*
X55650Y-18723D01*
X55604Y-18748D01*
X55554Y-18764D01*
X55501Y-18769D01*
X55450Y-18765D01*
X55399Y-18750D01*
X55353Y-18725D01*
X55312Y-18692D01*
X55278Y-18652D01*
X55252Y-18606D01*
X55236Y-18556D01*
X55231Y-18503D01*
X55235Y-18452D01*
X55249Y-18401D01*
X55274Y-18354D01*
X55306Y-18313D01*
X55346Y-18279D01*
X55392Y-18253D01*
X55443Y-18237D01*
X55495Y-18231D01*
X55546Y-18235D01*
X55597Y-18249D01*
X55644Y-18273D01*
X55686Y-18305D01*
X55720Y-18345D01*
X55746Y-18391D01*
X55763Y-18441D01*
X55769Y-18493D01*
X55770Y-18500D01*
X56770Y-18500D02*
X56764Y-18552D01*
X56749Y-18602D01*
X56724Y-18649D01*
X56691Y-18690D01*
X56650Y-18723D01*
X56604Y-18748D01*
X56554Y-18764D01*
X56501Y-18769D01*
X56450Y-18765D01*
X56399Y-18750D01*
X56353Y-18725D01*
X56312Y-18692D01*
X56278Y-18652D01*
X56252Y-18606D01*
X56236Y-18556D01*
X56231Y-18503D01*
X56235Y-18452D01*
X56249Y-18401D01*
X56274Y-18354D01*
X56306Y-18313D01*
X56346Y-18279D01*
X56392Y-18253D01*
X56443Y-18237D01*
X56495Y-18231D01*
X56546Y-18235D01*
X56597Y-18249D01*
X56644Y-18273D01*
X56686Y-18305D01*
X56720Y-18345D01*
X56746Y-18391D01*
X56763Y-18441D01*
X56769Y-18493D01*
X56770Y-18500D01*
X57770Y-18500D02*
X57764Y-18552D01*
X57749Y-18602D01*
X57724Y-18649D01*
X57691Y-18690D01*
X57650Y-18723D01*
X57604Y-18748D01*
X57554Y-18764D01*
X57501Y-18769D01*
X57450Y-18765D01*
X57399Y-18750D01*
X57353Y-18725D01*
X57312Y-18692D01*
X57278Y-18652D01*
X57252Y-18606D01*
X57236Y-18556D01*
X57231Y-18503D01*
X57235Y-18452D01*
X57249Y-18401D01*
X57274Y-18354D01*
X57306Y-18313D01*
X57346Y-18279D01*
X57392Y-18253D01*
X57443Y-18237D01*
X57495Y-18231D01*
X57546Y-18235D01*
X57597Y-18249D01*
X57644Y-18273D01*
X57686Y-18305D01*
X57720Y-18345D01*
X57746Y-18391D01*
X57763Y-18441D01*
X57769Y-18493D01*
X57770Y-18500D01*
X58770Y-18500D02*
X58764Y-18552D01*
X58749Y-18602D01*
X58724Y-18649D01*
X58691Y-18690D01*
X58650Y-18723D01*
X58604Y-18748D01*
X58554Y-18764D01*
X58501Y-18769D01*
X58450Y-18765D01*
X58399Y-18750D01*
X58353Y-18725D01*
X58312Y-18692D01*
X58278Y-18652D01*
X58252Y-18606D01*
X58236Y-18556D01*
X58231Y-18503D01*
X58235Y-18452D01*
X58249Y-18401D01*
X58274Y-18354D01*
X58306Y-18313D01*
X58346Y-18279D01*
X58392Y-18253D01*
X58443Y-18237D01*
X58495Y-18231D01*
X58546Y-18235D01*
X58597Y-18249D01*
X58644Y-18273D01*
X58686Y-18305D01*
X58720Y-18345D01*
X58746Y-18391D01*
X58763Y-18441D01*
X58769Y-18493D01*
X58770Y-18500D01*
X54230Y-19230D02*
X54230Y-19770D01*
X54770Y-19770D01*
X54770Y-19230D01*
X54230Y-19230D01*
X55770Y-19500D02*
X55764Y-19552D01*
X55749Y-19602D01*
X55724Y-19649D01*
X55691Y-19690D01*
X55650Y-19723D01*
X55604Y-19748D01*
X55554Y-19764D01*
X55501Y-19769D01*
X55450Y-19765D01*
X55399Y-19750D01*
X55353Y-19725D01*
X55312Y-19692D01*
X55278Y-19652D01*
X55252Y-19606D01*
X55236Y-19556D01*
X55231Y-19503D01*
X55235Y-19452D01*
X55249Y-19401D01*
X55274Y-19354D01*
X55306Y-19313D01*
X55346Y-19279D01*
X55392Y-19253D01*
X55443Y-19237D01*
X55495Y-19231D01*
X55546Y-19235D01*
X55597Y-19249D01*
X55644Y-19273D01*
X55686Y-19305D01*
X55720Y-19345D01*
X55746Y-19391D01*
X55763Y-19441D01*
X55769Y-19493D01*
X55770Y-19500D01*
X56770Y-19500D02*
X56764Y-19552D01*
X56749Y-19602D01*
X56724Y-19649D01*
X56691Y-19690D01*
X56650Y-19723D01*
X56604Y-19748D01*
X56554Y-19764D01*
X56501Y-19769D01*
X56450Y-19765D01*
X56399Y-19750D01*
X56353Y-19725D01*
X56312Y-19692D01*
X56278Y-19652D01*
X56252Y-19606D01*
X56236Y-19556D01*
X56231Y-19503D01*
X56235Y-19452D01*
X56249Y-19401D01*
X56274Y-19354D01*
X56306Y-19313D01*
X56346Y-19279D01*
X56392Y-19253D01*
X56443Y-19237D01*
X56495Y-19231D01*
X56546Y-19235D01*
X56597Y-19249D01*
X56644Y-19273D01*
X56686Y-19305D01*
X56720Y-19345D01*
X56746Y-19391D01*
X56763Y-19441D01*
X56769Y-19493D01*
X56770Y-19500D01*
X57770Y-19500D02*
X57764Y-19552D01*
X57749Y-19602D01*
X57724Y-19649D01*
X57691Y-19690D01*
X57650Y-19723D01*
X57604Y-19748D01*
X57554Y-19764D01*
X57501Y-19769D01*
X57450Y-19765D01*
X57399Y-19750D01*
X57353Y-19725D01*
X57312Y-19692D01*
X57278Y-19652D01*
X57252Y-19606D01*
X57236Y-19556D01*
X57231Y-19503D01*
X57235Y-19452D01*
X57249Y-19401D01*
X57274Y-19354D01*
X57306Y-19313D01*
X57346Y-19279D01*
X57392Y-19253D01*
X57443Y-19237D01*
X57495Y-19231D01*
X57546Y-19235D01*
X57597Y-19249D01*
X57644Y-19273D01*
X57686Y-19305D01*
X57720Y-19345D01*
X57746Y-19391D01*
X57763Y-19441D01*
X57769Y-19493D01*
X57770Y-19500D01*
X58770Y-19500D02*
X58764Y-19552D01*
X58749Y-19602D01*
X58724Y-19649D01*
X58691Y-19690D01*
X58650Y-19723D01*
X58604Y-19748D01*
X58554Y-19764D01*
X58501Y-19769D01*
X58450Y-19765D01*
X58399Y-19750D01*
X58353Y-19725D01*
X58312Y-19692D01*
X58278Y-19652D01*
X58252Y-19606D01*
X58236Y-19556D01*
X58231Y-19503D01*
X58235Y-19452D01*
X58249Y-19401D01*
X58274Y-19354D01*
X58306Y-19313D01*
X58346Y-19279D01*
X58392Y-19253D01*
X58443Y-19237D01*
X58495Y-19231D01*
X58546Y-19235D01*
X58597Y-19249D01*
X58644Y-19273D01*
X58686Y-19305D01*
X58720Y-19345D01*
X58746Y-19391D01*
X58763Y-19441D01*
X58769Y-19493D01*
X58770Y-19500D01*
X43730Y-19230D02*
X43730Y-19770D01*
X44270Y-19770D01*
X44270Y-19230D01*
X43730Y-19230D01*
X45270Y-19500D02*
X45264Y-19552D01*
X45249Y-19602D01*
X45224Y-19649D01*
X45191Y-19690D01*
X45150Y-19723D01*
X45104Y-19748D01*
X45054Y-19764D01*
X45001Y-19769D01*
X44950Y-19765D01*
X44899Y-19750D01*
X44853Y-19725D01*
X44812Y-19692D01*
X44778Y-19652D01*
X44752Y-19606D01*
X44736Y-19556D01*
X44731Y-19503D01*
X44735Y-19452D01*
X44749Y-19401D01*
X44774Y-19354D01*
X44806Y-19313D01*
X44846Y-19279D01*
X44892Y-19253D01*
X44943Y-19237D01*
X44995Y-19231D01*
X45046Y-19235D01*
X45097Y-19249D01*
X45144Y-19273D01*
X45186Y-19305D01*
X45220Y-19345D01*
X45246Y-19391D01*
X45263Y-19441D01*
X45269Y-19493D01*
X45270Y-19500D01*
X46270Y-19500D02*
X46264Y-19552D01*
X46249Y-19602D01*
X46224Y-19649D01*
X46191Y-19690D01*
X46150Y-19723D01*
X46104Y-19748D01*
X46054Y-19764D01*
X46001Y-19769D01*
X45950Y-19765D01*
X45899Y-19750D01*
X45853Y-19725D01*
X45812Y-19692D01*
X45778Y-19652D01*
X45752Y-19606D01*
X45736Y-19556D01*
X45731Y-19503D01*
X45735Y-19452D01*
X45749Y-19401D01*
X45774Y-19354D01*
X45806Y-19313D01*
X45846Y-19279D01*
X45892Y-19253D01*
X45943Y-19237D01*
X45995Y-19231D01*
X46046Y-19235D01*
X46097Y-19249D01*
X46144Y-19273D01*
X46186Y-19305D01*
X46220Y-19345D01*
X46246Y-19391D01*
X46263Y-19441D01*
X46269Y-19493D01*
X46270Y-19500D01*
X47270Y-19500D02*
X47264Y-19552D01*
X47249Y-19602D01*
X47224Y-19649D01*
X47191Y-19690D01*
X47150Y-19723D01*
X47104Y-19748D01*
X47054Y-19764D01*
X47001Y-19769D01*
X46950Y-19765D01*
X46899Y-19750D01*
X46853Y-19725D01*
X46812Y-19692D01*
X46778Y-19652D01*
X46752Y-19606D01*
X46736Y-19556D01*
X46731Y-19503D01*
X46735Y-19452D01*
X46749Y-19401D01*
X46774Y-19354D01*
X46806Y-19313D01*
X46846Y-19279D01*
X46892Y-19253D01*
X46943Y-19237D01*
X46995Y-19231D01*
X47046Y-19235D01*
X47097Y-19249D01*
X47144Y-19273D01*
X47186Y-19305D01*
X47220Y-19345D01*
X47246Y-19391D01*
X47263Y-19441D01*
X47269Y-19493D01*
X47270Y-19500D01*
X48270Y-19500D02*
X48264Y-19552D01*
X48249Y-19602D01*
X48224Y-19649D01*
X48191Y-19690D01*
X48150Y-19723D01*
X48104Y-19748D01*
X48054Y-19764D01*
X48001Y-19769D01*
X47950Y-19765D01*
X47899Y-19750D01*
X47853Y-19725D01*
X47812Y-19692D01*
X47778Y-19652D01*
X47752Y-19606D01*
X47736Y-19556D01*
X47731Y-19503D01*
X47735Y-19452D01*
X47749Y-19401D01*
X47774Y-19354D01*
X47806Y-19313D01*
X47846Y-19279D01*
X47892Y-19253D01*
X47943Y-19237D01*
X47995Y-19231D01*
X48046Y-19235D01*
X48097Y-19249D01*
X48144Y-19273D01*
X48186Y-19305D01*
X48220Y-19345D01*
X48246Y-19391D01*
X48263Y-19441D01*
X48269Y-19493D01*
X48270Y-19500D01*
X42695Y-27055D02*
X42695Y-27945D01*
X43305Y-27945D01*
X43305Y-27055D01*
X42695Y-27055D01*
X43695Y-27360D02*
X43695Y-27640D01*
X44305Y-27360D02*
X44305Y-27640D01*
X43695Y-27640D02*
X43697Y-27666D01*
X43700Y-27692D01*
X43706Y-27718D01*
X43714Y-27744D01*
X43724Y-27768D01*
X43736Y-27792D01*
X43751Y-27814D01*
X43767Y-27836D01*
X43785Y-27855D01*
X43804Y-27873D01*
X43826Y-27889D01*
X43848Y-27904D01*
X43872Y-27916D01*
X43896Y-27926D01*
X43922Y-27934D01*
X43948Y-27940D01*
X43974Y-27943D01*
X44000Y-27945D01*
X44026Y-27943D01*
X44052Y-27940D01*
X44078Y-27934D01*
X44104Y-27926D01*
X44128Y-27916D01*
X44152Y-27904D01*
X44174Y-27889D01*
X44196Y-27873D01*
X44215Y-27855D01*
X44233Y-27836D01*
X44249Y-27814D01*
X44264Y-27792D01*
X44276Y-27768D01*
X44286Y-27744D01*
X44294Y-27718D01*
X44300Y-27692D01*
X44303Y-27666D01*
X44305Y-27640D01*
X44305Y-27360D02*
X44303Y-27334D01*
X44300Y-27308D01*
X44294Y-27282D01*
X44286Y-27256D01*
X44276Y-27232D01*
X44264Y-27208D01*
X44249Y-27186D01*
X44233Y-27164D01*
X44215Y-27145D01*
X44196Y-27127D01*
X44174Y-27111D01*
X44152Y-27096D01*
X44128Y-27084D01*
X44104Y-27074D01*
X44078Y-27066D01*
X44052Y-27060D01*
X44026Y-27057D01*
X44000Y-27055D01*
X43974Y-27057D01*
X43948Y-27060D01*
X43922Y-27066D01*
X43896Y-27074D01*
X43872Y-27084D01*
X43848Y-27096D01*
X43826Y-27111D01*
X43804Y-27127D01*
X43785Y-27145D01*
X43767Y-27164D01*
X43751Y-27186D01*
X43736Y-27208D01*
X43724Y-27232D01*
X43714Y-27256D01*
X43706Y-27282D01*
X43700Y-27308D01*
X43697Y-27334D01*
X43695Y-27360D01*
X44695Y-27360D02*
X44695Y-27640D01*
X45305Y-27360D02*
X45305Y-27640D01*
X44695Y-27640D02*
X44697Y-27666D01*
X44700Y-27692D01*
X44706Y-27718D01*
X44714Y-27744D01*
X44724Y-27768D01*
X44736Y-27792D01*
X44751Y-27814D01*
X44767Y-27836D01*
X44785Y-27855D01*
X44804Y-27873D01*
X44826Y-27889D01*
X44848Y-27904D01*
X44872Y-27916D01*
X44896Y-27926D01*
X44922Y-27934D01*
X44948Y-27940D01*
X44974Y-27943D01*
X45000Y-27945D01*
X45026Y-27943D01*
X45052Y-27940D01*
X45078Y-27934D01*
X45104Y-27926D01*
X45128Y-27916D01*
X45152Y-27904D01*
X45174Y-27889D01*
X45196Y-27873D01*
X45215Y-27855D01*
X45233Y-27836D01*
X45249Y-27814D01*
X45264Y-27792D01*
X45276Y-27768D01*
X45286Y-27744D01*
X45294Y-27718D01*
X45300Y-27692D01*
X45303Y-27666D01*
X45305Y-27640D01*
X45305Y-27360D02*
X45303Y-27334D01*
X45300Y-27308D01*
X45294Y-27282D01*
X45286Y-27256D01*
X45276Y-27232D01*
X45264Y-27208D01*
X45249Y-27186D01*
X45233Y-27164D01*
X45215Y-27145D01*
X45196Y-27127D01*
X45174Y-27111D01*
X45152Y-27096D01*
X45128Y-27084D01*
X45104Y-27074D01*
X45078Y-27066D01*
X45052Y-27060D01*
X45026Y-27057D01*
X45000Y-27055D01*
X44974Y-27057D01*
X44948Y-27060D01*
X44922Y-27066D01*
X44896Y-27074D01*
X44872Y-27084D01*
X44848Y-27096D01*
X44826Y-27111D01*
X44804Y-27127D01*
X44785Y-27145D01*
X44767Y-27164D01*
X44751Y-27186D01*
X44736Y-27208D01*
X44724Y-27232D01*
X44714Y-27256D01*
X44706Y-27282D01*
X44700Y-27308D01*
X44697Y-27334D01*
X44695Y-27360D01*
X45695Y-27360D02*
X45695Y-27640D01*
X46305Y-27360D02*
X46305Y-27640D01*
X45695Y-27640D02*
X45697Y-27666D01*
X45700Y-27692D01*
X45706Y-27718D01*
X45714Y-27744D01*
X45724Y-27768D01*
X45736Y-27792D01*
X45751Y-27814D01*
X45767Y-27836D01*
X45785Y-27855D01*
X45804Y-27873D01*
X45826Y-27889D01*
X45848Y-27904D01*
X45872Y-27916D01*
X45896Y-27926D01*
X45922Y-27934D01*
X45948Y-27940D01*
X45974Y-27943D01*
X46000Y-27945D01*
X46026Y-27943D01*
X46052Y-27940D01*
X46078Y-27934D01*
X46104Y-27926D01*
X46128Y-27916D01*
X46152Y-27904D01*
X46174Y-27889D01*
X46196Y-27873D01*
X46215Y-27855D01*
X46233Y-27836D01*
X46249Y-27814D01*
X46264Y-27792D01*
X46276Y-27768D01*
X46286Y-27744D01*
X46294Y-27718D01*
X46300Y-27692D01*
X46303Y-27666D01*
X46305Y-27640D01*
X46305Y-27360D02*
X46303Y-27334D01*
X46300Y-27308D01*
X46294Y-27282D01*
X46286Y-27256D01*
X46276Y-27232D01*
X46264Y-27208D01*
X46249Y-27186D01*
X46233Y-27164D01*
X46215Y-27145D01*
X46196Y-27127D01*
X46174Y-27111D01*
X46152Y-27096D01*
X46128Y-27084D01*
X46104Y-27074D01*
X46078Y-27066D01*
X46052Y-27060D01*
X46026Y-27057D01*
X46000Y-27055D01*
X45974Y-27057D01*
X45948Y-27060D01*
X45922Y-27066D01*
X45896Y-27074D01*
X45872Y-27084D01*
X45848Y-27096D01*
X45826Y-27111D01*
X45804Y-27127D01*
X45785Y-27145D01*
X45767Y-27164D01*
X45751Y-27186D01*
X45736Y-27208D01*
X45724Y-27232D01*
X45714Y-27256D01*
X45706Y-27282D01*
X45700Y-27308D01*
X45697Y-27334D01*
X45695Y-27360D01*
X46695Y-27360D02*
X46695Y-27640D01*
X47305Y-27360D02*
X47305Y-27640D01*
X46695Y-27640D02*
X46697Y-27666D01*
X46700Y-27692D01*
X46706Y-27718D01*
X46714Y-27744D01*
X46724Y-27768D01*
X46736Y-27792D01*
X46751Y-27814D01*
X46767Y-27836D01*
X46785Y-27855D01*
X46804Y-27873D01*
X46826Y-27889D01*
X46848Y-27904D01*
X46872Y-27916D01*
X46896Y-27926D01*
X46922Y-27934D01*
X46948Y-27940D01*
X46974Y-27943D01*
X47000Y-27945D01*
X47026Y-27943D01*
X47052Y-27940D01*
X47078Y-27934D01*
X47104Y-27926D01*
X47128Y-27916D01*
X47152Y-27904D01*
X47174Y-27889D01*
X47196Y-27873D01*
X47215Y-27855D01*
X47233Y-27836D01*
X47249Y-27814D01*
X47264Y-27792D01*
X47276Y-27768D01*
X47286Y-27744D01*
X47294Y-27718D01*
X47300Y-27692D01*
X47303Y-27666D01*
X47305Y-27640D01*
X47305Y-27360D02*
X47303Y-27334D01*
X47300Y-27308D01*
X47294Y-27282D01*
X47286Y-27256D01*
X47276Y-27232D01*
X47264Y-27208D01*
X47249Y-27186D01*
X47233Y-27164D01*
X47215Y-27145D01*
X47196Y-27127D01*
X47174Y-27111D01*
X47152Y-27096D01*
X47128Y-27084D01*
X47104Y-27074D01*
X47078Y-27066D01*
X47052Y-27060D01*
X47026Y-27057D01*
X47000Y-27055D01*
X46974Y-27057D01*
X46948Y-27060D01*
X46922Y-27066D01*
X46896Y-27074D01*
X46872Y-27084D01*
X46848Y-27096D01*
X46826Y-27111D01*
X46804Y-27127D01*
X46785Y-27145D01*
X46767Y-27164D01*
X46751Y-27186D01*
X46736Y-27208D01*
X46724Y-27232D01*
X46714Y-27256D01*
X46706Y-27282D01*
X46700Y-27308D01*
X46697Y-27334D01*
X46695Y-27360D01*
X47695Y-27360D02*
X47695Y-27640D01*
X48305Y-27360D02*
X48305Y-27640D01*
X47695Y-27640D02*
X47697Y-27666D01*
X47700Y-27692D01*
X47706Y-27718D01*
X47714Y-27744D01*
X47724Y-27768D01*
X47736Y-27792D01*
X47751Y-27814D01*
X47767Y-27836D01*
X47785Y-27855D01*
X47804Y-27873D01*
X47826Y-27889D01*
X47848Y-27904D01*
X47872Y-27916D01*
X47896Y-27926D01*
X47922Y-27934D01*
X47948Y-27940D01*
X47974Y-27943D01*
X48000Y-27945D01*
X48026Y-27943D01*
X48052Y-27940D01*
X48078Y-27934D01*
X48104Y-27926D01*
X48128Y-27916D01*
X48152Y-27904D01*
X48174Y-27889D01*
X48196Y-27873D01*
X48215Y-27855D01*
X48233Y-27836D01*
X48249Y-27814D01*
X48264Y-27792D01*
X48276Y-27768D01*
X48286Y-27744D01*
X48294Y-27718D01*
X48300Y-27692D01*
X48303Y-27666D01*
X48305Y-27640D01*
X48305Y-27360D02*
X48303Y-27334D01*
X48300Y-27308D01*
X48294Y-27282D01*
X48286Y-27256D01*
X48276Y-27232D01*
X48264Y-27208D01*
X48249Y-27186D01*
X48233Y-27164D01*
X48215Y-27145D01*
X48196Y-27127D01*
X48174Y-27111D01*
X48152Y-27096D01*
X48128Y-27084D01*
X48104Y-27074D01*
X48078Y-27066D01*
X48052Y-27060D01*
X48026Y-27057D01*
X48000Y-27055D01*
X47974Y-27057D01*
X47948Y-27060D01*
X47922Y-27066D01*
X47896Y-27074D01*
X47872Y-27084D01*
X47848Y-27096D01*
X47826Y-27111D01*
X47804Y-27127D01*
X47785Y-27145D01*
X47767Y-27164D01*
X47751Y-27186D01*
X47736Y-27208D01*
X47724Y-27232D01*
X47714Y-27256D01*
X47706Y-27282D01*
X47700Y-27308D01*
X47697Y-27334D01*
X47695Y-27360D01*
X48695Y-27360D02*
X48695Y-27640D01*
X49305Y-27360D02*
X49305Y-27640D01*
X48695Y-27640D02*
X48697Y-27666D01*
X48700Y-27692D01*
X48706Y-27718D01*
X48714Y-27744D01*
X48724Y-27768D01*
X48736Y-27792D01*
X48751Y-27814D01*
X48767Y-27836D01*
X48785Y-27855D01*
X48804Y-27873D01*
X48826Y-27889D01*
X48848Y-27904D01*
X48872Y-27916D01*
X48896Y-27926D01*
X48922Y-27934D01*
X48948Y-27940D01*
X48974Y-27943D01*
X49000Y-27945D01*
X49026Y-27943D01*
X49052Y-27940D01*
X49078Y-27934D01*
X49104Y-27926D01*
X49128Y-27916D01*
X49152Y-27904D01*
X49174Y-27889D01*
X49196Y-27873D01*
X49215Y-27855D01*
X49233Y-27836D01*
X49249Y-27814D01*
X49264Y-27792D01*
X49276Y-27768D01*
X49286Y-27744D01*
X49294Y-27718D01*
X49300Y-27692D01*
X49303Y-27666D01*
X49305Y-27640D01*
X49305Y-27360D02*
X49303Y-27334D01*
X49300Y-27308D01*
X49294Y-27282D01*
X49286Y-27256D01*
X49276Y-27232D01*
X49264Y-27208D01*
X49249Y-27186D01*
X49233Y-27164D01*
X49215Y-27145D01*
X49196Y-27127D01*
X49174Y-27111D01*
X49152Y-27096D01*
X49128Y-27084D01*
X49104Y-27074D01*
X49078Y-27066D01*
X49052Y-27060D01*
X49026Y-27057D01*
X49000Y-27055D01*
X48974Y-27057D01*
X48948Y-27060D01*
X48922Y-27066D01*
X48896Y-27074D01*
X48872Y-27084D01*
X48848Y-27096D01*
X48826Y-27111D01*
X48804Y-27127D01*
X48785Y-27145D01*
X48767Y-27164D01*
X48751Y-27186D01*
X48736Y-27208D01*
X48724Y-27232D01*
X48714Y-27256D01*
X48706Y-27282D01*
X48700Y-27308D01*
X48697Y-27334D01*
X48695Y-27360D01*
X49695Y-27360D02*
X49695Y-27640D01*
X50305Y-27360D02*
X50305Y-27640D01*
X49695Y-27640D02*
X49697Y-27666D01*
X49700Y-27692D01*
X49706Y-27718D01*
X49714Y-27744D01*
X49724Y-27768D01*
X49736Y-27792D01*
X49751Y-27814D01*
X49767Y-27836D01*
X49785Y-27855D01*
X49804Y-27873D01*
X49826Y-27889D01*
X49848Y-27904D01*
X49872Y-27916D01*
X49896Y-27926D01*
X49922Y-27934D01*
X49948Y-27940D01*
X49974Y-27943D01*
X50000Y-27945D01*
X50026Y-27943D01*
X50052Y-27940D01*
X50078Y-27934D01*
X50104Y-27926D01*
X50128Y-27916D01*
X50152Y-27904D01*
X50174Y-27889D01*
X50196Y-27873D01*
X50215Y-27855D01*
X50233Y-27836D01*
X50249Y-27814D01*
X50264Y-27792D01*
X50276Y-27768D01*
X50286Y-27744D01*
X50294Y-27718D01*
X50300Y-27692D01*
X50303Y-27666D01*
X50305Y-27640D01*
X50305Y-27360D02*
X50303Y-27334D01*
X50300Y-27308D01*
X50294Y-27282D01*
X50286Y-27256D01*
X50276Y-27232D01*
X50264Y-27208D01*
X50249Y-27186D01*
X50233Y-27164D01*
X50215Y-27145D01*
X50196Y-27127D01*
X50174Y-27111D01*
X50152Y-27096D01*
X50128Y-27084D01*
X50104Y-27074D01*
X50078Y-27066D01*
X50052Y-27060D01*
X50026Y-27057D01*
X50000Y-27055D01*
X49974Y-27057D01*
X49948Y-27060D01*
X49922Y-27066D01*
X49896Y-27074D01*
X49872Y-27084D01*
X49848Y-27096D01*
X49826Y-27111D01*
X49804Y-27127D01*
X49785Y-27145D01*
X49767Y-27164D01*
X49751Y-27186D01*
X49736Y-27208D01*
X49724Y-27232D01*
X49714Y-27256D01*
X49706Y-27282D01*
X49700Y-27308D01*
X49697Y-27334D01*
X49695Y-27360D01*
X50695Y-27360D02*
X50695Y-27640D01*
X51305Y-27360D02*
X51305Y-27640D01*
X50695Y-27640D02*
X50697Y-27666D01*
X50700Y-27692D01*
X50706Y-27718D01*
X50714Y-27744D01*
X50724Y-27768D01*
X50736Y-27792D01*
X50751Y-27814D01*
X50767Y-27836D01*
X50785Y-27855D01*
X50804Y-27873D01*
X50826Y-27889D01*
X50848Y-27904D01*
X50872Y-27916D01*
X50896Y-27926D01*
X50922Y-27934D01*
X50948Y-27940D01*
X50974Y-27943D01*
X51000Y-27945D01*
X51026Y-27943D01*
X51052Y-27940D01*
X51078Y-27934D01*
X51104Y-27926D01*
X51128Y-27916D01*
X51152Y-27904D01*
X51174Y-27889D01*
X51196Y-27873D01*
X51215Y-27855D01*
X51233Y-27836D01*
X51249Y-27814D01*
X51264Y-27792D01*
X51276Y-27768D01*
X51286Y-27744D01*
X51294Y-27718D01*
X51300Y-27692D01*
X51303Y-27666D01*
X51305Y-27640D01*
X51305Y-27360D02*
X51303Y-27334D01*
X51300Y-27308D01*
X51294Y-27282D01*
X51286Y-27256D01*
X51276Y-27232D01*
X51264Y-27208D01*
X51249Y-27186D01*
X51233Y-27164D01*
X51215Y-27145D01*
X51196Y-27127D01*
X51174Y-27111D01*
X51152Y-27096D01*
X51128Y-27084D01*
X51104Y-27074D01*
X51078Y-27066D01*
X51052Y-27060D01*
X51026Y-27057D01*
X51000Y-27055D01*
X50974Y-27057D01*
X50948Y-27060D01*
X50922Y-27066D01*
X50896Y-27074D01*
X50872Y-27084D01*
X50848Y-27096D01*
X50826Y-27111D01*
X50804Y-27127D01*
X50785Y-27145D01*
X50767Y-27164D01*
X50751Y-27186D01*
X50736Y-27208D01*
X50724Y-27232D01*
X50714Y-27256D01*
X50706Y-27282D01*
X50700Y-27308D01*
X50697Y-27334D01*
X50695Y-27360D01*
X51695Y-27360D02*
X51695Y-27640D01*
X52305Y-27360D02*
X52305Y-27640D01*
X51695Y-27640D02*
X51697Y-27666D01*
X51700Y-27692D01*
X51706Y-27718D01*
X51714Y-27744D01*
X51724Y-27768D01*
X51736Y-27792D01*
X51751Y-27814D01*
X51767Y-27836D01*
X51785Y-27855D01*
X51804Y-27873D01*
X51826Y-27889D01*
X51848Y-27904D01*
X51872Y-27916D01*
X51896Y-27926D01*
X51922Y-27934D01*
X51948Y-27940D01*
X51974Y-27943D01*
X52000Y-27945D01*
X52026Y-27943D01*
X52052Y-27940D01*
X52078Y-27934D01*
X52104Y-27926D01*
X52128Y-27916D01*
X52152Y-27904D01*
X52174Y-27889D01*
X52196Y-27873D01*
X52215Y-27855D01*
X52233Y-27836D01*
X52249Y-27814D01*
X52264Y-27792D01*
X52276Y-27768D01*
X52286Y-27744D01*
X52294Y-27718D01*
X52300Y-27692D01*
X52303Y-27666D01*
X52305Y-27640D01*
X52305Y-27360D02*
X52303Y-27334D01*
X52300Y-27308D01*
X52294Y-27282D01*
X52286Y-27256D01*
X52276Y-27232D01*
X52264Y-27208D01*
X52249Y-27186D01*
X52233Y-27164D01*
X52215Y-27145D01*
X52196Y-27127D01*
X52174Y-27111D01*
X52152Y-27096D01*
X52128Y-27084D01*
X52104Y-27074D01*
X52078Y-27066D01*
X52052Y-27060D01*
X52026Y-27057D01*
X52000Y-27055D01*
X51974Y-27057D01*
X51948Y-27060D01*
X51922Y-27066D01*
X51896Y-27074D01*
X51872Y-27084D01*
X51848Y-27096D01*
X51826Y-27111D01*
X51804Y-27127D01*
X51785Y-27145D01*
X51767Y-27164D01*
X51751Y-27186D01*
X51736Y-27208D01*
X51724Y-27232D01*
X51714Y-27256D01*
X51706Y-27282D01*
X51700Y-27308D01*
X51697Y-27334D01*
X51695Y-27360D01*
X52695Y-27360D02*
X52695Y-27640D01*
X53305Y-27360D02*
X53305Y-27640D01*
X52695Y-27640D02*
X52697Y-27666D01*
X52700Y-27692D01*
X52706Y-27718D01*
X52714Y-27744D01*
X52724Y-27768D01*
X52736Y-27792D01*
X52751Y-27814D01*
X52767Y-27836D01*
X52785Y-27855D01*
X52804Y-27873D01*
X52826Y-27889D01*
X52848Y-27904D01*
X52872Y-27916D01*
X52896Y-27926D01*
X52922Y-27934D01*
X52948Y-27940D01*
X52974Y-27943D01*
X53000Y-27945D01*
X53026Y-27943D01*
X53052Y-27940D01*
X53078Y-27934D01*
X53104Y-27926D01*
X53128Y-27916D01*
X53152Y-27904D01*
X53174Y-27889D01*
X53196Y-27873D01*
X53215Y-27855D01*
X53233Y-27836D01*
X53249Y-27814D01*
X53264Y-27792D01*
X53276Y-27768D01*
X53286Y-27744D01*
X53294Y-27718D01*
X53300Y-27692D01*
X53303Y-27666D01*
X53305Y-27640D01*
X53305Y-27360D02*
X53303Y-27334D01*
X53300Y-27308D01*
X53294Y-27282D01*
X53286Y-27256D01*
X53276Y-27232D01*
X53264Y-27208D01*
X53249Y-27186D01*
X53233Y-27164D01*
X53215Y-27145D01*
X53196Y-27127D01*
X53174Y-27111D01*
X53152Y-27096D01*
X53128Y-27084D01*
X53104Y-27074D01*
X53078Y-27066D01*
X53052Y-27060D01*
X53026Y-27057D01*
X53000Y-27055D01*
X52974Y-27057D01*
X52948Y-27060D01*
X52922Y-27066D01*
X52896Y-27074D01*
X52872Y-27084D01*
X52848Y-27096D01*
X52826Y-27111D01*
X52804Y-27127D01*
X52785Y-27145D01*
X52767Y-27164D01*
X52751Y-27186D01*
X52736Y-27208D01*
X52724Y-27232D01*
X52714Y-27256D01*
X52706Y-27282D01*
X52700Y-27308D01*
X52697Y-27334D01*
X52695Y-27360D01*
X53695Y-27360D02*
X53695Y-27640D01*
X54305Y-27360D02*
X54305Y-27640D01*
X53695Y-27640D02*
X53697Y-27666D01*
X53700Y-27692D01*
X53706Y-27718D01*
X53714Y-27744D01*
X53724Y-27768D01*
X53736Y-27792D01*
X53751Y-27814D01*
X53767Y-27836D01*
X53785Y-27855D01*
X53804Y-27873D01*
X53826Y-27889D01*
X53848Y-27904D01*
X53872Y-27916D01*
X53896Y-27926D01*
X53922Y-27934D01*
X53948Y-27940D01*
X53974Y-27943D01*
X54000Y-27945D01*
X54026Y-27943D01*
X54052Y-27940D01*
X54078Y-27934D01*
X54104Y-27926D01*
X54128Y-27916D01*
X54152Y-27904D01*
X54174Y-27889D01*
X54196Y-27873D01*
X54215Y-27855D01*
X54233Y-27836D01*
X54249Y-27814D01*
X54264Y-27792D01*
X54276Y-27768D01*
X54286Y-27744D01*
X54294Y-27718D01*
X54300Y-27692D01*
X54303Y-27666D01*
X54305Y-27640D01*
X54305Y-27360D02*
X54303Y-27334D01*
X54300Y-27308D01*
X54294Y-27282D01*
X54286Y-27256D01*
X54276Y-27232D01*
X54264Y-27208D01*
X54249Y-27186D01*
X54233Y-27164D01*
X54215Y-27145D01*
X54196Y-27127D01*
X54174Y-27111D01*
X54152Y-27096D01*
X54128Y-27084D01*
X54104Y-27074D01*
X54078Y-27066D01*
X54052Y-27060D01*
X54026Y-27057D01*
X54000Y-27055D01*
X53974Y-27057D01*
X53948Y-27060D01*
X53922Y-27066D01*
X53896Y-27074D01*
X53872Y-27084D01*
X53848Y-27096D01*
X53826Y-27111D01*
X53804Y-27127D01*
X53785Y-27145D01*
X53767Y-27164D01*
X53751Y-27186D01*
X53736Y-27208D01*
X53724Y-27232D01*
X53714Y-27256D01*
X53706Y-27282D01*
X53700Y-27308D01*
X53697Y-27334D01*
X53695Y-27360D01*
X54695Y-27360D02*
X54695Y-27640D01*
X55305Y-27360D02*
X55305Y-27640D01*
X54695Y-27640D02*
X54697Y-27666D01*
X54700Y-27692D01*
X54706Y-27718D01*
X54714Y-27744D01*
X54724Y-27768D01*
X54736Y-27792D01*
X54751Y-27814D01*
X54767Y-27836D01*
X54785Y-27855D01*
X54804Y-27873D01*
X54826Y-27889D01*
X54848Y-27904D01*
X54872Y-27916D01*
X54896Y-27926D01*
X54922Y-27934D01*
X54948Y-27940D01*
X54974Y-27943D01*
X55000Y-27945D01*
X55026Y-27943D01*
X55052Y-27940D01*
X55078Y-27934D01*
X55104Y-27926D01*
X55128Y-27916D01*
X55152Y-27904D01*
X55174Y-27889D01*
X55196Y-27873D01*
X55215Y-27855D01*
X55233Y-27836D01*
X55249Y-27814D01*
X55264Y-27792D01*
X55276Y-27768D01*
X55286Y-27744D01*
X55294Y-27718D01*
X55300Y-27692D01*
X55303Y-27666D01*
X55305Y-27640D01*
X55305Y-27360D02*
X55303Y-27334D01*
X55300Y-27308D01*
X55294Y-27282D01*
X55286Y-27256D01*
X55276Y-27232D01*
X55264Y-27208D01*
X55249Y-27186D01*
X55233Y-27164D01*
X55215Y-27145D01*
X55196Y-27127D01*
X55174Y-27111D01*
X55152Y-27096D01*
X55128Y-27084D01*
X55104Y-27074D01*
X55078Y-27066D01*
X55052Y-27060D01*
X55026Y-27057D01*
X55000Y-27055D01*
X54974Y-27057D01*
X54948Y-27060D01*
X54922Y-27066D01*
X54896Y-27074D01*
X54872Y-27084D01*
X54848Y-27096D01*
X54826Y-27111D01*
X54804Y-27127D01*
X54785Y-27145D01*
X54767Y-27164D01*
X54751Y-27186D01*
X54736Y-27208D01*
X54724Y-27232D01*
X54714Y-27256D01*
X54706Y-27282D01*
X54700Y-27308D01*
X54697Y-27334D01*
X54695Y-27360D01*
X55695Y-27360D02*
X55695Y-27640D01*
X56305Y-27360D02*
X56305Y-27640D01*
X55695Y-27640D02*
X55697Y-27666D01*
X55700Y-27692D01*
X55706Y-27718D01*
X55714Y-27744D01*
X55724Y-27768D01*
X55736Y-27792D01*
X55751Y-27814D01*
X55767Y-27836D01*
X55785Y-27855D01*
X55804Y-27873D01*
X55826Y-27889D01*
X55848Y-27904D01*
X55872Y-27916D01*
X55896Y-27926D01*
X55922Y-27934D01*
X55948Y-27940D01*
X55974Y-27943D01*
X56000Y-27945D01*
X56026Y-27943D01*
X56052Y-27940D01*
X56078Y-27934D01*
X56104Y-27926D01*
X56128Y-27916D01*
X56152Y-27904D01*
X56174Y-27889D01*
X56196Y-27873D01*
X56215Y-27855D01*
X56233Y-27836D01*
X56249Y-27814D01*
X56264Y-27792D01*
X56276Y-27768D01*
X56286Y-27744D01*
X56294Y-27718D01*
X56300Y-27692D01*
X56303Y-27666D01*
X56305Y-27640D01*
X56305Y-27360D02*
X56303Y-27334D01*
X56300Y-27308D01*
X56294Y-27282D01*
X56286Y-27256D01*
X56276Y-27232D01*
X56264Y-27208D01*
X56249Y-27186D01*
X56233Y-27164D01*
X56215Y-27145D01*
X56196Y-27127D01*
X56174Y-27111D01*
X56152Y-27096D01*
X56128Y-27084D01*
X56104Y-27074D01*
X56078Y-27066D01*
X56052Y-27060D01*
X56026Y-27057D01*
X56000Y-27055D01*
X55974Y-27057D01*
X55948Y-27060D01*
X55922Y-27066D01*
X55896Y-27074D01*
X55872Y-27084D01*
X55848Y-27096D01*
X55826Y-27111D01*
X55804Y-27127D01*
X55785Y-27145D01*
X55767Y-27164D01*
X55751Y-27186D01*
X55736Y-27208D01*
X55724Y-27232D01*
X55714Y-27256D01*
X55706Y-27282D01*
X55700Y-27308D01*
X55697Y-27334D01*
X55695Y-27360D01*
X56695Y-27360D02*
X56695Y-27640D01*
X57305Y-27360D02*
X57305Y-27640D01*
X56695Y-27640D02*
X56697Y-27666D01*
X56700Y-27692D01*
X56706Y-27718D01*
X56714Y-27744D01*
X56724Y-27768D01*
X56736Y-27792D01*
X56751Y-27814D01*
X56767Y-27836D01*
X56785Y-27855D01*
X56804Y-27873D01*
X56826Y-27889D01*
X56848Y-27904D01*
X56872Y-27916D01*
X56896Y-27926D01*
X56922Y-27934D01*
X56948Y-27940D01*
X56974Y-27943D01*
X57000Y-27945D01*
X57026Y-27943D01*
X57052Y-27940D01*
X57078Y-27934D01*
X57104Y-27926D01*
X57128Y-27916D01*
X57152Y-27904D01*
X57174Y-27889D01*
X57196Y-27873D01*
X57215Y-27855D01*
X57233Y-27836D01*
X57249Y-27814D01*
X57264Y-27792D01*
X57276Y-27768D01*
X57286Y-27744D01*
X57294Y-27718D01*
X57300Y-27692D01*
X57303Y-27666D01*
X57305Y-27640D01*
X57305Y-27360D02*
X57303Y-27334D01*
X57300Y-27308D01*
X57294Y-27282D01*
X57286Y-27256D01*
X57276Y-27232D01*
X57264Y-27208D01*
X57249Y-27186D01*
X57233Y-27164D01*
X57215Y-27145D01*
X57196Y-27127D01*
X57174Y-27111D01*
X57152Y-27096D01*
X57128Y-27084D01*
X57104Y-27074D01*
X57078Y-27066D01*
X57052Y-27060D01*
X57026Y-27057D01*
X57000Y-27055D01*
X56974Y-27057D01*
X56948Y-27060D01*
X56922Y-27066D01*
X56896Y-27074D01*
X56872Y-27084D01*
X56848Y-27096D01*
X56826Y-27111D01*
X56804Y-27127D01*
X56785Y-27145D01*
X56767Y-27164D01*
X56751Y-27186D01*
X56736Y-27208D01*
X56724Y-27232D01*
X56714Y-27256D01*
X56706Y-27282D01*
X56700Y-27308D01*
X56697Y-27334D01*
X56695Y-27360D01*
X57695Y-27360D02*
X57695Y-27640D01*
X58305Y-27360D02*
X58305Y-27640D01*
X57695Y-27640D02*
X57697Y-27666D01*
X57700Y-27692D01*
X57706Y-27718D01*
X57714Y-27744D01*
X57724Y-27768D01*
X57736Y-27792D01*
X57751Y-27814D01*
X57767Y-27836D01*
X57785Y-27855D01*
X57804Y-27873D01*
X57826Y-27889D01*
X57848Y-27904D01*
X57872Y-27916D01*
X57896Y-27926D01*
X57922Y-27934D01*
X57948Y-27940D01*
X57974Y-27943D01*
X58000Y-27945D01*
X58026Y-27943D01*
X58052Y-27940D01*
X58078Y-27934D01*
X58104Y-27926D01*
X58128Y-27916D01*
X58152Y-27904D01*
X58174Y-27889D01*
X58196Y-27873D01*
X58215Y-27855D01*
X58233Y-27836D01*
X58249Y-27814D01*
X58264Y-27792D01*
X58276Y-27768D01*
X58286Y-27744D01*
X58294Y-27718D01*
X58300Y-27692D01*
X58303Y-27666D01*
X58305Y-27640D01*
X58305Y-27360D02*
X58303Y-27334D01*
X58300Y-27308D01*
X58294Y-27282D01*
X58286Y-27256D01*
X58276Y-27232D01*
X58264Y-27208D01*
X58249Y-27186D01*
X58233Y-27164D01*
X58215Y-27145D01*
X58196Y-27127D01*
X58174Y-27111D01*
X58152Y-27096D01*
X58128Y-27084D01*
X58104Y-27074D01*
X58078Y-27066D01*
X58052Y-27060D01*
X58026Y-27057D01*
X58000Y-27055D01*
X57974Y-27057D01*
X57948Y-27060D01*
X57922Y-27066D01*
X57896Y-27074D01*
X57872Y-27084D01*
X57848Y-27096D01*
X57826Y-27111D01*
X57804Y-27127D01*
X57785Y-27145D01*
X57767Y-27164D01*
X57751Y-27186D01*
X57736Y-27208D01*
X57724Y-27232D01*
X57714Y-27256D01*
X57706Y-27282D01*
X57700Y-27308D01*
X57697Y-27334D01*
X57695Y-27360D01*
X58695Y-27360D02*
X58695Y-27640D01*
X59305Y-27360D02*
X59305Y-27640D01*
X58695Y-27640D02*
X58697Y-27666D01*
X58700Y-27692D01*
X58706Y-27718D01*
X58714Y-27744D01*
X58724Y-27768D01*
X58736Y-27792D01*
X58751Y-27814D01*
X58767Y-27836D01*
X58785Y-27855D01*
X58804Y-27873D01*
X58826Y-27889D01*
X58848Y-27904D01*
X58872Y-27916D01*
X58896Y-27926D01*
X58922Y-27934D01*
X58948Y-27940D01*
X58974Y-27943D01*
X59000Y-27945D01*
X59026Y-27943D01*
X59052Y-27940D01*
X59078Y-27934D01*
X59104Y-27926D01*
X59128Y-27916D01*
X59152Y-27904D01*
X59174Y-27889D01*
X59196Y-27873D01*
X59215Y-27855D01*
X59233Y-27836D01*
X59249Y-27814D01*
X59264Y-27792D01*
X59276Y-27768D01*
X59286Y-27744D01*
X59294Y-27718D01*
X59300Y-27692D01*
X59303Y-27666D01*
X59305Y-27640D01*
X59305Y-27360D02*
X59303Y-27334D01*
X59300Y-27308D01*
X59294Y-27282D01*
X59286Y-27256D01*
X59276Y-27232D01*
X59264Y-27208D01*
X59249Y-27186D01*
X59233Y-27164D01*
X59215Y-27145D01*
X59196Y-27127D01*
X59174Y-27111D01*
X59152Y-27096D01*
X59128Y-27084D01*
X59104Y-27074D01*
X59078Y-27066D01*
X59052Y-27060D01*
X59026Y-27057D01*
X59000Y-27055D01*
X58974Y-27057D01*
X58948Y-27060D01*
X58922Y-27066D01*
X58896Y-27074D01*
X58872Y-27084D01*
X58848Y-27096D01*
X58826Y-27111D01*
X58804Y-27127D01*
X58785Y-27145D01*
X58767Y-27164D01*
X58751Y-27186D01*
X58736Y-27208D01*
X58724Y-27232D01*
X58714Y-27256D01*
X58706Y-27282D01*
X58700Y-27308D01*
X58697Y-27334D01*
X58695Y-27360D01*
X59695Y-27360D02*
X59695Y-27640D01*
X60305Y-27360D02*
X60305Y-27640D01*
X59695Y-27640D02*
X59697Y-27666D01*
X59700Y-27692D01*
X59706Y-27718D01*
X59714Y-27744D01*
X59724Y-27768D01*
X59736Y-27792D01*
X59751Y-27814D01*
X59767Y-27836D01*
X59785Y-27855D01*
X59804Y-27873D01*
X59826Y-27889D01*
X59848Y-27904D01*
X59872Y-27916D01*
X59896Y-27926D01*
X59922Y-27934D01*
X59948Y-27940D01*
X59974Y-27943D01*
X60000Y-27945D01*
X60026Y-27943D01*
X60052Y-27940D01*
X60078Y-27934D01*
X60104Y-27926D01*
X60128Y-27916D01*
X60152Y-27904D01*
X60174Y-27889D01*
X60196Y-27873D01*
X60215Y-27855D01*
X60233Y-27836D01*
X60249Y-27814D01*
X60264Y-27792D01*
X60276Y-27768D01*
X60286Y-27744D01*
X60294Y-27718D01*
X60300Y-27692D01*
X60303Y-27666D01*
X60305Y-27640D01*
X60305Y-27360D02*
X60303Y-27334D01*
X60300Y-27308D01*
X60294Y-27282D01*
X60286Y-27256D01*
X60276Y-27232D01*
X60264Y-27208D01*
X60249Y-27186D01*
X60233Y-27164D01*
X60215Y-27145D01*
X60196Y-27127D01*
X60174Y-27111D01*
X60152Y-27096D01*
X60128Y-27084D01*
X60104Y-27074D01*
X60078Y-27066D01*
X60052Y-27060D01*
X60026Y-27057D01*
X60000Y-27055D01*
X59974Y-27057D01*
X59948Y-27060D01*
X59922Y-27066D01*
X59896Y-27074D01*
X59872Y-27084D01*
X59848Y-27096D01*
X59826Y-27111D01*
X59804Y-27127D01*
X59785Y-27145D01*
X59767Y-27164D01*
X59751Y-27186D01*
X59736Y-27208D01*
X59724Y-27232D01*
X59714Y-27256D01*
X59706Y-27282D01*
X59700Y-27308D01*
X59697Y-27334D01*
X59695Y-27360D01*
X60695Y-27360D02*
X60695Y-27640D01*
X61305Y-27360D02*
X61305Y-27640D01*
X60695Y-27640D02*
X60697Y-27666D01*
X60700Y-27692D01*
X60706Y-27718D01*
X60714Y-27744D01*
X60724Y-27768D01*
X60736Y-27792D01*
X60751Y-27814D01*
X60767Y-27836D01*
X60785Y-27855D01*
X60804Y-27873D01*
X60826Y-27889D01*
X60848Y-27904D01*
X60872Y-27916D01*
X60896Y-27926D01*
X60922Y-27934D01*
X60948Y-27940D01*
X60974Y-27943D01*
X61000Y-27945D01*
X61026Y-27943D01*
X61052Y-27940D01*
X61078Y-27934D01*
X61104Y-27926D01*
X61128Y-27916D01*
X61152Y-27904D01*
X61174Y-27889D01*
X61196Y-27873D01*
X61215Y-27855D01*
X61233Y-27836D01*
X61249Y-27814D01*
X61264Y-27792D01*
X61276Y-27768D01*
X61286Y-27744D01*
X61294Y-27718D01*
X61300Y-27692D01*
X61303Y-27666D01*
X61305Y-27640D01*
X61305Y-27360D02*
X61303Y-27334D01*
X61300Y-27308D01*
X61294Y-27282D01*
X61286Y-27256D01*
X61276Y-27232D01*
X61264Y-27208D01*
X61249Y-27186D01*
X61233Y-27164D01*
X61215Y-27145D01*
X61196Y-27127D01*
X61174Y-27111D01*
X61152Y-27096D01*
X61128Y-27084D01*
X61104Y-27074D01*
X61078Y-27066D01*
X61052Y-27060D01*
X61026Y-27057D01*
X61000Y-27055D01*
X60974Y-27057D01*
X60948Y-27060D01*
X60922Y-27066D01*
X60896Y-27074D01*
X60872Y-27084D01*
X60848Y-27096D01*
X60826Y-27111D01*
X60804Y-27127D01*
X60785Y-27145D01*
X60767Y-27164D01*
X60751Y-27186D01*
X60736Y-27208D01*
X60724Y-27232D01*
X60714Y-27256D01*
X60706Y-27282D01*
X60700Y-27308D01*
X60697Y-27334D01*
X60695Y-27360D01*
X61695Y-27360D02*
X61695Y-27640D01*
X62305Y-27360D02*
X62305Y-27640D01*
X61695Y-27640D02*
X61697Y-27666D01*
X61700Y-27692D01*
X61706Y-27718D01*
X61714Y-27744D01*
X61724Y-27768D01*
X61736Y-27792D01*
X61751Y-27814D01*
X61767Y-27836D01*
X61785Y-27855D01*
X61804Y-27873D01*
X61826Y-27889D01*
X61848Y-27904D01*
X61872Y-27916D01*
X61896Y-27926D01*
X61922Y-27934D01*
X61948Y-27940D01*
X61974Y-27943D01*
X62000Y-27945D01*
X62026Y-27943D01*
X62052Y-27940D01*
X62078Y-27934D01*
X62104Y-27926D01*
X62128Y-27916D01*
X62152Y-27904D01*
X62174Y-27889D01*
X62196Y-27873D01*
X62215Y-27855D01*
X62233Y-27836D01*
X62249Y-27814D01*
X62264Y-27792D01*
X62276Y-27768D01*
X62286Y-27744D01*
X62294Y-27718D01*
X62300Y-27692D01*
X62303Y-27666D01*
X62305Y-27640D01*
X62305Y-27360D02*
X62303Y-27334D01*
X62300Y-27308D01*
X62294Y-27282D01*
X62286Y-27256D01*
X62276Y-27232D01*
X62264Y-27208D01*
X62249Y-27186D01*
X62233Y-27164D01*
X62215Y-27145D01*
X62196Y-27127D01*
X62174Y-27111D01*
X62152Y-27096D01*
X62128Y-27084D01*
X62104Y-27074D01*
X62078Y-27066D01*
X62052Y-27060D01*
X62026Y-27057D01*
X62000Y-27055D01*
X61974Y-27057D01*
X61948Y-27060D01*
X61922Y-27066D01*
X61896Y-27074D01*
X61872Y-27084D01*
X61848Y-27096D01*
X61826Y-27111D01*
X61804Y-27127D01*
X61785Y-27145D01*
X61767Y-27164D01*
X61751Y-27186D01*
X61736Y-27208D01*
X61724Y-27232D01*
X61714Y-27256D01*
X61706Y-27282D01*
X61700Y-27308D01*
X61697Y-27334D01*
X61695Y-27360D01*
X61695Y-21360D02*
X61695Y-21640D01*
X62305Y-21360D02*
X62305Y-21640D01*
X61695Y-21640D02*
X61697Y-21666D01*
X61700Y-21692D01*
X61706Y-21718D01*
X61714Y-21744D01*
X61724Y-21768D01*
X61736Y-21792D01*
X61751Y-21814D01*
X61767Y-21836D01*
X61785Y-21855D01*
X61804Y-21873D01*
X61826Y-21889D01*
X61848Y-21904D01*
X61872Y-21916D01*
X61896Y-21926D01*
X61922Y-21934D01*
X61948Y-21940D01*
X61974Y-21943D01*
X62000Y-21945D01*
X62026Y-21943D01*
X62052Y-21940D01*
X62078Y-21934D01*
X62104Y-21926D01*
X62128Y-21916D01*
X62152Y-21904D01*
X62174Y-21889D01*
X62196Y-21873D01*
X62215Y-21855D01*
X62233Y-21836D01*
X62249Y-21814D01*
X62264Y-21792D01*
X62276Y-21768D01*
X62286Y-21744D01*
X62294Y-21718D01*
X62300Y-21692D01*
X62303Y-21666D01*
X62305Y-21640D01*
X62305Y-21360D02*
X62303Y-21334D01*
X62300Y-21308D01*
X62294Y-21282D01*
X62286Y-21256D01*
X62276Y-21232D01*
X62264Y-21208D01*
X62249Y-21186D01*
X62233Y-21164D01*
X62215Y-21145D01*
X62196Y-21127D01*
X62174Y-21111D01*
X62152Y-21096D01*
X62128Y-21084D01*
X62104Y-21074D01*
X62078Y-21066D01*
X62052Y-21060D01*
X62026Y-21057D01*
X62000Y-21055D01*
X61974Y-21057D01*
X61948Y-21060D01*
X61922Y-21066D01*
X61896Y-21074D01*
X61872Y-21084D01*
X61848Y-21096D01*
X61826Y-21111D01*
X61804Y-21127D01*
X61785Y-21145D01*
X61767Y-21164D01*
X61751Y-21186D01*
X61736Y-21208D01*
X61724Y-21232D01*
X61714Y-21256D01*
X61706Y-21282D01*
X61700Y-21308D01*
X61697Y-21334D01*
X61695Y-21360D01*
X60695Y-21360D02*
X60695Y-21640D01*
X61305Y-21360D02*
X61305Y-21640D01*
X60695Y-21640D02*
X60697Y-21666D01*
X60700Y-21692D01*
X60706Y-21718D01*
X60714Y-21744D01*
X60724Y-21768D01*
X60736Y-21792D01*
X60751Y-21814D01*
X60767Y-21836D01*
X60785Y-21855D01*
X60804Y-21873D01*
X60826Y-21889D01*
X60848Y-21904D01*
X60872Y-21916D01*
X60896Y-21926D01*
X60922Y-21934D01*
X60948Y-21940D01*
X60974Y-21943D01*
X61000Y-21945D01*
X61026Y-21943D01*
X61052Y-21940D01*
X61078Y-21934D01*
X61104Y-21926D01*
X61128Y-21916D01*
X61152Y-21904D01*
X61174Y-21889D01*
X61196Y-21873D01*
X61215Y-21855D01*
X61233Y-21836D01*
X61249Y-21814D01*
X61264Y-21792D01*
X61276Y-21768D01*
X61286Y-21744D01*
X61294Y-21718D01*
X61300Y-21692D01*
X61303Y-21666D01*
X61305Y-21640D01*
X61305Y-21360D02*
X61303Y-21334D01*
X61300Y-21308D01*
X61294Y-21282D01*
X61286Y-21256D01*
X61276Y-21232D01*
X61264Y-21208D01*
X61249Y-21186D01*
X61233Y-21164D01*
X61215Y-21145D01*
X61196Y-21127D01*
X61174Y-21111D01*
X61152Y-21096D01*
X61128Y-21084D01*
X61104Y-21074D01*
X61078Y-21066D01*
X61052Y-21060D01*
X61026Y-21057D01*
X61000Y-21055D01*
X60974Y-21057D01*
X60948Y-21060D01*
X60922Y-21066D01*
X60896Y-21074D01*
X60872Y-21084D01*
X60848Y-21096D01*
X60826Y-21111D01*
X60804Y-21127D01*
X60785Y-21145D01*
X60767Y-21164D01*
X60751Y-21186D01*
X60736Y-21208D01*
X60724Y-21232D01*
X60714Y-21256D01*
X60706Y-21282D01*
X60700Y-21308D01*
X60697Y-21334D01*
X60695Y-21360D01*
X59695Y-21360D02*
X59695Y-21640D01*
X60305Y-21360D02*
X60305Y-21640D01*
X59695Y-21640D02*
X59697Y-21666D01*
X59700Y-21692D01*
X59706Y-21718D01*
X59714Y-21744D01*
X59724Y-21768D01*
X59736Y-21792D01*
X59751Y-21814D01*
X59767Y-21836D01*
X59785Y-21855D01*
X59804Y-21873D01*
X59826Y-21889D01*
X59848Y-21904D01*
X59872Y-21916D01*
X59896Y-21926D01*
X59922Y-21934D01*
X59948Y-21940D01*
X59974Y-21943D01*
X60000Y-21945D01*
X60026Y-21943D01*
X60052Y-21940D01*
X60078Y-21934D01*
X60104Y-21926D01*
X60128Y-21916D01*
X60152Y-21904D01*
X60174Y-21889D01*
X60196Y-21873D01*
X60215Y-21855D01*
X60233Y-21836D01*
X60249Y-21814D01*
X60264Y-21792D01*
X60276Y-21768D01*
X60286Y-21744D01*
X60294Y-21718D01*
X60300Y-21692D01*
X60303Y-21666D01*
X60305Y-21640D01*
X60305Y-21360D02*
X60303Y-21334D01*
X60300Y-21308D01*
X60294Y-21282D01*
X60286Y-21256D01*
X60276Y-21232D01*
X60264Y-21208D01*
X60249Y-21186D01*
X60233Y-21164D01*
X60215Y-21145D01*
X60196Y-21127D01*
X60174Y-21111D01*
X60152Y-21096D01*
X60128Y-21084D01*
X60104Y-21074D01*
X60078Y-21066D01*
X60052Y-21060D01*
X60026Y-21057D01*
X60000Y-21055D01*
X59974Y-21057D01*
X59948Y-21060D01*
X59922Y-21066D01*
X59896Y-21074D01*
X59872Y-21084D01*
X59848Y-21096D01*
X59826Y-21111D01*
X59804Y-21127D01*
X59785Y-21145D01*
X59767Y-21164D01*
X59751Y-21186D01*
X59736Y-21208D01*
X59724Y-21232D01*
X59714Y-21256D01*
X59706Y-21282D01*
X59700Y-21308D01*
X59697Y-21334D01*
X59695Y-21360D01*
X58695Y-21360D02*
X58695Y-21640D01*
X59305Y-21360D02*
X59305Y-21640D01*
X58695Y-21640D02*
X58697Y-21666D01*
X58700Y-21692D01*
X58706Y-21718D01*
X58714Y-21744D01*
X58724Y-21768D01*
X58736Y-21792D01*
X58751Y-21814D01*
X58767Y-21836D01*
X58785Y-21855D01*
X58804Y-21873D01*
X58826Y-21889D01*
X58848Y-21904D01*
X58872Y-21916D01*
X58896Y-21926D01*
X58922Y-21934D01*
X58948Y-21940D01*
X58974Y-21943D01*
X59000Y-21945D01*
X59026Y-21943D01*
X59052Y-21940D01*
X59078Y-21934D01*
X59104Y-21926D01*
X59128Y-21916D01*
X59152Y-21904D01*
X59174Y-21889D01*
X59196Y-21873D01*
X59215Y-21855D01*
X59233Y-21836D01*
X59249Y-21814D01*
X59264Y-21792D01*
X59276Y-21768D01*
X59286Y-21744D01*
X59294Y-21718D01*
X59300Y-21692D01*
X59303Y-21666D01*
X59305Y-21640D01*
X59305Y-21360D02*
X59303Y-21334D01*
X59300Y-21308D01*
X59294Y-21282D01*
X59286Y-21256D01*
X59276Y-21232D01*
X59264Y-21208D01*
X59249Y-21186D01*
X59233Y-21164D01*
X59215Y-21145D01*
X59196Y-21127D01*
X59174Y-21111D01*
X59152Y-21096D01*
X59128Y-21084D01*
X59104Y-21074D01*
X59078Y-21066D01*
X59052Y-21060D01*
X59026Y-21057D01*
X59000Y-21055D01*
X58974Y-21057D01*
X58948Y-21060D01*
X58922Y-21066D01*
X58896Y-21074D01*
X58872Y-21084D01*
X58848Y-21096D01*
X58826Y-21111D01*
X58804Y-21127D01*
X58785Y-21145D01*
X58767Y-21164D01*
X58751Y-21186D01*
X58736Y-21208D01*
X58724Y-21232D01*
X58714Y-21256D01*
X58706Y-21282D01*
X58700Y-21308D01*
X58697Y-21334D01*
X58695Y-21360D01*
X57695Y-21360D02*
X57695Y-21640D01*
X58305Y-21360D02*
X58305Y-21640D01*
X57695Y-21640D02*
X57697Y-21666D01*
X57700Y-21692D01*
X57706Y-21718D01*
X57714Y-21744D01*
X57724Y-21768D01*
X57736Y-21792D01*
X57751Y-21814D01*
X57767Y-21836D01*
X57785Y-21855D01*
X57804Y-21873D01*
X57826Y-21889D01*
X57848Y-21904D01*
X57872Y-21916D01*
X57896Y-21926D01*
X57922Y-21934D01*
X57948Y-21940D01*
X57974Y-21943D01*
X58000Y-21945D01*
X58026Y-21943D01*
X58052Y-21940D01*
X58078Y-21934D01*
X58104Y-21926D01*
X58128Y-21916D01*
X58152Y-21904D01*
X58174Y-21889D01*
X58196Y-21873D01*
X58215Y-21855D01*
X58233Y-21836D01*
X58249Y-21814D01*
X58264Y-21792D01*
X58276Y-21768D01*
X58286Y-21744D01*
X58294Y-21718D01*
X58300Y-21692D01*
X58303Y-21666D01*
X58305Y-21640D01*
X58305Y-21360D02*
X58303Y-21334D01*
X58300Y-21308D01*
X58294Y-21282D01*
X58286Y-21256D01*
X58276Y-21232D01*
X58264Y-21208D01*
X58249Y-21186D01*
X58233Y-21164D01*
X58215Y-21145D01*
X58196Y-21127D01*
X58174Y-21111D01*
X58152Y-21096D01*
X58128Y-21084D01*
X58104Y-21074D01*
X58078Y-21066D01*
X58052Y-21060D01*
X58026Y-21057D01*
X58000Y-21055D01*
X57974Y-21057D01*
X57948Y-21060D01*
X57922Y-21066D01*
X57896Y-21074D01*
X57872Y-21084D01*
X57848Y-21096D01*
X57826Y-21111D01*
X57804Y-21127D01*
X57785Y-21145D01*
X57767Y-21164D01*
X57751Y-21186D01*
X57736Y-21208D01*
X57724Y-21232D01*
X57714Y-21256D01*
X57706Y-21282D01*
X57700Y-21308D01*
X57697Y-21334D01*
X57695Y-21360D01*
X56695Y-21360D02*
X56695Y-21640D01*
X57305Y-21360D02*
X57305Y-21640D01*
X56695Y-21640D02*
X56697Y-21666D01*
X56700Y-21692D01*
X56706Y-21718D01*
X56714Y-21744D01*
X56724Y-21768D01*
X56736Y-21792D01*
X56751Y-21814D01*
X56767Y-21836D01*
X56785Y-21855D01*
X56804Y-21873D01*
X56826Y-21889D01*
X56848Y-21904D01*
X56872Y-21916D01*
X56896Y-21926D01*
X56922Y-21934D01*
X56948Y-21940D01*
X56974Y-21943D01*
X57000Y-21945D01*
X57026Y-21943D01*
X57052Y-21940D01*
X57078Y-21934D01*
X57104Y-21926D01*
X57128Y-21916D01*
X57152Y-21904D01*
X57174Y-21889D01*
X57196Y-21873D01*
X57215Y-21855D01*
X57233Y-21836D01*
X57249Y-21814D01*
X57264Y-21792D01*
X57276Y-21768D01*
X57286Y-21744D01*
X57294Y-21718D01*
X57300Y-21692D01*
X57303Y-21666D01*
X57305Y-21640D01*
X57305Y-21360D02*
X57303Y-21334D01*
X57300Y-21308D01*
X57294Y-21282D01*
X57286Y-21256D01*
X57276Y-21232D01*
X57264Y-21208D01*
X57249Y-21186D01*
X57233Y-21164D01*
X57215Y-21145D01*
X57196Y-21127D01*
X57174Y-21111D01*
X57152Y-21096D01*
X57128Y-21084D01*
X57104Y-21074D01*
X57078Y-21066D01*
X57052Y-21060D01*
X57026Y-21057D01*
X57000Y-21055D01*
X56974Y-21057D01*
X56948Y-21060D01*
X56922Y-21066D01*
X56896Y-21074D01*
X56872Y-21084D01*
X56848Y-21096D01*
X56826Y-21111D01*
X56804Y-21127D01*
X56785Y-21145D01*
X56767Y-21164D01*
X56751Y-21186D01*
X56736Y-21208D01*
X56724Y-21232D01*
X56714Y-21256D01*
X56706Y-21282D01*
X56700Y-21308D01*
X56697Y-21334D01*
X56695Y-21360D01*
X55695Y-21360D02*
X55695Y-21640D01*
X56305Y-21360D02*
X56305Y-21640D01*
X55695Y-21640D02*
X55697Y-21666D01*
X55700Y-21692D01*
X55706Y-21718D01*
X55714Y-21744D01*
X55724Y-21768D01*
X55736Y-21792D01*
X55751Y-21814D01*
X55767Y-21836D01*
X55785Y-21855D01*
X55804Y-21873D01*
X55826Y-21889D01*
X55848Y-21904D01*
X55872Y-21916D01*
X55896Y-21926D01*
X55922Y-21934D01*
X55948Y-21940D01*
X55974Y-21943D01*
X56000Y-21945D01*
X56026Y-21943D01*
X56052Y-21940D01*
X56078Y-21934D01*
X56104Y-21926D01*
X56128Y-21916D01*
X56152Y-21904D01*
X56174Y-21889D01*
X56196Y-21873D01*
X56215Y-21855D01*
X56233Y-21836D01*
X56249Y-21814D01*
X56264Y-21792D01*
X56276Y-21768D01*
X56286Y-21744D01*
X56294Y-21718D01*
X56300Y-21692D01*
X56303Y-21666D01*
X56305Y-21640D01*
X56305Y-21360D02*
X56303Y-21334D01*
X56300Y-21308D01*
X56294Y-21282D01*
X56286Y-21256D01*
X56276Y-21232D01*
X56264Y-21208D01*
X56249Y-21186D01*
X56233Y-21164D01*
X56215Y-21145D01*
X56196Y-21127D01*
X56174Y-21111D01*
X56152Y-21096D01*
X56128Y-21084D01*
X56104Y-21074D01*
X56078Y-21066D01*
X56052Y-21060D01*
X56026Y-21057D01*
X56000Y-21055D01*
X55974Y-21057D01*
X55948Y-21060D01*
X55922Y-21066D01*
X55896Y-21074D01*
X55872Y-21084D01*
X55848Y-21096D01*
X55826Y-21111D01*
X55804Y-21127D01*
X55785Y-21145D01*
X55767Y-21164D01*
X55751Y-21186D01*
X55736Y-21208D01*
X55724Y-21232D01*
X55714Y-21256D01*
X55706Y-21282D01*
X55700Y-21308D01*
X55697Y-21334D01*
X55695Y-21360D01*
X54695Y-21360D02*
X54695Y-21640D01*
X55305Y-21360D02*
X55305Y-21640D01*
X54695Y-21640D02*
X54697Y-21666D01*
X54700Y-21692D01*
X54706Y-21718D01*
X54714Y-21744D01*
X54724Y-21768D01*
X54736Y-21792D01*
X54751Y-21814D01*
X54767Y-21836D01*
X54785Y-21855D01*
X54804Y-21873D01*
X54826Y-21889D01*
X54848Y-21904D01*
X54872Y-21916D01*
X54896Y-21926D01*
X54922Y-21934D01*
X54948Y-21940D01*
X54974Y-21943D01*
X55000Y-21945D01*
X55026Y-21943D01*
X55052Y-21940D01*
X55078Y-21934D01*
X55104Y-21926D01*
X55128Y-21916D01*
X55152Y-21904D01*
X55174Y-21889D01*
X55196Y-21873D01*
X55215Y-21855D01*
X55233Y-21836D01*
X55249Y-21814D01*
X55264Y-21792D01*
X55276Y-21768D01*
X55286Y-21744D01*
X55294Y-21718D01*
X55300Y-21692D01*
X55303Y-21666D01*
X55305Y-21640D01*
X55305Y-21360D02*
X55303Y-21334D01*
X55300Y-21308D01*
X55294Y-21282D01*
X55286Y-21256D01*
X55276Y-21232D01*
X55264Y-21208D01*
X55249Y-21186D01*
X55233Y-21164D01*
X55215Y-21145D01*
X55196Y-21127D01*
X55174Y-21111D01*
X55152Y-21096D01*
X55128Y-21084D01*
X55104Y-21074D01*
X55078Y-21066D01*
X55052Y-21060D01*
X55026Y-21057D01*
X55000Y-21055D01*
X54974Y-21057D01*
X54948Y-21060D01*
X54922Y-21066D01*
X54896Y-21074D01*
X54872Y-21084D01*
X54848Y-21096D01*
X54826Y-21111D01*
X54804Y-21127D01*
X54785Y-21145D01*
X54767Y-21164D01*
X54751Y-21186D01*
X54736Y-21208D01*
X54724Y-21232D01*
X54714Y-21256D01*
X54706Y-21282D01*
X54700Y-21308D01*
X54697Y-21334D01*
X54695Y-21360D01*
X53695Y-21360D02*
X53695Y-21640D01*
X54305Y-21360D02*
X54305Y-21640D01*
X53695Y-21640D02*
X53697Y-21666D01*
X53700Y-21692D01*
X53706Y-21718D01*
X53714Y-21744D01*
X53724Y-21768D01*
X53736Y-21792D01*
X53751Y-21814D01*
X53767Y-21836D01*
X53785Y-21855D01*
X53804Y-21873D01*
X53826Y-21889D01*
X53848Y-21904D01*
X53872Y-21916D01*
X53896Y-21926D01*
X53922Y-21934D01*
X53948Y-21940D01*
X53974Y-21943D01*
X54000Y-21945D01*
X54026Y-21943D01*
X54052Y-21940D01*
X54078Y-21934D01*
X54104Y-21926D01*
X54128Y-21916D01*
X54152Y-21904D01*
X54174Y-21889D01*
X54196Y-21873D01*
X54215Y-21855D01*
X54233Y-21836D01*
X54249Y-21814D01*
X54264Y-21792D01*
X54276Y-21768D01*
X54286Y-21744D01*
X54294Y-21718D01*
X54300Y-21692D01*
X54303Y-21666D01*
X54305Y-21640D01*
X54305Y-21360D02*
X54303Y-21334D01*
X54300Y-21308D01*
X54294Y-21282D01*
X54286Y-21256D01*
X54276Y-21232D01*
X54264Y-21208D01*
X54249Y-21186D01*
X54233Y-21164D01*
X54215Y-21145D01*
X54196Y-21127D01*
X54174Y-21111D01*
X54152Y-21096D01*
X54128Y-21084D01*
X54104Y-21074D01*
X54078Y-21066D01*
X54052Y-21060D01*
X54026Y-21057D01*
X54000Y-21055D01*
X53974Y-21057D01*
X53948Y-21060D01*
X53922Y-21066D01*
X53896Y-21074D01*
X53872Y-21084D01*
X53848Y-21096D01*
X53826Y-21111D01*
X53804Y-21127D01*
X53785Y-21145D01*
X53767Y-21164D01*
X53751Y-21186D01*
X53736Y-21208D01*
X53724Y-21232D01*
X53714Y-21256D01*
X53706Y-21282D01*
X53700Y-21308D01*
X53697Y-21334D01*
X53695Y-21360D01*
X52695Y-21360D02*
X52695Y-21640D01*
X53305Y-21360D02*
X53305Y-21640D01*
X52695Y-21640D02*
X52697Y-21666D01*
X52700Y-21692D01*
X52706Y-21718D01*
X52714Y-21744D01*
X52724Y-21768D01*
X52736Y-21792D01*
X52751Y-21814D01*
X52767Y-21836D01*
X52785Y-21855D01*
X52804Y-21873D01*
X52826Y-21889D01*
X52848Y-21904D01*
X52872Y-21916D01*
X52896Y-21926D01*
X52922Y-21934D01*
X52948Y-21940D01*
X52974Y-21943D01*
X53000Y-21945D01*
X53026Y-21943D01*
X53052Y-21940D01*
X53078Y-21934D01*
X53104Y-21926D01*
X53128Y-21916D01*
X53152Y-21904D01*
X53174Y-21889D01*
X53196Y-21873D01*
X53215Y-21855D01*
X53233Y-21836D01*
X53249Y-21814D01*
X53264Y-21792D01*
X53276Y-21768D01*
X53286Y-21744D01*
X53294Y-21718D01*
X53300Y-21692D01*
X53303Y-21666D01*
X53305Y-21640D01*
X53305Y-21360D02*
X53303Y-21334D01*
X53300Y-21308D01*
X53294Y-21282D01*
X53286Y-21256D01*
X53276Y-21232D01*
X53264Y-21208D01*
X53249Y-21186D01*
X53233Y-21164D01*
X53215Y-21145D01*
X53196Y-21127D01*
X53174Y-21111D01*
X53152Y-21096D01*
X53128Y-21084D01*
X53104Y-21074D01*
X53078Y-21066D01*
X53052Y-21060D01*
X53026Y-21057D01*
X53000Y-21055D01*
X52974Y-21057D01*
X52948Y-21060D01*
X52922Y-21066D01*
X52896Y-21074D01*
X52872Y-21084D01*
X52848Y-21096D01*
X52826Y-21111D01*
X52804Y-21127D01*
X52785Y-21145D01*
X52767Y-21164D01*
X52751Y-21186D01*
X52736Y-21208D01*
X52724Y-21232D01*
X52714Y-21256D01*
X52706Y-21282D01*
X52700Y-21308D01*
X52697Y-21334D01*
X52695Y-21360D01*
X51695Y-21360D02*
X51695Y-21640D01*
X52305Y-21360D02*
X52305Y-21640D01*
X51695Y-21640D02*
X51697Y-21666D01*
X51700Y-21692D01*
X51706Y-21718D01*
X51714Y-21744D01*
X51724Y-21768D01*
X51736Y-21792D01*
X51751Y-21814D01*
X51767Y-21836D01*
X51785Y-21855D01*
X51804Y-21873D01*
X51826Y-21889D01*
X51848Y-21904D01*
X51872Y-21916D01*
X51896Y-21926D01*
X51922Y-21934D01*
X51948Y-21940D01*
X51974Y-21943D01*
X52000Y-21945D01*
X52026Y-21943D01*
X52052Y-21940D01*
X52078Y-21934D01*
X52104Y-21926D01*
X52128Y-21916D01*
X52152Y-21904D01*
X52174Y-21889D01*
X52196Y-21873D01*
X52215Y-21855D01*
X52233Y-21836D01*
X52249Y-21814D01*
X52264Y-21792D01*
X52276Y-21768D01*
X52286Y-21744D01*
X52294Y-21718D01*
X52300Y-21692D01*
X52303Y-21666D01*
X52305Y-21640D01*
X52305Y-21360D02*
X52303Y-21334D01*
X52300Y-21308D01*
X52294Y-21282D01*
X52286Y-21256D01*
X52276Y-21232D01*
X52264Y-21208D01*
X52249Y-21186D01*
X52233Y-21164D01*
X52215Y-21145D01*
X52196Y-21127D01*
X52174Y-21111D01*
X52152Y-21096D01*
X52128Y-21084D01*
X52104Y-21074D01*
X52078Y-21066D01*
X52052Y-21060D01*
X52026Y-21057D01*
X52000Y-21055D01*
X51974Y-21057D01*
X51948Y-21060D01*
X51922Y-21066D01*
X51896Y-21074D01*
X51872Y-21084D01*
X51848Y-21096D01*
X51826Y-21111D01*
X51804Y-21127D01*
X51785Y-21145D01*
X51767Y-21164D01*
X51751Y-21186D01*
X51736Y-21208D01*
X51724Y-21232D01*
X51714Y-21256D01*
X51706Y-21282D01*
X51700Y-21308D01*
X51697Y-21334D01*
X51695Y-21360D01*
X50695Y-21360D02*
X50695Y-21640D01*
X51305Y-21360D02*
X51305Y-21640D01*
X50695Y-21640D02*
X50697Y-21666D01*
X50700Y-21692D01*
X50706Y-21718D01*
X50714Y-21744D01*
X50724Y-21768D01*
X50736Y-21792D01*
X50751Y-21814D01*
X50767Y-21836D01*
X50785Y-21855D01*
X50804Y-21873D01*
X50826Y-21889D01*
X50848Y-21904D01*
X50872Y-21916D01*
X50896Y-21926D01*
X50922Y-21934D01*
X50948Y-21940D01*
X50974Y-21943D01*
X51000Y-21945D01*
X51026Y-21943D01*
X51052Y-21940D01*
X51078Y-21934D01*
X51104Y-21926D01*
X51128Y-21916D01*
X51152Y-21904D01*
X51174Y-21889D01*
X51196Y-21873D01*
X51215Y-21855D01*
X51233Y-21836D01*
X51249Y-21814D01*
X51264Y-21792D01*
X51276Y-21768D01*
X51286Y-21744D01*
X51294Y-21718D01*
X51300Y-21692D01*
X51303Y-21666D01*
X51305Y-21640D01*
X51305Y-21360D02*
X51303Y-21334D01*
X51300Y-21308D01*
X51294Y-21282D01*
X51286Y-21256D01*
X51276Y-21232D01*
X51264Y-21208D01*
X51249Y-21186D01*
X51233Y-21164D01*
X51215Y-21145D01*
X51196Y-21127D01*
X51174Y-21111D01*
X51152Y-21096D01*
X51128Y-21084D01*
X51104Y-21074D01*
X51078Y-21066D01*
X51052Y-21060D01*
X51026Y-21057D01*
X51000Y-21055D01*
X50974Y-21057D01*
X50948Y-21060D01*
X50922Y-21066D01*
X50896Y-21074D01*
X50872Y-21084D01*
X50848Y-21096D01*
X50826Y-21111D01*
X50804Y-21127D01*
X50785Y-21145D01*
X50767Y-21164D01*
X50751Y-21186D01*
X50736Y-21208D01*
X50724Y-21232D01*
X50714Y-21256D01*
X50706Y-21282D01*
X50700Y-21308D01*
X50697Y-21334D01*
X50695Y-21360D01*
X49695Y-21360D02*
X49695Y-21640D01*
X50305Y-21360D02*
X50305Y-21640D01*
X49695Y-21640D02*
X49697Y-21666D01*
X49700Y-21692D01*
X49706Y-21718D01*
X49714Y-21744D01*
X49724Y-21768D01*
X49736Y-21792D01*
X49751Y-21814D01*
X49767Y-21836D01*
X49785Y-21855D01*
X49804Y-21873D01*
X49826Y-21889D01*
X49848Y-21904D01*
X49872Y-21916D01*
X49896Y-21926D01*
X49922Y-21934D01*
X49948Y-21940D01*
X49974Y-21943D01*
X50000Y-21945D01*
X50026Y-21943D01*
X50052Y-21940D01*
X50078Y-21934D01*
X50104Y-21926D01*
X50128Y-21916D01*
X50152Y-21904D01*
X50174Y-21889D01*
X50196Y-21873D01*
X50215Y-21855D01*
X50233Y-21836D01*
X50249Y-21814D01*
X50264Y-21792D01*
X50276Y-21768D01*
X50286Y-21744D01*
X50294Y-21718D01*
X50300Y-21692D01*
X50303Y-21666D01*
X50305Y-21640D01*
X50305Y-21360D02*
X50303Y-21334D01*
X50300Y-21308D01*
X50294Y-21282D01*
X50286Y-21256D01*
X50276Y-21232D01*
X50264Y-21208D01*
X50249Y-21186D01*
X50233Y-21164D01*
X50215Y-21145D01*
X50196Y-21127D01*
X50174Y-21111D01*
X50152Y-21096D01*
X50128Y-21084D01*
X50104Y-21074D01*
X50078Y-21066D01*
X50052Y-21060D01*
X50026Y-21057D01*
X50000Y-21055D01*
X49974Y-21057D01*
X49948Y-21060D01*
X49922Y-21066D01*
X49896Y-21074D01*
X49872Y-21084D01*
X49848Y-21096D01*
X49826Y-21111D01*
X49804Y-21127D01*
X49785Y-21145D01*
X49767Y-21164D01*
X49751Y-21186D01*
X49736Y-21208D01*
X49724Y-21232D01*
X49714Y-21256D01*
X49706Y-21282D01*
X49700Y-21308D01*
X49697Y-21334D01*
X49695Y-21360D01*
X48695Y-21360D02*
X48695Y-21640D01*
X49305Y-21360D02*
X49305Y-21640D01*
X48695Y-21640D02*
X48697Y-21666D01*
X48700Y-21692D01*
X48706Y-21718D01*
X48714Y-21744D01*
X48724Y-21768D01*
X48736Y-21792D01*
X48751Y-21814D01*
X48767Y-21836D01*
X48785Y-21855D01*
X48804Y-21873D01*
X48826Y-21889D01*
X48848Y-21904D01*
X48872Y-21916D01*
X48896Y-21926D01*
X48922Y-21934D01*
X48948Y-21940D01*
X48974Y-21943D01*
X49000Y-21945D01*
X49026Y-21943D01*
X49052Y-21940D01*
X49078Y-21934D01*
X49104Y-21926D01*
X49128Y-21916D01*
X49152Y-21904D01*
X49174Y-21889D01*
X49196Y-21873D01*
X49215Y-21855D01*
X49233Y-21836D01*
X49249Y-21814D01*
X49264Y-21792D01*
X49276Y-21768D01*
X49286Y-21744D01*
X49294Y-21718D01*
X49300Y-21692D01*
X49303Y-21666D01*
X49305Y-21640D01*
X49305Y-21360D02*
X49303Y-21334D01*
X49300Y-21308D01*
X49294Y-21282D01*
X49286Y-21256D01*
X49276Y-21232D01*
X49264Y-21208D01*
X49249Y-21186D01*
X49233Y-21164D01*
X49215Y-21145D01*
X49196Y-21127D01*
X49174Y-21111D01*
X49152Y-21096D01*
X49128Y-21084D01*
X49104Y-21074D01*
X49078Y-21066D01*
X49052Y-21060D01*
X49026Y-21057D01*
X49000Y-21055D01*
X48974Y-21057D01*
X48948Y-21060D01*
X48922Y-21066D01*
X48896Y-21074D01*
X48872Y-21084D01*
X48848Y-21096D01*
X48826Y-21111D01*
X48804Y-21127D01*
X48785Y-21145D01*
X48767Y-21164D01*
X48751Y-21186D01*
X48736Y-21208D01*
X48724Y-21232D01*
X48714Y-21256D01*
X48706Y-21282D01*
X48700Y-21308D01*
X48697Y-21334D01*
X48695Y-21360D01*
X47695Y-21360D02*
X47695Y-21640D01*
X48305Y-21360D02*
X48305Y-21640D01*
X47695Y-21640D02*
X47697Y-21666D01*
X47700Y-21692D01*
X47706Y-21718D01*
X47714Y-21744D01*
X47724Y-21768D01*
X47736Y-21792D01*
X47751Y-21814D01*
X47767Y-21836D01*
X47785Y-21855D01*
X47804Y-21873D01*
X47826Y-21889D01*
X47848Y-21904D01*
X47872Y-21916D01*
X47896Y-21926D01*
X47922Y-21934D01*
X47948Y-21940D01*
X47974Y-21943D01*
X48000Y-21945D01*
X48026Y-21943D01*
X48052Y-21940D01*
X48078Y-21934D01*
X48104Y-21926D01*
X48128Y-21916D01*
X48152Y-21904D01*
X48174Y-21889D01*
X48196Y-21873D01*
X48215Y-21855D01*
X48233Y-21836D01*
X48249Y-21814D01*
X48264Y-21792D01*
X48276Y-21768D01*
X48286Y-21744D01*
X48294Y-21718D01*
X48300Y-21692D01*
X48303Y-21666D01*
X48305Y-21640D01*
X48305Y-21360D02*
X48303Y-21334D01*
X48300Y-21308D01*
X48294Y-21282D01*
X48286Y-21256D01*
X48276Y-21232D01*
X48264Y-21208D01*
X48249Y-21186D01*
X48233Y-21164D01*
X48215Y-21145D01*
X48196Y-21127D01*
X48174Y-21111D01*
X48152Y-21096D01*
X48128Y-21084D01*
X48104Y-21074D01*
X48078Y-21066D01*
X48052Y-21060D01*
X48026Y-21057D01*
X48000Y-21055D01*
X47974Y-21057D01*
X47948Y-21060D01*
X47922Y-21066D01*
X47896Y-21074D01*
X47872Y-21084D01*
X47848Y-21096D01*
X47826Y-21111D01*
X47804Y-21127D01*
X47785Y-21145D01*
X47767Y-21164D01*
X47751Y-21186D01*
X47736Y-21208D01*
X47724Y-21232D01*
X47714Y-21256D01*
X47706Y-21282D01*
X47700Y-21308D01*
X47697Y-21334D01*
X47695Y-21360D01*
X46695Y-21360D02*
X46695Y-21640D01*
X47305Y-21360D02*
X47305Y-21640D01*
X46695Y-21640D02*
X46697Y-21666D01*
X46700Y-21692D01*
X46706Y-21718D01*
X46714Y-21744D01*
X46724Y-21768D01*
X46736Y-21792D01*
X46751Y-21814D01*
X46767Y-21836D01*
X46785Y-21855D01*
X46804Y-21873D01*
X46826Y-21889D01*
X46848Y-21904D01*
X46872Y-21916D01*
X46896Y-21926D01*
X46922Y-21934D01*
X46948Y-21940D01*
X46974Y-21943D01*
X47000Y-21945D01*
X47026Y-21943D01*
X47052Y-21940D01*
X47078Y-21934D01*
X47104Y-21926D01*
X47128Y-21916D01*
X47152Y-21904D01*
X47174Y-21889D01*
X47196Y-21873D01*
X47215Y-21855D01*
X47233Y-21836D01*
X47249Y-21814D01*
X47264Y-21792D01*
X47276Y-21768D01*
X47286Y-21744D01*
X47294Y-21718D01*
X47300Y-21692D01*
X47303Y-21666D01*
X47305Y-21640D01*
X47305Y-21360D02*
X47303Y-21334D01*
X47300Y-21308D01*
X47294Y-21282D01*
X47286Y-21256D01*
X47276Y-21232D01*
X47264Y-21208D01*
X47249Y-21186D01*
X47233Y-21164D01*
X47215Y-21145D01*
X47196Y-21127D01*
X47174Y-21111D01*
X47152Y-21096D01*
X47128Y-21084D01*
X47104Y-21074D01*
X47078Y-21066D01*
X47052Y-21060D01*
X47026Y-21057D01*
X47000Y-21055D01*
X46974Y-21057D01*
X46948Y-21060D01*
X46922Y-21066D01*
X46896Y-21074D01*
X46872Y-21084D01*
X46848Y-21096D01*
X46826Y-21111D01*
X46804Y-21127D01*
X46785Y-21145D01*
X46767Y-21164D01*
X46751Y-21186D01*
X46736Y-21208D01*
X46724Y-21232D01*
X46714Y-21256D01*
X46706Y-21282D01*
X46700Y-21308D01*
X46697Y-21334D01*
X46695Y-21360D01*
X45695Y-21360D02*
X45695Y-21640D01*
X46305Y-21360D02*
X46305Y-21640D01*
X45695Y-21640D02*
X45697Y-21666D01*
X45700Y-21692D01*
X45706Y-21718D01*
X45714Y-21744D01*
X45724Y-21768D01*
X45736Y-21792D01*
X45751Y-21814D01*
X45767Y-21836D01*
X45785Y-21855D01*
X45804Y-21873D01*
X45826Y-21889D01*
X45848Y-21904D01*
X45872Y-21916D01*
X45896Y-21926D01*
X45922Y-21934D01*
X45948Y-21940D01*
X45974Y-21943D01*
X46000Y-21945D01*
X46026Y-21943D01*
X46052Y-21940D01*
X46078Y-21934D01*
X46104Y-21926D01*
X46128Y-21916D01*
X46152Y-21904D01*
X46174Y-21889D01*
X46196Y-21873D01*
X46215Y-21855D01*
X46233Y-21836D01*
X46249Y-21814D01*
X46264Y-21792D01*
X46276Y-21768D01*
X46286Y-21744D01*
X46294Y-21718D01*
X46300Y-21692D01*
X46303Y-21666D01*
X46305Y-21640D01*
X46305Y-21360D02*
X46303Y-21334D01*
X46300Y-21308D01*
X46294Y-21282D01*
X46286Y-21256D01*
X46276Y-21232D01*
X46264Y-21208D01*
X46249Y-21186D01*
X46233Y-21164D01*
X46215Y-21145D01*
X46196Y-21127D01*
X46174Y-21111D01*
X46152Y-21096D01*
X46128Y-21084D01*
X46104Y-21074D01*
X46078Y-21066D01*
X46052Y-21060D01*
X46026Y-21057D01*
X46000Y-21055D01*
X45974Y-21057D01*
X45948Y-21060D01*
X45922Y-21066D01*
X45896Y-21074D01*
X45872Y-21084D01*
X45848Y-21096D01*
X45826Y-21111D01*
X45804Y-21127D01*
X45785Y-21145D01*
X45767Y-21164D01*
X45751Y-21186D01*
X45736Y-21208D01*
X45724Y-21232D01*
X45714Y-21256D01*
X45706Y-21282D01*
X45700Y-21308D01*
X45697Y-21334D01*
X45695Y-21360D01*
X44695Y-21360D02*
X44695Y-21640D01*
X45305Y-21360D02*
X45305Y-21640D01*
X44695Y-21640D02*
X44697Y-21666D01*
X44700Y-21692D01*
X44706Y-21718D01*
X44714Y-21744D01*
X44724Y-21768D01*
X44736Y-21792D01*
X44751Y-21814D01*
X44767Y-21836D01*
X44785Y-21855D01*
X44804Y-21873D01*
X44826Y-21889D01*
X44848Y-21904D01*
X44872Y-21916D01*
X44896Y-21926D01*
X44922Y-21934D01*
X44948Y-21940D01*
X44974Y-21943D01*
X45000Y-21945D01*
X45026Y-21943D01*
X45052Y-21940D01*
X45078Y-21934D01*
X45104Y-21926D01*
X45128Y-21916D01*
X45152Y-21904D01*
X45174Y-21889D01*
X45196Y-21873D01*
X45215Y-21855D01*
X45233Y-21836D01*
X45249Y-21814D01*
X45264Y-21792D01*
X45276Y-21768D01*
X45286Y-21744D01*
X45294Y-21718D01*
X45300Y-21692D01*
X45303Y-21666D01*
X45305Y-21640D01*
X45305Y-21360D02*
X45303Y-21334D01*
X45300Y-21308D01*
X45294Y-21282D01*
X45286Y-21256D01*
X45276Y-21232D01*
X45264Y-21208D01*
X45249Y-21186D01*
X45233Y-21164D01*
X45215Y-21145D01*
X45196Y-21127D01*
X45174Y-21111D01*
X45152Y-21096D01*
X45128Y-21084D01*
X45104Y-21074D01*
X45078Y-21066D01*
X45052Y-21060D01*
X45026Y-21057D01*
X45000Y-21055D01*
X44974Y-21057D01*
X44948Y-21060D01*
X44922Y-21066D01*
X44896Y-21074D01*
X44872Y-21084D01*
X44848Y-21096D01*
X44826Y-21111D01*
X44804Y-21127D01*
X44785Y-21145D01*
X44767Y-21164D01*
X44751Y-21186D01*
X44736Y-21208D01*
X44724Y-21232D01*
X44714Y-21256D01*
X44706Y-21282D01*
X44700Y-21308D01*
X44697Y-21334D01*
X44695Y-21360D01*
X43695Y-21360D02*
X43695Y-21640D01*
X44305Y-21360D02*
X44305Y-21640D01*
X43695Y-21640D02*
X43697Y-21666D01*
X43700Y-21692D01*
X43706Y-21718D01*
X43714Y-21744D01*
X43724Y-21768D01*
X43736Y-21792D01*
X43751Y-21814D01*
X43767Y-21836D01*
X43785Y-21855D01*
X43804Y-21873D01*
X43826Y-21889D01*
X43848Y-21904D01*
X43872Y-21916D01*
X43896Y-21926D01*
X43922Y-21934D01*
X43948Y-21940D01*
X43974Y-21943D01*
X44000Y-21945D01*
X44026Y-21943D01*
X44052Y-21940D01*
X44078Y-21934D01*
X44104Y-21926D01*
X44128Y-21916D01*
X44152Y-21904D01*
X44174Y-21889D01*
X44196Y-21873D01*
X44215Y-21855D01*
X44233Y-21836D01*
X44249Y-21814D01*
X44264Y-21792D01*
X44276Y-21768D01*
X44286Y-21744D01*
X44294Y-21718D01*
X44300Y-21692D01*
X44303Y-21666D01*
X44305Y-21640D01*
X44305Y-21360D02*
X44303Y-21334D01*
X44300Y-21308D01*
X44294Y-21282D01*
X44286Y-21256D01*
X44276Y-21232D01*
X44264Y-21208D01*
X44249Y-21186D01*
X44233Y-21164D01*
X44215Y-21145D01*
X44196Y-21127D01*
X44174Y-21111D01*
X44152Y-21096D01*
X44128Y-21084D01*
X44104Y-21074D01*
X44078Y-21066D01*
X44052Y-21060D01*
X44026Y-21057D01*
X44000Y-21055D01*
X43974Y-21057D01*
X43948Y-21060D01*
X43922Y-21066D01*
X43896Y-21074D01*
X43872Y-21084D01*
X43848Y-21096D01*
X43826Y-21111D01*
X43804Y-21127D01*
X43785Y-21145D01*
X43767Y-21164D01*
X43751Y-21186D01*
X43736Y-21208D01*
X43724Y-21232D01*
X43714Y-21256D01*
X43706Y-21282D01*
X43700Y-21308D01*
X43697Y-21334D01*
X43695Y-21360D01*
X42695Y-21360D02*
X42695Y-21640D01*
X43305Y-21360D02*
X43305Y-21640D01*
X42695Y-21640D02*
X42697Y-21666D01*
X42700Y-21692D01*
X42706Y-21718D01*
X42714Y-21744D01*
X42724Y-21768D01*
X42736Y-21792D01*
X42751Y-21814D01*
X42767Y-21836D01*
X42785Y-21855D01*
X42804Y-21873D01*
X42826Y-21889D01*
X42848Y-21904D01*
X42872Y-21916D01*
X42896Y-21926D01*
X42922Y-21934D01*
X42948Y-21940D01*
X42974Y-21943D01*
X43000Y-21945D01*
X43026Y-21943D01*
X43052Y-21940D01*
X43078Y-21934D01*
X43104Y-21926D01*
X43128Y-21916D01*
X43152Y-21904D01*
X43174Y-21889D01*
X43196Y-21873D01*
X43215Y-21855D01*
X43233Y-21836D01*
X43249Y-21814D01*
X43264Y-21792D01*
X43276Y-21768D01*
X43286Y-21744D01*
X43294Y-21718D01*
X43300Y-21692D01*
X43303Y-21666D01*
X43305Y-21640D01*
X43305Y-21360D02*
X43303Y-21334D01*
X43300Y-21308D01*
X43294Y-21282D01*
X43286Y-21256D01*
X43276Y-21232D01*
X43264Y-21208D01*
X43249Y-21186D01*
X43233Y-21164D01*
X43215Y-21145D01*
X43196Y-21127D01*
X43174Y-21111D01*
X43152Y-21096D01*
X43128Y-21084D01*
X43104Y-21074D01*
X43078Y-21066D01*
X43052Y-21060D01*
X43026Y-21057D01*
X43000Y-21055D01*
X42974Y-21057D01*
X42948Y-21060D01*
X42922Y-21066D01*
X42896Y-21074D01*
X42872Y-21084D01*
X42848Y-21096D01*
X42826Y-21111D01*
X42804Y-21127D01*
X42785Y-21145D01*
X42767Y-21164D01*
X42751Y-21186D01*
X42736Y-21208D01*
X42724Y-21232D01*
X42714Y-21256D01*
X42706Y-21282D01*
X42700Y-21308D01*
X42697Y-21334D01*
X42695Y-21360D01*
G54D13*
X45934Y-17775D02*
X45934Y-17094D01*
X46097Y-17094D01*
X46138Y-17127D01*
X46158Y-17159D01*
X46178Y-17224D01*
X46178Y-17321D01*
X46158Y-17386D01*
X46138Y-17418D01*
X46097Y-17451D01*
X45934Y-17451D01*
X46321Y-17094D02*
X46606Y-17094D01*
X46423Y-17775D01*
X45934Y-16775D02*
X45934Y-16094D01*
X46097Y-16094D01*
X46138Y-16127D01*
X46158Y-16159D01*
X46178Y-16224D01*
X46178Y-16321D01*
X46158Y-16386D01*
X46138Y-16418D01*
X46097Y-16451D01*
X45934Y-16451D01*
X46545Y-16094D02*
X46464Y-16094D01*
X46423Y-16127D01*
X46403Y-16159D01*
X46362Y-16256D01*
X46342Y-16386D01*
X46342Y-16645D01*
X46362Y-16710D01*
X46382Y-16743D01*
X46423Y-16775D01*
X46505Y-16775D01*
X46545Y-16743D01*
X46566Y-16710D01*
X46586Y-16645D01*
X46586Y-16483D01*
X46566Y-16418D01*
X46545Y-16386D01*
X46505Y-16354D01*
X46423Y-16354D01*
X46382Y-16386D01*
X46362Y-16418D01*
X46342Y-16483D01*
X56434Y-16775D02*
X56434Y-16094D01*
X56597Y-16094D01*
X56638Y-16127D01*
X56658Y-16159D01*
X56678Y-16224D01*
X56678Y-16321D01*
X56658Y-16386D01*
X56638Y-16418D01*
X56597Y-16451D01*
X56434Y-16451D01*
X57066Y-16094D02*
X56862Y-16094D01*
X56842Y-16418D01*
X56862Y-16386D01*
X56903Y-16354D01*
X57005Y-16354D01*
X57045Y-16386D01*
X57066Y-16418D01*
X57086Y-16483D01*
X57086Y-16645D01*
X57066Y-16710D01*
X57045Y-16743D01*
X57005Y-16775D01*
X56903Y-16775D01*
X56862Y-16743D01*
X56842Y-16710D01*
X45934Y-15775D02*
X45934Y-15094D01*
X46097Y-15094D01*
X46138Y-15127D01*
X46158Y-15159D01*
X46178Y-15224D01*
X46178Y-15321D01*
X46158Y-15386D01*
X46138Y-15418D01*
X46097Y-15451D01*
X45934Y-15451D01*
X46545Y-15321D02*
X46545Y-15775D01*
X46443Y-15062D02*
X46342Y-15548D01*
X46606Y-15548D01*
X56434Y-17775D02*
X56434Y-17094D01*
X56597Y-17094D01*
X56638Y-17127D01*
X56658Y-17159D01*
X56678Y-17224D01*
X56678Y-17321D01*
X56658Y-17386D01*
X56638Y-17418D01*
X56597Y-17451D01*
X56434Y-17451D01*
X56821Y-17094D02*
X57086Y-17094D01*
X56943Y-17354D01*
X57005Y-17354D01*
X57045Y-17386D01*
X57066Y-17418D01*
X57086Y-17483D01*
X57086Y-17645D01*
X57066Y-17710D01*
X57045Y-17743D01*
X57005Y-17775D01*
X56882Y-17775D01*
X56842Y-17743D01*
X56821Y-17710D01*
X56434Y-18775D02*
X56434Y-18094D01*
X56597Y-18094D01*
X56638Y-18127D01*
X56658Y-18159D01*
X56678Y-18224D01*
X56678Y-18321D01*
X56658Y-18386D01*
X56638Y-18418D01*
X56597Y-18451D01*
X56434Y-18451D01*
X56842Y-18159D02*
X56862Y-18127D01*
X56903Y-18094D01*
X57005Y-18094D01*
X57045Y-18127D01*
X57066Y-18159D01*
X57086Y-18224D01*
X57086Y-18289D01*
X57066Y-18386D01*
X56821Y-18775D01*
X57086Y-18775D01*
X45934Y-18775D02*
X45934Y-18094D01*
X46097Y-18094D01*
X46138Y-18127D01*
X46158Y-18159D01*
X46178Y-18224D01*
X46178Y-18321D01*
X46158Y-18386D01*
X46138Y-18418D01*
X46097Y-18451D01*
X45934Y-18451D01*
X46423Y-18386D02*
X46382Y-18354D01*
X46362Y-18321D01*
X46342Y-18256D01*
X46342Y-18224D01*
X46362Y-18159D01*
X46382Y-18127D01*
X46423Y-18094D01*
X46505Y-18094D01*
X46545Y-18127D01*
X46566Y-18159D01*
X46586Y-18224D01*
X46586Y-18256D01*
X46566Y-18321D01*
X46545Y-18354D01*
X46505Y-18386D01*
X46423Y-18386D01*
X46382Y-18418D01*
X46362Y-18451D01*
X46342Y-18516D01*
X46342Y-18645D01*
X46362Y-18710D01*
X46382Y-18743D01*
X46423Y-18775D01*
X46505Y-18775D01*
X46545Y-18743D01*
X46566Y-18710D01*
X46586Y-18645D01*
X46586Y-18516D01*
X46566Y-18451D01*
X46545Y-18418D01*
X46505Y-18386D01*
G54D14*
X44668Y-23283D02*
X44668Y-22583D01*
X44840Y-22583D01*
X44882Y-22617D01*
X44904Y-22650D01*
X44925Y-22717D01*
X44925Y-22817D01*
X44904Y-22883D01*
X44882Y-22917D01*
X44840Y-22950D01*
X44668Y-22950D01*
X45354Y-23283D02*
X45097Y-23283D01*
X45225Y-23283D02*
X45225Y-22583D01*
X45182Y-22683D01*
X45140Y-22750D01*
X45097Y-22783D01*
G54D15*
X51200Y-25783D02*
X51200Y-25083D01*
X51366Y-25083D01*
X51466Y-25117D01*
X51533Y-25183D01*
X51566Y-25250D01*
X51600Y-25383D01*
X51600Y-25483D01*
X51566Y-25617D01*
X51533Y-25683D01*
X51466Y-25750D01*
X51366Y-25783D01*
X51200Y-25783D01*
X51900Y-25783D02*
X51900Y-25083D01*
X52566Y-25783D02*
X52233Y-25783D01*
X52233Y-25083D01*
X53100Y-25317D02*
X53100Y-25783D01*
X52933Y-25050D02*
X52766Y-25550D01*
X53200Y-25550D01*
X53600Y-25083D02*
X53667Y-25083D01*
X53733Y-25117D01*
X53767Y-25150D01*
X53800Y-25217D01*
X53833Y-25350D01*
X53833Y-25517D01*
X53800Y-25650D01*
X53767Y-25717D01*
X53733Y-25750D01*
X53667Y-25783D01*
X53600Y-25783D01*
X53533Y-25750D01*
X53500Y-25717D01*
X53467Y-25650D01*
X53433Y-25517D01*
X53433Y-25350D01*
X53467Y-25217D01*
X53500Y-25150D01*
X53533Y-25117D01*
X53600Y-25083D01*
M02*
