/* XPM */
const char * stop_xpm[] = {
"24 24 99 2",
"  	c None",
". 	c #DEDEDD",
"+ 	c #D9D9D8",
"@ 	c #E1E1E0",
"# 	c #E2E2E1",
"$ 	c #E2E1E1",
"% 	c #DADAD9",
"& 	c #DCDCDB",
"* 	c #E6E6E5",
"= 	c #D8D8D7",
"- 	c #D8D7D7",
"; 	c #D5D5D4",
"> 	c #D6D6D5",
", 	c #DAD9D9",
"' 	c #DCDBDB",
") 	c #D3D3D2",
"! 	c #D3D4D2",
"~ 	c #DBDBDA",
"{ 	c #D5D4D4",
"] 	c #D1D1D0",
"^ 	c #D2D2D1",
"/ 	c #CECECD",
"( 	c #CFCFCE",
"_ 	c #D0D0CF",
": 	c #CECDCD",
"< 	c #D2D2D2",
"[ 	c #D0CFCF",
"} 	c #CCCCCB",
"| 	c #CBCBCA",
"1 	c #B7B7B6",
"2 	c #605D5C",
"3 	c #595554",
"4 	c #B6B5B4",
"5 	c #CACAC9",
"6 	c #C9C8C8",
"7 	c #CAC9C9",
"8 	c #B3B2B1",
"9 	c #4E4A48",
"0 	c #45413F",
"a 	c #4D4947",
"b 	c #B1AFAF",
"c 	c #C7C7C6",
"d 	c #C6C6C5",
"e 	c #C6C7C5",
"f 	c #B0AFAE",
"g 	c #484442",
"h 	c #3F3B39",
"i 	c #484342",
"j 	c #ADACAC",
"k 	c #C4C4C3",
"l 	c #C5C5C4",
"m 	c #C5C4C4",
"n 	c #AEACAB",
"o 	c #423E3C",
"p 	c #383432",
"q 	c #413D3B",
"r 	c #ABA9A9",
"s 	c #C2C1C1",
"t 	c #C2C2C1",
"u 	c #C3C3C2",
"v 	c #AAA9A8",
"w 	c #3C3837",
"x 	c #332F2D",
"y 	c #3C3836",
"z 	c #A8A7A6",
"A 	c #C1C0C0",
"B 	c #C1BFC0",
"C 	c #A8A6A6",
"D 	c #373330",
"E 	c #2D2926",
"F 	c #363230",
"G 	c #A5A4A3",
"H 	c #BEBDBD",
"I 	c #BEBEBD",
"J 	c #BEBEBE",
"K 	c #312D2A",
"L 	c #27221F",
"M 	c #312C29",
"N 	c #A2A1A0",
"O 	c #BFBFBE",
"P 	c #BCBBBB",
"Q 	c #BDBCBC",
"R 	c #A5A3A3",
"S 	c #3A3534",
"T 	c #302C2A",
"U 	c #393533",
"V 	c #BAB9B9",
"W 	c #B9B9B8",
"X 	c #BABAB9",
"Y 	c #BDBDBC",
"Z 	c #B8B7B7",
"` 	c #B5B4B4",
" .	c #B3B2B2",
"..	c #B4B3B3",
"+.	c #B1B0B0",
"@.	c #AFAEAE",
"#.	c #ACACAB",
"$.	c #ACABAB",
"%.	c #ABAAAA",
"                  . . . . . .                   ",
"            + @ # # # $ $ # # # @ %             ",
"          & * & + = = - - = = + & * &           ",
"        & @ ; > > > > > > > > > > ; @ &         ",
"      , ' ) ! ) ) ) ) ) ) ) ) ) ) ! ) ~ %       ",
"    { & ] ^ ^ ^ ^ ^ ^ ^ ^ ^ ^ ^ ^ ^ ^ ] & ;     ",
"  / & / ( ( ( ( ( ( ( ( ( ( ( ( ( ( ( ( / & /   ",
"  ) _ : : : : / ^ < < < < < < ^ / : : : : [ )   ",
"  [ } | | | | 1 2 3 3 3 3 3 3 2 4 | | | | } [   ",
"5 } 6 6 6 6 7 8 9 0 0 0 0 0 0 a b 7 6 6 6 6 } 5 ",
"c 6 d e e e c f g h h h h h h i j c e e e d 6 c ",
"k l m m m m m n o p p p p p p q r l m m m m l k ",
"s t t t t t u v w x x x x x x y z u t t t t t s ",
"A B B B B B A C D E E E E E E F G A B B B B B A ",
"H I I I I I J G K L L L L L L M N O I I I I I I ",
"  P P P P P Q R S T T T T T T U N Q P P P P P   ",
"  V W W W W W X Y Y Y Y Y Y Y Y X W W W W W W   ",
"  1 Z Z Z Z Z Z Z Z Z Z Z Z Z Z Z Z Z Z Z Z Z   ",
"    ` ` ` ` ` ` ` ` ` ` ` ` ` ` ` ` ` ` ` `     ",
"       ................................. .      ",
"        +.+.+.+.+.+.+.+.+.+.+.+.+.+.+.+.        ",
"          @.@.@.@.@.@.@.@.@.@.@.@.@.@.          ",
"            j #.$.$.$.$.$.$.$.$.#.j             ",
"                  %.%.%.%.%.%.                  "};
