G04 (Genere par PCBNEW (2007-07-09)) le 15/8/2008-09:18:46*
G01*
G70*
G90*
%MOIN*%
G04 Gerber Fmt 3.4, Leading zero omitted, Abs format*
%FSLAX34Y34*%
G04 APERTURE LIST*
%ADD10C,0.012000*%
%ADD11C,0.012000*%
%ADD12R,0.063000X0.063000*%
%ADD13C,0.063000*%
%ADD14O,0.062000X0.090000*%
%ADD15R,0.062000X0.090000*%
%ADD16R,0.055000X0.055000*%
%ADD17C,0.055000*%
%ADD18C,0.070000*%
%ADD19R,0.088600X0.088600*%
%ADD20C,0.088600*%
%ADD21C,0.169300*%
%ADD22C,0.059100*%
%ADD23C,0.030000*%
%ADD24C,0.005000*%
%ADD25C,0.015000*%
%ADD26C,0.006000*%
%ADD27C,0.001000*%
%ADD28C,0.008000*%
%ADD29C,0.011800*%
G04 APERTURE END LIST*
G54D10*
X46784Y-25875D02*
X47584Y-25875D01*
X47584Y-25875D02*
X46961Y-25500D01*
X46961Y-25500D02*
X46961Y-26025D01*
X46961Y-26286D02*
X46872Y-26286D01*
X46872Y-26286D02*
X46784Y-26361D01*
X46784Y-26361D02*
X46784Y-26736D01*
X46784Y-26736D02*
X46872Y-26811D01*
X46872Y-26811D02*
X47139Y-26811D01*
X47139Y-26811D02*
X47317Y-26661D01*
X47317Y-26661D02*
X47317Y-26286D01*
X47317Y-26286D02*
X47584Y-26286D01*
X47584Y-26286D02*
X47584Y-26811D01*
X46784Y-27297D02*
X46872Y-27297D01*
X46784Y-27858D02*
X47584Y-28383D01*
X46872Y-27858D02*
X47495Y-27858D01*
X47495Y-27858D02*
X47584Y-27933D01*
X47584Y-27933D02*
X47584Y-28308D01*
X47584Y-28308D02*
X47495Y-28383D01*
X47495Y-28383D02*
X46872Y-28383D01*
X46872Y-28383D02*
X46784Y-28308D01*
X46784Y-28308D02*
X46784Y-27933D01*
X46784Y-27933D02*
X46872Y-27858D01*
X46784Y-28719D02*
X46872Y-28644D01*
X46872Y-28644D02*
X47139Y-28644D01*
X47139Y-28644D02*
X47228Y-28719D01*
X47228Y-28719D02*
X47228Y-29094D01*
X47228Y-29094D02*
X47317Y-29169D01*
X47317Y-29169D02*
X47495Y-29169D01*
X47495Y-29169D02*
X47584Y-29094D01*
X47584Y-29094D02*
X47584Y-28719D01*
X47584Y-28719D02*
X47495Y-28644D01*
X47495Y-28644D02*
X47317Y-28644D01*
X47317Y-28644D02*
X47228Y-28719D01*
X47228Y-29094D02*
X47139Y-29169D01*
X47139Y-29169D02*
X46872Y-29169D01*
X46872Y-29169D02*
X46784Y-29094D01*
X46784Y-29094D02*
X46784Y-28719D01*
X46961Y-29430D02*
X46872Y-29430D01*
X46872Y-29430D02*
X46784Y-29505D01*
X46784Y-29505D02*
X46784Y-29880D01*
X46784Y-29880D02*
X46872Y-29955D01*
X46872Y-29955D02*
X47139Y-29955D01*
X47139Y-29955D02*
X47317Y-29805D01*
X47317Y-29805D02*
X47317Y-29430D01*
X47317Y-29430D02*
X47584Y-29430D01*
X47584Y-29430D02*
X47584Y-29955D01*
X46784Y-31002D02*
X47317Y-31002D01*
X47228Y-31002D02*
X47317Y-31077D01*
X47317Y-31077D02*
X47317Y-31227D01*
X47317Y-31227D02*
X47228Y-31302D01*
X47228Y-31302D02*
X46784Y-31302D01*
X47228Y-31302D02*
X47317Y-31377D01*
X47317Y-31377D02*
X47317Y-31527D01*
X47317Y-31527D02*
X47228Y-31602D01*
X47228Y-31602D02*
X46784Y-31602D01*
X46784Y-31788D02*
X47317Y-31788D01*
X47228Y-31788D02*
X47317Y-31863D01*
X47317Y-31863D02*
X47317Y-32013D01*
X47317Y-32013D02*
X47228Y-32088D01*
X47228Y-32088D02*
X46784Y-32088D01*
X47228Y-32088D02*
X47317Y-32163D01*
X47317Y-32163D02*
X47317Y-32313D01*
X47317Y-32313D02*
X47228Y-32388D01*
X47228Y-32388D02*
X46784Y-32388D01*
G54D25*
X46499Y-20000D02*
X46499Y-37750D01*
X45000Y-20000D02*
X47869Y-20000D01*
X45000Y-37750D02*
X47869Y-37750D01*
X46499Y-37750D02*
X46269Y-37307D01*
X46499Y-37750D02*
X46729Y-37307D01*
X46499Y-20000D02*
X46269Y-20443D01*
X46499Y-20000D02*
X46729Y-20443D01*
G54D10*
X25200Y-18216D02*
X25125Y-18128D01*
X25125Y-18128D02*
X25125Y-17861D01*
X25125Y-17861D02*
X25200Y-17772D01*
X25200Y-17772D02*
X25575Y-17772D01*
X25575Y-17772D02*
X25650Y-17683D01*
X25650Y-17683D02*
X25650Y-17505D01*
X25650Y-17505D02*
X25575Y-17416D01*
X25575Y-17416D02*
X25200Y-17416D01*
X25200Y-17416D02*
X25125Y-17505D01*
X25125Y-17505D02*
X25125Y-17683D01*
X25125Y-17683D02*
X25200Y-17772D01*
X25575Y-17772D02*
X25650Y-17861D01*
X25650Y-17861D02*
X25650Y-18128D01*
X25650Y-18128D02*
X25575Y-18216D01*
X25575Y-18216D02*
X25200Y-18216D01*
X25911Y-17416D02*
X26436Y-17416D01*
X26436Y-17416D02*
X26436Y-17505D01*
X26436Y-17505D02*
X26136Y-17772D01*
X26136Y-17772D02*
X26361Y-17772D01*
X26361Y-17772D02*
X26436Y-17861D01*
X26436Y-17861D02*
X26436Y-18128D01*
X26436Y-18128D02*
X26361Y-18216D01*
X26361Y-18216D02*
X25986Y-18216D01*
X25986Y-18216D02*
X25911Y-18128D01*
X26922Y-18216D02*
X26922Y-18128D01*
X27558Y-18216D02*
X27483Y-18128D01*
X27483Y-18128D02*
X27483Y-17861D01*
X27483Y-17861D02*
X27558Y-17772D01*
X27558Y-17772D02*
X27933Y-17772D01*
X27933Y-17772D02*
X28008Y-17683D01*
X28008Y-17683D02*
X28008Y-17505D01*
X28008Y-17505D02*
X27933Y-17416D01*
X27933Y-17416D02*
X27558Y-17416D01*
X27558Y-17416D02*
X27483Y-17505D01*
X27483Y-17505D02*
X27483Y-17683D01*
X27483Y-17683D02*
X27558Y-17772D01*
X27933Y-17772D02*
X28008Y-17861D01*
X28008Y-17861D02*
X28008Y-18128D01*
X28008Y-18128D02*
X27933Y-18216D01*
X27933Y-18216D02*
X27558Y-18216D01*
X28794Y-18216D02*
X28269Y-18216D01*
X28269Y-18216D02*
X28269Y-17950D01*
X28269Y-17950D02*
X28344Y-17861D01*
X28344Y-17861D02*
X28719Y-17861D01*
X28719Y-17861D02*
X28794Y-17772D01*
X28794Y-17772D02*
X28794Y-17505D01*
X28794Y-17505D02*
X28719Y-17416D01*
X28719Y-17416D02*
X28344Y-17416D01*
X28344Y-17416D02*
X28269Y-17505D01*
X29055Y-18216D02*
X29580Y-17416D01*
X29055Y-18128D02*
X29055Y-17505D01*
X29055Y-17505D02*
X29130Y-17416D01*
X29130Y-17416D02*
X29505Y-17416D01*
X29505Y-17416D02*
X29580Y-17505D01*
X29580Y-17505D02*
X29580Y-18128D01*
X29580Y-18128D02*
X29505Y-18216D01*
X29505Y-18216D02*
X29130Y-18216D01*
X29130Y-18216D02*
X29055Y-18128D01*
X30627Y-18216D02*
X30627Y-17683D01*
X30627Y-17772D02*
X30702Y-17683D01*
X30702Y-17683D02*
X30852Y-17683D01*
X30852Y-17683D02*
X30927Y-17772D01*
X30927Y-17772D02*
X30927Y-18216D01*
X30927Y-17772D02*
X31002Y-17683D01*
X31002Y-17683D02*
X31152Y-17683D01*
X31152Y-17683D02*
X31227Y-17772D01*
X31227Y-17772D02*
X31227Y-18216D01*
X31413Y-18216D02*
X31413Y-17683D01*
X31413Y-17772D02*
X31488Y-17683D01*
X31488Y-17683D02*
X31638Y-17683D01*
X31638Y-17683D02*
X31713Y-17772D01*
X31713Y-17772D02*
X31713Y-18216D01*
X31713Y-17772D02*
X31788Y-17683D01*
X31788Y-17683D02*
X31938Y-17683D01*
X31938Y-17683D02*
X32013Y-17772D01*
X32013Y-17772D02*
X32013Y-18216D01*
G54D25*
X12000Y-18501D02*
X45000Y-18501D01*
X12000Y-20000D02*
X12000Y-17131D01*
X45000Y-20000D02*
X45000Y-17131D01*
X45000Y-18501D02*
X44557Y-18731D01*
X45000Y-18501D02*
X44557Y-18271D01*
X12000Y-18501D02*
X12443Y-18731D01*
X12000Y-18501D02*
X12443Y-18271D01*
G54D10*
X42983Y-24100D02*
X43283Y-24900D01*
X43283Y-24900D02*
X43583Y-24100D01*
X43769Y-24900D02*
X43769Y-24100D01*
X43769Y-24100D02*
X44219Y-24100D01*
X44219Y-24100D02*
X44294Y-24189D01*
X44294Y-24189D02*
X44294Y-24456D01*
X44294Y-24456D02*
X44219Y-24545D01*
X44219Y-24545D02*
X43769Y-24545D01*
X44555Y-24900D02*
X44555Y-24100D01*
X44555Y-24100D02*
X45005Y-24100D01*
X45005Y-24100D02*
X45080Y-24189D01*
X45080Y-24189D02*
X45080Y-24456D01*
X45080Y-24456D02*
X45005Y-24545D01*
X45005Y-24545D02*
X44555Y-24545D01*
X42983Y-25100D02*
X43283Y-25900D01*
X43283Y-25900D02*
X43583Y-25100D01*
X43844Y-25900D02*
X43844Y-25100D01*
X43769Y-25100D02*
X44219Y-25100D01*
X44219Y-25100D02*
X44294Y-25189D01*
X44294Y-25189D02*
X44294Y-25812D01*
X44294Y-25812D02*
X44219Y-25900D01*
X44219Y-25900D02*
X43769Y-25900D01*
X44630Y-25900D02*
X44630Y-25100D01*
X44555Y-25100D02*
X45005Y-25100D01*
X45005Y-25100D02*
X45080Y-25189D01*
X45080Y-25189D02*
X45080Y-25812D01*
X45080Y-25812D02*
X45005Y-25900D01*
X45005Y-25900D02*
X44555Y-25900D01*
X42983Y-26900D02*
X42983Y-26100D01*
X42983Y-26100D02*
X43433Y-26100D01*
X43433Y-26100D02*
X43508Y-26189D01*
X43508Y-26189D02*
X43508Y-26456D01*
X43508Y-26456D02*
X43433Y-26545D01*
X43433Y-26545D02*
X42983Y-26545D01*
X44219Y-26189D02*
X44219Y-26100D01*
X44219Y-26100D02*
X43844Y-26100D01*
X43844Y-26100D02*
X43769Y-26189D01*
X43769Y-26189D02*
X43769Y-26812D01*
X43769Y-26812D02*
X43844Y-26900D01*
X43844Y-26900D02*
X44219Y-26900D01*
X44219Y-26900D02*
X44294Y-26812D01*
X44294Y-26812D02*
X44294Y-26545D01*
X44294Y-26545D02*
X44069Y-26545D01*
X44630Y-26900D02*
X44630Y-26100D01*
X44555Y-26100D02*
X45005Y-26100D01*
X45005Y-26100D02*
X45080Y-26189D01*
X45080Y-26189D02*
X45080Y-26812D01*
X45080Y-26812D02*
X45005Y-26900D01*
X45005Y-26900D02*
X44555Y-26900D01*
X42983Y-27900D02*
X42983Y-27100D01*
X42983Y-27100D02*
X43433Y-27100D01*
X43433Y-27100D02*
X43508Y-27189D01*
X43508Y-27189D02*
X43508Y-27456D01*
X43508Y-27456D02*
X43433Y-27545D01*
X43433Y-27545D02*
X42983Y-27545D01*
X44219Y-27189D02*
X44219Y-27100D01*
X44219Y-27100D02*
X43844Y-27100D01*
X43844Y-27100D02*
X43769Y-27189D01*
X43769Y-27189D02*
X43769Y-27812D01*
X43769Y-27812D02*
X43844Y-27900D01*
X43844Y-27900D02*
X44219Y-27900D01*
X44219Y-27900D02*
X44294Y-27812D01*
X44294Y-27812D02*
X44294Y-27545D01*
X44294Y-27545D02*
X44069Y-27545D01*
X45080Y-27812D02*
X45005Y-27900D01*
X45005Y-27900D02*
X44630Y-27900D01*
X44630Y-27900D02*
X44555Y-27812D01*
X44555Y-27812D02*
X44555Y-27189D01*
X44555Y-27189D02*
X44630Y-27100D01*
X44630Y-27100D02*
X45005Y-27100D01*
X45005Y-27100D02*
X45080Y-27189D01*
X43433Y-28189D02*
X43433Y-28100D01*
X43433Y-28100D02*
X43058Y-28100D01*
X43058Y-28100D02*
X42983Y-28189D01*
X42983Y-28189D02*
X42983Y-28812D01*
X42983Y-28812D02*
X43058Y-28900D01*
X43058Y-28900D02*
X43433Y-28900D01*
X43433Y-28900D02*
X43508Y-28812D01*
X43508Y-28812D02*
X43508Y-28545D01*
X43508Y-28545D02*
X43283Y-28545D01*
X43769Y-28900D02*
X43769Y-28100D01*
X43769Y-28100D02*
X44294Y-28900D01*
X44294Y-28900D02*
X44294Y-28100D01*
X44630Y-28900D02*
X44630Y-28100D01*
X44555Y-28100D02*
X45005Y-28100D01*
X45005Y-28100D02*
X45080Y-28189D01*
X45080Y-28189D02*
X45080Y-28812D01*
X45080Y-28812D02*
X45005Y-28900D01*
X45005Y-28900D02*
X44555Y-28900D01*
G54D25*
X44250Y-37750D02*
X45000Y-37750D01*
X44250Y-20000D02*
X45000Y-20000D01*
X45000Y-37750D02*
X45000Y-20000D01*
X12000Y-37750D02*
X44250Y-37750D01*
X12000Y-20000D02*
X12000Y-37750D01*
X44250Y-20000D02*
X12000Y-20000D01*
X37250Y-29250D02*
X37750Y-29500D01*
X37750Y-29500D02*
X37750Y-32000D01*
X37750Y-32000D02*
X37250Y-32250D01*
X35750Y-30750D02*
X35783Y-31062D01*
X35783Y-31062D02*
X35880Y-31360D01*
X35880Y-31360D02*
X36036Y-31632D01*
X36036Y-31632D02*
X36246Y-31865D01*
X36246Y-31865D02*
X36500Y-32049D01*
X36500Y-32049D02*
X36786Y-32177D01*
X36786Y-32177D02*
X37093Y-32242D01*
X37093Y-32242D02*
X37250Y-32250D01*
X37250Y-29250D02*
X36938Y-29283D01*
X36938Y-29283D02*
X36640Y-29380D01*
X36640Y-29380D02*
X36368Y-29536D01*
X36368Y-29536D02*
X36135Y-29746D01*
X36135Y-29746D02*
X35951Y-30000D01*
X35951Y-30000D02*
X35823Y-30286D01*
X35823Y-30286D02*
X35758Y-30593D01*
X35758Y-30593D02*
X35750Y-30750D01*
X39500Y-34250D02*
X39750Y-33750D01*
X39750Y-33750D02*
X42250Y-33750D01*
X42250Y-33750D02*
X42500Y-34250D01*
X41000Y-35750D02*
X41312Y-35717D01*
X41312Y-35717D02*
X41610Y-35620D01*
X41610Y-35620D02*
X41882Y-35464D01*
X41882Y-35464D02*
X42115Y-35254D01*
X42115Y-35254D02*
X42299Y-35000D01*
X42299Y-35000D02*
X42427Y-34714D01*
X42427Y-34714D02*
X42492Y-34407D01*
X42492Y-34407D02*
X42500Y-34250D01*
X39500Y-34250D02*
X39533Y-34562D01*
X39533Y-34562D02*
X39630Y-34860D01*
X39630Y-34860D02*
X39786Y-35132D01*
X39786Y-35132D02*
X39996Y-35365D01*
X39996Y-35365D02*
X40250Y-35549D01*
X40250Y-35549D02*
X40536Y-35677D01*
X40536Y-35677D02*
X40843Y-35742D01*
X40843Y-35742D02*
X41000Y-35750D01*
X35500Y-34000D02*
X35750Y-33500D01*
X35750Y-33500D02*
X38250Y-33500D01*
X38250Y-33500D02*
X38500Y-34000D01*
X37000Y-35500D02*
X37312Y-35467D01*
X37312Y-35467D02*
X37610Y-35370D01*
X37610Y-35370D02*
X37882Y-35214D01*
X37882Y-35214D02*
X38115Y-35004D01*
X38115Y-35004D02*
X38299Y-34750D01*
X38299Y-34750D02*
X38427Y-34464D01*
X38427Y-34464D02*
X38492Y-34157D01*
X38492Y-34157D02*
X38500Y-34000D01*
X35500Y-34000D02*
X35533Y-34312D01*
X35533Y-34312D02*
X35630Y-34610D01*
X35630Y-34610D02*
X35786Y-34882D01*
X35786Y-34882D02*
X35996Y-35115D01*
X35996Y-35115D02*
X36250Y-35299D01*
X36250Y-35299D02*
X36536Y-35427D01*
X36536Y-35427D02*
X36843Y-35492D01*
X36843Y-35492D02*
X37000Y-35500D01*
X33250Y-30000D02*
X18250Y-30000D01*
X18250Y-30000D02*
X18250Y-28000D01*
X18250Y-28000D02*
X33250Y-28000D01*
X33250Y-28000D02*
X33250Y-30000D01*
X33250Y-29500D02*
X32750Y-29500D01*
X32750Y-29500D02*
X32750Y-28500D01*
X32750Y-28500D02*
X33250Y-28500D01*
G54D24*
X38501Y-27500D02*
X38479Y-27708D01*
X38479Y-27708D02*
X38414Y-27907D01*
X38414Y-27907D02*
X38309Y-28088D01*
X38309Y-28088D02*
X38169Y-28243D01*
X38169Y-28243D02*
X38000Y-28366D01*
X38000Y-28366D02*
X37809Y-28452D01*
X37809Y-28452D02*
X37604Y-28495D01*
X37604Y-28495D02*
X37396Y-28495D01*
X37396Y-28495D02*
X37191Y-28452D01*
X37191Y-28452D02*
X37000Y-28366D01*
X37000Y-28366D02*
X36831Y-28243D01*
X36831Y-28243D02*
X36691Y-28088D01*
X36691Y-28088D02*
X36586Y-27907D01*
X36586Y-27907D02*
X36521Y-27708D01*
X36521Y-27708D02*
X36499Y-27500D01*
X36499Y-27500D02*
X36521Y-27292D01*
X36521Y-27292D02*
X36586Y-27093D01*
X36586Y-27093D02*
X36691Y-26912D01*
X36691Y-26912D02*
X36831Y-26757D01*
X36831Y-26757D02*
X37000Y-26634D01*
X37000Y-26634D02*
X37191Y-26548D01*
X37191Y-26548D02*
X37396Y-26505D01*
X37396Y-26505D02*
X37604Y-26505D01*
X37604Y-26505D02*
X37809Y-26548D01*
X37809Y-26548D02*
X38000Y-26634D01*
X38000Y-26634D02*
X38169Y-26757D01*
X38169Y-26757D02*
X38309Y-26912D01*
X38309Y-26912D02*
X38414Y-27093D01*
X38414Y-27093D02*
X38479Y-27292D01*
X38479Y-27292D02*
X38501Y-27500D01*
X32251Y-25500D02*
X32229Y-25708D01*
X32229Y-25708D02*
X32164Y-25907D01*
X32164Y-25907D02*
X32059Y-26088D01*
X32059Y-26088D02*
X31919Y-26243D01*
X31919Y-26243D02*
X31750Y-26366D01*
X31750Y-26366D02*
X31559Y-26452D01*
X31559Y-26452D02*
X31354Y-26495D01*
X31354Y-26495D02*
X31146Y-26495D01*
X31146Y-26495D02*
X30941Y-26452D01*
X30941Y-26452D02*
X30750Y-26366D01*
X30750Y-26366D02*
X30581Y-26243D01*
X30581Y-26243D02*
X30441Y-26088D01*
X30441Y-26088D02*
X30336Y-25907D01*
X30336Y-25907D02*
X30271Y-25708D01*
X30271Y-25708D02*
X30249Y-25500D01*
X30249Y-25500D02*
X30271Y-25292D01*
X30271Y-25292D02*
X30336Y-25093D01*
X30336Y-25093D02*
X30441Y-24912D01*
X30441Y-24912D02*
X30581Y-24757D01*
X30581Y-24757D02*
X30750Y-24634D01*
X30750Y-24634D02*
X30941Y-24548D01*
X30941Y-24548D02*
X31146Y-24505D01*
X31146Y-24505D02*
X31354Y-24505D01*
X31354Y-24505D02*
X31559Y-24548D01*
X31559Y-24548D02*
X31750Y-24634D01*
X31750Y-24634D02*
X31919Y-24757D01*
X31919Y-24757D02*
X32059Y-24912D01*
X32059Y-24912D02*
X32164Y-25093D01*
X32164Y-25093D02*
X32229Y-25292D01*
X32229Y-25292D02*
X32251Y-25500D01*
X30251Y-25500D02*
X30229Y-25708D01*
X30229Y-25708D02*
X30164Y-25907D01*
X30164Y-25907D02*
X30059Y-26088D01*
X30059Y-26088D02*
X29919Y-26243D01*
X29919Y-26243D02*
X29750Y-26366D01*
X29750Y-26366D02*
X29559Y-26452D01*
X29559Y-26452D02*
X29354Y-26495D01*
X29354Y-26495D02*
X29146Y-26495D01*
X29146Y-26495D02*
X28941Y-26452D01*
X28941Y-26452D02*
X28750Y-26366D01*
X28750Y-26366D02*
X28581Y-26243D01*
X28581Y-26243D02*
X28441Y-26088D01*
X28441Y-26088D02*
X28336Y-25907D01*
X28336Y-25907D02*
X28271Y-25708D01*
X28271Y-25708D02*
X28249Y-25500D01*
X28249Y-25500D02*
X28271Y-25292D01*
X28271Y-25292D02*
X28336Y-25093D01*
X28336Y-25093D02*
X28441Y-24912D01*
X28441Y-24912D02*
X28581Y-24757D01*
X28581Y-24757D02*
X28750Y-24634D01*
X28750Y-24634D02*
X28941Y-24548D01*
X28941Y-24548D02*
X29146Y-24505D01*
X29146Y-24505D02*
X29354Y-24505D01*
X29354Y-24505D02*
X29559Y-24548D01*
X29559Y-24548D02*
X29750Y-24634D01*
X29750Y-24634D02*
X29919Y-24757D01*
X29919Y-24757D02*
X30059Y-24912D01*
X30059Y-24912D02*
X30164Y-25093D01*
X30164Y-25093D02*
X30229Y-25292D01*
X30229Y-25292D02*
X30251Y-25500D01*
G54D26*
X22750Y-25000D02*
X23250Y-24500D01*
X27750Y-24500D02*
X28250Y-25000D01*
X28250Y-26000D02*
X27750Y-26500D01*
X22750Y-26000D02*
X23250Y-26500D01*
X23250Y-24500D02*
X27750Y-24500D01*
X22750Y-25000D02*
X22750Y-26000D01*
X23250Y-26500D02*
X27750Y-26500D01*
X28250Y-26000D02*
X28250Y-25000D01*
G54D10*
X28500Y-33250D02*
X28500Y-32250D01*
X28500Y-32250D02*
X33500Y-32250D01*
X33500Y-32250D02*
X33500Y-33250D01*
X33500Y-33250D02*
X28500Y-33250D01*
X29500Y-33250D02*
X29500Y-32250D01*
X42750Y-29000D02*
X41750Y-29000D01*
X41750Y-29000D02*
X41750Y-24000D01*
X41750Y-24000D02*
X42750Y-24000D01*
X42750Y-24000D02*
X42750Y-29000D01*
X42750Y-28000D02*
X41750Y-28000D01*
G54D25*
X32585Y-25213D02*
X36915Y-25213D01*
X36915Y-25213D02*
X36915Y-26787D01*
X36915Y-26787D02*
X32585Y-26787D01*
X32585Y-26787D02*
X32585Y-25213D01*
X33165Y-35037D02*
X28835Y-35037D01*
X28835Y-35037D02*
X28835Y-33463D01*
X28835Y-33463D02*
X33165Y-33463D01*
X33165Y-33463D02*
X33165Y-35037D01*
X18915Y-34787D02*
X14585Y-34787D01*
X14585Y-34787D02*
X14585Y-33213D01*
X14585Y-33213D02*
X18915Y-33213D01*
X18915Y-33213D02*
X18915Y-34787D01*
X22173Y-33037D02*
X17843Y-33037D01*
X17843Y-33037D02*
X17843Y-31463D01*
X17843Y-31463D02*
X22173Y-31463D01*
X22173Y-31463D02*
X22173Y-33037D01*
X42415Y-23037D02*
X38085Y-23037D01*
X38085Y-23037D02*
X38085Y-21463D01*
X38085Y-21463D02*
X42415Y-21463D01*
X42415Y-21463D02*
X42415Y-23037D01*
X16335Y-25213D02*
X20665Y-25213D01*
X20665Y-25213D02*
X20665Y-26787D01*
X20665Y-26787D02*
X16335Y-26787D01*
X16335Y-26787D02*
X16335Y-25213D01*
X30925Y-23350D02*
X30925Y-24150D01*
X28372Y-23041D02*
X28372Y-23159D01*
X28372Y-23041D02*
X28372Y-22923D01*
X28333Y-23041D02*
X28254Y-23041D01*
X28333Y-23041D02*
X28490Y-23041D01*
G54D10*
X27750Y-23750D02*
X28150Y-23750D01*
X28150Y-23750D02*
X28150Y-23350D01*
X28150Y-23350D02*
X31350Y-23350D01*
X31350Y-23350D02*
X31350Y-24150D01*
X31350Y-24150D02*
X28150Y-24150D01*
X28150Y-24150D02*
X28150Y-23750D01*
X31750Y-23750D02*
X31350Y-23750D01*
G54D25*
X32175Y-22100D02*
X32175Y-22900D01*
X29622Y-21791D02*
X29622Y-21909D01*
X29622Y-21791D02*
X29622Y-21673D01*
X29583Y-21791D02*
X29504Y-21791D01*
X29583Y-21791D02*
X29740Y-21791D01*
G54D10*
X29000Y-22500D02*
X29400Y-22500D01*
X29400Y-22500D02*
X29400Y-22100D01*
X29400Y-22100D02*
X32600Y-22100D01*
X32600Y-22100D02*
X32600Y-22900D01*
X32600Y-22900D02*
X29400Y-22900D01*
X29400Y-22900D02*
X29400Y-22500D01*
X33000Y-22500D02*
X32600Y-22500D01*
G54D25*
X36175Y-23350D02*
X36175Y-24150D01*
X33622Y-23041D02*
X33622Y-23159D01*
X33622Y-23041D02*
X33622Y-22923D01*
X33583Y-23041D02*
X33504Y-23041D01*
X33583Y-23041D02*
X33740Y-23041D01*
G54D10*
X33000Y-23750D02*
X33400Y-23750D01*
X33400Y-23750D02*
X33400Y-23350D01*
X33400Y-23350D02*
X36600Y-23350D01*
X36600Y-23350D02*
X36600Y-24150D01*
X36600Y-24150D02*
X33400Y-24150D01*
X33400Y-24150D02*
X33400Y-23750D01*
X37000Y-23750D02*
X36600Y-23750D01*
G54D25*
X39575Y-33400D02*
X39575Y-32600D01*
X42128Y-33709D02*
X42128Y-33591D01*
X42128Y-33709D02*
X42128Y-33827D01*
X42167Y-33709D02*
X42246Y-33709D01*
X42167Y-33709D02*
X42010Y-33709D01*
G54D10*
X42750Y-33000D02*
X42350Y-33000D01*
X42350Y-33000D02*
X42350Y-33400D01*
X42350Y-33400D02*
X39150Y-33400D01*
X39150Y-33400D02*
X39150Y-32600D01*
X39150Y-32600D02*
X42350Y-32600D01*
X42350Y-32600D02*
X42350Y-33000D01*
X38750Y-33000D02*
X39150Y-33000D01*
G54D25*
X22931Y-23750D02*
X22841Y-24201D01*
X22841Y-24201D02*
X22585Y-24585D01*
X22585Y-24585D02*
X22201Y-24841D01*
X22201Y-24841D02*
X21750Y-24931D01*
X21750Y-24931D02*
X21299Y-24841D01*
X21299Y-24841D02*
X20915Y-24585D01*
X20915Y-24585D02*
X20659Y-24201D01*
X20659Y-24201D02*
X20569Y-23750D01*
X20569Y-23750D02*
X20659Y-23299D01*
X20659Y-23299D02*
X20915Y-22915D01*
X20915Y-22915D02*
X21299Y-22659D01*
X21299Y-22659D02*
X21750Y-22569D01*
X21750Y-22569D02*
X22201Y-22659D01*
X22201Y-22659D02*
X22585Y-22915D01*
X22585Y-22915D02*
X22841Y-23299D01*
X22841Y-23299D02*
X22931Y-23750D01*
X22548Y-22253D02*
X22548Y-22653D01*
X22748Y-22453D02*
X22348Y-22453D01*
X20431Y-23750D02*
X20341Y-24201D01*
X20341Y-24201D02*
X20085Y-24585D01*
X20085Y-24585D02*
X19701Y-24841D01*
X19701Y-24841D02*
X19250Y-24931D01*
X19250Y-24931D02*
X18799Y-24841D01*
X18799Y-24841D02*
X18415Y-24585D01*
X18415Y-24585D02*
X18159Y-24201D01*
X18159Y-24201D02*
X18069Y-23750D01*
X18069Y-23750D02*
X18159Y-23299D01*
X18159Y-23299D02*
X18415Y-22915D01*
X18415Y-22915D02*
X18799Y-22659D01*
X18799Y-22659D02*
X19250Y-22569D01*
X19250Y-22569D02*
X19701Y-22659D01*
X19701Y-22659D02*
X20085Y-22915D01*
X20085Y-22915D02*
X20341Y-23299D01*
X20341Y-23299D02*
X20431Y-23750D01*
X17753Y-22952D02*
X18153Y-22952D01*
X17953Y-22752D02*
X17953Y-23152D01*
X17931Y-23750D02*
X17841Y-24201D01*
X17841Y-24201D02*
X17585Y-24585D01*
X17585Y-24585D02*
X17201Y-24841D01*
X17201Y-24841D02*
X16750Y-24931D01*
X16750Y-24931D02*
X16299Y-24841D01*
X16299Y-24841D02*
X15915Y-24585D01*
X15915Y-24585D02*
X15659Y-24201D01*
X15659Y-24201D02*
X15569Y-23750D01*
X15569Y-23750D02*
X15659Y-23299D01*
X15659Y-23299D02*
X15915Y-22915D01*
X15915Y-22915D02*
X16299Y-22659D01*
X16299Y-22659D02*
X16750Y-22569D01*
X16750Y-22569D02*
X17201Y-22659D01*
X17201Y-22659D02*
X17585Y-22915D01*
X17585Y-22915D02*
X17841Y-23299D01*
X17841Y-23299D02*
X17931Y-23750D01*
X17548Y-22253D02*
X17548Y-22653D01*
X17748Y-22453D02*
X17348Y-22453D01*
X40600Y-25325D02*
X41400Y-25325D01*
X40291Y-27878D02*
X40409Y-27878D01*
X40291Y-27878D02*
X40173Y-27878D01*
X40291Y-27917D02*
X40291Y-27996D01*
X40291Y-27917D02*
X40291Y-27760D01*
G54D10*
X41000Y-28500D02*
X41000Y-28100D01*
X41000Y-28100D02*
X40600Y-28100D01*
X40600Y-28100D02*
X40600Y-24900D01*
X40600Y-24900D02*
X41400Y-24900D01*
X41400Y-24900D02*
X41400Y-28100D01*
X41400Y-28100D02*
X41000Y-28100D01*
X41000Y-24500D02*
X41000Y-24900D01*
G54D25*
X38100Y-26575D02*
X38900Y-26575D01*
X37791Y-29128D02*
X37909Y-29128D01*
X37791Y-29128D02*
X37673Y-29128D01*
X37791Y-29167D02*
X37791Y-29246D01*
X37791Y-29167D02*
X37791Y-29010D01*
G54D10*
X38500Y-29750D02*
X38500Y-29350D01*
X38500Y-29350D02*
X38100Y-29350D01*
X38100Y-29350D02*
X38100Y-26150D01*
X38100Y-26150D02*
X38900Y-26150D01*
X38900Y-26150D02*
X38900Y-29350D01*
X38900Y-29350D02*
X38500Y-29350D01*
X38500Y-25750D02*
X38500Y-26150D01*
X11000Y-27322D02*
X11004Y-31186D01*
X11004Y-31186D02*
X17504Y-31186D01*
X17520Y-31154D02*
X17520Y-27330D01*
X17520Y-27330D02*
X10992Y-27330D01*
X24980Y-24250D02*
X23000Y-24250D01*
X23000Y-24250D02*
X23000Y-23250D01*
X23000Y-23250D02*
X25000Y-23250D01*
X25000Y-23250D02*
X25000Y-24250D01*
X25000Y-24000D02*
X24750Y-24250D01*
X25020Y-23250D02*
X27000Y-23250D01*
X27000Y-23250D02*
X27000Y-24250D01*
X27000Y-24250D02*
X25000Y-24250D01*
X25000Y-24250D02*
X25000Y-23250D01*
X25000Y-23500D02*
X25250Y-23250D01*
X42750Y-31500D02*
X42350Y-31500D01*
X42350Y-31500D02*
X42350Y-31900D01*
X42350Y-31900D02*
X39150Y-31900D01*
X39150Y-31900D02*
X39150Y-31100D01*
X39150Y-31100D02*
X42350Y-31100D01*
X42350Y-31100D02*
X42350Y-31500D01*
X42350Y-31700D02*
X42150Y-31900D01*
X38750Y-31500D02*
X39150Y-31500D01*
X23750Y-34500D02*
X24150Y-34500D01*
X24150Y-34500D02*
X24150Y-34100D01*
X24150Y-34100D02*
X27350Y-34100D01*
X27350Y-34100D02*
X27350Y-34900D01*
X27350Y-34900D02*
X24150Y-34900D01*
X24150Y-34900D02*
X24150Y-34500D01*
X24150Y-34300D02*
X24350Y-34100D01*
X27750Y-34500D02*
X27350Y-34500D01*
X34000Y-30250D02*
X34000Y-30650D01*
X34000Y-30650D02*
X34400Y-30650D01*
X34400Y-30650D02*
X34400Y-33850D01*
X34400Y-33850D02*
X33600Y-33850D01*
X33600Y-33850D02*
X33600Y-30650D01*
X33600Y-30650D02*
X34000Y-30650D01*
X34200Y-30650D02*
X34400Y-30850D01*
X34000Y-34250D02*
X34000Y-33850D01*
X27500Y-32750D02*
X27100Y-32750D01*
X27100Y-32750D02*
X27100Y-33150D01*
X27100Y-33150D02*
X23900Y-33150D01*
X23900Y-33150D02*
X23900Y-32350D01*
X23900Y-32350D02*
X27100Y-32350D01*
X27100Y-32350D02*
X27100Y-32750D01*
X27100Y-32950D02*
X26900Y-33150D01*
X23500Y-32750D02*
X23900Y-32750D01*
X29750Y-31750D02*
X29350Y-31750D01*
X29350Y-31750D02*
X29350Y-32150D01*
X29350Y-32150D02*
X26150Y-32150D01*
X26150Y-32150D02*
X26150Y-31350D01*
X26150Y-31350D02*
X29350Y-31350D01*
X29350Y-31350D02*
X29350Y-31750D01*
X29350Y-31950D02*
X29150Y-32150D01*
X25750Y-31750D02*
X26150Y-31750D01*
X27500Y-22250D02*
X27100Y-22250D01*
X27100Y-22250D02*
X27100Y-22650D01*
X27100Y-22650D02*
X23900Y-22650D01*
X23900Y-22650D02*
X23900Y-21850D01*
X23900Y-21850D02*
X27100Y-21850D01*
X27100Y-21850D02*
X27100Y-22250D01*
X27100Y-22450D02*
X26900Y-22650D01*
X23500Y-22250D02*
X23900Y-22250D01*
X19500Y-22000D02*
X19100Y-22000D01*
X19100Y-22000D02*
X19100Y-22400D01*
X19100Y-22400D02*
X15900Y-22400D01*
X15900Y-22400D02*
X15900Y-21600D01*
X15900Y-21600D02*
X19100Y-21600D01*
X19100Y-21600D02*
X19100Y-22000D01*
X19100Y-22200D02*
X18900Y-22400D01*
X15500Y-22000D02*
X15900Y-22000D01*
X13750Y-26000D02*
X13750Y-25600D01*
X13750Y-25600D02*
X13350Y-25600D01*
X13350Y-25600D02*
X13350Y-22400D01*
X13350Y-22400D02*
X14150Y-22400D01*
X14150Y-22400D02*
X14150Y-25600D01*
X14150Y-25600D02*
X13750Y-25600D01*
X13550Y-25600D02*
X13350Y-25400D01*
X13750Y-22000D02*
X13750Y-22400D01*
X34750Y-29000D02*
X34750Y-29400D01*
X34750Y-29400D02*
X35150Y-29400D01*
X35150Y-29400D02*
X35150Y-32600D01*
X35150Y-32600D02*
X34350Y-32600D01*
X34350Y-32600D02*
X34350Y-29400D01*
X34350Y-29400D02*
X34750Y-29400D01*
X34950Y-29400D02*
X35150Y-29600D01*
X34750Y-33000D02*
X34750Y-32600D01*
G54D27*
X36935Y-31815D02*
X36935Y-31185D01*
X36935Y-31185D02*
X37565Y-31185D01*
X37565Y-31185D02*
X37565Y-31815D01*
X37565Y-31815D02*
X36935Y-31815D01*
X36815Y-30750D02*
X36808Y-30815D01*
X36808Y-30815D02*
X36787Y-30878D01*
X36787Y-30878D02*
X36754Y-30935D01*
X36754Y-30935D02*
X36710Y-30984D01*
X36710Y-30984D02*
X36657Y-31022D01*
X36657Y-31022D02*
X36597Y-31049D01*
X36597Y-31049D02*
X36532Y-31063D01*
X36532Y-31063D02*
X36468Y-31063D01*
X36468Y-31063D02*
X36403Y-31049D01*
X36403Y-31049D02*
X36343Y-31022D01*
X36343Y-31022D02*
X36290Y-30984D01*
X36290Y-30984D02*
X36246Y-30935D01*
X36246Y-30935D02*
X36213Y-30878D01*
X36213Y-30878D02*
X36192Y-30815D01*
X36192Y-30815D02*
X36185Y-30750D01*
X36185Y-30750D02*
X36192Y-30685D01*
X36192Y-30685D02*
X36213Y-30622D01*
X36213Y-30622D02*
X36246Y-30565D01*
X36246Y-30565D02*
X36290Y-30516D01*
X36290Y-30516D02*
X36343Y-30478D01*
X36343Y-30478D02*
X36403Y-30451D01*
X36403Y-30451D02*
X36468Y-30437D01*
X36468Y-30437D02*
X36532Y-30437D01*
X36532Y-30437D02*
X36597Y-30451D01*
X36597Y-30451D02*
X36657Y-30478D01*
X36657Y-30478D02*
X36710Y-30516D01*
X36710Y-30516D02*
X36754Y-30565D01*
X36754Y-30565D02*
X36787Y-30622D01*
X36787Y-30622D02*
X36808Y-30685D01*
X36808Y-30685D02*
X36815Y-30750D01*
X37565Y-30000D02*
X37558Y-30065D01*
X37558Y-30065D02*
X37537Y-30128D01*
X37537Y-30128D02*
X37504Y-30185D01*
X37504Y-30185D02*
X37460Y-30234D01*
X37460Y-30234D02*
X37407Y-30272D01*
X37407Y-30272D02*
X37347Y-30299D01*
X37347Y-30299D02*
X37282Y-30313D01*
X37282Y-30313D02*
X37218Y-30313D01*
X37218Y-30313D02*
X37153Y-30299D01*
X37153Y-30299D02*
X37093Y-30272D01*
X37093Y-30272D02*
X37040Y-30234D01*
X37040Y-30234D02*
X36996Y-30185D01*
X36996Y-30185D02*
X36963Y-30128D01*
X36963Y-30128D02*
X36942Y-30065D01*
X36942Y-30065D02*
X36935Y-30000D01*
X36935Y-30000D02*
X36942Y-29935D01*
X36942Y-29935D02*
X36963Y-29872D01*
X36963Y-29872D02*
X36996Y-29815D01*
X36996Y-29815D02*
X37040Y-29766D01*
X37040Y-29766D02*
X37093Y-29728D01*
X37093Y-29728D02*
X37153Y-29701D01*
X37153Y-29701D02*
X37218Y-29687D01*
X37218Y-29687D02*
X37282Y-29687D01*
X37282Y-29687D02*
X37347Y-29701D01*
X37347Y-29701D02*
X37407Y-29728D01*
X37407Y-29728D02*
X37460Y-29766D01*
X37460Y-29766D02*
X37504Y-29815D01*
X37504Y-29815D02*
X37537Y-29872D01*
X37537Y-29872D02*
X37558Y-29935D01*
X37558Y-29935D02*
X37565Y-30000D01*
X42065Y-34565D02*
X41435Y-34565D01*
X41435Y-34565D02*
X41435Y-33935D01*
X41435Y-33935D02*
X42065Y-33935D01*
X42065Y-33935D02*
X42065Y-34565D01*
X41315Y-35000D02*
X41308Y-35065D01*
X41308Y-35065D02*
X41287Y-35128D01*
X41287Y-35128D02*
X41254Y-35185D01*
X41254Y-35185D02*
X41210Y-35234D01*
X41210Y-35234D02*
X41157Y-35272D01*
X41157Y-35272D02*
X41097Y-35299D01*
X41097Y-35299D02*
X41032Y-35313D01*
X41032Y-35313D02*
X40968Y-35313D01*
X40968Y-35313D02*
X40903Y-35299D01*
X40903Y-35299D02*
X40843Y-35272D01*
X40843Y-35272D02*
X40790Y-35234D01*
X40790Y-35234D02*
X40746Y-35185D01*
X40746Y-35185D02*
X40713Y-35128D01*
X40713Y-35128D02*
X40692Y-35065D01*
X40692Y-35065D02*
X40685Y-35000D01*
X40685Y-35000D02*
X40692Y-34935D01*
X40692Y-34935D02*
X40713Y-34872D01*
X40713Y-34872D02*
X40746Y-34815D01*
X40746Y-34815D02*
X40790Y-34766D01*
X40790Y-34766D02*
X40843Y-34728D01*
X40843Y-34728D02*
X40903Y-34701D01*
X40903Y-34701D02*
X40968Y-34687D01*
X40968Y-34687D02*
X41032Y-34687D01*
X41032Y-34687D02*
X41097Y-34701D01*
X41097Y-34701D02*
X41157Y-34728D01*
X41157Y-34728D02*
X41210Y-34766D01*
X41210Y-34766D02*
X41254Y-34815D01*
X41254Y-34815D02*
X41287Y-34872D01*
X41287Y-34872D02*
X41308Y-34935D01*
X41308Y-34935D02*
X41315Y-35000D01*
X40565Y-34250D02*
X40558Y-34315D01*
X40558Y-34315D02*
X40537Y-34378D01*
X40537Y-34378D02*
X40504Y-34435D01*
X40504Y-34435D02*
X40460Y-34484D01*
X40460Y-34484D02*
X40407Y-34522D01*
X40407Y-34522D02*
X40347Y-34549D01*
X40347Y-34549D02*
X40282Y-34563D01*
X40282Y-34563D02*
X40218Y-34563D01*
X40218Y-34563D02*
X40153Y-34549D01*
X40153Y-34549D02*
X40093Y-34522D01*
X40093Y-34522D02*
X40040Y-34484D01*
X40040Y-34484D02*
X39996Y-34435D01*
X39996Y-34435D02*
X39963Y-34378D01*
X39963Y-34378D02*
X39942Y-34315D01*
X39942Y-34315D02*
X39935Y-34250D01*
X39935Y-34250D02*
X39942Y-34185D01*
X39942Y-34185D02*
X39963Y-34122D01*
X39963Y-34122D02*
X39996Y-34065D01*
X39996Y-34065D02*
X40040Y-34016D01*
X40040Y-34016D02*
X40093Y-33978D01*
X40093Y-33978D02*
X40153Y-33951D01*
X40153Y-33951D02*
X40218Y-33937D01*
X40218Y-33937D02*
X40282Y-33937D01*
X40282Y-33937D02*
X40347Y-33951D01*
X40347Y-33951D02*
X40407Y-33978D01*
X40407Y-33978D02*
X40460Y-34016D01*
X40460Y-34016D02*
X40504Y-34065D01*
X40504Y-34065D02*
X40537Y-34122D01*
X40537Y-34122D02*
X40558Y-34185D01*
X40558Y-34185D02*
X40565Y-34250D01*
X38065Y-34315D02*
X37435Y-34315D01*
X37435Y-34315D02*
X37435Y-33685D01*
X37435Y-33685D02*
X38065Y-33685D01*
X38065Y-33685D02*
X38065Y-34315D01*
X37315Y-34750D02*
X37308Y-34815D01*
X37308Y-34815D02*
X37287Y-34878D01*
X37287Y-34878D02*
X37254Y-34935D01*
X37254Y-34935D02*
X37210Y-34984D01*
X37210Y-34984D02*
X37157Y-35022D01*
X37157Y-35022D02*
X37097Y-35049D01*
X37097Y-35049D02*
X37032Y-35063D01*
X37032Y-35063D02*
X36968Y-35063D01*
X36968Y-35063D02*
X36903Y-35049D01*
X36903Y-35049D02*
X36843Y-35022D01*
X36843Y-35022D02*
X36790Y-34984D01*
X36790Y-34984D02*
X36746Y-34935D01*
X36746Y-34935D02*
X36713Y-34878D01*
X36713Y-34878D02*
X36692Y-34815D01*
X36692Y-34815D02*
X36685Y-34750D01*
X36685Y-34750D02*
X36692Y-34685D01*
X36692Y-34685D02*
X36713Y-34622D01*
X36713Y-34622D02*
X36746Y-34565D01*
X36746Y-34565D02*
X36790Y-34516D01*
X36790Y-34516D02*
X36843Y-34478D01*
X36843Y-34478D02*
X36903Y-34451D01*
X36903Y-34451D02*
X36968Y-34437D01*
X36968Y-34437D02*
X37032Y-34437D01*
X37032Y-34437D02*
X37097Y-34451D01*
X37097Y-34451D02*
X37157Y-34478D01*
X37157Y-34478D02*
X37210Y-34516D01*
X37210Y-34516D02*
X37254Y-34565D01*
X37254Y-34565D02*
X37287Y-34622D01*
X37287Y-34622D02*
X37308Y-34685D01*
X37308Y-34685D02*
X37315Y-34750D01*
X36565Y-34000D02*
X36558Y-34065D01*
X36558Y-34065D02*
X36537Y-34128D01*
X36537Y-34128D02*
X36504Y-34185D01*
X36504Y-34185D02*
X36460Y-34234D01*
X36460Y-34234D02*
X36407Y-34272D01*
X36407Y-34272D02*
X36347Y-34299D01*
X36347Y-34299D02*
X36282Y-34313D01*
X36282Y-34313D02*
X36218Y-34313D01*
X36218Y-34313D02*
X36153Y-34299D01*
X36153Y-34299D02*
X36093Y-34272D01*
X36093Y-34272D02*
X36040Y-34234D01*
X36040Y-34234D02*
X35996Y-34185D01*
X35996Y-34185D02*
X35963Y-34128D01*
X35963Y-34128D02*
X35942Y-34065D01*
X35942Y-34065D02*
X35935Y-34000D01*
X35935Y-34000D02*
X35942Y-33935D01*
X35942Y-33935D02*
X35963Y-33872D01*
X35963Y-33872D02*
X35996Y-33815D01*
X35996Y-33815D02*
X36040Y-33766D01*
X36040Y-33766D02*
X36093Y-33728D01*
X36093Y-33728D02*
X36153Y-33701D01*
X36153Y-33701D02*
X36218Y-33687D01*
X36218Y-33687D02*
X36282Y-33687D01*
X36282Y-33687D02*
X36347Y-33701D01*
X36347Y-33701D02*
X36407Y-33728D01*
X36407Y-33728D02*
X36460Y-33766D01*
X36460Y-33766D02*
X36504Y-33815D01*
X36504Y-33815D02*
X36537Y-33872D01*
X36537Y-33872D02*
X36558Y-33935D01*
X36558Y-33935D02*
X36565Y-34000D01*
X31560Y-27050D02*
X31560Y-27950D01*
X31560Y-27950D02*
X30940Y-27950D01*
X30940Y-27950D02*
X30940Y-27050D01*
X30940Y-27050D02*
X31560Y-27050D01*
X30560Y-27050D02*
X30560Y-27950D01*
X30560Y-27950D02*
X29940Y-27950D01*
X29940Y-27950D02*
X29940Y-27050D01*
X29940Y-27050D02*
X30560Y-27050D01*
X29560Y-27050D02*
X29560Y-27950D01*
X29560Y-27950D02*
X28940Y-27950D01*
X28940Y-27950D02*
X28940Y-27050D01*
X28940Y-27050D02*
X29560Y-27050D01*
X28560Y-27050D02*
X28560Y-27950D01*
X28560Y-27950D02*
X27940Y-27950D01*
X27940Y-27950D02*
X27940Y-27050D01*
X27940Y-27050D02*
X28560Y-27050D01*
X27560Y-27050D02*
X27560Y-27950D01*
X27560Y-27950D02*
X26940Y-27950D01*
X26940Y-27950D02*
X26940Y-27050D01*
X26940Y-27050D02*
X27560Y-27050D01*
X26560Y-27050D02*
X26560Y-27950D01*
X26560Y-27950D02*
X25940Y-27950D01*
X25940Y-27950D02*
X25940Y-27050D01*
X25940Y-27050D02*
X26560Y-27050D01*
X25560Y-27050D02*
X25560Y-27950D01*
X25560Y-27950D02*
X24940Y-27950D01*
X24940Y-27950D02*
X24940Y-27050D01*
X24940Y-27050D02*
X25560Y-27050D01*
X24560Y-27050D02*
X24560Y-27950D01*
X24560Y-27950D02*
X23940Y-27950D01*
X23940Y-27950D02*
X23940Y-27050D01*
X23940Y-27050D02*
X24560Y-27050D01*
X23560Y-27050D02*
X23560Y-27950D01*
X23560Y-27950D02*
X22940Y-27950D01*
X22940Y-27950D02*
X22940Y-27050D01*
X22940Y-27050D02*
X23560Y-27050D01*
X22560Y-27050D02*
X22560Y-27950D01*
X22560Y-27950D02*
X21940Y-27950D01*
X21940Y-27950D02*
X21940Y-27050D01*
X21940Y-27050D02*
X22560Y-27050D01*
X21560Y-27050D02*
X21560Y-27950D01*
X21560Y-27950D02*
X20940Y-27950D01*
X20940Y-27950D02*
X20940Y-27050D01*
X20940Y-27050D02*
X21560Y-27050D01*
X20560Y-27050D02*
X20560Y-27950D01*
X20560Y-27950D02*
X19940Y-27950D01*
X19940Y-27950D02*
X19940Y-27050D01*
X19940Y-27050D02*
X20560Y-27050D01*
X19560Y-27050D02*
X19560Y-27950D01*
X19560Y-27950D02*
X18940Y-27950D01*
X18940Y-27950D02*
X18940Y-27050D01*
X18940Y-27050D02*
X19560Y-27050D01*
X32560Y-27050D02*
X32560Y-27950D01*
X32560Y-27950D02*
X31940Y-27950D01*
X31940Y-27950D02*
X31940Y-27050D01*
X31940Y-27050D02*
X32560Y-27050D01*
X19560Y-30050D02*
X19560Y-30950D01*
X19560Y-30950D02*
X18940Y-30950D01*
X18940Y-30950D02*
X18940Y-30050D01*
X18940Y-30050D02*
X19560Y-30050D01*
X20560Y-30050D02*
X20560Y-30950D01*
X20560Y-30950D02*
X19940Y-30950D01*
X19940Y-30950D02*
X19940Y-30050D01*
X19940Y-30050D02*
X20560Y-30050D01*
X21560Y-30050D02*
X21560Y-30950D01*
X21560Y-30950D02*
X20940Y-30950D01*
X20940Y-30950D02*
X20940Y-30050D01*
X20940Y-30050D02*
X21560Y-30050D01*
X22560Y-30050D02*
X22560Y-30950D01*
X22560Y-30950D02*
X21940Y-30950D01*
X21940Y-30950D02*
X21940Y-30050D01*
X21940Y-30050D02*
X22560Y-30050D01*
X23560Y-30050D02*
X23560Y-30950D01*
X23560Y-30950D02*
X22940Y-30950D01*
X22940Y-30950D02*
X22940Y-30050D01*
X22940Y-30050D02*
X23560Y-30050D01*
X24560Y-30050D02*
X24560Y-30950D01*
X24560Y-30950D02*
X23940Y-30950D01*
X23940Y-30950D02*
X23940Y-30050D01*
X23940Y-30050D02*
X24560Y-30050D01*
X25560Y-30050D02*
X25560Y-30950D01*
X25560Y-30950D02*
X24940Y-30950D01*
X24940Y-30950D02*
X24940Y-30050D01*
X24940Y-30050D02*
X25560Y-30050D01*
X26560Y-30050D02*
X26560Y-30950D01*
X26560Y-30950D02*
X25940Y-30950D01*
X25940Y-30950D02*
X25940Y-30050D01*
X25940Y-30050D02*
X26560Y-30050D01*
X27560Y-30050D02*
X27560Y-30950D01*
X27560Y-30950D02*
X26940Y-30950D01*
X26940Y-30950D02*
X26940Y-30050D01*
X26940Y-30050D02*
X27560Y-30050D01*
X28560Y-30050D02*
X28560Y-30950D01*
X28560Y-30950D02*
X27940Y-30950D01*
X27940Y-30950D02*
X27940Y-30050D01*
X27940Y-30050D02*
X28560Y-30050D01*
X29560Y-30050D02*
X29560Y-30950D01*
X29560Y-30950D02*
X28940Y-30950D01*
X28940Y-30950D02*
X28940Y-30050D01*
X28940Y-30050D02*
X29560Y-30050D01*
X30560Y-30050D02*
X30560Y-30950D01*
X30560Y-30950D02*
X29940Y-30950D01*
X29940Y-30950D02*
X29940Y-30050D01*
X29940Y-30050D02*
X30560Y-30050D01*
X31560Y-30050D02*
X31560Y-30950D01*
X31560Y-30950D02*
X30940Y-30950D01*
X30940Y-30950D02*
X30940Y-30050D01*
X30940Y-30050D02*
X31560Y-30050D01*
X32560Y-30050D02*
X32560Y-30950D01*
X32560Y-30950D02*
X31940Y-30950D01*
X31940Y-30950D02*
X31940Y-30050D01*
X31940Y-30050D02*
X32560Y-30050D01*
X37225Y-26725D02*
X37775Y-26725D01*
X37775Y-26725D02*
X37775Y-27275D01*
X37775Y-27275D02*
X37225Y-27275D01*
X37225Y-27275D02*
X37225Y-26725D01*
X37775Y-28000D02*
X37768Y-28057D01*
X37768Y-28057D02*
X37751Y-28111D01*
X37751Y-28111D02*
X37722Y-28161D01*
X37722Y-28161D02*
X37684Y-28204D01*
X37684Y-28204D02*
X37637Y-28238D01*
X37637Y-28238D02*
X37584Y-28261D01*
X37584Y-28261D02*
X37528Y-28273D01*
X37528Y-28273D02*
X37472Y-28273D01*
X37472Y-28273D02*
X37416Y-28261D01*
X37416Y-28261D02*
X37363Y-28238D01*
X37363Y-28238D02*
X37316Y-28204D01*
X37316Y-28204D02*
X37278Y-28161D01*
X37278Y-28161D02*
X37249Y-28111D01*
X37249Y-28111D02*
X37232Y-28057D01*
X37232Y-28057D02*
X37225Y-28000D01*
X37225Y-28000D02*
X37232Y-27943D01*
X37232Y-27943D02*
X37249Y-27889D01*
X37249Y-27889D02*
X37278Y-27839D01*
X37278Y-27839D02*
X37316Y-27796D01*
X37316Y-27796D02*
X37363Y-27762D01*
X37363Y-27762D02*
X37416Y-27739D01*
X37416Y-27739D02*
X37472Y-27727D01*
X37472Y-27727D02*
X37528Y-27727D01*
X37528Y-27727D02*
X37584Y-27739D01*
X37584Y-27739D02*
X37637Y-27762D01*
X37637Y-27762D02*
X37684Y-27796D01*
X37684Y-27796D02*
X37722Y-27839D01*
X37722Y-27839D02*
X37751Y-27889D01*
X37751Y-27889D02*
X37768Y-27943D01*
X37768Y-27943D02*
X37775Y-28000D01*
X30975Y-24725D02*
X31525Y-24725D01*
X31525Y-24725D02*
X31525Y-25275D01*
X31525Y-25275D02*
X30975Y-25275D01*
X30975Y-25275D02*
X30975Y-24725D01*
X31525Y-26000D02*
X31518Y-26057D01*
X31518Y-26057D02*
X31501Y-26111D01*
X31501Y-26111D02*
X31472Y-26161D01*
X31472Y-26161D02*
X31434Y-26204D01*
X31434Y-26204D02*
X31387Y-26238D01*
X31387Y-26238D02*
X31334Y-26261D01*
X31334Y-26261D02*
X31278Y-26273D01*
X31278Y-26273D02*
X31222Y-26273D01*
X31222Y-26273D02*
X31166Y-26261D01*
X31166Y-26261D02*
X31113Y-26238D01*
X31113Y-26238D02*
X31066Y-26204D01*
X31066Y-26204D02*
X31028Y-26161D01*
X31028Y-26161D02*
X30999Y-26111D01*
X30999Y-26111D02*
X30982Y-26057D01*
X30982Y-26057D02*
X30975Y-26000D01*
X30975Y-26000D02*
X30982Y-25943D01*
X30982Y-25943D02*
X30999Y-25889D01*
X30999Y-25889D02*
X31028Y-25839D01*
X31028Y-25839D02*
X31066Y-25796D01*
X31066Y-25796D02*
X31113Y-25762D01*
X31113Y-25762D02*
X31166Y-25739D01*
X31166Y-25739D02*
X31222Y-25727D01*
X31222Y-25727D02*
X31278Y-25727D01*
X31278Y-25727D02*
X31334Y-25739D01*
X31334Y-25739D02*
X31387Y-25762D01*
X31387Y-25762D02*
X31434Y-25796D01*
X31434Y-25796D02*
X31472Y-25839D01*
X31472Y-25839D02*
X31501Y-25889D01*
X31501Y-25889D02*
X31518Y-25943D01*
X31518Y-25943D02*
X31525Y-26000D01*
X28975Y-24725D02*
X29525Y-24725D01*
X29525Y-24725D02*
X29525Y-25275D01*
X29525Y-25275D02*
X28975Y-25275D01*
X28975Y-25275D02*
X28975Y-24725D01*
X29525Y-26000D02*
X29518Y-26057D01*
X29518Y-26057D02*
X29501Y-26111D01*
X29501Y-26111D02*
X29472Y-26161D01*
X29472Y-26161D02*
X29434Y-26204D01*
X29434Y-26204D02*
X29387Y-26238D01*
X29387Y-26238D02*
X29334Y-26261D01*
X29334Y-26261D02*
X29278Y-26273D01*
X29278Y-26273D02*
X29222Y-26273D01*
X29222Y-26273D02*
X29166Y-26261D01*
X29166Y-26261D02*
X29113Y-26238D01*
X29113Y-26238D02*
X29066Y-26204D01*
X29066Y-26204D02*
X29028Y-26161D01*
X29028Y-26161D02*
X28999Y-26111D01*
X28999Y-26111D02*
X28982Y-26057D01*
X28982Y-26057D02*
X28975Y-26000D01*
X28975Y-26000D02*
X28982Y-25943D01*
X28982Y-25943D02*
X28999Y-25889D01*
X28999Y-25889D02*
X29028Y-25839D01*
X29028Y-25839D02*
X29066Y-25796D01*
X29066Y-25796D02*
X29113Y-25762D01*
X29113Y-25762D02*
X29166Y-25739D01*
X29166Y-25739D02*
X29222Y-25727D01*
X29222Y-25727D02*
X29278Y-25727D01*
X29278Y-25727D02*
X29334Y-25739D01*
X29334Y-25739D02*
X29387Y-25762D01*
X29387Y-25762D02*
X29434Y-25796D01*
X29434Y-25796D02*
X29472Y-25839D01*
X29472Y-25839D02*
X29501Y-25889D01*
X29501Y-25889D02*
X29518Y-25943D01*
X29518Y-25943D02*
X29525Y-26000D01*
X24850Y-25500D02*
X24842Y-25572D01*
X24842Y-25572D02*
X24819Y-25642D01*
X24819Y-25642D02*
X24783Y-25705D01*
X24783Y-25705D02*
X24734Y-25760D01*
X24734Y-25760D02*
X24675Y-25803D01*
X24675Y-25803D02*
X24608Y-25832D01*
X24608Y-25832D02*
X24536Y-25848D01*
X24536Y-25848D02*
X24464Y-25848D01*
X24464Y-25848D02*
X24392Y-25832D01*
X24392Y-25832D02*
X24325Y-25803D01*
X24325Y-25803D02*
X24266Y-25760D01*
X24266Y-25760D02*
X24217Y-25705D01*
X24217Y-25705D02*
X24181Y-25642D01*
X24181Y-25642D02*
X24158Y-25572D01*
X24158Y-25572D02*
X24150Y-25500D01*
X24150Y-25500D02*
X24158Y-25428D01*
X24158Y-25428D02*
X24181Y-25358D01*
X24181Y-25358D02*
X24217Y-25295D01*
X24217Y-25295D02*
X24266Y-25240D01*
X24266Y-25240D02*
X24325Y-25197D01*
X24325Y-25197D02*
X24392Y-25168D01*
X24392Y-25168D02*
X24464Y-25152D01*
X24464Y-25152D02*
X24536Y-25152D01*
X24536Y-25152D02*
X24608Y-25168D01*
X24608Y-25168D02*
X24675Y-25197D01*
X24675Y-25197D02*
X24734Y-25240D01*
X24734Y-25240D02*
X24783Y-25295D01*
X24783Y-25295D02*
X24819Y-25358D01*
X24819Y-25358D02*
X24842Y-25428D01*
X24842Y-25428D02*
X24850Y-25500D01*
X26850Y-25500D02*
X26842Y-25572D01*
X26842Y-25572D02*
X26819Y-25642D01*
X26819Y-25642D02*
X26783Y-25705D01*
X26783Y-25705D02*
X26734Y-25760D01*
X26734Y-25760D02*
X26675Y-25803D01*
X26675Y-25803D02*
X26608Y-25832D01*
X26608Y-25832D02*
X26536Y-25848D01*
X26536Y-25848D02*
X26464Y-25848D01*
X26464Y-25848D02*
X26392Y-25832D01*
X26392Y-25832D02*
X26325Y-25803D01*
X26325Y-25803D02*
X26266Y-25760D01*
X26266Y-25760D02*
X26217Y-25705D01*
X26217Y-25705D02*
X26181Y-25642D01*
X26181Y-25642D02*
X26158Y-25572D01*
X26158Y-25572D02*
X26150Y-25500D01*
X26150Y-25500D02*
X26158Y-25428D01*
X26158Y-25428D02*
X26181Y-25358D01*
X26181Y-25358D02*
X26217Y-25295D01*
X26217Y-25295D02*
X26266Y-25240D01*
X26266Y-25240D02*
X26325Y-25197D01*
X26325Y-25197D02*
X26392Y-25168D01*
X26392Y-25168D02*
X26464Y-25152D01*
X26464Y-25152D02*
X26536Y-25152D01*
X26536Y-25152D02*
X26608Y-25168D01*
X26608Y-25168D02*
X26675Y-25197D01*
X26675Y-25197D02*
X26734Y-25240D01*
X26734Y-25240D02*
X26783Y-25295D01*
X26783Y-25295D02*
X26819Y-25358D01*
X26819Y-25358D02*
X26842Y-25428D01*
X26842Y-25428D02*
X26850Y-25500D01*
X28725Y-33025D02*
X28725Y-32475D01*
X28725Y-32475D02*
X29275Y-32475D01*
X29275Y-32475D02*
X29275Y-33025D01*
X29275Y-33025D02*
X28725Y-33025D01*
X30275Y-32750D02*
X30268Y-32807D01*
X30268Y-32807D02*
X30251Y-32861D01*
X30251Y-32861D02*
X30222Y-32911D01*
X30222Y-32911D02*
X30184Y-32954D01*
X30184Y-32954D02*
X30137Y-32988D01*
X30137Y-32988D02*
X30084Y-33011D01*
X30084Y-33011D02*
X30028Y-33023D01*
X30028Y-33023D02*
X29972Y-33023D01*
X29972Y-33023D02*
X29916Y-33011D01*
X29916Y-33011D02*
X29863Y-32988D01*
X29863Y-32988D02*
X29816Y-32954D01*
X29816Y-32954D02*
X29778Y-32911D01*
X29778Y-32911D02*
X29749Y-32861D01*
X29749Y-32861D02*
X29732Y-32807D01*
X29732Y-32807D02*
X29725Y-32750D01*
X29725Y-32750D02*
X29732Y-32693D01*
X29732Y-32693D02*
X29749Y-32639D01*
X29749Y-32639D02*
X29778Y-32589D01*
X29778Y-32589D02*
X29816Y-32546D01*
X29816Y-32546D02*
X29863Y-32512D01*
X29863Y-32512D02*
X29916Y-32489D01*
X29916Y-32489D02*
X29972Y-32477D01*
X29972Y-32477D02*
X30028Y-32477D01*
X30028Y-32477D02*
X30084Y-32489D01*
X30084Y-32489D02*
X30137Y-32512D01*
X30137Y-32512D02*
X30184Y-32546D01*
X30184Y-32546D02*
X30222Y-32589D01*
X30222Y-32589D02*
X30251Y-32639D01*
X30251Y-32639D02*
X30268Y-32693D01*
X30268Y-32693D02*
X30275Y-32750D01*
X31275Y-32750D02*
X31268Y-32807D01*
X31268Y-32807D02*
X31251Y-32861D01*
X31251Y-32861D02*
X31222Y-32911D01*
X31222Y-32911D02*
X31184Y-32954D01*
X31184Y-32954D02*
X31137Y-32988D01*
X31137Y-32988D02*
X31084Y-33011D01*
X31084Y-33011D02*
X31028Y-33023D01*
X31028Y-33023D02*
X30972Y-33023D01*
X30972Y-33023D02*
X30916Y-33011D01*
X30916Y-33011D02*
X30863Y-32988D01*
X30863Y-32988D02*
X30816Y-32954D01*
X30816Y-32954D02*
X30778Y-32911D01*
X30778Y-32911D02*
X30749Y-32861D01*
X30749Y-32861D02*
X30732Y-32807D01*
X30732Y-32807D02*
X30725Y-32750D01*
X30725Y-32750D02*
X30732Y-32693D01*
X30732Y-32693D02*
X30749Y-32639D01*
X30749Y-32639D02*
X30778Y-32589D01*
X30778Y-32589D02*
X30816Y-32546D01*
X30816Y-32546D02*
X30863Y-32512D01*
X30863Y-32512D02*
X30916Y-32489D01*
X30916Y-32489D02*
X30972Y-32477D01*
X30972Y-32477D02*
X31028Y-32477D01*
X31028Y-32477D02*
X31084Y-32489D01*
X31084Y-32489D02*
X31137Y-32512D01*
X31137Y-32512D02*
X31184Y-32546D01*
X31184Y-32546D02*
X31222Y-32589D01*
X31222Y-32589D02*
X31251Y-32639D01*
X31251Y-32639D02*
X31268Y-32693D01*
X31268Y-32693D02*
X31275Y-32750D01*
X32275Y-32750D02*
X32268Y-32807D01*
X32268Y-32807D02*
X32251Y-32861D01*
X32251Y-32861D02*
X32222Y-32911D01*
X32222Y-32911D02*
X32184Y-32954D01*
X32184Y-32954D02*
X32137Y-32988D01*
X32137Y-32988D02*
X32084Y-33011D01*
X32084Y-33011D02*
X32028Y-33023D01*
X32028Y-33023D02*
X31972Y-33023D01*
X31972Y-33023D02*
X31916Y-33011D01*
X31916Y-33011D02*
X31863Y-32988D01*
X31863Y-32988D02*
X31816Y-32954D01*
X31816Y-32954D02*
X31778Y-32911D01*
X31778Y-32911D02*
X31749Y-32861D01*
X31749Y-32861D02*
X31732Y-32807D01*
X31732Y-32807D02*
X31725Y-32750D01*
X31725Y-32750D02*
X31732Y-32693D01*
X31732Y-32693D02*
X31749Y-32639D01*
X31749Y-32639D02*
X31778Y-32589D01*
X31778Y-32589D02*
X31816Y-32546D01*
X31816Y-32546D02*
X31863Y-32512D01*
X31863Y-32512D02*
X31916Y-32489D01*
X31916Y-32489D02*
X31972Y-32477D01*
X31972Y-32477D02*
X32028Y-32477D01*
X32028Y-32477D02*
X32084Y-32489D01*
X32084Y-32489D02*
X32137Y-32512D01*
X32137Y-32512D02*
X32184Y-32546D01*
X32184Y-32546D02*
X32222Y-32589D01*
X32222Y-32589D02*
X32251Y-32639D01*
X32251Y-32639D02*
X32268Y-32693D01*
X32268Y-32693D02*
X32275Y-32750D01*
X33275Y-32750D02*
X33268Y-32807D01*
X33268Y-32807D02*
X33251Y-32861D01*
X33251Y-32861D02*
X33222Y-32911D01*
X33222Y-32911D02*
X33184Y-32954D01*
X33184Y-32954D02*
X33137Y-32988D01*
X33137Y-32988D02*
X33084Y-33011D01*
X33084Y-33011D02*
X33028Y-33023D01*
X33028Y-33023D02*
X32972Y-33023D01*
X32972Y-33023D02*
X32916Y-33011D01*
X32916Y-33011D02*
X32863Y-32988D01*
X32863Y-32988D02*
X32816Y-32954D01*
X32816Y-32954D02*
X32778Y-32911D01*
X32778Y-32911D02*
X32749Y-32861D01*
X32749Y-32861D02*
X32732Y-32807D01*
X32732Y-32807D02*
X32725Y-32750D01*
X32725Y-32750D02*
X32732Y-32693D01*
X32732Y-32693D02*
X32749Y-32639D01*
X32749Y-32639D02*
X32778Y-32589D01*
X32778Y-32589D02*
X32816Y-32546D01*
X32816Y-32546D02*
X32863Y-32512D01*
X32863Y-32512D02*
X32916Y-32489D01*
X32916Y-32489D02*
X32972Y-32477D01*
X32972Y-32477D02*
X33028Y-32477D01*
X33028Y-32477D02*
X33084Y-32489D01*
X33084Y-32489D02*
X33137Y-32512D01*
X33137Y-32512D02*
X33184Y-32546D01*
X33184Y-32546D02*
X33222Y-32589D01*
X33222Y-32589D02*
X33251Y-32639D01*
X33251Y-32639D02*
X33268Y-32693D01*
X33268Y-32693D02*
X33275Y-32750D01*
X42525Y-28775D02*
X41975Y-28775D01*
X41975Y-28775D02*
X41975Y-28225D01*
X41975Y-28225D02*
X42525Y-28225D01*
X42525Y-28225D02*
X42525Y-28775D01*
X42525Y-27500D02*
X42518Y-27557D01*
X42518Y-27557D02*
X42501Y-27611D01*
X42501Y-27611D02*
X42472Y-27661D01*
X42472Y-27661D02*
X42434Y-27704D01*
X42434Y-27704D02*
X42387Y-27738D01*
X42387Y-27738D02*
X42334Y-27761D01*
X42334Y-27761D02*
X42278Y-27773D01*
X42278Y-27773D02*
X42222Y-27773D01*
X42222Y-27773D02*
X42166Y-27761D01*
X42166Y-27761D02*
X42113Y-27738D01*
X42113Y-27738D02*
X42066Y-27704D01*
X42066Y-27704D02*
X42028Y-27661D01*
X42028Y-27661D02*
X41999Y-27611D01*
X41999Y-27611D02*
X41982Y-27557D01*
X41982Y-27557D02*
X41975Y-27500D01*
X41975Y-27500D02*
X41982Y-27443D01*
X41982Y-27443D02*
X41999Y-27389D01*
X41999Y-27389D02*
X42028Y-27339D01*
X42028Y-27339D02*
X42066Y-27296D01*
X42066Y-27296D02*
X42113Y-27262D01*
X42113Y-27262D02*
X42166Y-27239D01*
X42166Y-27239D02*
X42222Y-27227D01*
X42222Y-27227D02*
X42278Y-27227D01*
X42278Y-27227D02*
X42334Y-27239D01*
X42334Y-27239D02*
X42387Y-27262D01*
X42387Y-27262D02*
X42434Y-27296D01*
X42434Y-27296D02*
X42472Y-27339D01*
X42472Y-27339D02*
X42501Y-27389D01*
X42501Y-27389D02*
X42518Y-27443D01*
X42518Y-27443D02*
X42525Y-27500D01*
X42525Y-26500D02*
X42518Y-26557D01*
X42518Y-26557D02*
X42501Y-26611D01*
X42501Y-26611D02*
X42472Y-26661D01*
X42472Y-26661D02*
X42434Y-26704D01*
X42434Y-26704D02*
X42387Y-26738D01*
X42387Y-26738D02*
X42334Y-26761D01*
X42334Y-26761D02*
X42278Y-26773D01*
X42278Y-26773D02*
X42222Y-26773D01*
X42222Y-26773D02*
X42166Y-26761D01*
X42166Y-26761D02*
X42113Y-26738D01*
X42113Y-26738D02*
X42066Y-26704D01*
X42066Y-26704D02*
X42028Y-26661D01*
X42028Y-26661D02*
X41999Y-26611D01*
X41999Y-26611D02*
X41982Y-26557D01*
X41982Y-26557D02*
X41975Y-26500D01*
X41975Y-26500D02*
X41982Y-26443D01*
X41982Y-26443D02*
X41999Y-26389D01*
X41999Y-26389D02*
X42028Y-26339D01*
X42028Y-26339D02*
X42066Y-26296D01*
X42066Y-26296D02*
X42113Y-26262D01*
X42113Y-26262D02*
X42166Y-26239D01*
X42166Y-26239D02*
X42222Y-26227D01*
X42222Y-26227D02*
X42278Y-26227D01*
X42278Y-26227D02*
X42334Y-26239D01*
X42334Y-26239D02*
X42387Y-26262D01*
X42387Y-26262D02*
X42434Y-26296D01*
X42434Y-26296D02*
X42472Y-26339D01*
X42472Y-26339D02*
X42501Y-26389D01*
X42501Y-26389D02*
X42518Y-26443D01*
X42518Y-26443D02*
X42525Y-26500D01*
X42525Y-25500D02*
X42518Y-25557D01*
X42518Y-25557D02*
X42501Y-25611D01*
X42501Y-25611D02*
X42472Y-25661D01*
X42472Y-25661D02*
X42434Y-25704D01*
X42434Y-25704D02*
X42387Y-25738D01*
X42387Y-25738D02*
X42334Y-25761D01*
X42334Y-25761D02*
X42278Y-25773D01*
X42278Y-25773D02*
X42222Y-25773D01*
X42222Y-25773D02*
X42166Y-25761D01*
X42166Y-25761D02*
X42113Y-25738D01*
X42113Y-25738D02*
X42066Y-25704D01*
X42066Y-25704D02*
X42028Y-25661D01*
X42028Y-25661D02*
X41999Y-25611D01*
X41999Y-25611D02*
X41982Y-25557D01*
X41982Y-25557D02*
X41975Y-25500D01*
X41975Y-25500D02*
X41982Y-25443D01*
X41982Y-25443D02*
X41999Y-25389D01*
X41999Y-25389D02*
X42028Y-25339D01*
X42028Y-25339D02*
X42066Y-25296D01*
X42066Y-25296D02*
X42113Y-25262D01*
X42113Y-25262D02*
X42166Y-25239D01*
X42166Y-25239D02*
X42222Y-25227D01*
X42222Y-25227D02*
X42278Y-25227D01*
X42278Y-25227D02*
X42334Y-25239D01*
X42334Y-25239D02*
X42387Y-25262D01*
X42387Y-25262D02*
X42434Y-25296D01*
X42434Y-25296D02*
X42472Y-25339D01*
X42472Y-25339D02*
X42501Y-25389D01*
X42501Y-25389D02*
X42518Y-25443D01*
X42518Y-25443D02*
X42525Y-25500D01*
X42525Y-24500D02*
X42518Y-24557D01*
X42518Y-24557D02*
X42501Y-24611D01*
X42501Y-24611D02*
X42472Y-24661D01*
X42472Y-24661D02*
X42434Y-24704D01*
X42434Y-24704D02*
X42387Y-24738D01*
X42387Y-24738D02*
X42334Y-24761D01*
X42334Y-24761D02*
X42278Y-24773D01*
X42278Y-24773D02*
X42222Y-24773D01*
X42222Y-24773D02*
X42166Y-24761D01*
X42166Y-24761D02*
X42113Y-24738D01*
X42113Y-24738D02*
X42066Y-24704D01*
X42066Y-24704D02*
X42028Y-24661D01*
X42028Y-24661D02*
X41999Y-24611D01*
X41999Y-24611D02*
X41982Y-24557D01*
X41982Y-24557D02*
X41975Y-24500D01*
X41975Y-24500D02*
X41982Y-24443D01*
X41982Y-24443D02*
X41999Y-24389D01*
X41999Y-24389D02*
X42028Y-24339D01*
X42028Y-24339D02*
X42066Y-24296D01*
X42066Y-24296D02*
X42113Y-24262D01*
X42113Y-24262D02*
X42166Y-24239D01*
X42166Y-24239D02*
X42222Y-24227D01*
X42222Y-24227D02*
X42278Y-24227D01*
X42278Y-24227D02*
X42334Y-24239D01*
X42334Y-24239D02*
X42387Y-24262D01*
X42387Y-24262D02*
X42434Y-24296D01*
X42434Y-24296D02*
X42472Y-24339D01*
X42472Y-24339D02*
X42501Y-24389D01*
X42501Y-24389D02*
X42518Y-24443D01*
X42518Y-24443D02*
X42525Y-24500D01*
X32831Y-26443D02*
X32831Y-25557D01*
X32831Y-25557D02*
X33717Y-25557D01*
X33717Y-25557D02*
X33717Y-26443D01*
X33717Y-26443D02*
X32831Y-26443D01*
X36669Y-26000D02*
X36659Y-26092D01*
X36659Y-26092D02*
X36630Y-26180D01*
X36630Y-26180D02*
X36584Y-26260D01*
X36584Y-26260D02*
X36522Y-26329D01*
X36522Y-26329D02*
X36447Y-26383D01*
X36447Y-26383D02*
X36362Y-26421D01*
X36362Y-26421D02*
X36272Y-26440D01*
X36272Y-26440D02*
X36180Y-26440D01*
X36180Y-26440D02*
X36090Y-26421D01*
X36090Y-26421D02*
X36005Y-26383D01*
X36005Y-26383D02*
X35930Y-26329D01*
X35930Y-26329D02*
X35868Y-26260D01*
X35868Y-26260D02*
X35822Y-26180D01*
X35822Y-26180D02*
X35793Y-26092D01*
X35793Y-26092D02*
X35783Y-26000D01*
X35783Y-26000D02*
X35793Y-25908D01*
X35793Y-25908D02*
X35822Y-25820D01*
X35822Y-25820D02*
X35868Y-25740D01*
X35868Y-25740D02*
X35930Y-25671D01*
X35930Y-25671D02*
X36005Y-25617D01*
X36005Y-25617D02*
X36090Y-25579D01*
X36090Y-25579D02*
X36180Y-25560D01*
X36180Y-25560D02*
X36272Y-25560D01*
X36272Y-25560D02*
X36362Y-25579D01*
X36362Y-25579D02*
X36447Y-25617D01*
X36447Y-25617D02*
X36522Y-25671D01*
X36522Y-25671D02*
X36584Y-25740D01*
X36584Y-25740D02*
X36630Y-25820D01*
X36630Y-25820D02*
X36659Y-25908D01*
X36659Y-25908D02*
X36669Y-26000D01*
X35685Y-26000D02*
X35675Y-26092D01*
X35675Y-26092D02*
X35646Y-26180D01*
X35646Y-26180D02*
X35600Y-26260D01*
X35600Y-26260D02*
X35538Y-26329D01*
X35538Y-26329D02*
X35463Y-26383D01*
X35463Y-26383D02*
X35378Y-26421D01*
X35378Y-26421D02*
X35288Y-26440D01*
X35288Y-26440D02*
X35196Y-26440D01*
X35196Y-26440D02*
X35106Y-26421D01*
X35106Y-26421D02*
X35021Y-26383D01*
X35021Y-26383D02*
X34946Y-26329D01*
X34946Y-26329D02*
X34884Y-26260D01*
X34884Y-26260D02*
X34838Y-26180D01*
X34838Y-26180D02*
X34809Y-26092D01*
X34809Y-26092D02*
X34799Y-26000D01*
X34799Y-26000D02*
X34809Y-25908D01*
X34809Y-25908D02*
X34838Y-25820D01*
X34838Y-25820D02*
X34884Y-25740D01*
X34884Y-25740D02*
X34946Y-25671D01*
X34946Y-25671D02*
X35021Y-25617D01*
X35021Y-25617D02*
X35106Y-25579D01*
X35106Y-25579D02*
X35196Y-25560D01*
X35196Y-25560D02*
X35288Y-25560D01*
X35288Y-25560D02*
X35378Y-25579D01*
X35378Y-25579D02*
X35463Y-25617D01*
X35463Y-25617D02*
X35538Y-25671D01*
X35538Y-25671D02*
X35600Y-25740D01*
X35600Y-25740D02*
X35646Y-25820D01*
X35646Y-25820D02*
X35675Y-25908D01*
X35675Y-25908D02*
X35685Y-26000D01*
X32919Y-33807D02*
X32919Y-34693D01*
X32919Y-34693D02*
X32033Y-34693D01*
X32033Y-34693D02*
X32033Y-33807D01*
X32033Y-33807D02*
X32919Y-33807D01*
X29967Y-34250D02*
X29957Y-34342D01*
X29957Y-34342D02*
X29928Y-34430D01*
X29928Y-34430D02*
X29882Y-34510D01*
X29882Y-34510D02*
X29820Y-34579D01*
X29820Y-34579D02*
X29745Y-34633D01*
X29745Y-34633D02*
X29660Y-34671D01*
X29660Y-34671D02*
X29570Y-34690D01*
X29570Y-34690D02*
X29478Y-34690D01*
X29478Y-34690D02*
X29388Y-34671D01*
X29388Y-34671D02*
X29303Y-34633D01*
X29303Y-34633D02*
X29228Y-34579D01*
X29228Y-34579D02*
X29166Y-34510D01*
X29166Y-34510D02*
X29120Y-34430D01*
X29120Y-34430D02*
X29091Y-34342D01*
X29091Y-34342D02*
X29081Y-34250D01*
X29081Y-34250D02*
X29091Y-34158D01*
X29091Y-34158D02*
X29120Y-34070D01*
X29120Y-34070D02*
X29166Y-33990D01*
X29166Y-33990D02*
X29228Y-33921D01*
X29228Y-33921D02*
X29303Y-33867D01*
X29303Y-33867D02*
X29388Y-33829D01*
X29388Y-33829D02*
X29478Y-33810D01*
X29478Y-33810D02*
X29570Y-33810D01*
X29570Y-33810D02*
X29660Y-33829D01*
X29660Y-33829D02*
X29745Y-33867D01*
X29745Y-33867D02*
X29820Y-33921D01*
X29820Y-33921D02*
X29882Y-33990D01*
X29882Y-33990D02*
X29928Y-34070D01*
X29928Y-34070D02*
X29957Y-34158D01*
X29957Y-34158D02*
X29967Y-34250D01*
X30951Y-34250D02*
X30941Y-34342D01*
X30941Y-34342D02*
X30912Y-34430D01*
X30912Y-34430D02*
X30866Y-34510D01*
X30866Y-34510D02*
X30804Y-34579D01*
X30804Y-34579D02*
X30729Y-34633D01*
X30729Y-34633D02*
X30644Y-34671D01*
X30644Y-34671D02*
X30554Y-34690D01*
X30554Y-34690D02*
X30462Y-34690D01*
X30462Y-34690D02*
X30372Y-34671D01*
X30372Y-34671D02*
X30287Y-34633D01*
X30287Y-34633D02*
X30212Y-34579D01*
X30212Y-34579D02*
X30150Y-34510D01*
X30150Y-34510D02*
X30104Y-34430D01*
X30104Y-34430D02*
X30075Y-34342D01*
X30075Y-34342D02*
X30065Y-34250D01*
X30065Y-34250D02*
X30075Y-34158D01*
X30075Y-34158D02*
X30104Y-34070D01*
X30104Y-34070D02*
X30150Y-33990D01*
X30150Y-33990D02*
X30212Y-33921D01*
X30212Y-33921D02*
X30287Y-33867D01*
X30287Y-33867D02*
X30372Y-33829D01*
X30372Y-33829D02*
X30462Y-33810D01*
X30462Y-33810D02*
X30554Y-33810D01*
X30554Y-33810D02*
X30644Y-33829D01*
X30644Y-33829D02*
X30729Y-33867D01*
X30729Y-33867D02*
X30804Y-33921D01*
X30804Y-33921D02*
X30866Y-33990D01*
X30866Y-33990D02*
X30912Y-34070D01*
X30912Y-34070D02*
X30941Y-34158D01*
X30941Y-34158D02*
X30951Y-34250D01*
X18669Y-33557D02*
X18669Y-34443D01*
X18669Y-34443D02*
X17783Y-34443D01*
X17783Y-34443D02*
X17783Y-33557D01*
X17783Y-33557D02*
X18669Y-33557D01*
X15717Y-34000D02*
X15707Y-34092D01*
X15707Y-34092D02*
X15678Y-34180D01*
X15678Y-34180D02*
X15632Y-34260D01*
X15632Y-34260D02*
X15570Y-34329D01*
X15570Y-34329D02*
X15495Y-34383D01*
X15495Y-34383D02*
X15410Y-34421D01*
X15410Y-34421D02*
X15320Y-34440D01*
X15320Y-34440D02*
X15228Y-34440D01*
X15228Y-34440D02*
X15138Y-34421D01*
X15138Y-34421D02*
X15053Y-34383D01*
X15053Y-34383D02*
X14978Y-34329D01*
X14978Y-34329D02*
X14916Y-34260D01*
X14916Y-34260D02*
X14870Y-34180D01*
X14870Y-34180D02*
X14841Y-34092D01*
X14841Y-34092D02*
X14831Y-34000D01*
X14831Y-34000D02*
X14841Y-33908D01*
X14841Y-33908D02*
X14870Y-33820D01*
X14870Y-33820D02*
X14916Y-33740D01*
X14916Y-33740D02*
X14978Y-33671D01*
X14978Y-33671D02*
X15053Y-33617D01*
X15053Y-33617D02*
X15138Y-33579D01*
X15138Y-33579D02*
X15228Y-33560D01*
X15228Y-33560D02*
X15320Y-33560D01*
X15320Y-33560D02*
X15410Y-33579D01*
X15410Y-33579D02*
X15495Y-33617D01*
X15495Y-33617D02*
X15570Y-33671D01*
X15570Y-33671D02*
X15632Y-33740D01*
X15632Y-33740D02*
X15678Y-33820D01*
X15678Y-33820D02*
X15707Y-33908D01*
X15707Y-33908D02*
X15717Y-34000D01*
X16701Y-34000D02*
X16691Y-34092D01*
X16691Y-34092D02*
X16662Y-34180D01*
X16662Y-34180D02*
X16616Y-34260D01*
X16616Y-34260D02*
X16554Y-34329D01*
X16554Y-34329D02*
X16479Y-34383D01*
X16479Y-34383D02*
X16394Y-34421D01*
X16394Y-34421D02*
X16304Y-34440D01*
X16304Y-34440D02*
X16212Y-34440D01*
X16212Y-34440D02*
X16122Y-34421D01*
X16122Y-34421D02*
X16037Y-34383D01*
X16037Y-34383D02*
X15962Y-34329D01*
X15962Y-34329D02*
X15900Y-34260D01*
X15900Y-34260D02*
X15854Y-34180D01*
X15854Y-34180D02*
X15825Y-34092D01*
X15825Y-34092D02*
X15815Y-34000D01*
X15815Y-34000D02*
X15825Y-33908D01*
X15825Y-33908D02*
X15854Y-33820D01*
X15854Y-33820D02*
X15900Y-33740D01*
X15900Y-33740D02*
X15962Y-33671D01*
X15962Y-33671D02*
X16037Y-33617D01*
X16037Y-33617D02*
X16122Y-33579D01*
X16122Y-33579D02*
X16212Y-33560D01*
X16212Y-33560D02*
X16304Y-33560D01*
X16304Y-33560D02*
X16394Y-33579D01*
X16394Y-33579D02*
X16479Y-33617D01*
X16479Y-33617D02*
X16554Y-33671D01*
X16554Y-33671D02*
X16616Y-33740D01*
X16616Y-33740D02*
X16662Y-33820D01*
X16662Y-33820D02*
X16691Y-33908D01*
X16691Y-33908D02*
X16701Y-34000D01*
X21927Y-31807D02*
X21927Y-32693D01*
X21927Y-32693D02*
X21041Y-32693D01*
X21041Y-32693D02*
X21041Y-31807D01*
X21041Y-31807D02*
X21927Y-31807D01*
X18975Y-32250D02*
X18965Y-32342D01*
X18965Y-32342D02*
X18936Y-32430D01*
X18936Y-32430D02*
X18890Y-32510D01*
X18890Y-32510D02*
X18828Y-32579D01*
X18828Y-32579D02*
X18753Y-32633D01*
X18753Y-32633D02*
X18668Y-32671D01*
X18668Y-32671D02*
X18578Y-32690D01*
X18578Y-32690D02*
X18486Y-32690D01*
X18486Y-32690D02*
X18396Y-32671D01*
X18396Y-32671D02*
X18311Y-32633D01*
X18311Y-32633D02*
X18236Y-32579D01*
X18236Y-32579D02*
X18174Y-32510D01*
X18174Y-32510D02*
X18128Y-32430D01*
X18128Y-32430D02*
X18099Y-32342D01*
X18099Y-32342D02*
X18089Y-32250D01*
X18089Y-32250D02*
X18099Y-32158D01*
X18099Y-32158D02*
X18128Y-32070D01*
X18128Y-32070D02*
X18174Y-31990D01*
X18174Y-31990D02*
X18236Y-31921D01*
X18236Y-31921D02*
X18311Y-31867D01*
X18311Y-31867D02*
X18396Y-31829D01*
X18396Y-31829D02*
X18486Y-31810D01*
X18486Y-31810D02*
X18578Y-31810D01*
X18578Y-31810D02*
X18668Y-31829D01*
X18668Y-31829D02*
X18753Y-31867D01*
X18753Y-31867D02*
X18828Y-31921D01*
X18828Y-31921D02*
X18890Y-31990D01*
X18890Y-31990D02*
X18936Y-32070D01*
X18936Y-32070D02*
X18965Y-32158D01*
X18965Y-32158D02*
X18975Y-32250D01*
X19959Y-32250D02*
X19949Y-32342D01*
X19949Y-32342D02*
X19920Y-32430D01*
X19920Y-32430D02*
X19874Y-32510D01*
X19874Y-32510D02*
X19812Y-32579D01*
X19812Y-32579D02*
X19737Y-32633D01*
X19737Y-32633D02*
X19652Y-32671D01*
X19652Y-32671D02*
X19562Y-32690D01*
X19562Y-32690D02*
X19470Y-32690D01*
X19470Y-32690D02*
X19380Y-32671D01*
X19380Y-32671D02*
X19295Y-32633D01*
X19295Y-32633D02*
X19220Y-32579D01*
X19220Y-32579D02*
X19158Y-32510D01*
X19158Y-32510D02*
X19112Y-32430D01*
X19112Y-32430D02*
X19083Y-32342D01*
X19083Y-32342D02*
X19073Y-32250D01*
X19073Y-32250D02*
X19083Y-32158D01*
X19083Y-32158D02*
X19112Y-32070D01*
X19112Y-32070D02*
X19158Y-31990D01*
X19158Y-31990D02*
X19220Y-31921D01*
X19220Y-31921D02*
X19295Y-31867D01*
X19295Y-31867D02*
X19380Y-31829D01*
X19380Y-31829D02*
X19470Y-31810D01*
X19470Y-31810D02*
X19562Y-31810D01*
X19562Y-31810D02*
X19652Y-31829D01*
X19652Y-31829D02*
X19737Y-31867D01*
X19737Y-31867D02*
X19812Y-31921D01*
X19812Y-31921D02*
X19874Y-31990D01*
X19874Y-31990D02*
X19920Y-32070D01*
X19920Y-32070D02*
X19949Y-32158D01*
X19949Y-32158D02*
X19959Y-32250D01*
X42169Y-21807D02*
X42169Y-22693D01*
X42169Y-22693D02*
X41283Y-22693D01*
X41283Y-22693D02*
X41283Y-21807D01*
X41283Y-21807D02*
X42169Y-21807D01*
X39217Y-22250D02*
X39207Y-22342D01*
X39207Y-22342D02*
X39178Y-22430D01*
X39178Y-22430D02*
X39132Y-22510D01*
X39132Y-22510D02*
X39070Y-22579D01*
X39070Y-22579D02*
X38995Y-22633D01*
X38995Y-22633D02*
X38910Y-22671D01*
X38910Y-22671D02*
X38820Y-22690D01*
X38820Y-22690D02*
X38728Y-22690D01*
X38728Y-22690D02*
X38638Y-22671D01*
X38638Y-22671D02*
X38553Y-22633D01*
X38553Y-22633D02*
X38478Y-22579D01*
X38478Y-22579D02*
X38416Y-22510D01*
X38416Y-22510D02*
X38370Y-22430D01*
X38370Y-22430D02*
X38341Y-22342D01*
X38341Y-22342D02*
X38331Y-22250D01*
X38331Y-22250D02*
X38341Y-22158D01*
X38341Y-22158D02*
X38370Y-22070D01*
X38370Y-22070D02*
X38416Y-21990D01*
X38416Y-21990D02*
X38478Y-21921D01*
X38478Y-21921D02*
X38553Y-21867D01*
X38553Y-21867D02*
X38638Y-21829D01*
X38638Y-21829D02*
X38728Y-21810D01*
X38728Y-21810D02*
X38820Y-21810D01*
X38820Y-21810D02*
X38910Y-21829D01*
X38910Y-21829D02*
X38995Y-21867D01*
X38995Y-21867D02*
X39070Y-21921D01*
X39070Y-21921D02*
X39132Y-21990D01*
X39132Y-21990D02*
X39178Y-22070D01*
X39178Y-22070D02*
X39207Y-22158D01*
X39207Y-22158D02*
X39217Y-22250D01*
X40201Y-22250D02*
X40191Y-22342D01*
X40191Y-22342D02*
X40162Y-22430D01*
X40162Y-22430D02*
X40116Y-22510D01*
X40116Y-22510D02*
X40054Y-22579D01*
X40054Y-22579D02*
X39979Y-22633D01*
X39979Y-22633D02*
X39894Y-22671D01*
X39894Y-22671D02*
X39804Y-22690D01*
X39804Y-22690D02*
X39712Y-22690D01*
X39712Y-22690D02*
X39622Y-22671D01*
X39622Y-22671D02*
X39537Y-22633D01*
X39537Y-22633D02*
X39462Y-22579D01*
X39462Y-22579D02*
X39400Y-22510D01*
X39400Y-22510D02*
X39354Y-22430D01*
X39354Y-22430D02*
X39325Y-22342D01*
X39325Y-22342D02*
X39315Y-22250D01*
X39315Y-22250D02*
X39325Y-22158D01*
X39325Y-22158D02*
X39354Y-22070D01*
X39354Y-22070D02*
X39400Y-21990D01*
X39400Y-21990D02*
X39462Y-21921D01*
X39462Y-21921D02*
X39537Y-21867D01*
X39537Y-21867D02*
X39622Y-21829D01*
X39622Y-21829D02*
X39712Y-21810D01*
X39712Y-21810D02*
X39804Y-21810D01*
X39804Y-21810D02*
X39894Y-21829D01*
X39894Y-21829D02*
X39979Y-21867D01*
X39979Y-21867D02*
X40054Y-21921D01*
X40054Y-21921D02*
X40116Y-21990D01*
X40116Y-21990D02*
X40162Y-22070D01*
X40162Y-22070D02*
X40191Y-22158D01*
X40191Y-22158D02*
X40201Y-22250D01*
X16581Y-26443D02*
X16581Y-25557D01*
X16581Y-25557D02*
X17467Y-25557D01*
X17467Y-25557D02*
X17467Y-26443D01*
X17467Y-26443D02*
X16581Y-26443D01*
X20419Y-26000D02*
X20409Y-26092D01*
X20409Y-26092D02*
X20380Y-26180D01*
X20380Y-26180D02*
X20334Y-26260D01*
X20334Y-26260D02*
X20272Y-26329D01*
X20272Y-26329D02*
X20197Y-26383D01*
X20197Y-26383D02*
X20112Y-26421D01*
X20112Y-26421D02*
X20022Y-26440D01*
X20022Y-26440D02*
X19930Y-26440D01*
X19930Y-26440D02*
X19840Y-26421D01*
X19840Y-26421D02*
X19755Y-26383D01*
X19755Y-26383D02*
X19680Y-26329D01*
X19680Y-26329D02*
X19618Y-26260D01*
X19618Y-26260D02*
X19572Y-26180D01*
X19572Y-26180D02*
X19543Y-26092D01*
X19543Y-26092D02*
X19533Y-26000D01*
X19533Y-26000D02*
X19543Y-25908D01*
X19543Y-25908D02*
X19572Y-25820D01*
X19572Y-25820D02*
X19618Y-25740D01*
X19618Y-25740D02*
X19680Y-25671D01*
X19680Y-25671D02*
X19755Y-25617D01*
X19755Y-25617D02*
X19840Y-25579D01*
X19840Y-25579D02*
X19930Y-25560D01*
X19930Y-25560D02*
X20022Y-25560D01*
X20022Y-25560D02*
X20112Y-25579D01*
X20112Y-25579D02*
X20197Y-25617D01*
X20197Y-25617D02*
X20272Y-25671D01*
X20272Y-25671D02*
X20334Y-25740D01*
X20334Y-25740D02*
X20380Y-25820D01*
X20380Y-25820D02*
X20409Y-25908D01*
X20409Y-25908D02*
X20419Y-26000D01*
X19435Y-26000D02*
X19425Y-26092D01*
X19425Y-26092D02*
X19396Y-26180D01*
X19396Y-26180D02*
X19350Y-26260D01*
X19350Y-26260D02*
X19288Y-26329D01*
X19288Y-26329D02*
X19213Y-26383D01*
X19213Y-26383D02*
X19128Y-26421D01*
X19128Y-26421D02*
X19038Y-26440D01*
X19038Y-26440D02*
X18946Y-26440D01*
X18946Y-26440D02*
X18856Y-26421D01*
X18856Y-26421D02*
X18771Y-26383D01*
X18771Y-26383D02*
X18696Y-26329D01*
X18696Y-26329D02*
X18634Y-26260D01*
X18634Y-26260D02*
X18588Y-26180D01*
X18588Y-26180D02*
X18559Y-26092D01*
X18559Y-26092D02*
X18549Y-26000D01*
X18549Y-26000D02*
X18559Y-25908D01*
X18559Y-25908D02*
X18588Y-25820D01*
X18588Y-25820D02*
X18634Y-25740D01*
X18634Y-25740D02*
X18696Y-25671D01*
X18696Y-25671D02*
X18771Y-25617D01*
X18771Y-25617D02*
X18856Y-25579D01*
X18856Y-25579D02*
X18946Y-25560D01*
X18946Y-25560D02*
X19038Y-25560D01*
X19038Y-25560D02*
X19128Y-25579D01*
X19128Y-25579D02*
X19213Y-25617D01*
X19213Y-25617D02*
X19288Y-25671D01*
X19288Y-25671D02*
X19350Y-25740D01*
X19350Y-25740D02*
X19396Y-25820D01*
X19396Y-25820D02*
X19425Y-25908D01*
X19425Y-25908D02*
X19435Y-26000D01*
X27307Y-24193D02*
X27307Y-23307D01*
X27307Y-23307D02*
X28193Y-23307D01*
X28193Y-23307D02*
X28193Y-24193D01*
X28193Y-24193D02*
X27307Y-24193D01*
X32193Y-23750D02*
X32183Y-23842D01*
X32183Y-23842D02*
X32154Y-23930D01*
X32154Y-23930D02*
X32108Y-24010D01*
X32108Y-24010D02*
X32046Y-24079D01*
X32046Y-24079D02*
X31971Y-24133D01*
X31971Y-24133D02*
X31886Y-24171D01*
X31886Y-24171D02*
X31796Y-24190D01*
X31796Y-24190D02*
X31704Y-24190D01*
X31704Y-24190D02*
X31614Y-24171D01*
X31614Y-24171D02*
X31529Y-24133D01*
X31529Y-24133D02*
X31454Y-24079D01*
X31454Y-24079D02*
X31392Y-24010D01*
X31392Y-24010D02*
X31346Y-23930D01*
X31346Y-23930D02*
X31317Y-23842D01*
X31317Y-23842D02*
X31307Y-23750D01*
X31307Y-23750D02*
X31317Y-23658D01*
X31317Y-23658D02*
X31346Y-23570D01*
X31346Y-23570D02*
X31392Y-23490D01*
X31392Y-23490D02*
X31454Y-23421D01*
X31454Y-23421D02*
X31529Y-23367D01*
X31529Y-23367D02*
X31614Y-23329D01*
X31614Y-23329D02*
X31704Y-23310D01*
X31704Y-23310D02*
X31796Y-23310D01*
X31796Y-23310D02*
X31886Y-23329D01*
X31886Y-23329D02*
X31971Y-23367D01*
X31971Y-23367D02*
X32046Y-23421D01*
X32046Y-23421D02*
X32108Y-23490D01*
X32108Y-23490D02*
X32154Y-23570D01*
X32154Y-23570D02*
X32183Y-23658D01*
X32183Y-23658D02*
X32193Y-23750D01*
X28557Y-22943D02*
X28557Y-22057D01*
X28557Y-22057D02*
X29443Y-22057D01*
X29443Y-22057D02*
X29443Y-22943D01*
X29443Y-22943D02*
X28557Y-22943D01*
X33443Y-22500D02*
X33433Y-22592D01*
X33433Y-22592D02*
X33404Y-22680D01*
X33404Y-22680D02*
X33358Y-22760D01*
X33358Y-22760D02*
X33296Y-22829D01*
X33296Y-22829D02*
X33221Y-22883D01*
X33221Y-22883D02*
X33136Y-22921D01*
X33136Y-22921D02*
X33046Y-22940D01*
X33046Y-22940D02*
X32954Y-22940D01*
X32954Y-22940D02*
X32864Y-22921D01*
X32864Y-22921D02*
X32779Y-22883D01*
X32779Y-22883D02*
X32704Y-22829D01*
X32704Y-22829D02*
X32642Y-22760D01*
X32642Y-22760D02*
X32596Y-22680D01*
X32596Y-22680D02*
X32567Y-22592D01*
X32567Y-22592D02*
X32557Y-22500D01*
X32557Y-22500D02*
X32567Y-22408D01*
X32567Y-22408D02*
X32596Y-22320D01*
X32596Y-22320D02*
X32642Y-22240D01*
X32642Y-22240D02*
X32704Y-22171D01*
X32704Y-22171D02*
X32779Y-22117D01*
X32779Y-22117D02*
X32864Y-22079D01*
X32864Y-22079D02*
X32954Y-22060D01*
X32954Y-22060D02*
X33046Y-22060D01*
X33046Y-22060D02*
X33136Y-22079D01*
X33136Y-22079D02*
X33221Y-22117D01*
X33221Y-22117D02*
X33296Y-22171D01*
X33296Y-22171D02*
X33358Y-22240D01*
X33358Y-22240D02*
X33404Y-22320D01*
X33404Y-22320D02*
X33433Y-22408D01*
X33433Y-22408D02*
X33443Y-22500D01*
X32557Y-24193D02*
X32557Y-23307D01*
X32557Y-23307D02*
X33443Y-23307D01*
X33443Y-23307D02*
X33443Y-24193D01*
X33443Y-24193D02*
X32557Y-24193D01*
X37443Y-23750D02*
X37433Y-23842D01*
X37433Y-23842D02*
X37404Y-23930D01*
X37404Y-23930D02*
X37358Y-24010D01*
X37358Y-24010D02*
X37296Y-24079D01*
X37296Y-24079D02*
X37221Y-24133D01*
X37221Y-24133D02*
X37136Y-24171D01*
X37136Y-24171D02*
X37046Y-24190D01*
X37046Y-24190D02*
X36954Y-24190D01*
X36954Y-24190D02*
X36864Y-24171D01*
X36864Y-24171D02*
X36779Y-24133D01*
X36779Y-24133D02*
X36704Y-24079D01*
X36704Y-24079D02*
X36642Y-24010D01*
X36642Y-24010D02*
X36596Y-23930D01*
X36596Y-23930D02*
X36567Y-23842D01*
X36567Y-23842D02*
X36557Y-23750D01*
X36557Y-23750D02*
X36567Y-23658D01*
X36567Y-23658D02*
X36596Y-23570D01*
X36596Y-23570D02*
X36642Y-23490D01*
X36642Y-23490D02*
X36704Y-23421D01*
X36704Y-23421D02*
X36779Y-23367D01*
X36779Y-23367D02*
X36864Y-23329D01*
X36864Y-23329D02*
X36954Y-23310D01*
X36954Y-23310D02*
X37046Y-23310D01*
X37046Y-23310D02*
X37136Y-23329D01*
X37136Y-23329D02*
X37221Y-23367D01*
X37221Y-23367D02*
X37296Y-23421D01*
X37296Y-23421D02*
X37358Y-23490D01*
X37358Y-23490D02*
X37404Y-23570D01*
X37404Y-23570D02*
X37433Y-23658D01*
X37433Y-23658D02*
X37443Y-23750D01*
X43193Y-32557D02*
X43193Y-33443D01*
X43193Y-33443D02*
X42307Y-33443D01*
X42307Y-33443D02*
X42307Y-32557D01*
X42307Y-32557D02*
X43193Y-32557D01*
X39193Y-33000D02*
X39183Y-33092D01*
X39183Y-33092D02*
X39154Y-33180D01*
X39154Y-33180D02*
X39108Y-33260D01*
X39108Y-33260D02*
X39046Y-33329D01*
X39046Y-33329D02*
X38971Y-33383D01*
X38971Y-33383D02*
X38886Y-33421D01*
X38886Y-33421D02*
X38796Y-33440D01*
X38796Y-33440D02*
X38704Y-33440D01*
X38704Y-33440D02*
X38614Y-33421D01*
X38614Y-33421D02*
X38529Y-33383D01*
X38529Y-33383D02*
X38454Y-33329D01*
X38454Y-33329D02*
X38392Y-33260D01*
X38392Y-33260D02*
X38346Y-33180D01*
X38346Y-33180D02*
X38317Y-33092D01*
X38317Y-33092D02*
X38307Y-33000D01*
X38307Y-33000D02*
X38317Y-32908D01*
X38317Y-32908D02*
X38346Y-32820D01*
X38346Y-32820D02*
X38392Y-32740D01*
X38392Y-32740D02*
X38454Y-32671D01*
X38454Y-32671D02*
X38529Y-32617D01*
X38529Y-32617D02*
X38614Y-32579D01*
X38614Y-32579D02*
X38704Y-32560D01*
X38704Y-32560D02*
X38796Y-32560D01*
X38796Y-32560D02*
X38886Y-32579D01*
X38886Y-32579D02*
X38971Y-32617D01*
X38971Y-32617D02*
X39046Y-32671D01*
X39046Y-32671D02*
X39108Y-32740D01*
X39108Y-32740D02*
X39154Y-32820D01*
X39154Y-32820D02*
X39183Y-32908D01*
X39183Y-32908D02*
X39193Y-33000D01*
X21307Y-22807D02*
X22193Y-22807D01*
X22193Y-22807D02*
X22193Y-23693D01*
X22193Y-23693D02*
X21307Y-23693D01*
X21307Y-23693D02*
X21307Y-22807D01*
X22193Y-24341D02*
X22183Y-24433D01*
X22183Y-24433D02*
X22154Y-24521D01*
X22154Y-24521D02*
X22108Y-24601D01*
X22108Y-24601D02*
X22046Y-24670D01*
X22046Y-24670D02*
X21971Y-24724D01*
X21971Y-24724D02*
X21886Y-24762D01*
X21886Y-24762D02*
X21796Y-24781D01*
X21796Y-24781D02*
X21704Y-24781D01*
X21704Y-24781D02*
X21614Y-24762D01*
X21614Y-24762D02*
X21529Y-24724D01*
X21529Y-24724D02*
X21454Y-24670D01*
X21454Y-24670D02*
X21392Y-24601D01*
X21392Y-24601D02*
X21346Y-24521D01*
X21346Y-24521D02*
X21317Y-24433D01*
X21317Y-24433D02*
X21307Y-24341D01*
X21307Y-24341D02*
X21317Y-24249D01*
X21317Y-24249D02*
X21346Y-24161D01*
X21346Y-24161D02*
X21392Y-24081D01*
X21392Y-24081D02*
X21454Y-24012D01*
X21454Y-24012D02*
X21529Y-23958D01*
X21529Y-23958D02*
X21614Y-23920D01*
X21614Y-23920D02*
X21704Y-23901D01*
X21704Y-23901D02*
X21796Y-23901D01*
X21796Y-23901D02*
X21886Y-23920D01*
X21886Y-23920D02*
X21971Y-23958D01*
X21971Y-23958D02*
X22046Y-24012D01*
X22046Y-24012D02*
X22108Y-24081D01*
X22108Y-24081D02*
X22154Y-24161D01*
X22154Y-24161D02*
X22183Y-24249D01*
X22183Y-24249D02*
X22193Y-24341D01*
X18307Y-24193D02*
X18307Y-23307D01*
X18307Y-23307D02*
X19193Y-23307D01*
X19193Y-23307D02*
X19193Y-24193D01*
X19193Y-24193D02*
X18307Y-24193D01*
X20284Y-23750D02*
X20274Y-23842D01*
X20274Y-23842D02*
X20245Y-23930D01*
X20245Y-23930D02*
X20199Y-24010D01*
X20199Y-24010D02*
X20137Y-24079D01*
X20137Y-24079D02*
X20062Y-24133D01*
X20062Y-24133D02*
X19977Y-24171D01*
X19977Y-24171D02*
X19887Y-24190D01*
X19887Y-24190D02*
X19795Y-24190D01*
X19795Y-24190D02*
X19705Y-24171D01*
X19705Y-24171D02*
X19620Y-24133D01*
X19620Y-24133D02*
X19545Y-24079D01*
X19545Y-24079D02*
X19483Y-24010D01*
X19483Y-24010D02*
X19437Y-23930D01*
X19437Y-23930D02*
X19408Y-23842D01*
X19408Y-23842D02*
X19398Y-23750D01*
X19398Y-23750D02*
X19408Y-23658D01*
X19408Y-23658D02*
X19437Y-23570D01*
X19437Y-23570D02*
X19483Y-23490D01*
X19483Y-23490D02*
X19545Y-23421D01*
X19545Y-23421D02*
X19620Y-23367D01*
X19620Y-23367D02*
X19705Y-23329D01*
X19705Y-23329D02*
X19795Y-23310D01*
X19795Y-23310D02*
X19887Y-23310D01*
X19887Y-23310D02*
X19977Y-23329D01*
X19977Y-23329D02*
X20062Y-23367D01*
X20062Y-23367D02*
X20137Y-23421D01*
X20137Y-23421D02*
X20199Y-23490D01*
X20199Y-23490D02*
X20245Y-23570D01*
X20245Y-23570D02*
X20274Y-23658D01*
X20274Y-23658D02*
X20284Y-23750D01*
X16307Y-22807D02*
X17193Y-22807D01*
X17193Y-22807D02*
X17193Y-23693D01*
X17193Y-23693D02*
X16307Y-23693D01*
X16307Y-23693D02*
X16307Y-22807D01*
X17193Y-24341D02*
X17183Y-24433D01*
X17183Y-24433D02*
X17154Y-24521D01*
X17154Y-24521D02*
X17108Y-24601D01*
X17108Y-24601D02*
X17046Y-24670D01*
X17046Y-24670D02*
X16971Y-24724D01*
X16971Y-24724D02*
X16886Y-24762D01*
X16886Y-24762D02*
X16796Y-24781D01*
X16796Y-24781D02*
X16704Y-24781D01*
X16704Y-24781D02*
X16614Y-24762D01*
X16614Y-24762D02*
X16529Y-24724D01*
X16529Y-24724D02*
X16454Y-24670D01*
X16454Y-24670D02*
X16392Y-24601D01*
X16392Y-24601D02*
X16346Y-24521D01*
X16346Y-24521D02*
X16317Y-24433D01*
X16317Y-24433D02*
X16307Y-24341D01*
X16307Y-24341D02*
X16317Y-24249D01*
X16317Y-24249D02*
X16346Y-24161D01*
X16346Y-24161D02*
X16392Y-24081D01*
X16392Y-24081D02*
X16454Y-24012D01*
X16454Y-24012D02*
X16529Y-23958D01*
X16529Y-23958D02*
X16614Y-23920D01*
X16614Y-23920D02*
X16704Y-23901D01*
X16704Y-23901D02*
X16796Y-23901D01*
X16796Y-23901D02*
X16886Y-23920D01*
X16886Y-23920D02*
X16971Y-23958D01*
X16971Y-23958D02*
X17046Y-24012D01*
X17046Y-24012D02*
X17108Y-24081D01*
X17108Y-24081D02*
X17154Y-24161D01*
X17154Y-24161D02*
X17183Y-24249D01*
X17183Y-24249D02*
X17193Y-24341D01*
X41443Y-28943D02*
X40557Y-28943D01*
X40557Y-28943D02*
X40557Y-28057D01*
X40557Y-28057D02*
X41443Y-28057D01*
X41443Y-28057D02*
X41443Y-28943D01*
X41443Y-24500D02*
X41433Y-24592D01*
X41433Y-24592D02*
X41404Y-24680D01*
X41404Y-24680D02*
X41358Y-24760D01*
X41358Y-24760D02*
X41296Y-24829D01*
X41296Y-24829D02*
X41221Y-24883D01*
X41221Y-24883D02*
X41136Y-24921D01*
X41136Y-24921D02*
X41046Y-24940D01*
X41046Y-24940D02*
X40954Y-24940D01*
X40954Y-24940D02*
X40864Y-24921D01*
X40864Y-24921D02*
X40779Y-24883D01*
X40779Y-24883D02*
X40704Y-24829D01*
X40704Y-24829D02*
X40642Y-24760D01*
X40642Y-24760D02*
X40596Y-24680D01*
X40596Y-24680D02*
X40567Y-24592D01*
X40567Y-24592D02*
X40557Y-24500D01*
X40557Y-24500D02*
X40567Y-24408D01*
X40567Y-24408D02*
X40596Y-24320D01*
X40596Y-24320D02*
X40642Y-24240D01*
X40642Y-24240D02*
X40704Y-24171D01*
X40704Y-24171D02*
X40779Y-24117D01*
X40779Y-24117D02*
X40864Y-24079D01*
X40864Y-24079D02*
X40954Y-24060D01*
X40954Y-24060D02*
X41046Y-24060D01*
X41046Y-24060D02*
X41136Y-24079D01*
X41136Y-24079D02*
X41221Y-24117D01*
X41221Y-24117D02*
X41296Y-24171D01*
X41296Y-24171D02*
X41358Y-24240D01*
X41358Y-24240D02*
X41404Y-24320D01*
X41404Y-24320D02*
X41433Y-24408D01*
X41433Y-24408D02*
X41443Y-24500D01*
X38943Y-30193D02*
X38057Y-30193D01*
X38057Y-30193D02*
X38057Y-29307D01*
X38057Y-29307D02*
X38943Y-29307D01*
X38943Y-29307D02*
X38943Y-30193D01*
X38943Y-25750D02*
X38933Y-25842D01*
X38933Y-25842D02*
X38904Y-25930D01*
X38904Y-25930D02*
X38858Y-26010D01*
X38858Y-26010D02*
X38796Y-26079D01*
X38796Y-26079D02*
X38721Y-26133D01*
X38721Y-26133D02*
X38636Y-26171D01*
X38636Y-26171D02*
X38546Y-26190D01*
X38546Y-26190D02*
X38454Y-26190D01*
X38454Y-26190D02*
X38364Y-26171D01*
X38364Y-26171D02*
X38279Y-26133D01*
X38279Y-26133D02*
X38204Y-26079D01*
X38204Y-26079D02*
X38142Y-26010D01*
X38142Y-26010D02*
X38096Y-25930D01*
X38096Y-25930D02*
X38067Y-25842D01*
X38067Y-25842D02*
X38057Y-25750D01*
X38057Y-25750D02*
X38067Y-25658D01*
X38067Y-25658D02*
X38096Y-25570D01*
X38096Y-25570D02*
X38142Y-25490D01*
X38142Y-25490D02*
X38204Y-25421D01*
X38204Y-25421D02*
X38279Y-25367D01*
X38279Y-25367D02*
X38364Y-25329D01*
X38364Y-25329D02*
X38454Y-25310D01*
X38454Y-25310D02*
X38546Y-25310D01*
X38546Y-25310D02*
X38636Y-25329D01*
X38636Y-25329D02*
X38721Y-25367D01*
X38721Y-25367D02*
X38796Y-25421D01*
X38796Y-25421D02*
X38858Y-25490D01*
X38858Y-25490D02*
X38904Y-25570D01*
X38904Y-25570D02*
X38933Y-25658D01*
X38933Y-25658D02*
X38943Y-25750D01*
X15994Y-26886D02*
X15975Y-27061D01*
X15975Y-27061D02*
X15920Y-27230D01*
X15920Y-27230D02*
X15832Y-27383D01*
X15832Y-27383D02*
X15714Y-27514D01*
X15714Y-27514D02*
X15571Y-27618D01*
X15571Y-27618D02*
X15409Y-27690D01*
X15409Y-27690D02*
X15236Y-27727D01*
X15236Y-27727D02*
X15060Y-27727D01*
X15060Y-27727D02*
X14887Y-27690D01*
X14887Y-27690D02*
X14725Y-27618D01*
X14725Y-27618D02*
X14582Y-27514D01*
X14582Y-27514D02*
X14464Y-27383D01*
X14464Y-27383D02*
X14376Y-27230D01*
X14376Y-27230D02*
X14321Y-27061D01*
X14321Y-27061D02*
X14302Y-26886D01*
X14302Y-26886D02*
X14321Y-26711D01*
X14321Y-26711D02*
X14376Y-26542D01*
X14376Y-26542D02*
X14464Y-26389D01*
X14464Y-26389D02*
X14582Y-26258D01*
X14582Y-26258D02*
X14725Y-26154D01*
X14725Y-26154D02*
X14887Y-26082D01*
X14887Y-26082D02*
X15060Y-26045D01*
X15060Y-26045D02*
X15236Y-26045D01*
X15236Y-26045D02*
X15409Y-26082D01*
X15409Y-26082D02*
X15571Y-26154D01*
X15571Y-26154D02*
X15714Y-26258D01*
X15714Y-26258D02*
X15832Y-26389D01*
X15832Y-26389D02*
X15920Y-26542D01*
X15920Y-26542D02*
X15975Y-26711D01*
X15975Y-26711D02*
X15994Y-26886D01*
X15994Y-31618D02*
X15975Y-31793D01*
X15975Y-31793D02*
X15920Y-31962D01*
X15920Y-31962D02*
X15832Y-32115D01*
X15832Y-32115D02*
X15714Y-32246D01*
X15714Y-32246D02*
X15571Y-32350D01*
X15571Y-32350D02*
X15409Y-32422D01*
X15409Y-32422D02*
X15236Y-32459D01*
X15236Y-32459D02*
X15060Y-32459D01*
X15060Y-32459D02*
X14887Y-32422D01*
X14887Y-32422D02*
X14725Y-32350D01*
X14725Y-32350D02*
X14582Y-32246D01*
X14582Y-32246D02*
X14464Y-32115D01*
X14464Y-32115D02*
X14376Y-31962D01*
X14376Y-31962D02*
X14321Y-31793D01*
X14321Y-31793D02*
X14302Y-31618D01*
X14302Y-31618D02*
X14321Y-31443D01*
X14321Y-31443D02*
X14376Y-31274D01*
X14376Y-31274D02*
X14464Y-31121D01*
X14464Y-31121D02*
X14582Y-30990D01*
X14582Y-30990D02*
X14725Y-30886D01*
X14725Y-30886D02*
X14887Y-30814D01*
X14887Y-30814D02*
X15060Y-30777D01*
X15060Y-30777D02*
X15236Y-30777D01*
X15236Y-30777D02*
X15409Y-30814D01*
X15409Y-30814D02*
X15571Y-30886D01*
X15571Y-30886D02*
X15714Y-30990D01*
X15714Y-30990D02*
X15832Y-31121D01*
X15832Y-31121D02*
X15920Y-31274D01*
X15920Y-31274D02*
X15975Y-31443D01*
X15975Y-31443D02*
X15994Y-31618D01*
X17295Y-29742D02*
X17288Y-29803D01*
X17288Y-29803D02*
X17269Y-29861D01*
X17269Y-29861D02*
X17238Y-29915D01*
X17238Y-29915D02*
X17197Y-29961D01*
X17197Y-29961D02*
X17147Y-29997D01*
X17147Y-29997D02*
X17091Y-30022D01*
X17091Y-30022D02*
X17030Y-30035D01*
X17030Y-30035D02*
X16970Y-30035D01*
X16970Y-30035D02*
X16909Y-30022D01*
X16909Y-30022D02*
X16853Y-29997D01*
X16853Y-29997D02*
X16803Y-29961D01*
X16803Y-29961D02*
X16762Y-29915D01*
X16762Y-29915D02*
X16731Y-29861D01*
X16731Y-29861D02*
X16712Y-29803D01*
X16712Y-29803D02*
X16705Y-29742D01*
X16705Y-29742D02*
X16712Y-29681D01*
X16712Y-29681D02*
X16731Y-29623D01*
X16731Y-29623D02*
X16762Y-29569D01*
X16762Y-29569D02*
X16803Y-29523D01*
X16803Y-29523D02*
X16853Y-29487D01*
X16853Y-29487D02*
X16909Y-29462D01*
X16909Y-29462D02*
X16970Y-29449D01*
X16970Y-29449D02*
X17030Y-29449D01*
X17030Y-29449D02*
X17091Y-29462D01*
X17091Y-29462D02*
X17147Y-29487D01*
X17147Y-29487D02*
X17197Y-29523D01*
X17197Y-29523D02*
X17238Y-29569D01*
X17238Y-29569D02*
X17269Y-29623D01*
X17269Y-29623D02*
X17288Y-29681D01*
X17288Y-29681D02*
X17295Y-29742D01*
X16505Y-29742D02*
X16498Y-29803D01*
X16498Y-29803D02*
X16479Y-29861D01*
X16479Y-29861D02*
X16448Y-29915D01*
X16448Y-29915D02*
X16407Y-29961D01*
X16407Y-29961D02*
X16357Y-29997D01*
X16357Y-29997D02*
X16301Y-30022D01*
X16301Y-30022D02*
X16240Y-30035D01*
X16240Y-30035D02*
X16180Y-30035D01*
X16180Y-30035D02*
X16119Y-30022D01*
X16119Y-30022D02*
X16063Y-29997D01*
X16063Y-29997D02*
X16013Y-29961D01*
X16013Y-29961D02*
X15972Y-29915D01*
X15972Y-29915D02*
X15941Y-29861D01*
X15941Y-29861D02*
X15922Y-29803D01*
X15922Y-29803D02*
X15915Y-29742D01*
X15915Y-29742D02*
X15922Y-29681D01*
X15922Y-29681D02*
X15941Y-29623D01*
X15941Y-29623D02*
X15972Y-29569D01*
X15972Y-29569D02*
X16013Y-29523D01*
X16013Y-29523D02*
X16063Y-29487D01*
X16063Y-29487D02*
X16119Y-29462D01*
X16119Y-29462D02*
X16180Y-29449D01*
X16180Y-29449D02*
X16240Y-29449D01*
X16240Y-29449D02*
X16301Y-29462D01*
X16301Y-29462D02*
X16357Y-29487D01*
X16357Y-29487D02*
X16407Y-29523D01*
X16407Y-29523D02*
X16448Y-29569D01*
X16448Y-29569D02*
X16479Y-29623D01*
X16479Y-29623D02*
X16498Y-29681D01*
X16498Y-29681D02*
X16505Y-29742D01*
X16505Y-28758D02*
X16498Y-28819D01*
X16498Y-28819D02*
X16479Y-28877D01*
X16479Y-28877D02*
X16448Y-28931D01*
X16448Y-28931D02*
X16407Y-28977D01*
X16407Y-28977D02*
X16357Y-29013D01*
X16357Y-29013D02*
X16301Y-29038D01*
X16301Y-29038D02*
X16240Y-29051D01*
X16240Y-29051D02*
X16180Y-29051D01*
X16180Y-29051D02*
X16119Y-29038D01*
X16119Y-29038D02*
X16063Y-29013D01*
X16063Y-29013D02*
X16013Y-28977D01*
X16013Y-28977D02*
X15972Y-28931D01*
X15972Y-28931D02*
X15941Y-28877D01*
X15941Y-28877D02*
X15922Y-28819D01*
X15922Y-28819D02*
X15915Y-28758D01*
X15915Y-28758D02*
X15922Y-28697D01*
X15922Y-28697D02*
X15941Y-28639D01*
X15941Y-28639D02*
X15972Y-28585D01*
X15972Y-28585D02*
X16013Y-28539D01*
X16013Y-28539D02*
X16063Y-28503D01*
X16063Y-28503D02*
X16119Y-28478D01*
X16119Y-28478D02*
X16180Y-28465D01*
X16180Y-28465D02*
X16240Y-28465D01*
X16240Y-28465D02*
X16301Y-28478D01*
X16301Y-28478D02*
X16357Y-28503D01*
X16357Y-28503D02*
X16407Y-28539D01*
X16407Y-28539D02*
X16448Y-28585D01*
X16448Y-28585D02*
X16479Y-28639D01*
X16479Y-28639D02*
X16498Y-28697D01*
X16498Y-28697D02*
X16505Y-28758D01*
X17295Y-28758D02*
X17288Y-28819D01*
X17288Y-28819D02*
X17269Y-28877D01*
X17269Y-28877D02*
X17238Y-28931D01*
X17238Y-28931D02*
X17197Y-28977D01*
X17197Y-28977D02*
X17147Y-29013D01*
X17147Y-29013D02*
X17091Y-29038D01*
X17091Y-29038D02*
X17030Y-29051D01*
X17030Y-29051D02*
X16970Y-29051D01*
X16970Y-29051D02*
X16909Y-29038D01*
X16909Y-29038D02*
X16853Y-29013D01*
X16853Y-29013D02*
X16803Y-28977D01*
X16803Y-28977D02*
X16762Y-28931D01*
X16762Y-28931D02*
X16731Y-28877D01*
X16731Y-28877D02*
X16712Y-28819D01*
X16712Y-28819D02*
X16705Y-28758D01*
X16705Y-28758D02*
X16712Y-28697D01*
X16712Y-28697D02*
X16731Y-28639D01*
X16731Y-28639D02*
X16762Y-28585D01*
X16762Y-28585D02*
X16803Y-28539D01*
X16803Y-28539D02*
X16853Y-28503D01*
X16853Y-28503D02*
X16909Y-28478D01*
X16909Y-28478D02*
X16970Y-28465D01*
X16970Y-28465D02*
X17030Y-28465D01*
X17030Y-28465D02*
X17091Y-28478D01*
X17091Y-28478D02*
X17147Y-28503D01*
X17147Y-28503D02*
X17197Y-28539D01*
X17197Y-28539D02*
X17238Y-28585D01*
X17238Y-28585D02*
X17269Y-28639D01*
X17269Y-28639D02*
X17288Y-28697D01*
X17288Y-28697D02*
X17295Y-28758D01*
X24775Y-23750D02*
X24768Y-23807D01*
X24768Y-23807D02*
X24751Y-23861D01*
X24751Y-23861D02*
X24722Y-23911D01*
X24722Y-23911D02*
X24684Y-23954D01*
X24684Y-23954D02*
X24637Y-23988D01*
X24637Y-23988D02*
X24584Y-24011D01*
X24584Y-24011D02*
X24528Y-24023D01*
X24528Y-24023D02*
X24472Y-24023D01*
X24472Y-24023D02*
X24416Y-24011D01*
X24416Y-24011D02*
X24363Y-23988D01*
X24363Y-23988D02*
X24316Y-23954D01*
X24316Y-23954D02*
X24278Y-23911D01*
X24278Y-23911D02*
X24249Y-23861D01*
X24249Y-23861D02*
X24232Y-23807D01*
X24232Y-23807D02*
X24225Y-23750D01*
X24225Y-23750D02*
X24232Y-23693D01*
X24232Y-23693D02*
X24249Y-23639D01*
X24249Y-23639D02*
X24278Y-23589D01*
X24278Y-23589D02*
X24316Y-23546D01*
X24316Y-23546D02*
X24363Y-23512D01*
X24363Y-23512D02*
X24416Y-23489D01*
X24416Y-23489D02*
X24472Y-23477D01*
X24472Y-23477D02*
X24528Y-23477D01*
X24528Y-23477D02*
X24584Y-23489D01*
X24584Y-23489D02*
X24637Y-23512D01*
X24637Y-23512D02*
X24684Y-23546D01*
X24684Y-23546D02*
X24722Y-23589D01*
X24722Y-23589D02*
X24751Y-23639D01*
X24751Y-23639D02*
X24768Y-23693D01*
X24768Y-23693D02*
X24775Y-23750D01*
X23775Y-23750D02*
X23768Y-23807D01*
X23768Y-23807D02*
X23751Y-23861D01*
X23751Y-23861D02*
X23722Y-23911D01*
X23722Y-23911D02*
X23684Y-23954D01*
X23684Y-23954D02*
X23637Y-23988D01*
X23637Y-23988D02*
X23584Y-24011D01*
X23584Y-24011D02*
X23528Y-24023D01*
X23528Y-24023D02*
X23472Y-24023D01*
X23472Y-24023D02*
X23416Y-24011D01*
X23416Y-24011D02*
X23363Y-23988D01*
X23363Y-23988D02*
X23316Y-23954D01*
X23316Y-23954D02*
X23278Y-23911D01*
X23278Y-23911D02*
X23249Y-23861D01*
X23249Y-23861D02*
X23232Y-23807D01*
X23232Y-23807D02*
X23225Y-23750D01*
X23225Y-23750D02*
X23232Y-23693D01*
X23232Y-23693D02*
X23249Y-23639D01*
X23249Y-23639D02*
X23278Y-23589D01*
X23278Y-23589D02*
X23316Y-23546D01*
X23316Y-23546D02*
X23363Y-23512D01*
X23363Y-23512D02*
X23416Y-23489D01*
X23416Y-23489D02*
X23472Y-23477D01*
X23472Y-23477D02*
X23528Y-23477D01*
X23528Y-23477D02*
X23584Y-23489D01*
X23584Y-23489D02*
X23637Y-23512D01*
X23637Y-23512D02*
X23684Y-23546D01*
X23684Y-23546D02*
X23722Y-23589D01*
X23722Y-23589D02*
X23751Y-23639D01*
X23751Y-23639D02*
X23768Y-23693D01*
X23768Y-23693D02*
X23775Y-23750D01*
X25775Y-23750D02*
X25768Y-23807D01*
X25768Y-23807D02*
X25751Y-23861D01*
X25751Y-23861D02*
X25722Y-23911D01*
X25722Y-23911D02*
X25684Y-23954D01*
X25684Y-23954D02*
X25637Y-23988D01*
X25637Y-23988D02*
X25584Y-24011D01*
X25584Y-24011D02*
X25528Y-24023D01*
X25528Y-24023D02*
X25472Y-24023D01*
X25472Y-24023D02*
X25416Y-24011D01*
X25416Y-24011D02*
X25363Y-23988D01*
X25363Y-23988D02*
X25316Y-23954D01*
X25316Y-23954D02*
X25278Y-23911D01*
X25278Y-23911D02*
X25249Y-23861D01*
X25249Y-23861D02*
X25232Y-23807D01*
X25232Y-23807D02*
X25225Y-23750D01*
X25225Y-23750D02*
X25232Y-23693D01*
X25232Y-23693D02*
X25249Y-23639D01*
X25249Y-23639D02*
X25278Y-23589D01*
X25278Y-23589D02*
X25316Y-23546D01*
X25316Y-23546D02*
X25363Y-23512D01*
X25363Y-23512D02*
X25416Y-23489D01*
X25416Y-23489D02*
X25472Y-23477D01*
X25472Y-23477D02*
X25528Y-23477D01*
X25528Y-23477D02*
X25584Y-23489D01*
X25584Y-23489D02*
X25637Y-23512D01*
X25637Y-23512D02*
X25684Y-23546D01*
X25684Y-23546D02*
X25722Y-23589D01*
X25722Y-23589D02*
X25751Y-23639D01*
X25751Y-23639D02*
X25768Y-23693D01*
X25768Y-23693D02*
X25775Y-23750D01*
X26775Y-23750D02*
X26768Y-23807D01*
X26768Y-23807D02*
X26751Y-23861D01*
X26751Y-23861D02*
X26722Y-23911D01*
X26722Y-23911D02*
X26684Y-23954D01*
X26684Y-23954D02*
X26637Y-23988D01*
X26637Y-23988D02*
X26584Y-24011D01*
X26584Y-24011D02*
X26528Y-24023D01*
X26528Y-24023D02*
X26472Y-24023D01*
X26472Y-24023D02*
X26416Y-24011D01*
X26416Y-24011D02*
X26363Y-23988D01*
X26363Y-23988D02*
X26316Y-23954D01*
X26316Y-23954D02*
X26278Y-23911D01*
X26278Y-23911D02*
X26249Y-23861D01*
X26249Y-23861D02*
X26232Y-23807D01*
X26232Y-23807D02*
X26225Y-23750D01*
X26225Y-23750D02*
X26232Y-23693D01*
X26232Y-23693D02*
X26249Y-23639D01*
X26249Y-23639D02*
X26278Y-23589D01*
X26278Y-23589D02*
X26316Y-23546D01*
X26316Y-23546D02*
X26363Y-23512D01*
X26363Y-23512D02*
X26416Y-23489D01*
X26416Y-23489D02*
X26472Y-23477D01*
X26472Y-23477D02*
X26528Y-23477D01*
X26528Y-23477D02*
X26584Y-23489D01*
X26584Y-23489D02*
X26637Y-23512D01*
X26637Y-23512D02*
X26684Y-23546D01*
X26684Y-23546D02*
X26722Y-23589D01*
X26722Y-23589D02*
X26751Y-23639D01*
X26751Y-23639D02*
X26768Y-23693D01*
X26768Y-23693D02*
X26775Y-23750D01*
X43193Y-31500D02*
X43183Y-31592D01*
X43183Y-31592D02*
X43154Y-31680D01*
X43154Y-31680D02*
X43108Y-31760D01*
X43108Y-31760D02*
X43046Y-31829D01*
X43046Y-31829D02*
X42971Y-31883D01*
X42971Y-31883D02*
X42886Y-31921D01*
X42886Y-31921D02*
X42796Y-31940D01*
X42796Y-31940D02*
X42704Y-31940D01*
X42704Y-31940D02*
X42614Y-31921D01*
X42614Y-31921D02*
X42529Y-31883D01*
X42529Y-31883D02*
X42454Y-31829D01*
X42454Y-31829D02*
X42392Y-31760D01*
X42392Y-31760D02*
X42346Y-31680D01*
X42346Y-31680D02*
X42317Y-31592D01*
X42317Y-31592D02*
X42307Y-31500D01*
X42307Y-31500D02*
X42317Y-31408D01*
X42317Y-31408D02*
X42346Y-31320D01*
X42346Y-31320D02*
X42392Y-31240D01*
X42392Y-31240D02*
X42454Y-31171D01*
X42454Y-31171D02*
X42529Y-31117D01*
X42529Y-31117D02*
X42614Y-31079D01*
X42614Y-31079D02*
X42704Y-31060D01*
X42704Y-31060D02*
X42796Y-31060D01*
X42796Y-31060D02*
X42886Y-31079D01*
X42886Y-31079D02*
X42971Y-31117D01*
X42971Y-31117D02*
X43046Y-31171D01*
X43046Y-31171D02*
X43108Y-31240D01*
X43108Y-31240D02*
X43154Y-31320D01*
X43154Y-31320D02*
X43183Y-31408D01*
X43183Y-31408D02*
X43193Y-31500D01*
X39193Y-31500D02*
X39183Y-31592D01*
X39183Y-31592D02*
X39154Y-31680D01*
X39154Y-31680D02*
X39108Y-31760D01*
X39108Y-31760D02*
X39046Y-31829D01*
X39046Y-31829D02*
X38971Y-31883D01*
X38971Y-31883D02*
X38886Y-31921D01*
X38886Y-31921D02*
X38796Y-31940D01*
X38796Y-31940D02*
X38704Y-31940D01*
X38704Y-31940D02*
X38614Y-31921D01*
X38614Y-31921D02*
X38529Y-31883D01*
X38529Y-31883D02*
X38454Y-31829D01*
X38454Y-31829D02*
X38392Y-31760D01*
X38392Y-31760D02*
X38346Y-31680D01*
X38346Y-31680D02*
X38317Y-31592D01*
X38317Y-31592D02*
X38307Y-31500D01*
X38307Y-31500D02*
X38317Y-31408D01*
X38317Y-31408D02*
X38346Y-31320D01*
X38346Y-31320D02*
X38392Y-31240D01*
X38392Y-31240D02*
X38454Y-31171D01*
X38454Y-31171D02*
X38529Y-31117D01*
X38529Y-31117D02*
X38614Y-31079D01*
X38614Y-31079D02*
X38704Y-31060D01*
X38704Y-31060D02*
X38796Y-31060D01*
X38796Y-31060D02*
X38886Y-31079D01*
X38886Y-31079D02*
X38971Y-31117D01*
X38971Y-31117D02*
X39046Y-31171D01*
X39046Y-31171D02*
X39108Y-31240D01*
X39108Y-31240D02*
X39154Y-31320D01*
X39154Y-31320D02*
X39183Y-31408D01*
X39183Y-31408D02*
X39193Y-31500D01*
X24193Y-34500D02*
X24183Y-34592D01*
X24183Y-34592D02*
X24154Y-34680D01*
X24154Y-34680D02*
X24108Y-34760D01*
X24108Y-34760D02*
X24046Y-34829D01*
X24046Y-34829D02*
X23971Y-34883D01*
X23971Y-34883D02*
X23886Y-34921D01*
X23886Y-34921D02*
X23796Y-34940D01*
X23796Y-34940D02*
X23704Y-34940D01*
X23704Y-34940D02*
X23614Y-34921D01*
X23614Y-34921D02*
X23529Y-34883D01*
X23529Y-34883D02*
X23454Y-34829D01*
X23454Y-34829D02*
X23392Y-34760D01*
X23392Y-34760D02*
X23346Y-34680D01*
X23346Y-34680D02*
X23317Y-34592D01*
X23317Y-34592D02*
X23307Y-34500D01*
X23307Y-34500D02*
X23317Y-34408D01*
X23317Y-34408D02*
X23346Y-34320D01*
X23346Y-34320D02*
X23392Y-34240D01*
X23392Y-34240D02*
X23454Y-34171D01*
X23454Y-34171D02*
X23529Y-34117D01*
X23529Y-34117D02*
X23614Y-34079D01*
X23614Y-34079D02*
X23704Y-34060D01*
X23704Y-34060D02*
X23796Y-34060D01*
X23796Y-34060D02*
X23886Y-34079D01*
X23886Y-34079D02*
X23971Y-34117D01*
X23971Y-34117D02*
X24046Y-34171D01*
X24046Y-34171D02*
X24108Y-34240D01*
X24108Y-34240D02*
X24154Y-34320D01*
X24154Y-34320D02*
X24183Y-34408D01*
X24183Y-34408D02*
X24193Y-34500D01*
X28193Y-34500D02*
X28183Y-34592D01*
X28183Y-34592D02*
X28154Y-34680D01*
X28154Y-34680D02*
X28108Y-34760D01*
X28108Y-34760D02*
X28046Y-34829D01*
X28046Y-34829D02*
X27971Y-34883D01*
X27971Y-34883D02*
X27886Y-34921D01*
X27886Y-34921D02*
X27796Y-34940D01*
X27796Y-34940D02*
X27704Y-34940D01*
X27704Y-34940D02*
X27614Y-34921D01*
X27614Y-34921D02*
X27529Y-34883D01*
X27529Y-34883D02*
X27454Y-34829D01*
X27454Y-34829D02*
X27392Y-34760D01*
X27392Y-34760D02*
X27346Y-34680D01*
X27346Y-34680D02*
X27317Y-34592D01*
X27317Y-34592D02*
X27307Y-34500D01*
X27307Y-34500D02*
X27317Y-34408D01*
X27317Y-34408D02*
X27346Y-34320D01*
X27346Y-34320D02*
X27392Y-34240D01*
X27392Y-34240D02*
X27454Y-34171D01*
X27454Y-34171D02*
X27529Y-34117D01*
X27529Y-34117D02*
X27614Y-34079D01*
X27614Y-34079D02*
X27704Y-34060D01*
X27704Y-34060D02*
X27796Y-34060D01*
X27796Y-34060D02*
X27886Y-34079D01*
X27886Y-34079D02*
X27971Y-34117D01*
X27971Y-34117D02*
X28046Y-34171D01*
X28046Y-34171D02*
X28108Y-34240D01*
X28108Y-34240D02*
X28154Y-34320D01*
X28154Y-34320D02*
X28183Y-34408D01*
X28183Y-34408D02*
X28193Y-34500D01*
X34443Y-30250D02*
X34433Y-30342D01*
X34433Y-30342D02*
X34404Y-30430D01*
X34404Y-30430D02*
X34358Y-30510D01*
X34358Y-30510D02*
X34296Y-30579D01*
X34296Y-30579D02*
X34221Y-30633D01*
X34221Y-30633D02*
X34136Y-30671D01*
X34136Y-30671D02*
X34046Y-30690D01*
X34046Y-30690D02*
X33954Y-30690D01*
X33954Y-30690D02*
X33864Y-30671D01*
X33864Y-30671D02*
X33779Y-30633D01*
X33779Y-30633D02*
X33704Y-30579D01*
X33704Y-30579D02*
X33642Y-30510D01*
X33642Y-30510D02*
X33596Y-30430D01*
X33596Y-30430D02*
X33567Y-30342D01*
X33567Y-30342D02*
X33557Y-30250D01*
X33557Y-30250D02*
X33567Y-30158D01*
X33567Y-30158D02*
X33596Y-30070D01*
X33596Y-30070D02*
X33642Y-29990D01*
X33642Y-29990D02*
X33704Y-29921D01*
X33704Y-29921D02*
X33779Y-29867D01*
X33779Y-29867D02*
X33864Y-29829D01*
X33864Y-29829D02*
X33954Y-29810D01*
X33954Y-29810D02*
X34046Y-29810D01*
X34046Y-29810D02*
X34136Y-29829D01*
X34136Y-29829D02*
X34221Y-29867D01*
X34221Y-29867D02*
X34296Y-29921D01*
X34296Y-29921D02*
X34358Y-29990D01*
X34358Y-29990D02*
X34404Y-30070D01*
X34404Y-30070D02*
X34433Y-30158D01*
X34433Y-30158D02*
X34443Y-30250D01*
X34443Y-34250D02*
X34433Y-34342D01*
X34433Y-34342D02*
X34404Y-34430D01*
X34404Y-34430D02*
X34358Y-34510D01*
X34358Y-34510D02*
X34296Y-34579D01*
X34296Y-34579D02*
X34221Y-34633D01*
X34221Y-34633D02*
X34136Y-34671D01*
X34136Y-34671D02*
X34046Y-34690D01*
X34046Y-34690D02*
X33954Y-34690D01*
X33954Y-34690D02*
X33864Y-34671D01*
X33864Y-34671D02*
X33779Y-34633D01*
X33779Y-34633D02*
X33704Y-34579D01*
X33704Y-34579D02*
X33642Y-34510D01*
X33642Y-34510D02*
X33596Y-34430D01*
X33596Y-34430D02*
X33567Y-34342D01*
X33567Y-34342D02*
X33557Y-34250D01*
X33557Y-34250D02*
X33567Y-34158D01*
X33567Y-34158D02*
X33596Y-34070D01*
X33596Y-34070D02*
X33642Y-33990D01*
X33642Y-33990D02*
X33704Y-33921D01*
X33704Y-33921D02*
X33779Y-33867D01*
X33779Y-33867D02*
X33864Y-33829D01*
X33864Y-33829D02*
X33954Y-33810D01*
X33954Y-33810D02*
X34046Y-33810D01*
X34046Y-33810D02*
X34136Y-33829D01*
X34136Y-33829D02*
X34221Y-33867D01*
X34221Y-33867D02*
X34296Y-33921D01*
X34296Y-33921D02*
X34358Y-33990D01*
X34358Y-33990D02*
X34404Y-34070D01*
X34404Y-34070D02*
X34433Y-34158D01*
X34433Y-34158D02*
X34443Y-34250D01*
X27943Y-32750D02*
X27933Y-32842D01*
X27933Y-32842D02*
X27904Y-32930D01*
X27904Y-32930D02*
X27858Y-33010D01*
X27858Y-33010D02*
X27796Y-33079D01*
X27796Y-33079D02*
X27721Y-33133D01*
X27721Y-33133D02*
X27636Y-33171D01*
X27636Y-33171D02*
X27546Y-33190D01*
X27546Y-33190D02*
X27454Y-33190D01*
X27454Y-33190D02*
X27364Y-33171D01*
X27364Y-33171D02*
X27279Y-33133D01*
X27279Y-33133D02*
X27204Y-33079D01*
X27204Y-33079D02*
X27142Y-33010D01*
X27142Y-33010D02*
X27096Y-32930D01*
X27096Y-32930D02*
X27067Y-32842D01*
X27067Y-32842D02*
X27057Y-32750D01*
X27057Y-32750D02*
X27067Y-32658D01*
X27067Y-32658D02*
X27096Y-32570D01*
X27096Y-32570D02*
X27142Y-32490D01*
X27142Y-32490D02*
X27204Y-32421D01*
X27204Y-32421D02*
X27279Y-32367D01*
X27279Y-32367D02*
X27364Y-32329D01*
X27364Y-32329D02*
X27454Y-32310D01*
X27454Y-32310D02*
X27546Y-32310D01*
X27546Y-32310D02*
X27636Y-32329D01*
X27636Y-32329D02*
X27721Y-32367D01*
X27721Y-32367D02*
X27796Y-32421D01*
X27796Y-32421D02*
X27858Y-32490D01*
X27858Y-32490D02*
X27904Y-32570D01*
X27904Y-32570D02*
X27933Y-32658D01*
X27933Y-32658D02*
X27943Y-32750D01*
X23943Y-32750D02*
X23933Y-32842D01*
X23933Y-32842D02*
X23904Y-32930D01*
X23904Y-32930D02*
X23858Y-33010D01*
X23858Y-33010D02*
X23796Y-33079D01*
X23796Y-33079D02*
X23721Y-33133D01*
X23721Y-33133D02*
X23636Y-33171D01*
X23636Y-33171D02*
X23546Y-33190D01*
X23546Y-33190D02*
X23454Y-33190D01*
X23454Y-33190D02*
X23364Y-33171D01*
X23364Y-33171D02*
X23279Y-33133D01*
X23279Y-33133D02*
X23204Y-33079D01*
X23204Y-33079D02*
X23142Y-33010D01*
X23142Y-33010D02*
X23096Y-32930D01*
X23096Y-32930D02*
X23067Y-32842D01*
X23067Y-32842D02*
X23057Y-32750D01*
X23057Y-32750D02*
X23067Y-32658D01*
X23067Y-32658D02*
X23096Y-32570D01*
X23096Y-32570D02*
X23142Y-32490D01*
X23142Y-32490D02*
X23204Y-32421D01*
X23204Y-32421D02*
X23279Y-32367D01*
X23279Y-32367D02*
X23364Y-32329D01*
X23364Y-32329D02*
X23454Y-32310D01*
X23454Y-32310D02*
X23546Y-32310D01*
X23546Y-32310D02*
X23636Y-32329D01*
X23636Y-32329D02*
X23721Y-32367D01*
X23721Y-32367D02*
X23796Y-32421D01*
X23796Y-32421D02*
X23858Y-32490D01*
X23858Y-32490D02*
X23904Y-32570D01*
X23904Y-32570D02*
X23933Y-32658D01*
X23933Y-32658D02*
X23943Y-32750D01*
X30193Y-31750D02*
X30183Y-31842D01*
X30183Y-31842D02*
X30154Y-31930D01*
X30154Y-31930D02*
X30108Y-32010D01*
X30108Y-32010D02*
X30046Y-32079D01*
X30046Y-32079D02*
X29971Y-32133D01*
X29971Y-32133D02*
X29886Y-32171D01*
X29886Y-32171D02*
X29796Y-32190D01*
X29796Y-32190D02*
X29704Y-32190D01*
X29704Y-32190D02*
X29614Y-32171D01*
X29614Y-32171D02*
X29529Y-32133D01*
X29529Y-32133D02*
X29454Y-32079D01*
X29454Y-32079D02*
X29392Y-32010D01*
X29392Y-32010D02*
X29346Y-31930D01*
X29346Y-31930D02*
X29317Y-31842D01*
X29317Y-31842D02*
X29307Y-31750D01*
X29307Y-31750D02*
X29317Y-31658D01*
X29317Y-31658D02*
X29346Y-31570D01*
X29346Y-31570D02*
X29392Y-31490D01*
X29392Y-31490D02*
X29454Y-31421D01*
X29454Y-31421D02*
X29529Y-31367D01*
X29529Y-31367D02*
X29614Y-31329D01*
X29614Y-31329D02*
X29704Y-31310D01*
X29704Y-31310D02*
X29796Y-31310D01*
X29796Y-31310D02*
X29886Y-31329D01*
X29886Y-31329D02*
X29971Y-31367D01*
X29971Y-31367D02*
X30046Y-31421D01*
X30046Y-31421D02*
X30108Y-31490D01*
X30108Y-31490D02*
X30154Y-31570D01*
X30154Y-31570D02*
X30183Y-31658D01*
X30183Y-31658D02*
X30193Y-31750D01*
X26193Y-31750D02*
X26183Y-31842D01*
X26183Y-31842D02*
X26154Y-31930D01*
X26154Y-31930D02*
X26108Y-32010D01*
X26108Y-32010D02*
X26046Y-32079D01*
X26046Y-32079D02*
X25971Y-32133D01*
X25971Y-32133D02*
X25886Y-32171D01*
X25886Y-32171D02*
X25796Y-32190D01*
X25796Y-32190D02*
X25704Y-32190D01*
X25704Y-32190D02*
X25614Y-32171D01*
X25614Y-32171D02*
X25529Y-32133D01*
X25529Y-32133D02*
X25454Y-32079D01*
X25454Y-32079D02*
X25392Y-32010D01*
X25392Y-32010D02*
X25346Y-31930D01*
X25346Y-31930D02*
X25317Y-31842D01*
X25317Y-31842D02*
X25307Y-31750D01*
X25307Y-31750D02*
X25317Y-31658D01*
X25317Y-31658D02*
X25346Y-31570D01*
X25346Y-31570D02*
X25392Y-31490D01*
X25392Y-31490D02*
X25454Y-31421D01*
X25454Y-31421D02*
X25529Y-31367D01*
X25529Y-31367D02*
X25614Y-31329D01*
X25614Y-31329D02*
X25704Y-31310D01*
X25704Y-31310D02*
X25796Y-31310D01*
X25796Y-31310D02*
X25886Y-31329D01*
X25886Y-31329D02*
X25971Y-31367D01*
X25971Y-31367D02*
X26046Y-31421D01*
X26046Y-31421D02*
X26108Y-31490D01*
X26108Y-31490D02*
X26154Y-31570D01*
X26154Y-31570D02*
X26183Y-31658D01*
X26183Y-31658D02*
X26193Y-31750D01*
X27943Y-22250D02*
X27933Y-22342D01*
X27933Y-22342D02*
X27904Y-22430D01*
X27904Y-22430D02*
X27858Y-22510D01*
X27858Y-22510D02*
X27796Y-22579D01*
X27796Y-22579D02*
X27721Y-22633D01*
X27721Y-22633D02*
X27636Y-22671D01*
X27636Y-22671D02*
X27546Y-22690D01*
X27546Y-22690D02*
X27454Y-22690D01*
X27454Y-22690D02*
X27364Y-22671D01*
X27364Y-22671D02*
X27279Y-22633D01*
X27279Y-22633D02*
X27204Y-22579D01*
X27204Y-22579D02*
X27142Y-22510D01*
X27142Y-22510D02*
X27096Y-22430D01*
X27096Y-22430D02*
X27067Y-22342D01*
X27067Y-22342D02*
X27057Y-22250D01*
X27057Y-22250D02*
X27067Y-22158D01*
X27067Y-22158D02*
X27096Y-22070D01*
X27096Y-22070D02*
X27142Y-21990D01*
X27142Y-21990D02*
X27204Y-21921D01*
X27204Y-21921D02*
X27279Y-21867D01*
X27279Y-21867D02*
X27364Y-21829D01*
X27364Y-21829D02*
X27454Y-21810D01*
X27454Y-21810D02*
X27546Y-21810D01*
X27546Y-21810D02*
X27636Y-21829D01*
X27636Y-21829D02*
X27721Y-21867D01*
X27721Y-21867D02*
X27796Y-21921D01*
X27796Y-21921D02*
X27858Y-21990D01*
X27858Y-21990D02*
X27904Y-22070D01*
X27904Y-22070D02*
X27933Y-22158D01*
X27933Y-22158D02*
X27943Y-22250D01*
X23943Y-22250D02*
X23933Y-22342D01*
X23933Y-22342D02*
X23904Y-22430D01*
X23904Y-22430D02*
X23858Y-22510D01*
X23858Y-22510D02*
X23796Y-22579D01*
X23796Y-22579D02*
X23721Y-22633D01*
X23721Y-22633D02*
X23636Y-22671D01*
X23636Y-22671D02*
X23546Y-22690D01*
X23546Y-22690D02*
X23454Y-22690D01*
X23454Y-22690D02*
X23364Y-22671D01*
X23364Y-22671D02*
X23279Y-22633D01*
X23279Y-22633D02*
X23204Y-22579D01*
X23204Y-22579D02*
X23142Y-22510D01*
X23142Y-22510D02*
X23096Y-22430D01*
X23096Y-22430D02*
X23067Y-22342D01*
X23067Y-22342D02*
X23057Y-22250D01*
X23057Y-22250D02*
X23067Y-22158D01*
X23067Y-22158D02*
X23096Y-22070D01*
X23096Y-22070D02*
X23142Y-21990D01*
X23142Y-21990D02*
X23204Y-21921D01*
X23204Y-21921D02*
X23279Y-21867D01*
X23279Y-21867D02*
X23364Y-21829D01*
X23364Y-21829D02*
X23454Y-21810D01*
X23454Y-21810D02*
X23546Y-21810D01*
X23546Y-21810D02*
X23636Y-21829D01*
X23636Y-21829D02*
X23721Y-21867D01*
X23721Y-21867D02*
X23796Y-21921D01*
X23796Y-21921D02*
X23858Y-21990D01*
X23858Y-21990D02*
X23904Y-22070D01*
X23904Y-22070D02*
X23933Y-22158D01*
X23933Y-22158D02*
X23943Y-22250D01*
X19943Y-22000D02*
X19933Y-22092D01*
X19933Y-22092D02*
X19904Y-22180D01*
X19904Y-22180D02*
X19858Y-22260D01*
X19858Y-22260D02*
X19796Y-22329D01*
X19796Y-22329D02*
X19721Y-22383D01*
X19721Y-22383D02*
X19636Y-22421D01*
X19636Y-22421D02*
X19546Y-22440D01*
X19546Y-22440D02*
X19454Y-22440D01*
X19454Y-22440D02*
X19364Y-22421D01*
X19364Y-22421D02*
X19279Y-22383D01*
X19279Y-22383D02*
X19204Y-22329D01*
X19204Y-22329D02*
X19142Y-22260D01*
X19142Y-22260D02*
X19096Y-22180D01*
X19096Y-22180D02*
X19067Y-22092D01*
X19067Y-22092D02*
X19057Y-22000D01*
X19057Y-22000D02*
X19067Y-21908D01*
X19067Y-21908D02*
X19096Y-21820D01*
X19096Y-21820D02*
X19142Y-21740D01*
X19142Y-21740D02*
X19204Y-21671D01*
X19204Y-21671D02*
X19279Y-21617D01*
X19279Y-21617D02*
X19364Y-21579D01*
X19364Y-21579D02*
X19454Y-21560D01*
X19454Y-21560D02*
X19546Y-21560D01*
X19546Y-21560D02*
X19636Y-21579D01*
X19636Y-21579D02*
X19721Y-21617D01*
X19721Y-21617D02*
X19796Y-21671D01*
X19796Y-21671D02*
X19858Y-21740D01*
X19858Y-21740D02*
X19904Y-21820D01*
X19904Y-21820D02*
X19933Y-21908D01*
X19933Y-21908D02*
X19943Y-22000D01*
X15943Y-22000D02*
X15933Y-22092D01*
X15933Y-22092D02*
X15904Y-22180D01*
X15904Y-22180D02*
X15858Y-22260D01*
X15858Y-22260D02*
X15796Y-22329D01*
X15796Y-22329D02*
X15721Y-22383D01*
X15721Y-22383D02*
X15636Y-22421D01*
X15636Y-22421D02*
X15546Y-22440D01*
X15546Y-22440D02*
X15454Y-22440D01*
X15454Y-22440D02*
X15364Y-22421D01*
X15364Y-22421D02*
X15279Y-22383D01*
X15279Y-22383D02*
X15204Y-22329D01*
X15204Y-22329D02*
X15142Y-22260D01*
X15142Y-22260D02*
X15096Y-22180D01*
X15096Y-22180D02*
X15067Y-22092D01*
X15067Y-22092D02*
X15057Y-22000D01*
X15057Y-22000D02*
X15067Y-21908D01*
X15067Y-21908D02*
X15096Y-21820D01*
X15096Y-21820D02*
X15142Y-21740D01*
X15142Y-21740D02*
X15204Y-21671D01*
X15204Y-21671D02*
X15279Y-21617D01*
X15279Y-21617D02*
X15364Y-21579D01*
X15364Y-21579D02*
X15454Y-21560D01*
X15454Y-21560D02*
X15546Y-21560D01*
X15546Y-21560D02*
X15636Y-21579D01*
X15636Y-21579D02*
X15721Y-21617D01*
X15721Y-21617D02*
X15796Y-21671D01*
X15796Y-21671D02*
X15858Y-21740D01*
X15858Y-21740D02*
X15904Y-21820D01*
X15904Y-21820D02*
X15933Y-21908D01*
X15933Y-21908D02*
X15943Y-22000D01*
X14193Y-26000D02*
X14183Y-26092D01*
X14183Y-26092D02*
X14154Y-26180D01*
X14154Y-26180D02*
X14108Y-26260D01*
X14108Y-26260D02*
X14046Y-26329D01*
X14046Y-26329D02*
X13971Y-26383D01*
X13971Y-26383D02*
X13886Y-26421D01*
X13886Y-26421D02*
X13796Y-26440D01*
X13796Y-26440D02*
X13704Y-26440D01*
X13704Y-26440D02*
X13614Y-26421D01*
X13614Y-26421D02*
X13529Y-26383D01*
X13529Y-26383D02*
X13454Y-26329D01*
X13454Y-26329D02*
X13392Y-26260D01*
X13392Y-26260D02*
X13346Y-26180D01*
X13346Y-26180D02*
X13317Y-26092D01*
X13317Y-26092D02*
X13307Y-26000D01*
X13307Y-26000D02*
X13317Y-25908D01*
X13317Y-25908D02*
X13346Y-25820D01*
X13346Y-25820D02*
X13392Y-25740D01*
X13392Y-25740D02*
X13454Y-25671D01*
X13454Y-25671D02*
X13529Y-25617D01*
X13529Y-25617D02*
X13614Y-25579D01*
X13614Y-25579D02*
X13704Y-25560D01*
X13704Y-25560D02*
X13796Y-25560D01*
X13796Y-25560D02*
X13886Y-25579D01*
X13886Y-25579D02*
X13971Y-25617D01*
X13971Y-25617D02*
X14046Y-25671D01*
X14046Y-25671D02*
X14108Y-25740D01*
X14108Y-25740D02*
X14154Y-25820D01*
X14154Y-25820D02*
X14183Y-25908D01*
X14183Y-25908D02*
X14193Y-26000D01*
X14193Y-22000D02*
X14183Y-22092D01*
X14183Y-22092D02*
X14154Y-22180D01*
X14154Y-22180D02*
X14108Y-22260D01*
X14108Y-22260D02*
X14046Y-22329D01*
X14046Y-22329D02*
X13971Y-22383D01*
X13971Y-22383D02*
X13886Y-22421D01*
X13886Y-22421D02*
X13796Y-22440D01*
X13796Y-22440D02*
X13704Y-22440D01*
X13704Y-22440D02*
X13614Y-22421D01*
X13614Y-22421D02*
X13529Y-22383D01*
X13529Y-22383D02*
X13454Y-22329D01*
X13454Y-22329D02*
X13392Y-22260D01*
X13392Y-22260D02*
X13346Y-22180D01*
X13346Y-22180D02*
X13317Y-22092D01*
X13317Y-22092D02*
X13307Y-22000D01*
X13307Y-22000D02*
X13317Y-21908D01*
X13317Y-21908D02*
X13346Y-21820D01*
X13346Y-21820D02*
X13392Y-21740D01*
X13392Y-21740D02*
X13454Y-21671D01*
X13454Y-21671D02*
X13529Y-21617D01*
X13529Y-21617D02*
X13614Y-21579D01*
X13614Y-21579D02*
X13704Y-21560D01*
X13704Y-21560D02*
X13796Y-21560D01*
X13796Y-21560D02*
X13886Y-21579D01*
X13886Y-21579D02*
X13971Y-21617D01*
X13971Y-21617D02*
X14046Y-21671D01*
X14046Y-21671D02*
X14108Y-21740D01*
X14108Y-21740D02*
X14154Y-21820D01*
X14154Y-21820D02*
X14183Y-21908D01*
X14183Y-21908D02*
X14193Y-22000D01*
X35193Y-29000D02*
X35183Y-29092D01*
X35183Y-29092D02*
X35154Y-29180D01*
X35154Y-29180D02*
X35108Y-29260D01*
X35108Y-29260D02*
X35046Y-29329D01*
X35046Y-29329D02*
X34971Y-29383D01*
X34971Y-29383D02*
X34886Y-29421D01*
X34886Y-29421D02*
X34796Y-29440D01*
X34796Y-29440D02*
X34704Y-29440D01*
X34704Y-29440D02*
X34614Y-29421D01*
X34614Y-29421D02*
X34529Y-29383D01*
X34529Y-29383D02*
X34454Y-29329D01*
X34454Y-29329D02*
X34392Y-29260D01*
X34392Y-29260D02*
X34346Y-29180D01*
X34346Y-29180D02*
X34317Y-29092D01*
X34317Y-29092D02*
X34307Y-29000D01*
X34307Y-29000D02*
X34317Y-28908D01*
X34317Y-28908D02*
X34346Y-28820D01*
X34346Y-28820D02*
X34392Y-28740D01*
X34392Y-28740D02*
X34454Y-28671D01*
X34454Y-28671D02*
X34529Y-28617D01*
X34529Y-28617D02*
X34614Y-28579D01*
X34614Y-28579D02*
X34704Y-28560D01*
X34704Y-28560D02*
X34796Y-28560D01*
X34796Y-28560D02*
X34886Y-28579D01*
X34886Y-28579D02*
X34971Y-28617D01*
X34971Y-28617D02*
X35046Y-28671D01*
X35046Y-28671D02*
X35108Y-28740D01*
X35108Y-28740D02*
X35154Y-28820D01*
X35154Y-28820D02*
X35183Y-28908D01*
X35183Y-28908D02*
X35193Y-29000D01*
X35193Y-33000D02*
X35183Y-33092D01*
X35183Y-33092D02*
X35154Y-33180D01*
X35154Y-33180D02*
X35108Y-33260D01*
X35108Y-33260D02*
X35046Y-33329D01*
X35046Y-33329D02*
X34971Y-33383D01*
X34971Y-33383D02*
X34886Y-33421D01*
X34886Y-33421D02*
X34796Y-33440D01*
X34796Y-33440D02*
X34704Y-33440D01*
X34704Y-33440D02*
X34614Y-33421D01*
X34614Y-33421D02*
X34529Y-33383D01*
X34529Y-33383D02*
X34454Y-33329D01*
X34454Y-33329D02*
X34392Y-33260D01*
X34392Y-33260D02*
X34346Y-33180D01*
X34346Y-33180D02*
X34317Y-33092D01*
X34317Y-33092D02*
X34307Y-33000D01*
X34307Y-33000D02*
X34317Y-32908D01*
X34317Y-32908D02*
X34346Y-32820D01*
X34346Y-32820D02*
X34392Y-32740D01*
X34392Y-32740D02*
X34454Y-32671D01*
X34454Y-32671D02*
X34529Y-32617D01*
X34529Y-32617D02*
X34614Y-32579D01*
X34614Y-32579D02*
X34704Y-32560D01*
X34704Y-32560D02*
X34796Y-32560D01*
X34796Y-32560D02*
X34886Y-32579D01*
X34886Y-32579D02*
X34971Y-32617D01*
X34971Y-32617D02*
X35046Y-32671D01*
X35046Y-32671D02*
X35108Y-32740D01*
X35108Y-32740D02*
X35154Y-32820D01*
X35154Y-32820D02*
X35183Y-32908D01*
X35183Y-32908D02*
X35193Y-33000D01*
G54D28*
X36334Y-32406D02*
X36334Y-32095D01*
X36334Y-32095D02*
X36384Y-32050D01*
X36384Y-32050D02*
X36634Y-32050D01*
X36634Y-32050D02*
X36684Y-32095D01*
X36684Y-32095D02*
X36684Y-32406D01*
X36684Y-32406D02*
X36634Y-32450D01*
X36634Y-32450D02*
X36384Y-32450D01*
X36384Y-32450D02*
X36334Y-32406D01*
X36584Y-32273D02*
X36684Y-32450D01*
X36858Y-32050D02*
X37208Y-32050D01*
X37208Y-32050D02*
X37208Y-32095D01*
X37208Y-32095D02*
X37008Y-32228D01*
X37008Y-32228D02*
X37158Y-32228D01*
X37158Y-32228D02*
X37208Y-32273D01*
X37208Y-32273D02*
X37208Y-32406D01*
X37208Y-32406D02*
X37158Y-32450D01*
X37158Y-32450D02*
X36908Y-32450D01*
X36908Y-32450D02*
X36858Y-32406D01*
X35798Y-32950D02*
X35798Y-32550D01*
X35798Y-32550D02*
X36098Y-32550D01*
X36098Y-32550D02*
X36148Y-32595D01*
X36148Y-32595D02*
X36148Y-32684D01*
X36148Y-32684D02*
X36098Y-32728D01*
X36098Y-32728D02*
X35798Y-32728D01*
X36098Y-32728D02*
X36148Y-32817D01*
X36148Y-32817D02*
X36148Y-32906D01*
X36148Y-32906D02*
X36098Y-32950D01*
X36098Y-32950D02*
X35798Y-32950D01*
X36322Y-32906D02*
X36372Y-32950D01*
X36372Y-32950D02*
X36622Y-32950D01*
X36622Y-32950D02*
X36672Y-32906D01*
X36672Y-32906D02*
X36672Y-32773D01*
X36672Y-32773D02*
X36622Y-32728D01*
X36622Y-32728D02*
X36372Y-32728D01*
X36372Y-32728D02*
X36322Y-32684D01*
X36322Y-32684D02*
X36322Y-32595D01*
X36322Y-32595D02*
X36372Y-32550D01*
X36372Y-32550D02*
X36622Y-32550D01*
X36622Y-32550D02*
X36672Y-32595D01*
X37196Y-32950D02*
X36846Y-32950D01*
X36846Y-32950D02*
X36846Y-32817D01*
X36846Y-32817D02*
X36896Y-32773D01*
X36896Y-32773D02*
X37146Y-32773D01*
X37146Y-32773D02*
X37196Y-32728D01*
X37196Y-32728D02*
X37196Y-32595D01*
X37196Y-32595D02*
X37146Y-32550D01*
X37146Y-32550D02*
X36896Y-32550D01*
X36896Y-32550D02*
X36846Y-32595D01*
X37370Y-32862D02*
X37370Y-32906D01*
X37370Y-32906D02*
X37420Y-32950D01*
X37420Y-32950D02*
X37670Y-32950D01*
X37670Y-32950D02*
X37720Y-32906D01*
X37720Y-32906D02*
X37720Y-32773D01*
X37720Y-32773D02*
X37620Y-32684D01*
X37620Y-32684D02*
X37370Y-32684D01*
X37370Y-32684D02*
X37370Y-32550D01*
X37370Y-32550D02*
X37720Y-32550D01*
X37894Y-32950D02*
X38244Y-32550D01*
X37894Y-32906D02*
X37894Y-32595D01*
X37894Y-32595D02*
X37944Y-32550D01*
X37944Y-32550D02*
X38194Y-32550D01*
X38194Y-32550D02*
X38244Y-32595D01*
X38244Y-32595D02*
X38244Y-32906D01*
X38244Y-32906D02*
X38194Y-32950D01*
X38194Y-32950D02*
X37944Y-32950D01*
X37944Y-32950D02*
X37894Y-32906D01*
X39584Y-36156D02*
X39584Y-35845D01*
X39584Y-35845D02*
X39634Y-35800D01*
X39634Y-35800D02*
X39884Y-35800D01*
X39884Y-35800D02*
X39934Y-35845D01*
X39934Y-35845D02*
X39934Y-36156D01*
X39934Y-36156D02*
X39884Y-36200D01*
X39884Y-36200D02*
X39634Y-36200D01*
X39634Y-36200D02*
X39584Y-36156D01*
X39834Y-36023D02*
X39934Y-36200D01*
X40208Y-36200D02*
X40408Y-36200D01*
X40308Y-36200D02*
X40308Y-35800D01*
X40308Y-35845D02*
X40208Y-35934D01*
X40548Y-36450D02*
X40548Y-36050D01*
X40548Y-36050D02*
X40848Y-36050D01*
X40848Y-36050D02*
X40898Y-36095D01*
X40898Y-36095D02*
X40898Y-36184D01*
X40898Y-36184D02*
X40848Y-36228D01*
X40848Y-36228D02*
X40548Y-36228D01*
X40848Y-36228D02*
X40898Y-36317D01*
X40898Y-36317D02*
X40898Y-36406D01*
X40898Y-36406D02*
X40848Y-36450D01*
X40848Y-36450D02*
X40548Y-36450D01*
X41072Y-36406D02*
X41122Y-36450D01*
X41122Y-36450D02*
X41372Y-36450D01*
X41372Y-36450D02*
X41422Y-36406D01*
X41422Y-36406D02*
X41422Y-36273D01*
X41422Y-36273D02*
X41372Y-36228D01*
X41372Y-36228D02*
X41122Y-36228D01*
X41122Y-36228D02*
X41072Y-36184D01*
X41072Y-36184D02*
X41072Y-36095D01*
X41072Y-36095D02*
X41122Y-36050D01*
X41122Y-36050D02*
X41372Y-36050D01*
X41372Y-36050D02*
X41422Y-36095D01*
X41696Y-36450D02*
X41896Y-36450D01*
X41796Y-36450D02*
X41796Y-36050D01*
X41796Y-36095D02*
X41696Y-36184D01*
X42120Y-36050D02*
X42470Y-36050D01*
X42470Y-36050D02*
X42120Y-36450D01*
X42644Y-36450D02*
X42994Y-36050D01*
X42644Y-36406D02*
X42644Y-36095D01*
X42644Y-36095D02*
X42694Y-36050D01*
X42694Y-36050D02*
X42944Y-36050D01*
X42944Y-36050D02*
X42994Y-36095D01*
X42994Y-36095D02*
X42994Y-36406D01*
X42994Y-36406D02*
X42944Y-36450D01*
X42944Y-36450D02*
X42694Y-36450D01*
X42694Y-36450D02*
X42644Y-36406D01*
X35584Y-35906D02*
X35584Y-35595D01*
X35584Y-35595D02*
X35634Y-35550D01*
X35634Y-35550D02*
X35884Y-35550D01*
X35884Y-35550D02*
X35934Y-35595D01*
X35934Y-35595D02*
X35934Y-35906D01*
X35934Y-35906D02*
X35884Y-35950D01*
X35884Y-35950D02*
X35634Y-35950D01*
X35634Y-35950D02*
X35584Y-35906D01*
X35834Y-35773D02*
X35934Y-35950D01*
X36458Y-35950D02*
X36108Y-35950D01*
X36108Y-35950D02*
X36108Y-35817D01*
X36108Y-35817D02*
X36158Y-35773D01*
X36158Y-35773D02*
X36408Y-35773D01*
X36408Y-35773D02*
X36458Y-35728D01*
X36458Y-35728D02*
X36458Y-35595D01*
X36458Y-35595D02*
X36408Y-35550D01*
X36408Y-35550D02*
X36158Y-35550D01*
X36158Y-35550D02*
X36108Y-35595D01*
X35548Y-36450D02*
X35548Y-36050D01*
X35548Y-36050D02*
X35848Y-36050D01*
X35848Y-36050D02*
X35898Y-36095D01*
X35898Y-36095D02*
X35898Y-36184D01*
X35898Y-36184D02*
X35848Y-36228D01*
X35848Y-36228D02*
X35548Y-36228D01*
X35848Y-36228D02*
X35898Y-36317D01*
X35898Y-36317D02*
X35898Y-36406D01*
X35898Y-36406D02*
X35848Y-36450D01*
X35848Y-36450D02*
X35548Y-36450D01*
X36072Y-36406D02*
X36122Y-36450D01*
X36122Y-36450D02*
X36372Y-36450D01*
X36372Y-36450D02*
X36422Y-36406D01*
X36422Y-36406D02*
X36422Y-36273D01*
X36422Y-36273D02*
X36372Y-36228D01*
X36372Y-36228D02*
X36122Y-36228D01*
X36122Y-36228D02*
X36072Y-36184D01*
X36072Y-36184D02*
X36072Y-36095D01*
X36072Y-36095D02*
X36122Y-36050D01*
X36122Y-36050D02*
X36372Y-36050D01*
X36372Y-36050D02*
X36422Y-36095D01*
X36696Y-36450D02*
X36896Y-36450D01*
X36796Y-36450D02*
X36796Y-36050D01*
X36796Y-36095D02*
X36696Y-36184D01*
X37120Y-36050D02*
X37470Y-36050D01*
X37470Y-36050D02*
X37120Y-36450D01*
X37644Y-36450D02*
X37994Y-36050D01*
X37644Y-36406D02*
X37644Y-36095D01*
X37644Y-36095D02*
X37694Y-36050D01*
X37694Y-36050D02*
X37944Y-36050D01*
X37944Y-36050D02*
X37994Y-36095D01*
X37994Y-36095D02*
X37994Y-36406D01*
X37994Y-36406D02*
X37944Y-36450D01*
X37944Y-36450D02*
X37694Y-36450D01*
X37694Y-36450D02*
X37644Y-36406D01*
G54D10*
X29754Y-28700D02*
X29754Y-29234D01*
X29754Y-29234D02*
X29810Y-29300D01*
X29810Y-29300D02*
X30091Y-29300D01*
X30091Y-29300D02*
X30148Y-29234D01*
X30148Y-29234D02*
X30148Y-28700D01*
X30486Y-29300D02*
X30711Y-29300D01*
X30599Y-29300D02*
X30599Y-28700D01*
X30599Y-28767D02*
X30486Y-28900D01*
X20024Y-29300D02*
X20024Y-28700D01*
X20024Y-28700D02*
X20361Y-28700D01*
X20361Y-28700D02*
X20418Y-28767D01*
X20418Y-28767D02*
X20418Y-28967D01*
X20418Y-28967D02*
X20361Y-29034D01*
X20361Y-29034D02*
X20024Y-29034D01*
X20700Y-29300D02*
X20925Y-29300D01*
X20813Y-29300D02*
X20813Y-28700D01*
X20700Y-28700D02*
X20925Y-28700D01*
X21658Y-29234D02*
X21601Y-29300D01*
X21601Y-29300D02*
X21320Y-29300D01*
X21320Y-29300D02*
X21264Y-29234D01*
X21264Y-29234D02*
X21264Y-28767D01*
X21264Y-28767D02*
X21320Y-28700D01*
X21320Y-28700D02*
X21601Y-28700D01*
X21601Y-28700D02*
X21658Y-28767D01*
X21996Y-29300D02*
X22221Y-29300D01*
X22109Y-29300D02*
X22109Y-28700D01*
X22109Y-28767D02*
X21996Y-28900D01*
X22560Y-29300D02*
X22504Y-29234D01*
X22504Y-29234D02*
X22504Y-29034D01*
X22504Y-29034D02*
X22560Y-28967D01*
X22560Y-28967D02*
X22841Y-28967D01*
X22841Y-28967D02*
X22898Y-28900D01*
X22898Y-28900D02*
X22898Y-28767D01*
X22898Y-28767D02*
X22841Y-28700D01*
X22841Y-28700D02*
X22560Y-28700D01*
X22560Y-28700D02*
X22504Y-28767D01*
X22504Y-28767D02*
X22504Y-28900D01*
X22504Y-28900D02*
X22560Y-28967D01*
X22841Y-28967D02*
X22898Y-29034D01*
X22898Y-29034D02*
X22898Y-29234D01*
X22898Y-29234D02*
X22841Y-29300D01*
X22841Y-29300D02*
X22560Y-29300D01*
X23124Y-29300D02*
X23124Y-28700D01*
X23124Y-28700D02*
X23518Y-28700D01*
X23124Y-28967D02*
X23349Y-28967D01*
X24138Y-29300D02*
X23744Y-29300D01*
X23744Y-29300D02*
X23744Y-29100D01*
X23744Y-29100D02*
X23800Y-29034D01*
X23800Y-29034D02*
X24081Y-29034D01*
X24081Y-29034D02*
X24138Y-28967D01*
X24138Y-28967D02*
X24138Y-28767D01*
X24138Y-28767D02*
X24081Y-28700D01*
X24081Y-28700D02*
X23800Y-28700D01*
X23800Y-28700D02*
X23744Y-28767D01*
X24364Y-29167D02*
X24364Y-29234D01*
X24364Y-29234D02*
X24420Y-29300D01*
X24420Y-29300D02*
X24701Y-29300D01*
X24701Y-29300D02*
X24758Y-29234D01*
X24758Y-29234D02*
X24758Y-29034D01*
X24758Y-29034D02*
X24645Y-28900D01*
X24645Y-28900D02*
X24364Y-28900D01*
X24364Y-28900D02*
X24364Y-28700D01*
X24364Y-28700D02*
X24758Y-28700D01*
X24984Y-29167D02*
X24984Y-29234D01*
X24984Y-29234D02*
X25040Y-29300D01*
X25040Y-29300D02*
X25321Y-29300D01*
X25321Y-29300D02*
X25378Y-29234D01*
X25378Y-29234D02*
X25378Y-29034D01*
X25378Y-29034D02*
X25265Y-28900D01*
X25265Y-28900D02*
X24984Y-28900D01*
X24984Y-28900D02*
X24984Y-28700D01*
X24984Y-28700D02*
X25378Y-28700D01*
X25604Y-29300D02*
X25998Y-28700D01*
X25604Y-29234D02*
X25604Y-28767D01*
X25604Y-28767D02*
X25660Y-28700D01*
X25660Y-28700D02*
X25941Y-28700D01*
X25941Y-28700D02*
X25998Y-28767D01*
X25998Y-28767D02*
X25998Y-29234D01*
X25998Y-29234D02*
X25941Y-29300D01*
X25941Y-29300D02*
X25660Y-29300D01*
X25660Y-29300D02*
X25604Y-29234D01*
G54D24*
X37367Y-26232D02*
X37400Y-26270D01*
X37400Y-26270D02*
X37400Y-26457D01*
X37400Y-26457D02*
X37367Y-26495D01*
X37367Y-26495D02*
X37134Y-26495D01*
X37134Y-26495D02*
X37100Y-26457D01*
X37100Y-26457D02*
X37100Y-26270D01*
X37100Y-26270D02*
X37134Y-26232D01*
X37400Y-26037D02*
X37400Y-25887D01*
X37400Y-25962D02*
X37100Y-25962D01*
X37134Y-25962D02*
X37200Y-26037D01*
X37400Y-25729D02*
X37100Y-25466D01*
X37367Y-25729D02*
X37134Y-25729D01*
X37134Y-25729D02*
X37100Y-25691D01*
X37100Y-25691D02*
X37100Y-25504D01*
X37100Y-25504D02*
X37134Y-25466D01*
X37134Y-25466D02*
X37367Y-25466D01*
X37367Y-25466D02*
X37400Y-25504D01*
X37400Y-25504D02*
X37400Y-25691D01*
X37400Y-25691D02*
X37367Y-25729D01*
X37900Y-26611D02*
X37900Y-26486D01*
X37900Y-26548D02*
X37600Y-26548D01*
X37634Y-26548D02*
X37700Y-26611D01*
X37900Y-26346D02*
X37600Y-26127D01*
X37867Y-26346D02*
X37634Y-26346D01*
X37634Y-26346D02*
X37600Y-26315D01*
X37600Y-26315D02*
X37600Y-26159D01*
X37600Y-26159D02*
X37634Y-26127D01*
X37634Y-26127D02*
X37867Y-26127D01*
X37867Y-26127D02*
X37900Y-26159D01*
X37900Y-26159D02*
X37900Y-26315D01*
X37900Y-26315D02*
X37867Y-26346D01*
X37700Y-26019D02*
X37834Y-26019D01*
X37834Y-26019D02*
X37900Y-25957D01*
X37900Y-25957D02*
X37900Y-25863D01*
X37900Y-25863D02*
X37834Y-25800D01*
X37834Y-25800D02*
X37700Y-25800D01*
G54D28*
X37517Y-26724D02*
X37517Y-26499D01*
X37617Y-26611D02*
X37417Y-26611D01*
G54D24*
X30709Y-26617D02*
X30671Y-26650D01*
X30671Y-26650D02*
X30484Y-26650D01*
X30484Y-26650D02*
X30446Y-26617D01*
X30446Y-26617D02*
X30446Y-26384D01*
X30446Y-26384D02*
X30484Y-26350D01*
X30484Y-26350D02*
X30671Y-26350D01*
X30671Y-26350D02*
X30709Y-26384D01*
X30867Y-26650D02*
X31054Y-26650D01*
X31054Y-26650D02*
X31092Y-26617D01*
X31092Y-26617D02*
X31092Y-26384D01*
X31092Y-26384D02*
X31054Y-26350D01*
X31054Y-26350D02*
X30867Y-26350D01*
X30867Y-26350D02*
X30829Y-26384D01*
X30829Y-26384D02*
X30829Y-26484D01*
X30829Y-26484D02*
X30867Y-26517D01*
X30867Y-26517D02*
X31054Y-26517D01*
X31054Y-26517D02*
X31092Y-26484D01*
X31552Y-26650D02*
X31677Y-26650D01*
X31615Y-26650D02*
X31615Y-26350D01*
X31615Y-26384D02*
X31552Y-26450D01*
X31817Y-26450D02*
X31817Y-26584D01*
X31817Y-26584D02*
X31879Y-26650D01*
X31879Y-26650D02*
X31973Y-26650D01*
X31973Y-26650D02*
X32036Y-26584D01*
X32036Y-26584D02*
X32036Y-26450D01*
G54D28*
X31267Y-24724D02*
X31267Y-24499D01*
X31367Y-24611D02*
X31167Y-24611D01*
G54D24*
X28709Y-26617D02*
X28671Y-26650D01*
X28671Y-26650D02*
X28484Y-26650D01*
X28484Y-26650D02*
X28446Y-26617D01*
X28446Y-26617D02*
X28446Y-26384D01*
X28446Y-26384D02*
X28484Y-26350D01*
X28484Y-26350D02*
X28671Y-26350D01*
X28671Y-26350D02*
X28709Y-26384D01*
X28867Y-26650D02*
X28829Y-26617D01*
X28829Y-26617D02*
X28829Y-26517D01*
X28829Y-26517D02*
X28867Y-26484D01*
X28867Y-26484D02*
X29054Y-26484D01*
X29054Y-26484D02*
X29092Y-26450D01*
X29092Y-26450D02*
X29092Y-26384D01*
X29092Y-26384D02*
X29054Y-26350D01*
X29054Y-26350D02*
X28867Y-26350D01*
X28867Y-26350D02*
X28829Y-26384D01*
X28829Y-26384D02*
X28829Y-26450D01*
X28829Y-26450D02*
X28867Y-26484D01*
X29054Y-26484D02*
X29092Y-26517D01*
X29092Y-26517D02*
X29092Y-26617D01*
X29092Y-26617D02*
X29054Y-26650D01*
X29054Y-26650D02*
X28867Y-26650D01*
X29552Y-26650D02*
X29677Y-26650D01*
X29615Y-26650D02*
X29615Y-26350D01*
X29615Y-26384D02*
X29552Y-26450D01*
X29817Y-26450D02*
X29817Y-26584D01*
X29817Y-26584D02*
X29879Y-26650D01*
X29879Y-26650D02*
X29973Y-26650D01*
X29973Y-26650D02*
X30036Y-26584D01*
X30036Y-26584D02*
X30036Y-26450D01*
G54D28*
X29267Y-24724D02*
X29267Y-24499D01*
X29367Y-24611D02*
X29167Y-24611D01*
G54D26*
X24965Y-25025D02*
X25403Y-24575D01*
X24965Y-24575D02*
X25403Y-25025D01*
X25705Y-25025D02*
X25955Y-25025D01*
X25830Y-25025D02*
X25830Y-24575D01*
X25830Y-24625D02*
X25705Y-24725D01*
X24463Y-26375D02*
X24400Y-26325D01*
X24400Y-26325D02*
X24400Y-26175D01*
X24400Y-26175D02*
X24463Y-26125D01*
X24463Y-26125D02*
X24775Y-26125D01*
X24775Y-26125D02*
X24838Y-26075D01*
X24838Y-26075D02*
X24838Y-25975D01*
X24838Y-25975D02*
X24775Y-25925D01*
X24775Y-25925D02*
X24463Y-25925D01*
X24463Y-25925D02*
X24400Y-25975D01*
X24400Y-25975D02*
X24400Y-26075D01*
X24400Y-26075D02*
X24463Y-26125D01*
X24775Y-26125D02*
X24838Y-26175D01*
X24838Y-26175D02*
X24838Y-26325D01*
X24838Y-26325D02*
X24775Y-26375D01*
X24775Y-26375D02*
X24463Y-26375D01*
X25015Y-26375D02*
X25015Y-25925D01*
X25015Y-25925D02*
X25265Y-26125D01*
X25265Y-26125D02*
X25515Y-25925D01*
X25515Y-25925D02*
X25515Y-26375D01*
X25630Y-26375D02*
X25630Y-25925D01*
X26068Y-26375D02*
X26068Y-25925D01*
X25630Y-26175D02*
X26068Y-26175D01*
X26245Y-26075D02*
X26683Y-26075D01*
X26683Y-26075D02*
X26245Y-26375D01*
X26245Y-26375D02*
X26683Y-26375D01*
G54D10*
X30774Y-32090D02*
X30774Y-31409D01*
X30774Y-31409D02*
X31095Y-31409D01*
X31095Y-31409D02*
X31149Y-31485D01*
X31149Y-31485D02*
X31149Y-31712D01*
X31149Y-31712D02*
X31095Y-31788D01*
X31095Y-31788D02*
X30774Y-31788D01*
X31744Y-32090D02*
X31369Y-32090D01*
X31369Y-32090D02*
X31369Y-31863D01*
X31369Y-31863D02*
X31423Y-31788D01*
X31423Y-31788D02*
X31690Y-31788D01*
X31690Y-31788D02*
X31744Y-31712D01*
X31744Y-31712D02*
X31744Y-31485D01*
X31744Y-31485D02*
X31690Y-31409D01*
X31690Y-31409D02*
X31423Y-31409D01*
X31423Y-31409D02*
X31369Y-31485D01*
X42590Y-29976D02*
X41909Y-29976D01*
X41909Y-29976D02*
X41909Y-29655D01*
X41909Y-29655D02*
X41985Y-29601D01*
X41985Y-29601D02*
X42212Y-29601D01*
X42212Y-29601D02*
X42288Y-29655D01*
X42288Y-29655D02*
X42288Y-29976D01*
X42590Y-29274D02*
X42590Y-29060D01*
X42590Y-29167D02*
X41909Y-29167D01*
X41985Y-29167D02*
X42136Y-29274D01*
G54D29*
X33653Y-27484D02*
X33578Y-27550D01*
X33578Y-27550D02*
X33203Y-27550D01*
X33203Y-27550D02*
X33128Y-27484D01*
X33128Y-27484D02*
X33128Y-27017D01*
X33128Y-27017D02*
X33203Y-26950D01*
X33203Y-26950D02*
X33578Y-26950D01*
X33578Y-26950D02*
X33653Y-27017D01*
X34062Y-27550D02*
X34362Y-27550D01*
X34212Y-27550D02*
X34212Y-26950D01*
X34212Y-27017D02*
X34062Y-27150D01*
X29403Y-35734D02*
X29328Y-35800D01*
X29328Y-35800D02*
X28953Y-35800D01*
X28953Y-35800D02*
X28878Y-35734D01*
X28878Y-35734D02*
X28878Y-35267D01*
X28878Y-35267D02*
X28953Y-35200D01*
X28953Y-35200D02*
X29328Y-35200D01*
X29328Y-35200D02*
X29403Y-35267D01*
X30037Y-35800D02*
X30037Y-35200D01*
X30037Y-35200D02*
X29662Y-35667D01*
X29662Y-35667D02*
X30187Y-35667D01*
X14903Y-35734D02*
X14828Y-35800D01*
X14828Y-35800D02*
X14453Y-35800D01*
X14453Y-35800D02*
X14378Y-35734D01*
X14378Y-35734D02*
X14378Y-35267D01*
X14378Y-35267D02*
X14453Y-35200D01*
X14453Y-35200D02*
X14828Y-35200D01*
X14828Y-35200D02*
X14903Y-35267D01*
X15162Y-35667D02*
X15162Y-35734D01*
X15162Y-35734D02*
X15237Y-35800D01*
X15237Y-35800D02*
X15612Y-35800D01*
X15612Y-35800D02*
X15687Y-35734D01*
X15687Y-35734D02*
X15687Y-35534D01*
X15687Y-35534D02*
X15537Y-35400D01*
X15537Y-35400D02*
X15162Y-35400D01*
X15162Y-35400D02*
X15162Y-35200D01*
X15162Y-35200D02*
X15687Y-35200D01*
X19653Y-33734D02*
X19578Y-33800D01*
X19578Y-33800D02*
X19203Y-33800D01*
X19203Y-33800D02*
X19128Y-33734D01*
X19128Y-33734D02*
X19128Y-33267D01*
X19128Y-33267D02*
X19203Y-33200D01*
X19203Y-33200D02*
X19578Y-33200D01*
X19578Y-33200D02*
X19653Y-33267D01*
X20437Y-33267D02*
X20362Y-33200D01*
X20362Y-33200D02*
X19987Y-33200D01*
X19987Y-33200D02*
X19912Y-33267D01*
X19912Y-33267D02*
X19912Y-33734D01*
X19912Y-33734D02*
X19987Y-33800D01*
X19987Y-33800D02*
X20362Y-33800D01*
X20362Y-33800D02*
X20437Y-33734D01*
X20437Y-33734D02*
X20437Y-33534D01*
X20437Y-33534D02*
X20362Y-33467D01*
X20362Y-33467D02*
X19987Y-33467D01*
X19987Y-33467D02*
X19912Y-33534D01*
X38403Y-21234D02*
X38328Y-21300D01*
X38328Y-21300D02*
X37953Y-21300D01*
X37953Y-21300D02*
X37878Y-21234D01*
X37878Y-21234D02*
X37878Y-20767D01*
X37878Y-20767D02*
X37953Y-20700D01*
X37953Y-20700D02*
X38328Y-20700D01*
X38328Y-20700D02*
X38403Y-20767D01*
X38662Y-20700D02*
X39187Y-20700D01*
X39187Y-20700D02*
X38662Y-21300D01*
X21261Y-25734D02*
X21186Y-25800D01*
X21186Y-25800D02*
X20811Y-25800D01*
X20811Y-25800D02*
X20736Y-25734D01*
X20736Y-25734D02*
X20736Y-25267D01*
X20736Y-25267D02*
X20811Y-25200D01*
X20811Y-25200D02*
X21186Y-25200D01*
X21186Y-25200D02*
X21261Y-25267D01*
X21670Y-25800D02*
X21970Y-25800D01*
X21820Y-25800D02*
X21820Y-25200D01*
X21820Y-25267D02*
X21670Y-25400D01*
X22454Y-25800D02*
X22754Y-25800D01*
X22604Y-25800D02*
X22604Y-25200D01*
X22604Y-25267D02*
X22454Y-25400D01*
G54D28*
X29810Y-24775D02*
X29810Y-24225D01*
X29747Y-24225D02*
X30122Y-24225D01*
X30122Y-24225D02*
X30185Y-24287D01*
X30185Y-24287D02*
X30185Y-24714D01*
X30185Y-24714D02*
X30122Y-24775D01*
X30122Y-24775D02*
X29747Y-24775D01*
X30507Y-24775D02*
X30757Y-24775D01*
X30632Y-24775D02*
X30632Y-24225D01*
X30632Y-24287D02*
X30507Y-24409D01*
X28810Y-21775D02*
X28810Y-21225D01*
X28747Y-21225D02*
X29122Y-21225D01*
X29122Y-21225D02*
X29185Y-21287D01*
X29185Y-21287D02*
X29185Y-21714D01*
X29185Y-21714D02*
X29122Y-21775D01*
X29122Y-21775D02*
X28747Y-21775D01*
X29820Y-21775D02*
X29382Y-21775D01*
X29382Y-21775D02*
X29382Y-21592D01*
X29382Y-21592D02*
X29445Y-21531D01*
X29445Y-21531D02*
X29757Y-21531D01*
X29757Y-21531D02*
X29820Y-21470D01*
X29820Y-21470D02*
X29820Y-21287D01*
X29820Y-21287D02*
X29757Y-21225D01*
X29757Y-21225D02*
X29445Y-21225D01*
X29445Y-21225D02*
X29382Y-21287D01*
X33560Y-23275D02*
X33560Y-22725D01*
X33497Y-22725D02*
X33872Y-22725D01*
X33872Y-22725D02*
X33935Y-22787D01*
X33935Y-22787D02*
X33935Y-23214D01*
X33935Y-23214D02*
X33872Y-23275D01*
X33872Y-23275D02*
X33497Y-23275D01*
X34132Y-22725D02*
X34570Y-22725D01*
X34570Y-22725D02*
X34570Y-22787D01*
X34570Y-22787D02*
X34320Y-22970D01*
X34320Y-22970D02*
X34507Y-22970D01*
X34507Y-22970D02*
X34570Y-23031D01*
X34570Y-23031D02*
X34570Y-23214D01*
X34570Y-23214D02*
X34507Y-23275D01*
X34507Y-23275D02*
X34195Y-23275D01*
X34195Y-23275D02*
X34132Y-23214D01*
X39060Y-32525D02*
X39060Y-31975D01*
X38997Y-31975D02*
X39372Y-31975D01*
X39372Y-31975D02*
X39435Y-32037D01*
X39435Y-32037D02*
X39435Y-32464D01*
X39435Y-32464D02*
X39372Y-32525D01*
X39372Y-32525D02*
X38997Y-32525D01*
X39945Y-32525D02*
X39945Y-31975D01*
X39945Y-31975D02*
X39632Y-32403D01*
X39632Y-32403D02*
X40070Y-32403D01*
G54D10*
X21951Y-21800D02*
X21951Y-21200D01*
X21876Y-21200D02*
X22326Y-21200D01*
X22326Y-21200D02*
X22401Y-21267D01*
X22401Y-21267D02*
X22401Y-21734D01*
X22401Y-21734D02*
X22326Y-21800D01*
X22326Y-21800D02*
X21876Y-21800D01*
X22662Y-21667D02*
X22662Y-21734D01*
X22662Y-21734D02*
X22737Y-21800D01*
X22737Y-21800D02*
X23112Y-21800D01*
X23112Y-21800D02*
X23187Y-21734D01*
X23187Y-21734D02*
X23187Y-21534D01*
X23187Y-21534D02*
X23037Y-21400D01*
X23037Y-21400D02*
X22662Y-21400D01*
X22662Y-21400D02*
X22662Y-21200D01*
X22662Y-21200D02*
X23187Y-21200D01*
X20201Y-21800D02*
X20201Y-21200D01*
X20126Y-21200D02*
X20576Y-21200D01*
X20576Y-21200D02*
X20651Y-21267D01*
X20651Y-21267D02*
X20651Y-21734D01*
X20651Y-21734D02*
X20576Y-21800D01*
X20576Y-21800D02*
X20126Y-21800D01*
X21437Y-21267D02*
X21362Y-21200D01*
X21362Y-21200D02*
X20987Y-21200D01*
X20987Y-21200D02*
X20912Y-21267D01*
X20912Y-21267D02*
X20912Y-21734D01*
X20912Y-21734D02*
X20987Y-21800D01*
X20987Y-21800D02*
X21362Y-21800D01*
X21362Y-21800D02*
X21437Y-21734D01*
X21437Y-21734D02*
X21437Y-21534D01*
X21437Y-21534D02*
X21362Y-21467D01*
X21362Y-21467D02*
X20987Y-21467D01*
X20987Y-21467D02*
X20912Y-21534D01*
X15550Y-25299D02*
X14950Y-25299D01*
X14950Y-25374D02*
X14950Y-24924D01*
X14950Y-24924D02*
X15017Y-24849D01*
X15017Y-24849D02*
X15484Y-24849D01*
X15484Y-24849D02*
X15550Y-24924D01*
X15550Y-24924D02*
X15550Y-25374D01*
X14950Y-24588D02*
X14950Y-24063D01*
X14950Y-24063D02*
X15550Y-24588D01*
G54D28*
X40525Y-27940D02*
X39975Y-27940D01*
X39975Y-28003D02*
X39975Y-27628D01*
X39975Y-27628D02*
X40037Y-27565D01*
X40037Y-27565D02*
X40464Y-27565D01*
X40464Y-27565D02*
X40525Y-27628D01*
X40525Y-27628D02*
X40525Y-28003D01*
X40525Y-27305D02*
X40464Y-27368D01*
X40464Y-27368D02*
X40281Y-27368D01*
X40281Y-27368D02*
X40220Y-27305D01*
X40220Y-27305D02*
X40220Y-26993D01*
X40220Y-26993D02*
X40159Y-26930D01*
X40159Y-26930D02*
X40037Y-26930D01*
X40037Y-26930D02*
X39975Y-26993D01*
X39975Y-26993D02*
X39975Y-27305D01*
X39975Y-27305D02*
X40037Y-27368D01*
X40037Y-27368D02*
X40159Y-27368D01*
X40159Y-27368D02*
X40220Y-27305D01*
X40220Y-26993D02*
X40281Y-26930D01*
X40281Y-26930D02*
X40464Y-26930D01*
X40464Y-26930D02*
X40525Y-26993D01*
X40525Y-26993D02*
X40525Y-27305D01*
X39775Y-30190D02*
X39225Y-30190D01*
X39225Y-30253D02*
X39225Y-29878D01*
X39225Y-29878D02*
X39287Y-29815D01*
X39287Y-29815D02*
X39714Y-29815D01*
X39714Y-29815D02*
X39775Y-29878D01*
X39775Y-29878D02*
X39775Y-30253D01*
X39775Y-29555D02*
X39775Y-29243D01*
X39775Y-29243D02*
X39714Y-29180D01*
X39714Y-29180D02*
X39287Y-29180D01*
X39287Y-29180D02*
X39225Y-29243D01*
X39225Y-29243D02*
X39225Y-29555D01*
X39225Y-29555D02*
X39287Y-29618D01*
X39287Y-29618D02*
X39470Y-29618D01*
X39470Y-29618D02*
X39531Y-29555D01*
X39531Y-29555D02*
X39531Y-29243D01*
X39531Y-29243D02*
X39470Y-29180D01*
G54D10*
X12133Y-31914D02*
X12207Y-32045D01*
X12207Y-32045D02*
X12355Y-32045D01*
X12355Y-32045D02*
X12429Y-31980D01*
X12429Y-31980D02*
X12429Y-31454D01*
X12281Y-31454D02*
X12577Y-31454D01*
X13057Y-32045D02*
X13353Y-32045D01*
X13205Y-32045D02*
X13205Y-31454D01*
X13205Y-31520D02*
X13057Y-31651D01*
X10052Y-32184D02*
X10586Y-32184D01*
X10586Y-32184D02*
X10652Y-32109D01*
X10652Y-32109D02*
X10652Y-31734D01*
X10652Y-31734D02*
X10586Y-31659D01*
X10586Y-31659D02*
X10052Y-31659D01*
X10586Y-31398D02*
X10652Y-31323D01*
X10652Y-31323D02*
X10652Y-30948D01*
X10652Y-30948D02*
X10586Y-30873D01*
X10586Y-30873D02*
X10386Y-30873D01*
X10386Y-30873D02*
X10319Y-30948D01*
X10319Y-30948D02*
X10319Y-31323D01*
X10319Y-31323D02*
X10252Y-31398D01*
X10252Y-31398D02*
X10119Y-31398D01*
X10119Y-31398D02*
X10052Y-31323D01*
X10052Y-31323D02*
X10052Y-30948D01*
X10052Y-30948D02*
X10119Y-30873D01*
X10652Y-30612D02*
X10052Y-30612D01*
X10052Y-30612D02*
X10052Y-30162D01*
X10052Y-30162D02*
X10119Y-30087D01*
X10119Y-30087D02*
X10252Y-30087D01*
X10252Y-30087D02*
X10319Y-30162D01*
X10319Y-30162D02*
X10319Y-30612D01*
X10319Y-30162D02*
X10452Y-30087D01*
X10452Y-30087D02*
X10586Y-30087D01*
X10586Y-30087D02*
X10652Y-30162D01*
X10652Y-30162D02*
X10652Y-30612D01*
X10652Y-29826D02*
X10652Y-29301D01*
X10586Y-28515D02*
X10652Y-28590D01*
X10652Y-28590D02*
X10652Y-28965D01*
X10652Y-28965D02*
X10586Y-29040D01*
X10586Y-29040D02*
X10119Y-29040D01*
X10119Y-29040D02*
X10052Y-28965D01*
X10052Y-28965D02*
X10052Y-28590D01*
X10052Y-28590D02*
X10119Y-28515D01*
X10652Y-28179D02*
X10586Y-28254D01*
X10586Y-28254D02*
X10119Y-28254D01*
X10119Y-28254D02*
X10052Y-28179D01*
X10052Y-28179D02*
X10052Y-27804D01*
X10052Y-27804D02*
X10119Y-27729D01*
X10119Y-27729D02*
X10586Y-27729D01*
X10586Y-27729D02*
X10652Y-27804D01*
X10652Y-27804D02*
X10652Y-28179D01*
X10652Y-27468D02*
X10052Y-27468D01*
X10052Y-27468D02*
X10652Y-26943D01*
X10652Y-26943D02*
X10052Y-26943D01*
X10652Y-26682D02*
X10052Y-26682D01*
X10052Y-26682D02*
X10652Y-26157D01*
X10652Y-26157D02*
X10052Y-26157D01*
G54D28*
X23184Y-23156D02*
X23134Y-23200D01*
X23134Y-23200D02*
X22884Y-23200D01*
X22884Y-23200D02*
X22834Y-23156D01*
X22834Y-23156D02*
X22834Y-22845D01*
X22834Y-22845D02*
X22884Y-22800D01*
X22884Y-22800D02*
X23134Y-22800D01*
X23134Y-22800D02*
X23184Y-22845D01*
X23708Y-23200D02*
X23358Y-23200D01*
X23358Y-23200D02*
X23358Y-23067D01*
X23358Y-23067D02*
X23408Y-23023D01*
X23408Y-23023D02*
X23658Y-23023D01*
X23658Y-23023D02*
X23708Y-22978D01*
X23708Y-22978D02*
X23708Y-22845D01*
X23708Y-22845D02*
X23658Y-22800D01*
X23658Y-22800D02*
X23408Y-22800D01*
X23408Y-22800D02*
X23358Y-22845D01*
X25434Y-23156D02*
X25384Y-23200D01*
X25384Y-23200D02*
X25134Y-23200D01*
X25134Y-23200D02*
X25084Y-23156D01*
X25084Y-23156D02*
X25084Y-22845D01*
X25084Y-22845D02*
X25134Y-22800D01*
X25134Y-22800D02*
X25384Y-22800D01*
X25384Y-22800D02*
X25434Y-22845D01*
X25608Y-22800D02*
X25958Y-22800D01*
X25958Y-22800D02*
X25958Y-22845D01*
X25958Y-22845D02*
X25758Y-22978D01*
X25758Y-22978D02*
X25908Y-22978D01*
X25908Y-22978D02*
X25958Y-23023D01*
X25958Y-23023D02*
X25958Y-23156D01*
X25958Y-23156D02*
X25908Y-23200D01*
X25908Y-23200D02*
X25658Y-23200D01*
X25658Y-23200D02*
X25608Y-23156D01*
X38997Y-31025D02*
X38997Y-30475D01*
X38997Y-30475D02*
X39372Y-30475D01*
X39372Y-30475D02*
X39435Y-30537D01*
X39435Y-30537D02*
X39435Y-30720D01*
X39435Y-30720D02*
X39372Y-30781D01*
X39372Y-30781D02*
X38997Y-30781D01*
X39185Y-30781D02*
X39435Y-31025D01*
X39757Y-31025D02*
X40007Y-31025D01*
X39882Y-31025D02*
X39882Y-30475D01*
X39882Y-30537D02*
X39757Y-30659D01*
X24247Y-35525D02*
X24247Y-34975D01*
X24247Y-34975D02*
X24622Y-34975D01*
X24622Y-34975D02*
X24685Y-35037D01*
X24685Y-35037D02*
X24685Y-35220D01*
X24685Y-35220D02*
X24622Y-35281D01*
X24622Y-35281D02*
X24247Y-35281D01*
X24435Y-35281D02*
X24685Y-35525D01*
X25320Y-35525D02*
X24882Y-35525D01*
X24882Y-35525D02*
X24882Y-35342D01*
X24882Y-35342D02*
X24945Y-35281D01*
X24945Y-35281D02*
X25257Y-35281D01*
X25257Y-35281D02*
X25320Y-35220D01*
X25320Y-35220D02*
X25320Y-35037D01*
X25320Y-35037D02*
X25257Y-34975D01*
X25257Y-34975D02*
X24945Y-34975D01*
X24945Y-34975D02*
X24882Y-35037D01*
X33525Y-32253D02*
X32975Y-32253D01*
X32975Y-32253D02*
X32975Y-31878D01*
X32975Y-31878D02*
X33037Y-31815D01*
X33037Y-31815D02*
X33220Y-31815D01*
X33220Y-31815D02*
X33281Y-31878D01*
X33281Y-31878D02*
X33281Y-32253D01*
X33281Y-32065D02*
X33525Y-31815D01*
X32975Y-31618D02*
X32975Y-31180D01*
X32975Y-31180D02*
X33037Y-31180D01*
X33037Y-31180D02*
X33220Y-31430D01*
X33220Y-31430D02*
X33220Y-31243D01*
X33220Y-31243D02*
X33281Y-31180D01*
X33281Y-31180D02*
X33464Y-31180D01*
X33464Y-31180D02*
X33525Y-31243D01*
X33525Y-31243D02*
X33525Y-31555D01*
X33525Y-31555D02*
X33464Y-31618D01*
X23747Y-33775D02*
X23747Y-33225D01*
X23747Y-33225D02*
X24122Y-33225D01*
X24122Y-33225D02*
X24185Y-33287D01*
X24185Y-33287D02*
X24185Y-33470D01*
X24185Y-33470D02*
X24122Y-33531D01*
X24122Y-33531D02*
X23747Y-33531D01*
X23935Y-33531D02*
X24185Y-33775D01*
X24695Y-33775D02*
X24695Y-33225D01*
X24695Y-33225D02*
X24382Y-33653D01*
X24382Y-33653D02*
X24820Y-33653D01*
X23747Y-31775D02*
X23747Y-31225D01*
X23747Y-31225D02*
X24122Y-31225D01*
X24122Y-31225D02*
X24185Y-31287D01*
X24185Y-31287D02*
X24185Y-31470D01*
X24185Y-31470D02*
X24122Y-31531D01*
X24122Y-31531D02*
X23747Y-31531D01*
X23935Y-31531D02*
X24185Y-31775D01*
X24382Y-31653D02*
X24382Y-31714D01*
X24382Y-31714D02*
X24445Y-31775D01*
X24445Y-31775D02*
X24757Y-31775D01*
X24757Y-31775D02*
X24820Y-31714D01*
X24820Y-31714D02*
X24820Y-31531D01*
X24820Y-31531D02*
X24695Y-31409D01*
X24695Y-31409D02*
X24382Y-31409D01*
X24382Y-31409D02*
X24382Y-31225D01*
X24382Y-31225D02*
X24820Y-31225D01*
X23997Y-21775D02*
X23997Y-21225D01*
X23997Y-21225D02*
X24372Y-21225D01*
X24372Y-21225D02*
X24435Y-21287D01*
X24435Y-21287D02*
X24435Y-21470D01*
X24435Y-21470D02*
X24372Y-21531D01*
X24372Y-21531D02*
X23997Y-21531D01*
X24185Y-21531D02*
X24435Y-21775D01*
X25070Y-21287D02*
X25007Y-21225D01*
X25007Y-21225D02*
X24695Y-21225D01*
X24695Y-21225D02*
X24632Y-21287D01*
X24632Y-21287D02*
X24632Y-21714D01*
X24632Y-21714D02*
X24695Y-21775D01*
X24695Y-21775D02*
X25007Y-21775D01*
X25007Y-21775D02*
X25070Y-21714D01*
X25070Y-21714D02*
X25070Y-21531D01*
X25070Y-21531D02*
X25007Y-21470D01*
X25007Y-21470D02*
X24695Y-21470D01*
X24695Y-21470D02*
X24632Y-21531D01*
X15997Y-21525D02*
X15997Y-20975D01*
X15997Y-20975D02*
X16372Y-20975D01*
X16372Y-20975D02*
X16435Y-21037D01*
X16435Y-21037D02*
X16435Y-21220D01*
X16435Y-21220D02*
X16372Y-21281D01*
X16372Y-21281D02*
X15997Y-21281D01*
X16185Y-21281D02*
X16435Y-21525D01*
X16632Y-20975D02*
X17070Y-20975D01*
X17070Y-20975D02*
X16632Y-21525D01*
X14775Y-25003D02*
X14225Y-25003D01*
X14225Y-25003D02*
X14225Y-24628D01*
X14225Y-24628D02*
X14287Y-24565D01*
X14287Y-24565D02*
X14470Y-24565D01*
X14470Y-24565D02*
X14531Y-24628D01*
X14531Y-24628D02*
X14531Y-25003D01*
X14531Y-24815D02*
X14775Y-24565D01*
X14775Y-24305D02*
X14714Y-24368D01*
X14714Y-24368D02*
X14531Y-24368D01*
X14531Y-24368D02*
X14470Y-24305D01*
X14470Y-24305D02*
X14470Y-23993D01*
X14470Y-23993D02*
X14409Y-23930D01*
X14409Y-23930D02*
X14287Y-23930D01*
X14287Y-23930D02*
X14225Y-23993D01*
X14225Y-23993D02*
X14225Y-24305D01*
X14225Y-24305D02*
X14287Y-24368D01*
X14287Y-24368D02*
X14409Y-24368D01*
X14409Y-24368D02*
X14470Y-24305D01*
X14470Y-23993D02*
X14531Y-23930D01*
X14531Y-23930D02*
X14714Y-23930D01*
X14714Y-23930D02*
X14775Y-23993D01*
X14775Y-23993D02*
X14775Y-24305D01*
X35775Y-32753D02*
X35225Y-32753D01*
X35225Y-32753D02*
X35225Y-32378D01*
X35225Y-32378D02*
X35287Y-32315D01*
X35287Y-32315D02*
X35470Y-32315D01*
X35470Y-32315D02*
X35531Y-32378D01*
X35531Y-32378D02*
X35531Y-32753D01*
X35531Y-32565D02*
X35775Y-32315D01*
X35775Y-32055D02*
X35775Y-31743D01*
X35775Y-31743D02*
X35714Y-31680D01*
X35714Y-31680D02*
X35287Y-31680D01*
X35287Y-31680D02*
X35225Y-31743D01*
X35225Y-31743D02*
X35225Y-32055D01*
X35225Y-32055D02*
X35287Y-32118D01*
X35287Y-32118D02*
X35470Y-32118D01*
X35470Y-32118D02*
X35531Y-32055D01*
X35531Y-32055D02*
X35531Y-31743D01*
X35531Y-31743D02*
X35470Y-31680D01*
M02*
