/* XPM */
const char * read_xpm[] = {
"24 24 155 2",
"  	c None",
". 	c #78726E",
"+ 	c #888888",
"@ 	c #7E7E7E",
"# 	c #6B6B6B",
"$ 	c #000000",
"% 	c #757270",
"& 	c #777676",
"* 	c #777777",
"= 	c #717171",
"- 	c #676767",
"; 	c #656565",
"> 	c #FFFF00",
", 	c #817E7C",
"' 	c #8A8A8A",
") 	c #828282",
"! 	c #7B7B7B",
"~ 	c #747474",
"{ 	c #6E6E6E",
"] 	c #666666",
"^ 	c #8F8E8E",
"/ 	c #989898",
"( 	c #949494",
"_ 	c #8E8E8E",
": 	c #848484",
"< 	c #7D7D7D",
"[ 	c #767676",
"} 	c #6C6C6C",
"| 	c #999999",
"1 	c #878787",
"2 	c #808080",
"3 	c #757575",
"4 	c #707070",
"5 	c #686868",
"6 	c #82726A",
"7 	c #959595",
"8 	c #8F8F8F",
"9 	c #898989",
"0 	c #797979",
"a 	c #6C5548",
"b 	c #919191",
"c 	c #A6A6A6",
"d 	c #909090",
"e 	c #868686",
"f 	c #787878",
"g 	c #606060",
"h 	c #807A77",
"i 	c #999594",
"j 	c #B2B2B2",
"k 	c #AFAFAF",
"l 	c #A5A5A5",
"m 	c #8C8C8C",
"n 	c #727272",
"o 	c #5E5E5E",
"p 	c #B4B4B4",
"q 	c #BCBCBC",
"r 	c #B5B5B5",
"s 	c #B0B0B0",
"t 	c #A1A1A1",
"u 	c #8B8B8B",
"v 	c #929292",
"w 	c #A4A4A4",
"x 	c #A3A3A3",
"y 	c #939393",
"z 	c #858585",
"A 	c #838383",
"B 	c #818181",
"C 	c #6F6D6C",
"D 	c #6C625C",
"E 	c #585757",
"F 	c #7C7C7C",
"G 	c #ACABAA",
"H 	c #BDBCBC",
"I 	c #B7B7B7",
"J 	c #B1B1B1",
"K 	c #A2A2A2",
"L 	c #A0A0A0",
"M 	c #9A9A9A",
"N 	c #747475",
"O 	c #9F938E",
"P 	c #9C7258",
"Q 	c #555250",
"R 	c #A6A5A5",
"S 	c #B8B8B8",
"T 	c #B3B3B3",
"U 	c #B6B6B6",
"V 	c #9E9E9E",
"W 	c #9B9B9B",
"X 	c #979797",
"Y 	c #7F7F7F",
"Z 	c #918682",
"` 	c #967460",
" .	c #626161",
"..	c #A39691",
"+.	c #9B6E54",
"@.	c #73706E",
"#.	c #626262",
"$.	c #A8A8A8",
"%.	c #969696",
"&.	c #818080",
"*.	c #7A7674",
"=.	c #737474",
"-.	c #B1A29C",
";.	c #A87758",
">.	c #5A5856",
",.	c #9C8E8A",
"'.	c #996C50",
").	c #AAAAAA",
"!.	c #A9A9A9",
"~.	c #9C9C9C",
"{.	c #A4948E",
"].	c #A3765A",
"^.	c #686867",
"/.	c #B0A09A",
"(.	c #A57354",
"_.	c #898785",
":.	c #BAB6B4",
"<.	c #9A6D52",
"[.	c #828383",
"}.	c #90837D",
"|.	c #926D56",
"1.	c #B2A19A",
"2.	c #A57455",
"3.	c #636262",
"4.	c #AEA49E",
"5.	c #A57254",
"6.	c #696969",
"7.	c #6D6D6D",
"8.	c #7E7A78",
"9.	c #7C6456",
"0.	c #B3A098",
"a.	c #A47152",
"b.	c #6D6C6B",
"c.	c #B2A099",
"d.	c #646464",
"e.	c #7F8080",
"f.	c #A69691",
"g.	c #A76944",
"h.	c #675D56",
"i.	c #B4A19A",
"j.	c #807E7D",
"k.	c #B4A8A2",
"l.	c #AD7859",
"m.	c #585858",
"n.	c #575757",
"o.	c #808181",
"p.	c #AB9B97",
"q.	c #A86A45",
"r.	c #60554F",
"s.	c #AC9E98",
"t.	c #555555",
"u.	c #978984",
"v.	c #AB704D",
"w.	c #AEADAC",
"x.	c #B58366",
"                                                ",
"                                                ",
"                            . + @ #             ",
"          $ $ $ $ $ $ $   % & * = - ;           ",
"          $ > > > > $ , + ' ) ! ~ { ] #         ",
"          $ > > > $ ^ / ( _ : < [ = } ; #       ",
"          $ > > > > $ | ( _ 1 2 ! 3 4 { 5 =     ",
"        6 $ > $ > > > $ 7 8 9 : @ 0 3 = { 5 3   ",
"    a [ b $ $ c $ > > > $ d ' e ) @ f 3 4 } g e ",
"  h i j k $ c l l $ > > > $ m + : ) < * n } o ) ",
"e p q r s t u v w x $ > $ y _ ' z A B 0 C D E F ",
") G H I J F _ 7 x K L $ M ( d ' + 2 N } O P Q ' ",
"{ | R S T v w U c L V W X ( d ' Y Z `  ...+.@.  ",
"#.b _ L j k $.l t V W / %._ &.*.=.-.;.>.,.'.    ",
"  0 e A v ).!.w L ~./ d : @ {.].^./.(._.:.<.    ",
"    { F [ 2 L K X _ [.}.|.4 1.2.3.4.5.    <.    ",
"      6.7.- 6.z 8.9.C 0.a.b.c.5.    5.          ",
"        d.g o e.f.g.h.i.5.j.k.5.    l.          ",
"          m.n.o.p.q.r.s.5.    5.                ",
"            t.~ u.v.    5.                      ",
"              d w.5.    x.                      ",
"                  5.                            ",
"                                                ",
"                                                "};
