/* XPM */
static char *blankcheck[] = {
/* width height ncolors chars_per_pixel */
"22 22 110 2",
/* colors */
"   c #FFFFFF",
" . c #B1B1B1",
" X c #AFAFAF",
" o c #ABABAB",
" O c #919191",
" + c #858585",
" @ c #757575",
" # c #6F6F6F",
" $ c #6B6B6B",
" % c #696969",
" & c #676767",
" * c #636363",
" = c #616161",
" - c #5B5B5B",
" ; c #535353",
" : c #515151",
" > c #4F4F4F",
" , c #4D4D4D",
" < c #4B4B4B",
" 1 c #474747",
" 2 c #454545",
" 3 c #F6F6F6",
" 4 c #3F3F3F",
" 5 c #393939",
" 6 c #EAEAEA",
" 7 c #2F2F2F",
" 8 c #2B2B2B",
" 9 c #292929",
" 0 c #272727",
" q c #D8D8D8",
" w c #252525",
" e c #D6D6D6",
" r c #232323",
" t c #212121",
" y c #1B1B1B",
" u c #191919",
" i c #151515",
" p c #C6C6C6",
" a c #B6B6B6",
" s c #010101",
" d c #B2B2B2",
" f c #B0B0B0",
" g c #ACACAC",
" h c #A4A4A4",
" j c #A0A0A0",
" k c #9A9A9A",
" l c #989898",
" z c #969696",
" x c #929292",
" c c #888888",
" v c #868686",
" b c #828282",
" n c #808080",
" m c #7E7E7E",
" M c #7C7C7C",
" N c #767676",
" B c #747474",
" V c #727272",
" C c #6E6E6E",
" Z c #6A6A6A",
" A c #646464",
" S c #606060",
" D c #585858",
" F c #545454",
" G c #525252",
" H c #505050",
" J c #4E4E4E",
" K c #FFFFFF",
" L c #4A4A4A",
" P c #484848",
" I c #464646",
" U c #444444",
" Y c #424242",
" T c #3E3E3E",
" R c #3C3C3C",
" E c #3A3A3A",
" W c #383838",
" Q c #363636",
" ! c #343434",
" ~ c #323232",
" ^ c #E3E3E3",
" / c #303030",
" ( c #E1E1E1",
" ) c #2E2E2E",
" _ c #2C2C2C",
" ` c #2A2A2A",
" ' c #282828",
" ] c #262626",
" [ c #242424",
" { c #222222",
" } c #202020",
" | c #1E1E1E",
".  c #1C1C1C",
".. c #CDCDCD",
".X c #1A1A1A",
".o c #C9C9C9",
".O c #161616",
".+ c #141414",
".@ c #121212",
".# c #101010",
".$ c #0E0E0E",
".% c #0C0C0C",
".& c #0A0A0A",
".* c #080808",
".= c #060606",
".- c #B7B7B7",
".; c #040404",
".: c #B5B5B5",
".> c #020202",
"., c None",
/* pixels */
"                                            ",
"                     Z z l F 7 7            ",
"                  .@ C n M ; 5 Q 7          ",
"                 5 ^ ^ ^ 5 ) _ 5 7 7        ",
"               V ^ V V.: ^ 2 & 7 F F 7      ",
"               ^ 5 U L 9 ^ c ) & F 7 ; 7    ",
"           / - V 8 U { [ ^ v ` _ ) G ; 7    ",
"         ;.- 6 J T.  | b ^ F ] ' , : * 7    ",
"       / g ( c W.O m . ^ d } { 1 J * K U    ",
"     F n ~ L ~.#.@ ^ ^ <.X.  Y L 8 K K h    ",
"   : o e L _.&.%.$ ^ ^.+.O R I ' S _ k D    ",
"   #.. B ].;.=.*.& ^ ^.# Q Y w.o j   H      ",
"   R 0 <   s.>.;.= @ N / 4 t O K 3 D /      ",
"   / i i <     s.> R = E | D { % N          ",
"   / i i i ,       ^ ^ y p l   x /          ",
"       i i u >   r X f + q d D   /          ",
"       i i i { G ! i f u 1 A                ",
"         i i u 8 Q j a $ Z /                ",
"           i i { Q * b *   /                ",
"             i ' Q   P D                    ",
"                     /                      ",
"                     /                      "
};
