/* XPM */
static char *burnchip[] = {
/* width height ncolors chars_per_pixel */
"22 22 110 2",
/* colors */
"   c #FFFFFF",
" . c #ABABAB",
" X c #979797",
" o c #919191",
" O c #878787",
" + c #505051",
" @ c #858585",
" # c #797979",
" $ c #6F6F6F",
" % c #6B6B6B",
" & c #696969",
" * c #636363",
" = c #616161",
" - c #555555",
" ; c #535353",
" : c #515151",
" > c #4F4F4F",
" , c #4D4D4D",
" < c #4B4B4B",
" 1 c #474747",
" 2 c #F6F6F6",
" 3 c #434343",
" 4 c #3F3F3F",
" 5 c #393939",
" 6 c #373737",
" 7 c #E8E8E8",
" 8 c #333333",
" 9 c #2F2F2F",
" 0 c #2B2B2B",
" q c #272727",
" w c #D8D8D8",
" e c #252525",
" r c #D6D6D6",
" t c #232323",
" y c #212121",
" u c #D0D0D0",
" i c #1B1B1B",
" p c #191919",
" a c #171717",
" s c #151515",
" d c #C6C6C6",
" f c #878707",
" g c #404000",
" h c #B6B6B6",
" j c #48484A",
" k c #010101",
" l c #B2B2B2",
" z c #B0B0B0",
" x c #ACACAC",
" c c #A8A8A8",
" v c #A4A4A4",
" b c #A0A0A0",
" n c #9A9A9A",
" m c #989898",
" M c #969696",
" N c #8E8E8E",
" B c #888888",
" V c #848484",
" C c #828282",
" Z c #808080",
" A c #7C7C7C",
" S c #787878",
" D c #767676",
" F c #747474",
" G c #6A6A6A",
" H c #666666",
" J c #646464",
" K c #626262",
" L c #606060",
" P c #5E5E5E",
" I c #5C5C5C",
" U c #6A6A6D",
" Y c #585858",
" T c #545454",
" R c #525252",
" E c #505050",
" W c #4E4E4E",
" Q c #FFFFFF",
" ! c #FFFF00",
" ~ c #4A4A4A",
" ^ c #464646",
" / c #444444",
" ( c #424242",
" ) c #424203",
" _ c #3C3C3C",
" ` c #3A3A3A",
" ' c #363636",
" ] c #343434",
" [ c #323232",
" { c #303030",
" } c #2E2E2E",
" | c #2C2C2C",
".  c #2A2A2A",
".. c #282828",
".X c #262626",
".o c #242424",
".O c #222222",
".+ c #676769",
".@ c #202020",
".# c #1E1E1E",
".$ c #1C1C1C",
".% c #CDCDCD",
".& c #C9C9C9",
".* c #848404",
".= c #808000",
".- c #B9B9B9",
".; c #929296",
".: c #040404",
".> c #020202",
"., c None",
/* pixels */
"                                            ",
"   g ! g             G M m T 9 9            ",
"   ! ! ! g         = 7 Q B ; 5 ' 9          ",
"   g ! ! ! g     { J X O ; 5 | 5 9 9        ",
"     g ! ! ! g ~ u M R D } 9.+ 9 T T 9      ",
"       g ! ! ! g.- V N E H | }.+ T 9 ; 9    ",
"         g ! ! ! g T g.= J...  | } R ; 9    ",
"         3 g ! ! ! f !.= K.o.X.. , : * 9    ",
"       { x c g ! ! ! !.= L.@.O 1 W * Q /    ",
"     T Z [ ~ ;.* ! ! !.= P.$ ( ~ 0 Q Q v    ",
"   : . r ~ S ) ! ! ! !.= I _ ^.. L | n Y    ",
"   $.% F.X E.=.=.=.=.= g A ( e.& b   +      ",
"   _ q <   E : R ; T - # 4 y o Q 2 Y {      ",
"   { s s <     k.>.:.  `.# Y.O & D          ",
"   { s s s ,      .o 6 i d m  .; {          ",
"       s s p >   t 8 a @ w l Y   {          ",
"       s s s.O R ] s z p 1 J                ",
"         s s p 0 ' b h % U {                ",
"           s s.O ' * C *   {                ",
"             s.. '   j Y                    ",
"                     {                      ",
"                     {                      "
};
