/* XPM */
static char *chip[] = {
/* width height ncolors chars_per_pixel */
"22 22 121 2",
/* colors */
"   c #FFFFFF",
" . c #ABABAB",
" X c #979797",
" o c #919191",
" O c #878787",
" + c #505051",
" @ c #858585",
" # c #6F6F6F",
" $ c #6B6B6B",
" % c #696969",
" & c #636363",
" * c #616161",
" = c #535353",
" - c #515151",
" ; c #555516",
" : c #4F4F4F",
" > c #4D4D4D",
" , c #4B4B4B",
" < c #888809",
" 1 c #868607",
" 2 c #474747",
" 3 c #F6F6F6",
" 4 c #3F3F3F",
" 5 c #3D3D3D",
" 6 c #393939",
" 7 c #EAEAEA",
" 8 c #373737",
" 9 c #E8E8E8",
" 0 c #333333",
" q c #2F2F2F",
" w c #2B2B2B",
" e c #292929",
" r c #272727",
" t c #D8D8D8",
" y c #252525",
" u c #D6D6D6",
" i c #232323",
" p c #212121",
" a c #D0D0D0",
" s c #1B1B1B",
" d c #191919",
" f c #171717",
" g c #151515",
" h c #C6C6C6",
" j c #4C4C0C",
" k c #4A4A0A",
" l c #B6B6B6",
" z c #48484A",
" x c #010101",
" c c #B2B2B2",
" v c #B0B0B0",
" b c #ACACAC",
" n c #A4A4A4",
" m c #A0A0A0",
" M c #9A9A9A",
" N c #989898",
" B c #969696",
" V c #8E8E8E",
" C c #888888",
" Z c #848484",
" A c #828282",
" S c #808080",
" D c #767676",
" F c #747474",
" G c #6A6A6A",
" H c #646464",
" J c #606060",
" K c #5A5A5A",
" L c #6A6A6D",
" P c #585858",
" I c #545454",
" U c #585819",
" Y c #525252",
" T c #8F8F10",
" R c #505050",
" E c #8D8D0E",
" W c #4E4E4E",
" Q c #FFFFFF",
" ! c #FFFF00",
" ~ c #505011",
" ^ c #4A4A4A",
" / c #F9F9F9",
" ( c #464646",
" ) c #444444",
" _ c #424242",
" ` c #3E3E3E",
" ' c #3C3C3C",
" ] c #3A3A3A",
" [ c #383838",
" { c #363636",
" } c #343434",
" | c #323232",
".  c #303030",
".. c #E1E1E1",
".X c #2E2E2E",
".o c #2C2C2C",
".O c #2A2A2A",
".+ c #282828",
".@ c #262626",
".# c #242424",
".$ c #222222",
".% c #676769",
".& c #202020",
".* c #1E1E1E",
".= c #575717",
".- c #1C1C1C",
".; c #CDCDCD",
".: c #C9C9C9",
".> c #515111",
"., c #C3C3C3",
".< c #101010",
".1 c #494909",
".2 c #0C0C0C",
".3 c #0A0A0A",
".4 c #080808",
".5 c #060606",
".6 c #B7B7B7",
".7 c #929296",
".8 c #040404",
".9 c #020202",
".0 c None",
/* pixels */
"                                            ",
"                     G B N I q q            ",
"                   * 9 Q C = 6 { q          ",
"                .  H X O = 6.o 6 q q        ",
"               K a B Y R q q.% q I I q      ",
"            . ., / Z ^ e.O.o.X.% I q = q    ",
"          .  5 V A ).$.#.@.+.O.o.X Y = q    ",
"         =.6 7 W ` ; T U.$.#.@.+ > - & q    ",
"      .  b.. C [.> ! ! !.=.&.$ 2 W & Q )    ",
"     I S | ^ |.< < ! ! ! E.- _ ^ w Q Q n    ",
"   - . u ^.o.3.2 k ! ! ! ~ ' (.+ J.o M P    ",
"   #.; F.@.8.5.4.3.1 1 j { _ y.: m   +      ",
"   ' r ,   x.9.8.5.4.3.  4 p o Q 3 P.       ",
"  .  g g ,     x.9.8.O ].* P.$ % D          ",
"  .  g g g >      .# 8 s h N  .7.           ",
"       g g d :   i 0 f @ t c P  .           ",
"       g g g.$ Y } g v d 2 H                ",
"         g g d w { m l $ L.                 ",
"           g g.$ { & A &  .                 ",
"             g.+ {   z P                    ",
"                    .                       ",
"                    .                       "
};
