/* XPM */
static char *erasechip[] = {
/* width height ncolors chars_per_pixel */
"22 22 130 2",
/* colors */
"   c #FFFFFF",
" . c #ABABAB",
" X c #979797",
" o c #919191",
" O c #878787",
" + c #505051",
" @ c #858585",
" # c #6F6F6F",
" $ c #6B6B6B",
" % c #696969",
" & c #636363",
" * c #616161",
" = c #535353",
" - c #515151",
" ; c #4F4F4F",
" : c #C7C708",
" > c #4D4D4D",
" , c #C5C506",
" < c #4B4B4B",
" 1 c #474747",
" 2 c #808040",
" 3 c #F6F6F6",
" 4 c #7C7C3C",
" 5 c #3F3F3F",
" 6 c #3D3D3D",
" 7 c #414102",
" 8 c #393939",
" 9 c #EAEAEA",
" 0 c #373737",
" q c #E8E8E8",
" w c #707030",
" e c #6E6E2E",
" r c #333333",
" t c #2F2F2F",
" y c #2B2B2B",
" u c #272727",
" i c #D8D8D8",
" p c #252525",
" a c #D6D6D6",
" s c #232323",
" d c #212121",
" f c #D0D0D0",
" g c #585818",
" h c #1B1B1B",
" j c #191919",
" k c #525212",
" l c #171717",
" z c #505010",
" x c #C4C404",
" c c #151515",
" v c #C6C6C6",
" b c #C2C202",
" n c #0F0F0F",
" m c #444404",
" M c #B6B6B6",
" N c #48484A",
" B c #010101",
" V c #B2B2B2",
" C c #B0B0B0",
" Z c #ACACAC",
" A c #A4A4A4",
" S c #A0A0A0",
" D c #9A9A9A",
" F c #989898",
" G c #969696",
" H c #8E8E8E",
" J c #888888",
" K c #848484",
" L c #828282",
" P c #808080",
" I c #767676",
" U c #747474",
" Y c #E8E829",
" T c #727233",
" R c #E4E425",
" E c #6A6A6A",
" W c #646464",
" Q c #606060",
" ! c #5A5A5A",
" ~ c #6A6A6D",
" ^ c #585858",
" / c #545454",
" ( c #525252",
" ) c #CACA0B",
" _ c #505050",
" ` c #C8C809",
" ' c #4E4E4E",
" ] c #FFFFFF",
" [ c #C6C607",
" { c #FFFF00",
" } c #4A4A4A",
" | c #C2C203",
".  c #F9F9F9",
".. c #464646",
".X c #444444",
".o c #424242",
".O c #3E3E3E",
".+ c #3C3C3C",
".@ c #3A3A3A",
".# c #363636",
".$ c #343434",
".% c #323232",
".& c #303030",
".* c #E1E1E1",
".= c #2E2E2E",
".- c #2C2C2C",
".; c #2A2A2A",
".: c #636323",
".> c #282828",
"., c #262626",
".< c #222222",
".1 c #676769",
".2 c #202020",
".3 c #1E1E1E",
".4 c #1C1C1C",
".5 c #CDCDCD",
".6 c #C9C9C9",
".7 c #4F4F0F",
".8 c #141414",
".9 c #121212",
".0 c #C3C3C3",
".q c #4B4B0B",
".w c #101010",
".e c #0A0A0A",
".r c #434303",
".t c #B7B7B7",
".y c #929296",
".u c #040404",
".i c #020202",
".p c None",
/* pixels */
"                                            ",
"                     E G F / t t            ",
"                   * q ] J = 8.# t          ",
"                .& W X O = 8.- 8 t t        ",
"               ! f G ( _ t t.1 t / / t      ",
"            .&.0.  K 2 ).;.-.=.1 / t = t    ",
"          .& 6 H L 4 { `.,.>.;.-.= ( = t    ",
"         =.t 9 '.O { : g ` p.,.> > - & t    ",
"      .& Z.* J T , k { { :.2.< 1 ' & ].X    ",
"     / P.% } e { x.8 z { [.4.o } y ] ] A    ",
"   - . a }.- { |.q x.9.7 { Y...> Q.- D ^    ",
"   #.5 U.,.u m { { | n.w w.o p.6 S   +      ",
"  .+ u <   B.i.r { b.e.& 5 d o ] 3 ^.&      ",
"  .& c c <     B 7 { R.@.3 ^.< % I          ",
"  .& c c c >      .: 0 h v F  .y.&          ",
"       c c j ;   s r l @ i V ^  .&          ",
"       c c c.< (.$ c C j 1 W                ",
"         c c j y.# S M $ ~.&                ",
"           c c.<.# & L &  .&                ",
"             c.>.#   N ^                    ",
"                    .&                      ",
"                    .&                      "
};
