/* XPM */
static char * new_xpm[] = {
"22 22 219 2",
"  	c None",
". 	c #A9A9AA",
"+ 	c #ABABAC",
"@ 	c #ACACAD",
"# 	c #989897",
"$ 	c #A0A09F",
"% 	c #9D9D9C",
"& 	c #9C9C9B",
"* 	c #838383",
"= 	c #4D4D4C",
"- 	c #5E5E57",
"; 	c #717168",
"> 	c #575751",
", 	c #4B4B46",
"' 	c #737371",
") 	c #81817C",
"! 	c #71716A",
"~ 	c #858577",
"{ 	c #939382",
"] 	c #717164",
"^ 	c #67675F",
"/ 	c #ACACAC",
"( 	c #8B8B8B",
"_ 	c #4C4C4B",
": 	c #606058",
"< 	c #898979",
"[ 	c #ADAD9B",
"} 	c #CFCFB9",
"| 	c #DDDDC6",
"1 	c #C5C5B1",
"2 	c #9A9A90",
"3 	c #757575",
"4 	c #CDCDCD",
"5 	c #959595",
"6 	c #444444",
"7 	c #5A5A57",
"8 	c #7A7A73",
"9 	c #A1A192",
"0 	c #B3B3A1",
"a 	c #C1C1AC",
"b 	c #CECEB8",
"c 	c #DADAC3",
"d 	c #E1E1C9",
"e 	c #B2B2A1",
"f 	c #7C7C73",
"g 	c #8B8B89",
"h 	c #9D9D9F",
"i 	c #B9B9B9",
"j 	c #919192",
"k 	c #565656",
"l 	c #474743",
"m 	c #76766A",
"n 	c #D4D4BC",
"o 	c #E2E2CA",
"p 	c #DBDBC4",
"q 	c #DCDCC4",
"r 	c #DFDFC7",
"s 	c #E9E9D0",
"t 	c #CCCCB6",
"u 	c #9C9C8C",
"v 	c #8A8A85",
"w 	c #848485",
"x 	c #919191",
"y 	c #7F7F7F",
"z 	c #6A6A66",
"A 	c #86867A",
"B 	c #D8D8C1",
"C 	c #D9D9C2",
"D 	c #DDDDC5",
"E 	c #E5E5CD",
"F 	c #E4E4CC",
"G 	c #D1D1BC",
"H 	c #84847B",
"I 	c #5E5E5A",
"J 	c #8F8F8F",
"K 	c #969694",
"L 	c #9B9B98",
"M 	c #9E9E96",
"N 	c #A4A493",
"O 	c #C3C3AE",
"P 	c #DCDCC5",
"Q 	c #E6E6CD",
"R 	c #E7E7CF",
"S 	c #ECECD4",
"T 	c #E8E8D0",
"U 	c #BBBBA8",
"V 	c #89897E",
"W 	c #444445",
"X 	c #8C8C8D",
"Y 	c #959594",
"Z 	c #A2A2A0",
"` 	c #ACACAA",
" .	c #A2A29C",
"..	c #8D8D7E",
"+.	c #B8B8A4",
"@.	c #E5E5CC",
"#.	c #EAEAD1",
"$.	c #EBEBD2",
"%.	c #EFEFD6",
"&.	c #F1F1D8",
"*.	c #EEEED4",
"=.	c #AEAE9E",
"-.	c #525250",
";.	c #585859",
">.	c #989896",
",.	c #A4A49F",
"'.	c #8A8A86",
").	c #85857D",
"!.	c #E3E3CB",
"~.	c #EEEED5",
"{.	c #F0F0D7",
"].	c #F2F2D9",
"^.	c #FAFAE0",
"/.	c #CDCDB8",
"(.	c #7B7B71",
"_.	c #90908E",
":.	c #ADADAF",
"<.	c #929293",
"[.	c #787877",
"}.	c #585855",
"|.	c #808077",
"1.	c #A6A696",
"2.	c #BDBDAA",
"3.	c #D3D3BD",
"4.	c #E1E1CA",
"5.	c #E9E9D1",
"6.	c #EDEDD4",
"7.	c #F3F3DA",
"8.	c #BCBCAA",
"9.	c #97978E",
"0.	c #8B8B87",
"a.	c #AAAAA9",
"b.	c #989898",
"c.	c #5D5D5D",
"d.	c #1C1C1A",
"e.	c #8B8B7B",
"f.	c #D3D3BC",
"g.	c #E0E0C9",
"h.	c #E3E3CC",
"i.	c #E6E6CF",
"j.	c #F4F4DB",
"k.	c #F5F5DC",
"l.	c #F7F7DE",
"m.	c #F2F2DA",
"n.	c #A5A592",
"o.	c #79796E",
"p.	c #999998",
"q.	c #939393",
"r.	c #737372",
"s.	c #53534E",
"t.	c #AEAE9C",
"u.	c #E8E8CF",
"v.	c #ECECD3",
"w.	c #FEFEE4",
"x.	c #D9D9C1",
"y.	c #9F9F90",
"z.	c #60605E",
"A.	c #6A6A6A",
"B.	c #585854",
"C.	c #B6B6A4",
"D.	c #DFDFC8",
"E.	c #E2E2CB",
"F.	c #E6E6CE",
"G.	c #F7F7DD",
"H.	c #FCFCE2",
"I.	c #EEEED6",
"J.	c #CBCBB6",
"K.	c #A5A596",
"L.	c #828278",
"M.	c #484846",
"N.	c #ABAB9C",
"O.	c #F6F6DC",
"P.	c #CFCFBA",
"Q.	c #87877C",
"R.	c #565653",
"S.	c #3F3F41",
"T.	c #8D8D8D",
"U.	c #A0A097",
"V.	c #C1C1AF",
"W.	c #F3F3D9",
"X.	c #F8F8DF",
"Y.	c #F8F8DE",
"Z.	c #A2A290",
"`.	c #8A8A7F",
" +	c #9A9A97",
".+	c #7C7C7C",
"++	c #AEAEAE",
"@+	c #878781",
"#+	c #9C9C8E",
"$+	c #D3D3BE",
"%+	c #B7B7A8",
"&+	c #757569",
"*+	c #696963",
"=+	c #A7A7A8",
"-+	c #595955",
";+	c #808076",
">+	c #D1D1BB",
",+	c #F1F1D7",
"'+	c #BBBBA6",
")+	c #929288",
"!+	c #777777",
"~+	c #84847E",
"{+	c #A2A291",
"]+	c #DADAC2",
"^+	c #FDFDE3",
"/+	c #8F8F81",
"(+	c #7B7B76",
"_+	c #949496",
":+	c #898986",
"<+	c #7E7E74",
"[+	c #CECEBA",
"}+	c #959585",
"|+	c #585850",
"1+	c #686866",
"2+	c #767675",
"3+	c #8F8F85",
"4+	c #919182",
"5+	c #666660",
"6+	c #5A5A55",
"                        . + @               ",
"                      # $ % &               ",
"                  * = - ; > ,               ",
"                ' ) ! ~ { ] ^               ",
"          / ( _ : < [ } | 1 2 3             ",
"    4 5 6 7 8 9 0 a b c d d e f g h         ",
"    i j k l m n o | p q r s t u v w         ",
"    x ( y z A t B B C D d E F G H I         ",
"    ( J K L M N O c P d Q R S T U V W       ",
"    X Y Z `  ...+.D r @.#.$.%.&.*.=.-.;.    ",
"    X >.,.'.).u O r !.R $.~.{.].^./.(._.:.  ",
"    <.[.}.|.1.2.3.4.E 5.6.{.].7.^.R 8.9.0.a.",
"    b.c.d.e.f.p g.h.i.$.%.&.7.j.k.l.m.n.o.p.",
"    q.r.s.t.d | d E u.v.%.&.7.k.k.^.w.x.y.z.",
"      A.B.C.s D.E.F.s 6.{.].j.G.H.I.J.K.L.M.",
"        = N.F o Q T $.~.&.7.j.j.O.P.Q.R.S.  ",
"        T.U.V.F.$.#.v.%.W.X.Y.Q Z.`. +.+    ",
"        ++@+#+4.6.S ~.].&.F.$+%+&+*+=+      ",
"          -+;+>+5.{.,+&.F '+)+!+            ",
"          !+~+{+]+^+G.O /+H (+              ",
"          _+:+<+U h.[+}+|+1+                ",
"              2+3+4+5+6+                    "};
