/* XPM */
static char * open_xpm[] = {
"22 22 207 2",
"  	c None",
". 	c #D0CFD1",
"+ 	c #D0D0D2",
"@ 	c #D1D0D2",
"# 	c #D1D0D3",
"$ 	c #D1D1D3",
"% 	c #CACACB",
"& 	c #F4F3F6",
"* 	c #F5F4F8",
"= 	c #F3F3F6",
"- 	c #C4C4C5",
"; 	c #DFDFE1",
"> 	c #F9F8FC",
", 	c #E4E3E6",
"' 	c #DBDBDD",
") 	c #DCDBDD",
"! 	c #DBDADD",
"~ 	c #D6D5D7",
"{ 	c #CACACC",
"] 	c #EBEEF3",
"^ 	c #DCE3EC",
"/ 	c #DCE4EC",
"( 	c #D6DDE6",
"_ 	c #B8C3CC",
": 	c #C9CACC",
"< 	c #D7E0E8",
"[ 	c #C9DAE3",
"} 	c #CDDEE7",
"| 	c #CEDEE7",
"1 	c #CEDFE7",
"2 	c #CFDFE7",
"3 	c #CFDFE8",
"4 	c #CFE0E8",
"5 	c #C6D9E0",
"6 	c #ACC2D3",
"7 	c #C7C8CA",
"8 	c #CFDBE3",
"9 	c #CDE1E7",
"0 	c #D3E6EB",
"a 	c #D4E6EC",
"b 	c #D4E7EC",
"c 	c #D4E8EC",
"d 	c #D5E8EC",
"e 	c #D5E8ED",
"f 	c #D5E7EC",
"g 	c #D1E5EA",
"h 	c #B0C6D4",
"i 	c #C6C7C9",
"j 	c #CDD8E1",
"k 	c #C6DCE5",
"l 	c #CBE1E8",
"m 	c #CCE1E8",
"n 	c #CDE1E8",
"o 	c #CDE2E8",
"p 	c #CDE2E9",
"q 	c #CEE2E9",
"r 	c #CEE3E9",
"s 	c #CEE2E8",
"t 	c #C9DFE6",
"u 	c #AEC4D2",
"v 	c #C5C6C7",
"w 	c #CAD6DF",
"x 	c #C1D7E1",
"y 	c #C4DBE4",
"z 	c #C5DBE4",
"A 	c #C5DCE4",
"B 	c #C5DCE5",
"C 	c #C5DDE5",
"D 	c #C6DDE5",
"E 	c #C6DDE6",
"F 	c #C6DEE5",
"G 	c #C2DAE2",
"H 	c #ACC2D0",
"I 	c #C4C5C6",
"J 	c #C8D3DC",
"K 	c #BAD3DF",
"L 	c #BDD6E1",
"M 	c #BED6E1",
"N 	c #BFD7E1",
"O 	c #C0D7E1",
"P 	c #C0D7E2",
"Q 	c #C0D8E2",
"R 	c #BBD5DF",
"S 	c #A9C0CF",
"T 	c #C3C3C4",
"U 	c #C6D0D9",
"V 	c #B3CEDB",
"W 	c #B5D1DE",
"X 	c #B5D2DE",
"Y 	c #B6D2DE",
"Z 	c #B6D3DE",
"` 	c #B7D3DE",
" .	c #B8D3DE",
"..	c #B7D2DD",
"+.	c #B2CFDB",
"@.	c #A7BECC",
"#.	c #C1C2C4",
"$.	c #C2CED7",
"%.	c #ACCAD8",
"&.	c #ADCBD9",
"*.	c #ADCBDA",
"=.	c #AECBDA",
"-.	c #AFCCDA",
";.	c #AFCCDB",
">.	c #B0CCDA",
",.	c #B0CDDB",
"'.	c #B0CDDA",
").	c #B1CDDA",
"!.	c #B0CCDB",
"~.	c #A4BBCA",
"{.	c #C0C1C2",
"].	c #C0CCD4",
"^.	c #A6C4D5",
"/.	c #A6C6D6",
"(.	c #A7C6D6",
"_.	c #A7C6D7",
":.	c #A7C7D7",
"<.	c #A8C7D7",
"[.	c #A9C8D7",
"}.	c #A8C8D7",
"|.	c #A4C4D5",
"1.	c #A1B9C8",
"2.	c #BFBFC1",
"3.	c #BCC9D1",
"4.	c #9EC0D1",
"5.	c #9EC0D3",
"6.	c #9FC1D3",
"7.	c #A0C1D3",
"8.	c #A0C2D3",
"9.	c #A1C2D4",
"0.	c #A2C3D4",
"a.	c #A1C2D3",
"b.	c #9DBFD1",
"c.	c #9EB6C5",
"d.	c #BDBEBF",
"e.	c #BAC7CF",
"f.	c #97BACE",
"g.	c #97BBCF",
"h.	c #98BBCF",
"i.	c #98BCCF",
"j.	c #98BCD0",
"k.	c #99BCD0",
"l.	c #99BDD0",
"m.	c #9ABDD0",
"n.	c #95BACE",
"o.	c #9AB4C3",
"p.	c #BDBDBE",
"q.	c #B7C4CC",
"r.	c #90B6CA",
"s.	c #8FB5CB",
"t.	c #90B6CC",
"u.	c #90B5CB",
"v.	c #91B6CC",
"w.	c #91B7CC",
"x.	c #92B7CC",
"y.	c #92B8CD",
"z.	c #93B8CC",
"A.	c #8DB4CA",
"B.	c #97B0C0",
"C.	c #BBBBBC",
"D.	c #B3C1CA",
"E.	c #89B0C7",
"F.	c #88B0C7",
"G.	c #89B1C8",
"H.	c #88B1C8",
"I.	c #8AB1C8",
"J.	c #8AB2C8",
"K.	c #8AB2C9",
"L.	c #8BB2C9",
"M.	c #86AFC7",
"N.	c #93ADBE",
"O.	c #B9BABB",
"P.	c #AEBDC7",
"Q.	c #81ABC4",
"R.	c #81ACC4",
"S.	c #82ACC4",
"T.	c #82ACC5",
"U.	c #82ADC5",
"V.	c #83ADC5",
"W.	c #84ADC5",
"X.	c #7EA9C3",
"Y.	c #8FAABB",
"Z.	c #B8B9B9",
"`.	c #A9BAC4",
" +	c #79A5C0",
".+	c #79A5C1",
"++	c #7AA6C1",
"@+	c #7BA6C1",
"#+	c #7BA7C1",
"$+	c #7CA7C1",
"%+	c #77A5BF",
"&+	c #8DA8B7",
"*+	c #ACAEAF",
"=+	c #96AAB6",
"-+	c #739FB9",
";+	c #739EB9",
">+	c #739FBA",
",+	c #749FBA",
"'+	c #74A0BA",
")+	c #75A0BA",
"!+	c #76A0BA",
"~+	c #76A0B9",
"{+	c #9DA7AD",
"]+	c #96A5AE",
"^+	c #96A5AF",
"/+	c #96A6AF",
"(+	c #97A6AF",
"                                            ",
"                                            ",
"    . + @ # $ $                             ",
"  % & * * * * = $                           ",
"- ; > > > > > > , ' ) ) ) ' ' ' ' ' ! ~     ",
"{ ] ^ ^ ^ ^ ^ ^ / / / ^ / / ^ / ^ / ^ ( _   ",
": < [ } } | | 1 1 1 1 1 2 3 4 4 4 4 4 2 5 6 ",
"7 8 9 0 0 0 a b b b b b b b c d e e e f g h ",
"i j k l m m m m n o p p p p p q r r r s t u ",
"v w x y z A B A A A B C C D D E D E F D G H ",
"I J K L L L L M M M M N N N N N O P Q P R S ",
"T U V W W W W W X Y Y Y Y Y Z Z ` `  ...+.@.",
"#.$.%.&.*.=.=.=.-.-.-.;.;.;.>.,.'.'.).!.%.~.",
"{.].^././.(.(.(.(._.:.<.<.<.<.<.<.[.}.<.|.1.",
"2.3.4.5.6.6.6.6.7.7.7.8.8.9.9.9.9.0.0.a.b.c.",
"d.e.f.g.g.g.h.i.i.i.j.k.k.l.l.m.l.m.m.m.n.o.",
"p.q.r.s.t.u.t.v.v.v.w.x.x.x.x.y.x.z.z.x.A.B.",
"C.D.E.F.G.H.G.G.I.I.J.J.J.J.K.K.L.L.L.J.M.N.",
"O.P.Q.Q.Q.Q.R.S.S.S.S.T.U.V.V.V.V.V.W.V.X.Y.",
"Z.`. + + +.+++++++++@+@+#+#+@+#+@+#+#+$+%+&+",
"*+=+-+-+-+;+;+;+>+>+>+,+,+,+,+'+)+)+)+!+~+  ",
"  {+]+]+^+^+^+^+^+^+^+^+^+^+^+/+/+(+(+(+(+  "};
