/* XPM */
const char * program_xpm[] = {
"24 24 153 2",
"  	c None",
". 	c #000000",
"+ 	c #78726E",
"@ 	c #888888",
"# 	c #7E7E7E",
"$ 	c #6B6B6B",
"% 	c #FFFF00",
"& 	c #757270",
"* 	c #777676",
"= 	c #777777",
"- 	c #717171",
"; 	c #676767",
"> 	c #656565",
", 	c #908580",
"' 	c #817E7C",
") 	c #8A8A8A",
"! 	c #828282",
"~ 	c #7B7B7B",
"{ 	c #747474",
"] 	c #6E6E6E",
"^ 	c #666666",
"/ 	c #8F8E8E",
"( 	c #989898",
"_ 	c #949494",
": 	c #848484",
"< 	c #7D7D7D",
"[ 	c #767676",
"} 	c #6C6C6C",
"| 	c #999999",
"1 	c #878787",
"2 	c #808080",
"3 	c #757575",
"4 	c #707070",
"5 	c #686868",
"6 	c #82726A",
"7 	c #76706C",
"8 	c #929292",
"9 	c #898989",
"0 	c #797979",
"a 	c #6C5548",
"b 	c #919191",
"c 	c #A9A9A9",
"d 	c #A7A7A7",
"e 	c #A6A6A6",
"f 	c #868686",
"g 	c #787878",
"h 	c #606060",
"i 	c #807A77",
"j 	c #999594",
"k 	c #B2B2B2",
"l 	c #AFAFAF",
"m 	c #AAAAAA",
"n 	c #A5A5A5",
"o 	c #8C8C8C",
"p 	c #727272",
"q 	c #5E5E5E",
"r 	c #B4B4B4",
"s 	c #BCBCBC",
"t 	c #B5B5B5",
"u 	c #B0B0B0",
"v 	c #A1A1A1",
"w 	c #8B8B8B",
"x 	c #8E8E8E",
"y 	c #858585",
"z 	c #838383",
"A 	c #818181",
"B 	c #6F6D6C",
"C 	c #6C625C",
"D 	c #585757",
"E 	c #7C7C7C",
"F 	c #ACABAA",
"G 	c #BDBCBC",
"H 	c #B7B7B7",
"I 	c #B1B1B1",
"J 	c #909090",
"K 	c #747475",
"L 	c #9F938E",
"M 	c #9C7258",
"N 	c #555250",
"O 	c #A6A5A5",
"P 	c #B8B8B8",
"Q 	c #B3B3B3",
"R 	c #A4A4A4",
"S 	c #B6B6B6",
"T 	c #A0A0A0",
"U 	c #9E9E9E",
"V 	c #9B9B9B",
"W 	c #979797",
"X 	c #7F7F7F",
"Y 	c #918682",
"Z 	c #967460",
"` 	c #626161",
" .	c #A39691",
"..	c #9B6E54",
"+.	c #73706E",
"@.	c #626262",
"#.	c #A8A8A8",
"$.	c #969696",
"%.	c #818080",
"&.	c #7A7674",
"*.	c #737474",
"=.	c #B1A29C",
"-.	c #A87758",
";.	c #5A5856",
">.	c #9C8E8A",
",.	c #996C50",
"'.	c #9C9C9C",
").	c #A4948E",
"!.	c #A3765A",
"~.	c #686867",
"{.	c #B0A09A",
"].	c #A57354",
"^.	c #898785",
"/.	c #BAB6B4",
"(.	c #9A6D52",
"_.	c #A2A2A2",
":.	c #828383",
"<.	c #90837D",
"[.	c #926D56",
"}.	c #B2A19A",
"|.	c #A57455",
"1.	c #636262",
"2.	c #AEA49E",
"3.	c #A57254",
"4.	c #696969",
"5.	c #6D6D6D",
"6.	c #7E7A78",
"7.	c #7C6456",
"8.	c #B3A098",
"9.	c #A47152",
"0.	c #6D6C6B",
"a.	c #B2A099",
"b.	c #646464",
"c.	c #7F8080",
"d.	c #A69691",
"e.	c #A76944",
"f.	c #675D56",
"g.	c #B4A19A",
"h.	c #807E7D",
"i.	c #B4A8A2",
"j.	c #AD7859",
"k.	c #585858",
"l.	c #575757",
"m.	c #808181",
"n.	c #AB9B97",
"o.	c #A86A45",
"p.	c #60554F",
"q.	c #AC9E98",
"r.	c #555555",
"s.	c #978984",
"t.	c #AB704D",
"u.	c #AEADAC",
"v.	c #B58366",
"                                                ",
"                                                ",
"            .               + @ # $             ",
"          . % .           & * = - ; >           ",
"        . % % % .   , ' @ ) ! ~ { ] ^ $         ",
"          . % % % . / ( _ . : < [ - } > $       ",
"            . % % % . | . . 1 2 ~ 3 4 ] 5 -     ",
"        6 7 8 . % % % . % . 9 : # 0 3 - ] 5 3   ",
"    a [ b c d e . % % % % . ) f ! # g 3 4 } h f ",
"  i j k l m e n n . % % % . o @ : ! < = p } q ! ",
"f r s t u v w 8 . % % % % . x ) y z A 0 B C D E ",
"! F G H I E x . . . . . . . J ) @ 2 K } L M N ) ",
"] | O P Q 8 R S e T U V W _ J ) X Y Z `  ...+.  ",
"@.b x T k l #.n v U V ( $.x %.&.*.=.-.;.>.,.    ",
"  0 f z 8 m c R T '.( J : # ).!.~.{.].^./.(.    ",
"    ] E [ 2 T _.W x :.<.[.4 }.|.1.2.3.    (.    ",
"      4.5.; 4.y 6.7.B 8.9.0.a.3.    3.          ",
"        b.h q c.d.e.f.g.3.h.i.3.    j.          ",
"          k.l.m.n.o.p.q.3.    3.                ",
"            r.{ s.t.    3.                      ",
"              J u.3.    v.                      ",
"                  3.                            ",
"                                                ",
"                                                "};
