/* XPM */
static char *readchip[] = {
/* width height ncolors chars_per_pixel */
"22 22 116 2",
/* colors */
"   c #FFFFFF",
" . c #ABABAB",
" X c #979797",
" o c #919191",
" O c #878787",
" + c #505051",
" @ c #858585",
" # c #6F6F6F",
" $ c #6B6B6B",
" % c #696969",
" & c #636363",
" * c #616161",
" = c #575757",
" - c #535353",
" ; c #515151",
" : c #4F4F4F",
" > c #4D4D4D",
" , c #4B4B4B",
" < c #474747",
" 1 c #BFBF00",
" 2 c #F6F6F6",
" 3 c #434343",
" 4 c #454506",
" 5 c #3F3F3F",
" 6 c #393939",
" 7 c #373737",
" 8 c #E8E8E8",
" 9 c #333333",
" 0 c #2F2F2F",
" q c #2B2B2B",
" w c #292929",
" e c #272727",
" r c #D8D8D8",
" t c #252525",
" y c #D6D6D6",
" u c #232323",
" i c #212121",
" p c #D0D0D0",
" a c #1B1B1B",
" s c #191919",
" d c #171717",
" f c #151515",
" g c #C6C6C6",
" h c #0F0F0F",
" j c #444404",
" k c #404000",
" l c #B6B6B6",
" z c #48484A",
" x c #010101",
" c c #B2B2B2",
" v c #B0B0B0",
" b c #ACACAC",
" n c #A8A8A8",
" m c #A4A4A4",
" M c #A0A0A0",
" N c #9A9A9A",
" B c #989898",
" V c #969696",
" C c #888888",
" Z c #848484",
" A c #828282",
" S c #808080",
" D c #767676",
" F c #747474",
" G c #6A6A6A",
" H c #646464",
" J c #606060",
" K c #6A6A6D",
" L c #585858",
" P c #545454",
" I c #525252",
" U c #505050",
" Y c #4E4E4E",
" T c #FFFFFF",
" R c #FFFF00",
" E c #4A4A4A",
" W c #464646",
" Q c #444444",
" ! c #424242",
" ~ c #3C3C3C",
" ^ c #3A3A3A",
" / c #363636",
" ( c #343434",
" ) c #323232",
" _ c #303030",
" ` c #2E2E2E",
" ' c #2C2C2C",
" ] c #2A2A2A",
" [ c #282828",
" { c #262626",
" } c #242424",
" | c #222222",
".  c #676769",
".. c #202020",
".X c #1E1E1E",
".o c #1C1C1C",
".O c #CDCDCD",
".+ c #1A1A1A",
".@ c #181818",
".# c #C9C9C9",
".$ c #161616",
".% c #141414",
".& c #121212",
".* c #101010",
".= c #0E0E0E",
".- c #0C0C0C",
".; c #808000",
".: c #0A0A0A",
".> c #434303",
"., c #080808",
".< c #B9B9B9",
".1 c #060606",
".2 c #929296",
".3 c #040404",
".4 c #020202",
".5 c None",
/* pixels */
"                                            ",
"   k.;.;.;.; k       G V B P 0 0            ",
"  .; R R R 1       * 8 T C - 6 / 0          ",
"  .; R R R k     _ H X O - 6 ' 6 0 0        ",
"  .; R R R R k E p V I U 0 0.  0 P P 0      ",
"  .; 1   R R R k.< Z E w ] ' `.  P 0 - 0    ",
"   k     k R R R k = | } { [ ] ' ` I - 0    ",
"         3 k R R R k.*.. | } { [ > ; & 0    ",
"       _ b n k R R R k h.X.. | < Y & T Q    ",
"     P S ) E 6 k R R 4.@.+.o ! E q T T m    ",
"   ; . y E '.:.1.> j.&.%.$ ~ W [ J ' N L    ",
"   #.O F {.3.1.,.:.-.=.* / ! t.# M   +      ",
"   ~ e ,   x.4.3.1.,.: _ 5 i o T 2 L _      ",
"   _ f f ,     x.4.3 ] ^.X L | % D          ",
"   _ f f f >       } 7 a g B  .2 _          ",
"       f f s :   u 9 d @ r c L   _          ",
"       f f f | I ( f v s < H                ",
"         f f s q / M l $ K _                ",
"           f f | / & A &   _                ",
"             f [ /   z L                    ",
"                     _                      ",
"                     _                      "
};
