/* XPM */
static char * refresh_xpm[] = {
"22 22 159 2",
"  	c None",
". 	c #244F8C",
"+ 	c #265290",
"@ 	c #265391",
"# 	c #285592",
"$ 	c #2B5692",
"% 	c #295490",
"& 	c #204B87",
"* 	c #2B5997",
"= 	c #2F5E9D",
"- 	c #3464A2",
"; 	c #3A6AA6",
"> 	c #406EA8",
", 	c #426EA7",
"' 	c #3F6AA3",
") 	c #3A649C",
"! 	c #345D97",
"~ 	c #29538F",
"{ 	c #2D5690",
"] 	c #28518D",
"^ 	c #26518E",
"/ 	c #2A5896",
"( 	c #2A5795",
"_ 	c #2C5996",
": 	c #2F5B98",
"< 	c #37629D",
"[ 	c #446EA6",
"} 	c #507AB0",
"| 	c #517BB0",
"1 	c #4D76AC",
"2 	c #476EA4",
"3 	c #3C649B",
"4 	c #5075A8",
"5 	c #3C629A",
"6 	c #234C89",
"7 	c #25508D",
"8 	c #2B5795",
"9 	c #315E9B",
"0 	c #2F5C99",
"a 	c #25518E",
"b 	c #26508C",
"c 	c #2F5994",
"d 	c #39639C",
"e 	c #4D75AC",
"f 	c #5780B4",
"g 	c #547DB2",
"h 	c #5980B2",
"i 	c #7192BE",
"j 	c #456BA0",
"k 	c #214B89",
"l 	c #2C5693",
"m 	c #4671AC",
"n 	c #4573AE",
"o 	c #3969A6",
"p 	c #244F8B",
"q 	c #335C96",
"r 	c #4970A5",
"s 	c #5D83B5",
"t 	c #527CB2",
"u 	c #6A8EBC",
"v 	c #456B9F",
"w 	c #3C66A1",
"x 	c #658EC4",
"y 	c #4A77B3",
"z 	c #234D8A",
"A 	c #3E659B",
"B 	c #6287B6",
"C 	c #4472AB",
"D 	c #668BBA",
"E 	c #456B9E",
"F 	c #26528D",
"G 	c #315992",
"H 	c #6587B5",
"I 	c #7B9BC3",
"J 	c #7B9BC4",
"K 	c #88A5CA",
"L 	c #476C9F",
"M 	c #1F4B87",
"N 	c #224C88",
"O 	c #2A528D",
"P 	c #2A538D",
"Q 	c #2A538E",
"R 	c #244D89",
"S 	c #244E8A",
"T 	c #29538D",
"U 	c #234E89",
"V 	c #214A87",
"W 	c #44699E",
"X 	c #87A3C8",
"Y 	c #829FC5",
"Z 	c #89A4C8",
"` 	c #829EC4",
" .	c #44699D",
"..	c #264F8D",
"+.	c #466B9F",
"@.	c #6E91BD",
"#.	c #426FA9",
"$.	c #6D8FBC",
"%.	c #5B7CAC",
"&.	c #2D558F",
"*.	c #4A78B2",
"=.	c #648CC2",
"-.	c #3B649F",
";.	c #7496C0",
">.	c #527CB1",
",.	c #5C7FAE",
"'.	c #386098",
").	c #3665A3",
"!.	c #406DA8",
"~.	c #3F6AA4",
"{.	c #28538F",
"].	c #466C9F",
"^.	c #86A3C7",
"/.	c #6C8FBB",
"(.	c #698DBB",
"_.	c #7193BF",
":.	c #5F84B3",
"<.	c #456BA1",
"[.	c #396199",
"}.	c #315B93",
"|.	c #29538E",
"1.	c #285491",
"2.	c #305C98",
"3.	c #2A5794",
"4.	c #42679C",
"5.	c #6F8DB8",
"6.	c #5174A5",
"7.	c #5F81AF",
"8.	c #6B8CB9",
"9.	c #6D90BD",
"0.	c #688CBA",
"a.	c #577DAF",
"b.	c #4972A7",
"c.	c #416AA1",
"d.	c #3B659E",
"e.	c #38639D",
"f.	c #35629E",
"g.	c #2E5C99",
"h.	c #25508E",
"i.	c #2E558F",
"j.	c #3D6195",
"k.	c #1D4276",
"l.	c #305283",
"m.	c #496B9C",
"n.	c #5276A6",
"o.	c #5A7FAF",
"p.	c #6185B6",
"q.	c #6086B7",
"r.	c #5880B4",
"s.	c #4F79AF",
"t.	c #416DA7",
"u.	c #315D9A",
"v.	c #254F8B",
"w.	c #204984",
"x.	c #27436C",
"y.	c #325588",
"z.	c #365D95",
"A.	c #365E97",
"B.	c #21487F",
"                                            ",
"                                            ",
"                                            ",
"            . + @ # $ $ %           &       ",
"          + * = - ; > , ' ) ! ~   { ]       ",
"        ^ / / ( _ : < [ } | 1 2 3 4 5       ",
"      6 7 8 9 0 a   b c d e f g h i j       ",
"      k l m n o         p q r s t u v       ",
"      . w x y             z A B C D E       ",
"      F                   G H I J K L       ",
"                        M N O P Q Q R       ",
"      S T P P T U V                         ",
"      W X Y Z `  .                  ..      ",
"      +.@.#.$.%.&.            *.=.-.7       ",
"      v ;.>.@.,.'.          ).!.~.{.k       ",
"      ].^./.(._.:.<.[.}.|.1.: 2.3.a         ",
"      4.5.6.7.8.9.0.a.b.c.d.e.f.g.h.        ",
"      i.j.k.l.m.n.o.p.q.r.s.t.u.v.          ",
"      w.        x.y.z.'.A.c |.B.            ",
"                                            ",
"                                            ",
"                                            "};
