/* XPM */
static char * save_xpm[] = {
"22 22 255 2",
"  	c None",
". 	c #898888",
"+ 	c #525859",
"@ 	c #353B3D",
"# 	c #424445",
"$ 	c #A0A0A0",
"% 	c #CFCFCF",
"& 	c #6D6F70",
"* 	c #818788",
"= 	c #6F7B7D",
"- 	c #505C5F",
"; 	c #414A4C",
"> 	c #939595",
", 	c #BEBCBC",
"' 	c #ADAEAE",
") 	c #949494",
"! 	c #515050",
"~ 	c #5A6162",
"{ 	c #849295",
"] 	c #A9BABD",
"^ 	c #83979B",
"/ 	c #465B61",
"( 	c #757B7D",
"_ 	c #918F8F",
": 	c #9D9A9A",
"< 	c #81807F",
"[ 	c #535655",
"} 	c #616768",
"| 	c #788182",
"1 	c #94A0A3",
"2 	c #AEBBBD",
"3 	c #C8D2D5",
"4 	c #E6ECED",
"5 	c #BACACE",
"6 	c #6A858B",
"7 	c #424E50",
"8 	c #303334",
"9 	c #797E7F",
"0 	c #7A8081",
"a 	c #6B7274",
"b 	c #727C7D",
"c 	c #94A0A2",
"d 	c #D1E0E2",
"e 	c #EBF5F7",
"f 	c #F5F9FA",
"g 	c #FFFFFF",
"h 	c #DFEAEC",
"i 	c #95AFB4",
"j 	c #394A4D",
"k 	c #1D2527",
"l 	c #B1B1B1",
"m 	c #838282",
"n 	c #444444",
"o 	c #516063",
"p 	c #73888C",
"q 	c #9FAFB4",
"r 	c #CAD5D7",
"s 	c #E8EFF0",
"t 	c #F4F7F8",
"u 	c #FBFCFD",
"v 	c #F0F6F7",
"w 	c #C3D4D7",
"x 	c #63777B",
"y 	c #4A575A",
"z 	c #767676",
"A 	c #595D5E",
"B 	c #656D70",
"C 	c #7D8C90",
"D 	c #9EADB0",
"E 	c #C0CCCE",
"F 	c #DFE6E7",
"G 	c #F3F7F8",
"H 	c #FDFFFF",
"I 	c #FEFFFF",
"J 	c #9FB6BA",
"K 	c #687C80",
"L 	c #555757",
"M 	c #8B8A8A",
"N 	c #272D2E",
"O 	c #536266",
"P 	c #A1BBC1",
"Q 	c #DBE8EA",
"R 	c #F2F7F7",
"S 	c #BCD6DC",
"T 	c #779398",
"U 	c #3B4345",
"V 	c #898A8A",
"W 	c #C2C1C1",
"X 	c #606161",
"Y 	c #677173",
"Z 	c #82979C",
"` 	c #D0DBDC",
" .	c #F5F9F9",
"..	c #D7E4E6",
"+.	c #A3C1C9",
"@.	c #6C8D95",
"#.	c #42565B",
"$.	c #767C7D",
"%.	c #A09E9D",
"&.	c #929291",
"*.	c #777D7E",
"=.	c #5C6D70",
"-.	c #E4EFF1",
";.	c #FCFDFD",
">.	c #F6F9FA",
",.	c #E2EBED",
"'.	c #C5D5D8",
").	c #AABFC3",
"!.	c #91AAAF",
"~.	c #77979E",
"{.	c #63848D",
"].	c #567279",
"^.	c #515D5F",
"/.	c #4F5050",
"(.	c #B3B2B2",
"_.	c #7C7F7F",
":.	c #404B4D",
"<.	c #80979C",
"[.	c #C3D7DB",
"}.	c #F2F6F6",
"|.	c #F9FAFA",
"1.	c #F1F4F6",
"2.	c #D5E0E3",
"3.	c #B0C5C9",
"4.	c #8BA7AD",
"5.	c #708E94",
"6.	c #5F7C82",
"7.	c #5A777E",
"8.	c #607F87",
"9.	c #66878F",
"0.	c #36484D",
"a.	c #171F21",
"b.	c #565555",
"c.	c #474949",
"d.	c #73878C",
"e.	c #ADC5CB",
"f.	c #E0E9EB",
"g.	c #D6E3E5",
"h.	c #B1C9CF",
"i.	c #88A3AA",
"j.	c #748D93",
"k.	c #95A7AB",
"l.	c #97A4A6",
"m.	c #838F92",
"n.	c #708A8F",
"o.	c #65868E",
"p.	c #618089",
"q.	c #486167",
"r.	c #465659",
"s.	c #737576",
"t.	c #494848",
"u.	c #526165",
"v.	c #768C91",
"w.	c #B1C8CD",
"x.	c #B3C9CE",
"y.	c #A8BEC3",
"z.	c #A0B7BD",
"A.	c #92A7AD",
"B.	c #94A3A7",
"C.	c #BCC3C6",
"D.	c #C3C6C7",
"E.	c #AEB2B2",
"F.	c #85979B",
"G.	c #6D8A90",
"H.	c #65878F",
"I.	c #49656A",
"J.	c #425154",
"K.	c #5D5F5F",
"L.	c #242B2C",
"M.	c #425356",
"N.	c #7C9FA7",
"O.	c #779DA5",
"P.	c #7F9DA3",
"Q.	c #B0BABD",
"R.	c #C3C8CA",
"S.	c #CED2D4",
"T.	c #E2E4E5",
"U.	c #E5E5E6",
"V.	c #D1D3D4",
"W.	c #96A0A2",
"X.	c #71868B",
"Y.	c #65868D",
"Z.	c #3F575C",
"`.	c #2F3A3C",
" +	c #464747",
".+	c #4F5252",
"++	c #5A6668",
"@+	c #718D94",
"#+	c #6F929A",
"$+	c #84A2A8",
"%+	c #C5CCCE",
"&+	c #A0AAAC",
"*+	c #7D8D90",
"=+	c #C1CCCE",
"-+	c #E2E6E7",
";+	c #DCDCDC",
">+	c #AAB0B2",
",+	c #6B777A",
"'+	c #344549",
")+	c #414A4D",
"!+	c #626566",
"~+	c #878788",
"{+	c #858685",
"]+	c #767D7E",
"^+	c #5A6E73",
"/+	c #64848B",
"(+	c #87A7AE",
"_+	c #BDCBCD",
":+	c #9FABAE",
"<+	c #A9B6B8",
"[+	c #BBC1C2",
"}+	c #B1B2B2",
"|+	c #909394",
"1+	c #626769",
"2+	c #1C2326",
"3+	c #414445",
"4+	c #7E7D7D",
"5+	c #AAAAAA",
"6+	c #AFAEAD",
"7+	c #888B8C",
"8+	c #3E4B4D",
"9+	c #527077",
"0+	c #789DA5",
"a+	c #93ACB1",
"b+	c #BAC5C8",
"c+	c #CBCDCE",
"d+	c #A2A6A7",
"e+	c #7F8384",
"f+	c #646869",
"g+	c #5A5B5C",
"h+	c #565656",
"i+	c #9C9C9D",
"j+	c #818586",
"k+	c #4F5E62",
"l+	c #30464C",
"m+	c #425458",
"n+	c #626A6C",
"o+	c #7B7B7B",
"p+	c #797A7B",
"q+	c #818283",
"r+	c #898A8B",
"s+	c #6D6D6D",
"t+	c #A7A6A6",
"u+	c #5F6362",
"v+	c #222928",
"w+	c #202829",
"x+	c #262B2C",
"y+	c #3B3C3C",
"z+	c #5F5F5F",
"A+	c #8A8A8A",
"B+	c #ADADAD",
"C+	c #84857D",
"D+	c #7B7C70",
"E+	c #535450",
"F+	c #454644",
"                                            ",
"                                            ",
"                        . + @ # $ %         ",
"                      & * = - ; > ,         ",
"                ' ) ! ~ { ] ^ / ( _         ",
"          : < [ } | 1 2 3 4 5 6 7 8         ",
"          9 0 a b c d e f g h i j k         ",
"    l m n o p q r s t u g g v w x y z       ",
"    A B C D E F G H I g g g H s J K L M     ",
"    N O P Q H g g g g g g g g R S T U V W   ",
"    X Y Z ` H g g g g g g g  ...+.@.#.$.%.  ",
"    &.*.=.] -.;.g g g >.,.'.).!.~.{.].^./.  ",
"    (._.:.<.[.}.;.|.1.2.3.4.5.6.7.8.9.0.a.  ",
"      b.c.d.e.f.s g.h.i.j.k.l.m.n.o.p.q.r.s.",
"        t.u.v.w.x.y.z.A.B.C.D.E.F.G.H.I.J.K.",
"          L.M.N.O.P.Q.R.S.T.U.V.W.X.Y.Z.`. +",
"          .+++@+#+$+%+&+*+=+-+;+>+,+'+)+!+~+",
"          {+]+^+/+(+_+:+*+<+[+}+|+1+2+3+4+5+",
"          6+7+8+9+0+a+b+c+d+e+f+g+h+        ",
"            i+j+k+l+m+n+o+p+q+r+s+          ",
"              t+u+v+w+x+y+z+A+B+            ",
"              o+C+D+E+F+                    "};
