/* XPM */
static char * save_as_xpm[] = {
"22 22 304 2",
"  	c None",
". 	c #A9AAAD",
"+ 	c #ABACAE",
"@ 	c #ADADAF",
"# 	c #A1A09C",
"$ 	c #9E9D9A",
"% 	c #9C9B99",
"& 	c #C3C2C2",
"* 	c #9F9D9D",
"= 	c #B6B9C1",
"- 	c #9C9990",
"; 	c #7A6F4C",
"> 	c #5C5337",
", 	c #4B4530",
"' 	c #878A8A",
") 	c #898E8F",
"! 	c #6E7576",
"~ 	c #575E61",
"{ 	c #8E8C84",
"] 	c #8F886F",
"^ 	c #736430",
"/ 	c #574E2D",
"( 	c #494434",
"_ 	c #797979",
": 	c #626869",
"< 	c #415052",
"[ 	c #2B4145",
"} 	c #313F43",
"| 	c #4A4947",
"1 	c #6A6145",
"2 	c #7C6F41",
"3 	c #7E6F3E",
"4 	c #756F58",
"5 	c #6E6E6B",
"6 	c #D2D2D2",
"7 	c #BCBBBB",
"8 	c #949292",
"9 	c #4A4D4D",
"0 	c #3D4647",
"a 	c #7F8A8C",
"b 	c #9EABAD",
"c 	c #A1B3B6",
"d 	c #6D8A94",
"e 	c #5A6A64",
"f 	c #625939",
"g 	c #746533",
"h 	c #7D7047",
"i 	c #797466",
"j 	c #77756D",
"k 	c #9F9F9F",
"l 	c #9B9D9D",
"m 	c #868B8C",
"n 	c #697172",
"o 	c #6C7779",
"p 	c #A5B4B7",
"q 	c #CFDCE0",
"r 	c #D2DEE1",
"s 	c #91A3A2",
"t 	c #767B62",
"u 	c #786835",
"v 	c #7C6D3F",
"w 	c #7C7358",
"x 	c #75777A",
"y 	c #757575",
"z 	c #616363",
"A 	c #5E6667",
"B 	c #728487",
"C 	c #A7B9BD",
"D 	c #D3E2E5",
"E 	c #E3ECED",
"F 	c #D9DDE1",
"G 	c #BAB9B8",
"H 	c #867E62",
"I 	c #776A3C",
"J 	c #7F6F3D",
"K 	c #746F5B",
"L 	c #6F6F6B",
"M 	c #B9B9B9",
"N 	c #A4A5A5",
"O 	c #3B4143",
"P 	c #465356",
"Q 	c #748488",
"R 	c #8E9CA0",
"S 	c #A2ADB0",
"T 	c #B0B9BB",
"U 	c #DDE5E6",
"V 	c #F4FAFC",
"W 	c #DEE3E7",
"X 	c #B1AFA5",
"Y 	c #887D5F",
"Z 	c #817040",
"` 	c #6D623A",
" .	c #525241",
"..	c #3A3E3B",
"+.	c #2B3033",
"@.	c #9A9999",
"#.	c #8C8E8E",
"$.	c #4C575A",
"%.	c #52676C",
"&.	c #8CA7AD",
"*.	c #C5D7DB",
"=.	c #DFE7E9",
"-.	c #DCDDDC",
";.	c #F0EEEF",
">.	c #EBEAEA",
",.	c #BDBBB6",
"'.	c #8B8265",
").	c #6B5B28",
"!.	c #7B6B3B",
"~.	c #74715A",
"{.	c #57656D",
"].	c #222F35",
"^.	c #121D20",
"/.	c #4E4C4B",
"(.	c #535657",
"_.	c #6E898E",
":.	c #99B7BC",
"<.	c #C7D8DB",
"[.	c #DEE2E3",
"}.	c #DFDCDB",
"|.	c #D0CDCB",
"1.	c #D1D0D4",
"2.	c #BEBDB9",
"3.	c #8A8162",
"4.	c #7C6D3C",
"5.	c #7C6C3B",
"6.	c #776F5B",
"7.	c #989E9D",
"8.	c #B3C9CE",
"9.	c #516A70",
"0.	c #3A4B4F",
"a.	c #777878",
"b.	c #3E4243",
"c.	c #4C6165",
"d.	c #80989C",
"e.	c #C8DCDF",
"f.	c #E0E3E3",
"g.	c #E1DCDB",
"h.	c #D0CCCB",
"i.	c #AEA798",
"j.	c #857D62",
"k.	c #605538",
"l.	c #645B3D",
"m.	c #7D7962",
"n.	c #9DA39F",
"o.	c #A2B8BE",
"p.	c #8EB5BC",
"q.	c #5D8B94",
"r.	c #49686E",
"s.	c #585A5A",
"t.	c #8B8888",
"u.	c #232A2C",
"v.	c #566669",
"w.	c #AAC3C8",
"x.	c #D7DFE0",
"y.	c #E4E1E0",
"z.	c #CFCAC9",
"A.	c #978C70",
"B.	c #675B35",
"C.	c #545243",
"D.	c #5B615F",
"E.	c #768589",
"F.	c #AAC0C3",
"G.	c #8CAFB6",
"H.	c #4A7D88",
"I.	c #58939E",
"J.	c #4F7A82",
"K.	c #343C3D",
"L.	c #8A8A8A",
"M.	c #C5C5C4",
"N.	c #5D6C6F",
"O.	c #7C9AA0",
"P.	c #D4DFE1",
"Q.	c #ECE9E7",
"R.	c #BFB7B3",
"S.	c #A69E96",
"T.	c #95958F",
"U.	c #8C9FA0",
"V.	c #7B9BA1",
"W.	c #668C94",
"X.	c #507076",
"Y.	c #42666E",
"Z.	c #3F6B75",
"`.	c #4B7C85",
" +	c #446E76",
".+	c #324C51",
"++	c #788081",
"@+	c #A9A6A6",
"#+	c #898989",
"$+	c #526B70",
"%+	c #AABFC4",
"&+	c #D4E0E2",
"*+	c #BEC1C0",
"=+	c #9BA9AD",
"-+	c #849DA5",
";+	c #89A7AE",
">+	c #91B0B6",
",+	c #93AEB3",
"'+	c #809599",
")+	c #637A7F",
"!+	c #46676E",
"~+	c #456F78",
"{+	c #426D76",
"]+	c #3B6067",
"^+	c #4E5C5F",
"/+	c #5B5B5B",
"(+	c #B1B0AF",
"_+	c #797D7E",
":+	c #354548",
"<+	c #71939A",
"[+	c #A6CBD2",
"}+	c #B9D2D6",
"|+	c #86ADB4",
"1+	c #608D96",
"2+	c #6E8A90",
"3+	c #A1AEB1",
"4+	c #D8DADA",
"5+	c #F3F1F0",
"6+	c #BAC0C1",
"7+	c #5E7276",
"8+	c #4B727A",
"9+	c #46737D",
"0+	c #41676F",
"a+	c #1D2D31",
"b+	c #040808",
"c+	c #5E5D5D",
"d+	c #424647",
"e+	c #688990",
"f+	c #7FB3BE",
"g+	c #7EAFB9",
"h+	c #91B2B8",
"i+	c #9AACB0",
"j+	c #8F9DA1",
"k+	c #BAC1C3",
"l+	c #EAEAEA",
"m+	c #F4F2F1",
"n+	c #D1D3D3",
"o+	c #98A4A6",
"p+	c #71989F",
"q+	c #49747D",
"r+	c #21383C",
"s+	c #081013",
"t+	c #000001",
"u+	c #494949",
"v+	c #516B71",
"w+	c #57858F",
"x+	c #619CA8",
"y+	c #8EADB4",
"z+	c #A8B0B2",
"A+	c #99A0A2",
"B+	c #B4BEC0",
"C+	c #D7E2E4",
"D+	c #E5E8E9",
"E+	c #CCCDCD",
"F+	c #9AA0A1",
"G+	c #6B868B",
"H+	c #49646A",
"I+	c #353D3F",
"J+	c #15191A",
"K+	c #000000",
"L+	c #1F292C",
"M+	c #364F54",
"N+	c #659AA4",
"O+	c #769FA7",
"P+	c #81969B",
"Q+	c #8C9394",
"R+	c #96A7AA",
"S+	c #A6C2C7",
"T+	c #CDD6D7",
"U+	c #AEB0B0",
"V+	c #6A6D6E",
"W+	c #44494A",
"X+	c #4B4F50",
"Y+	c #727373",
"Z+	c #4C4E4F",
"`+	c #465457",
" @	c #3F666D",
".@	c #56858E",
"+@	c #7EA3AA",
"@@	c #AFB9BB",
"#@	c #A1ADB0",
"$@	c #7E9194",
"%@	c #6A7172",
"&@	c #717373",
"*@	c #868787",
"=@	c #8E8D8E",
"-@	c #8E8D8D",
";@	c #717272",
">@	c #5A6264",
",@	c #384E52",
"'@	c #486C73",
")@	c #6F9299",
"!@	c #A6B0B2",
"~@	c #989D9E",
"{@	c #6B7273",
"]@	c #2E3333",
"^@	c #4B4D4D",
"/@	c #C0C0C0",
"(@	c #D0D0D0",
"_@	c #707273",
":@	c #585C5D",
"<@	c #484C4D",
"[@	c #4F5151",
"}@	c #666767",
"                                    . + @   ",
"                                    # $ %   ",
"                        & *     = - ; > ,   ",
"                      ' ) ! ~   { ] ^ / (   ",
"                    _ : < [ } | 1 2 3 4 5   ",
"          6 7 8 9 0 a b c d e f g h i j     ",
"          k l m n o p q r s t u v w x       ",
"        y z A B C D E F G H I J K L         ",
"M N O P Q R S T U V W X Y Z `  ...+.        ",
"@.#.$.%.&.*.=.-.;.>.,.'.).!.~.{.].^.        ",
"/.(._.:.<.[.}.|.1.2.3.4.5.6.7.8.9.0.a.      ",
"  b.c.d.e.f.g.h.i.j.k.l.m.n.o.p.q.r.s.t.    ",
"    u.v.w.x.y.z.A.B.C.D.E.F.G.H.I.J.K.L.M.  ",
"    (.N.O.P.Q.R.S.T.U.V.W.X.Y.Z.`. +.+++@+  ",
"    #+o $+%+&+*+=+-+;+>+,+'+)+!+~+{+]+^+/+  ",
"    (+_+:+<+[+}+|+1+2+3+4+5+6+7+8+9+0+a+b+  ",
"      c+d+e+f+g+h+i+j+k+l+m+n+o+p+q+r+s+t+  ",
"        u+v+w+x+y+z+A+B+C+D+E+F+G+H+I+J+K+  ",
"          L+M+N+O+P+Q+R+S+T+U+V+W+X+Y+      ",
"          Z+`+ @.@+@@@#@$@%@&@*@=@-@        ",
"          ;@>@,@'@)@!@~@{@]@^@k /@(@        ",
"              _@:@<@[@}@a.                  "};
