/* XPM */
const char * usbpicprog_xpm[] = {
"48 48 542 2",
"  	c None",
". 	c #999999",
"+ 	c #9A9A9A",
"@ 	c #959595",
"# 	c #989898",
"$ 	c #979797",
"% 	c #606060",
"& 	c #A0A0A0",
"* 	c #9B9B9B",
"= 	c #787878",
"- 	c #828282",
"; 	c #AEAEAE",
"> 	c #777777",
", 	c #6E6E6E",
"' 	c #9E9E9E",
") 	c #A9A9A9",
"! 	c #9D9D9D",
"~ 	c #9A9999",
"{ 	c #BDBDBD",
"] 	c #B5B5B5",
"^ 	c #ACACAC",
"/ 	c #A8ADB1",
"( 	c #152B40",
"_ 	c #BCBCBC",
": 	c #8E8E8E",
"< 	c #163858",
"[ 	c #274664",
"} 	c #265076",
"| 	c #0E0000",
"1 	c #260000",
"2 	c #230000",
"3 	c #949494",
"4 	c #BFBFBF",
"5 	c #A8A8A8",
"6 	c #9F9F9F",
"7 	c #102D4A",
"8 	c #1E3F5D",
"9 	c #23496C",
"0 	c #264F76",
"a 	c #020605",
"b 	c #210909",
"c 	c #030000",
"d 	c #1A0000",
"e 	c #240000",
"f 	c #250000",
"g 	c #829379",
"h 	c #9C9D91",
"i 	c #86867C",
"j 	c #D4D4D4",
"k 	c #F2F2F2",
"l 	c #E1E1E1",
"m 	c #BABABA",
"n 	c #C0C0C0",
"o 	c #B2B2B2",
"p 	c #858381",
"q 	c #214261",
"r 	c #204262",
"s 	c #264F75",
"t 	c #2C0000",
"u 	c #422626",
"v 	c #1F1C1C",
"w 	c #5B5E5E",
"x 	c #0B0404",
"y 	c #180000",
"z 	c #98988D",
"A 	c #97978C",
"B 	c #9C9C91",
"C 	c #BABAB8",
"D 	c #F0F0F0",
"E 	c #EFEFEF",
"F 	c #EEEEEE",
"G 	c #F4F4F4",
"H 	c #D1D1D1",
"I 	c #BBBBBB",
"J 	c #B4B4B4",
"K 	c #C1C1C1",
"L 	c #2F3030",
"M 	c #486178",
"N 	c #1E3F5E",
"O 	c #254F75",
"P 	c #275076",
"Q 	c #6A6B60",
"R 	c #4B4040",
"S 	c #2D0000",
"T 	c #371E18",
"U 	c #0E0201",
"V 	c #180707",
"W 	c #70756D",
"X 	c #95958A",
"Y 	c #99998E",
"Z 	c #BEBEB8",
"` 	c #F5F5F5",
" .	c #BEBEBE",
"..	c #616161",
"+.	c #888888",
"@.	c #B4B6B7",
"#.	c #20405E",
"$.	c #233A59",
"%.	c #320000",
"&.	c #3C1616",
"*.	c #B6BEA2",
"=.	c #391414",
"-.	c #3B1A1A",
";.	c #5E504B",
">.	c #F4F4E2",
",.	c #CCCCBE",
"'.	c #929288",
").	c #AFAFA7",
"!.	c #EDEDED",
"~.	c #939393",
"{.	c #A1A1A1",
"].	c #CDCDCD",
"^.	c #204263",
"/.	c #BCBBBB",
"(.	c #274F75",
"_.	c #435E77",
":.	c #265075",
"<.	c #1F4B76",
"[.	c #340607",
"}.	c #474343",
"|.	c #4C4D4D",
"1.	c #3C0B08",
"2.	c #756661",
"3.	c #605050",
"4.	c #340404",
"5.	c #51322E",
"6.	c #F1F1DF",
"7.	c #EFEFDD",
"8.	c #EDEDDD",
"9.	c #E6E6E3",
"0.	c #F8F8F3",
"a.	c #F3F3F3",
"b.	c #DCDCDC",
"c.	c #29455E",
"d.	c #15395B",
"e.	c #A5AAAE",
"f.	c #2B5378",
"g.	c #6E7D8C",
"h.	c #17446D",
"i.	c #381313",
"j.	c #5C3F3F",
"k.	c #4A2929",
"l.	c #3B0E0E",
"m.	c #7C8267",
"n.	c #310000",
"o.	c #47241C",
"p.	c #573E3C",
"q.	c #EEEEDC",
"r.	c #F0F0DE",
"s.	c #F0F0DF",
"t.	c #FEFEFF",
"u.	c #F6F6F2",
"v.	c #E0E0E0",
"w.	c #F1F1F1",
"x.	c #1F3F5D",
"y.	c #204161",
"z.	c #7B8A9A",
"A.	c #939CA5",
"B.	c #555759",
"C.	c #020000",
"D.	c #463D3D",
"E.	c #000000",
"F.	c #B5B7B7",
"G.	c #0C0201",
"H.	c #2A2B2B",
"I.	c #4C4F4F",
"J.	c #574D4C",
"K.	c #583A35",
"L.	c #EBEBDA",
"M.	c #EFEFDE",
"N.	c #FEFEFE",
"O.	c #FAFAF4",
"P.	c #F0F0EF",
"Q.	c #B9B9B9",
"R.	c #F6F6F6",
"S.	c #23486C",
"T.	c #326799",
"U.	c #516F8B",
"V.	c #254F76",
"W.	c #B7B4B4",
"X.	c #797575",
"Y.	c #171818",
"Z.	c #111111",
"`.	c #8B8D8D",
" +	c #0C0000",
".+	c #330606",
"++	c #4D4747",
"@+	c #505151",
"#+	c #6F6F69",
"$+	c #EEEEDD",
"%+	c #FDFDFC",
"&+	c #FBFBF5",
"*+	c #AFAFAF",
"=+	c #919191",
"-+	c #FFFFFF",
";+	c #316596",
">+	c #264D73",
",+	c #33597C",
"'+	c #1A4872",
")+	c #BDBDBE",
"!+	c #5C5F5F",
"~+	c #292A2A",
"{+	c #707070",
"]+	c #1E2421",
"^+	c #A29170",
"/+	c #513D3E",
"(+	c #423233",
"_+	c #CBC7B8",
":+	c #DCDBCB",
"<+	c #F1F0DE",
"[+	c #EEEEDB",
"}+	c #FDFDFA",
"|+	c #FEFEF9",
"1+	c #C2C2C2",
"2+	c #220508",
"3+	c #326595",
"4+	c #264E74",
"5+	c #224A70",
"6+	c #B2B3B3",
"7+	c #130202",
"8+	c #5F5E5E",
"9+	c #170000",
"0+	c #434343",
"a+	c #080000",
"b+	c #261112",
"c+	c #BAB792",
"d+	c #544C4C",
"e+	c #020202",
"f+	c #8B9293",
"g+	c #8B8D83",
"h+	c #E4E4D2",
"i+	c #DDDDD6",
"j+	c #C0C1BB",
"k+	c #220000",
"l+	c #1E0D0B",
"m+	c #316595",
"n+	c #61585E",
"o+	c #0B0000",
"p+	c #EAECEC",
"q+	c #270202",
"r+	c #878686",
"s+	c #391212",
"t+	c #280000",
"u+	c #160000",
"v+	c #230A0A",
"w+	c #0C1212",
"x+	c #6A4B4B",
"y+	c #110202",
"z+	c #1C0000",
"A+	c #43201F",
"B+	c #BEBB8D",
"C+	c #214320",
"D+	c #270000",
"E+	c #240303",
"F+	c #2B0000",
"G+	c #3E6B62",
"H+	c #053F36",
"I+	c #1E3D5B",
"J+	c #566C7F",
"K+	c #BEBBBB",
"L+	c #300000",
"M+	c #251415",
"N+	c #696E6E",
"O+	c #3A0F09",
"P+	c #615252",
"Q+	c #2E1717",
"R+	c #0A0000",
"S+	c #090000",
"T+	c #0A1C00",
"U+	c #6C666F",
"V+	c #2B1817",
"W+	c #070000",
"X+	c #320202",
"Y+	c #F8F8F8",
"Z+	c #868687",
"`+	c #010000",
" @	c #080007",
".@	c #306839",
"+@	c #1E3F5B",
"@@	c #1E405F",
"#@	c #39546E",
"$@	c #183B5A",
"%@	c #BEBDBC",
"&@	c #100D0E",
"*@	c #616464",
"=@	c #3D1012",
"-@	c #5F3D3D",
";@	c #624E4E",
">@	c #7B7777",
",@	c #4E4C3A",
"'@	c #014000",
")@	c #046403",
"!@	c #080500",
"~@	c #130000",
"{@	c #FDFDFD",
"]@	c #8D8D8D",
"^@	c #D7D7D7",
"/@	c #B8B8B8",
"(@	c #828383",
"_@	c #011A1A",
":@	c #006400",
"<@	c #321115",
"[@	c #326697",
"}@	c #254D71",
"|@	c #1F405F",
"1@	c #AEB0B1",
"2@	c #20405F",
"3@	c #74818E",
"4@	c #130A0F",
"5@	c #265D23",
"6@	c #2F4330",
"7@	c #290000",
"8@	c #080707",
"9@	c #333736",
"0@	c #24262A",
"a@	c #033004",
"b@	c #1A0D02",
"c@	c #F7F7F7",
"d@	c #8B8B8B",
"e@	c #210000",
"f@	c #3F0F0F",
"g@	c #035B00",
"h@	c #55595A",
"i@	c #316594",
"j@	c #306494",
"k@	c #326798",
"l@	c #1D3D5B",
"m@	c #939CA3",
"n@	c #183A5A",
"o@	c #25425C",
"p@	c #302D3A",
"q@	c #264A2A",
"r@	c #1F2102",
"s@	c #3C2729",
"t@	c #573939",
"u@	c #451A1A",
"v@	c #726D6D",
"w@	c #064D00",
"x@	c #F4F6F6",
"y@	c #250B0B",
"z@	c #1F0000",
"A@	c #3A4438",
"B@	c #120000",
"C@	c #306291",
"D@	c #326696",
"E@	c #326797",
"F@	c #28527A",
"G@	c #214361",
"H@	c #1B3D5C",
"I@	c #355169",
"J@	c #245076",
"K@	c #373232",
"L@	c #39393B",
"M@	c #292D17",
"N@	c #015E00",
"O@	c #193908",
"P@	c #310103",
"Q@	c #593636",
"R@	c #AAACAB",
"S@	c #046F04",
"T@	c #F7F8F7",
"U@	c #1E0000",
"V@	c #2F0000",
"W@	c #707171",
"X@	c #316493",
"Y@	c #2B5B86",
"Z@	c #29557E",
"`@	c #1F3F5F",
" #	c #255179",
".#	c #351F1E",
"+#	c #383C3C",
"@#	c #2F2D2D",
"##	c #204A22",
"$#	c #30281F",
"%#	c #005E00",
"&#	c #3B373C",
"*#	c #1E2902",
"=#	c #F5F6F6",
"-#	c #000606",
";#	c #8C8F8F",
">#	c #3A3939",
",#	c #404B53",
"'#	c #2F6699",
")#	c #2B5984",
"!#	c #2B5881",
"~#	c #284F79",
"{#	c #1E2C01",
"]#	c #393B3B",
"^#	c #312424",
"/#	c #371415",
"(#	c #383B3B",
"_#	c #6E6B6E",
":#	c #403440",
"<#	c #085A08",
"[#	c #393F3E",
"}#	c #F8F9F9",
"|#	c #B7B7B7",
"1#	c #002626",
"2#	c #2A0000",
"3#	c #060000",
"4#	c #767676",
"5#	c #0B141F",
"6#	c #2F6698",
"7#	c #2C5B87",
"8#	c #340301",
"9#	c #2E0606",
"0#	c #2F2020",
"a#	c #423D3D",
"b#	c #383232",
"c#	c #5B5D5C",
"d#	c #341616",
"e#	c #F0EFEF",
"f#	c #C7C7C7",
"g#	c #002B2B",
"h#	c #0F0000",
"i#	c #593B3B",
"j#	c #848685",
"k#	c #1C1722",
"l#	c #316799",
"m#	c #2F618F",
"n#	c #2E608D",
"o#	c #234D74",
"p#	c #494846",
"q#	c #5D6464",
"r#	c #362D2D",
"s#	c #4E3838",
"t#	c #341C1C",
"u#	c #411E1E",
"v#	c #454141",
"w#	c #363636",
"x#	c #373737",
"y#	c #DBDCDC",
"z#	c #CCCCCC",
"A#	c #002C2C",
"B#	c #262727",
"C#	c #4C2B2B",
"D#	c #493434",
"E#	c #2E3F4F",
"F#	c #336CA0",
"G#	c #1E303D",
"H#	c #5E3B3B",
"I#	c #310101",
"J#	c #605E5E",
"K#	c #504647",
"L#	c #330909",
"M#	c #310909",
"N#	c #3F4242",
"O#	c #343535",
"P#	c #373131",
"Q#	c #BBAEAE",
"R#	c #D3D3D3",
"S#	c #002929",
"T#	c #978A8A",
"U#	c #1B0000",
"V#	c #2C0505",
"W#	c #372D2D",
"X#	c #667B8F",
"Y#	c #250E0E",
"Z#	c #141A1A",
"`#	c #777676",
" $	c #005600",
".$	c #566055",
"+$	c #575556",
"@$	c #36100F",
"#$	c #363535",
"$$	c #352525",
"%$	c #7D7D7D",
"&$	c #D5D5D5",
"*$	c #002222",
"=$	c #360000",
"-$	c #484242",
";$	c #433E3E",
">$	c #1D0000",
",$	c #350707",
"'$	c #6D706F",
")$	c #0B4D0C",
"!$	c #006300",
"~$	c #546054",
"{$	c #380C0E",
"]$	c #403F3F",
"^$	c #494949",
"/$	c #585C5C",
"($	c #FFF9FF",
"_$	c #DFDFDF",
":$	c #9C9C9C",
"<$	c #001717",
"[$	c #616767",
"}$	c #41281F",
"|$	c #515151",
"1$	c #094E09",
"2$	c #016402",
"3$	c #2F5130",
"4$	c #150000",
"5$	c #7C7D7C",
"6$	c #FDFCFD",
"7$	c #DEDEDE",
"8$	c #002121",
"9$	c #000B0B",
"0$	c #261010",
"a$	c #443030",
"b$	c #1B1514",
"c$	c #100903",
"d$	c #050000",
"e$	c #006000",
"f$	c #494C49",
"g$	c #025202",
"h$	c #315635",
"i$	c #E6E6E6",
"j$	c #002A2A",
"k$	c #000505",
"l$	c #131313",
"m$	c #0D0000",
"n$	c #340000",
"o$	c #110000",
"p$	c #390000",
"q$	c #162B00",
"r$	c #015F01",
"s$	c #427344",
"t$	c #350100",
"u$	c #292929",
"v$	c #F5F3F3",
"w$	c #360C0C",
"x$	c #878787",
"y$	c #7D7F7F",
"z$	c #EAEAEA",
"A$	c #E9E9E9",
"B$	c #002727",
"C$	c #040000",
"D$	c #350000",
"E$	c #828181",
"F$	c #4B2E2E",
"G$	c #001010",
"H$	c #E8E8E8",
"I$	c #001F1F",
"J$	c #001414",
"K$	c #001919",
"L$	c #000909",
"M$	c #000202",
"N$	c #001C1C",
"O$	c #002525",
"P$	c #002323",
"Q$	c #001212",
"                                                                                                ",
"                                                                                                ",
"                                                                    . + @                       ",
"                                                                  @ # # # $ . $ %               ",
"                        &                                         # . . . # $ # # # * =         ",
"                        @                                       $ # . . # # # # . # # # $ * -   ",
"                                                              * # # . . # . # $ . . # # . # . ; ",
"                      >                                     , # # # . . # # # $ # # # # . # ' ) ",
"                      !     ~                               $ # # # . . # # # $ # # # # # $ { ] ",
"                      ^     / (                           * # # # # . . # # # $ # . # # # ; _ ] ",
"                :     )   < [ } | 1 2                   ! 3 # # # # . . # # # $ # # # # @ _ { 4 ",
"                5     6 7 8 9 0 a b c d e f   g h i     j k l ' 3 # . . # # # $ # . # # m _ _ n ",
"                o     p q r s s t u v w x y   z z z A B C D E F G H # $ # . # $ # # # $ I J _ K ",
"                5   L M N O P s Q R S T U V W X z z z Y Z D D E E F E ` K 3 $ # # # .  .I > ..n ",
"                +.  @.#.0 0 0 $.%.&.*.S =.-.;.>.,.'.A z ).D D E E E D D F D !.) ~.# {._ ].!.G n ",
"                  ^./.(._.:.<.[.}.|.1.2.3.4.5.6.7.7.8.9.0.E D E E E D D E D E F a.b._ I D D E n ",
"                c.d.e.f.g.h.i.j.k.l.m.1 n.o.p.q.7.r.s.t.u.E D E E E D D E D E F D E I _ v.w.D 4 ",
"                x.y.z.f.A.B.C.D.E.F.G.H.I.J.K.L.7.7.M.N.O.P.D E E E D D E E E F E E m Q.+ R.D 4 ",
"              S.T.s U.V.W.X.C.Y.Z.`. +.+++@+#+$+r.r.q.%+&+P.D E E E D D E D E F D E m *+=+-+D _ ",
"                ;+>+,+'+)+!+~+E.E.{+]+^+/+n.(+_+:+<+[+}+|+D D E E E D D E D E F D F Q.* -+1+E _ ",
"              2+3+4+5+c 6+7+8+9+E.0+E.a+b+c+d+e+f+g+h+i+j+E D E E E D D E D E F E F Q.1+-+I D I ",
"            k+l+m+s n+o+p+q+r+E.E.s+E.t+| u+v+w+x+y+z+A+B+E D E E E D D E E E F E F I G @ I E Q.",
"        C+D+E+E.F+G+H+I+J+o+K+L+M+N+O+P+Q+R+S+T+U+V+W+X+e a.D E E E D D E D E F D E _ Y+# m E Q.",
"        Z+`+1 9+ @.@+@@@#@$@%@&@*@E.9+=@-@;@>@,@'@)@!@E.~@R.D E E E D D E E E F E E _ {@]@^@E /@",
"        (@_@1 E.:@<@[@}@8 |@1@2@3@4@5@:@6@7@| 8@9@0@a@:@b@c@D E E E D D E E E F E E { N.d@E D /@",
"      e@f@E.E.g@E.h@i@j@k@P l@|@m@n@o@p@q@:@r@s@t@u@v@d w@x@D E E E D D E E E F E E { N.+./@a.n ",
"      y@S E.z@A@E.B@C@m+D@j@E@F@G@H@I@J@K@L@M@N@O@P@Q@R@S@T@D E E E D D E E E F E E  .3 # . #  .",
"      t+U@V@E.W@k+e X@m+3+D@D@i@Y@Z@`@ #.#+#@###$#%#&#*#D+=#D E E E D D E E E F E E  .$ # . * _ ",
"    -#C.S E.7@;#E.>#,#'#m+D@D@m+)#j@!#~#{#]#^#/#(#_#:#<#[#}#D E E E D D E E E F E D 1+# # # { |#",
"  1#E.E.E.a+t+E.2#i.3#4#5#6#m+m+7#m+7#P 8#9#0#a#b#c#%#%.d#e#D E E E D D E E E F E D f## # + _   ",
"    g#-#E.E.E.h#k+E.B@i#R+j#k#l#m#m+n#o#p#q#r#s#t#u#v#w#x#y#D E E E D D E E E F E D z## .  .I   ",
"        A#E.E.E.E.a+E.B#E.C#o+D#E#F#i@G#H#I#J#K#L#M#N#O#P#Q#D E E E D D E D E F E D R## . I     ",
"            S#E.E.E.E.E.o+T#U#V#W#D+X#Y#a+Z#`# $.$+$@$#$$$%$-+E E E D D E D E F D D &$+  .{     ",
"                *$E.E.E.E.d =$-$2#d ;$%.>$,$k+'$)$!$~${$]$^$E./$($E D D E E E F E E _$:$I       ",
"                    <$E.E.E.E.k+V@W+%.V@E.[$}$|$E.~@1$2$3$E.f 4$ $5$6$E E D E F D D 7$_ n       ",
"                      8$9$E.E.E.E.0$4.E.t 2 =$a$`+t+b$c$1 d$F+S e$f$g$h$-+E E E D E i$I         ",
"                          j$k$E.l$E.E.F+F+E.E.E.E.E.E.m$n$o$4$p$q$r$s$t$e+u$v$e#E D i$1+        ",
"                              A#E.E.E.E.E.L+D+E.c V@2#E.w$F+C.E.t x$y$n$E.E.    z$D A$          ",
"                                  B$E.E.E.E.C$D$B@E.E.E.E.E.E.E.L+E$F$F+E.G$        H$          ",
"                                      I$E.E.E.E.E.E.E.E.E.E.E.E.R+n.U@E.E.                      ",
"                                          J$E.E.E.E.E.E.E.E.E.E.E.E.E.E.K$                      ",
"                                            B$L$E.E.E.E.E.E.E.E.E.E.E.E.                        ",
"                                                A#M$E.E.E.E.E.E.E.E.E.N$                        ",
"                                                    j$E.E.E.E.E.E.E.E.                          ",
"                                                        O$E.E.E.E.E.*$                          ",
"                                                            N$E.E.E.                            ",
"                                                              P$Q$B$                            ",
"                                                                                                "};
