/* XPM */
const char * usbpicprog_xpm[] = {
"48 48 613 2",
"  	c None",
". 	c #898989",
"+ 	c #969696",
"@ 	c #999999",
"# 	c #989898",
"$ 	c #8E8E8E",
"% 	c #777777",
"& 	c #8C8C8C",
"* 	c #929292",
"= 	c #7E7E7E",
"- 	c #7B7B7B",
"; 	c #959595",
"> 	c #838383",
", 	c #9E9E9E",
"' 	c #909090",
") 	c #9A9A9A",
"! 	c #B4B4B4",
"~ 	c #828282",
"{ 	c #A7A7A7",
"] 	c #BDBDBD",
"^ 	c #9B9B9B",
"/ 	c #B9B9B9",
"( 	c #60686F",
"_ 	c #435C73",
": 	c #244565",
"< 	c #201F2E",
"[ 	c #210000",
"} 	c #949494",
"| 	c #ACACAC",
"1 	c #5A6C7C",
"2 	c #204261",
"3 	c #264D72",
"4 	c #1C2536",
"5 	c #140404",
"6 	c #160000",
"7 	c #1E0000",
"8 	c #245C22",
"9 	c #63755C",
"0 	c #DDDDDD",
"a 	c #BFBFBF",
"b 	c #A3A3A3",
"c 	c #BCBCBC",
"d 	c #40566B",
"e 	c #34516C",
"f 	c #254B6E",
"g 	c #275076",
"h 	c #1A283B",
"i 	c #290505",
"j 	c #221919",
"k 	c #361B1B",
"l 	c #280F0F",
"m 	c #1D0000",
"n 	c #909086",
"o 	c #99998E",
"p 	c #95958B",
"q 	c #828278",
"r 	c #888883",
"s 	c #F0F0F0",
"t 	c #ECECEC",
"u 	c #D6D6D6",
"v 	c #B7B7B7",
"w 	c #B1B1B1",
"x 	c #A6A6A6",
"y 	c #2B4156",
"z 	c #4A6278",
"A 	c #23486A",
"B 	c #323B50",
"C 	c #422626",
"D 	c #453838",
"E 	c #390D0C",
"F 	c #361B18",
"G 	c #160909",
"H 	c #362B28",
"I 	c #A7A79D",
"J 	c #E7E7E7",
"K 	c #CDCDCD",
"L 	c #AEAEAE",
"M 	c #A2A2A2",
"N 	c #A8A8A8",
"O 	c #747474",
"P 	c #787B7E",
"Q 	c #234360",
"R 	c #254768",
"S 	c #274F74",
"T 	c #26232D",
"U 	c #4F3333",
"V 	c #63514E",
"W 	c #4D241C",
"X 	c #391212",
"Y 	c #331212",
"Z 	c #2B1917",
"` 	c #C9C9BA",
" .	c #B4B4A6",
"..	c #9B9B90",
"+.	c #A2A298",
"@.	c #EFEFEF",
"#.	c #E3E3E3",
"$.	c #C5C5C5",
"%.	c #B6B6B6",
"&.	c #BEBEBE",
"*.	c #C9C9C9",
"=.	c #BABABA",
"-.	c #59626B",
";.	c #677888",
">.	c #2C4B68",
",.	c #536C83",
"'.	c #2D5376",
").	c #3E4A5D",
"!.	c #360A09",
"~.	c #422C2C",
"{.	c #462827",
"].	c #462E2A",
"^.	c #472828",
"/.	c #3F1A1A",
"(.	c #401815",
"_.	c #DADACA",
":.	c #F0F0DE",
"<.	c #E5E5D4",
"[.	c #C5C5B6",
"}.	c #B2B2A9",
"|.	c #CACAC3",
"1.	c #F0F0EF",
"2.	c #EEEEEE",
"3.	c #DBDBDB",
"4.	c #D3D3D3",
"5.	c #D5D5D5",
"6.	c #566B7E",
"7.	c #476178",
"8.	c #3C5C7A",
"9.	c #62798F",
"0.	c #68707D",
"a.	c #605A59",
"b.	c #4E3131",
"c.	c #452B2B",
"d.	c #5B3A2E",
"e.	c #2E1A15",
"f.	c #3C1E1E",
"g.	c #523331",
"h.	c #3F1916",
"i.	c #D3D3C3",
"j.	c #FEFEF7",
"k.	c #FDFDFA",
"l.	c #D0D0D0",
"m.	c #1D3B57",
"n.	c #415B73",
"o.	c #3D5C79",
"p.	c #4A6884",
"q.	c #2D5071",
"r.	c #6B6062",
"s.	c #4F3939",
"t.	c #5F5656",
"u.	c #564646",
"v.	c #4F3F36",
"w.	c #1D0404",
"x.	c #3A2C2C",
"y.	c #3B1717",
"z.	c #3D2622",
"A.	c #CCCCBD",
"B.	c #FEFEF6",
"C.	c #FEFEFB",
"D.	c #D2D2D2",
"E.	c #9F9F9F",
"F.	c #F1F1F1",
"G.	c #2C5984",
"H.	c #254C70",
"I.	c #33587B",
"J.	c #56718A",
"K.	c #60788F",
"L.	c #45424A",
"M.	c #727171",
"N.	c #261E1E",
"O.	c #4E4E4E",
"P.	c #2A2A2A",
"Q.	c #352525",
"R.	c #2C1515",
"S.	c #4A4444",
"T.	c #585858",
"U.	c #544D4B",
"V.	c #FDFDF4",
"W.	c #FFFFFC",
"X.	c #BBBBBB",
"Y.	c #DCDCDC",
"Z.	c #F2F2F2",
"`.	c #D9D9D9",
" +	c #326696",
".+	c #2B5277",
"++	c #5E768D",
"@+	c #6A7A8A",
"#+	c #2A1B1B",
"$+	c #716C6C",
"%+	c #010101",
"&+	c #4F4F4F",
"*+	c #242424",
"=+	c #433C3C",
"-+	c #4D261E",
";+	c #472725",
">+	c #432828",
",+	c #493E3E",
"'+	c #B5B5A9",
")+	c #E4E4D3",
"!+	c #EEEEDC",
"~+	c #FCFCF2",
"{+	c #FFFFFD",
"]+	c #F1F1EF",
"^+	c #F6F6F6",
"/+	c #E6E6E6",
"(+	c #326392",
"_+	c #2D5B87",
":+	c #5B666F",
"<+	c #6A5E5F",
"[+	c #311F1F",
"}+	c #6A6161",
"|+	c #120000",
"1+	c #4F4D4D",
"2+	c #0E0E0E",
"3+	c #434242",
"4+	c #281C18",
"5+	c #433530",
"6+	c #644739",
"7+	c #46221F",
"8+	c #3B2D2C",
"9+	c #6C6862",
"0+	c #B5AEA2",
"a+	c #DEDDCD",
"b+	c #F5F5EA",
"c+	c #F1F1EE",
"d+	c #EDEDEB",
"e+	c #B8B8B8",
"f+	c #E0E0E0",
"g+	c #D7D7D7",
"h+	c #E2E2E2",
"i+	c #DADADA",
"j+	c #230202",
"k+	c #315D88",
"l+	c #2E5D89",
"m+	c #315372",
"n+	c #666565",
"o+	c #504545",
"p+	c #302A2A",
"q+	c #514C4C",
"r+	c #050101",
"s+	c #564D4D",
"t+	c #180404",
"u+	c #564A4A",
"v+	c #130000",
"w+	c #0F0000",
"x+	c #261210",
"y+	c #3B2E27",
"z+	c #170808",
"A+	c #361F1F",
"B+	c #2A0F0F",
"C+	c #412D2A",
"D+	c #867D77",
"E+	c #C3C2BA",
"F+	c #E8E6DF",
"G+	c #A5A5A5",
"H+	c #230000",
"I+	c #1F0808",
"J+	c #272839",
"K+	c #335679",
"L+	c #185929",
"M+	c #67717D",
"N+	c #323B49",
"O+	c #443C3D",
"P+	c #504949",
"Q+	c #3C2C2C",
"R+	c #594E4E",
"S+	c #352120",
"T+	c #695857",
"U+	c #160A0A",
"V+	c #382727",
"W+	c #1F0B0B",
"X+	c #150101",
"Y+	c #180604",
"Z+	c #25241A",
"`+	c #231717",
" @	c #0D0101",
".@	c #220101",
"+@	c #5F4D4C",
"@@	c #B7B3B0",
"#@	c #8F8F8F",
"$@	c #160908",
"%@	c #250303",
"&@	c #170202",
"*@	c #231D17",
"=@	c #416633",
"-@	c #184C42",
";@	c #455E75",
">@	c #264563",
",@	c #596879",
"'@	c #545D6A",
")@	c #4F4849",
"!@	c #645E5C",
"~@	c #2B1615",
"{@	c #675D5A",
"]@	c #2E1311",
"^@	c #492D2D",
"/@	c #4E3C3C",
"(@	c #392A2A",
"_@	c #1B240F",
":@	c #155A13",
"<@	c #0F3A0F",
"[@	c #171005",
"}@	c #180000",
"|@	c #2D1212",
"1@	c #C0C0C0",
"2@	c #EBEBEB",
"3@	c #DEDEDE",
"4@	c #514646",
"5@	c #121A1A",
"6@	c #230303",
"7@	c #0A0000",
"8@	c #0F1B00",
"9@	c #2E4622",
"0@	c #2E5B85",
"a@	c #244A6E",
"b@	c #214261",
"c@	c #39556E",
"d@	c #4C647A",
"e@	c #324B64",
"f@	c #626D79",
"g@	c #281016",
"h@	c #5B6E54",
"i@	c #154F11",
"j@	c #313221",
"k@	c #3B1D1C",
"l@	c #4A2F2F",
"m@	c #5E5B5B",
"n@	c #5C5654",
"o@	c #253019",
"p@	c #0B4104",
"q@	c #083900",
"r@	c #343623",
"s@	c #8D8C8C",
"t@	c #D8D8D8",
"u@	c #D4D4D4",
"v@	c #271A1A",
"w@	c #1B1313",
"x@	c #1C0000",
"y@	c #100D00",
"z@	c #033200",
"A@	c #201B1B",
"B@	c #386895",
"C@	c #326695",
"D@	c #2D5C88",
"E@	c #254B6F",
"F@	c #2A4967",
"G@	c #254563",
"H@	c #5D7183",
"I@	c #20405E",
"J@	c #6E7B86",
"K@	c #2E3A2E",
"L@	c #144409",
"M@	c #144E10",
"N@	c #2A2A12",
"O@	c #434140",
"P@	c #4E4848",
"Q@	c #5A4B4B",
"R@	c #3C3332",
"S@	c #272A19",
"T@	c #084A02",
"U@	c #898180",
"V@	c #CFCFCF",
"W@	c #100C0C",
"X@	c #110000",
"Y@	c #170000",
"Z@	c #12460C",
"`@	c #0F0600",
" #	c #150202",
".#	c #2E5780",
"+#	c #254C71",
"@#	c #284866",
"##	c #204160",
"$#	c #5A6E81",
"%#	c #312831",
"&#	c #313F30",
"*#	c #18400B",
"=#	c #144A10",
"-#	c #283113",
";#	c #380F0C",
">#	c #574343",
",#	c #5B5757",
"'#	c #1A5218",
")#	c #81877C",
"!#	c #A4A4A4",
"~#	c #1B0909",
"{#	c #0E0101",
"]#	c #200000",
"^#	c #050000",
"/#	c #42403F",
"(#	c #170101",
"_#	c #284E73",
":#	c #2D5D88",
"<#	c #254564",
"[#	c #302B38",
"}#	c #393939",
"|#	c #351F1E",
"1#	c #27361F",
"2#	c #1A3C0B",
"3#	c #0E510A",
"4#	c #242F10",
"5#	c #3B1C19",
"6#	c #0A4202",
"7#	c #8C8C88",
"8#	c #E1E1E1",
"9#	c #ADADAD",
"0#	c #0D0404",
"a#	c #140000",
"b#	c #240000",
"c#	c #4C3C3C",
"d#	c #090606",
"e#	c #200B0B",
"f#	c #36485C",
"g#	c #32628F",
"h#	c #306391",
"i#	c #316594",
"j#	c #233D38",
"k#	c #393838",
"l#	c #312624",
"m#	c #2E4927",
"n#	c #351919",
"o#	c #3A473A",
"p#	c #454D45",
"q#	c #1E4B1D",
"r#	c #28371D",
"s#	c #7C6767",
"t#	c #AFAFAF",
"u#	c #000707",
"v#	c #000000",
"w#	c #040000",
"x#	c #150000",
"y#	c #241414",
"z#	c #1A0303",
"A#	c #312121",
"B#	c #311313",
"C#	c #262A2F",
"D#	c #3C5670",
"E#	c #30618E",
"F#	c #316494",
"G#	c #316392",
"H#	c #27393F",
"I#	c #352F2F",
"J#	c #352424",
"K#	c #5B5353",
"L#	c #341414",
"M#	c #424242",
"N#	c #455B45",
"O#	c #13490C",
"P#	c #351818",
"Q#	c #705858",
"R#	c #E4E4E4",
"S#	c #001616",
"T#	c #060000",
"U#	c #1D1515",
"V#	c #120F0F",
"W#	c #291919",
"X#	c #473233",
"Y#	c #444A4F",
"Z#	c #2A415C",
"`#	c #346592",
" $	c #306290",
".$	c #3A495D",
"+$	c #3B2828",
"@$	c #392828",
"#$	c #330E0E",
"$$	c #3D3737",
"%$	c #4F453E",
"&$	c #4C4B43",
"*$	c #383333",
"=$	c #6A6A6A",
"-$	c #001414",
";$	c #000404",
">$	c #080000",
",$	c #110303",
"'$	c #372F2F",
")$	c #4D3939",
"!$	c #260B0B",
"~$	c #5D5B61",
"{$	c #243F5B",
"]$	c #39668F",
"^$	c #274E72",
"/$	c #443B40",
"($	c #5C4C4C",
"_$	c #544646",
":$	c #504040",
"<$	c #320303",
"[$	c #351D1D",
"}$	c #3B3535",
"|$	c #5A5A5A",
"1$	c #605858",
"2$	c #B3B3B3",
"3$	c #B0B0B0",
"4$	c #001212",
"5$	c #000303",
"6$	c #181616",
"7$	c #4B2626",
"8$	c #170E0E",
"9$	c #563E3E",
"0$	c #180B0B",
"a$	c #58575D",
"b$	c #2A4866",
"c$	c #293141",
"d$	c #1E0E0E",
"e$	c #4F3B3B",
"f$	c #525448",
"g$	c #3E4B34",
"h$	c #4A3636",
"i$	c #381212",
"j$	c #534545",
"k$	c #362727",
"l$	c #574F4F",
"m$	c #EDEDED",
"n$	c #E9E9E9",
"o$	c #001010",
"p$	c #000101",
"q$	c #220202",
"r$	c #483737",
"s$	c #150303",
"t$	c #4F3636",
"u$	c #372121",
"v$	c #362929",
"w$	c #190909",
"x$	c #212D11",
"y$	c #196018",
"z$	c #276226",
"A$	c #4F5D4D",
"B$	c #4B4545",
"C$	c #3A2A2A",
"D$	c #464646",
"E$	c #404040",
"F$	c #EAEAEA",
"G$	c #B2B2B2",
"H$	c #001B1B",
"I$	c #000D0D",
"J$	c #0B0000",
"K$	c #250202",
"L$	c #1F0000",
"M$	c #2D1414",
"N$	c #401F1F",
"O$	c #070000",
"P$	c #3E2727",
"Q$	c #181515",
"R$	c #373736",
"S$	c #16260B",
"T$	c #12520B",
"U$	c #1E5216",
"V$	c #415840",
"W$	c #353535",
"X$	c #2C6026",
"Y$	c #A4ABA4",
"Z$	c #001717",
"`$	c #000909",
" %	c #0E0000",
".%	c #250606",
"+%	c #240707",
"@%	c #3A2121",
"#%	c #260000",
"$%	c #381817",
"%%	c #320907",
"&%	c #1A0D0D",
"*%	c #3E3939",
"=%	c #100000",
"-%	c #13280A",
";%	c #205219",
">%	c #210B0B",
",%	c #1A0000",
"'%	c #045500",
")%	c #314231",
"!%	c #8E9A8E",
"~%	c #8AAE8A",
"{%	c #000606",
"]%	c #0A0909",
"^%	c #1B0000",
"/%	c #090000",
"(%	c #1C0202",
"_%	c #180F0F",
":%	c #010000",
"<%	c #110101",
"[%	c #524847",
"}%	c #122E00",
"|%	c #075D07",
"1%	c #146814",
"2%	c #1F2C0A",
"3%	c #1D1B1B",
"4%	c #0A0D0D",
"5%	c #020000",
"6%	c #030000",
"7%	c #220000",
"8%	c #544848",
"9%	c #270000",
"0%	c #575D51",
"a%	c #7B837B",
"b%	c #412222",
"c%	c #182424",
"d%	c #ACAEAE",
"e%	c #001111",
"f%	c #000202",
"g%	c #332020",
"h%	c #5B4C4C",
"i%	c #807D7D",
"j%	c #391111",
"k%	c #000F0F",
"l%	c #310505",
"m%	c #390F0F",
"n%	c #000E0E",
"o%	c #000C0C",
"p%	c #332E2E",
"q%	c #001818",
"r%	c #000808",
"s%	c #001313",
"t%	c #001C1C",
"u%	c #000505",
"v%	c #001F1F",
"                                                                                                ",
"                                                                    .                           ",
"                                                                  + @ @ # $ %                   ",
"                                                                & @ @ @ @ @ @ @ * =             ",
"                                                              - @ @ @ @ @ @ @ @ @ @ @ ; >       ",
"                                                              # @ @ @ @ @ @ @ @ @ @ @ @ @ @ ,   ",
"                                                            ' @ @ @ @ @ @ @ @ @ @ @ @ @ @ ) !   ",
"                                                          ~ @ @ @ @ @ @ @ @ @ @ @ @ @ @ @ { ]   ",
"                                                          # @ @ @ @ @ @ @ @ @ @ @ @ @ @ ^ / ]   ",
"                        ( _ : < [                       } @ @ @ @ @ @ @ @ @ @ @ @ @ @ @ | ] ]   ",
"                        1 2 3 4 5 6 7 [     8 9         0 a b @ @ @ @ @ @ @ @ @ @ @ @ , c ] ]   ",
"                      d e f g h i j k l m   n o o p q r s s t u v , @ @ @ @ @ @ @ @ @ w c x ]   ",
"                    y z A g g B C D E F G H o o o o o I s s s s s J K L ^ @ @ @ @ @ M ] N O /   ",
"                  P Q R g g S T U V W X Y Z `  ...o o +.s s s s s s s @.#.$.{ @ @ ) %.&.#.*.=.  ",
"                -.;.>.,.g '.).!.~.{.].^./.(._.:.<.[.}.|.1.s s s s s s s s s 2.3.c | ] 4.s s 5.  ",
"                6.7.8.9.g 0.a.b.c.d.e.f.g.h.i.:.:.:.j.k.@.s s s s s s s s s s s s l.] 0 s s u   ",
"              m.n.o.p.9.q.r.s.t.u.v.w.x.y.z.A.:.:.:.B.C.1.s s s s s s s s s s s s D.] E.&.F.u   ",
"              G.H.I.J.K.L.M.N.O.P.Q.R.S.T.U.` :.:.:.V.W.1.s s s s s s s s s s s s 4.X.) Y.Z.`.  ",
"               +G..+++@+#+$+%+&+*+=+-+;+>+,+'+)+!+:.~+{+]+s s s s s s s s s s s s 5.%.L ^+/+`.  ",
"              (+_+g :+<+[+}+|+1+2+3+4+5+6+7+8+9+0+a+b+c+d+s s s s s s s s s s s s u e+f+g+h+i+  ",
"            j+k+l+m+n+o+p+q+r+s+t+u+v+w+x+y+z+A+B+C+D+E+F+s s s s s s s s s s s s `.u G+a f+Y.  ",
"          H+I+J+K+L+M+N+O+P+Q+R+S+T+U+V+W+X+Y+Z+`+ @.@+@@@s s s s s s s s s s s s i+3.#@] f+Y.  ",
"        $@%@&@*@=@-@;@>@,@'@)@!@~@{@]@^@/@(@_@:@<@[@}@|@# s s s s s s s s s s s s 3.`.#@1@2@3@  ",
"      4@5@6@7@8@9@0@a@b@c@d@e@f@g@h@i@j@k@l@m@n@o@p@q@r@s@s s s s s s s s s s s s 0 t@* u@s 3@  ",
"      v@w@x@y@z@A@B@C@D@E@F@G@H@I@J@K@L@M@N@O@P@Q@R@S@T@U@s s s s s s s s s s s s 3@u } V@t f+  ",
"      W@X@Y@Z@`@ #.# + +C@l++#@###$#b@%#&#*#=#-#;#>#,#'#)#s s s s s s s s s s s s f+1@E.@ !#1@  ",
"    ~#{#]#^#/#(#w+_# + + + + +:#S <#f [#}#|#1#2#3#4#5#6#7#s s s s s s s s s s s s 8#9#@ @ @ !   ",
"    0#a#v+b#c#d#e#f#g# + + + +h#i#l+g j#k#l#m#n#o#p#q#r#s#s s s s s s s s s s s s #.t#@ @ M ]   ",
"  u#v#w#x#v+y#z#A#B#C#D#E# + +F#G#G#g H#I#J#K#L#M#N#O#P#Q#s s s s s s s s s s s s R#t#@ @ ! t#  ",
"  S#u#v#v#T#6 |+U#V#W#X#Y#Z#`#C@ $i#g .$+$@$K##$$$%$&$*$=$s s s s s s s s s s s s /+w @ M ]     ",
"      -$;$v#v#>$6 X@,$'$)$!$~${$]$C@^$/$($_$:$<$[$}$|$}#1$s s s s s s s s s s s s J w @ 2$3$    ",
"          4$5$v#v#v#v#6$7$8$9$0$a$b$c$d$[+e$f$g$h$i$j$k$l$m$s s s s s s s s s s s n$2$M ]       ",
"              o$p$v#v#v#q$q$r$s$t$u$v$x#(#w$x$y$z$A$B$C$D$E$^ n$s s s s s s s s s F$! ! G$      ",
"                H$I$v#v#v#J$K$L$c.M$N$O$P$k Q$R$S$T$U$V$W$r+|+X$Y$2@s s s s s s s t X.]         ",
"                    Z$`$v#v#v# %.%+%@%#%$%%%&%*%=%z+-%;%>%,%m '%)%!%~%#.s s s s s m$&.2$        ",
"                        S#{%v#%+]%X@#%^%7@/%(%_%:%<%}@[%[ ]#m }%|%1%2%3%~ 3@s s s 2.&.          ",
"                            -$4%v#v#5%x##%6 6%:%7@x@7%8%]#7%v+9%0%a%b% %v#c%d%/+s @.v           ",
"                                e%f%v#v#6%}@9%7%x@7@5%g%7@v#v#b#h%i%j%>$p$H$      #.            ",
"                                  H$k%f%v#v#6%6%v#v#v#v#v#v#v#X@l%m%Y@v#n%                      ",
"                                      H$o%p$v#v#v#v#v#v#v#v#v#v#^#p%v#f%                        ",
"                                          q%r%v#v#v#v#v#v#v#v#v#v#v#v#o$                        ",
"                                              S#{%v#v#v#v#v#v#v#v#v#5$                          ",
"                                                  s%;$v#v#v#v#v#v#v#e%                          ",
"                                                    t%e%f%v#v#v#v#5$                            ",
"                                                        t%k%p$v#v#4$                            ",
"                                                            t%o%u%                              ",
"                                                                v%                              ",
"                                                                                                "};
