/* XPM */
static char *verifychip[] = {
/* width height ncolors chars_per_pixel */
"22 22 120 2",
/* colors */
"   c #FFFFFF",
" . c #ABABAB",
" X c #919191",
" o c #505051",
" O c #858585",
" + c #6F6F6F",
" @ c #6B6B6B",
" # c #696969",
" $ c #636363",
" % c #535353",
" & c #515151",
" * c #4F4F4F",
" = c #C7C708",
" - c #8C8C0D",
" ; c #4D4D4D",
" : c #C5C506",
" > c #4B4B4B",
" , c #474747",
" < c #848405",
" 1 c #F6F6F6",
" 2 c #3F3F3F",
" 3 c #434304",
" 4 c #393939",
" 5 c #EAEAEA",
" 6 c #2F2F2F",
" 7 c #686828",
" 8 c #2B2B2B",
" 9 c #292929",
" 0 c #626222",
" q c #272727",
" w c #D8D8D8",
" e c #252525",
" r c #D6D6D6",
" t c #232323",
" y c #212121",
" u c #1B1B1B",
" i c #191919",
" p c #525212",
" a c #151515",
" s c #C6C6C6",
" d c #4C4C0C",
" f c #404000",
" g c #B6B6B6",
" h c #48484A",
" j c #010101",
" k c #B2B2B2",
" l c #B0B0B0",
" z c #ACACAC",
" x c #A4A4A4",
" c c #A0A0A0",
" v c #9A9A9A",
" b c #989898",
" n c #969696",
" m c #888888",
" M c #828282",
" N c #808080",
" B c #7C7C7C",
" V c #767676",
" C c #747474",
" Z c #6E6E6E",
" A c #6A6A6A",
" S c #646464",
" D c #606060",
" F c #6A6A6D",
" G c #585858",
" H c #545454",
" J c #525252",
" K c #CACA0B",
" L c #4E4E4E",
" P c #FFFFFF",
" I c #C6C607",
" U c #FFFF00",
" Y c #C4C405",
" T c #4A4A4A",
" R c #464646",
" E c #838304",
" W c #444444",
" Q c #424242",
" ! c #3E3E3E",
" ~ c #3C3C3C",
" ^ c #3A3A3A",
" / c #383838",
" ( c #363636",
" ) c #343434",
" _ c #323232",
" ` c #303030",
" ' c #E1E1E1",
" ] c #2E2E2E",
" [ c #2C2C2C",
" { c #2A2A2A",
" } c #282828",
" | c #262626",
".  c #242424",
".. c #222222",
".X c #969616",
".o c #5B5B1B",
".O c #676769",
".+ c #202020",
".@ c #949414",
".# c #1E1E1E",
".$ c #1C1C1C",
".% c #CDCDCD",
".& c #909010",
".* c #1A1A1A",
".= c #C9C9C9",
".- c #161616",
".; c #141414",
".: c #121212",
".> c #101010",
"., c #0E0E0E",
".< c #0C0C0C",
".1 c #808000",
".2 c #0A0A0A",
".3 c #080808",
".4 c #060606",
".5 c #B7B7B7",
".6 c #929296",
".7 c #040404",
".8 c #020202",
".9 c None",
/* pixels */
"                                            ",
"                     A n b H 6 6            ",
"                  .: Z N B % 4 ( 6          ",
"                 f U U U f ] [ 4 6 6        ",
"              .1 U.1.1 K U d.O 6 H H 6      ",
"               U f W T 9 U.X ].O H 6 % 6    ",
"           ` 0.1 8 W...  U.@ { [ ] J % 6    ",
"         %.5 5 L !.$.#.& U.o | } ; & $ 6    ",
"       ` z ' m /.- - I U =.+.. , L $ P W    ",
"     H N _ T _.>.: U U p.*.$ Q T 8 P P x    ",
"   & . r T [.2.<., U U.;.- ~ R } D [ v G    ",
"   +.% C |.7.4.3.2 U U.> ( Q e.= c   o      ",
"   ~ q >   j.8.7.4 E < ` 2 y X P 1 G `      ",
"   ` a a >     j.8 3 7 ^.# G.. # V          ",
"   ` a a a ;       U U u s b  .6 `          ",
"       a a i *   t Y : O w k G   `          ",
"       a a a.. J ) a l i , S                ",
"         a a i 8 ( c g @ F `                ",
"           a a.. ( $ M $   `                ",
"             a } (   h G                    ",
"                     `                      ",
"                     `                      "
};
