/* XPM */
const char * verify_xpm[] = {
"24 24 179 2",
"  	c None",
". 	c #78726E",
"+ 	c #888888",
"@ 	c #7E7E7E",
"# 	c #6B6B6B",
"$ 	c #757270",
"% 	c #777676",
"& 	c #777777",
"* 	c #717171",
"= 	c #676767",
"- 	c #656565",
"; 	c #E7E41B",
"> 	c #FBFA03",
", 	c #F3F30C",
"' 	c #C9C93E",
") 	c #85857E",
"! 	c #7B7B7B",
"~ 	c #747474",
"{ 	c #6E6E6E",
"] 	c #666666",
"^ 	c #959392",
"/ 	c #F7F708",
"( 	c #FFFF00",
"_ 	c #CFCF33",
": 	c #7D7D7D",
"< 	c #767676",
"[ 	c #6C6C6C",
"} 	c #827D7B",
"| 	c #949392",
"1 	c #D3D34B",
"2 	c #A6A690",
"3 	c #B6B66C",
"4 	c #F9F906",
"5 	c #808080",
"6 	c #757575",
"7 	c #707070",
"8 	c #686868",
"9 	c #82726A",
"0 	c #76706C",
"a 	c #929292",
"b 	c #A6A6A6",
"c 	c #A3A3A3",
"d 	c #9F9F9F",
"e 	c #9F9F90",
"f 	c #F4F40C",
"g 	c #848484",
"h 	c #797979",
"i 	c #6C5548",
"j 	c #919191",
"k 	c #A9A9A9",
"l 	c #A7A7A7",
"m 	c #A4A4A4",
"n 	c #A0A0A0",
"o 	c #C7C755",
"p 	c #C6C643",
"q 	c #868686",
"r 	c #828282",
"s 	c #787878",
"t 	c #606060",
"u 	c #807A77",
"v 	c #999594",
"w 	c #B2B2B2",
"x 	c #AFAFAF",
"y 	c #AAAAAA",
"z 	c #A5A5A5",
"A 	c #B0B084",
"B 	c #FBFB05",
"C 	c #E8E81D",
"D 	c #8E8E88",
"E 	c #727272",
"F 	c #5E5E5E",
"G 	c #B4B4B4",
"H 	c #BCBCBC",
"I 	c #B5B5B5",
"J 	c #B0B0B0",
"K 	c #A1A1A1",
"L 	c #8B8B8B",
"M 	c #E6E629",
"N 	c #A9A974",
"O 	c #8E8E8E",
"P 	c #8A8A8A",
"Q 	c #858585",
"R 	c #838383",
"S 	c #818181",
"T 	c #6F6D6C",
"U 	c #6C625C",
"V 	c #585757",
"W 	c #7C7C7C",
"X 	c #ACABAA",
"Y 	c #BDBCBC",
"Z 	c #B7B7B7",
"` 	c #B1B1B1",
" .	c #959595",
"..	c #A2A2A2",
"+.	c #FCFC03",
"@.	c #99998B",
"#.	c #909090",
"$.	c #747475",
"%.	c #9F938E",
"&.	c #9C7258",
"*.	c #555250",
"=.	c #999999",
"-.	c #A6A5A5",
";.	c #B8B8B8",
">.	c #B3B3B3",
",.	c #B6B6B6",
"'.	c #E9E923",
").	c #CFCF41",
"!.	c #7F7F7F",
"~.	c #918682",
"{.	c #967460",
"].	c #626161",
"^.	c #A39691",
"/.	c #9B6E54",
"(.	c #73706E",
"_.	c #626262",
":.	c #A8A8A8",
"<.	c #9E9E9E",
"[.	c #A9A984",
"}.	c #E9E91E",
"|.	c #FCFC02",
"1.	c #C5C548",
"2.	c #818080",
"3.	c #7A7674",
"4.	c #737474",
"5.	c #B1A29C",
"6.	c #A87758",
"7.	c #5A5856",
"8.	c #9C8E8A",
"9.	c #996C50",
"0.	c #9C9C9C",
"a.	c #989898",
"b.	c #A4948E",
"c.	c #A3765A",
"d.	c #686867",
"e.	c #B0A09A",
"f.	c #A57354",
"g.	c #898785",
"h.	c #BAB6B4",
"i.	c #9A6D52",
"j.	c #979797",
"k.	c #BEBE43",
"l.	c #F9F806",
"m.	c #C9B72A",
"n.	c #B2A19A",
"o.	c #A57455",
"p.	c #636262",
"q.	c #AEA49E",
"r.	c #A57254",
"s.	c #696969",
"t.	c #6D6D6D",
"u.	c #7E7A78",
"v.	c #7C6456",
"w.	c #F8F805",
"x.	c #FAF704",
"y.	c #6D6C6B",
"z.	c #B2A099",
"A.	c #646464",
"B.	c #7F8080",
"C.	c #A69691",
"D.	c #A76944",
"E.	c #B8B427",
"F.	c #FBFA07",
"G.	c #D0B62B",
"H.	c #807E7D",
"I.	c #B4A8A2",
"J.	c #AD7859",
"K.	c #585858",
"L.	c #575757",
"M.	c #808181",
"N.	c #AB9B97",
"O.	c #A86A45",
"P.	c #60554F",
"Q.	c #AC9E98",
"R.	c #555555",
"S.	c #978984",
"T.	c #AB704D",
"U.	c #AEADAC",
"V.	c #B58366",
"                                                ",
"                                                ",
"                            . + @ #             ",
"                          $ % & * = -           ",
"                    ; > , ' ) ! ~ { ] #         ",
"                ^ / ( ( ( ( _ : < * [ - #       ",
"              } | 1 2 3 ( ( 4 5 ! 6 7 { 8 *     ",
"        9 0 a b b c d e ( ( f g @ h 6 * { 8 6   ",
"    i < j k l b b m n o ( ( p q r @ s 6 7 [ t q ",
"  u v w x y b z z m A B ( C D + g r : & E [ F r ",
"q G H I J K L a m c M ( ( N O P Q R S h T U V W ",
"r X Y Z ` W O  .c ..+.( ( @.#.P + 5 $.[ %.&.*.P ",
"{ =.-.;.>.a m ,.b n '.( ( ).#.P !.~.{.].^./.(.  ",
"_.j O n w x :.z K <.[.}.|.1.2.3.4.5.6.7.8.9.    ",
"  h q R a y k m n 0.a.#.g @ b.c.d.e.f.g.h.i.    ",
"    { W < 5 n ..j.O k.l.m.7 n.o.p.q.r.    i.    ",
"      s.t.= s.Q u.v.w.( x.y.z.r.    r.          ",
"        A.t F B.C.D.E.F.G.H.I.r.    J.          ",
"          K.L.M.N.O.P.Q.r.    r.                ",
"            R.~ S.T.    r.                      ",
"              #.U.r.    V.                      ",
"                  r.                            ",
"                                                ",
"                                                "};
