G04 (Genere par PCBnew (20080825c)) le 21/7/2009-11:16:03*
G01*
G70*
G90*
%MOIN*%
G04 Gerber Fmt 3.4, Leading zero omitted, Abs format*
%FSLAX34Y34*%
G04 APERTURE LIST*
%ADD10C,0.015000*%
%ADD11C,0.012000*%
%ADD12R,0.063000X0.063000*%
%ADD13C,0.063000*%
%ADD14O,0.062000X0.090000*%
%ADD15R,0.062000X0.090000*%
%ADD16R,0.055000X0.055000*%
%ADD17C,0.055000*%
%ADD18C,0.070000*%
%ADD19R,0.088600X0.088600*%
%ADD20C,0.088600*%
%ADD21C,0.169300*%
%ADD22C,0.059100*%
%ADD23C,0.030000*%
%ADD24C,0.005000*%
%ADD25C,0.015000*%
%ADD26C,0.006000*%
%ADD27C,0.004900*%
%ADD28C,0.008000*%
%ADD29C,0.011800*%
%ADD30R,0.083000X0.083000*%
%ADD31C,0.083000*%
%ADD32O,0.082000X0.110000*%
%ADD33R,0.082000X0.110000*%
%ADD34R,0.075000X0.075000*%
%ADD35C,0.075000*%
%ADD36C,0.090000*%
%ADD37R,0.108600X0.108600*%
%ADD38C,0.108600*%
%ADD39C,0.189300*%
%ADD40C,0.079100*%
G04 APERTURE END LIST*
G54D10*
X45000Y-37750D02*
X46200Y-37750D01*
X46200Y-20000D02*
X46200Y-20050D01*
X45000Y-20000D02*
X46200Y-20000D01*
X44250Y-37750D02*
X45000Y-37750D01*
X44250Y-20000D02*
X45000Y-20000D01*
X46200Y-37750D02*
X46200Y-20000D01*
X12000Y-37750D02*
X44250Y-37750D01*
X12000Y-20000D02*
X12000Y-37750D01*
X44250Y-20000D02*
X12000Y-20000D01*
G54D30*
X37550Y-34200D03*
G54D31*
X36800Y-33450D03*
X37550Y-32700D03*
X38150Y-35850D03*
X37400Y-36600D03*
X36650Y-35850D03*
G54D30*
X42500Y-29850D03*
G54D31*
X41750Y-29100D03*
X42500Y-28350D03*
G54D32*
X31250Y-27500D03*
X30250Y-27500D03*
X29250Y-27500D03*
X28250Y-27500D03*
X27250Y-27500D03*
X26250Y-27500D03*
X25250Y-27500D03*
X24250Y-27500D03*
X23250Y-27500D03*
X22250Y-27500D03*
X21250Y-27500D03*
X20250Y-27500D03*
X19250Y-27500D03*
G54D33*
X32250Y-27500D03*
G54D32*
X19250Y-30500D03*
X20250Y-30500D03*
X21250Y-30500D03*
X22250Y-30500D03*
X23250Y-30500D03*
X24250Y-30500D03*
X25250Y-30500D03*
X26250Y-30500D03*
X27250Y-30500D03*
X28250Y-30500D03*
X29250Y-30500D03*
X30250Y-30500D03*
X31250Y-30500D03*
X32250Y-30500D03*
G54D34*
X37550Y-23600D03*
G54D35*
X37550Y-24600D03*
G54D34*
X31250Y-25000D03*
G54D35*
X31250Y-26000D03*
G54D34*
X29250Y-25000D03*
G54D35*
X29250Y-26000D03*
G54D36*
X24500Y-25500D03*
X26500Y-25500D03*
G54D34*
X30700Y-32000D03*
G54D35*
X31700Y-32000D03*
X32700Y-32000D03*
X33700Y-32000D03*
X34700Y-32000D03*
G54D34*
X43100Y-26750D03*
G54D35*
X43100Y-25750D03*
X43100Y-24750D03*
X43100Y-23750D03*
X43100Y-22750D03*
G54D37*
X32674Y-24000D03*
G54D38*
X35626Y-24000D03*
X34642Y-24000D03*
G54D37*
X34226Y-33400D03*
G54D38*
X31274Y-33400D03*
X32258Y-33400D03*
G54D37*
X18226Y-34000D03*
G54D38*
X15274Y-34000D03*
X16258Y-34000D03*
G54D37*
X21484Y-32250D03*
G54D38*
X18532Y-32250D03*
X19516Y-32250D03*
G54D37*
X42776Y-21250D03*
G54D38*
X39824Y-21250D03*
X40808Y-21250D03*
G54D37*
X17024Y-26000D03*
G54D38*
X19976Y-26000D03*
X18992Y-26000D03*
G54D37*
X25850Y-21300D03*
G54D38*
X29850Y-21300D03*
G54D37*
X28850Y-22500D03*
G54D38*
X32850Y-22500D03*
G54D37*
X34300Y-22450D03*
G54D38*
X38300Y-22450D03*
G54D37*
X45100Y-32600D03*
G54D38*
X41100Y-32600D03*
G54D37*
X21750Y-23250D03*
G54D38*
X21750Y-24341D03*
G54D37*
X18750Y-23750D03*
G54D38*
X19841Y-23750D03*
G54D37*
X16750Y-23250D03*
G54D38*
X16750Y-24341D03*
G54D37*
X41950Y-26700D03*
G54D38*
X41950Y-22700D03*
G54D37*
X40900Y-27050D03*
G54D38*
X40900Y-23050D03*
G54D39*
X15148Y-26886D03*
X15148Y-31618D03*
G54D40*
X17000Y-29742D03*
X16210Y-29742D03*
X16210Y-28758D03*
X17000Y-28758D03*
G54D35*
X24500Y-23750D03*
X23500Y-23750D03*
X25500Y-23750D03*
X26500Y-23750D03*
G54D38*
X39400Y-22350D03*
X39400Y-26350D03*
X28250Y-31850D03*
X28250Y-35850D03*
X29500Y-31850D03*
X29500Y-35850D03*
X24650Y-35900D03*
X24650Y-31900D03*
X25850Y-35900D03*
X25850Y-31900D03*
X27500Y-22250D03*
X23500Y-22250D03*
X19500Y-22000D03*
X15500Y-22000D03*
X13750Y-26000D03*
X13750Y-22000D03*
X27050Y-31850D03*
X27050Y-35850D03*
X34000Y-29550D03*
X38000Y-29550D03*
X34000Y-30750D03*
X38000Y-30750D03*
G54D37*
X40100Y-28600D03*
G54D38*
X40100Y-32600D03*
X38050Y-25850D03*
X34050Y-25850D03*
X34050Y-27100D03*
X38050Y-27100D03*
X34050Y-28400D03*
X38050Y-28400D03*
X44150Y-26650D03*
X44150Y-30650D03*
X39750Y-36950D03*
X43750Y-36950D03*
G54D30*
X45050Y-35800D03*
G54D31*
X44300Y-35050D03*
X45050Y-34300D03*
M02*
