/* XPM */
static const char *includefile_xpm[]={
"16 16 6 1",
". c None",
"# c #000000",
"b c #e0bc38",
"c c #f0dc5c",
"a c #fcfc80",
"d c #ff0000",
"................",
"..........##....",
".........#aa##..",
"........#aaaaa#.",
".......#aaaaab#.",
"....##.#ccaabb#.",
"...#aa##cccbbb#.",
"..#aaaaa#ccbb#..",
".#aaaaab##cb#...",
".#ccaabb#.##....",
".#cccbbb#.......",
".#cccbb#...ddd..",
"..##cb#...ddddd.",
"....##....ddddd.",
"..........ddddd.",
"...........ddd.."};
