/* XPM */
const char * erase_xpm[] = {
"24 24 209 2",
"  	c None",
". 	c #78726E",
"+ 	c #888888",
"@ 	c #848477",
"# 	c #6E6E68",
"$ 	c #757270",
"% 	c #84836A",
"& 	c #D4D424",
"* 	c #DDDD1B",
"= 	c #7E7E57",
"- 	c #656565",
"; 	c #908580",
"> 	c #817E7C",
", 	c #93937B",
"' 	c #D3D332",
") 	c #FEFE00",
"! 	c #CACA31",
"~ 	c #7A7A6E",
"{ 	c #6E6E6E",
"] 	c #666666",
"^ 	c #6B6B6B",
"/ 	c #959392",
"( 	c #858585",
"_ 	c #929189",
": 	c #A0A08C",
"< 	c #FFFF00",
"[ 	c #909076",
"} 	c #7D7D7D",
"| 	c #767676",
"1 	c #74746D",
"2 	c #6C6C6C",
"3 	c #827D7B",
"4 	c #9E9D83",
"5 	c #E0E035",
"6 	c #D8D83D",
"7 	c #999999",
"8 	c #DFDF2B",
"9 	c #C5C541",
"0 	c #90906E",
"a 	c #B0B048",
"b 	c #93935A",
"c 	c #71716F",
"d 	c #686868",
"e 	c #717171",
"f 	c #82726A",
"g 	c #76706C",
"h 	c #9B9B84",
"i 	c #E0E039",
"j 	c #DBDB3F",
"k 	c #A3A398",
"l 	c #A7A77B",
"m 	c #E9E916",
"n 	c #9E9E5E",
"o 	c #797979",
"p 	c #757575",
"q 	c #6C5548",
"r 	c #919191",
"s 	c #C3C374",
"t 	c #F9F909",
"u 	c #A6A6A6",
"v 	c #A4A4A4",
"w 	c #A0A0A0",
"x 	c #9C9C99",
"y 	c #969696",
"z 	c #DEDE2A",
"A 	c #C7C73D",
"B 	c #828282",
"C 	c #7E7E7E",
"D 	c #787878",
"E 	c #707070",
"F 	c #606060",
"G 	c #868686",
"H 	c #807A77",
"I 	c #999594",
"J 	c #B2B2B2",
"K 	c #AFAFAF",
"L 	c #ADADA2",
"M 	c #FDFD03",
"N 	c #B2B28D",
"O 	c #B0B08E",
"P 	c #C0C06A",
"Q 	c #AAAA85",
"R 	c #979797",
"S 	c #A4A478",
"T 	c #FEFE01",
"U 	c #8A8A7C",
"V 	c #777777",
"W 	c #727272",
"X 	c #5E5E5E",
"Y 	c #B4B4B4",
"Z 	c #BCBCBC",
"` 	c #B5B5B5",
" .	c #B0B0B0",
"..	c #A1A1A1",
"+.	c #C7C743",
"@.	c #F8F80B",
"#.	c #E8E827",
"$.	c #B5B57C",
"%.	c #9D9D9D",
"&.	c #989898",
"*.	c #939393",
"=.	c #DDDD29",
"-.	c #C7C73B",
";.	c #838383",
">.	c #818181",
",.	c #6F6D6C",
"'.	c #6C625C",
").	c #585757",
"!.	c #7C7C7C",
"~.	c #ACABAA",
"{.	c #BDBCBC",
"].	c #B7B7B7",
"^.	c #B1B1B1",
"/.	c #929288",
"(.	c #FCFC03",
"_.	c #B3B384",
":.	c #9A9A9A",
"<.	c #949494",
"[.	c #A3A377",
"}.	c #878778",
"|.	c #747475",
"1.	c #9F938E",
"2.	c #9C7258",
"3.	c #555250",
"4.	c #8A8A8A",
"5.	c #A6A5A5",
"6.	c #B8B8B8",
"7.	c #B3B3B3",
"8.	c #929292",
"9.	c #DBDB57",
"0.	c #E5E52A",
"a.	c #9E9E9E",
"b.	c #9B9B9B",
"c.	c #909090",
"d.	c #E2E222",
"e.	c #ADA460",
"f.	c #967460",
"g.	c #626161",
"h.	c #A39691",
"i.	c #9B6E54",
"j.	c #73706E",
"k.	c #626262",
"l.	c #8E8E8E",
"m.	c #A8A8A8",
"n.	c #A8A89E",
"o.	c #AFAF7C",
"p.	c #818080",
"q.	c #84816A",
"r.	c #757672",
"s.	c #B1A29C",
"t.	c #A87758",
"u.	c #5A5856",
"v.	c #9C8E8A",
"w.	c #996C50",
"x.	c #AAAAAA",
"y.	c #A9A9A9",
"z.	c #D1D14D",
"A.	c #E4E427",
"B.	c #848484",
"C.	c #A4948E",
"D.	c #A37659",
"E.	c #686867",
"F.	c #B0A09A",
"G.	c #A57354",
"H.	c #898785",
"I.	c #BAB6B4",
"J.	c #9A6D52",
"K.	c #808080",
"L.	c #A2A2A2",
"M.	c #9B9B91",
"N.	c #9A8E71",
"O.	c #926D56",
"P.	c #B2A19A",
"Q.	c #A57455",
"R.	c #636262",
"S.	c #AEA49E",
"T.	c #A57254",
"U.	c #696969",
"V.	c #6D6D6D",
"W.	c #676767",
"X.	c #7E7A78",
"Y.	c #9B8941",
"Z.	c #716F6A",
"`.	c #B3A098",
" +	c #A47152",
".+	c #6D6C6B",
"++	c #B2A099",
"@+	c #646464",
"#+	c #7F8080",
"$+	c #A69691",
"%+	c #A76944",
"&+	c #675D56",
"*+	c #B4A19A",
"=+	c #807E7D",
"-+	c #B4A8A2",
";+	c #AD7859",
">+	c #585858",
",+	c #575757",
"'+	c #808181",
")+	c #AB9B97",
"!+	c #A86A45",
"~+	c #60554F",
"{+	c #AC9E98",
"]+	c #555555",
"^+	c #747474",
"/+	c #978984",
"(+	c #AB704D",
"_+	c #AEADAC",
":+	c #B58366",
"                                                ",
"                                                ",
"                            . + @ #             ",
"                          $ % & * = -           ",
"                    ; > , ' ) ! ~ { ] ^         ",
"                / ( _ : < < [ } | 1 2 - ^       ",
"              3 4 5 6 7 8 < 9 0 a b c { d e     ",
"        f g h i ) j k 7 l < ) m n o p e { d p   ",
"    q | r s < t u v w x y z < A B C D p E 2 F G ",
"  H I J K L M < N O P Q R S < T U B } V W 2 X B ",
"G Y Z `  ...+.< @.#.$.%.&.*.=.< -.;.>.o ,.'.).!.",
"B ~.{.].^.!./.(.< _.w %.:.<.[.< < }.|.2 1.2.3.4.",
"{ 7 5.6.7.8.v 9.< 0.a.b.R <.c.d.< e.f.g.h.i.j.  ",
"k.r l.w J K m.n.(.< o.&.y l.p.q.r.s.t.u.v.w.    ",
"  o G ;.8.x.y.v z.< A.c.B.C C.D.E.F.G.H.I.J.    ",
"    { !.| K.w L.M.< ) N.O.E P.Q.R.S.T.    J.    ",
"      U.V.W.U.( X.Y.Z.`. +.+++T.    T.          ",
"        @+F X #+$+%+&+*+T.=+-+T.    ;+          ",
"          >+,+'+)+!+~+{+T.    T.                ",
"            ]+^+/+(+    T.                      ",
"              c._+T.    :+                      ",
"                  T.                            ",
"                                                ",
"                                                "};
